<svg xmlns="http://www.w3.org/2000/svg" xmlns:xlink="http://www.w3.org/1999/xlink" width="304.791" height="213.499" viewBox="0 0 304.791 213.499">
  <defs>
    <linearGradient id="linear-gradient" y1="0.5" x2="1" y2="0.5" gradientUnits="objectBoundingBox">
      <stop offset="0" stop-color="#e0dafe"/>
      <stop offset="1" stop-color="#ece9fd"/>
    </linearGradient>
    <linearGradient id="linear-gradient-4" x1="0.936" y1="-0.078" x2="-0.19" y2="1.416" gradientUnits="objectBoundingBox">
      <stop offset="0" stop-color="#8340e2"/>
      <stop offset="1" stop-color="#974fff"/>
    </linearGradient>
    <linearGradient id="linear-gradient-6" x1="1.214" y1="-0.449" x2="-0.632" y2="2.003" xlink:href="#linear-gradient-4"/>
    <linearGradient id="linear-gradient-8" x1="2.344" y1="-1.948" x2="-2.422" y2="4.38" gradientUnits="objectBoundingBox">
      <stop offset="0" stop-color="#fe9f62"/>
      <stop offset="1" stop-color="#ffb48e"/>
    </linearGradient>
    <linearGradient id="linear-gradient-10" x1="-1075.829" y1="-10.029" x2="-1083.829" y2="-9.171" gradientUnits="objectBoundingBox">
      <stop offset="0" stop-color="#31015d"/>
      <stop offset="1" stop-color="#520f91"/>
    </linearGradient>
    <linearGradient id="linear-gradient-11" x1="-139.879" y1="-52.988" x2="-140.2" y2="-49.541" xlink:href="#linear-gradient-10"/>
    <linearGradient id="linear-gradient-12" x1="0" y1="0.5" x2="1" y2="0.5" xlink:href="#linear-gradient-4"/>
    <linearGradient id="linear-gradient-14" x1="0.885" y1="0.449" x2="-0.095" y2="0.597" xlink:href="#linear-gradient-8"/>
    <linearGradient id="linear-gradient-15" x1="-0.08" y1="0.726" x2="1.764" y2="0.049" xlink:href="#linear-gradient-8"/>
    <linearGradient id="linear-gradient-16" x1="0.589" y1="0.502" x2="1.959" y2="0.52" xlink:href="#linear-gradient-4"/>
    <linearGradient id="linear-gradient-17" x1="0.007" y1="0.864" x2="1.077" y2="0.111" xlink:href="#linear-gradient-4"/>
    <linearGradient id="linear-gradient-18" x1="1.14" y1="0.232" x2="0.212" y2="0.643" xlink:href="#linear-gradient-8"/>
    <linearGradient id="linear-gradient-19" x1="-0.077" y1="1.127" x2="0.82" y2="0.188" xlink:href="#linear-gradient-8"/>
    <linearGradient id="linear-gradient-20" x1="0.056" y1="0.492" x2="1.394" y2="0.52" xlink:href="#linear-gradient-4"/>
    <linearGradient id="linear-gradient-21" x1="-1.995" y1="1.044" x2="0.444" y2="0.523" xlink:href="#linear-gradient-4"/>
    <linearGradient id="linear-gradient-22" x1="0.841" y1="0.093" x2="0.057" y2="1.143" xlink:href="#linear-gradient-8"/>
    <linearGradient id="linear-gradient-23" x1="-0.345" y1="1.674" x2="1.3" y2="-0.514" xlink:href="#linear-gradient-8"/>
    <linearGradient id="linear-gradient-24" x1="-11.916" y1="4.932" x2="-14.704" y2="3.832" xlink:href="#linear-gradient-4"/>
    <linearGradient id="linear-gradient-25" x1="-9.311" y1="7.633" x2="-7.454" y2="4.839" gradientUnits="objectBoundingBox">
      <stop offset="0" stop-color="#ffb48e"/>
      <stop offset="1" stop-color="#fecab1"/>
    </linearGradient>
    <linearGradient id="linear-gradient-26" x1="-23.893" y1="13.216" x2="-19.442" y2="8.783" xlink:href="#linear-gradient-25"/>
    <linearGradient id="linear-gradient-27" x1="0.5" y1="-0.601" x2="0.5" y2="14.311" xlink:href="#linear-gradient-25"/>
    <linearGradient id="linear-gradient-28" x1="-19.816" y1="5.063" x2="-18.988" y2="5.063" xlink:href="#linear-gradient-10"/>
    <linearGradient id="linear-gradient-29" x1="-34.16" y1="11.783" x2="-33.11" y2="11.783" xlink:href="#linear-gradient-25"/>
    <linearGradient id="linear-gradient-30" x1="9.862" y1="-7.558" x2="10.78" y2="-7.558" xlink:href="#linear-gradient-10"/>
    <linearGradient id="linear-gradient-31" x1="-28.153" y1="16.556" x2="-27.179" y2="16.556" xlink:href="#linear-gradient-25"/>
    <linearGradient id="linear-gradient-32" x1="-0.02" y1="0.772" x2="1.087" y2="-0.001" xlink:href="#linear-gradient-10"/>
    <linearGradient id="linear-gradient-33" x1="1.069" y1="0.44" x2="0.228" y2="0.631" xlink:href="#linear-gradient-10"/>
    <linearGradient id="linear-gradient-34" x1="-4.033" y1="2.106" x2="-4.94" y2="3.468" xlink:href="#linear-gradient-4"/>
    <linearGradient id="linear-gradient-35" x1="-0.18" y1="-0.732" x2="0.488" y2="0.574" xlink:href="#linear-gradient-25"/>
    <linearGradient id="linear-gradient-36" x1="-0.623" y1="15.234" x2="0.31" y2="2.995" xlink:href="#linear-gradient-4"/>
    <linearGradient id="linear-gradient-37" x1="0.997" y1="-0.369" x2="-0.294" y2="2.636" xlink:href="#linear-gradient-25"/>
    <linearGradient id="linear-gradient-38" x1="6.73" y1="-3.773" x2="6.845" y2="-2.063" xlink:href="#linear-gradient-25"/>
    <linearGradient id="linear-gradient-39" x1="1.386" y1="-0.317" x2="-0.567" y2="1.371" xlink:href="#linear-gradient-10"/>
    <linearGradient id="linear-gradient-40" x1="25.997" y1="-13.034" x2="26.467" y2="-7.618" xlink:href="#linear-gradient-25"/>
    <linearGradient id="linear-gradient-43" x1="-0.199" y1="1.104" x2="0.734" y2="0.266" xlink:href="#linear-gradient-10"/>
    <linearGradient id="linear-gradient-44" x1="0.593" y1="-0.313" x2="0.496" y2="0.531" xlink:href="#linear-gradient-10"/>
    <linearGradient id="linear-gradient-45" x1="0.406" y1="0.069" x2="1.136" y2="1.023" xlink:href="#linear-gradient-10"/>
  </defs>
  <g id="Grupo_53410" data-name="Grupo 53410" transform="translate(-3962.076 -7686.983)">
    <g id="Grupo_53407" data-name="Grupo 53407" transform="translate(3962.076 7686.983)">
      <path id="Trazado_100990" data-name="Trazado 100990" d="M4270.8,7978.923q-4.252-13.881-8.5-27.76a63.369,63.369,0,0,1-2.458-9.888c-1.525-11.147,5.237-19.843,8.049-30.085,2.248-8.185,4.228-18.3,3.189-26.726a23.228,23.228,0,0,0-2.939-9.3c-2.15-3.531-5.566-6.174-9.167-8.32-12.328-7.347-26.366-8.6-40.446-6.148-14.406,2.512-26.952,7.8-42.072,5.292-18.132-3.007-34-14.539-52.342-16.011-15.621-1.254-30.73,4.965-44.824,11.439-12.075,5.549-24.433,11.647-37.895,13.464-11.7,1.579-23.136-6.18-34.346-8.589-12.041-2.588-26.837,2.395-30.909,14.226-3.769,10.948.71,23.693,4.14,34.21,4.1,12.56,7.717,25.2,5.18,38.445-1.387,7.241-4.229,14.161-6.932,21.078-4.1,10.49-8.217,20.446-2.68,31.308,5.682,11.144,18.453,12.037,30.669,12.5,14.355.544,28.71-.333,43.066-.333h184.232c8.626,0,19.143-1.854,26.808-5.43,9.384-4.379,11.813-11.925,12.3-20.671C4273.18,7987.139,4272.112,7983.2,4270.8,7978.923Z" transform="translate(-3972.107 -7834.272)" fill="url(#linear-gradient)"/>
      <g id="Grupo_53379" data-name="Grupo 53379" transform="translate(215.1 41.728)">
        <g id="Grupo_53377" data-name="Grupo 53377">
          <path id="Trazado_100991" data-name="Trazado 100991" d="M6233.737,8281.186c10.412,2.081,23.709-9.271,27.993-21.672,4.408-12.763-3.675-18.109-3.613-35.818.071-20.117,10.536-23.148,17.458-50.266,1.562-6.118,10.6-41.522-.6-48.158-10.356-6.137-39.448,11.474-44.546,34.012-3.636,16.071,7.6,22.819,3.311,41.537-3.767,16.425-13.665,16.662-17.458,32.507C6211.663,8252.619,6220.066,8278.452,6233.737,8281.186Z" transform="translate(-6215.005 -8124.038)" fill="#c6bdfb"/>
          <path id="Trazado_100992" data-name="Trazado 100992" d="M6411.9,8615.912c-2.807-21.676,2.668-55.115,7.756-79.35,5.508-26.238,11.76-47.641,11.822-47.854l.867.255c-.063.212-6.306,21.586-11.807,47.791-5.072,24.165-10.534,57.493-7.743,79.042Z" transform="translate(-6392.416 -8453.891)" fill="#9f91fa"/>
        </g>
        <g id="Grupo_53378" data-name="Grupo 53378" transform="translate(16.408 45.877)">
          <path id="Trazado_100993" data-name="Trazado 100993" d="M6401.173,8713.394c-13.658-7.116-18.333-31.554-10.569-39.5,5.246-5.365,12.769.279,20.026-5.283,9.266-7.1,2.45-20.479,9.735-37.827,6.2-14.764,21.071-28.733,29.761-25.867,9.1,3,13.888,25.263,6.119,38.661-5.052,8.713-12.785,9.141-14.463,17.245-1.947,9.4,7.458,13.69,7.51,22.807C6449.383,8700.009,6419.241,8722.809,6401.173,8713.394Z" transform="translate(-6386.857 -8604.543)" fill="#c6bdfb"/>
          <path id="Trazado_100994" data-name="Trazado 100994" d="M6608.73,9030.31a.567.567,0,0,1-.243-.056.557.557,0,0,1-.257-.744c18.107-37.312,23.417-80.6,23.468-81.027a.556.556,0,1,1,1.1.131c-.052.436-5.384,43.905-23.572,81.382A.557.557,0,0,1,6608.73,9030.31Z" transform="translate(-6587.043 -8915.2)" fill="#9f91fa"/>
          <path id="Trazado_100995" data-name="Trazado 100995" d="M7000.57,8691.941a.266.266,0,0,1-.21-.429c5.716-7.337,12.05-18.358,9.77-29.2a19,19,0,0,0-5.219-9.862.266.266,0,1,1,.349-.4,19.22,19.22,0,0,1,5.391,10.154c1.282,6.1.61,16.188-9.87,29.641A.268.268,0,0,1,7000.57,8691.941Z" transform="translate(-6941.735 -8647.45)" fill="url(#linear-gradient)"/>
          <path id="Trazado_100996" data-name="Trazado 100996" d="M6427.463,9363.281a.266.266,0,0,1-.22-.117c-8.783-12.818-11.778-22.723-8.9-29.437,2.557-5.971,9.014-7.082,9.079-7.094a.266.266,0,0,1,.085.525c-.062.01-6.24,1.08-8.679,6.783-2.795,6.537.184,16.268,8.855,28.922a.267.267,0,0,1-.219.418Z" transform="translate(-6414.378 -9257.688)" fill="#f0f0f0"/>
        </g>
      </g>
      <g id="Grupo_53380" data-name="Grupo 53380" transform="translate(14.948 54.364)">
        <path id="Trazado_100997" data-name="Trazado 100997" d="M4172.462,8395.23c-11.427,2.065-26.255-7.742-31.179-18.668-5.067-11.245,3.741-16.163,3.375-31.894-.416-17.867-11.986-20.344-20.062-44.286-1.822-5.4-12.365-36.663-.146-42.792,11.3-5.665,43.62,9.372,49.61,29.287,4.272,14.2-7.987,20.428-2.948,36.966,4.422,14.511,15.323,14.516,19.764,28.513C4196.285,8369.4,4187.467,8392.519,4172.462,8395.23Z" transform="translate(-4118.636 -8256.384)" fill="#9f91fa"/>
        <path id="Trazado_100998" data-name="Trazado 100998" d="M4484.633,8774.032c2.129-19.3-3.3-48.913-8.222-70.355-5.333-23.214-11.245-42.122-11.3-42.31l-.766.239c.059.188,5.963,19.07,11.289,42.256,4.912,21.38,10.321,50.894,8.2,70.082Z" transform="translate(-4431.335 -8622.701)" fill="#967df4"/>
      </g>
      <g id="Grupo_53381" data-name="Grupo 53381" transform="translate(0 114.931)">
        <path id="Trazado_100999" data-name="Trazado 100999" d="M4009.594,8975.419c10.6-5.783,13.909-25.016,7.7-31.127-4.193-4.131-10.008.407-15.782-3.849-7.372-5.432-2.224-16.022-8.194-29.517-5.08-11.486-16.948-22.222-23.721-19.845-7.088,2.489-10.516,20.016-4.226,30.408,4.09,6.758,10.161,6.978,11.6,13.309,1.666,7.345-5.646,10.847-5.551,18C3971.591,8965.637,3995.564,8983.069,4009.594,8975.419Z" transform="translate(-3962.076 -8890.749)" fill="#c6bdfb"/>
        <path id="Trazado_101000" data-name="Trazado 101000" d="M4209.865,9221.864a.429.429,0,0,0,.189-.048.435.435,0,0,0,.191-.586c-14.751-28.99-19.556-62.854-19.6-63.191a.436.436,0,0,0-.864.118c.047.34,4.872,34.349,19.689,63.469A.437.437,0,0,0,4209.865,9221.864Z" transform="translate(-4168.035 -9132.179)" fill="#9f91fa"/>
        <path id="Trazado_101001" data-name="Trazado 101001" d="M4002.658,8960.145a.148.148,0,0,1-.115-.053,39.87,39.87,0,0,1-7.5-13.309,20.45,20.45,0,0,1-.662-9.738,15.279,15.279,0,0,1,4.058-8.008.146.146,0,1,1,.2.217,15,15,0,0,0-3.969,7.863c-.9,4.723-.214,12.512,8.109,22.787a.146.146,0,0,1-.114.24Z" transform="translate(-3991.008 -8925.347)" fill="url(#linear-gradient)"/>
        <path id="Trazado_101002" data-name="Trazado 101002" d="M4462.873,9478.853a.144.144,0,0,1-.081-.024.146.146,0,0,1-.042-.2c3.625-5.51,5.943-10.38,6.891-14.471a13.129,13.129,0,0,0-.373-8.405,9.707,9.707,0,0,0-6.951-5.221.148.148,0,0,1,.042-.293c.051.008,5.1.778,7.178,5.392,1.044,2.317,1.176,5.209.391,8.595-.956,4.125-3.288,9.025-6.932,14.564A.147.147,0,0,1,4462.873,9478.853Z" transform="translate(-4414.442 -9396.817)" fill="#f0f0f0"/>
      </g>
      <g id="Grupo_53387" data-name="Grupo 53387" transform="translate(171.265 0)">
        <g id="Grupo_53385" data-name="Grupo 53385">
          <circle id="Elipse_3974" data-name="Elipse 3974" cx="43.633" cy="43.633" r="43.633" transform="translate(0 61.706) rotate(-45)" fill="#9f91fa"/>
          <g id="Grupo_53382" data-name="Grupo 53382" transform="translate(23.137 23.137)">
            <circle id="Elipse_3975" data-name="Elipse 3975" cx="37.239" cy="37.239" r="37.239" transform="translate(1.33 1.33)" fill="url(#linear-gradient-4)"/>
            <path id="Trazado_101003" data-name="Trazado 101003" d="M6036.784,8006.456a38.569,38.569,0,1,1,38.57-38.568A38.612,38.612,0,0,1,6036.784,8006.456Zm0-74.478a35.909,35.909,0,1,0,35.91,35.909A35.95,35.95,0,0,0,6036.784,7931.978Z" transform="translate(-5998.215 -7929.318)" fill="url(#linear-gradient)"/>
          </g>
          <g id="Grupo_53383" data-name="Grupo 53383" transform="translate(29.6 29.6)">
            <circle id="Elipse_3976" data-name="Elipse 3976" cx="22.703" cy="22.703" r="22.703" transform="translate(0 32.106) rotate(-45)" fill="url(#linear-gradient-6)"/>
            <path id="Trazado_101004" data-name="Trazado 101004" d="M6174.5,8129.633a24.033,24.033,0,1,1,24.033-24.032A24.059,24.059,0,0,1,6174.5,8129.633Zm0-45.4a21.372,21.372,0,1,0,21.373,21.372A21.4,21.4,0,0,0,6174.5,8084.229Z" transform="translate(-6142.393 -8073.494)" fill="url(#linear-gradient)"/>
          </g>
          <g id="Grupo_53384" data-name="Grupo 53384" transform="translate(51.42 51.42)">
            <circle id="Elipse_3977" data-name="Elipse 3977" cx="8.796" cy="8.796" r="8.796" transform="translate(0 17.281) rotate(-79.216)" fill="url(#linear-gradient-8)"/>
            <path id="Trazado_101005" data-name="Trazado 101005" d="M6306.252,8247.48a10.126,10.126,0,1,1,10.126-10.127A10.138,10.138,0,0,1,6306.252,8247.48Zm0-17.592a7.465,7.465,0,1,0,7.466,7.465A7.473,7.473,0,0,0,6306.252,8229.889Z" transform="translate(-6295.967 -8227.068)" fill="url(#linear-gradient)"/>
          </g>
        </g>
        <g id="Grupo_53386" data-name="Grupo 53386" transform="translate(61.525 16.19)">
          <rect id="Rectángulo_5256" data-name="Rectángulo 5256" width="1.291" height="48.876" transform="translate(7.546 40.103) rotate(-135.001)" fill="url(#linear-gradient-10)"/>
          <path id="Trazado_101006" data-name="Trazado 101006" d="M6407.566,8243.279c.523-.523,2.992,1.944,2.468,2.468l-9.155,7.2a.363.363,0,0,1-.51-.511Z" transform="translate(-6400.287 -8206.292)" fill="url(#linear-gradient-11)"/>
          <path id="Trazado_101007" data-name="Trazado 101007" d="M6749.324,7914.812l4.65.462-6.383,6.383a9.866,9.866,0,0,1-7.954,2.842h0Z" transform="translate(-6707.238 -7909.25)" fill="url(#linear-gradient-12)"/>
          <path id="Trazado_101008" data-name="Trazado 101008" d="M6739.307,7861.2l-.462-4.649-6.383,6.383a9.871,9.871,0,0,0-2.842,7.953h0Z" transform="translate(-6698.133 -7856.555)" fill="url(#linear-gradient-12)"/>
        </g>
      </g>
      <g id="Grupo_53398" data-name="Grupo 53398" transform="translate(18.584 75.16)">
        <g id="Grupo_53389" data-name="Grupo 53389" transform="translate(177.279)">
          <path id="Rectángulo_5257" data-name="Rectángulo 5257" d="M28.452,0h0A28.452,28.452,0,0,1,56.9,28.452V129.885a0,0,0,0,1,0,0H0a0,0,0,0,1,0,0V28.452A28.452,28.452,0,0,1,28.452,0Z" transform="translate(16.775)" fill="url(#linear-gradient-14)"/>
          <path id="Rectángulo_5258" data-name="Rectángulo 5258" d="M28.452,0h0A28.452,28.452,0,0,1,56.9,28.452V129.885a0,0,0,0,1,0,0H0a0,0,0,0,1,0,0V28.452A28.452,28.452,0,0,1,28.452,0Z" fill="url(#linear-gradient-15)"/>
          <g id="Grupo_53388" data-name="Grupo 53388" transform="translate(4.337 4.019)" opacity="0.61">
            <path id="Trazado_101009" data-name="Trazado 101009" d="M6059.3,8535.921a.361.361,0,0,1-.36-.361V8525.7a9.418,9.418,0,0,1,9.408-9.408h14.962a.36.36,0,1,1,0,.721H6068.35a8.7,8.7,0,0,0-8.687,8.688v9.858A.36.36,0,0,1,6059.3,8535.921Z" transform="translate(-6058.941 -8516.293)" fill="#fff"/>
            <path id="Trazado_101010" data-name="Trazado 101010" d="M6059.3,8786.479a.36.36,0,0,1-.36-.36V8782.1a.361.361,0,0,1,.721,0v4.017A.36.36,0,0,1,6059.3,8786.479Z" transform="translate(-6058.941 -8756.397)" fill="#fff"/>
          </g>
        </g>
        <g id="Grupo_53391" data-name="Grupo 53391" transform="translate(127.094 27.847)">
          <path id="Rectángulo_5259" data-name="Rectángulo 5259" d="M23.74,0h0a23.74,23.74,0,0,1,23.74,23.74v84.637a0,0,0,0,1,0,0H0a0,0,0,0,1,0,0V23.74A23.74,23.74,0,0,1,23.74,0Z" transform="translate(13.998)" fill="url(#linear-gradient-16)"/>
          <path id="Rectángulo_5260" data-name="Rectángulo 5260" d="M23.74,0h0a23.74,23.74,0,0,1,23.74,23.74v84.637a0,0,0,0,1,0,0H0a0,0,0,0,1,0,0V23.74A23.74,23.74,0,0,1,23.74,0Z" fill="url(#linear-gradient-17)"/>
          <g id="Grupo_53390" data-name="Grupo 53390" transform="translate(3.619 3.353)">
            <path id="Trazado_101011" data-name="Trazado 101011" d="M5526.089,8817.372a.3.3,0,0,1-.3-.3v-8.228a7.86,7.86,0,0,1,7.85-7.851h12.485a.3.3,0,0,1,0,.6h-12.485a7.257,7.257,0,0,0-7.249,7.249v8.228A.3.3,0,0,1,5526.089,8817.372Z" transform="translate(-5525.788 -8800.994)" fill="#c6bdfb"/>
            <path id="Trazado_101012" data-name="Trazado 101012" d="M5526.089,9026.439a.3.3,0,0,1-.3-.3v-3.352a.3.3,0,0,1,.6,0v3.352A.3.3,0,0,1,5526.089,9026.439Z" transform="translate(-5525.788 -9001.339)" fill="#c6bdfb"/>
          </g>
        </g>
        <g id="Grupo_53393" data-name="Grupo 53393" transform="translate(82.096 50.233)">
          <path id="Rectángulo_5261" data-name="Rectángulo 5261" d="M24.106,0h0A24.106,24.106,0,0,1,48.213,24.106V85.992a0,0,0,0,1,0,0H0a0,0,0,0,1,0,0V24.106A24.106,24.106,0,0,1,24.106,0Z" transform="translate(12.247)" fill="url(#linear-gradient-18)"/>
          <path id="Rectángulo_5262" data-name="Rectángulo 5262" d="M24.106,0h0A24.106,24.106,0,0,1,48.213,24.106V85.992a0,0,0,0,1,0,0H0a0,0,0,0,1,0,0V24.106A24.106,24.106,0,0,1,24.106,0Z" fill="url(#linear-gradient-19)"/>
          <g id="Grupo_53392" data-name="Grupo 53392" transform="translate(2.932 3.761)" opacity="0.59">
            <path id="Trazado_101013" data-name="Trazado 101013" d="M5047.589,9052.032a.3.3,0,0,1-.3-.3v-6.1a5.906,5.906,0,0,1,5.9-5.9h9.259a.3.3,0,1,1,0,.6h-9.259a5.305,5.305,0,0,0-5.3,5.3v6.1A.3.3,0,0,1,5047.589,9052.032Z" transform="translate(-5047.289 -9039.731)" fill="#fff"/>
            <path id="Trazado_101014" data-name="Trazado 101014" d="M5047.589,9207.078a.3.3,0,0,1-.3-.3v-2.485a.3.3,0,1,1,.6,0v2.485A.3.3,0,0,1,5047.589,9207.078Z" transform="translate(-5047.289 -9188.308)" fill="#fff"/>
          </g>
        </g>
        <g id="Grupo_53395" data-name="Grupo 53395" transform="translate(39.821 75.488)">
          <path id="Rectángulo_5263" data-name="Rectángulo 5263" d="M20.772,0h0A20.772,20.772,0,0,1,41.544,20.772V60.736a0,0,0,0,1,0,0H0a0,0,0,0,1,0,0V20.772A20.772,20.772,0,0,1,20.772,0Z" transform="translate(12.247)" fill="url(#linear-gradient-20)"/>
          <path id="Rectángulo_5264" data-name="Rectángulo 5264" d="M20.772,0h0A20.772,20.772,0,0,1,41.544,20.772V60.736a0,0,0,0,1,0,0H0a0,0,0,0,1,0,0V20.772A20.772,20.772,0,0,1,20.772,0Z" fill="url(#linear-gradient-21)"/>
          <g id="Grupo_53394" data-name="Grupo 53394" transform="translate(3.129 2.896)">
            <path id="Trazado_101015" data-name="Trazado 101015" d="M4606.87,9309.6a.3.3,0,0,1-.3-.3v-7.2a6.913,6.913,0,0,1,6.906-6.905H4624.4a.3.3,0,0,1,0,.6h-10.924a6.311,6.311,0,0,0-6.3,6.3v7.2A.3.3,0,0,1,4606.87,9309.6Z" transform="translate(-4606.569 -9295.193)" fill="#c6bdfb"/>
            <path id="Trazado_101016" data-name="Trazado 101016" d="M4606.87,9492.526a.3.3,0,0,1-.3-.3v-2.933a.3.3,0,1,1,.6,0v2.933A.3.3,0,0,1,4606.87,9492.526Z" transform="translate(-4606.569 -9470.489)" fill="#c6bdfb"/>
          </g>
        </g>
        <g id="Grupo_53397" data-name="Grupo 53397" transform="translate(0 106.041)">
          <path id="Rectángulo_5265" data-name="Rectángulo 5265" d="M20.772,0h0A20.772,20.772,0,0,1,41.544,20.772v9.411a0,0,0,0,1,0,0H0a0,0,0,0,1,0,0V20.772A20.772,20.772,0,0,1,20.772,0Z" transform="translate(12.247)" fill="url(#linear-gradient-22)"/>
          <path id="Rectángulo_5266" data-name="Rectángulo 5266" d="M20.772,0h0A20.772,20.772,0,0,1,41.544,20.772v9.412a0,0,0,0,1,0,0H0a0,0,0,0,1,0,0V20.772A20.772,20.772,0,0,1,20.772,0Z" fill="url(#linear-gradient-23)"/>
          <g id="Grupo_53396" data-name="Grupo 53396" transform="translate(2.653 2.399)" opacity="0.51">
            <path id="Trazado_101017" data-name="Trazado 101017" d="M4184.8,9624.4a.3.3,0,0,1-.3-.3v-7.2a6.915,6.915,0,0,1,6.906-6.907h10.923a.3.3,0,0,1,0,.6H4191.41a6.312,6.312,0,0,0-6.305,6.306v7.2A.3.3,0,0,1,4184.8,9624.4Z" transform="translate(-4184.504 -9609.994)" fill="#fff"/>
            <path id="Trazado_101018" data-name="Trazado 101018" d="M4184.8,9807.325a.3.3,0,0,1-.3-.3v-2.933a.3.3,0,1,1,.6,0v2.933A.3.3,0,0,1,4184.8,9807.325Z" transform="translate(-4184.504 -9785.288)" fill="#fff"/>
          </g>
        </g>
      </g>
      <g id="Grupo_53400" data-name="Grupo 53400" transform="translate(70.978 22.735)">
        <path id="Trazado_101019" data-name="Trazado 101019" d="M5209.429,8137.7l-4.215,9.7c3.508,4.707,6.922,7.058,10.086,7.915a15.936,15.936,0,0,1,2.523-8.087C5212.083,8145.122,5209.429,8137.7,5209.429,8137.7Z" transform="translate(-5157.502 -8117.402)" fill="url(#linear-gradient-24)"/>
        <path id="Trazado_101020" data-name="Trazado 101020" d="M5326.037,8198.3c-5.241,4.421-9.433,4.917-12.653,3.739a15.931,15.931,0,0,0-2.523,8.087c10.061,2.729,17.6-9.656,17.6-9.656Z" transform="translate(-5253.063 -8172.219)" fill="url(#linear-gradient-25)"/>
        <path id="Trazado_101021" data-name="Trazado 101021" d="M5466.85,8148.965a4.072,4.072,0,0,1-.124-4.956s.588-.953,1.593.134c0,0,2.06-2.614,2.874-1.837s2.945,2.682,1.646,5.479C5471.524,8150.615,5467.825,8150.074,5466.85,8148.965Z" transform="translate(-5393.308 -8121.438)" fill="url(#linear-gradient-26)"/>
        <path id="Trazado_101022" data-name="Trazado 101022" d="M5483.813,8166.78a1.438,1.438,0,0,1-.758-.059,1.261,1.261,0,0,1-.744-.877.344.344,0,0,1,.659-.2c.1.345.275.411.331.434a1.044,1.044,0,0,0,.685-.057l-.816-1.6a.345.345,0,0,1,.614-.313l.977,1.915a.345.345,0,0,1-.129.452A2.508,2.508,0,0,1,5483.813,8166.78Z" transform="translate(-5408.131 -8141.123)" fill="url(#linear-gradient-27)"/>
        <path id="Trazado_101023" data-name="Trazado 101023" d="M4705.974,8958.086a1.525,1.525,0,0,0-.379,1.683c.89,2.392,3.545,8.66,7.981,11.89a.577.577,0,0,0,.834-.138,22.021,22.021,0,0,1-4.479-5.014C4707.045,8962.408,4706.188,8959.724,4705.974,8958.086Z" transform="translate(-4705.491 -8859.462)" fill="#9f91fa"/>
        <path id="Trazado_101024" data-name="Trazado 101024" d="M4715.426,8946.32a5.372,5.372,0,0,0-4.86.9c-.006,0-.01.011-.016.015.214,1.639,1.072,4.322,3.957,8.422a22,22,0,0,0,4.48,5.013.666.666,0,0,0,.111-.3C4719.4,8957.772,4719.744,8950.652,4715.426,8946.32Z" transform="translate(-4710.068 -8848.609)" fill="url(#linear-gradient-28)"/>
        <path id="Trazado_101025" data-name="Trazado 101025" d="M4753.187,8916.086l-1.857,2.5a1.178,1.178,0,0,1-1.42.38,3.091,3.091,0,0,1-1.358-1.2,1.183,1.183,0,0,1,.006-1.271l1.8-2.8a1.181,1.181,0,0,1,1.9-.122l.887,1.052A1.181,1.181,0,0,1,4753.187,8916.086Z" transform="translate(-4744.276 -8818.814)" fill="url(#linear-gradient-29)"/>
        <path id="Trazado_101026" data-name="Trazado 101026" d="M5503.817,8598.551a1.523,1.523,0,0,0,1.723.029c2.162-1.356,7.759-5.231,10.018-10.233a.577.577,0,0,0-.3-.789,22,22,0,0,1-4,5.406C5507.83,8596.622,5505.378,8598.007,5503.817,8598.551Z" transform="translate(-5427.597 -8524.31)" fill="#9f91fa"/>
        <path id="Trazado_101027" data-name="Trazado 101027" d="M5483.862,8593.489a5.376,5.376,0,0,0,1.868,4.576l.018.011c1.561-.543,4.014-1.928,7.44-5.586a21.983,21.983,0,0,0,4-5.407.7.7,0,0,0-.32-.046C5494.268,8587.273,5487.226,8588.38,5483.862,8593.489Z" transform="translate(-5409.528 -8523.837)" fill="url(#linear-gradient-30)"/>
        <path id="Trazado_101028" data-name="Trazado 101028" d="M5459.6,8617.381l2.651,1.627a1.177,1.177,0,0,1,.5,1.381,3.079,3.079,0,0,1-1.071,1.459,1.18,1.18,0,0,1-1.266.107l-2.952-1.543a1.182,1.182,0,0,1-.291-1.879l.969-.977A1.182,1.182,0,0,1,5459.6,8617.381Z" transform="translate(-5385.095 -8551.129)" fill="url(#linear-gradient-31)"/>
        <path id="Trazado_101029" data-name="Trazado 101029" d="M4779.669,8476.9s-1.931,16.13-3.714,23.377c0,0-4.969,1.633-7.816,4.007s-7.929,13.736-7.929,13.736,2.342,3.073,4.57,3.23l17.1-16.658,12.431-20.557-2.132-8.208Z" transform="translate(-4754.985 -8423.252)" fill="url(#linear-gradient-32)"/>
        <path id="Trazado_101030" data-name="Trazado 101030" d="M4958.917,8430.769l-.614,4.431s3.061,10.833,16.661,6.637,14.968-6.763,14.968-6.763-.025,7.252,16.611,13.173c0,0,2.02-2.135,2.2-4.2l-13.611-15.782c-1.87-2.056-3.347-2.433-5.984-1.554-5.83,1.941-16.836,5.044-18.582,5.039Z" transform="translate(-4934.165 -8378.416)" fill="url(#linear-gradient-33)"/>
        <path id="Trazado_101031" data-name="Trazado 101031" d="M4894.6,8120.342c-4.02.887-10.105,3.89-13.605,8.4a50.673,50.673,0,0,1,5.688,5.157,12.947,12.947,0,0,1,5.327-3.873,174.668,174.668,0,0,1-4.2,25.563.894.894,0,0,0,.715,1.1c2.688.459,10.534,1.31,15.972-3.095l10.118-21.311a16.545,16.545,0,0,0,1.6-7.34l-.051-3.529S4903.362,8118.409,4894.6,8120.342Z" transform="translate(-4864.24 -8101.115)" fill="url(#linear-gradient-34)"/>
        <path id="Trazado_101032" data-name="Trazado 101032" d="M4866.269,8236.117c-.794-1.183-2.977-2.043-4.009-2.4-1.108-1.559-5.674-8.637-1.49-14.134a50.57,50.57,0,0,0-5.688-5.156c-4.038,5.2-4.627,12.4,5.373,20.666-.057,2.46,1.9,4.983,2.772,5.236C4863.629,8240.449,4867.322,8237.686,4866.269,8236.117Z" transform="translate(-4838.325 -8186.807)" fill="url(#linear-gradient-35)"/>
        <path id="Trazado_101033" data-name="Trazado 101033" d="M5000.708,8207.014a.344.344,0,0,1-.184-.659l3.569-1.421a.344.344,0,0,1,.255.64l-3.57,1.421A.3.3,0,0,1,5000.708,8207.014Z" transform="translate(-4972.159 -8178.194)" fill="url(#linear-gradient-36)"/>
        <path id="Trazado_101034" data-name="Trazado 101034" d="M5086.19,8057.6l-2.336,7.4a1.142,1.142,0,0,0,.375,1.238c1,.8,3.247,1.988,6.525.313a1.063,1.063,0,0,0,.571-.972l-.132-6.339Z" transform="translate(-5047.681 -8044.948)" fill="url(#linear-gradient-37)"/>
        <g id="Grupo_53399" data-name="Grupo 53399" transform="translate(33.463)">
          <path id="Trazado_101035" data-name="Trazado 101035" d="M5102.995,7978.784s1.747,4.883,1.718,7.383.4,4.15-2.514,4.459a6.136,6.136,0,0,1-6.389-3.858s-1.8-3.961-1.235-5.5S5102.995,7978.784,5102.995,7978.784Z" transform="translate(-5090.791 -7973.659)" fill="url(#linear-gradient-38)"/>
          <path id="Trazado_101036" data-name="Trazado 101036" d="M5062.1,7936.5l.169-.061a.4.4,0,0,0,.229-.53c-.353-.812-1.024-2.662.027-3.013,1.354-.452,6.645-1.165,7.9-2.94a3.455,3.455,0,0,0-1-4.82.2.2,0,0,0-.266.067l-.135.219a.2.2,0,0,1-.359-.062h0a.2.2,0,0,0-.349-.074c-.383.53-1.378,1.366-3.908,1.659-3.6.416-6.041,1.7-6.265,4.146a.2.2,0,0,1-.313.142c-.251-.178-.667-.281-1.259.152-1.03.755-.774,2.909,1.247,4.8a.194.194,0,0,1-.031.312c-.4.227-1.022.788.421,1.69a5.051,5.051,0,0,0,3.1.9.194.194,0,0,0,.173-.224l-.33-2.189a.2.2,0,0,1,.207-.225Z" transform="translate(-5055.977 -7925.11)" fill="url(#linear-gradient-39)"/>
          <path id="Trazado_101037" data-name="Trazado 101037" d="M5096.989,8026.074s-.584-3.083-2-2.325.477,3.443,1.562,3.63Z" transform="translate(-5090.807 -8014.222)" fill="url(#linear-gradient-40)"/>
        </g>
      </g>
      <g id="Grupo_53403" data-name="Grupo 53403" transform="translate(28.045 58.029)">
        <g id="Grupo_53401" data-name="Grupo 53401" transform="translate(0 0.014)">
          <path id="Trazado_101038" data-name="Trazado 101038" d="M4256.384,8413.371a.563.563,0,0,1-.526-.771c.012-.031.3-.769.9-2.13a.565.565,0,1,1,1.036.451c-.583,1.34-.876,2.084-.879,2.091A.564.564,0,0,1,4256.384,8413.371Zm1.813-4.186a.556.556,0,0,1-.234-.051.566.566,0,0,1-.279-.749c.307-.671.629-1.366.96-2.064a.565.565,0,0,1,1.021.483c-.329.693-.649,1.383-.954,2.051A.564.564,0,0,1,4258.2,8409.186Zm1.94-4.1a.565.565,0,0,1-.507-.812c.328-.671.668-1.355,1.01-2.035a.565.565,0,0,1,1.009.509c-.34.676-.679,1.355-1,2.022A.565.565,0,0,1,4260.137,8405.086Zm2.039-4.044a.567.567,0,0,1-.5-.825c.344-.664.7-1.34,1.055-2.01a.565.565,0,0,1,1,.53c-.355.666-.708,1.339-1.05,2A.567.567,0,0,1,4262.176,8401.042Zm2.126-4a.566.566,0,0,1-.5-.836c.358-.656.728-1.324,1.1-1.985a.565.565,0,1,1,.986.551c-.367.657-.734,1.322-1.091,1.976A.564.564,0,0,1,4264.3,8397.045Zm2.208-3.95a.565.565,0,0,1-.489-.846c.372-.65.754-1.311,1.136-1.964a.565.565,0,0,1,.975.572c-.38.648-.761,1.307-1.131,1.953A.566.566,0,0,1,4266.51,8393.095Zm2.287-3.9a.564.564,0,0,1-.485-.854c.387-.646.782-1.3,1.174-1.94a.565.565,0,0,1,.964.59c-.391.638-.784,1.288-1.169,1.931A.563.563,0,0,1,4268.8,8389.19Zm2.361-3.858a.564.564,0,0,1-.479-.863c.4-.642.808-1.286,1.212-1.916a.565.565,0,1,1,.952.608c-.4.627-.808,1.269-1.206,1.906A.565.565,0,0,1,4271.158,8385.332Zm2.436-3.812a.557.557,0,0,1-.308-.091.566.566,0,0,1-.165-.782c.415-.633.834-1.27,1.249-1.892a.565.565,0,0,1,.94.627c-.413.618-.831,1.253-1.242,1.883A.565.565,0,0,1,4273.594,8381.521Zm2.509-3.761a.566.566,0,0,1-.467-.884c.423-.62.855-1.249,1.285-1.868a.565.565,0,0,1,.928.646c-.428.615-.858,1.24-1.278,1.858A.567.567,0,0,1,4276.1,8377.76Zm2.582-3.713a.557.557,0,0,1-.327-.105.565.565,0,0,1-.134-.787c.434-.609.878-1.229,1.321-1.841a.565.565,0,1,1,.915.663c-.441.608-.883,1.226-1.314,1.832A.562.562,0,0,1,4278.685,8374.047Zm2.654-3.661a.565.565,0,0,1-.454-.9c.448-.605.9-1.215,1.357-1.814a.565.565,0,0,1,.9.681c-.451.6-.905,1.2-1.351,1.806A.563.563,0,0,1,4281.339,8370.386Zm2.726-3.607a.555.555,0,0,1-.344-.118.564.564,0,0,1-.1-.792c.458-.594.927-1.2,1.394-1.787a.565.565,0,1,1,.887.7c-.464.589-.931,1.187-1.386,1.778A.565.565,0,0,1,4284.065,8366.778Zm2.8-3.551a.565.565,0,0,1-.439-.92c.471-.586.952-1.178,1.429-1.758a.565.565,0,1,1,.874.717c-.476.578-.954,1.167-1.423,1.75A.563.563,0,0,1,4286.863,8363.228Zm2.87-3.494a.566.566,0,0,1-.432-.929c.483-.575.975-1.156,1.466-1.728a.564.564,0,0,1,.857.734c-.487.568-.978,1.147-1.458,1.72A.562.562,0,0,1,4289.732,8359.733Zm2.942-3.434a.565.565,0,0,1-.425-.937c.5-.565,1-1.137,1.5-1.7a.565.565,0,1,1,.842.753c-.5.557-1,1.125-1.493,1.688A.56.56,0,0,1,4292.674,8356.3Zm3.013-3.37a.564.564,0,0,1-.417-.945c.507-.555,1.024-1.115,1.538-1.665a.565.565,0,0,1,.826.771c-.511.547-1.025,1.1-1.53,1.655A.56.56,0,0,1,4295.688,8352.93Zm3.085-3.3a.565.565,0,0,1-.409-.955c.519-.543,1.048-1.092,1.573-1.631a.565.565,0,0,1,.809.79c-.521.534-1.049,1.081-1.565,1.621A.558.558,0,0,1,4298.773,8349.626Zm3.157-3.234a.564.564,0,0,1-.4-.964c.532-.533,1.074-1.07,1.61-1.595a.564.564,0,1,1,.791.806c-.533.522-1.071,1.057-1.6,1.587A.56.56,0,0,1,4301.93,8346.392Zm3.229-3.163a.564.564,0,0,1-.391-.973c.543-.521,1.1-1.045,1.646-1.559a.565.565,0,0,1,.772.824c-.545.511-1.1,1.032-1.636,1.551A.564.564,0,0,1,4305.159,8343.229Zm3.3-3.088a.565.565,0,0,1-.381-.982c.554-.507,1.12-1.019,1.681-1.519a.565.565,0,1,1,.752.842c-.558.5-1.12,1.007-1.672,1.511A.561.561,0,0,1,4308.459,8340.141Zm3.371-3.011a.564.564,0,0,1-.371-.99c.571-.5,1.149-1,1.717-1.479a.565.565,0,1,1,.732.86c-.565.48-1.14.975-1.708,1.47A.562.562,0,0,1,4311.831,8337.13Zm3.443-2.928a.565.565,0,0,1-.362-1c.583-.484,1.173-.969,1.754-1.437a.565.565,0,1,1,.71.878c-.577.468-1.163.948-1.743,1.429A.559.559,0,0,1,4315.274,8334.2Zm3.513-2.843a.565.565,0,0,1-.351-1.009c.59-.466,1.191-.935,1.789-1.394a.565.565,0,0,1,.688.9c-.593.456-1.191.922-1.777,1.384A.561.561,0,0,1,4318.787,8331.359Zm3.583-2.755a.565.565,0,0,1-.339-1.018c.6-.449,1.213-.9,1.822-1.347a.565.565,0,0,1,.667.913c-.606.44-1.215.891-1.812,1.338A.568.568,0,0,1,4322.369,8328.6Zm3.651-2.662a.565.565,0,0,1-.328-1.026c.614-.436,1.239-.872,1.857-1.3a.565.565,0,1,1,.642.929c-.614.424-1.235.858-1.845,1.292A.567.567,0,0,1,4326.021,8325.942Zm3.718-2.568a.565.565,0,0,1-.315-1.033c.627-.421,1.263-.842,1.891-1.252a.565.565,0,1,1,.616.946c-.623.407-1.254.825-1.878,1.243A.554.554,0,0,1,4329.739,8323.374Zm3.786-2.468a.565.565,0,0,1-.3-1.042c.634-.4,1.282-.806,1.923-1.2a.565.565,0,0,1,.591.964c-.637.392-1.28.792-1.91,1.191A.561.561,0,0,1,4333.524,8320.906Zm3.849-2.367a.564.564,0,0,1-.29-1.049c.65-.388,1.308-.773,1.956-1.147a.565.565,0,1,1,.565.979c-.643.371-1.3.754-1.942,1.14A.563.563,0,0,1,4337.373,8318.539Zm3.912-2.26a.565.565,0,0,1-.276-1.058c.657-.367,1.325-.735,1.986-1.093a.565.565,0,1,1,.538.993c-.656.355-1.32.721-1.972,1.086A.563.563,0,0,1,4341.285,8316.279Zm3.974-2.151a.564.564,0,0,1-.262-1.064c.667-.35,1.344-.7,2.015-1.038a.565.565,0,1,1,.51,1.008c-.667.337-1.34.685-2,1.03A.552.552,0,0,1,4345.259,8314.128Zm4.031-2.039a.565.565,0,0,1-.248-1.073c.676-.329,1.363-.66,2.043-.98a.565.565,0,1,1,.481,1.022c-.675.318-1.358.646-2.03.974A.56.56,0,0,1,4349.29,8312.089Zm4.087-1.926a.564.564,0,0,1-.234-1.078c.684-.311,1.381-.621,2.071-.923a.565.565,0,0,1,.452,1.036c-.686.3-1.377.606-2.057.915A.548.548,0,0,1,4353.377,8310.163Zm4.14-1.807a.565.565,0,0,1-.218-1.087c.692-.29,1.4-.58,2.1-.861a.565.565,0,0,1,.423,1.048c-.694.279-1.395.567-2.082.856A.573.573,0,0,1,4357.518,8308.356Zm4.19-1.689a.564.564,0,0,1-.2-1.091c.7-.271,1.414-.541,2.121-.8a.564.564,0,1,1,.392,1.059c-.7.261-1.41.528-2.1.8A.574.574,0,0,1,4361.708,8306.667Zm4.237-1.565a.565.565,0,0,1-.188-1.1c.707-.249,1.428-.5,2.143-.738a.564.564,0,0,1,.362,1.069c-.71.239-1.426.486-2.128.735A.554.554,0,0,1,4365.945,8305.1Zm4.28-1.443a.565.565,0,0,1-.173-1.1c.715-.229,1.443-.457,2.164-.679a.565.565,0,0,1,.33,1.081c-.715.219-1.438.444-2.147.673A.591.591,0,0,1,4370.226,8303.658Zm4.321-1.318a.565.565,0,0,1-.157-1.108c.72-.208,1.454-.415,2.182-.615a.565.565,0,0,1,.3,1.091c-.723.2-1.451.4-2.166.609A.553.553,0,0,1,4374.546,8302.34Zm4.356-1.193a.565.565,0,0,1-.141-1.111c.726-.188,1.465-.373,2.2-.552a.565.565,0,1,1,.267,1.1c-.729.177-1.462.361-2.183.547A.542.542,0,0,1,4378.9,8301.146Zm4.39-1.067a.565.565,0,0,1-.125-1.116c.732-.166,1.477-.33,2.214-.486a.565.565,0,0,1,.235,1.1c-.731.155-1.471.318-2.2.483A.512.512,0,0,1,4383.292,8300.079Zm73.993-.3a.524.524,0,0,1-.109-.011c-.732-.143-1.477-.284-2.213-.419a.566.566,0,0,1,.205-1.112c.74.137,1.488.279,2.225.423a.565.565,0,0,1-.108,1.119Zm-69.575-.638a.565.565,0,0,1-.109-1.119c.739-.146,1.488-.288,2.227-.425a.565.565,0,0,1,.2,1.112c-.732.134-1.477.275-2.21.422A.61.61,0,0,1,4387.71,8299.139Zm65.134-.181a.553.553,0,0,1-.1-.009c-.734-.128-1.482-.253-2.221-.373a.564.564,0,1,1,.181-1.114c.743.12,1.495.247,2.233.375a.565.565,0,0,1-.1,1.121Zm-60.691-.634a.564.564,0,0,1-.093-1.121c.739-.125,1.492-.246,2.238-.361a.565.565,0,1,1,.172,1.117c-.741.113-1.488.234-2.222.358A.627.627,0,0,1,4392.153,8298.324Zm56.233-.09a.634.634,0,0,1-.085-.006c-.74-.113-1.49-.222-2.229-.326a.565.565,0,0,1,.157-1.119c.743.1,1.5.214,2.24.328a.565.565,0,0,1-.083,1.123Zm-51.77-.6a.565.565,0,0,1-.077-1.124c.746-.1,1.5-.2,2.247-.3a.566.566,0,0,1,.141,1.123c-.74.093-1.491.191-2.231.295A.553.553,0,0,1,4396.617,8297.636Zm47.3-.027a.6.6,0,0,1-.072,0c-.745-.1-1.5-.188-2.236-.275a.565.565,0,0,1,.131-1.122c.743.087,1.5.181,2.248.276a.565.565,0,0,1-.071,1.126Zm-4.486-.526-.06,0c-.742-.078-1.5-.154-2.241-.225a.565.565,0,1,1,.106-1.124c.749.07,1.508.146,2.254.225a.565.565,0,0,1-.059,1.127Zm-38.328-.009a.565.565,0,0,1-.062-1.127c.743-.082,1.5-.162,2.254-.235a.565.565,0,1,1,.11,1.124c-.748.073-1.5.152-2.239.235Zm33.831-.414-.047,0c-.748-.061-1.5-.118-2.246-.17a.565.565,0,0,1,.079-1.128c.747.053,1.507.11,2.259.173a.564.564,0,0,1-.045,1.127Zm-29.334-.025a.565.565,0,0,1-.047-1.129c.749-.062,1.509-.121,2.26-.174a.565.565,0,1,1,.08,1.127c-.746.053-1.5.11-2.245.174Zm24.827-.29h-.033c-.75-.045-1.506-.083-2.25-.117a.565.565,0,0,1,.052-1.129c.748.034,1.509.074,2.263.117a.565.565,0,0,1-.032,1.129Zm-20.321-.028a.565.565,0,0,1-.031-1.129c.752-.043,1.513-.081,2.263-.113a.565.565,0,0,1,.049,1.129c-.745.031-1.5.07-2.249.112Zm15.808-.178h-.019c-.75-.025-1.507-.046-2.251-.061a.566.566,0,0,1,.022-1.131c.75.017,1.511.037,2.266.062a.565.565,0,0,1-.019,1.13Zm-11.293-.02a.565.565,0,0,1-.017-1.13c.749-.022,1.511-.04,2.266-.054a.565.565,0,0,1,.02,1.13c-.75.013-1.508.031-2.251.054Zm6.776-.033h-2.257a.585.585,0,0,1-.565-.585.576.576,0,0,1,.563-.579c.752,0,1.507-.008,2.265,0a.583.583,0,0,1,0,1.166Z" transform="translate(-4255.819 -8294.916)" fill="#fff"/>
        </g>
        <g id="Grupo_53402" data-name="Grupo 53402" transform="translate(198.859)">
          <path id="Trazado_101039" data-name="Trazado 101039" d="M6339.207,8303.353a.565.565,0,0,1-.3-1.047l4.239-2.6a33.957,33.957,0,0,0-2.778-3.83.566.566,0,0,1,.1-1.1c.375-.054.761-.107,3.943,4.794a.565.565,0,0,1-.179.79l-4.734,2.9A.552.552,0,0,1,6339.207,8303.353Z" transform="translate(-6338.641 -8294.77)" fill="#fff"/>
        </g>
      </g>
      <g id="Grupo_53404" data-name="Grupo 53404" transform="translate(97.129 160.321)">
        <path id="Trazado_101040" data-name="Trazado 101040" d="M5016.688,9419.344s6.745-8.476,5.649-16.487-6.571-7.057-9.005-2.319-4.626,4.088-3.178-.366,3.26-7.354.262-11.788-3.309-6.317-1.625-10.273,3.8-9.562-2.9-11.562-13.382,4.145-11.819,12.188,2.5,8.92.349,11.9-1.256,4.2-.951,6.142-2.984,2.394-2.914-.338,4.254-9.178,1.4-12.187-8.454-3.04-9.887,3.915,3.16,10.08,2.931,12.595-2.7-1.3-4.844,1.265.744,4.579,2.873,5.968,5.339,3.881,2.285,5.689-5.947.077-4.076,5.661Z" transform="translate(-4979.394 -9366.166)" fill="#9f91fa"/>
        <path id="Trazado_101041" data-name="Trazado 101041" d="M5181.524,9430.9a3.451,3.451,0,0,0-.6.42,4.745,4.745,0,0,0-.521.518,5.845,5.845,0,0,0-.822,1.229,7.693,7.693,0,0,0-.768,2.857c-.015.123-.019.247-.024.371s-.012.246-.009.37l0,.371.018.37.01.187.018.184.037.368c.037.241.063.489.11.729s.088.484.146.723l.083.358.085.347.345,1.385c.456,1.846.9,3.689,1.241,5.546a27.094,27.094,0,0,1,.516,5.576,13.165,13.165,0,0,1-.1,1.378,10.25,10.25,0,0,1-.253,1.345,8.7,8.7,0,0,1-.436,1.279,9.787,9.787,0,0,0-.479,1.428,23.042,23.042,0,0,0-.471,2.881c-.1.959-.179,1.913-.241,2.866-.131,1.9-.243,3.8-.518,5.676-.035.234-.071.468-.115.7s-.089.463-.137.694-.107.459-.161.688c-.03.114-.064.227-.1.34s-.063.228-.1.338l-.112.333c-.039.111-.086.219-.129.329-.082.221-.189.43-.287.644a5.861,5.861,0,0,1-.79,1.164l.076.076a6,6,0,0,0,.9-1.134,8.866,8.866,0,0,0,.635-1.307,16.29,16.29,0,0,0,.79-2.782c.387-1.887.571-3.8.78-5.693.106-.947.2-1.894.331-2.829a22.055,22.055,0,0,1,.531-2.75,9.292,9.292,0,0,1,.454-1.274,9.659,9.659,0,0,0,.512-1.416,11.243,11.243,0,0,0,.3-1.462,14.242,14.242,0,0,0,.137-1.473,27.352,27.352,0,0,0-.491-5.8c-.335-1.9-.789-3.77-1.3-5.615-.128-.461-.256-.922-.39-1.381l-.1-.345-.092-.335c-.065-.223-.114-.449-.167-.674s-.092-.452-.14-.678l-.052-.343c-.019-.113-.035-.228-.047-.342a10.71,10.71,0,0,1-.083-1.374,7.884,7.884,0,0,1,.115-1.369,7.363,7.363,0,0,1,.354-1.328,6.592,6.592,0,0,1,.281-.631,5.514,5.514,0,0,1,.35-.6,4.6,4.6,0,0,1,.929-1.037Z" transform="translate(-5158.096 -9424.722)" fill="url(#linear-gradient)"/>
        <path id="Trazado_101042" data-name="Trazado 101042" d="M5311.974,9731.593a45.263,45.263,0,0,1-.837,4.454c-.175.732-.369,1.462-.583,2.184-.051.181-.111.358-.167.539s-.114.357-.174.535c-.114.358-.243.712-.368,1.066s-.266.7-.414,1.047-.293.691-.444,1.035c-.317.679-.652,1.35-1.024,2a22.128,22.128,0,0,1-1.217,1.89,20.968,20.968,0,0,1-1.443,1.737l.072.079a13.024,13.024,0,0,0,1.646-1.6,17.187,17.187,0,0,0,1.361-1.856,20.6,20.6,0,0,0,1.1-2.019c.159-.35.322-.7.466-1.053s.278-.714.413-1.072.253-.722.366-1.088c.06-.182.114-.365.165-.549s.108-.367.156-.552c.2-.738.371-1.482.515-2.232a27.691,27.691,0,0,0,.516-4.539Z" transform="translate(-5274.187 -9696.703)" fill="url(#linear-gradient)"/>
      </g>
      <g id="Grupo_53406" data-name="Grupo 53406" transform="translate(239.97 52.591)">
        <path id="Trazado_101043" data-name="Trazado 101043" d="M6484.121,8324.542l-7.447,9.662a5.712,5.712,0,0,0-1.076,4.62c.827,4.075,3.683,11.988,13.528,19.435,10,7.563,17.608,7.054,21.169,6.129a6.073,6.073,0,0,0,3.253-2.131l7.995-10.189Z" transform="translate(-6475.484 -8316.262)" fill="url(#linear-gradient-43)"/>
        <path id="Trazado_101044" data-name="Trazado 101044" d="M6520.578,8241.8l-35-3.966a2.268,2.268,0,0,0-2.271,3.295c4.064,7.859,13.179,26.021,15.612,35.406a2.263,2.263,0,0,0,2.208,1.693l37.146-.24a2.268,2.268,0,0,0,2.014-3.283c-3.968-7.923-14.157-27.862-18.33-32.226A2.258,2.258,0,0,0,6520.578,8241.8Z" transform="translate(-6482.325 -8237.815)" fill="url(#linear-gradient-44)"/>
        <path id="Trazado_101045" data-name="Trazado 101045" d="M6535.709,8285.395s4.83,11.2,9.659,22.391c.6,1.4,1.208,2.8,1.8,4.176l.884,2.047q.218.507.434,1.007c.072.163.144.339.214.491a2.361,2.361,0,0,0,.118.233,2.148,2.148,0,0,0,.13.216,3.3,3.3,0,0,0,2.469,1.47c.327.025.664.042.99.063l3.684.228,7.6.47a.128.128,0,0,1-.015.255l-7.608-.427-3.685-.208c-.329-.02-.655-.034-1-.059a3.61,3.61,0,0,1-2.727-1.6,2.484,2.484,0,0,1-.149-.243c-.051-.085-.086-.165-.125-.246-.082-.175-.148-.334-.222-.5l-.44-1-.895-2.042c-.6-1.373-1.214-2.77-1.825-4.166l-9.784-22.336a.263.263,0,1,1,.482-.211Z" transform="translate(-6529.502 -8280.708)" fill="#c6bdfb"/>
        <g id="Grupo_53405" data-name="Grupo 53405" transform="translate(30.605 20.239)">
          <path id="Trazado_101046" data-name="Trazado 101046" d="M6796.124,8449.793s16.54,17.407,17.9,20.022-1.488,14.444-1.488,14.444c2.783,10.044,3.135,20.936-1.71,26.6,0,0-5.845-13.223-3.161-18.764s3.719-7.812,3.719-7.812,2.4-12.614,1.676-14.424C6813.062,8469.861,6794.584,8450.506,6796.124,8449.793Z" transform="translate(-6796.033 -8449.793)" fill="url(#linear-gradient-45)"/>
          <path id="Trazado_101047" data-name="Trazado 101047" d="M6929.568,8869.492s-.053.053-.124.141c-.039.043-.084.1-.138.177s-.119.156-.18.259-.139.207-.209.331l-.224.409c-.078.146-.145.312-.225.481-.038.086-.081.171-.118.264s-.068.187-.1.284l-.109.3a2.724,2.724,0,0,0-.1.313c-.061.214-.124.437-.188.664a3.49,3.49,0,0,0-.082.353c-.024.119-.048.24-.073.362-.047.246-.109.493-.133.754l-.1.788-.025.2-.011.2-.021.407c-.013.275-.03.55-.04.827.006.277.011.557.017.835l.009.419c0,.139,0,.279.017.417q.037.416.073.827l.074.814c.041.268.082.529.122.79s.08.514.118.763c.02.125.037.248.058.37l.078.357c.1.472.2.916.289,1.326s.2.782.285,1.11.171.617.237.854c.132.474.208.742.208.742v.007a.091.091,0,0,1-.176.049s-.081-.269-.222-.741l-.255-.852c-.1-.33-.22-.7-.308-1.112s-.2-.857-.315-1.329c-.028-.118-.056-.237-.085-.359s-.044-.246-.066-.371c-.044-.251-.088-.508-.134-.768s-.092-.527-.138-.8c-.03-.271-.06-.545-.09-.822l-.09-.836c-.019-.141-.019-.281-.025-.423l-.017-.424-.034-.85c0-.281.017-.562.024-.843,0-.14.009-.277.014-.416l.007-.209.021-.205c.029-.272.057-.541.085-.808s.079-.523.122-.777c.023-.126.046-.252.069-.375a3.343,3.343,0,0,1,.078-.365c.063-.237.124-.469.182-.692a2.881,2.881,0,0,1,.1-.326l.107-.31.1-.3c.036-.1.08-.188.118-.279.08-.18.147-.354.227-.511s.158-.3.229-.438.152-.252.218-.361.133-.2.191-.283.107-.15.157-.209c.094-.117.141-.165.141-.165l.006-.006a.263.263,0,0,1,.377.367Z" transform="translate(-6914.488 -8829.016)" fill="#c6bdfb"/>
          <path id="Trazado_101048" data-name="Trazado 101048" d="M6954.181,8919.809s0,.05-.008.143,0,.214,0,.376c0,.347,0,.842.007,1.438.016,1.2.037,2.792.059,4.387l.109,6.381a.143.143,0,1,1-.286.009s-.115-3.189-.23-6.381c-.051-1.6-.1-3.191-.141-4.388-.008-.3-.015-.573-.021-.816s-.009-.461-.013-.639,0-.341,0-.434.005-.144.005-.144a.262.262,0,1,1,.524.019v0Z" transform="translate(-6938.603 -8874.642)" fill="#c6bdfb"/>
        </g>
      </g>
    </g>
    <g id="Grupo_53409" data-name="Grupo 53409" transform="translate(3983.669 7765.014)">
      <g id="Grupo_53408" data-name="Grupo 53408" transform="translate(0)">
        <path id="Trazado_101049" data-name="Trazado 101049" d="M4198.936,8559.81a18.681,18.681,0,0,1,.8-14.669c4.123-7.684,14-10.176,14-19.25a7.324,7.324,0,0,0-2.264-5.484c-3.675-3.4-10.107-2.26-14.777-.453a28.3,28.3,0,0,0-8.467,5.244V8509.17a37.017,37.017,0,0,1,18.958-4.9c13.448,0,23.376,5.824,23.376,19.276,0,12.268-8.665,17.022-14.671,22.684-3.334,3.143-4.232,5.694-4.232,8.732a9.624,9.624,0,0,0,1.278,4.846Zm7.886,22.537c-13.072,0-13.206-17.572,0-17.572C4219.829,8564.774,4219.844,8582.347,4206.821,8582.347Z" transform="translate(-4188.232 -8504.271)" fill="#a737d5"/>
      </g>
    </g>
  </g>
</svg>
