<svg xmlns="http://www.w3.org/2000/svg" xmlns:xlink="http://www.w3.org/1999/xlink" width="220.231" height="213.419" viewBox="0 0 220.231 213.419">
  <defs>
    <linearGradient id="linear-gradient" x1="-3.074" y1="-5.462" x2="-2.782" y2="-2.163" gradientUnits="objectBoundingBox">
      <stop offset="0" stop-color="#ffc444"/>
      <stop offset="0.996" stop-color="#f36f56"/>
    </linearGradient>
    <clipPath id="clip-path">
      <path id="Trazado_101121" data-name="Trazado 101121" d="M-2903.018,7248.058c-5,9.37-10.475,18.7-15.562,28.106,3.837,4.69,8.465,10.115,14.741,5.926,8.726-5.823,24.026,4.329,30.045,10.283,7.449,7.37,25.032,21.8,32.276,8.2,6.03-11.322,5.256-20.689,20.275-16.206s26.414,1.068,31.241-12.443c5.08-14.218,27.471-17.377,24.632-32.775-4.947-26.832-45.126-11.88-59.587,4.132s-19.273,4.306-31.927-2.73c-17.276-9.6-18.682,14.092-29.565,14.919C-2894.98,7256.122-2897.093,7252.191-2903.018,7248.058Z" transform="translate(2918.579 -7224.403)" fill="none"/>
    </clipPath>
    <clipPath id="clip-path-2">
      <path id="Trazado_101130" data-name="Trazado 101130" d="M-3367.77,7123.326q-11.595-7.323-22.905-15.2c-.188.062,5.068-19.112,17.784-24.754,24.977-10.777,20.869-32.207,21.93-43.355.878-15.994,10.916-31.458,24.617-21.656,13.5,9.2,29.14-20.064,36.934-44.492,2.863-12.3,19.665-21.32,31.738-19.731,12.447,1.348,20.165,13.3,13.478,37.389-6.555,28.414-32.656,35.732-45.547,45.72-12.671,9.8-1.1,27.4-19.192,33.038-15.458,5.284-32.506,6.452-33.1,21.433C-3342.424,7106.616-3348.232,7116.364-3367.77,7123.326Z" transform="translate(3390.68 -6953.957)" fill="none"/>
    </clipPath>
    <linearGradient id="linear-gradient-2" x1="1.165" y1="-0.18" x2="0.729" y2="0.909" gradientUnits="objectBoundingBox">
      <stop offset="0" stop-color="#aa80f9"/>
      <stop offset="0.996" stop-color="#6165d7"/>
    </linearGradient>
    <linearGradient id="linear-gradient-3" x1="0.104" y1="0.52" x2="0.271" y2="0.496" gradientUnits="objectBoundingBox">
      <stop offset="0.004" stop-color="#26264f"/>
      <stop offset="1" stop-color="#444b8c"/>
    </linearGradient>
    <linearGradient id="linear-gradient-4" x1="0.224" y1="1.168" x2="0.333" y2="0.92" gradientUnits="objectBoundingBox">
      <stop offset="0" stop-color="#444b8c"/>
      <stop offset="0.996" stop-color="#26264f"/>
    </linearGradient>
    <linearGradient id="linear-gradient-5" x1="0.544" y1="1.144" x2="0.375" y2="-0.313" xlink:href="#linear-gradient-4"/>
    <linearGradient id="linear-gradient-6" x1="0.69" y1="0.085" x2="0.96" y2="-0.45" xlink:href="#linear-gradient-4"/>
    <linearGradient id="linear-gradient-7" x1="0.574" y1="0.133" x2="0.226" y2="1.688" xlink:href="#linear-gradient-4"/>
    <linearGradient id="linear-gradient-8" x1="0.596" y1="0.113" x2="0.23" y2="1.443" gradientUnits="objectBoundingBox">
      <stop offset="0.004" stop-color="#e38ddd"/>
      <stop offset="1" stop-color="#9571f6"/>
    </linearGradient>
    <linearGradient id="linear-gradient-9" x1="0.499" y1="0.59" x2="0.478" y2="3.084" gradientUnits="objectBoundingBox">
      <stop offset="0" stop-color="#ff9085"/>
      <stop offset="1" stop-color="#fb6fbb"/>
    </linearGradient>
    <linearGradient id="linear-gradient-10" x1="0" y1="0.5" x2="1" y2="0.5" xlink:href="#linear-gradient"/>
    <linearGradient id="linear-gradient-13" x1="3.662" y1="-0.213" x2="3.16" y2="-0.757" xlink:href="#linear-gradient"/>
    <linearGradient id="linear-gradient-15" x1="0" y1="0.5" x2="1" y2="0.5" xlink:href="#linear-gradient-2"/>
    <linearGradient id="linear-gradient-17" x1="0.781" y1="0.563" x2="1.838" y2="0.563" xlink:href="#linear-gradient-4"/>
    <linearGradient id="linear-gradient-18" x1="1.202" y1="0.709" x2="1.347" y2="0.477" xlink:href="#linear-gradient-4"/>
    <linearGradient id="linear-gradient-19" x1="0.242" y1="1.669" x2="0.903" y2="-1.221" xlink:href="#linear-gradient-9"/>
    <linearGradient id="linear-gradient-20" x1="28.055" y1="2.2" x2="-2.772" y2="83.636" xlink:href="#linear-gradient"/>
    <linearGradient id="linear-gradient-21" x1="-4.758" y1="0.411" x2="-3.754" y2="2.132" xlink:href="#linear-gradient-8"/>
    <linearGradient id="linear-gradient-22" x1="-8.335" y1="-0.166" x2="-6.506" y2="1.868" xlink:href="#linear-gradient-8"/>
    <linearGradient id="linear-gradient-23" x1="-3.013" y1="-0.247" x2="-2.515" y2="1.638" xlink:href="#linear-gradient-8"/>
    <linearGradient id="linear-gradient-24" x1="-3.075" y1="-0.249" x2="-2.733" y2="2.136" xlink:href="#linear-gradient-8"/>
  </defs>
  <g id="Grupo_53485" data-name="Grupo 53485" transform="translate(3711 -6899.442)">
    <g id="Grupo_53478" data-name="Grupo 53478" transform="translate(-3711 6899.442)">
      <path id="Trazado_101114" data-name="Trazado 101114" d="M-3563.55,6967.334s-74.889,3.255-79.138,69.118-23.9,128.53,23.9,132.271,159.87,11.007,175.8-28.232S-3419.082,6953.517-3563.55,6967.334Z" transform="translate(3654.875 -6961.367)" fill="#f4f7fa"/>
      <g id="Grupo_53448" data-name="Grupo 53448" transform="translate(59.844 24.541)">
        <g id="Grupo_53447" data-name="Grupo 53447">
          <path id="Trazado_101115" data-name="Trazado 101115" d="M-2793.991,7281.766a12.73,12.73,0,0,1-1.687-5.764c.937-6.74,1.871-19.475,7.337-24.151.934-.8,5.556,2.36,6.9,2.133,3.436,1.3,4.547,1.962,8.42,1.592,11.433-1.093,12.3-24.542,29.721-15.006,12.763,6.985,17.452,18.751,31.942,2.724s54.638-30.959,59.6-4.136c2.845,15.394-19.556,18.558-24.633,32.776-4.824,13.512-16.221,16.926-31.242,12.442s-14.233,4.881-20.276,16.207c-7.259,13.605-24.78-.843-32.3-8.2C-2766.268,7286.45-2785.686,7275.443-2793.991,7281.766Z" transform="translate(2804.973 -7224.408)" fill="url(#linear-gradient)"/>
          <g id="Grupo_53446" data-name="Grupo 53446">
            <g id="Grupo_53445" data-name="Grupo 53445" clip-path="url(#clip-path)">
              <g id="Grupo_53444" data-name="Grupo 53444" transform="translate(12.651 -5.602)">
                <path id="Trazado_101116" data-name="Trazado 101116" d="M-2751.066,7335.879l.113-.309c47.523,17.391,100.214,4.7,140.948-33.944l.227.239c-19.306,18.315-42.183,31.269-66.16,37.458A126,126,0,0,1-2751.066,7335.879Z" transform="translate(2751.066 -7290.192)" fill="#fcfdfe"/>
                <path id="Trazado_101117" data-name="Trazado 101117" d="M-2343.61,7874.4c-6.014-12.467-21.187-28.394-33.824-35.5l.161-.286c12.686,7.138,27.92,23.129,33.959,35.646Z" transform="translate(2405.651 -7786.625)" fill="#fcfdfe"/>
                <path id="Trazado_101118" data-name="Trazado 101118" d="M-2627.019,7420.48l.023-.328c7.519.527,15.014-2.768,22.28-9.791,5.327-5.15,10.409-12.147,15.1-20.8l.289.157c-4.711,8.681-9.812,15.706-15.164,20.879C-2611.823,7417.69-2619.4,7421.014-2627.019,7420.48Z" transform="translate(2636.387 -7371.488)" fill="#fcfdfe"/>
                <path id="Trazado_101119" data-name="Trazado 101119" d="M-1711.649,7783.382l.006-.328c14.223.265,26.368,9,34.052,16.276l-.226.238C-1685.459,7792.33-1697.532,7783.645-1711.649,7783.382Z" transform="translate(1790.146 -7735.263)" fill="#fcfdfe"/>
                <path id="Trazado_101120" data-name="Trazado 101120" d="M-1315.3,7185.989l-.21-.252c12.317-10.252,16.083-26.646,17.232-35.507l.326.043C-1299.109,7159.18-1302.9,7175.665-1315.3,7185.989Z" transform="translate(1423.925 -7150.23)" fill="#fcfdfe"/>
              </g>
            </g>
          </g>
        </g>
      </g>
      <g id="Grupo_53452" data-name="Grupo 53452" transform="translate(24.191 4.117)">
        <g id="Grupo_53451" data-name="Grupo 53451">
          <g id="Grupo_53450" data-name="Grupo 53450" clip-path="url(#clip-path-2)">
            <path id="Trazado_101122" data-name="Trazado 101122" d="M-3367.77,7123.326q-11.595-7.323-22.905-15.2c-.188.062,5.068-19.112,17.784-24.754,24.977-10.777,20.869-32.207,21.93-43.355.926-15.961,10.2-29.58,24.221-23.626,15.688,6.3,29.821-18.023,37.33-42.521,2.863-12.3,19.665-21.32,31.738-19.731,12.447,1.348,20.165,13.3,13.478,37.389-6.555,28.414-32.656,35.732-45.547,45.72-12.671,9.8-1.1,27.4-19.192,33.038-15.458,5.284-32.506,6.452-33.1,21.433C-3342.424,7106.616-3348.232,7116.364-3367.77,7123.326Z" transform="translate(3390.68 -6953.957)" fill="url(#linear-gradient-2)"/>
            <g id="Grupo_53449" data-name="Grupo 53449" transform="translate(10.964 -7.497)">
              <path id="Trazado_101123" data-name="Trazado 101123" d="M-3245.5,7027.533c.069-.16,24.732-34.48,54.686-65.259,4.521-5.123,9.229-10.227,13.782-15.163,25.358-27.489,49.31-53.454,53.171-92.42l.542.053c-3.879,39.149-27.891,65.179-53.313,92.737-4.551,4.934-9.258,10.036-13.783,15.164-30.115,30.945-54.465,64.9-54.593,65.122Z" transform="translate(3245.5 -6854.691)" fill="#beb8f2"/>
              <path id="Trazado_101124" data-name="Trazado 101124" d="M-2032.812,7427.813l-.222-.5c13.754-6.155,31.326-15.779,40.766-20.949,7.64-4.185,7.661-4.173,7.9-4.02l-.147.229.021.266c-.351.082-3.509,1.812-7.508,4C-2001.454,7412.018-2019.038,7421.649-2032.812,7427.813Z" transform="translate(2124.599 -7360.946)" fill="#beb8f2"/>
              <path id="Trazado_101125" data-name="Trazado 101125" d="M-1973.553,7083.889c3.279-12.52,1.889-22.34.146-28.373-1.9-6.573-4.714-10.455-5.144-10.745l.118-.175-.059-.338c.161-.028.287.07.463.262,2.524,2.744,10.77,17.491,5,39.508Z" transform="translate(2074.231 -7029.938)" fill="#beb8f2"/>
              <path id="Trazado_101126" data-name="Trazado 101126" d="M-2769.482,7775.567l-.469-.277c13.138-22.132,6.932-50.964,3.655-62.333a9.071,9.071,0,0,1-.243-.9l.542-.059-.271.029.27-.031c.01.067.11.413.225.813a111.588,111.588,0,0,1,4.266,24.235C-2760.611,7752.18-2763.294,7765.143-2769.482,7775.567Z" transform="translate(2805.864 -7647.249)" fill="#beb8f2"/>
              <path id="Trazado_101127" data-name="Trazado 101127" d="M-2651.032,8341.834l-.307-.449c16.988-11.605,38.344-3.522,38.667-3.334h0l.082.315-.279.168.025-.268-.126.237C-2613.163,8338.411-2634.214,8330.345-2651.032,8341.834Zm38.216-3.84-.025.27Z" transform="translate(2696.21 -8223.334)" fill="#beb8f2"/>
              <path id="Trazado_101128" data-name="Trazado 101128" d="M-3190.956,8700.955c2.276-4.663,4.162-13.5.226-29.114-.223-.885-.223-.885-.148-1.006l.461.289-.23-.145.27,0c.007.063.085.373.175.731,3.977,15.773,2.052,24.741-.264,29.486Z" transform="translate(3195.075 -8533.68)" fill="#beb8f2"/>
              <path id="Trazado_101129" data-name="Trazado 101129" d="M-3109.362,8861.591l-.417-.351c6.2-7.371,20.744-8.326,28.862-8.238.257,0,.423,0,.484,0l.031.544c-.065,0-.244,0-.521,0C-3088.944,8853.461-3103.305,8854.391-3109.362,8861.591Z" transform="translate(3120.028 -8702.085)" fill="#beb8f2"/>
            </g>
          </g>
        </g>
      </g>
      <g id="Grupo_53465" data-name="Grupo 53465" transform="translate(6.521 35.388)">
        <path id="Trazado_101131" data-name="Trazado 101131" d="M-3617.073,7519.191c-4.171.243-7.58-2.672-7.58-6.5V7374.713c0-3.828,3.409-6.819,7.58-6.667l196.862,7.144a6.177,6.177,0,0,1,5.774,6.241V7501.32a6.346,6.346,0,0,1-5.774,6.37Z" transform="translate(3624.654 -7368.041)" fill="url(#linear-gradient-3)"/>
        <path id="Trazado_101132" data-name="Trazado 101132" d="M-2496.146,9190.766a9.608,9.608,0,0,1-6.162-7.341l-4.58-23.779-39.176,1.458-4.821,24.774c-.675,3.471,2.028,6.951,5.14,8.229l16.391,6.729a20.418,20.418,0,0,0,9.582,1.457l34.639-3.109a2.2,2.2,0,0,0,1.943-2c.118-1.071.827-2.274-.138-2.61Z" transform="translate(2632.072 -9024.344)" fill="url(#linear-gradient-4)"/>
        <path id="Trazado_101133" data-name="Trazado 101133" d="M-2479.59,9176.4a9.518,9.518,0,0,1-6.155-7.248l-4.575-23.482-38.221,1.443-4.817,24.463a7.228,7.228,0,0,0,4.22,8.123l16.374,6.644a20.566,20.566,0,0,0,9.573,1.439l34.6-3.07a2.184,2.184,0,0,0,1.941-1.972,2.247,2.247,0,0,0-1.455-2.389Z" transform="translate(2615.903 -9011.427)" fill="url(#linear-gradient-5)"/>
        <g id="Grupo_53464" data-name="Grupo 53464" transform="translate(1.559)">
          <g id="Grupo_53453" data-name="Grupo 53453">
            <path id="Trazado_101134" data-name="Trazado 101134" d="M-3596.435,7519.191c-4.17.243-7.58-2.672-7.58-6.5V7374.713c0-3.828,3.409-6.819,7.58-6.667l196.862,7.144a6.177,6.177,0,0,1,5.774,6.241V7501.32a6.346,6.346,0,0,1-5.774,6.37Z" transform="translate(3604.015 -7368.041)" fill="url(#linear-gradient-6)"/>
            <path id="Trazado_101135" data-name="Trazado 101135" d="M-3356.269,7417.421l-196.862-6.747a3.729,3.729,0,0,0-4.042,3.564v137.673a3.634,3.634,0,0,0,4.042,3.475l196.862-11.105a3.387,3.387,0,0,0,3.092-3.4V7420.758A3.3,3.3,0,0,0-3356.269,7417.421Z" transform="translate(3560.711 -7407.453)" fill="url(#linear-gradient-7)"/>
            <path id="Trazado_101136" data-name="Trazado 101136" d="M-3522.931,7571.242a1.429,1.429,0,0,1-1.575-1.365V7441.9a1.457,1.457,0,0,1,1.575-1.392l196.862,6.469a1.289,1.289,0,0,1,1.209,1.3v111.979a1.313,1.313,0,0,1-1.209,1.322Z" transform="translate(3530.511 -7435.038)" fill="#fff"/>
          </g>
          <g id="Grupo_53463" data-name="Grupo 53463" transform="translate(16.215 12.282)">
            <path id="Trazado_101137" data-name="Trazado 101137" d="M-3207.779,7788.826-3389.3,7796.8V7693.78l181.523,3.81Z" transform="translate(3389.302 -7681.463)" fill="url(#linear-gradient-8)"/>
            <path id="Trazado_101138" data-name="Trazado 101138" d="M-3207.779,7543.691l-181.523-4.213v-8.8l181.523,5.219Z" transform="translate(3389.302 -7530.68)" fill="url(#linear-gradient-9)"/>
            <g id="Grupo_53454" data-name="Grupo 53454" transform="translate(165.776 7.723)">
              <path id="Trazado_101139" data-name="Trazado 101139" d="M-1192.2,7633.974a.963.963,0,0,1-.979.982,1.025,1.025,0,0,1-.98-1.033.964.964,0,0,1,.98-.983A1.026,1.026,0,0,1-1192.2,7633.974Z" transform="translate(1194.162 -7632.94)" fill="#fff"/>
              <path id="Trazado_101140" data-name="Trazado 101140" d="M-1138.871,7635.393a.96.96,0,0,1-.973.98,1.022,1.022,0,0,1-.975-1.031.959.959,0,0,1,.975-.98A1.022,1.022,0,0,1-1138.871,7635.393Z" transform="translate(1144.848 -7634.255)" fill="#fff"/>
              <path id="Trazado_101141" data-name="Trazado 101141" d="M-1085.84,7636.8a.956.956,0,0,1-.968.977,1.017,1.017,0,0,1-.969-1.027.955.955,0,0,1,.969-.977A1.017,1.017,0,0,1-1085.84,7636.8Z" transform="translate(1095.811 -7635.562)" fill="#fff"/>
            </g>
            <g id="Grupo_53455" data-name="Grupo 53455" transform="translate(3.959 14.993)" opacity="0.68">
              <path id="Trazado_101142" data-name="Trazado 101142" d="M-3196.05,7805.144l-140.824,4.422v-80.35l140.824,2.726Z" transform="translate(3336.874 -7729.215)" fill="#fff"/>
            </g>
            <g id="Grupo_53457" data-name="Grupo 53457" transform="translate(147.246 17.766)">
              <g id="Grupo_53456" data-name="Grupo 53456" transform="translate(0)">
                <path id="Trazado_101143" data-name="Trazado 101143" d="M-1407.192,7787.166l-32.337-.152v-21.081l32.337.626Z" transform="translate(1439.529 -7765.932)" fill="#fff" opacity="0.68"/>
              </g>
              <path id="Trazado_101144" data-name="Trazado 101144" d="M-1407.192,8076.954l-32.337-.066v-1.578l32.337.1Z" transform="translate(1439.529 -8051.946)" fill="#fff"/>
              <path id="Trazado_101145" data-name="Trazado 101145" d="M-1419.224,8113l-20.305,0v-1.579l20.305.025Z" transform="translate(1439.529 -8085.324)" fill="#fff"/>
            </g>
            <g id="Grupo_53459" data-name="Grupo 53459" transform="translate(147.246 48.623)">
              <g id="Grupo_53458" data-name="Grupo 53458" transform="translate(0)">
                <path id="Trazado_101146" data-name="Trazado 101146" d="M-1407.192,8195.125l-32.337.543v-21.081l32.337-.068Z" transform="translate(1439.529 -8174.519)" fill="#fff" opacity="0.68"/>
              </g>
              <path id="Trazado_101147" data-name="Trazado 101147" d="M-1407.192,8478.492l-32.337.629v-1.579l32.337-.592Z" transform="translate(1439.529 -8454.11)" fill="#fff"/>
              <path id="Trazado_101148" data-name="Trazado 101148" d="M-1419.224,8517.023l-20.305.434v-1.579l20.305-.411Z" transform="translate(1439.529 -8489.719)" fill="#fff"/>
            </g>
            <g id="Grupo_53461" data-name="Grupo 53461" transform="translate(147.246 78.853)">
              <g id="Grupo_53460" data-name="Grupo 53460" transform="translate(0)">
                <path id="Trazado_101149" data-name="Trazado 101149" d="M-1407.192,8595.427l-32.337,1.236v-21.081l32.337-.765Z" transform="translate(1439.529 -8574.817)" fill="#fff" opacity="0.68"/>
              </g>
              <path id="Trazado_101150" data-name="Trazado 101150" d="M-1407.192,8878.791l-32.337,1.322v-1.578l32.337-1.288Z" transform="translate(1439.529 -8854.408)" fill="#fff"/>
              <path id="Trazado_101151" data-name="Trazado 101151" d="M-1419.224,8920.744l-20.305.869v-1.578l20.305-.848Z" transform="translate(1439.529 -8893.182)" fill="#fff"/>
            </g>
            <g id="Grupo_53462" data-name="Grupo 53462" transform="translate(3.959 94.357)">
              <path id="Trazado_101152" data-name="Trazado 101152" d="M-3239.42,8804.466l-97.455,3.617V8802.8l97.455-3.292Z" transform="translate(3336.874 -8798.044)" fill="#fff"/>
              <path id="Trazado_101153" data-name="Trazado 101153" d="M-1642.352,8784.923l-13.9.515v-4.857l13.9-.471Z" transform="translate(1783.176 -8780.109)" fill="#fff"/>
              <path id="Trazado_101154" data-name="Trazado 101154" d="M-1858.736,8792.155l-14.217.528v-4.914l14.217-.48Z" transform="translate(1983.508 -8786.747)" fill="#fff"/>
              <path id="Trazado_101155" data-name="Trazado 101155" d="M-3292.289,8941.86l-44.586,1.833v-2.64l44.586-1.76Z" transform="translate(3336.874 -8927.272)" fill="#fff"/>
            </g>
          </g>
        </g>
      </g>
      <g id="Grupo_53466" data-name="Grupo 53466" transform="translate(18.458 65.793)">
        <path id="Trazado_101156" data-name="Trazado 101156" d="M-3464.648,8778.981l-.919-.963a3.737,3.737,0,0,1,.262-5.395l63.145-56.515,5.764,6.556-62.711,56.478A4,4,0,0,1-3464.648,8778.981Z" transform="translate(3466.594 -8644.708)" fill="url(#linear-gradient-10)"/>
        <path id="Trazado_101157" data-name="Trazado 101157" d="M-2733.793,7787.569c-15.927-19.6-44.169-22.77-63.048-6.388-19.225,16.683-20.776,46.617-3.521,66.153,16.85,19.076,44.966,20.542,62.865,3.941C-2719.906,7834.96-2718.229,7806.727-2733.793,7787.569Zm-61.078,54.835c-14.371-16.381-13.059-41.4,2.97-55.388,15.786-13.775,39.5-11.233,52.933,5.2,13.178,16.115,11.776,39.936-3.1,53.662C-2757.163,7859.806-2780.783,7858.463-2794.871,7842.4Z" transform="translate(2861.756 -7770.643)" fill="url(#linear-gradient-10)"/>
        <path id="Trazado_101158" data-name="Trazado 101158" d="M-3402.16,8716.109l-8.051,7.206a10.739,10.739,0,0,1-.487,7.21c-2.915,6.123-11.225,4.775-17.912,13.472-3.356,4.364-1.833,5.443-5.235,8.98-5.625,5.848-10.478,3.613-15.424,8.855-5,5.3-3.149,10.886-6.721,12.311-1.528.61-3.949.416-7.994-2.7l-1.321,1.182a3.737,3.737,0,0,0-.262,5.395l.919.963a4,4,0,0,0,5.541.161l62.711-56.478Z" transform="translate(3466.594 -8644.708)" opacity="0.3" fill="url(#linear-gradient-10)" style="mix-blend-mode: multiply;isolation: isolate"/>
        <path id="Trazado_101159" data-name="Trazado 101159" d="M-2703.231,7804.043c-15.927-19.6-44.169-22.77-63.048-6.388-19.225,16.682-20.776,46.617-3.521,66.153,16.85,19.077,44.965,20.543,62.865,3.941C-2689.345,7851.436-2687.667,7823.2-2703.231,7804.043Zm-61.078,54.836c-14.37-16.382-13.058-41.4,2.97-55.388,15.786-13.775,39.5-11.232,52.933,5.2,13.178,16.116,11.776,39.936-3.1,53.662C-2726.6,7876.282-2750.222,7874.938-2764.309,7858.879Z" transform="translate(2833.502 -7785.874)" fill="url(#linear-gradient-13)"/>
        <path id="Trazado_101160" data-name="Trazado 101160" d="M-2672.47,7838c-15.048-18.479-41.688-21.42-59.47-5.959-18.089,15.728-19.556,43.919-3.327,62.338,15.87,18.012,42.4,19.439,59.307,3.783C-2659.325,7882.765-2657.745,7856.086-2672.47,7838Zm-59.251,53.2c-14.371-16.381-13.059-41.4,2.97-55.388,15.787-13.775,39.5-11.233,52.933,5.2,13.178,16.116,11.777,39.937-3.1,53.662C-2694.013,7908.6-2717.633,7907.258-2731.72,7891.2Z" transform="translate(2800.914 -7818.193)" fill="url(#linear-gradient-10)"/>
      </g>
      <g id="Grupo_53469" data-name="Grupo 53469" transform="translate(0 0)">
        <g id="Grupo_53467" data-name="Grupo 53467" transform="translate(35.4)">
          <path id="Trazado_101161" data-name="Trazado 101161" d="M-3186.576,6951.552a5.327,5.327,0,0,0,7.051-2.619,5.326,5.326,0,0,0-2.05-7.236c-.13-.066-.263-.122-.4-.175a31.835,31.835,0,0,0,1.054-4.541c.144,0,.289,0,.436-.016a5.781,5.781,0,0,0,5.081-5.885,4.9,4.9,0,0,0-5.3-4.958c-.15.014-.3.037-.443.063a29.246,29.246,0,0,0-1.228-4.336c.132-.077.263-.157.391-.247a5.781,5.781,0,0,0,1.75-7.576,4.9,4.9,0,0,0-7.131-1.351c-.126.088-.244.183-.361.279a25.9,25.9,0,0,0-3.181-2.969c.081-.132.16-.267.231-.408,1.381-2.721,3.186-5.694.653-6.929-5.859-2.859-8.373-.41-9.753,2.311-.072.141-.133.284-.193.428a25.829,25.829,0,0,0-4.274-.815c.009-.151.016-.3.013-.456-.061-2.995.828-4.615-2.05-4.67-6.275-.121-8.392,2.6-8.332,5.6,0,.157.016.31.032.461a29.189,29.189,0,0,0-4.225,1.569c-.065-.133-.133-.266-.211-.4a4.9,4.9,0,0,0-7.131-1.351,5.782,5.782,0,0,0-1.75,7.576c.076.126.159.244.244.361a31.8,31.8,0,0,0-3.043,3.531c-.122-.076-.245-.15-.375-.217a5.326,5.326,0,0,0-7.051,2.618,5.327,5.327,0,0,0,2.05,7.236c.13.066.263.122.4.175a31.871,31.871,0,0,0-1.054,4.54c-.144,0-.289,0-.435.017a5.781,5.781,0,0,0-5.082,5.885,4.9,4.9,0,0,0,5.3,4.958c.15-.013.3-.037.443-.063a29.211,29.211,0,0,0,1.228,4.336c-.132.078-.263.157-.391.247a5.783,5.783,0,0,0-1.75,7.577c1.486,2.464,6.4,3.609,8.856,1.89.126-.088-1.481-.722-1.364-.819a26,26,0,0,0,3.181,2.969c-.081.132-.16.267-.231.407a5.326,5.326,0,0,0,2.05,7.236,5.326,5.326,0,0,0,7.051-2.618c.072-.141.133-.284.193-.427a25.983,25.983,0,0,0,4.274.815c-.009.15-.016.3-.013.456a4.9,4.9,0,0,0,5.3,4.958,5.781,5.781,0,0,0,5.081-5.885c0-.156-.016-.309-.032-.461a29.2,29.2,0,0,0,4.225-1.568c.065.133.133.266.211.4a4.9,4.9,0,0,0,7.131,1.351,5.781,5.781,0,0,0,1.75-7.575c-.076-.126-.16-.245-.244-.361a31.822,31.822,0,0,0,3.043-3.531C-3186.83,6951.411-3186.706,6951.485-3186.576,6951.552Zm-31.325.4c-9.124-4.631-12.457-16.394-7.442-26.273s16.475-14.135,25.6-9.5,12.457,16.394,7.443,26.273S-3208.776,6956.584-3217.9,6951.955Z" transform="translate(3242.245 -6899.443)" fill="#26264f"/>
          <path id="Trazado_101162" data-name="Trazado 101162" d="M-2853.006,7005.944a5.782,5.782,0,0,0,5.081-5.885,4.9,4.9,0,0,0-5.3-4.958c-.15.014-.3.037-.443.064a29.22,29.22,0,0,0-1.228-4.337c.132-.077.263-.157.391-.247,2.452-1.719,5.486-5.872,3.755-8.171-3.285-4.365-6.684-2.475-9.136-.755-.125.087-.244.183-.361.279a25.888,25.888,0,0,0-3.182-2.969c.081-.132.16-.267.232-.408a5.708,5.708,0,0,0,.321-4.5q-3.553,6.256-7,12.568c7.279,5.332,9.6,15.842,5.051,24.8-3.854,7.594-11.517,11.859-19,11.326-.333.866-.661,1.736-1.019,2.593-.969,2.327-2.071,4.606-3.174,6.882q1.041.2,2.09.306c-.009.151-.016.3-.012.456.06,2.994,1.879,5.538,7.075,5.262,2.874-.153,3.367-3.194,3.307-6.189,0-.156-.016-.309-.032-.461a29.258,29.258,0,0,0,4.225-1.568c.065.133.133.266.211.4,1.486,2.465,6.639,3.511,9.092,1.792s1.275-5.552-.21-8.018c-.076-.126-.159-.244-.245-.36a31.9,31.9,0,0,0,3.043-3.532c.122.077.245.151.375.217a5.326,5.326,0,0,0,7.051-2.618,5.327,5.327,0,0,0-2.05-7.236c-.13-.066-.263-.122-.4-.175a31.875,31.875,0,0,0,1.054-4.541C-2853.3,7005.96-2853.152,7005.958-2853.006,7005.944Z" transform="translate(2914.769 -6968.422)" fill="#26264f"/>
          <path id="Trazado_101163" data-name="Trazado 101163" d="M-3150.787,6951.893a5.326,5.326,0,0,0,7.051-2.617,5.327,5.327,0,0,0-2.05-7.236c-.13-.066-.263-.122-.4-.175a31.868,31.868,0,0,0,1.054-4.541c.144,0,.288,0,.435-.016a5.782,5.782,0,0,0,5.081-5.886,4.9,4.9,0,0,0-5.3-4.958c-.15.014-.3.038-.444.063a29.171,29.171,0,0,0-1.228-4.335c.132-.078.263-.157.391-.248a5.781,5.781,0,0,0,1.75-7.576,4.9,4.9,0,0,0-7.131-1.351c-.125.088-.244.184-.361.28a25.846,25.846,0,0,0-3.181-2.969c.081-.133.16-.267.232-.408a5.327,5.327,0,0,0-2.05-7.236,5.326,5.326,0,0,0-7.051,2.618c-.072.141-.133.284-.193.428a25.875,25.875,0,0,0-4.274-.815c.009-.152.016-.3.013-.457a4.9,4.9,0,0,0-5.3-4.958,5.781,5.781,0,0,0-5.081,5.886c0,.156.016.309.032.461a29.252,29.252,0,0,0-4.225,1.568c-.066-.133-.133-.266-.211-.4a4.9,4.9,0,0,0-7.131-1.351,5.781,5.781,0,0,0-1.75,7.576c.076.126.159.245.244.361a31.9,31.9,0,0,0-3.043,3.533c-.122-.077-.245-.151-.375-.217a5.326,5.326,0,0,0-7.051,2.618,5.326,5.326,0,0,0,2.05,7.236c.13.066.263.122.4.175a31.9,31.9,0,0,0-1.054,4.541c-.145,0-.289,0-.436.016a5.782,5.782,0,0,0-5.081,5.885,4.9,4.9,0,0,0,5.3,4.958c.15-.014.3-.038.443-.064a29.214,29.214,0,0,0,1.228,4.336c-.132.077-.263.157-.391.247a5.78,5.78,0,0,0-1.75,7.575,4.9,4.9,0,0,0,7.131,1.352c.126-.088.244-.183.361-.28a25.917,25.917,0,0,0,3.181,2.969c-.081.132-.16.267-.231.408a5.326,5.326,0,0,0,2.05,7.236,5.327,5.327,0,0,0,7.051-2.618c.072-.141.133-.284.192-.427a25.932,25.932,0,0,0,4.275.815c-.009.152-.016.3-.013.456a4.9,4.9,0,0,0,5.3,4.958,5.782,5.782,0,0,0,5.081-5.885c0-.156-.016-.31-.032-.461a29.2,29.2,0,0,0,4.225-1.569c.065.134.133.267.211.4a4.9,4.9,0,0,0,7.131,1.352,5.782,5.782,0,0,0,1.75-7.576c-.076-.126-.16-.244-.244-.361a31.893,31.893,0,0,0,3.043-3.532C-3151.041,6951.753-3150.917,6951.828-3150.787,6951.893Zm-31.324.4c-9.124-4.63-12.457-16.394-7.443-26.273s16.475-14.136,25.6-9.5,12.456,16.394,7.442,26.273S-3172.987,6956.928-3182.112,6952.3Z" transform="translate(3209.158 -6899.479)" fill="url(#linear-gradient-15)"/>
        </g>
        <g id="Grupo_53468" data-name="Grupo 53468" transform="translate(0 57.7)">
          <path id="Trazado_101164" data-name="Trazado 101164" d="M-3670.107,7701.761a3.913,3.913,0,0,0,5.18-1.923,3.913,3.913,0,0,0-1.506-5.316c-.1-.049-.193-.089-.291-.128a23.434,23.434,0,0,0,.774-3.336c.106,0,.212,0,.32-.012a4.247,4.247,0,0,0,3.732-4.323,3.6,3.6,0,0,0-3.894-3.643c-.11.01-.219.027-.326.047a21.4,21.4,0,0,0-.9-3.186c.1-.057.193-.115.288-.182a4.246,4.246,0,0,0,1.286-5.564,3.6,3.6,0,0,0-5.238-.993c-.092.064-.179.134-.265.206a19.023,19.023,0,0,0-2.337-2.181c.059-.1.117-.2.17-.3,1.014-2,2.34-4.182.479-5.09-4.3-2.1-6.15-.3-7.165,1.7-.052.1-.1.208-.142.314a19.09,19.09,0,0,0-3.14-.6c.007-.111.012-.222.01-.335-.045-2.2.608-3.39-1.506-3.431-4.61-.088-6.165,1.912-6.12,4.112,0,.115.012.227.023.339a21.413,21.413,0,0,0-3.1,1.152c-.048-.1-.1-.2-.155-.291a3.6,3.6,0,0,0-5.239-.993,4.247,4.247,0,0,0-1.286,5.565c.056.093.117.18.179.265a23.393,23.393,0,0,0-2.235,2.594c-.089-.056-.18-.11-.276-.159a3.913,3.913,0,0,0-5.179,1.923,3.913,3.913,0,0,0,1.506,5.316c.1.048.193.089.291.128a23.4,23.4,0,0,0-.774,3.336c-.106,0-.212,0-.32.012a4.247,4.247,0,0,0-3.732,4.323,3.6,3.6,0,0,0,3.894,3.642c.11-.01.218-.027.325-.046a21.471,21.471,0,0,0,.9,3.186c-.1.057-.193.115-.287.181a4.247,4.247,0,0,0-1.286,5.565c1.092,1.811,4.7,2.651,6.506,1.389.092-.064-1.088-.531-1-.6a19.065,19.065,0,0,0,2.337,2.181c-.059.1-.118.2-.17.3a3.913,3.913,0,0,0,1.506,5.315,3.913,3.913,0,0,0,5.179-1.923c.053-.1.1-.209.142-.314a19.032,19.032,0,0,0,3.14.6c-.007.111-.012.223-.01.336a3.6,3.6,0,0,0,3.894,3.642,4.247,4.247,0,0,0,3.733-4.323c0-.115-.012-.228-.023-.339a21.459,21.459,0,0,0,3.1-1.152c.048.1.1.2.155.29a3.6,3.6,0,0,0,5.239.992,4.246,4.246,0,0,0,1.286-5.564c-.056-.093-.117-.18-.179-.266a23.356,23.356,0,0,0,2.235-2.594C-3670.293,7701.658-3670.2,7701.713-3670.107,7701.761Zm-23.011.3c-6.7-3.4-9.151-12.043-5.467-19.3s12.1-10.384,18.805-6.982,9.15,12.042,5.467,19.3S-3686.415,7705.459-3693.118,7702.058Z" transform="translate(3711.001 -7663.482)" fill="#26264f"/>
          <path id="Trazado_101165" data-name="Trazado 101165" d="M-3425.066,7741.72a4.247,4.247,0,0,0,3.733-4.323,3.6,3.6,0,0,0-3.894-3.642c-.11.009-.218.027-.325.046a21.5,21.5,0,0,0-.9-3.186c.1-.056.193-.115.287-.181,1.8-1.263,4.03-4.313,2.759-6-2.413-3.207-4.91-1.817-6.711-.555-.092.065-.179.135-.265.205a19.086,19.086,0,0,0-2.337-2.181c.059-.1.118-.2.17-.3a4.194,4.194,0,0,0,.236-3.307q-2.61,4.6-5.142,9.233c5.347,3.917,7.051,11.638,3.71,18.221a14.76,14.76,0,0,1-13.957,8.32c-.245.636-.486,1.276-.748,1.906-.712,1.709-1.522,3.382-2.332,5.055q.765.144,1.535.225c-.007.111-.012.222-.01.335.045,2.2,1.38,4.069,5.2,3.865,2.111-.112,2.474-2.346,2.429-4.546,0-.115-.011-.228-.023-.339a21.379,21.379,0,0,0,3.1-1.152c.048.1.1.2.155.291,1.091,1.811,4.877,2.58,6.679,1.317s.937-4.08-.155-5.89c-.056-.093-.117-.18-.179-.265a23.38,23.38,0,0,0,2.235-2.595c.089.056.18.11.276.159a3.912,3.912,0,0,0,5.179-1.923,3.913,3.913,0,0,0-1.506-5.316c-.1-.048-.193-.089-.291-.128a23.386,23.386,0,0,0,.774-3.336C-3425.28,7741.732-3425.174,7741.73-3425.066,7741.72Z" transform="translate(3470.436 -7714.155)" fill="#26264f"/>
          <path id="Trazado_101166" data-name="Trazado 101166" d="M-3643.817,7702.013a3.913,3.913,0,0,0,5.18-1.922,3.912,3.912,0,0,0-1.506-5.315c-.1-.049-.193-.09-.291-.129a23.4,23.4,0,0,0,.775-3.335c.105,0,.212,0,.32-.012a4.247,4.247,0,0,0,3.732-4.324,3.6,3.6,0,0,0-3.894-3.642c-.11.01-.218.027-.325.046a21.484,21.484,0,0,0-.9-3.186c.1-.057.193-.115.287-.181a4.247,4.247,0,0,0,1.286-5.565,3.6,3.6,0,0,0-5.238-.992c-.093.064-.179.135-.265.206a19.047,19.047,0,0,0-2.337-2.181c.059-.1.117-.2.17-.3a3.913,3.913,0,0,0-1.506-5.315,3.913,3.913,0,0,0-5.179,1.923c-.052.1-.1.208-.141.314a19.043,19.043,0,0,0-3.14-.6c.007-.111.011-.223.01-.335a3.6,3.6,0,0,0-3.894-3.643,4.248,4.248,0,0,0-3.732,4.323c0,.115.012.228.023.339a21.452,21.452,0,0,0-3.1,1.152c-.048-.1-.1-.2-.155-.291a3.6,3.6,0,0,0-5.238-.992,4.247,4.247,0,0,0-1.286,5.565c.056.093.117.179.18.265a23.3,23.3,0,0,0-2.235,2.595c-.09-.056-.18-.111-.276-.159a3.912,3.912,0,0,0-5.179,1.923,3.912,3.912,0,0,0,1.506,5.315c.1.049.193.089.291.128a23.426,23.426,0,0,0-.774,3.336c-.106,0-.212,0-.32.011a4.247,4.247,0,0,0-3.732,4.323,3.6,3.6,0,0,0,3.894,3.642c.11-.01.218-.027.325-.046a21.445,21.445,0,0,0,.9,3.185c-.1.057-.193.115-.287.182a4.247,4.247,0,0,0-1.286,5.565,3.6,3.6,0,0,0,5.239.993c.092-.064.179-.135.265-.206a18.987,18.987,0,0,0,2.337,2.181c-.06.1-.118.2-.17.3a3.914,3.914,0,0,0,1.506,5.316,3.913,3.913,0,0,0,5.179-1.923c.053-.1.1-.208.142-.314a19.087,19.087,0,0,0,3.14.6c-.006.11-.012.222-.009.334a3.6,3.6,0,0,0,3.894,3.643,4.248,4.248,0,0,0,3.733-4.323c0-.115-.012-.228-.024-.339a21.519,21.519,0,0,0,3.1-1.153c.048.1.1.2.155.291a3.6,3.6,0,0,0,5.239.992,4.248,4.248,0,0,0,1.286-5.565c-.056-.092-.117-.179-.18-.265a23.426,23.426,0,0,0,2.235-2.595C-3644,7701.91-3643.912,7701.965-3643.817,7702.013Zm-23.011.3c-6.7-3.4-9.15-12.043-5.467-19.3s12.1-10.384,18.805-6.982,9.151,12.042,5.467,19.3S-3660.125,7705.711-3666.828,7702.31Z" transform="translate(3686.696 -7663.509)" fill="url(#linear-gradient-15)"/>
        </g>
      </g>
      <g id="Grupo_53477" data-name="Grupo 53477" transform="translate(164.113 129.514)">
        <g id="Grupo_53473" data-name="Grupo 53473" transform="translate(0)">
          <g id="Grupo_53472" data-name="Grupo 53472">
            <g id="Grupo_53471" data-name="Grupo 53471">
              <path id="Trazado_101167" data-name="Trazado 101167" d="M-1498.675,8618.8l6.383,71.619a1.934,1.934,0,0,1-1.675,2.142l-34.532,3.558c-2.066.11-3.159-1.011-3.252-2.138l-6.126-74.359c-.09-1.1.936-2.133,2.977-2.206l34.215-.5A2.058,2.058,0,0,1-1498.675,8618.8Z" transform="translate(1537.883 -8616.727)" fill="url(#linear-gradient-17)"/>
              <path id="Trazado_101168" data-name="Trazado 101168" d="M-1480.641,8616.312l6.44,72.048a1.946,1.946,0,0,1-1.684,2.157l-35.831,3.307a2.022,2.022,0,0,1-2.169-1.878l-6.18-74.808a1.858,1.858,0,0,1,1.819-2.045l35.583-.68A2.069,2.069,0,0,1-1480.641,8616.312Z" transform="translate(1521.418 -8614.413)" fill="url(#linear-gradient-18)"/>
              <path id="Trazado_101169" data-name="Trazado 101169" d="M-1462.176,8670.547l5.956,66.78a1.813,1.813,0,0,1-1.575,2.009l-33.688,3.06a1.886,1.886,0,0,1-2.019-1.75l-5.73-69.182a1.74,1.74,0,0,1,1.692-1.916l33.472-.771A1.927,1.927,0,0,1-1462.176,8670.547Z" transform="translate(1502.156 -8664.672)" fill="#fff"/>
              <g id="Grupo_53470" data-name="Grupo 53470" transform="translate(2.918 4.106)">
                <path id="Trazado_101170" data-name="Trazado 101170" d="M-1462.176,8670.547a1.928,1.928,0,0,0-1.891-1.77l-33.472.771a1.74,1.74,0,0,0-1.693,1.916l.82,9.9,37.12-.9Z" transform="translate(1499.238 -8668.777)" fill="url(#linear-gradient-19)"/>
              </g>
            </g>
            <path id="Trazado_101171" data-name="Trazado 101171" d="M-1261.357,8639.47a.62.62,0,0,1-.6.692.725.725,0,0,1-.72-.666.622.622,0,0,1,.6-.693A.726.726,0,0,1-1261.357,8639.47Z" transform="translate(1283.465 -8636.961)" fill="url(#linear-gradient-20)"/>
          </g>
        </g>
        <g id="Grupo_53475" data-name="Grupo 53475" transform="translate(7.677 19.626)">
          <g id="Grupo_53474" data-name="Grupo 53474">
            <path id="Trazado_101172" data-name="Trazado 101172" d="M-1417.164,8901.777l-16.749.829-2.312-23.673,16.842-.43Z" transform="translate(1436.225 -8878.186)" fill="url(#linear-gradient-21)"/>
            <path id="Trazado_101173" data-name="Trazado 101173" d="M-1166.785,8897.264l-9.839.486-2.2-23.213,9.893-.252Z" transform="translate(1198.267 -8874.285)" fill="url(#linear-gradient-22)"/>
            <path id="Trazado_101174" data-name="Trazado 101174" d="M-1371.02,9233.687l-29.041,2-1.562-16,29.149-1.53Z" transform="translate(1404.236 -9192.188)" fill="url(#linear-gradient-23)"/>
            <path id="Trazado_101175" data-name="Trazado 101175" d="M-1347.651,9466.642l-28.973,2.281-.7-7.164,29.022-2.076Z" transform="translate(1381.772 -9415.474)" fill="url(#linear-gradient-24)"/>
          </g>
        </g>
        <g id="Grupo_53476" data-name="Grupo 53476" transform="translate(1.345 0.591)" opacity="0.48" style="mix-blend-mode: soft-light;isolation: isolate">
          <path id="Trazado_101176" data-name="Trazado 101176" d="M-1489.251,8673.008c-3.474-12.136-13.6-10.923-16.63-21.89-2.488-9.006,3.248-13.754-.231-21.295a16.923,16.923,0,0,0-7.476-7.583l-4.659.089a1.858,1.858,0,0,0-1.819,2.045l6.18,74.809a2.021,2.021,0,0,0,2.169,1.876l29.378-2.711a30.737,30.737,0,0,1-4.9-8.8C-1489.855,8682.129-1487.33,8679.72-1489.251,8673.008Z" transform="translate(1520.073 -8622.24)" fill="#fff"/>
        </g>
      </g>
    </g>
    <g id="Grupo_53482" data-name="Grupo 53482" transform="translate(-3631.664 6984.822)">
      <g id="Grupo_53481" data-name="Grupo 53481" transform="translate(0 0)">
        <g id="Grupo_53479" data-name="Grupo 53479" transform="translate(0 1.568)">
          <path id="Trazado_101177" data-name="Trazado 101177" d="M-2624.009,8050.763l.046,47.351-10.249.194-14.074-21.245.021,21.511-12.151.23-.045-47.351,10.249-.195,14.073,21.245-.021-21.511Z" transform="translate(2660.462 -8050.763)" fill="#9d34c8"/>
        </g>
        <g id="Grupo_53480" data-name="Grupo 53480" transform="translate(41.018)">
          <path id="Trazado_101178" data-name="Trazado 101178" d="M-2096.474,8030.008c12.046-.229,20.878,10.021,20.892,24.362s-8.8,24.925-20.845,25.153-20.878-10.022-20.892-24.363S-2108.52,8030.236-2096.474,8030.008Zm.035,36.6c4.6-.087,8.29-4.621,8.283-12s-3.71-11.767-8.306-11.68-8.29,4.621-8.283,12,3.709,11.768,8.306,11.68" transform="translate(2117.319 -8030.004)" fill="#9d34c8"/>
        </g>
      </g>
    </g>
    <g id="Grupo_53484" data-name="Grupo 53484" transform="translate(-3557.762 6939.684)">
      <g id="Grupo_53483" data-name="Grupo 53483" transform="translate(0 0)">
        <path id="Trazado_101179" data-name="Trazado 101179" d="M-1672.3,7469.07a12.236,12.236,0,0,1-.231-9.618c2.3-5.227,8.62-7.359,8.155-13.283a4.8,4.8,0,0,0-1.759-3.465c-2.573-2.033-6.714-.956-9.669.463a18.509,18.509,0,0,0-5.259,3.858l-.822-10.463a24.242,24.242,0,0,1,12.124-4.17c8.779-.69,15.558,2.6,16.248,11.385.63,8.009-4.783,11.557-8.414,15.561-2.015,2.222-2.47,3.935-2.315,5.917a6.3,6.3,0,0,0,1.083,3.1Zm6.3,14.307c-8.534.671-9.522-10.793-.9-11.47C-1658.41,7471.24-1657.5,7482.71-1666,7483.377Z" transform="translate(1681.888 -7432.303)" fill="#a737d5"/>
      </g>
    </g>
  </g>
</svg>
