<svg xmlns="http://www.w3.org/2000/svg" xmlns:xlink="http://www.w3.org/1999/xlink" width="272.01" height="268.75" viewBox="0 0 272.01 268.75">
  <defs>
    <linearGradient id="linear-gradient" x1="0.339" y1="0.027" x2="0.863" y2="1.961" gradientUnits="objectBoundingBox">
      <stop offset="0.004" stop-color="#e38ddd"/>
      <stop offset="1" stop-color="#9571f6"/>
    </linearGradient>
    <clipPath id="clip-path">
      <path id="Trazado_101346" data-name="Trazado 101346" d="M991.8,2170.172c2.21.127,7.129-1.546,8.231-2.511,7.337-6.42,21.855-17.547,23.16-27.771.223-1.746-7.194-4.8-7.977-6.588-4.256-3.094-5.924-3.9-8.525-8.834-7.678-14.553,19.73-34.02-5.388-47.394-18.4-9.8-36.176-6.165-28.369-36.119s-5.864-89.779-41.889-74.632c-20.675,8.693-6.856,38.01-19.9,55.267-12.392,16.4-7.523,32.733,9.653,47.2s5.342,20.884-3.474,37.025c-10.59,19.388,20.487,29.017,35.214,32.239C964.4,2140.648,992.846,2155.255,991.8,2170.172Z" transform="translate(-904.225 -1963.907)" fill="url(#linear-gradient)"/>
    </clipPath>
    <clipPath id="clip-path-2">
      <path id="Trazado_101353" data-name="Trazado 101353" d="M511.727,2598.7c2.1-.7,6.052-4.072,6.72-5.376,4.444-8.678,13.819-24.385,11.252-34.366-.438-1.7-8.458-1.8-9.848-3.172-5.1-1.3-6.948-1.437-11.187-5.056-12.515-10.684,5.754-38.9-22.529-42.043-20.717-2.3-35.892,7.647-39.713-23.071s-38.642-81.249-66.515-53.856c-16,15.721,7.683,37.851,1.947,58.708-5.451,19.818,5.112,33.194,26.42,40.286s12.685,17.429,10.461,35.686c-2.671,21.93,29.764,19.386,44.638,16.935C475.351,2581.4,507.183,2584.455,511.727,2598.7Z" transform="translate(-374.262 -2423.893)" fill="#fe8794"/>
    </clipPath>
    <linearGradient id="linear-gradient-3" x1="0.422" y1="0.514" x2="0.352" y2="0.835" gradientUnits="objectBoundingBox">
      <stop offset="0" stop-color="#40447e"/>
      <stop offset="0.996" stop-color="#3c3b6b"/>
    </linearGradient>
    <linearGradient id="linear-gradient-4" x1="0.479" y1="0.466" x2="0.369" y2="0.525" xlink:href="#linear-gradient-3"/>
    <linearGradient id="linear-gradient-5" x1="0" y1="0.5" x2="1" y2="0.5" xlink:href="#linear-gradient-3"/>
    <linearGradient id="linear-gradient-8" x1="0.835" y1="-0.203" x2="-0.138" y2="1.782" gradientUnits="objectBoundingBox">
      <stop offset="0" stop-color="#aa80f9"/>
      <stop offset="0.996" stop-color="#6165d7"/>
    </linearGradient>
    <linearGradient id="linear-gradient-9" x1="0.414" y1="-2.198" x2="0.583" y2="3.531" xlink:href="#linear-gradient-8"/>
    <linearGradient id="linear-gradient-10" x1="0.5" y1="2.076" x2="0.5" y2="0.226" xlink:href="#linear-gradient-8"/>
    <linearGradient id="linear-gradient-12" x1="0.278" y1="1.028" x2="0.771" y2="0.051" gradientUnits="objectBoundingBox">
      <stop offset="0" stop-color="#311944"/>
      <stop offset="1" stop-color="#893976"/>
    </linearGradient>
    <linearGradient id="linear-gradient-13" x1="0.405" y1="0.935" x2="0.732" y2="0.104" xlink:href="#linear-gradient-12"/>
    <linearGradient id="linear-gradient-14" x1="-18.914" y1="0.5" x2="-17.895" y2="0.5" gradientUnits="objectBoundingBox">
      <stop offset="0" stop-color="#3d0056"/>
      <stop offset="1" stop-color="#220039"/>
    </linearGradient>
    <linearGradient id="linear-gradient-15" x1="-0.757" y1="-8.611" x2="1.326" y2="6.389" xlink:href="#linear-gradient-14"/>
    <linearGradient id="linear-gradient-16" x1="-48.255" y1="0.5" x2="-47.255" y2="0.5" xlink:href="#linear-gradient-14"/>
    <linearGradient id="linear-gradient-17" x1="-4.222" y1="-41.413" x2="0.364" y2="-1.051" xlink:href="#linear-gradient-14"/>
    <linearGradient id="linear-gradient-18" x1="-73.607" y1="0.5" x2="-72.607" y2="0.5" gradientUnits="objectBoundingBox">
      <stop offset="0" stop-color="#fed5ba"/>
      <stop offset="1" stop-color="#ffbe8e"/>
    </linearGradient>
    <linearGradient id="linear-gradient-19" x1="-75.802" y1="0.5" x2="-74.802" y2="0.5" xlink:href="#linear-gradient-18"/>
    <linearGradient id="linear-gradient-20" x1="3.088" y1="1.345" x2="0.616" y2="0.582" xlink:href="#linear-gradient-14"/>
    <linearGradient id="linear-gradient-21" x1="-103.359" y1="-3.524" x2="-109.096" y2="3.756" gradientUnits="objectBoundingBox">
      <stop offset="0" stop-color="#cb4623"/>
      <stop offset="1" stop-color="#6d244b"/>
    </linearGradient>
    <linearGradient id="linear-gradient-22" x1="-0.125" y1="-1.058" x2="1.981" y2="3.849" gradientUnits="objectBoundingBox">
      <stop offset="0" stop-color="#ad4fff"/>
      <stop offset="1" stop-color="#9840e2"/>
    </linearGradient>
    <linearGradient id="linear-gradient-23" x1="-32.511" y1="0.514" x2="-32.291" y2="-0.491" xlink:href="#linear-gradient-18"/>
    <linearGradient id="linear-gradient-24" x1="-22.161" y1="-0.355" x2="-23.214" y2="0.396" xlink:href="#linear-gradient-18"/>
    <linearGradient id="linear-gradient-25" x1="-0.098" y1="0.38" x2="2.001" y2="0.905" xlink:href="#linear-gradient-14"/>
    <linearGradient id="linear-gradient-26" x1="-94.504" y1="-3.339" x2="-98.825" y2="-0.759" xlink:href="#linear-gradient-18"/>
    <linearGradient id="linear-gradient-27" x1="0.772" y1="3.846" x2="-0.45" y2="7.066" gradientUnits="objectBoundingBox">
      <stop offset="0" stop-color="#ffbe8e"/>
      <stop offset="1" stop-color="#feac62"/>
    </linearGradient>
    <linearGradient id="linear-gradient-28" x1="0.074" y1="-0.378" x2="0.807" y2="1.194" xlink:href="#linear-gradient-27"/>
    <linearGradient id="linear-gradient-29" x1="-0.269" y1="-2.098" x2="2.525" y2="7.338" xlink:href="#linear-gradient-27"/>
    <linearGradient id="linear-gradient-30" x1="-0.698" y1="-0.996" x2="2.189" y2="2.626" xlink:href="#linear-gradient-22"/>
    <linearGradient id="linear-gradient-31" x1="0.031" y1="0.767" x2="1.654" y2="-0.248" xlink:href="#linear-gradient-18"/>
  </defs>
  <g id="Grupo_53622" data-name="Grupo 53622" transform="translate(-374.262 -1904.384)">
    <path id="Trazado_101339" data-name="Trazado 101339" d="M639.89,2014.491c-5.315-34.786-9.581-58.826-28.772-72-32.371-22.22-68.522,13.851-114.377-10.353-22.577-11.918-23.423-25.735-42.544-27.569-33.829-3.245-61.533,37.127-63.934,40.589a88.026,88.026,0,0,0-13.547,71.141c3.841,15.884,6.436,32.322,5.724,48.643-1.24,28.406-.526,54.919,27.041,71.86,24.614,15.126,55.591,28.466,85.144,30.8,20.084,1.588,42.606-.982,61.963-6.21C655.235,2134.748,647.2,2062.321,639.89,2014.491Z" transform="translate(0 0)" fill="#f4f7fa"/>
    <g id="Grupo_53601" data-name="Grupo 53601" transform="translate(374.262 1910.097)">
      <g id="Grupo_53594" data-name="Grupo 53594" transform="translate(50.867 0)">
        <g id="Grupo_53593" data-name="Grupo 53593" transform="translate(0)">
          <g id="Grupo_53592" data-name="Grupo 53592" style="mix-blend-mode: soft-light;isolation: isolate">
            <path id="Trazado_101340" data-name="Trazado 101340" d="M991.8,2170.172c2.21.127,7.129-1.546,8.231-2.511,7.337-6.42,21.855-17.547,23.16-27.771.223-1.746-7.194-4.8-7.977-6.588-4.256-3.094-5.924-3.9-8.525-8.834-7.678-14.553,19.73-34.02-5.388-47.394-18.4-9.8-36.176-6.165-28.369-36.119s-5.864-89.779-41.889-74.632c-20.675,8.693-6.856,38.01-19.9,55.267-12.392,16.4-7.523,32.733,9.653,47.2s5.342,20.884-3.474,37.025c-10.59,19.388,20.487,29.017,35.214,32.239C964.4,2140.648,992.846,2155.255,991.8,2170.172Z" transform="translate(-904.225 -1963.907)" fill="url(#linear-gradient)"/>
            <g id="Grupo_53591" data-name="Grupo 53591" clip-path="url(#clip-path)">
              <g id="Grupo_53590" data-name="Grupo 53590" transform="translate(-3.64 -5.276)">
                <g id="Grupo_53589" data-name="Grupo 53589">
                  <path id="Trazado_101341" data-name="Trazado 101341" d="M1321.16,2104.906l.281-.378c-58.183-43.252-84.4-116.338-70.13-195.5l-.463-.084c-6.763,37.519-4.3,75.1,7.136,108.687A180.517,180.517,0,0,0,1321.16,2104.906Z" transform="translate(-1210.566 -1908.94)" fill="#fcfdfe"/>
                  <path id="Trazado_101342" data-name="Trazado 101342" d="M984.651,3510.738c19.659-2.6,50.662,3.061,69.111,12.608l.216-.418c-18.521-9.584-49.649-15.262-69.388-12.656Z" transform="translate(-973.236 -3356)" fill="#fcfdfe"/>
                  <path id="Trazado_101343" data-name="Trazado 101343" d="M1834.044,3207.822l.375-.285c-6.541-8.591-8.487-20.159-5.785-34.381,1.981-10.429,6.369-22.016,13.043-34.44l-.415-.222c-6.7,12.466-11.1,24.1-13.09,34.574C1825.443,3187.427,1827.419,3199.12,1834.044,3207.822Z" transform="translate(-1734.775 -3020.478)" fill="#fcfdfe"/>
                  <path id="Trazado_101344" data-name="Trazado 101344" d="M912.278,2724.824l.389-.265c-11.5-16.828-31.5-24.511-46.261-27.994l-.108.458C880.976,2700.487,900.867,2708.121,912.278,2724.824Z" transform="translate(-866.298 -2620.967)" fill="#fcfdfe"/>
                  <path id="Trazado_101345" data-name="Trazado 101345" d="M1252.882,2053.692l.468.053c2.6-22.811,19.275-40.208,28.984-48.549l-.307-.357C1272.265,2013.225,1255.5,2030.722,1252.882,2053.692Z" transform="translate(-1215.777 -1995.635)" fill="#fcfdfe"/>
                </g>
              </g>
            </g>
          </g>
        </g>
      </g>
      <g id="Grupo_53600" data-name="Grupo 53600" transform="translate(0 44.15)">
        <g id="Grupo_53599" data-name="Grupo 53599">
          <g id="Grupo_53598" data-name="Grupo 53598" style="mix-blend-mode: soft-light;isolation: isolate">
            <path id="Trazado_101347" data-name="Trazado 101347" d="M511.727,2598.7c2.1-.7,6.052-4.072,6.72-5.376,4.444-8.678,13.819-24.385,11.252-34.366-.438-1.7-8.458-1.8-9.848-3.172-5.1-1.3-6.948-1.437-11.187-5.056-12.515-10.684,5.754-38.9-22.529-42.043-20.717-2.3-35.892,7.647-39.713-23.071s-38.642-81.249-66.515-53.856c-16,15.721,7.683,37.851,1.947,58.708-5.451,19.818,5.112,33.194,26.42,40.286s12.685,17.429,10.461,35.686c-2.671,21.93,29.764,19.386,44.638,16.935C475.351,2581.4,507.183,2584.455,511.727,2598.7Z" transform="translate(-374.262 -2423.893)" fill="#fe8794"/>
            <g id="Grupo_53597" data-name="Grupo 53597" clip-path="url(#clip-path-2)">
              <g id="Grupo_53596" data-name="Grupo 53596" transform="translate(2.552 -3.961)">
                <g id="Grupo_53595" data-name="Grupo 53595">
                  <path id="Trazado_101348" data-name="Trazado 101348" d="M636.318,2548.754l.121-.455c-70.052-18.676-121.433-76.89-137.443-155.722l-.462.093c7.588,37.361,23.776,71.369,46.815,98.348A180.516,180.516,0,0,0,636.318,2548.754Z" transform="translate(-489.159 -2391.623)" fill="#fcfdfe"/>
                  <path id="Trazado_101349" data-name="Trazado 101349" d="M812.99,3864.224c17.307-9.679,48.2-15.887,68.875-13.837l.046-.468c-20.753-2.058-51.773,4.176-69.151,13.9Z" transform="translate(-773.224 -3708.73)" fill="#fcfdfe"/>
                  <path id="Trazado_101350" data-name="Trazado 101350" d="M1602.86,3348.044l.242-.4c-9.253-5.564-15.339-15.592-18.087-29.806-2.015-10.422-2.222-22.811-.615-36.822l-.468-.053c-1.612,14.058-1.4,26.495.621,36.964C1587.328,3332.274,1593.487,3342.408,1602.86,3348.044Z" transform="translate(-1469.41 -3194.735)" fill="#fcfdfe"/>
                  <path id="Trazado_101351" data-name="Trazado 101351" d="M453.917,3278l.263-.39c-16.9-11.385-38.332-11.127-53.333-8.906l.069.466C415.834,3266.96,437.139,3266.7,453.917,3278Z" transform="translate(-400.847 -3182.56)" fill="#fcfdfe"/>
                  <path id="Trazado_101352" data-name="Trazado 101352" d="M672.609,2438.792l.454-.124c-6.019-22.156,3.043-44.486,8.981-55.825l-.417-.219C675.657,2394.025,666.547,2416.481,672.609,2438.792Z" transform="translate(-644.718 -2382.625)" fill="#fcfdfe"/>
                </g>
              </g>
            </g>
          </g>
        </g>
      </g>
    </g>
    <g id="Grupo_53603" data-name="Grupo 53603" transform="translate(381.351 2015.495)">
      <path id="Trazado_101354" data-name="Trazado 101354" d="M737.733,4455.361l-262.3-2.305v6.821a3.613,3.613,0,0,0,2.694,3.707l74.17,13.433a10.092,10.092,0,0,0,2.661.126l179.924-15.316a3.435,3.435,0,0,0,2.85-3.618Z" transform="translate(-472.813 -4319.54)" fill="url(#linear-gradient-3)"/>
      <g id="Grupo_53602" data-name="Grupo 53602">
        <path id="Trazado_101355" data-name="Trazado 101355" d="M617.857,3186.769l-164.4,12.479a5.055,5.055,0,0,1-5.334-5.3V3067.711a5.532,5.532,0,0,1,5.334-5.705h164.4c2.424,0,4.383,2.309,4.383,5.157v114.116C622.24,3184.127,620.281,3186.585,617.857,3186.769Z" transform="translate(-448.124 -3062.006)" fill="url(#linear-gradient-4)"/>
        <path id="Trazado_101356" data-name="Trazado 101356" d="M645.167,3186.769l-164.4,12.479a5.055,5.055,0,0,1-5.334-5.3V3067.711a5.532,5.532,0,0,1,5.334-5.705h164.4c2.424,0,4.383,2.309,4.383,5.157v114.116C649.551,3184.127,647.591,3186.585,645.167,3186.769Z" transform="translate(-472.813 -3062.006)" fill="url(#linear-gradient-5)"/>
        <path id="Trazado_101357" data-name="Trazado 101357" d="M707.4,3247.756,554.281,3258.6a4.145,4.145,0,0,1-4.34-4.351v-110.52a4.533,4.533,0,0,1,4.34-4.677l153.121-.681c2-.009,3.617,1.883,3.617,4.227v100.664C711.018,3245.6,709.4,3247.614,707.4,3247.756Z" transform="translate(-540.168 -3131.037)" fill="#d8dee8"/>
        <path id="Trazado_101358" data-name="Trazado 101358" d="M1412.243,3077.989a1.906,1.906,0,1,1-1.891-2.123A2.026,2.026,0,0,1,1412.243,3077.989Z" transform="translate(-1316.282 -3074.536)" fill="#fff"/>
        <path id="Trazado_101359" data-name="Trazado 101359" d="M605.558,3152.147c-12.674-7.325-22.639,1.956-32.256-7.2-5.831-5.552-2.968-9.691-10.142-17.988-7.946-9.189-13.12-6.1-21.106-14.37-10.1-10.457-5.047-18.592-13.745-26.1-10.552-9.108-21.931-.678-31.975-9.413-4.332-3.767-6.709-9.244-7.951-15.069h-9.828a3.242,3.242,0,0,0-3.121,3.349V3196.21a2.961,2.961,0,0,0,3.121,3.111l167.55-12.775a2.678,2.678,0,0,0,2.019-1.326c-12.265-.48-19.8-4.9-24.617-9.462C614.085,3166.827,615.719,3158.019,605.558,3152.147Z" transform="translate(-472.813 -3062.006)" fill="#fff" opacity="0.48" style="mix-blend-mode: soft-light;isolation: isolate"/>
      </g>
      <path id="Trazado_101360" data-name="Trazado 101360" d="M651.72,4355.626l-176.286,13.136,76.864,13.92a10.113,10.113,0,0,0,2.661.126l182.774-15.558-83.209-11.535A13.27,13.27,0,0,0,651.72,4355.626Z" transform="translate(-472.813 -4231.429)" fill="url(#linear-gradient-5)"/>
      <path id="Trazado_101361" data-name="Trazado 101361" d="M743.431,4391.731l146.763-11.1,45.422,6.246-145.5,11.864Z" transform="translate(-715.087 -4254.069)" opacity="0.3" fill="url(#linear-gradient-5)" style="mix-blend-mode: multiply;isolation: isolate"/>
    </g>
    <g id="Grupo_53616" data-name="Grupo 53616" transform="translate(409.695 1965.668)">
      <g id="Grupo_53613" data-name="Grupo 53613">
        <g id="Grupo_53605" data-name="Grupo 53605">
          <path id="Trazado_101362" data-name="Trazado 101362" d="M895.675,2547.6l-143.514-4.716a8.417,8.417,0,0,0-8.73,8.48V2691.24a8.319,8.319,0,0,0,8.73,8.394l143.514-6.128c4.151-.177,7.5-3.945,7.5-8.415V2555.941C903.179,2551.471,899.827,2547.737,895.675,2547.6Z" transform="translate(-743.431 -2542.879)" fill="url(#linear-gradient-8)"/>
          <path id="Trazado_101363" data-name="Trazado 101363" d="M778.492,2723.12a5.662,5.662,0,0,1-5.935-5.714V2577.718a5.729,5.729,0,0,1,5.935-5.772l143.514,4.523a5.532,5.532,0,0,1,5.114,5.678v129.31a5.6,5.6,0,0,1-5.114,5.728Z" transform="translate(-769.761 -2569.153)" fill="#fff" opacity="0.74" style="mix-blend-mode: soft-light;isolation: isolate"/>
          <path id="Trazado_101364" data-name="Trazado 101364" d="M895.675,2547.6l-143.514-4.716a8.417,8.417,0,0,0-8.73,8.48v6.289l159.748,4.095v-5.806C903.179,2551.471,899.827,2547.737,895.675,2547.6Z" transform="translate(-743.431 -2542.879)" fill="url(#linear-gradient-9)"/>
          <path id="Trazado_101365" data-name="Trazado 101365" d="M851.76,2599.483a2.746,2.746,0,0,1-2.831,2.77,2.945,2.945,0,0,1-2.838-2.934,2.746,2.746,0,0,1,2.838-2.769A2.946,2.946,0,0,1,851.76,2599.483Z" transform="translate(-836.238 -2591.397)" fill="#fff"/>
          <path id="Trazado_101366" data-name="Trazado 101366" d="M955.211,2602.611a2.726,2.726,0,0,1-2.8,2.757,2.924,2.924,0,0,1-2.811-2.92,2.726,2.726,0,0,1,2.811-2.757A2.925,2.925,0,0,1,955.211,2602.611Z" transform="translate(-929.808 -2594.238)" fill="#fff"/>
          <path id="Trazado_101367" data-name="Trazado 101367" d="M1057.675,2605.708a2.708,2.708,0,0,1-2.777,2.744,2.9,2.9,0,0,1-2.785-2.906,2.707,2.707,0,0,1,2.785-2.743A2.9,2.9,0,0,1,1057.675,2605.708Z" transform="translate(-1022.486 -2597.05)" fill="#fff"/>
          <g id="Grupo_53604" data-name="Grupo 53604" opacity="0.5" style="mix-blend-mode: soft-light;isolation: isolate">
            <path id="Trazado_101368" data-name="Trazado 101368" d="M839.891,2601.372c-16.762-24.391-45.776-16.63-64.13-43.58a58.982,58.982,0,0,1-7.1-14.366l-16.5-.543a8.417,8.417,0,0,0-8.73,8.48V2691.24a8.319,8.319,0,0,0,8.73,8.394l138.258-5.9c-3.167-4.568-30.753-21.488-37.88-47.466C846.023,2622.507,850,2616.088,839.891,2601.372Z" transform="translate(-743.431 -2542.879)" fill="#fff"/>
          </g>
        </g>
        <g id="Grupo_53612" data-name="Grupo 53612" transform="translate(10.704 33.384)">
          <path id="Trazado_101369" data-name="Trazado 101369" d="M996.194,3083.758l-141.244-.169v-4.616l141.244.572Z" transform="translate(-854.949 -3060.902)" fill="#fff"/>
          <path id="Trazado_101370" data-name="Trazado 101370" d="M996.194,2903.726l-141.244-1.2v-11.834l141.244,2.235Z" transform="translate(-854.949 -2890.691)" fill="#fff"/>
          <g id="Grupo_53607" data-name="Grupo 53607" transform="translate(3.122 30.027)">
            <g id="Grupo_53606" data-name="Grupo 53606">
              <path id="Trazado_101371" data-name="Trazado 101371" d="M906.216,3221.316l-18.735.11v-17.9l18.735.023Zm-16.549-2.342,13.739-.067v-12.933l-13.739-.005Z" transform="translate(-887.481 -3203.528)" fill="#fff"/>
            </g>
            <path id="Trazado_101372" data-name="Trazado 101372" d="M1272.489,3208.619l-108.488.063v-4.83l108.488.114Z" transform="translate(-1137.46 -3203.821)" fill="#fff"/>
            <path id="Trazado_101373" data-name="Trazado 101373" d="M1272.489,3290.227l-108.488.349v-4.562l108.488-.181Z" transform="translate(-1137.46 -3277.934)" fill="#fff"/>
          </g>
          <g id="Grupo_53609" data-name="Grupo 53609" transform="translate(3.122 55.504)">
            <g id="Grupo_53608" data-name="Grupo 53608" transform="translate(0 0.924)">
              <path id="Trazado_101374" data-name="Trazado 101374" d="M906.216,3496.357l-18.735.308v-17.9l18.735-.175Zm-16.549-2.168,13.739-.213v-12.934l-13.739.142Z" transform="translate(-887.481 -3478.592)" fill="#fff"/>
            </g>
            <path id="Trazado_101375" data-name="Trazado 101375" d="M1272.489,3473.615,1164,3474.643v-4.83l108.488-.851Z" transform="translate(-1137.46 -3468.962)" fill="#fff"/>
            <path id="Trazado_101376" data-name="Trazado 101376" d="M1272.489,3554.149,1164,3555.462V3550.9l108.488-1.146Z" transform="translate(-1137.46 -3542)" fill="#fff"/>
          </g>
          <g id="Grupo_53611" data-name="Grupo 53611" transform="translate(3.122 80.835)">
            <g id="Grupo_53610" data-name="Grupo 53610" transform="translate(0 1.971)">
              <path id="Trazado_101377" data-name="Trazado 101377" d="M906.216,3771.187l-18.735.506v-17.9l18.735-.372Zm-16.549-1.724,13.739-.361v-13.2l-13.739.288Z" transform="translate(-887.481 -3753.422)" fill="#fff"/>
            </g>
            <path id="Trazado_101378" data-name="Trazado 101378" d="M1272.489,3737.536,1164,3739.528v-4.83l108.488-1.815Z" transform="translate(-1137.46 -3732.883)" fill="#fff"/>
            <path id="Trazado_101379" data-name="Trazado 101379" d="M1272.489,3818.07,1164,3820.347v-4.562l108.488-2.11Z" transform="translate(-1137.46 -3805.921)" fill="#fff"/>
          </g>
        </g>
      </g>
      <g id="Grupo_53614" data-name="Grupo 53614" transform="translate(12.688 62.231)">
        <path id="Trazado_101380" data-name="Trazado 101380" d="M883.273,3209.381a2.063,2.063,0,0,1-1.428-.555l-5.627-5.324a1.86,1.86,0,0,1,0-2.727,2.1,2.1,0,0,1,2.869-.006l3.906,3.7,9.017-12.41a2.057,2.057,0,0,1,2.784-.477,1.864,1.864,0,0,1,.5,2.663l-10.366,14.3a2.053,2.053,0,0,1-1.477.828C883.394,3209.378,883.333,3209.381,883.273,3209.381Z" transform="translate(-875.623 -3191.242)" fill="url(#linear-gradient-10)"/>
      </g>
      <g id="Grupo_53615" data-name="Grupo 53615" transform="translate(13.179 88.887)">
        <path id="Trazado_101381" data-name="Trazado 101381" d="M888.388,3487.1a2.061,2.061,0,0,1-1.428-.555l-5.627-5.325a1.86,1.86,0,0,1,0-2.727,2.1,2.1,0,0,1,2.869-.007l3.906,3.705,9.017-12.41a2.056,2.056,0,0,1,2.784-.476,1.863,1.863,0,0,1,.5,2.662l-10.366,14.3a2.052,2.052,0,0,1-1.477.827Q888.478,3487.1,888.388,3487.1Z" transform="translate(-880.737 -3468.962)" fill="url(#linear-gradient-10)"/>
      </g>
    </g>
    <g id="Grupo_53618" data-name="Grupo 53618" transform="translate(500.204 1915.663)">
      <g id="Grupo_53617" data-name="Grupo 53617" transform="translate(0)">
        <path id="Trazado_101382" data-name="Trazado 101382" d="M1777.84,2058.12v.138a59.079,59.079,0,0,0-4.671-5.271c-.024-.059-.065-.118-.089-.176a31.1,31.1,0,0,0-2.974-5.489,30.3,30.3,0,0,0-4.75-5.436c-.225-.221-.484-.416-.724-.625-.123-.1-.247-.207-.371-.309l-.182-.156c-.064-.052-.13-.1-.194-.148q-.386-.293-.774-.591l-.193-.148-.2-.138c-.135-.093-.269-.186-.4-.278-.532-.385-1.1-.719-1.665-1.071-.285-.171-.583-.328-.874-.49-.143-.081-.29-.164-.437-.243l-.451-.225a28.185,28.185,0,0,0-7.693-2.567l-1.008-.166c-.337-.047-.679-.076-1.014-.116l-.508-.057-.509-.028-.51-.031c-.169-.009-.337-.026-.508-.022l-1.017-.007c-.083,0-.173-.005-.25,0l-.226.012-.452.024-.449.022c-.04,0-.067,0-.119.005l-.461.034-.616.043-.461.034-.078.005-.028,0s-.161,0,.109.005l-1,.147c-.164.026-.33.041-.494.077l-.489.1-.489.1-.243.048c-.081.016-.161.04-.24.059-.32.081-.639.161-.957.243-.161.035-.316.09-.471.136l-.466.147-.466.14-.456.167c-.3.114-.608.214-.9.335s-.589.249-.881.375a25.3,25.3,0,0,0-6.187,3.892l-.335.28-.318.3c-.211.2-.428.385-.629.587-.009.007-.015.017-.024.024-.39.4-.786.784-1.136,1.2-.093.1-.185.206-.275.309l-.138.152-.128.162c-.171.21-.34.423-.51.632-.042.052-.086.1-.128.155l-.116.162c-.079.109-.157.218-.235.323-.152.218-.318.418-.454.642a24.021,24.021,0,0,0-2.63,5.1,23.294,23.294,0,0,0-1.166,4.548c-.022.171-.045.338-.067.5s-.052.325-.059.485c-.026.322-.052.627-.078.919s-.017.582-.029.849c-.005.135-.014.266-.016.392s.009.256.01.377c0,.243.007.473.01.687a.831.831,0,0,0,.012.133c0,.04.01.08.015.117.007.076.017.066.024.135s.012.086.017.086h11.367l-6.907,7.658-16.057,17.561-22.966-25.219h12.075a1.877,1.877,0,0,0,.055-.369c.047-.351.1-.693.152-1.109.031-.207.059-.4.092-.623.017-.109.033-.213.05-.326s.031-.233.053-.332c.085-.418.173-.858.266-1.328.05-.233.1-.471.15-.717s.121-.493.187-.749c.131-.51.259-1.045.418-1.6s.345-1.115.527-1.706c.088-.3.2-.589.311-.891l.335-.913a43.628,43.628,0,0,1,3.928-7.834,43.018,43.018,0,0,1,6.451-7.87c.313-.319.658-.611.991-.917.169-.15.337-.3.506-.454l.257-.228.262-.218c.354-.288.711-.58,1.067-.872l.269-.218.28-.207.563-.416c.737-.565,1.53-1.074,2.317-1.6.4-.255.808-.494,1.218-.74.2-.121.407-.242.613-.366l.632-.342a40.9,40.9,0,0,1,10.927-4.073l1.45-.287c.484-.09.976-.152,1.463-.226l.732-.1.738-.073.735-.071c.245-.023.489-.05.736-.059.49-.022.982-.081,1.475-.1.121-.005.245-.052.368-.052h.37l.734.042.734.024c.245,0,.49.032.734.045l1.459.088c.332.005.114.009.2.01l.038.005.078.009.152.021.307.038.611.076.308.038.152.019.188.026.774.114.773.117.384.06c.126.021.238.048.359.073.471.1.943.2,1.414.3.235.047.466.114.7.174l.7.185.691.185.682.216c.452.147.906.285,1.35.444s.884.331,1.324.5a37.923,37.923,0,0,1,9.421,5.4c.173.133.344.268.514.4s.332.278.5.42c.328.28.658.549.974.836.623.585,1.245,1.147,1.813,1.754.145.148.287.3.432.446l.212.221.2.229q.406.461.8.916l.2.228.19.235c.123.157.249.313.372.468.245.313.5.61.723.933a38.032,38.032,0,0,1,3.189,5.092c.428.82.81,1.637,1.146,2.443a36,36,0,0,1,2.131,6.893c.047.263.1.52.143.774s.1.5.128.746c.066.492.131.964.192,1.418s.079.894.117,1.31c.016.207.036.409.048.61s.048.39.057.58C1777.78,2057.426,1777.84,2057.787,1777.84,2058.12Z" transform="translate(-1686.41 -2021.895)" fill="url(#linear-gradient-12)"/>
        <path id="Trazado_101383" data-name="Trazado 101383" d="M2169.982,2147.521v.138a59.085,59.085,0,0,0-4.671-5.272c-.024-.059-.065-.117-.089-.176a31.132,31.132,0,0,0-2.973-5.489,30.291,30.291,0,0,0-4.75-5.436c-.224-.221-.484-.416-.724-.625-.122-.1-.246-.208-.371-.309l-.182-.156c-.064-.052-.13-.1-.194-.148l-.774-.591-.194-.149-.2-.138c-.135-.093-.269-.186-.4-.278-.531-.385-1.1-.718-1.664-1.071-.285-.171-.584-.328-.874-.49-.143-.081-.29-.164-.437-.243l-.451-.225a28.216,28.216,0,0,0-7.693-2.567l-1.009-.166c-.337-.046-.678-.076-1.013-.116l-.508-.057-.51-.027-.509-.031c-.169-.009-.337-.026-.508-.022l-1.017-.007c-.083,0-.173-.005-.25,0l-.227.012-.452.024-.449.022c-.04,0-.067,0-.119.005l-.461.034-.616.043-.461.035-.077.005h-.028s-.161,0,.109.005l-1,.147c-.164.026-.329.042-.493.078l-.489.1-.489.1-.244.049c-.081.016-.16.04-.24.059-.32.081-.639.161-.957.243-.16.035-.316.09-.471.136l-.466.147-.466.14-.456.167c-.3.114-.608.214-.9.335s-.589.249-.881.375a25.3,25.3,0,0,0-6.187,3.892l-.335.28-.318.3c-.21.2-.428.385-.628.587-.009.007-.015.017-.024.024a29.9,29.9,0,0,1,45.762.466c.428.82.81,1.637,1.146,2.443a36.014,36.014,0,0,1,2.131,6.893c.047.262.1.52.143.774s.1.5.128.746c.065.492.131.963.191,1.417s.08.895.117,1.311c.016.207.036.409.048.61s.048.39.057.58C2169.922,2146.826,2169.982,2147.187,2169.982,2147.521Z" transform="translate(-2078.552 -2111.295)" opacity="0.4" fill="url(#linear-gradient-13)" style="mix-blend-mode: multiply;isolation: isolate"/>
      </g>
    </g>
    <g id="Grupo_53621" data-name="Grupo 53621" transform="translate(555.656 1995.137)">
      <path id="Trazado_101384" data-name="Trazado 101384" d="M2622.849,4387.88c-4.083.188-8.036.07-10.675-.066,2.4-1.71,7.938-5.431,12.571-6.913l3.18-.19a12.952,12.952,0,0,1,1.462,5.389C2628.859,4386.758,2627.319,4387.675,2622.849,4387.88Z" transform="translate(-2578.769 -4233.782)" fill="url(#linear-gradient-14)"/>
      <path id="Trazado_101385" data-name="Trazado 101385" d="M2609.614,4438.593l.033-.023c2.639.137,6.591.254,10.675.066,4.47-.206,6.01-1.123,6.538-1.78.018.173.036.344.05.526a1.488,1.488,0,0,1-1.368,1.607c-3.344.253-11.636.825-15.635.615A.558.558,0,0,1,2609.614,4438.593Z" transform="translate(-2576.242 -4284.537)" fill="url(#linear-gradient-15)"/>
      <path id="Trazado_101386" data-name="Trazado 101386" d="M3027.5,4388.532a30.8,30.8,0,0,1,1.149-5.4c.581-1.112,2.571,0,2.571,0a5.285,5.285,0,0,1,2.04,1.737c.409.692,1.543,2.662,2.311,4a.9.9,0,0,1,.121.476l-7.967.278A1.587,1.587,0,0,1,3027.5,4388.532Z" transform="translate(-2954.214 -4235.525)" fill="url(#linear-gradient-16)"/>
      <path id="Trazado_101387" data-name="Trazado 101387" d="M3037.984,4452.5a.907.907,0,0,1-.883.882l-5.676.157a1.6,1.6,0,0,1-1.408-.76Z" transform="translate(-2956.507 -4298.676)" fill="url(#linear-gradient-17)"/>
      <path id="Trazado_101388" data-name="Trazado 101388" d="M3021.34,4312.035c.069.23,1.1,5.221,1.549,7.411a1.251,1.251,0,0,0,1.287,1c.337-.017.729-.047,1.141-.1a1.51,1.51,0,0,0,1.313-1.439c.073-1.919.109-5.6-.6-7.03C3025.063,4309.907,3021.34,4312.035,3021.34,4312.035Z" transform="translate(-2948.662 -4170.798)" fill="url(#linear-gradient-18)"/>
      <path id="Trazado_101389" data-name="Trazado 101389" d="M2740.966,4321.335c-.442-.014.176,2.28-.492,4.535a1.16,1.16,0,0,1-1.061.915c-.343,0-.751,0-1.164-.035a1.281,1.281,0,0,1-1.179-1.154l-.543-5.848Z" transform="translate(-2691.184 -4178.669)" fill="url(#linear-gradient-19)"/>
      <path id="Trazado_101390" data-name="Trazado 101390" d="M2654.109,3661.886c.2.959,7.153,41.535,7.575,62.53a.715.715,0,0,0,.615.7,14.04,14.04,0,0,0,4.271-.028.5.5,0,0,0,.415-.462c.243-3.913,2.2-36.994-.2-52.566,0,0,19.779,41.628,22.778,53.106a.6.6,0,0,0,.617.452,14.931,14.931,0,0,0,4.007-.712,1.047,1.047,0,0,0,.661-1.23c-1.675-6.869-13.415-54.2-21.385-64.625Z" transform="translate(-2616.679 -3581.384)" fill="url(#linear-gradient-20)"/>
      <path id="Trazado_101391" data-name="Trazado 101391" d="M2758.821,3766.889a.26.26,0,0,0,.186-.442l-2.648-2.708a.26.26,0,1,0-.371.363l2.648,2.708A.258.258,0,0,0,2758.821,3766.889Z" transform="translate(-2708.711 -3675.957)" fill="url(#linear-gradient-21)"/>
      <path id="Trazado_101392" data-name="Trazado 101392" d="M2532.711,3131.994c5.918-.89,17.531-2.164,25.107.059l-.822,23.414-27.446-2.959-2.328-3.309S2528.3,3132.657,2532.711,3131.994Z" transform="translate(-2501.971 -3103.852)" fill="url(#linear-gradient-22)"/>
      <path id="Trazado_101393" data-name="Trazado 101393" d="M2642.116,3012.5s.549,9.313.444,12.209c0,0-7.624,1.248-9.438-.057l1.433-11.039Z" transform="translate(-2597.706 -2996.898)" fill="url(#linear-gradient-23)"/>
      <g id="Grupo_53619" data-name="Grupo 53619" transform="translate(32.981 0)">
        <path id="Trazado_101394" data-name="Trazado 101394" d="M2611.769,2915.328s-3.07,5.389-3.554,8.339-1.331,4.806,2.035,5.773a7.336,7.336,0,0,0,8.325-3.218s2.944-4.291,2.594-6.215S2611.769,2915.328,2611.769,2915.328Z" transform="translate(-2607.751 -2909.048)" fill="url(#linear-gradient-24)"/>
        <path id="Trazado_101395" data-name="Trazado 101395" d="M2627.77,2864.826l-.434-.047s2.182-3.473.681-4.286-7.585-2.751-8.689-5.1a4.128,4.128,0,0,1,2.194-5.474.232.232,0,0,1,.282.14l.114.286a.234.234,0,0,0,.435,0h0a.234.234,0,0,1,.425-.019c.339.7,1.336,1.9,4.261,2.769,4.149,1.237,6.764,3.252,6.518,6.185a.235.235,0,0,0,.34.23c.333-.157.843-.192,1.45.442,1.057,1.1.309,3.587-2.464,5.4a.233.233,0,0,0-.029.375c.43.35,1.041,1.14-.846,1.9a4.785,4.785,0,0,1-3.4.408.235.235,0,0,1-.15-.26l.439-2.575a.234.234,0,0,0-.206-.272Z" transform="translate(-2617.889 -2849.905)" fill="url(#linear-gradient-25)"/>
        <path id="Trazado_101396" data-name="Trazado 101396" d="M2708.972,2986.7s1.327-3.51,2.838-2.323-1.276,3.956-2.593,3.951Z" transform="translate(-2699.257 -2971.25)" fill="url(#linear-gradient-26)"/>
      </g>
      <g id="Grupo_53620" data-name="Grupo 53620" transform="translate(0 41.535)">
        <path id="Trazado_101397" data-name="Trazado 101397" d="M2366.462,3287.564l.728-2.861a2.736,2.736,0,0,1,3.2-2.006l68.544,13.984a2.871,2.871,0,0,1,2.235,3.406l-4.178,19.809Z" transform="translate(-2356.641 -3282.64)" fill="url(#linear-gradient-27)"/>
        <path id="Trazado_101398" data-name="Trazado 101398" d="M2298.751,3336.2l5.155-37.052a1.325,1.325,0,0,1,1.6-1.112l70.4,15.634a2.771,2.771,0,0,1,2.1,3.327l-5.908,25.612Z" transform="translate(-2295.429 -3296.531)" fill="#fff"/>
        <path id="Trazado_101399" data-name="Trazado 101399" d="M2318.121,3354.626l1.975-33.072a1.394,1.394,0,0,1,1.679-1.28l71.141,15.054a1.925,1.925,0,0,1,1.5,2.186l-3.79,23.89Z" transform="translate(-2312.939 -3316.635)" fill="#fff"/>
        <path id="Trazado_101400" data-name="Trazado 101400" d="M2264.166,3396.772l4.479-35.822a3.12,3.12,0,0,1,3.675-2.679l72.949,13.769a2.727,2.727,0,0,1,2.173,3.184l-6.162,32.644a2.95,2.95,0,0,1-3.289,2.377l-70.719-9.444A3.612,3.612,0,0,1,2264.166,3396.772Z" transform="translate(-2264.137 -3350.963)" fill="url(#linear-gradient-28)"/>
        <path id="Trazado_101401" data-name="Trazado 101401" d="M2411.317,3349.076h0a2.8,2.8,0,0,1-3.271,2.233l-16.265-3.07a2.8,2.8,0,0,1-2.233-3.271h0a2.8,2.8,0,0,1,3.271-2.233l16.265,3.07A2.8,2.8,0,0,1,2411.317,3349.076Z" transform="translate(-2377.466 -3336.923)" fill="url(#linear-gradient-29)"/>
      </g>
      <path id="Trazado_101402" data-name="Trazado 101402" d="M2766.229,3153.922l7.655-10.21s12.3,13.068,14.662,29.655l-7.674,3.742C2778.491,3171.523,2774.107,3163.957,2766.229,3153.922Z" transform="translate(-2718.037 -3115.512)" fill="url(#linear-gradient-30)"/>
      <path id="Trazado_101403" data-name="Trazado 101403" d="M2867.247,3479.22a44.522,44.522,0,0,1,3.539-5.307,3.693,3.693,0,0,0-2.3-.312c-1.51.186-2.693-.551-2.648-1.373l7.206-2.21c.324-.677,1.75-4.515-2.125-13.6l7.674-3.742a34.569,34.569,0,0,1-2.7,19.607s-2.383,7.4-5.121,9.044C2863.635,3485.611,2866.9,3479.8,2867.247,3479.22Z" transform="translate(-2808.087 -3394.819)" fill="url(#linear-gradient-31)"/>
    </g>
  </g>
</svg>
