<svg xmlns="http://www.w3.org/2000/svg" xmlns:xlink="http://www.w3.org/1999/xlink" width="327.452" height="187.706" viewBox="0 0 327.452 187.706">
  <defs>
    <linearGradient id="linear-gradient" x1="0.861" y1="0.11" x2="0.304" y2="0.867" gradientUnits="objectBoundingBox">
      <stop offset="0" stop-color="#dcdafe"/>
      <stop offset="1" stop-color="#eae9fd"/>
    </linearGradient>
    <linearGradient id="linear-gradient-2" x1="0" y1="0.5" x2="1" y2="0.5" xlink:href="#linear-gradient"/>
    <linearGradient id="linear-gradient-5" x1="-2.848" y1="-17.958" x2="-1.273" y2="-9.112" gradientUnits="objectBoundingBox">
      <stop offset="0" stop-color="#fe9162"/>
      <stop offset="1" stop-color="#ffaa8e"/>
    </linearGradient>
    <linearGradient id="linear-gradient-6" x1="-3.073" y1="-19.253" x2="-1.499" y2="-10.408" xlink:href="#linear-gradient-5"/>
    <linearGradient id="linear-gradient-7" x1="-2.612" y1="-16.606" x2="-1.038" y2="-7.76" xlink:href="#linear-gradient-5"/>
    <linearGradient id="linear-gradient-8" x1="-2.637" y1="-16.751" x2="-1.063" y2="-7.906" gradientUnits="objectBoundingBox">
      <stop offset="0" stop-color="#25005d"/>
      <stop offset="1" stop-color="#420f91"/>
    </linearGradient>
    <linearGradient id="linear-gradient-9" x1="-2.101" y1="-13.67" x2="-0.527" y2="-4.825" xlink:href="#linear-gradient-5"/>
    <linearGradient id="linear-gradient-10" x1="0.158" y1="-1.968" x2="0.338" y2="-0.662" xlink:href="#linear-gradient-5"/>
    <linearGradient id="linear-gradient-11" x1="0.581" y1="-0.01" x2="0.7" y2="-1.135" gradientUnits="objectBoundingBox">
      <stop offset="0" stop-color="#7040e2"/>
      <stop offset="1" stop-color="#824fff"/>
    </linearGradient>
    <linearGradient id="linear-gradient-12" x1="0.21" y1="1.5" x2="0.45" y2="0.9" xlink:href="#linear-gradient-11"/>
    <linearGradient id="linear-gradient-13" x1="0.677" y1="-0.252" x2="-0.046" y2="2.82" xlink:href="#linear-gradient-5"/>
    <linearGradient id="linear-gradient-14" x1="0.833" y1="-0.853" x2="-0.155" y2="4.367" xlink:href="#linear-gradient-5"/>
    <linearGradient id="linear-gradient-15" x1="0.987" y1="-1.346" x2="-2.154" y2="10.56" xlink:href="#linear-gradient-5"/>
    <linearGradient id="linear-gradient-16" x1="0" y1="0.5" x2="1" y2="0.5" xlink:href="#linear-gradient-5"/>
    <linearGradient id="linear-gradient-19" x1="0.617" y1="-0.427" x2="0.322" y2="1.873" xlink:href="#linear-gradient-5"/>
    <linearGradient id="linear-gradient-20" x1="1.214" y1="-1.5" x2="-0.527" y2="3.756" xlink:href="#linear-gradient-5"/>
    <linearGradient id="linear-gradient-21" x1="0.763" y1="-0.583" x2="0.022" y2="2.253" xlink:href="#linear-gradient-5"/>
    <linearGradient id="linear-gradient-28" x1="0.757" y1="-0.502" x2="0.107" y2="2.138" xlink:href="#linear-gradient-5"/>
    <linearGradient id="linear-gradient-34" x1="0.5" y1="-21.804" x2="0.5" y2="-11.376" xlink:href="#linear-gradient-8"/>
    <linearGradient id="linear-gradient-35" x1="0" y1="0.5" x2="1" y2="0.5" xlink:href="#linear-gradient-8"/>
    <linearGradient id="linear-gradient-36" y1="0.5" x2="1" y2="0.5" gradientUnits="objectBoundingBox">
      <stop offset="0" stop-color="#ffaa8e"/>
      <stop offset="1" stop-color="#fec3b1"/>
    </linearGradient>
    <linearGradient id="linear-gradient-37" x1="0.5" y1="-14.772" x2="0.5" y2="-7.559" xlink:href="#linear-gradient-8"/>
    <linearGradient id="linear-gradient-40" x1="-0.289" y1="1.193" x2="1.375" y2="0.002" xlink:href="#linear-gradient-8"/>
    <linearGradient id="linear-gradient-41" x1="1.314" y1="-0.062" x2="-2.293" y2="2.028" xlink:href="#linear-gradient-5"/>
    <linearGradient id="linear-gradient-42" x1="0.673" y1="-4.231" x2="1.048" y2="-14.487" xlink:href="#linear-gradient-11"/>
    <linearGradient id="linear-gradient-43" x1="0.25" y1="-1.065" x2="0.483" y2="0.186" xlink:href="#linear-gradient-36"/>
    <linearGradient id="linear-gradient-44" x1="2.844" y1="-0.503" x2="-5.081" y2="3.117" xlink:href="#linear-gradient-5"/>
    <linearGradient id="linear-gradient-45" x1="2.221" y1="-0.121" x2="-8.39" y2="4.13" xlink:href="#linear-gradient-5"/>
    <linearGradient id="linear-gradient-47" x1="0.503" y1="-0.004" x2="0.489" y2="1.888" xlink:href="#linear-gradient-36"/>
    <linearGradient id="linear-gradient-50" x1="4.3" y1="-0.327" x2="1.522" y2="0.279" xlink:href="#linear-gradient-36"/>
    <linearGradient id="linear-gradient-51" x1="-5.882" y1="24.498" x2="-4.859" y2="24.498" xlink:href="#linear-gradient-8"/>
    <linearGradient id="linear-gradient-52" x1="-31.032" y1="109.84" x2="-27.741" y2="107.484" xlink:href="#linear-gradient-36"/>
    <linearGradient id="linear-gradient-53" x1="0.222" y1="-9.576" x2="0.387" y2="-3.526" xlink:href="#linear-gradient-36"/>
    <linearGradient id="linear-gradient-55" x1="1.332" y1="-2.382" x2="0.979" y2="-1.236" xlink:href="#linear-gradient-5"/>
    <linearGradient id="linear-gradient-57" x1="-0.021" y1="-0.346" x2="0.342" y2="0.297" xlink:href="#linear-gradient-8"/>
    <linearGradient id="linear-gradient-58" x1="1.449" y1="-0.751" x2="0.78" y2="0.079" xlink:href="#linear-gradient-36"/>
    <linearGradient id="linear-gradient-59" x1="3.948" y1="-6.751" x2="2.319" y2="-3.356" xlink:href="#linear-gradient-8"/>
    <linearGradient id="linear-gradient-60" x1="0.162" y1="1.602" x2="1.197" y2="-1.187" xlink:href="#linear-gradient-36"/>
    <linearGradient id="linear-gradient-61" x1="3.173" y1="-6.553" x2="2.168" y2="-3.776" xlink:href="#linear-gradient-8"/>
    <linearGradient id="linear-gradient-62" x1="0.308" y1="1.698" x2="0.771" y2="-1.193" xlink:href="#linear-gradient-36"/>
    <linearGradient id="linear-gradient-63" x1="0.516" y1="0.411" x2="0.749" y2="2.003" xlink:href="#linear-gradient-5"/>
    <linearGradient id="linear-gradient-64" x1="4.828" y1="-4.304" x2="2.644" y2="-1.881" xlink:href="#linear-gradient-8"/>
    <linearGradient id="linear-gradient-65" x1="0.316" y1="-0.281" x2="0.673" y2="1.373" xlink:href="#linear-gradient-36"/>
    <linearGradient id="linear-gradient-66" x1="2.056" y1="-0.043" x2="0.124" y2="0.527" xlink:href="#linear-gradient-36"/>
    <linearGradient id="linear-gradient-67" x1="0.954" y1="-0.715" x2="0.425" y2="0.863" xlink:href="#linear-gradient-36"/>
    <linearGradient id="linear-gradient-68" x1="0.121" y1="-0.334" x2="0.822" y2="0.994" xlink:href="#linear-gradient-8"/>
    <linearGradient id="linear-gradient-69" x1="2.051" y1="-3.637" x2="0.127" y2="1.447" xlink:href="#linear-gradient-36"/>
    <linearGradient id="linear-gradient-70" x1="2.702" y1="-2.089" x2="0.712" y2="0.219" xlink:href="#linear-gradient-36"/>
    <linearGradient id="linear-gradient-71" x1="1.77" y1="-0.942" x2="-0.638" y2="1.522" xlink:href="#linear-gradient-36"/>
  </defs>
  <g id="Grupo_53959" data-name="Grupo 53959" transform="translate(-146.57 -188.939)">
    <path id="Trazado_102462" data-name="Trazado 102462" d="M489.733,338.778a6.175,6.175,0,0,1-2.158-4.4,6.09,6.09,0,0,1,1.756-4.553c16.766-17,67.79-74.576,32.752-114.093-37.576-42.38-82.553-24.748-103.529-12.609a41.833,41.833,0,0,1-26.02,5.355c-22.949-2.793-65.982-1.806-68.558,44.192a13.56,13.56,0,0,1-10.637,12.569,13.963,13.963,0,0,0-5.941,2.677,22.449,22.449,0,0,1-21.386,3.644,29.019,29.019,0,0,0-24.484,2.572c-17.673,10.063-20.356,30.673-14.112,44.164a29.186,29.186,0,0,1,1.079,22.279c-2.325,6.351-1.586,13.784,10.48,18.3,24.354,9.107,162.162,15.283,179.97,13.9C455.8,371.469,516.68,361.96,489.733,338.778Z" transform="translate(-83.162 0)" fill="url(#linear-gradient)"/>
    <g id="Grupo_53898" data-name="Grupo 53898" transform="translate(146.57 199.674)">
      <g id="Grupo_53895" data-name="Grupo 53895" transform="translate(0 87.166)">
        <path id="Trazado_102463" data-name="Trazado 102463" d="M207.6,916.79s3.607-42.1-19.74-55.067c-22.4-12.435-28.648-1.426-38.928-17.938a.945.945,0,0,0-1.741.373c-1.232,9.445-3.319,41.435,23.717,47.806C202.148,899.324,207.6,916.79,207.6,916.79Z" transform="translate(-146.57 -843.336)" fill="#bfbdfb"/>
        <path id="Trazado_102464" data-name="Trazado 102464" d="M176.048,909.483a14.451,14.451,0,0,0,.987,2.346c.208.375.393.762.62,1.126l.675,1.1c.5.7.966,1.421,1.524,2.076.271.333.534.673.811,1l.871.951a42.883,42.883,0,0,0,7.919,6.57,61.916,61.916,0,0,0,9.1,4.862l2.4.965c.8.322,1.594.644,2.417.958l1.223.477,1.21.513c.812.33,1.6.72,2.4,1.083,1.576.771,3.139,1.579,4.64,2.5.763.441,1.489.941,2.23,1.419.718.513,1.449,1.01,2.139,1.562a37.906,37.906,0,0,1,7.442,7.56,41.722,41.722,0,0,1,5.108,9.31c1.326,3.279,2.31,6.656,3.3,9.974v0a1.091,1.091,0,0,1-2.091.623l-.006-.021c-.924-3.353-1.82-6.671-3.035-9.859a39.845,39.845,0,0,0-4.7-9,36.249,36.249,0,0,0-6.975-7.376c-.654-.546-1.351-1.039-2.034-1.55-.708-.477-1.4-.977-2.134-1.42-1.439-.925-2.948-1.744-4.473-2.529-.774-.371-1.536-.769-2.326-1.109l-1.177-.528-1.192-.494c-.792-.321-1.6-.665-2.4-1.01l-2.413-1.029a62.91,62.91,0,0,1-9.147-5.131,43.682,43.682,0,0,1-7.93-6.856,25.1,25.1,0,0,1-5.443-8.948.244.244,0,1,1,.466-.146v0Z" transform="translate(-171.226 -899.418)" fill="url(#linear-gradient-2)"/>
      </g>
      <g id="Grupo_53896" data-name="Grupo 53896" transform="translate(14.472 36.878)">
        <path id="Trazado_102465" data-name="Trazado 102465" d="M291.532,629.985l-2.586-1.533c1.307-20.107-2.355-57.041-22.448-67.1-13.61-6.816-18.672-14.415-17.657-30.65a36.007,36.007,0,0,0-5.381-22.1.9.9,0,0,1,1.153-1.3c8.3,4.092,29.912,16.2,39.8,35.447C296.792,566.839,291.532,629.985,291.532,629.985Z" transform="translate(-243.307 -507.198)" fill="#bfbdfb"/>
        <path id="Trazado_102466" data-name="Trazado 102466" d="M333.272,597.5a.514.514,0,0,1,.5-.9,22.2,22.2,0,0,1,2.951,2.017c.461.366.926.728,1.361,1.124s.9.76,1.31,1.177l1.267,1.222c.409.419.805.851,1.208,1.277l.6.64c.2.214.383.443.575.664l1.14,1.336a77.483,77.483,0,0,1,7.836,11.609l.859,1.527.214.382.2.391.393.782,1.571,3.13,1.429,3.195.713,1.6c.225.538.43,1.084.646,1.625l1.28,3.256c.224.539.4,1.094.592,1.647l.563,1.658c.368,1.107.766,2.206,1.11,3.321l.968,3.363.484,1.682c.166.56.284,1.131.428,1.7l.826,3.4.206.85c.067.284.119.57.179.855l.35,1.713c.23,1.143.474,2.283.692,3.428l.586,3.447.293,1.724.246,1.73.483,3.462c.146,1.156.265,2.315.4,3.472l.2,1.737c.062.579.105,1.16.159,1.74l.3,3.482.231,3.487c.086,1.162.117,2.327.178,3.491s.092,2.329.124,3.494.055,2.331.066,3.5c.023,2.337.013,4.654-.081,7.019a1.091,1.091,0,1,1-2.18-.087v-.03c.114-2.269.15-4.592.15-6.893,0-1.153,0-2.307-.029-3.46s-.037-2.307-.087-3.461-.067-2.308-.141-3.46l-.193-3.458-.265-3.453c-.047-.575-.084-1.152-.139-1.726l-.176-1.722c-.121-1.148-.226-2.3-.359-3.444l-.443-3.434-.226-1.717-.272-1.709L364,657.479c-.2-1.135-.434-2.266-.65-3.4l-.328-1.7c-.057-.283-.105-.567-.168-.849l-.2-.842-.782-3.37c-.137-.56-.247-1.127-.405-1.682l-.461-1.666-.922-3.333c-.328-1.1-.71-2.192-1.062-3.289l-.539-1.642c-.179-.548-.352-1.1-.568-1.633l-1.232-3.232c-.208-.538-.4-1.08-.622-1.614l-.688-1.586L354,624.471l-1.519-3.1-.38-.776-.19-.388-.208-.379-.831-1.514a76.246,76.246,0,0,0-7.593-11.506l-1.1-1.322c-.186-.218-.363-.446-.557-.657l-.583-.633c-.39-.42-.774-.848-1.17-1.262l-1.225-1.206c-.4-.413-.844-.772-1.265-1.16s-.866-.745-1.31-1.1a21.482,21.482,0,0,0-2.763-1.939Z" transform="translate(-319.592 -583.174)" fill="url(#linear-gradient-2)"/>
      </g>
      <g id="Grupo_53897" data-name="Grupo 53897" transform="translate(50.007)">
        <path id="Trazado_102467" data-name="Trazado 102467" d="M495.971,417.763a.56.56,0,0,1-1.043-.347c1.366-10.819,6.658-58.224-1.983-82.9-9.68-27.639-28.51-55.375,17.7-73.776a.689.689,0,0,1,.889.911,25.259,25.259,0,0,0,.523,20.47c5.6,12.487,5.537,33.766-9.563,55.062C502.489,337.188,504.9,401.988,495.971,417.763Z" transform="translate(-480.833 -260.693)" fill="#bfbdfb"/>
        <path id="Trazado_102468" data-name="Trazado 102468" d="M551.292,310.772a19.161,19.161,0,0,0-3.643,2.625,27.638,27.638,0,0,0-3.1,3.3l-.686.9c-.232.3-.43.621-.646.93-.44.614-.807,1.276-1.2,1.92-.2.322-.357.666-.537,1s-.361.663-.516,1.007l-.467,1.032-.234.516c-.076.173-.138.352-.207.527a40.259,40.259,0,0,0-2.349,8.735l-.3,2.248-.175,2.263-.042.565-.013.568-.026,1.136-.026,1.135c0,.378.019.757.027,1.136l.072,2.271.183,2.267c.033.378.056.756.1,1.133l.146,1.128.292,2.256.391,2.243.2,1.121.1.56.124.556.494,2.224.247,1.112c.089.369.193.735.289,1.1a135.03,135.03,0,0,0,5.8,17.289l0,.007a1.091,1.091,0,0,1-2.022.821l-.008-.021a137.015,137.015,0,0,1-5.521-17.67c-.09-.376-.187-.749-.27-1.127l-.228-1.137-.456-2.274-.114-.568-.09-.573-.178-1.147c-.116-.765-.242-1.528-.351-2.293l-.25-2.309-.125-1.154c-.033-.385-.049-.773-.074-1.159l-.138-2.319-.026-2.325c0-.388-.013-.775,0-1.162l.051-1.162.051-1.162.025-.581.055-.58.228-2.316.356-2.3a41.4,41.4,0,0,1,2.6-8.93c.075-.179.143-.361.224-.538l.251-.526.5-1.052c.167-.351.37-.684.553-1.026s.365-.687.574-1.014c.419-.655.81-1.328,1.276-1.951.229-.314.44-.641.685-.943l.725-.913a28.443,28.443,0,0,1,3.26-3.327,19.732,19.732,0,0,1,3.858-2.651.323.323,0,0,1,.3.573Z" transform="translate(-527.521 -302.753)" fill="url(#linear-gradient-2)"/>
      </g>
    </g>
    <g id="Grupo_53905" data-name="Grupo 53905" transform="translate(170.148 215.975)">
      <g id="Grupo_53899" data-name="Grupo 53899" transform="translate(0 46.843)">
        <circle id="Elipse_4029" data-name="Elipse 4029" cx="3.991" cy="3.991" r="3.991" transform="translate(0 7.831) rotate(-78.799)" fill="url(#linear-gradient-5)"/>
      </g>
      <g id="Grupo_53900" data-name="Grupo 53900" transform="translate(27.663 53.418)">
        <path id="Trazado_102469" data-name="Trazado 102469" d="M497.032,730.212a3.991,3.991,0,1,1-4.452-3.47A3.991,3.991,0,0,1,497.032,730.212Z" transform="translate(-489.079 -726.711)" fill="url(#linear-gradient-6)"/>
      </g>
      <g id="Grupo_53901" data-name="Grupo 53901" transform="translate(36.738 29.092)">
        <circle id="Elipse_4030" data-name="Elipse 4030" cx="3.991" cy="3.991" r="3.991" transform="translate(0 1.728) rotate(-12.505)" fill="url(#linear-gradient-7)"/>
      </g>
      <g id="Grupo_53902" data-name="Grupo 53902" transform="translate(59.854 27.091)">
        <path id="Trazado_102470" data-name="Trazado 102470" d="M712.2,554.239a3.991,3.991,0,1,1-4.452-3.47A3.991,3.991,0,0,1,712.2,554.239Z" transform="translate(-704.25 -550.738)" fill="url(#linear-gradient-8)"/>
      </g>
      <g id="Grupo_53903" data-name="Grupo 53903" transform="translate(69.614)">
        <path id="Trazado_102471" data-name="Trazado 102471" d="M777.439,373.154a3.991,3.991,0,1,1-4.452-3.47A3.991,3.991,0,0,1,777.439,373.154Z" transform="translate(-769.486 -369.654)" fill="url(#linear-gradient-9)"/>
      </g>
      <g id="Grupo_53904" data-name="Grupo 53904" transform="translate(4.533 3.957)">
        <path id="Trazado_102472" data-name="Trazado 102472" d="M361.877,450.2l-27.408-6.074.217-.98,26.591,5.893,9.829-23.33,22.244-2.757,9.737-26.847.944.342-9.947,27.425-22.278,2.762Z" transform="translate(-334.468 -396.102)" fill="url(#linear-gradient-10)"/>
      </g>
    </g>
    <g id="Grupo_53906" data-name="Grupo 53906" transform="translate(170.093 211.904)">
      <path id="Trazado_102473" data-name="Trazado 102473" d="M521.151,412.55a1.735,1.735,0,0,1-1.695-1.7c-.173-9.531-3.146-56.855-44.823-66.745C428.234,333.093,407,380.279,407,380.279s-57.409-22.02-68.419,36.962c-36,8.639-45.349,55.65-21.936,78.621a20.124,20.124,0,0,0,13.917,5.76L556,503.652a14.842,14.842,0,0,0,14.363-10.615C577.4,469.269,586.631,414.083,521.151,412.55Z" transform="translate(-303.804 -342.437)" fill="url(#linear-gradient-11)"/>
      <path id="Trazado_102474" data-name="Trazado 102474" d="M553.451,445.663a1.735,1.735,0,0,1-1.694-1.7c-.185-9.141-3.128-53.023-42.381-62.222-43.874-10.281-63.951,33.782-63.951,33.782s-54.285-20.563-64.7,34.517c-33.711,7.99-42.709,51.129-21.371,72.8a20.133,20.133,0,0,0,14.166,6.005l212.215,1.888a14.842,14.842,0,0,0,14.373-10.655C606.731,497.5,614.585,447.126,553.451,445.663Z" transform="translate(-341.256 -374.539)" fill="url(#linear-gradient-12)"/>
    </g>
    <g id="Grupo_53911" data-name="Grupo 53911" transform="translate(389.828 213.239)">
      <g id="Grupo_53907" data-name="Grupo 53907" transform="translate(7.378 7.154)">
        <path id="Trazado_102475" data-name="Trazado 102475" d="M1827.184,417.383l5.256,7.992h-2.629l1.3,11.661h-7.281l1.387-11.492-3.328-.387Z" transform="translate(-1821.888 -414.66)" fill="#9391fa"/>
        <path id="Trazado_102476" data-name="Trazado 102476" d="M1909.542,418.907l-5.256-8.067h2.629l-1.3-11.66h7.281l-1.387,11.567,3.328.387Z" transform="translate(-1891.959 -399.18)" fill="#9391fa"/>
      </g>
      <g id="Grupo_53910" data-name="Grupo 53910" transform="translate(0 0)">
        <g id="Grupo_53908" data-name="Grupo 53908" opacity="0.64">
          <path id="Trazado_102477" data-name="Trazado 102477" d="M1776.353,507.638a.473.473,0,0,1-.453-.339c-.12-.408-.228-.829-.322-1.251a.473.473,0,1,1,.923-.206c.089.4.193.8.306,1.19a.473.473,0,0,1-.454.606Z" transform="translate(-1775.118 -482.417)" fill="#9391fa"/>
          <path id="Trazado_102478" data-name="Trazado 102478" d="M1773.044,371.266a.473.473,0,0,1-.473-.473c0-.449.016-.906.047-1.36.028-.414.07-.83.125-1.235a.473.473,0,1,1,.937.126c-.051.385-.091.781-.119,1.175-.03.432-.045.868-.045,1.295A.473.473,0,0,1,1773.044,371.266Zm1.15-6.532a.48.48,0,0,1-.162-.029.473.473,0,0,1-.282-.606,19.363,19.363,0,0,1,1.056-2.379.473.473,0,1,1,.837.441,18.382,18.382,0,0,0-1,2.263A.473.473,0,0,1,1774.194,364.734Zm3.338-5.734a.473.473,0,0,1-.36-.779,19.623,19.623,0,0,1,1.811-1.867.473.473,0,0,1,.634.7,18.575,18.575,0,0,0-1.724,1.777A.472.472,0,0,1,1777.532,359Zm5.106-4.234a.473.473,0,0,1-.234-.884,19.462,19.462,0,0,1,2.341-1.131.473.473,0,1,1,.353.877,18.5,18.5,0,0,0-2.226,1.076A.47.47,0,0,1,1782.638,354.766Zm15.341-1.5a.474.474,0,0,1-.149-.024,18.457,18.457,0,0,0-2.4-.62.473.473,0,1,1,.175-.929,19.439,19.439,0,0,1,2.519.652.473.473,0,0,1-.149.922Zm-9.092-.715a.473.473,0,0,1-.077-.939,19.448,19.448,0,0,1,2.589-.25.473.473,0,1,1,.028.945,18.53,18.53,0,0,0-2.463.238A.5.5,0,0,1,1788.887,352.55Z" transform="translate(-1772.571 -351.36)" fill="#9391fa"/>
          <path id="Trazado_102479" data-name="Trazado 102479" d="M1965.919,370.956a.47.47,0,0,1-.27-.085c-.335-.233-.682-.457-1.031-.668a.473.473,0,0,1,.488-.81c.367.221.732.457,1.084.7a.473.473,0,0,1-.27.861Z" transform="translate(-1935.693 -366.638)" fill="#9391fa"/>
        </g>
        <g id="Grupo_53909" data-name="Grupo 53909" transform="translate(7.434 15.16)" opacity="0.64">
          <path id="Trazado_102480" data-name="Trazado 102480" d="M2024.047,454.881a.472.472,0,0,1-.468-.41c-.054-.4-.123-.812-.2-1.212a.473.473,0,0,1,.927-.188c.085.421.157.849.214,1.274a.472.472,0,0,1-.406.531A.433.433,0,0,1,2024.047,454.881Z" transform="translate(-1993.28 -452.693)" fill="#9391fa"/>
          <path id="Trazado_102481" data-name="Trazado 102481" d="M1860.626,506.464q-.254,0-.509-.007a.472.472,0,0,1-.46-.485.46.46,0,0,1,.485-.46,18.741,18.741,0,0,0,2.432-.1.473.473,0,0,1,.1.94A19.487,19.487,0,0,1,1860.626,506.464Zm-4.514-.539a.48.48,0,0,1-.112-.013,19.466,19.466,0,0,1-2.442-.768.473.473,0,0,1,.342-.881,18.439,18.439,0,0,0,2.323.73.473.473,0,0,1-.111.932Zm10.472-.424a.473.473,0,0,1-.149-.921,18.393,18.393,0,0,0,2.251-.919.473.473,0,0,1,.414.85,19.389,19.389,0,0,1-2.368.966A.477.477,0,0,1,1866.583,505.5Zm5.741-3.1a.473.473,0,0,1-.293-.844,18.662,18.662,0,0,0,1.81-1.628.473.473,0,0,1,.677.66,19.721,19.721,0,0,1-1.9,1.711A.474.474,0,0,1,1872.324,502.405Zm4.359-4.857a.473.473,0,0,1-.4-.723,18.465,18.465,0,0,0,1.151-2.145.473.473,0,1,1,.861.391,19.362,19.362,0,0,1-1.211,2.256A.472.472,0,0,1,1876.683,497.549Zm2.45-6.05a.473.473,0,0,1-.463-.572,18.7,18.7,0,0,0,.352-2.409.473.473,0,0,1,.942.076,19.679,19.679,0,0,1-.37,2.531A.473.473,0,0,1,1879.134,491.5Z" transform="translate(-1848.619 -482.789)" fill="#9391fa"/>
          <path id="Trazado_102482" data-name="Trazado 102482" d="M1823.757,580.237a.47.47,0,0,1-.261-.079c-.356-.237-.709-.49-1.051-.751a.473.473,0,0,1,.576-.75c.324.249.66.489,1,.714a.473.473,0,0,1-.262.866Z" transform="translate(-1822.26 -559.729)" fill="#9391fa"/>
        </g>
      </g>
    </g>
    <g id="Grupo_53913" data-name="Grupo 53913" transform="translate(249.264 319.846)">
      <path id="Trazado_102483" data-name="Trazado 102483" d="M856.415,1088.694H836.786a3.781,3.781,0,0,1-3.779-3.9l.541-17.177a3.781,3.781,0,0,1,4.181-3.641l19.625,2.094a3.794,3.794,0,0,1,3.378,3.895l-.537,15.083A3.768,3.768,0,0,1,856.415,1088.694Zm-21.923-21.047-.541,17.177a2.836,2.836,0,0,0,2.834,2.925h19.629a2.826,2.826,0,0,0,2.834-2.735l.537-15.083a2.846,2.846,0,0,0-2.534-2.921l-19.625-2.094a2.837,2.837,0,0,0-3.136,2.731Z" transform="translate(-833.005 -1063.954)" fill="url(#linear-gradient-13)"/>
      <g id="Grupo_53912" data-name="Grupo 53912" transform="translate(2.489 3.824)" opacity="0.73">
        <path id="Trazado_102484" data-name="Trazado 102484" d="M868.568,1121H851.021a1.375,1.375,0,0,1-1.129-2.161l3.65-5.248a1.375,1.375,0,0,1,2.059-.229l1.389,1.253a.033.033,0,0,0,.026-.021l3.354-7.349a1.375,1.375,0,0,1,2.436-.126l6.947,11.809a1.375,1.375,0,0,1-1.185,2.073Zm-13.872-6.651-.056.006-3.65,5.248a.031.031,0,0,0,0,.039.031.031,0,0,0,.033.02h17.547a.037.037,0,0,0,.032-.056l-6.947-11.81c-.006-.009-.013-.015-.034-.018a.031.031,0,0,0-.032.021l-3.354,7.349a1.375,1.375,0,0,1-2.181.443Z" transform="translate(-849.645 -1103.906)" fill="url(#linear-gradient-14)"/>
        <path id="Trazado_102485" data-name="Trazado 102485" d="M956.4,1095.9a3.192,3.192,0,1,1,3.191-3.192A3.195,3.195,0,0,1,956.4,1095.9Zm0-5.045a1.853,1.853,0,1,0,1.853,1.853A1.855,1.855,0,0,0,956.4,1090.856Z" transform="translate(-937.711 -1089.518)" fill="url(#linear-gradient-15)"/>
      </g>
    </g>
    <g id="Grupo_53916" data-name="Grupo 53916" transform="translate(253.862 274.682)">
      <path id="Trazado_102486" data-name="Trazado 102486" d="M927.449,794.764l-.047,0a.732.732,0,0,1-.683-.777c0-.032.177-3.312-1.764-5.232a5.759,5.759,0,0,0-4.666-1.4c-5.284.375-5.022,5.621-5.008,5.845a.731.731,0,0,1-1.46.09c-.148-2.39.993-7.012,6.364-7.394a7.145,7.145,0,0,1,5.806,1.823c2.412,2.4,2.2,6.2,2.187,6.358A.732.732,0,0,1,927.449,794.764Z" transform="translate(-906.317 -782.308)" fill="url(#linear-gradient-16)"/>
      <path id="Trazado_102487" data-name="Trazado 102487" d="M949.661,870.944a1.91,1.91,0,1,1,1.909-1.91A1.912,1.912,0,0,1,949.661,870.944Zm0-2.722a.813.813,0,1,0,.812.813A.814.814,0,0,0,949.661,868.222Z" transform="translate(-935.182 -851.407)" fill="url(#linear-gradient-16)"/>
      <g id="Grupo_53915" data-name="Grupo 53915" transform="translate(0 0)">
        <path id="Trazado_102488" data-name="Trazado 102488" d="M914.9,861.844l-.233,0a6.846,6.846,0,0,1-5.085-1.858c-1.819-1.844-2.121-4.594-2.054-6.575a2.168,2.168,0,0,1,2.154-2.087h.038l11.383.2a1.569,1.569,0,0,1,1.541,1.534c.04,1.587-.187,4.557-2.154,6.614A7.626,7.626,0,0,1,914.9,861.844Zm-5.217-9.421a1.066,1.066,0,0,0-1.058,1.027c-.049,1.447.112,4.119,1.738,5.768a5.94,5.94,0,0,0,4.515,1.529,6.579,6.579,0,0,0,4.821-1.826c1.692-1.771,1.885-4.412,1.85-5.829a.473.473,0,0,0-.464-.464l-11.383-.2Z" transform="translate(-900.971 -837.972)" fill="url(#linear-gradient-16)"/>
        <g id="Grupo_53914" data-name="Grupo 53914">
          <path id="Trazado_102489" data-name="Trazado 102489" d="M871.22,789.513q-.282,0-.545-.005c-3.083-.064-3.687-.616-3.874-1.027-1.084-2.383-4.68-20.939-2.224-23.988a.315.315,0,0,1,.2-.114c3.946-.575,23.711-3.371,25.335-1.887,1.776,1.622,2.62,21.107,1.574,23.172C890.77,787.473,877.549,789.513,871.22,789.513ZM865,764.984c-2,2.974,1.261,20.784,2.377,23.236.045.1.417.6,3.313.657,7.06.153,19.792-2.229,20.435-3.5,1.093-2.158-.129-21.227-1.437-22.421C888.61,761.972,874.03,763.671,865,764.984Z" transform="translate(-863.736 -762.063)" fill="url(#linear-gradient-19)"/>
        </g>
      </g>
    </g>
    <g id="Grupo_53918" data-name="Grupo 53918" transform="translate(304.175 334.785)">
      <path id="Trazado_102490" data-name="Trazado 102490" d="M1253.732,1219.3c-1.872,0-3.847-.795-4.4-1.961-.193-.4-.478-1.444,1.029-2.41a4.206,4.206,0,0,1,3.314-.843,2.155,2.155,0,0,1,1.342,1.029.473.473,0,0,1-.843.428,1.247,1.247,0,0,0-.77-.551,3.437,3.437,0,0,0-2.533.733c-.642.412-.872.817-.686,1.207.445.931,3.015,1.865,4.965,1.215,1.79-.6.9-7.763-.309-12.661a.473.473,0,0,1,.637-.551c.177.072,4.337,1.793,5.457,5.013a5.245,5.245,0,0,1-.544,4.449.473.473,0,1,1-.822-.466,4.341,4.341,0,0,0,.473-3.673c-.692-1.99-2.837-3.378-4.054-4.029.754,3.338,2.366,11.846-.538,12.814A5.453,5.453,0,0,1,1253.732,1219.3Z" transform="translate(-1241.821 -1198.749)" fill="url(#linear-gradient-20)"/>
      <g id="Grupo_53917" data-name="Grupo 53917">
        <path id="Trazado_102491" data-name="Trazado 102491" d="M1216.674,1190.505a76.312,76.312,0,0,1-12.5-.932c-3.028-.582-3.531-1.228-3.646-1.663-.668-2.531-1.092-21.428,1.842-24.02a.336.336,0,0,1,.216-.079c3.986.1,23.94.666,25.292,2.4,1.478,1.9-.967,21.246-2.345,23.106C1224.914,1190.154,1221.091,1190.505,1216.674,1190.505Zm-13.971-26.061c-2.475,2.594-2.253,20.7-1.565,23.3.028.105.311.658,3.155,1.2,6.934,1.333,19.886,1.132,20.733-.012,1.44-1.943,3.443-20.946,2.355-22.344C1226.485,1165.448,1211.828,1164.669,1202.7,1164.444Z" transform="translate(-1200.043 -1163.811)" fill="url(#linear-gradient-21)"/>
      </g>
    </g>
    <g id="Grupo_53920" data-name="Grupo 53920" transform="translate(297.777 234.016)">
      <g id="Grupo_53919" data-name="Grupo 53919" transform="translate(0 0)">
        <path id="Trazado_102492" data-name="Trazado 102492" d="M1164.764,517.693c-.189,0-.37,0-.546-.005-3.083-.064-3.687-.616-3.874-1.026-1.084-2.382-4.681-20.939-2.224-23.988a.314.314,0,0,1,.2-.114c3.946-.575,23.71-3.37,25.335-1.887,1.776,1.622,2.62,21.107,1.573,23.171C1184.313,515.653,1171.093,517.693,1164.764,517.693Zm-6.223-24.529c-2,2.974,1.261,20.784,2.377,23.236.045.1.417.6,3.313.657,7.057.143,19.792-2.229,20.435-3.5,1.093-2.158-.129-21.226-1.437-22.421C1182.153,490.153,1167.573,491.85,1158.542,493.164Z" transform="translate(-1157.279 -490.243)" fill="url(#linear-gradient-16)"/>
      </g>
      <path id="Trazado_102493" data-name="Trazado 102493" d="M1191.194,533.1a4.625,4.625,0,0,1-2.416-.36c-1-.992-2.728-9.292-1.733-12.55.287-.939.775-1.481,1.453-1.612l.689-.134c2.165-.423,6.181-1.207,9.644-1.658a5.176,5.176,0,0,0,.258-.859c.183-.747.3-1.241.7-1.284,4.184-.461,4.928-.009,5.106.494.288.819,1.12,4.633,1.72,8.142,1.236,7.217.63,7.641.372,7.821-.706.494-5.819,1.19-9.084,1.537C1195.625,532.883,1193.043,533.1,1191.194,533.1Zm-2.577-13.9c-.43.083-.756.479-.969,1.177-1.015,3.325.973,11.32,1.575,11.919.353.268,3.233.294,8.71-.293,4.707-.5,8.292-1.139,8.687-1.415.04-.053.473-.809-.662-7.375-.641-3.7-1.425-7.186-1.663-7.863-.01-.022-.286-.527-4.354-.086a5.5,5.5,0,0,0-.241.817c-.181.739-.312,1.272-.711,1.324-3.461.447-7.508,1.237-9.682,1.661Z" transform="translate(-1182.339 -510.833)" fill="url(#linear-gradient-16)"/>
      <path id="Trazado_102494" data-name="Trazado 102494" d="M1200.421,554.648a.315.315,0,0,1-.313-.283.748.748,0,0,1,.521-.761,3.109,3.109,0,0,1,.954-.231.315.315,0,0,1,.063.627,2.454,2.454,0,0,0-.749.174c-.116.055-.165.107-.163.128a.315.315,0,0,1-.282.345Z" transform="translate(-1193.698 -543.927)" fill="url(#linear-gradient-16)"/>
      <path id="Trazado_102495" data-name="Trazado 102495" d="M1223.62,546.493a.315.315,0,0,1-.08-.62,25.5,25.5,0,0,1,5.844-.806.315.315,0,0,1-.008.63h-.007a24.79,24.79,0,0,0-5.669.785A.318.318,0,0,1,1223.62,546.493Z" transform="translate(-1213.427 -536.863)" fill="url(#linear-gradient-16)"/>
    </g>
    <g id="Grupo_53932" data-name="Grupo 53932" transform="translate(355.369 223.708)">
      <g id="Grupo_53927" data-name="Grupo 53927" transform="translate(18.907 19.933)">
        <g id="Grupo_53921" data-name="Grupo 53921" transform="translate(0 17.948)">
          <path id="Trazado_102496" data-name="Trazado 102496" d="M1956.091,938.763a.315.315,0,0,1-.132-.6c.373-.171.75-.354,1.122-.544a.315.315,0,0,1,.287.561c-.379.194-.765.381-1.146.555A.317.317,0,0,1,1956.091,938.763Z" transform="translate(-1912.815 -898.231)" fill="#9391fa"/>
          <path id="Trazado_102497" data-name="Trazado 102497" d="M1699.215,747.283c-.175,0-.341,0-.512,0a.315.315,0,0,1-.31-.32.319.319,0,0,1,.32-.31c.167,0,.339.01.5,0,.682,0,1.374-.024,2.058-.071a.32.32,0,0,1,.336.293.316.316,0,0,1-.293.336C1700.618,747.259,1699.911,747.283,1699.215,747.283Zm-4.69-.364a.345.345,0,0,1-.049,0c-.856-.135-1.718-.308-2.562-.516a.315.315,0,0,1,.151-.612c.827.2,1.671.374,2.509.505a.315.315,0,0,1-.049.627Zm10.931-.281a.315.315,0,0,1-.064-.623c.835-.174,1.67-.386,2.482-.628a.315.315,0,0,1,.181.6c-.828.248-1.681.463-2.533.641A.307.307,0,0,1,1705.455,746.638Zm-17.466-1.518a.308.308,0,0,1-.117-.023c-.8-.322-1.6-.684-2.382-1.074a.315.315,0,0,1,.283-.563c.761.383,1.546.737,2.333,1.053a.315.315,0,0,1-.117.607Zm-5.97-3.208a.315.315,0,0,1-.179-.056c-.712-.492-1.414-1.022-2.085-1.575a.315.315,0,0,1,.4-.486c.658.542,1.345,1.061,2.042,1.543a.315.315,0,0,1-.179.574Zm-5.111-4.448a.314.314,0,0,1-.232-.1c-.588-.639-1.154-1.311-1.684-2a.315.315,0,0,1,.5-.385c.52.672,1.074,1.33,1.65,1.956a.315.315,0,0,1-.232.528Zm-4-5.468a.315.315,0,0,1-.274-.159c-.431-.756-.834-1.537-1.2-2.323a.315.315,0,1,1,.573-.264c.355.769.749,1.534,1.172,2.274a.315.315,0,0,1-.273.471Zm-2.676-6.223a.315.315,0,0,1-.3-.224c-.251-.829-.469-1.68-.648-2.531a.315.315,0,1,1,.617-.13c.176.833.389,1.667.634,2.479a.315.315,0,0,1-.3.406Zm-1.225-6.664a.315.315,0,0,1-.314-.293c-.052-.728-.078-1.466-.078-2.193q0-.21,0-.419a.315.315,0,0,1,.315-.311h0a.316.316,0,0,1,.311.32c0,.137,0,.274,0,.411,0,.712.026,1.434.076,2.148a.315.315,0,0,1-.292.337Zm.276-6.772a.326.326,0,0,1-.048,0,.315.315,0,0,1-.263-.359c.132-.857.3-1.719.509-2.563a.315.315,0,0,1,.613.149c-.2.827-.37,1.672-.5,2.51A.315.315,0,0,1,1669.286,712.337Z" transform="translate(-1668.618 -703.989)" fill="#9391fa"/>
          <path id="Trazado_102498" data-name="Trazado 102498" d="M1683.244,676.333a.31.31,0,0,1-.117-.023.315.315,0,0,1-.176-.409c.156-.392.323-.786.5-1.172a.315.315,0,1,1,.575.257c-.169.379-.333.765-.486,1.148A.316.316,0,0,1,1683.244,676.333Z" transform="translate(-1680.788 -674.542)" fill="#9391fa"/>
        </g>
        <g id="Grupo_53922" data-name="Grupo 53922" transform="translate(18.849)">
          <path id="Trazado_102499" data-name="Trazado 102499" d="M1794.926,567.628a.315.315,0,0,1-.119-.607c.392-.16.792-.313,1.189-.456a.315.315,0,0,1,.213.594c-.389.14-.781.29-1.164.446A.313.313,0,0,1,1794.926,567.628Z" transform="translate(-1794.611 -564.755)" fill="#9391fa"/>
          <path id="Trazado_102500" data-name="Trazado 102500" d="M1864.742,594.11a.312.312,0,0,1-.09-.013.316.316,0,0,1-.213-.392c.238-.8.443-1.623.613-2.442a.315.315,0,1,1,.617.127c-.173.837-.383,1.676-.626,2.494A.316.316,0,0,1,1864.742,594.11Zm1.175-6.564h-.021a.315.315,0,0,1-.294-.335c.043-.654.065-1.318.065-1.975q0-.272,0-.543a.315.315,0,0,1,.309-.321h.006a.315.315,0,0,1,.315.309q0,.278,0,.555c0,.67-.022,1.348-.067,2.016A.315.315,0,0,1,1865.917,587.545Zm-.293-6.662a.315.315,0,0,1-.311-.267c-.128-.827-.291-1.658-.487-2.47a.315.315,0,0,1,.613-.147c.2.829.366,1.677.5,2.521a.315.315,0,0,1-.312.363Zm-1.729-6.438a.315.315,0,0,1-.293-.2c-.3-.778-.646-1.554-1.016-2.3a.315.315,0,0,1,.566-.278c.377.766.726,1.557,1.038,2.352a.315.315,0,0,1-.294.43Zm-3.1-5.9a.315.315,0,0,1-.261-.138c-.468-.692-.972-1.373-1.5-2.024a.315.315,0,1,1,.491-.4c.536.665,1.051,1.36,1.529,2.066a.315.315,0,0,1-.261.492Zm-4.32-5.077a.312.312,0,0,1-.216-.086c-.608-.573-1.248-1.128-1.9-1.649a.315.315,0,0,1,.393-.493c.668.532,1.322,1.1,1.942,1.684a.315.315,0,0,1-.216.544Zm-5.324-4.016a.312.312,0,0,1-.161-.044c-.717-.427-1.462-.829-2.216-1.2a.315.315,0,1,1,.276-.567c.769.374,1.53.785,2.263,1.221a.315.315,0,0,1-.162.586Zm-6.071-2.759a.31.31,0,0,1-.1-.016c-.8-.26-1.612-.489-2.425-.68a.315.315,0,1,1,.145-.614c.83.2,1.662.43,2.476.7a.315.315,0,0,1-.1.615Zm-15.708-.827a.315.315,0,0,1-.065-.624c.831-.176,1.684-.319,2.535-.427a.319.319,0,0,1,.352.273.315.315,0,0,1-.273.352c-.834.106-1.67.246-2.484.419A.319.319,0,0,1,1829.371,555.869Zm9.177-.531-.03,0c-.831-.078-1.677-.122-2.514-.13a.315.315,0,0,1,0-.63h0c.855.008,1.719.053,2.568.133a.315.315,0,0,1-.029.629Z" transform="translate(-1823.903 -554.576)" fill="#9391fa"/>
          <path id="Trazado_102501" data-name="Trazado 102501" d="M2052.461,842.394a.31.31,0,0,1-.142-.034.315.315,0,0,1-.139-.423c.187-.371.368-.749.538-1.125a.315.315,0,0,1,.574.26c-.174.383-.359.769-.55,1.148A.315.315,0,0,1,2052.461,842.394Z" transform="translate(-2013.618 -797.832)" fill="#9391fa"/>
        </g>
        <g id="Grupo_53926" data-name="Grupo 53926" transform="translate(6.926 7.187)">
          <g id="Grupo_53923" data-name="Grupo 53923">
            <path id="Trazado_102502" data-name="Trazado 102502" d="M1757.919,639.056a.364.364,0,0,0,.034-.421l-2.273-3.8a19.291,19.291,0,0,0,1.889-5.955l4.043-1.8a.364.364,0,0,0,.215-.364l-.455-5.29a.364.364,0,0,0-.274-.321l-4.291-1.078a19.284,19.284,0,0,0-2.879-5.545l1.591-4.131a.364.364,0,0,0-.105-.409l-4.063-3.419a.364.364,0,0,0-.421-.034l-3.8,2.273a19.284,19.284,0,0,0-5.955-1.889l-1.8-4.043a.364.364,0,0,0-.364-.215l-5.29.455a.364.364,0,0,0-.322.274l-1.078,4.291a19.283,19.283,0,0,0-5.545,2.879l-4.131-1.59a.363.363,0,0,0-.409.105l-3.419,4.063a.364.364,0,0,0-.034.421l2.273,3.8a19.282,19.282,0,0,0-1.889,5.955l-4.043,1.8a.363.363,0,0,0-.215.364l.455,5.29a.364.364,0,0,0,.274.322l4.291,1.078a19.278,19.278,0,0,0,2.879,5.545l-1.591,4.131a.363.363,0,0,0,.105.409l4.063,3.419a.364.364,0,0,0,.421.034l3.8-2.273a19.283,19.283,0,0,0,5.955,1.889l1.8,4.043a.364.364,0,0,0,.364.215l5.29-.455a.364.364,0,0,0,.322-.274l1.078-4.29a19.284,19.284,0,0,0,5.545-2.879l4.131,1.59a.364.364,0,0,0,.409-.105Z" transform="translate(-1714.914 -602.619)" fill="#9391fa"/>
          </g>
          <g id="Grupo_53924" data-name="Grupo 53924" transform="translate(18.425 18.425)">
            <path id="Trazado_102503" data-name="Trazado 102503" d="M1843.105,735.837a5.032,5.032,0,1,1,1.64-.277A5.039,5.039,0,0,1,1843.105,735.837Zm0-9.432a4.4,4.4,0,1,0,4.154,2.963h0a4.407,4.407,0,0,0-4.154-2.963Z" transform="translate(-1838.068 -725.774)" fill="#bfbdfb"/>
          </g>
          <g id="Grupo_53925" data-name="Grupo 53925" transform="translate(10.236 10.262)">
            <path id="Trazado_102504" data-name="Trazado 102504" d="M1796.455,697.474a13.145,13.145,0,0,1-13.07-12q-.05-.576-.05-1.147a13.128,13.128,0,0,1,26.208-1.1q.049.569.049,1.14a13.1,13.1,0,0,1-.1,1.655.315.315,0,0,1-.628-.039c0-.013,0-.026,0-.04a12.479,12.479,0,0,0,.1-1.576q0-.542-.047-1.085c-.014-.162-.031-.323-.051-.483a12.5,12.5,0,0,0-24.9,1.534q0,.544.047,1.092a12.5,12.5,0,0,0,19.764,9.065.315.315,0,0,1,.369.511,13.112,13.112,0,0,1-6.557,2.432C1797.21,697.458,1796.83,697.474,1796.455,697.474Z" transform="translate(-1783.336 -671.216)" fill="#bfbdfb"/>
          </g>
        </g>
      </g>
      <g id="Grupo_53928" data-name="Grupo 53928" transform="translate(3.121 3.116)">
        <path id="Trazado_102505" data-name="Trazado 102505" d="M1587.727,461.444l-1.438-2.021a10.81,10.81,0,0,0,.791-3.41l2.179-1.182a.2.2,0,0,0,.1-.213l-.489-2.934a.2.2,0,0,0-.167-.167l-2.444-.412a10.8,10.8,0,0,0-1.854-2.969l.7-2.378a.2.2,0,0,0-.077-.224l-2.421-1.729a.2.2,0,0,0-.237,0l-2.021,1.438a10.8,10.8,0,0,0-3.41-.791l-1.182-2.179a.2.2,0,0,0-.213-.1l-2.935.489a.2.2,0,0,0-.167.167l-.412,2.444a10.8,10.8,0,0,0-2.969,1.854l-2.378-.7a.2.2,0,0,0-.224.077l-1.729,2.421a.2.2,0,0,0,0,.237l1.438,2.021a10.8,10.8,0,0,0-.791,3.41l-2.179,1.182a.2.2,0,0,0-.1.213l.489,2.935a.2.2,0,0,0,.167.167l2.444.412a10.8,10.8,0,0,0,1.854,2.969l-.7,2.378a.2.2,0,0,0,.077.224l2.421,1.729a.2.2,0,0,0,.237,0l2.021-1.438a10.8,10.8,0,0,0,3.41.791l1.182,2.179a.2.2,0,0,0,.213.1l2.934-.489a.2.2,0,0,0,.167-.167l.412-2.444a10.8,10.8,0,0,0,2.969-1.854l2.378.7a.2.2,0,0,0,.224-.077l1.729-2.421A.2.2,0,0,0,1587.727,461.444Z" transform="translate(-1563.1 -442.167)" fill="#9391fa"/>
      </g>
      <g id="Grupo_53929" data-name="Grupo 53929" transform="translate(13.295 13.289)">
        <path id="Trazado_102506" data-name="Trazado 102506" d="M1634.063,516.087a2.958,2.958,0,1,1,2.708-4.143h0a2.96,2.96,0,0,1-2.708,4.144Zm0-5.286a2.328,2.328,0,1,0,2.132,1.4h0a2.333,2.333,0,0,0-2.132-1.4Z" transform="translate(-1631.104 -510.171)" fill="#bfbdfb"/>
      </g>
      <g id="Grupo_53930" data-name="Grupo 53930" transform="translate(0 13.94)">
        <path id="Trazado_102507" data-name="Trazado 102507" d="M1716.771,606.083a.315.315,0,0,1-.2-.559c.317-.26.627-.536.923-.821a.315.315,0,0,1,.437.454c-.307.3-.63.583-.96.854A.314.314,0,0,1,1716.771,606.083Z" transform="translate(-1690.391 -591.137)" fill="#bfbdfb"/>
        <path id="Trazado_102508" data-name="Trazado 102508" d="M1560.368,563.193a16.312,16.312,0,0,1-2.153-.144.315.315,0,0,1,.084-.625,15.364,15.364,0,0,0,2.436.133.311.311,0,0,1,.323.307.315.315,0,0,1-.307.323Q1560.559,563.193,1560.368,563.193Zm4.366-.614a.315.315,0,0,1-.086-.618,15.8,15.8,0,0,0,1.979-.713q.155-.068.307-.138a.315.315,0,1,1,.265.572q-.159.074-.32.144a16.348,16.348,0,0,1-2.058.742A.326.326,0,0,1,1564.734,562.579Zm-10.379-.564a.318.318,0,0,1-.119-.023,16.452,16.452,0,0,1-2.269-1.135.315.315,0,0,1,.325-.54,15.769,15.769,0,0,0,2.182,1.091.315.315,0,0,1-.119.607Zm-5.394-3.614a.314.314,0,0,1-.225-.095,16.226,16.226,0,0,1-1.628-1.947.315.315,0,1,1,.514-.365,15.54,15.54,0,0,0,1.564,1.871.315.315,0,0,1-.225.536Zm-3.5-5.47a.315.315,0,0,1-.294-.2,16.269,16.269,0,0,1-.72-2.434.315.315,0,1,1,.617-.131,15.692,15.692,0,0,0,.692,2.34.315.315,0,0,1-.294.428Z" transform="translate(-1544.109 -544.618)" fill="#bfbdfb"/>
        <path id="Trazado_102509" data-name="Trazado 102509" d="M1542.551,516.4h-.015a.315.315,0,0,1-.3-.33c.02-.428.058-.859.111-1.28a.315.315,0,1,1,.625.079c-.051.4-.087.818-.107,1.23A.315.315,0,0,1,1542.551,516.4Z" transform="translate(-1542.236 -514.518)" fill="#bfbdfb"/>
      </g>
      <g id="Grupo_53931" data-name="Grupo 53931" transform="translate(5.875)">
        <path id="Trazado_102510" data-name="Trazado 102510" d="M1581.823,441.418a.315.315,0,0,1-.2-.56c.332-.269.678-.528,1.029-.77a.315.315,0,0,1,.357.52c-.338.232-.671.481-.99.739A.314.314,0,0,1,1581.823,441.418Z" transform="translate(-1581.507 -437.236)" fill="#bfbdfb"/>
        <path id="Trazado_102511" data-name="Trazado 102511" d="M1633.429,435.394a.315.315,0,0,1-.311-.265,15.708,15.708,0,0,0-.561-2.333.315.315,0,0,1,.6-.194,16.271,16.271,0,0,1,.583,2.427.315.315,0,0,1-.261.361A.3.3,0,0,1,1633.429,435.394Zm-2.249-5.98a.315.315,0,0,1-.267-.148,15.553,15.553,0,0,0-1.427-1.928.315.315,0,1,1,.476-.413,16.247,16.247,0,0,1,1.485,2.007.315.315,0,0,1-.267.482Zm-4.412-4.617a.315.315,0,0,1-.179-.056,15.792,15.792,0,0,0-2.071-1.211.315.315,0,0,1,.276-.567,16.372,16.372,0,0,1,2.155,1.259.315.315,0,0,1-.18.574Zm-14.615-1.857a.315.315,0,0,1-.109-.611,16.3,16.3,0,0,1,2.4-.685.315.315,0,0,1,.126.617,15.721,15.721,0,0,0-2.308.658A.308.308,0,0,1,1612.153,422.94Zm8.743-.659a.33.33,0,0,1-.064-.006,15.635,15.635,0,0,0-2.38-.3.316.316,0,0,1-.3-.331.325.325,0,0,1,.331-.3,16.305,16.305,0,0,1,2.476.317.315.315,0,0,1-.064.624Z" transform="translate(-1607.3 -421.34)" fill="#bfbdfb"/>
        <path id="Trazado_102512" data-name="Trazado 102512" d="M1754.117,539.57a.326.326,0,0,1-.054,0,.315.315,0,0,1-.256-.365c.071-.406.126-.818.164-1.224a.315.315,0,1,1,.628.058c-.039.422-.1.851-.17,1.273A.315.315,0,0,1,1754.117,539.57Z" transform="translate(-1728.025 -520.284)" fill="#bfbdfb"/>
      </g>
      <path id="Trazado_102513" data-name="Trazado 102513" d="M1607.9,494.616a7.494,7.494,0,1,1,7.4-8.727h0c.008.045.015.091.022.136a7.548,7.548,0,0,1,.077,1.379c0,.026,0,.052,0,.078a.315.315,0,0,1-.63-.015s0-.01,0-.015q.007-.159.007-.319a6.93,6.93,0,0,0-.094-1.14,6.864,6.864,0,0,0-13.635,1.126,6.865,6.865,0,0,0,11.309,5.234.315.315,0,0,1,.409.48,7.511,7.511,0,0,1-4.857,1.783Z" transform="translate(-1591.709 -470.906)" fill="#bfbdfb"/>
    </g>
    <path id="Trazado_102514" data-name="Trazado 102514" d="M1157.116,784.112v-.057h-.069a21.132,21.132,0,0,0-27.126,0l-.072,0v.058a21.182,21.182,0,1,0,27.264-.005Zm5.3,23.183-4.516-.04a26.967,26.967,0,0,0,.921-6.6l4.7-.03.138,0A20.069,20.069,0,0,1,1162.418,807.3Zm-39.1-6.663,3.756.028a28.132,28.132,0,0,0,.233,3.193,25.874,25.874,0,0,0,.691,3.412l-2.95.019-.487.018A20.072,20.072,0,0,1,1123.317,800.633Zm1.442-7.819.069.07,3.291.027c-.03.1-.064.2-.093.306a25.8,25.8,0,0,0-.718,3.5,28,28,0,0,0-.227,2.794l-3.635.021-.118,0A20.041,20.041,0,0,1,1124.759,792.813Zm31.755,14.435-7.14-.022c.213-2.063.323-4.228.338-6.529l3.793-.007,3.959-.025a25.577,25.577,0,0,1-.875,6.33C1156.565,807.081,1156.538,807.164,1156.514,807.248Zm.079-13.671a25.479,25.479,0,0,1,.865,5.922l-7.752-.022a60.54,60.54,0,0,0-.427-6.529l3.426-.007,3.694-.025C1156.465,793.135,1156.531,793.354,1156.592,793.577Zm-9.947,21.047h-6.211a8.9,8.9,0,0,1-.352-1.112c-.2-.824-.382-1.589-.545-2.525-.148-.854-.275-1.683-.384-2.587l4.332.034,4.441,0q-.159,1.316-.371,2.551c-.162.941-.338,1.62-.539,2.439A8.631,8.631,0,0,1,1146.646,814.625Zm-3.162-7.415-4.463.008c-.047-.479-.09-.967-.127-1.467-.122-1.639-.183-3.337-.186-5.053l4.778.012,4.906-.009c-.009,1.689-.073,3.358-.2,4.965-.04.534-.086,1.05-.137,1.558Zm-4.466-14.261,4.469.012,4.5-.009c.074.638.142,1.287.2,1.964.123,1.482.19,3.012.206,4.559l-4.9-.014-4.776.008c.011-1.618.059-3.094.148-4.483C1138.9,794.283,1138.956,793.61,1139.018,792.948Zm6.88-8.973-2.413-.012-2.687.005c.1-.256.193-.5.294-.722a8.556,8.556,0,0,1,.59-1.122,3.788,3.788,0,0,1,.752-.9,1.662,1.662,0,0,1,.428-.266,1.045,1.045,0,0,1,.4-.082h.03a1.128,1.128,0,0,1,.433.108,2.022,2.022,0,0,1,.44.284,4.3,4.3,0,0,1,.782.9A10.524,10.524,0,0,1,1145.9,783.975Zm-5.514,1.231,3.1.006,2.878-.008c.19.554.369,1.142.54,1.787.218.828.408,1.68.582,2.606.13.692.242,1.4.344,2.128l-4.345-.013-4.339.008c.081-.707.17-1.4.275-2.076.146-.943.308-1.8.493-2.628C1140.061,786.361,1140.217,785.765,1140.384,785.206Zm6.8-1.224a12.576,12.576,0,0,0-1.287-2.477c-.093-.133-.185-.255-.278-.37.2.049.393.1.587.156a12.3,12.3,0,0,1,3,1.391,13.945,13.945,0,0,1,1.727,1.318Zm-6.481-2.49a9.783,9.783,0,0,0-.686,1.269c-.169.368-.329.766-.489,1.21h-.288q-1.153,0-2.3.009L1135,784a13.9,13.9,0,0,1,1.71-1.307,12.332,12.332,0,0,1,3-1.394,11.372,11.372,0,0,1,1.376-.324A6.388,6.388,0,0,0,1140.705,781.492Zm-1.188,34.708a1.4,1.4,0,0,0,.171.469,12.343,12.343,0,0,0,1.264,2.553c.1.145.2.274.3.4a11.353,11.353,0,0,1-1.532-.356,12.336,12.336,0,0,1-2.992-1.379,15.7,15.7,0,0,1-2.134-1.685Zm3.87,3.544a1.076,1.076,0,0,1-.24-.066,1.7,1.7,0,0,1-.423-.26,3.913,3.913,0,0,1-.765-.882,11.077,11.077,0,0,1-1.114-2.3c-.005-.014-.01-.034-.015-.034h5.422a11.579,11.579,0,0,1-1.085,2.278,4.129,4.129,0,0,1-.756.9,1.861,1.861,0,0,1-.424.279,1.223,1.223,0,0,1-.2.07C1143.653,819.739,1143.52,819.739,1143.387,819.745Zm2.8-.607a12.7,12.7,0,0,0,1.243-2.552c.048-.129.093-.386.14-.386h3.775a15.875,15.875,0,0,1-2.142,1.689,12.382,12.382,0,0,1-3,1.382c-.044.014-.089.02-.134.033C1146.107,819.25,1146.145,819.2,1146.183,819.138Zm2.932-27.409c-.118-.8-.25-1.591-.4-2.37-.19-.958-.4-1.837-.631-2.688-.144-.521-.293-1.007-.448-1.471l2.4-.007,2.091-.017a17.773,17.773,0,0,1,1.742,2.245,20.928,20.928,0,0,1,2.144,4.328Zm-12.178-6.534c.731.006,1.463.007,2.194.008-.142.482-.277.99-.407,1.536-.2.85-.377,1.734-.538,2.705-.123.74-.229,1.5-.324,2.278l-3.6.007-4.342.028a20.881,20.881,0,0,1,2.139-4.327,17.8,17.8,0,0,1,1.749-2.258Zm-7.28,7.728,8.067.022c-.065.634-.125,1.279-.174,1.952-.066.894-.117,1.815-.152,2.737-.02.557-.039,1.185-.047,1.838l-3.886.007-4.984.029c.027-.877.1-1.75.206-2.6a25.023,25.023,0,0,1,.656-3.321c.061-.223.127-.442.193-.661Zm-.31,14.069a25.014,25.014,0,0,1-.658-3.321,26.651,26.651,0,0,1-.216-3l8.877.023c.016,1.751.091,3.486.229,5.16.038.465.081.919.127,1.366l-3.441.006-4.84.031C1129.4,807.168,1129.372,807.081,1129.347,806.991Zm8.5,1.451c.122.984.265,1.934.433,2.861.177.967.368,1.67.584,2.519.088.342.178.8.271.8h-5.682a5.9,5.9,0,0,1-1.384-1.664,20.376,20.376,0,0,1-2.28-4.631Zm10.1,6.182c.1-.315.2-.514.292-.887.215-.851.4-1.7.579-2.665.162-.906.3-1.805.416-2.751h3.471l3.442.035a19.966,19.966,0,0,1-2.289,4.582,6.074,6.074,0,0,1-1.381,1.686Zm10.866-15.12a26.847,26.847,0,0,0-.942-6.285c-.03-.106-.064-.209-.095-.313l4.143-.029.32-.008a20.048,20.048,0,0,1,1.408,6.673Zm-4.318-15.486-1.785-.009c-.023-.023-.044-.048-.067-.071a15.983,15.983,0,0,0-2.806-2.264,13.828,13.828,0,0,0-2.179-1.107,20.089,20.089,0,0,1,7.733,3.463Zm-18.42-2.349a15.959,15.959,0,0,0-2.809,2.262c-.025.025-.049.052-.073.078l-.689.005-.912.011a20.139,20.139,0,0,1,5.1-2.711C1136.483,781.428,1136.277,781.544,1136.076,781.67Zm-5.019,34.531h1.756c.147.315.294.309.445.461a15.97,15.97,0,0,0,2.81,2.261c.241.151.486.29.732.425a20.131,20.131,0,0,1-5.753-3.156S1131.054,816.2,1131.057,816.2Zm18.789,2.712a15.974,15.974,0,0,0,2.806-2.258c.148-.15.293-.139.437-.454h2.837a20.2,20.2,0,0,1-8.4,3.892A13.892,13.892,0,0,0,1149.846,818.912Zm11.928-27.119-4.371-.038a22.313,22.313,0,0,0-2.492-5.031,19.38,19.38,0,0,0-1.164-1.561l.649-.005c.728-.008,1.457-.016,2.176-.028l.182,0A20.282,20.282,0,0,1,1161.774,791.793Zm-31.563-6.659.179,0c.59.01,1.179.015,1.769.021a19.423,19.423,0,0,0-1.165,1.558,22.357,22.357,0,0,0-2.5,5.05l-3.287.021A20.279,20.279,0,0,1,1130.211,785.134ZM1125,808.382l3.347.027a21.263,21.263,0,0,0,2.639,5.277,8.2,8.2,0,0,0,.814.939h-.742c-.329,0-.6.448-.6.778a1.674,1.674,0,0,0,.016.224A19.967,19.967,0,0,1,1125,808.382Zm32.311,6.429c-.026,0-.051-.187-.078-.187h-3.13a8.022,8.022,0,0,0,.818-.947,21.835,21.835,0,0,0,2.631-5.361l4.367.015.06-.069A19.987,19.987,0,0,1,1157.31,814.812Z" transform="translate(-829.76 -501.893)" fill="url(#linear-gradient-16)"/>
    <g id="Grupo_53933" data-name="Grupo 53933" transform="translate(352.143 305.133)">
      <path id="Trazado_102515" data-name="Trazado 102515" d="M1563.81,1017.03a2.016,2.016,0,0,1-2.012-2.016V1000.05a.315.315,0,0,1,.63,0v14.964a1.386,1.386,0,0,0,1.468,1.383l17.733-1.056a1.388,1.388,0,0,0,1.3-1.384V999.266a1.386,1.386,0,0,0-1.523-1.379l-14.751,1.461a1.386,1.386,0,0,0-.986,2.193l5.626,7.764a1.372,1.372,0,0,0,1.111.573,1.387,1.387,0,0,0,1.12-.554l6.2-8.257a.315.315,0,0,1,.5.378l-6.2,8.257a2,2,0,0,1-1.612.806h-.018a2,2,0,0,1-1.616-.833l-5.626-7.765a2.016,2.016,0,0,1,1.434-3.19l14.751-1.461a2.016,2.016,0,0,1,2.215,2.006v14.692a2.019,2.019,0,0,1-1.9,2.013l-17.733,1.056Q1563.872,1017.03,1563.81,1017.03Z" transform="translate(-1555.645 -992.516)" fill="url(#linear-gradient-16)"/>
      <path id="Trazado_102516" data-name="Trazado 102516" d="M1550.178,995.977H1525.9a4.549,4.549,0,0,1-4.562-4.4l-.664-18.654a4.58,4.58,0,0,1,4.078-4.7l24.272-2.589a4.565,4.565,0,0,1,5.047,4.4l.669,21.244a4.564,4.564,0,0,1-4.562,4.708Zm-.657-29.429a3.7,3.7,0,0,0-.4.021l-24.272,2.589a3.631,3.631,0,0,0-3.233,3.728l.664,18.654a3.607,3.607,0,0,0,3.617,3.491h24.277a3.619,3.619,0,0,0,3.618-3.734l-.669-21.244a3.621,3.621,0,0,0-3.606-3.506Z" transform="translate(-1520.672 -965.604)" fill="url(#linear-gradient-28)"/>
    </g>
    <g id="Grupo_53934" data-name="Grupo 53934" transform="translate(342.379 263.61)">
      <path id="Trazado_102517" data-name="Trazado 102517" d="M1469.514,710.788a57.1,57.1,0,0,1-9.964-.768c-2.607-.53-3.05-1.15-3.156-1.57-.529-2.1-2.243-17.828.637-20.317a.305.305,0,0,1,.217-.076c3.852.137,23.133.9,24.409,2.579,1.386,1.82-2.386,17.227-3.689,18.946C1477.327,710.427,1473.614,710.788,1469.514,710.788Zm-12.157-22.1c-2.369,2.424-.966,17.172-.352,19.6.025.1.271.619,2.67,1.107a56.216,56.216,0,0,0,10.678.761c4.432-.062,6.793-.543,7.111-.962.6-.789,1.808-4.83,2.753-9.2,1.189-5.494,1.327-8.471.936-8.985C1480.314,689.915,1466.17,689.008,1457.357,688.691Z" transform="translate(-1455.404 -688.056)" fill="url(#linear-gradient-16)"/>
      <path id="Trazado_102518" data-name="Trazado 102518" d="M1488.775,778.989h-1.66a.315.315,0,0,1-.315-.315v-4.966a.315.315,0,0,1,.315-.315h1.66a.315.315,0,0,1,.315.315v4.966A.315.315,0,0,1,1488.775,778.989Zm-1.344-.63h1.029v-4.335h-1.029Z" transform="translate(-1482.103 -760.626)" fill="url(#linear-gradient-16)"/>
      <path id="Trazado_102519" data-name="Trazado 102519" d="M1507.182,760.622h-2.269a.315.315,0,0,1-.315-.315v-8.2a.315.315,0,0,1,.315-.315h2.269a.315.315,0,0,1,.315.315v8.2A.315.315,0,0,1,1507.182,760.622Zm-1.953-.63h1.638v-7.567h-1.638Z" transform="translate(-1497.238 -742.259)" fill="url(#linear-gradient-16)"/>
      <path id="Trazado_102520" data-name="Trazado 102520" d="M1530.757,750.763h-3.149a.315.315,0,0,1-.315-.315v-9.932a.315.315,0,0,1,.315-.315h3.149a.315.315,0,0,1,.315.315v9.932A.315.315,0,0,1,1530.757,750.763Zm-2.834-.63h2.519v-9.3h-2.519Z" transform="translate(-1516.538 -732.4)" fill="url(#linear-gradient-16)"/>
      <path id="Trazado_102521" data-name="Trazado 102521" d="M1565.326,738.917h-3.771a.315.315,0,0,1-.315-.315V726.586a.315.315,0,0,1,.315-.315h3.771a.315.315,0,0,1,.315.315V738.6A.315.315,0,0,1,1565.326,738.917Zm-3.456-.63h3.141V726.9h-3.141Z" transform="translate(-1545.406 -720.554)" fill="url(#linear-gradient-16)"/>
    </g>
    <g id="Grupo_53935" data-name="Grupo 53935" transform="translate(382.748 338.848)">
      <path id="Trazado_102522" data-name="Trazado 102522" d="M1780.18,1195.062h-52.887a2.046,2.046,0,0,1-2.046-2.046h0a2.046,2.046,0,0,1,2.046-2.047h52.887a2.046,2.046,0,0,1,2.046,2.047h0A2.046,2.046,0,0,1,1780.18,1195.062Z" transform="translate(-1725.247 -1190.969)" fill="#877df4"/>
      <path id="Trazado_102523" data-name="Trazado 102523" d="M1822.655,1248.645h-52.886a2.046,2.046,0,0,1-2.047-2.047h0a2.046,2.046,0,0,1,2.047-2.046h52.886a2.046,2.046,0,0,1,2.046,2.046h0A2.046,2.046,0,0,1,1822.655,1248.645Z" transform="translate(-1761.367 -1236.536)" fill="#877df4"/>
      <path id="Trazado_102524" data-name="Trazado 102524" d="M1807.616,1355.811h-37.847a2.047,2.047,0,0,1-2.047-2.047h0a2.046,2.046,0,0,1,2.047-2.046h37.847a2.046,2.046,0,0,1,2.046,2.046h0A2.047,2.047,0,0,1,1807.616,1355.811Z" transform="translate(-1761.367 -1327.669)" fill="#877df4"/>
      <path id="Trazado_102525" data-name="Trazado 102525" d="M1862.3,1302.228h-52.886a2.046,2.046,0,0,1-2.046-2.046h0a2.046,2.046,0,0,1,2.046-2.046H1862.3a2.047,2.047,0,0,1,2.047,2.046h0A2.046,2.046,0,0,1,1862.3,1302.228Z" transform="translate(-1795.081 -1282.102)" fill="#877df4"/>
    </g>
    <g id="Grupo_53936" data-name="Grupo 53936" transform="translate(178.967 271.968)">
      <path id="Trazado_102526" data-name="Trazado 102526" d="M418.051,748.017H365.164a2.047,2.047,0,0,1-2.046-2.047h0a2.047,2.047,0,0,1,2.046-2.046h52.886a2.046,2.046,0,0,1,2.046,2.046h0A2.046,2.046,0,0,1,418.051,748.017Z" transform="translate(-363.118 -743.924)" fill="#877df4"/>
      <path id="Trazado_102527" data-name="Trazado 102527" d="M460.527,801.6H407.64a2.046,2.046,0,0,1-2.046-2.047h0a2.046,2.046,0,0,1,2.046-2.046h52.886a2.047,2.047,0,0,1,2.046,2.046h0A2.047,2.047,0,0,1,460.527,801.6Z" transform="translate(-399.239 -789.491)" fill="#877df4"/>
      <path id="Trazado_102528" data-name="Trazado 102528" d="M445.488,908.766H407.64a2.047,2.047,0,0,1-2.046-2.047h0a2.046,2.046,0,0,1,2.046-2.046h37.847a2.046,2.046,0,0,1,2.046,2.046h0A2.046,2.046,0,0,1,445.488,908.766Z" transform="translate(-399.239 -880.624)" fill="#877df4"/>
      <path id="Trazado_102529" data-name="Trazado 102529" d="M500.171,855.183H447.284a2.046,2.046,0,0,1-2.046-2.046h0a2.046,2.046,0,0,1,2.046-2.046h52.887a2.046,2.046,0,0,1,2.046,2.046h0A2.046,2.046,0,0,1,500.171,855.183Z" transform="translate(-432.952 -835.057)" fill="#877df4"/>
    </g>
    <g id="Grupo_53949" data-name="Grupo 53949" transform="translate(178.201 225.525)">
      <g id="Grupo_53948" data-name="Grupo 53948">
        <g id="Grupo_53946" data-name="Grupo 53946" transform="translate(32.457)">
          <g id="Grupo_53942" data-name="Grupo 53942" transform="translate(0 11.206)">
            <g id="Grupo_53937" data-name="Grupo 53937" transform="translate(15.298 56.697)">
              <path id="Trazado_102530" data-name="Trazado 102530" d="M684.67,917.756c-1.315.114-3.6.3-5.395.377a5.193,5.193,0,0,1-2.062-.2c0,.04,0,.079,0,.114a.372.372,0,0,0,.353.351,63.15,63.15,0,0,0,7.064.007.265.265,0,0,0,.216-.4A2.175,2.175,0,0,0,684.67,917.756Z" transform="translate(-677.213 -913.21)" fill="url(#linear-gradient-34)"/>
              <path id="Trazado_102531" data-name="Trazado 102531" d="M679.273,903.044c1.8-.079,4.08-.264,5.395-.377-1.292-1.586-5.395-2.655-5.395-2.655h-1.159a4.859,4.859,0,0,0-.9,2.83A5.191,5.191,0,0,0,679.273,903.044Z" transform="translate(-677.21 -898.12)" fill="url(#linear-gradient-35)"/>
              <path id="Trazado_102532" data-name="Trazado 102532" d="M681.949,887.368l.108,2.146a.49.49,0,0,0,.418.461,1.907,1.907,0,0,0,.87-.072.58.58,0,0,0,.39-.446l.375-2.089Z" transform="translate(-681.24 -887.368)" fill="url(#linear-gradient-36)"/>
            </g>
            <g id="Grupo_53939" data-name="Grupo 53939" transform="translate(0 54.691)">
              <g id="Grupo_53938" data-name="Grupo 53938" transform="translate(0 1.991)">
                <path id="Trazado_102533" data-name="Trazado 102533" d="M575.911,916.235a1.041,1.041,0,0,1-.936-.692l0,.009a.741.741,0,0,0,.5.845,3.263,3.263,0,0,0,1.382.216,1.374,1.374,0,0,0,1.037-.478l0,0A3.479,3.479,0,0,1,575.911,916.235Z" transform="translate(-574.953 -911.314)" fill="url(#linear-gradient-37)"/>
                <path id="Trazado_102534" data-name="Trazado 102534" d="M578.721,887.275h-.956c-1.455-.03-2.37,3.04-2.669,4.229a1.041,1.041,0,0,0,.936.692,3.479,3.479,0,0,0,1.983-.1,9.131,9.131,0,0,0,1.364-3.435A1.206,1.206,0,0,0,578.721,887.275Z" transform="translate(-575.076 -887.274)" fill="url(#linear-gradient-35)"/>
              </g>
              <path id="Trazado_102535" data-name="Trazado 102535" d="M590.642,873.965l-.531,2.11a.573.573,0,0,0,.3.649,2.033,2.033,0,0,0,1.1.266.478.478,0,0,0,.39-.319l.779-2.22Z" transform="translate(-587.829 -873.965)" fill="url(#linear-gradient-36)"/>
            </g>
            <path id="Trazado_102536" data-name="Trazado 102536" d="M589.525,707.486c.66.586,2.807.663,2.807.663,7.734-18.563,10.9-21.2,10.9-21.2-1.117,7.007-.18,22.519-.18,22.519a4.641,4.641,0,0,0,2.922,0,119.564,119.564,0,0,1,3.95-29.362c-5.228-.117-8.008-1.906-8.915-2.624C596.649,684.506,589.525,707.486,589.525,707.486Z" transform="translate(-587.345 -652.185)" fill="url(#linear-gradient-40)"/>
            <path id="Trazado_102537" data-name="Trazado 102537" d="M664.835,534.061c-.989,4.935-.635,13.769-.4,17.8a7.973,7.973,0,0,1-1.364,3.773.336.336,0,0,0,.136.473,23.3,23.3,0,0,0,8.895,2.466.6.6,0,0,0,.6-.448,116.948,116.948,0,0,1,6.735-19.068C675.442,532.674,664.835,534.061,664.835,534.061Z" transform="translate(-649.846 -530.113)" fill="url(#linear-gradient-41)"/>
            <path id="Trazado_102538" data-name="Trazado 102538" d="M683.259,720.411a.248.248,0,0,1-.211-.376,7.77,7.77,0,0,1,3.067-2.662.248.248,0,1,1,.215.446,7.409,7.409,0,0,0-2.859,2.474A.248.248,0,0,1,683.259,720.411Z" transform="translate(-666.845 -686.087)" fill="url(#linear-gradient-42)"/>
            <g id="Grupo_53940" data-name="Grupo 53940" transform="translate(8.656 3.948)">
              <path id="Trazado_102539" data-name="Trazado 102539" d="M633.662,627.515a16.977,16.977,0,0,0,3.135,7.471l.714-.582a22.049,22.049,0,0,1-.356-7.14A8.547,8.547,0,0,0,633.662,627.515Z" transform="translate(-633.535 -613.35)" fill="url(#linear-gradient-43)"/>
              <path id="Trazado_102540" data-name="Trazado 102540" d="M640.25,540.874l-1.105-6.09s-7.384,5.644-6.206,14.165a8.547,8.547,0,0,1,3.494-.251A11.949,11.949,0,0,1,640.25,540.874Z" transform="translate(-632.811 -534.784)" fill="url(#linear-gradient-44)"/>
            </g>
            <g id="Grupo_53941" data-name="Grupo 53941" transform="translate(26.741 8.943)">
              <path id="Trazado_102541" data-name="Trazado 102541" d="M756.549,568.167l-2.85,6.138c.461,3.706,2.452,5.308,4.6,5.923a13.027,13.027,0,0,1,.957-4C756.512,573.4,756.549,568.167,756.549,568.167Z" transform="translate(-753.699 -568.167)" fill="url(#linear-gradient-45)"/>
              <path id="Trazado_102542" data-name="Trazado 102542" d="M785.392,622.069a13.024,13.024,0,0,0-.957,4c5.727,2.222,7.242-2.087,7.242-2.087l-1.058-.187A6,6,0,0,1,785.392,622.069Z" transform="translate(-779.837 -614.005)" fill="url(#linear-gradient-36)"/>
            </g>
            <path id="Trazado_102543" data-name="Trazado 102543" d="M724.68,509.757l-1.376,5.058a.984.984,0,0,1-1.316.655,19.952,19.952,0,0,1-1.983-.906,1.326,1.326,0,0,1-.468-1.906l2.861-4.266Z" transform="translate(-697.714 -508.393)" fill="url(#linear-gradient-47)"/>
          </g>
          <path id="Trazado_102544" data-name="Trazado 102544" d="M639.863,612.211,604.6,625.044a2.7,2.7,0,0,0-1.534,3.655l.107.235a2.51,2.51,0,0,0,3.338,1.239l34.237-15.838Z" transform="translate(-598.656 -585.473)" fill="url(#linear-gradient-35)"/>
          <g id="Grupo_53943" data-name="Grupo 53943" transform="translate(40.008 1.927)" opacity="0.17">
            <ellipse id="Elipse_4031" data-name="Elipse 4031" cx="17.406" cy="17.092" rx="17.406" ry="17.092" fill="#bfbdfb"/>
          </g>
          <path id="Trazado_102545" data-name="Trazado 102545" d="M848.628,433.487A19.022,19.022,0,1,0,868,452.505,19.2,19.2,0,0,0,848.628,433.487Zm0,35.243a16.228,16.228,0,1,1,16.523-16.225A16.376,16.376,0,0,1,848.628,468.73Z" transform="translate(-791.214 -433.487)" fill="url(#linear-gradient-35)"/>
          <g id="Grupo_53944" data-name="Grupo 53944" transform="translate(39.241 1.15)">
            <path id="Trazado_102546" data-name="Trazado 102546" d="M837.528,461.425a.158.158,0,0,1-.156-.138c-.058-.452-.1-.911-.121-1.366a.158.158,0,0,1,.315-.015c.022.446.062.9.118,1.341a.157.157,0,0,1-.136.176Zm.133-5.318-.028,0a.158.158,0,0,1-.127-.183,17.531,17.531,0,0,1,1.046-3.581h0a18.128,18.128,0,0,1,16.871-11.167,18.379,18.379,0,0,1,9.769,2.792.158.158,0,0,1-.167.267,18.061,18.061,0,0,0-9.6-2.744,17.813,17.813,0,0,0-16.58,10.972h0a17.206,17.206,0,0,0-1.028,3.517A.158.158,0,0,1,837.661,456.107Z" transform="translate(-837.251 -441.173)" fill="#9391fa"/>
          </g>
          <g id="Grupo_53945" data-name="Grupo 53945" transform="translate(23.581 6.01)">
            <path id="Trazado_102547" data-name="Trazado 102547" d="M750.423,487.207c.012.087-1.148,5.772-1.148,5.772l-3.232-.731.3-5.552S750.213,485.753,750.423,487.207Z" transform="translate(-744.028 -484.49)" fill="url(#linear-gradient-50)"/>
            <path id="Trazado_102548" data-name="Trazado 102548" d="M735.893,477.1l-.386,2.91a.4.4,0,0,0,0,.111c.033.228.2,1,.986.783a3.688,3.688,0,0,1,1.814-.237.41.41,0,0,1,.282.474,17.716,17.716,0,0,1-.744,2.649.409.409,0,0,1-.5.242,13.2,13.2,0,0,1-2.849-1.166.41.41,0,0,1-.2-.369c.031-.735.117-2.968.045-3.594-.068-.588-.789-.94-1.1-1.066a.4.4,0,0,1-.224-.225,1.063,1.063,0,0,1,.715-1.55.411.411,0,0,0,.26-.531,1.065,1.065,0,0,1,.6-1.472,1.5,1.5,0,0,1,1.793.432.41.41,0,0,0,.523.062.325.325,0,0,1,.369.013.4.4,0,0,0,.572-.173,1.225,1.225,0,0,1,1.423-.709c1.448.248,1.612,1.853,1.23,2.794s-1.937.582-2.717.108a1.754,1.754,0,0,0-1.7.219A.406.406,0,0,0,735.893,477.1Z" transform="translate(-732.852 -473.66)" fill="url(#linear-gradient-51)"/>
            <path id="Trazado_102549" data-name="Trazado 102549" d="M733.936,502.944s.6-1.668-.016-2.076-1.518-.2-1.318,1.012C732.849,503.382,733.936,502.944,733.936,502.944Z" transform="translate(-732.573 -496.636)" fill="url(#linear-gradient-52)"/>
          </g>
          <path id="Trazado_102550" data-name="Trazado 102550" d="M653.7,673.29l3.333-.272,1.444,1.331s-.342.472-1.409.2a15.285,15.285,0,0,0-2.53-.338s-1.474.664-1.492-.579Z" transform="translate(-641.365 -637.183)" fill="url(#linear-gradient-53)"/>
          <path id="Trazado_102551" data-name="Trazado 102551" d="M828.047,625.764c.288.225,1.276-.245,1.88-.57a.7.7,0,0,0,.336-.822c-.145-.459-.388-1.051-.686-1.125C829.081,623.123,826.859,624.836,828.047,625.764Z" transform="translate(-789.889 -594.852)" fill="url(#linear-gradient-36)"/>
          <path id="Trazado_102552" data-name="Trazado 102552" d="M609.15,697.145a.158.158,0,0,1-.051-.009c-1.392-.481-1.716-1.306-1.742-1.914a2.125,2.125,0,0,1,1.385-2.048l4.233-1.651a.158.158,0,1,1,.115.294l-4.234,1.651a1.81,1.81,0,0,0-1.185,1.741c.032.741.547,1.29,1.53,1.629a.158.158,0,0,1-.052.306Z" transform="translate(-602.507 -652.911)" fill="#9391fa"/>
          <path id="Trazado_102553" data-name="Trazado 102553" d="M653.131,687.211a.158.158,0,0,1-.057-.3l.549-.214a.158.158,0,0,1,.115.294l-.549.214A.157.157,0,0,1,653.131,687.211Z" transform="translate(-641.302 -648.803)" fill="#9391fa"/>
        </g>
        <g id="Grupo_53947" data-name="Grupo 53947" transform="translate(0 73.192)">
          <path id="Trazado_102554" data-name="Trazado 102554" d="M746.391,1000.953a.619.619,0,0,1-.619-.619V926.312a.619.619,0,1,1,1.239,0v74.021A.619.619,0,0,1,746.391,1000.953Z" transform="translate(-687.759 -925.248)" fill="#bfbdfb"/>
          <path id="Trazado_102555" data-name="Trazado 102555" d="M634.216,1000.953a.619.619,0,0,1-.619-.619V926.312a.619.619,0,1,1,1.239,0v74.021A.619.619,0,0,1,634.216,1000.953Z" transform="translate(-592.366 -925.248)" fill="#bfbdfb"/>
          <path id="Trazado_102556" data-name="Trazado 102556" d="M358.618,1001.422a.62.62,0,0,1-.57-.862l31.668-74.491a.619.619,0,0,1,1.14.485l-31.668,74.491A.62.62,0,0,1,358.618,1001.422Z" transform="translate(-357.999 -925.247)" fill="#bfbdfb"/>
          <path id="Trazado_102557" data-name="Trazado 102557" d="M489.368,1001.422a.62.62,0,0,1-.57-.862l31.668-74.491a.619.619,0,1,1,1.14.485l-31.668,74.491A.62.62,0,0,1,489.368,1001.422Z" transform="translate(-469.188 -925.247)" fill="#bfbdfb"/>
          <path id="Trazado_102558" data-name="Trazado 102558" d="M586.484,924.464H557.476a.873.873,0,0,1-.873-.873h0a.873.873,0,0,1,.873-.873h29.009a.873.873,0,0,1,.873.873h0A.873.873,0,0,1,586.484,924.464Z" transform="translate(-526.891 -922.718)" fill="#bfbdfb"/>
          <path id="Trazado_102559" data-name="Trazado 102559" d="M557.548,1003.066H537.929a.619.619,0,0,1,0-1.239h19.619a.619.619,0,1,1,0,1.239Z" transform="translate(-510.484 -989.993)" fill="#bfbdfb"/>
          <rect id="Rectngulo_5362" data-name="Rectngulo 5362" width="19.619" height="1.239" transform="translate(21.425 25.923)" fill="#bfbdfb"/>
          <rect id="Rectngulo_5363" data-name="Rectngulo 5363" width="19.619" height="1.239" transform="translate(15.598 40.012)" fill="#bfbdfb"/>
          <path id="Trazado_102560" data-name="Trazado 102560" d="M437.507,1285.573H417.888a.619.619,0,0,1,0-1.239h19.619a.619.619,0,1,1,0,1.239Z" transform="translate(-408.402 -1230.234)" fill="#bfbdfb"/>
          <path id="Trazado_102561" data-name="Trazado 102561" d="M398.012,1379.742H378.393a.619.619,0,1,1,0-1.239h19.619a.619.619,0,0,1,0,1.239Z" transform="translate(-374.816 -1310.316)" fill="#bfbdfb"/>
        </g>
      </g>
      <path id="Trazado_102562" data-name="Trazado 102562" d="M868.027,505.78l6.416,4.994,12.318-10.1,3.178,3.629-15.5,16.213-9.929-10.876Z" transform="translate(-788.737 -490.626)" fill="url(#linear-gradient-55)"/>
    </g>
    <g id="Grupo_53951" data-name="Grupo 53951" transform="translate(415.93 237.713)">
      <path id="Trazado_102563" data-name="Trazado 102563" d="M1957.478,650.739s-18.317-34.507-6.426-57.56c11.29-21.888,21.662-61.182,12.179-77.276a.622.622,0,0,1,.873-.84c7.927,5.159,30.4,23.366,10.845,54.162C1951.608,605.984,1943.828,602.532,1957.478,650.739Z" transform="translate(-1947.039 -514.956)" fill="#bfbdfb"/>
      <g id="Grupo_53950" data-name="Grupo 53950" transform="translate(5.579 30.848)">
        <path id="Trazado_102564" data-name="Trazado 102564" d="M1991.588,825.926c.008.073-.1.092-.133.025-1.181-2.829-11.16-27.576-5.284-42.361,5.928-14.916,36.82-39.522,31.649-61.791a.523.523,0,0,1,.952-.4c5.442,8.631,18.834,33.7,5.614,53.905C2008.172,800.086,1985.951,776.366,1991.588,825.926Z" transform="translate(-1984.333 -721.154)" fill="#bfbdfb"/>
        <path id="Trazado_102565" data-name="Trazado 102565" d="M2041.242,821.413a17,17,0,0,1,1.592,4.7,24.35,24.35,0,0,1,.326,2.463,23.089,23.089,0,0,1,.027,2.491,22.109,22.109,0,0,1-.766,4.928,25.3,25.3,0,0,1-1.767,4.667,28.277,28.277,0,0,1-2.578,4.253c-.475.679-1,1.317-1.517,1.962-.265.317-.542.622-.812.934l-.408.465-.426.443a56.56,56.56,0,0,1-7.37,6.45c-2.6,1.944-5.3,3.678-7.657,5.7a24.718,24.718,0,0,0-3.235,3.3,21.455,21.455,0,0,0-2.466,3.885,28.352,28.352,0,0,0-1.694,4.344l-.326,1.131c-.1.379-.185.764-.282,1.146-.2.761-.335,1.542-.5,2.316a82.976,82.976,0,0,0-1.123,9.478v.008a.448.448,0,0,1-.894-.037l.031-2.419c.021-.807.068-1.613.1-2.421.052-.807.121-1.614.182-2.422.1-.8.176-1.613.292-2.418a34.794,34.794,0,0,1,2.592-9.476,23.181,23.181,0,0,1,2.576-4.29,25.224,25.224,0,0,1,3.415-3.64c1.239-1.1,2.54-2.086,3.837-3.047s2.591-1.9,3.859-2.851a54.385,54.385,0,0,0,7.076-6.236,33.793,33.793,0,0,0,5.5-7.482,24.354,24.354,0,0,0,2.732-8.787,21.5,21.5,0,0,0-.37-6.952,15.217,15.217,0,0,0-.653-2.226l-.01-.025a.39.39,0,0,1,.708-.328Z" transform="translate(-2005.624 -806.238)" fill="url(#linear-gradient-2)"/>
      </g>
    </g>
    <g id="Grupo_53954" data-name="Grupo 53954" transform="translate(379.52 300.811)">
      <path id="Trazado_102566" data-name="Trazado 102566" d="M1813.539,1002.422s1.463.712,1.732,1.529c.216.656,1.834.741,1.994,2.031a1.48,1.48,0,0,0,1.239,1.3c1.652.253,4.2,1.111,4.606,3.98.311,2.19-.805,3.02-1.977,3.308a1.659,1.659,0,0,0-1.258,1.917c.167.833-.082,1.8-1.526,2.558-3.235,1.707-6.465-4.044-6.465-4.044l-.662-10.041Z" transform="translate(-1795.131 -992.593)" fill="url(#linear-gradient-57)"/>
      <path id="Trazado_102567" data-name="Trazado 102567" d="M1721.025,967.027s4.162,11.347,11.255,14.893c0,0-2.361,3.852-3.593,4.085,0,0-7.577-9.7-8.349-17.642Z" transform="translate(-1717.844 -962.493)" fill="url(#linear-gradient-58)"/>
      <path id="Trazado_102568" data-name="Trazado 102568" d="M1915.564,1419.526l.209,1.721a2.307,2.307,0,0,0,1.141,1.193,5.25,5.25,0,0,0,1.657.1c.38-.04.755-1.057.64-1.421a6.269,6.269,0,0,0-1.155-2.248h-1.909A.588.588,0,0,0,1915.564,1419.526Z" transform="translate(-1883.859 -1346.735)" fill="url(#linear-gradient-59)"/>
      <path id="Trazado_102569" data-name="Trazado 102569" d="M1807.493,1288.526l-.322,1.9s1.079,10.929,1.271,15.3a3.427,3.427,0,0,1-.507,1.947l-1.876,3.047,4.769-2.814.095-.582-.781-1.073,1.022-12.244a3.753,3.753,0,0,0-.427-2.078l-.986-1.853Z" transform="translate(-1790.74 -1235.894)" fill="url(#linear-gradient-60)"/>
      <path id="Trazado_102570" data-name="Trazado 102570" d="M1801.673,1414.085h1.521a.916.916,0,0,0,.727-.357c.474-.616,1.457-1.819,1.927-1.85.633-.042.552,2.207.552,2.207h.355l.449-2.795a1.654,1.654,0,0,0-.868-1.729h0a2.339,2.339,0,0,1-.929,1.542c-.784.473-3.191,2.167-3.191,2.167a2.176,2.176,0,0,0-.619.016A.4.4,0,0,0,1801.673,1414.085Z" transform="translate(-1786.669 -1338.822)" fill="url(#linear-gradient-61)"/>
      <path id="Trazado_102571" data-name="Trazado 102571" d="M1859.3,1290.066s6.321,11.99,7.326,14.728a26.3,26.3,0,0,1,1.37,5.238c.021.338.441.662,1.6.662a1.112,1.112,0,0,0,1.034-.472.676.676,0,0,0,.026-.654c-.366-.74-1.526-3.1-1.956-4.177-.513-1.281-1.617-7.084-2.222-9.1a10.7,10.7,0,0,0-3.925-6.223S1860.746,1288.294,1859.3,1290.066Z" transform="translate(-1836.019 -1236.534)" fill="url(#linear-gradient-62)"/>
      <path id="Trazado_102572" data-name="Trazado 102572" d="M1782.06,1081.036c-1.63-6.909,2.5-10.817,2.5-10.817-2.606-2.5-7.355-3.64-7.355-3.64s-4.531,3.313-3.994,5.906c.315,1.52,3.185,9.1,3.185,9.1A6.306,6.306,0,0,0,1782.06,1081.036Z" transform="translate(-1762.769 -1047.151)" fill="url(#linear-gradient-63)"/>
      <path id="Trazado_102573" data-name="Trazado 102573" d="M1801.575,1166.638c-.664-2-3.615-3.421-3.615-3.421a6.306,6.306,0,0,1-5.664.552,7.872,7.872,0,0,0-.184,4.389c1.961,6.192,3.265,19.234,2.988,15.7,4.061.823,10.307-.828,10.307-.828C1802.82,1178.439,1802.239,1168.637,1801.575,1166.638Z" transform="translate(-1778.669 -1129.332)" fill="url(#linear-gradient-64)"/>
      <path id="Trazado_102574" data-name="Trazado 102574" d="M1805.4,1032.833l1.326,5.955c.127.525-.351.439-.882.339a3.535,3.535,0,0,1-2.362-1.177.644.644,0,0,1-.068-.224l-.569-4.129a.742.742,0,0,1,.434-.78l1.1-.487A.742.742,0,0,1,1805.4,1032.833Z" transform="translate(-1787.999 -1017.971)" fill="url(#linear-gradient-65)"/>
      <path id="Trazado_102575" data-name="Trazado 102575" d="M1837.26,1090.912s9.253,6.62,1.183,13.576a2.086,2.086,0,0,1-.913.529,10.043,10.043,0,0,0-1.668,1.132.314.314,0,0,1-.459-.083h0a.429.429,0,0,1-.024-.411l1.145-2.422a.884.884,0,0,1,1.148-.05h0a.436.436,0,0,0,.661-.15c.624-1.271,1.8-5.007-3.019-9.229a.522.522,0,0,1-.116-.635C1835.536,1092.518,1836.311,1091.226,1837.26,1090.912Z" transform="translate(-1815.469 -1067.844)" fill="url(#linear-gradient-66)"/>
      <g id="Grupo_53952" data-name="Grupo 53952" transform="translate(12.698 7.076)">
        <path id="Trazado_102576" data-name="Trazado 102576" d="M1791.686,997.629a5.875,5.875,0,0,0-2.638,2.932c-1.068,2.269-.27,3.316.731,3.46a4.687,4.687,0,0,0,4.083-1.344C1795.446,1001.211,1793.727,996.843,1791.686,997.629Z" transform="translate(-1788.541 -995.513)" fill="url(#linear-gradient-67)"/>
        <path id="Trazado_102577" data-name="Trazado 102577" d="M1801.211,989.97s1.184-3.319-1.758-3.358l-.693.484s-1.08-1.84.693-2.719,3.846-.153,4.6,2.235.883,3.986-.372,5.128-1.772-.153-1.772-.153.683-1.068.405-1.64-.92.118-.92.118Z" transform="translate(-1796.954 -984.017)" fill="url(#linear-gradient-68)"/>
        <path id="Trazado_102578" data-name="Trazado 102578" d="M1816.2,1020.521s.6-1.71,1.4-1.029-.649,1.579-1.216,1.87Z" transform="translate(-1812.062 -1014.049)" fill="url(#linear-gradient-69)"/>
      </g>
      <g id="Grupo_53953" data-name="Grupo 53953">
        <path id="Trazado_102579" data-name="Trazado 102579" d="M1706.448,943.319c-.063.2.672.509,1.105-.316a7.78,7.78,0,0,0,.019-2.414,31.568,31.568,0,0,0-3.7-3.869.581.581,0,0,0-.073.807l1.184,1.234a5.735,5.735,0,0,0-.692,1.367,1.659,1.659,0,0,0,.166,1.221c.208.375.492.862.76,1.243A1.639,1.639,0,0,0,1706.448,943.319Z" transform="translate(-1703.667 -936.72)" fill="url(#linear-gradient-70)"/>
        <path id="Trazado_102580" data-name="Trazado 102580" d="M1715.989,957.542l-.339-.911-1.079-.915c-.224.114-.349.3-.108.695a12.421,12.421,0,0,1,.564,2.2Z" transform="translate(-1712.736 -952.874)" fill="url(#linear-gradient-71)"/>
      </g>
    </g>
    <g id="Grupo_53958" data-name="Grupo 53958" transform="translate(415.897 212.357)">
      <g id="Grupo_53956" data-name="Grupo 53956" transform="translate(20.682 11.266)">
        <g id="Grupo_53955" data-name="Grupo 53955">
          <path id="Trazado_102581" data-name="Trazado 102581" d="M2085.546,420.817l1.345.826a.317.317,0,0,1-.331.54h0l-1.342-.821h0a.318.318,0,0,1,.332-.543Z" transform="translate(-2085.062 -420.77)" fill="#877df4"/>
          <path id="Trazado_102582" data-name="Trazado 102582" d="M2103.468,431.935l1.328.856a.314.314,0,0,1-.34.528l0,0-1.322-.85,0,0a.315.315,0,1,1,.341-.53Z" transform="translate(-2100.301 -430.222)" fill="#877df4"/>
          <path id="Trazado_102583" data-name="Trazado 102583" d="M2121.122,443.478l1.3.9a.311.311,0,0,1-.352.513l0,0-1.3-.888,0,0a.312.312,0,0,1,.353-.516Z" transform="translate(-2115.311 -440.034)" fill="#877df4"/>
          <path id="Trazado_102584" data-name="Trazado 102584" d="M2138.412,455.562l1.271.943a.308.308,0,1,1-.368.5l0,0-1.262-.933,0,0a.31.31,0,1,1,.368-.5Z" transform="translate(-2130.01 -450.305)" fill="#877df4"/>
          <path id="Trazado_102585" data-name="Trazado 102585" d="M2155.229,468.3l1.228,1a.306.306,0,1,1-.385.474l-.005,0-1.219-.987-.006,0a.307.307,0,0,1,.386-.477Z" transform="translate(-2144.305 -461.131)" fill="#877df4"/>
          <path id="Trazado_102586" data-name="Trazado 102586" d="M2171.444,481.8l1.176,1.061a.3.3,0,1,1-.406.45l-.006-.005-1.166-1.048-.006-.006a.3.3,0,1,1,.406-.453Z" transform="translate(-2158.089 -472.599)" fill="#877df4"/>
          <path id="Trazado_102587" data-name="Trazado 102587" d="M2186.92,496.136l1.113,1.129a.3.3,0,1,1-.427.421l-.006-.006-1.1-1.114-.006-.007a.3.3,0,1,1,.428-.424Z" transform="translate(-2171.243 -484.784)" fill="#877df4"/>
          <path id="Trazado_102588" data-name="Trazado 102588" d="M2201.5,511.384l1.037,1.2a.3.3,0,0,1-.45.389l-.006-.007-1.026-1.182-.007-.008a.3.3,0,0,1,.451-.392Z" transform="translate(-2183.637 -497.74)" fill="#877df4"/>
          <path id="Trazado_102589" data-name="Trazado 102589" d="M2215.038,527.574l.949,1.271a.294.294,0,1,1-.472.353l-.006-.008-.939-1.252-.007-.009a.3.3,0,0,1,.473-.355Z" transform="translate(-2195.139 -511.495)" fill="#877df4"/>
          <path id="Trazado_102590" data-name="Trazado 102590" d="M2227.377,544.7c.148.218.28.452.421.677l.415.682a.292.292,0,1,1-.5.3l-.01-.015-.406-.663c-.138-.22-.264-.444-.412-.66a.293.293,0,0,1,.485-.331h0Z" transform="translate(-2205.627 -526.05)" fill="#877df4"/>
          <path id="Trazado_102591" data-name="Trazado 102591" d="M2237.831,563.005l.659,1.448a.289.289,0,0,1-.526.239l-.006-.013-.649-1.419-.007-.014a.29.29,0,1,1,.528-.241Z" transform="translate(-2214.504 -541.582)" fill="#877df4"/>
          <path id="Trazado_102592" data-name="Trazado 102592" d="M2246.117,582.422l.518,1.5a.286.286,0,0,1-.542.187l0-.011-.512-1.477,0-.012a.288.288,0,0,1,.544-.188Z" transform="translate(-2221.547 -558.073)" fill="#877df4"/>
          <path id="Trazado_102593" data-name="Trazado 102593" d="M2252.594,602.509l.39,1.538a.284.284,0,0,1-.55.139l0-.011-.387-1.515,0-.011a.285.285,0,1,1,.552-.141Z" transform="translate(-2227.053 -575.137)" fill="#877df4"/>
          <path id="Trazado_102594" data-name="Trazado 102594" d="M2257.394,623.053l.264,1.565a.281.281,0,0,1-.554.093l0-.011-.263-1.542,0-.012a.282.282,0,1,1,.556-.095Z" transform="translate(-2231.135 -592.591)" fill="#877df4"/>
          <path id="Trazado_102595" data-name="Trazado 102595" d="M2260.5,643.923l.129,1.583a.278.278,0,0,1-.554.045v-.012l-.13-1.558v-.012a.28.28,0,0,1,.557-.046Z" transform="translate(-2233.777 -610.32)" fill="#877df4"/>
          <path id="Trazado_102596" data-name="Trazado 102596" d="M2261.634,664.989l-.024,1.591a.275.275,0,0,1-.551-.008v-.014l.022-1.562v-.014a.277.277,0,1,1,.553.007Z" transform="translate(-2234.729 -628.214)" fill="#877df4"/>
          <path id="Trazado_102597" data-name="Trazado 102597" d="M2259.721,686.077l-.208,1.581a.272.272,0,1,1-.54-.071l0-.017.2-1.546,0-.017a.274.274,0,1,1,.543.071Z" transform="translate(-2232.952 -646.122)" fill="#877df4"/>
          <path id="Trazado_102598" data-name="Trazado 102598" d="M2254.994,706.9l-.437,1.538a.27.27,0,0,1-.519-.147l.006-.022.422-1.5.006-.021a.271.271,0,1,1,.521.147Z" transform="translate(-2228.75 -663.8)" fill="#877df4"/>
          <path id="Trazado_102599" data-name="Trazado 102599" d="M2246.8,726.935l-.718,1.435a.267.267,0,0,1-.477-.239l.013-.026.69-1.385.013-.025a.268.268,0,1,1,.479.239Z" transform="translate(-2221.559 -680.801)" fill="#877df4"/>
          <path id="Trazado_102600" data-name="Trazado 102600" d="M2234.608,745.327a12.41,12.41,0,0,1-1.038,1.23.264.264,0,0,1-.381-.366,11.931,11.931,0,0,0,.991-1.179.266.266,0,1,1,.428.315Z" transform="translate(-2210.965 -696.411)" fill="#877df4"/>
          <path id="Trazado_102601" data-name="Trazado 102601" d="M2218.359,760.491c-.218.157-.424.332-.652.473l-.671.441a.261.261,0,0,1-.287-.437l.016-.011.645-.426c.219-.136.415-.3.623-.453l.018-.013a.263.263,0,0,1,.308.425Z" transform="translate(-2196.947 -709.262)" fill="#877df4"/>
          <path id="Trazado_102602" data-name="Trazado 102602" d="M2199.223,771.4a9.8,9.8,0,0,1-1.534.515.259.259,0,0,1-.123-.5,9.287,9.287,0,0,0,1.451-.49.26.26,0,1,1,.206.478Z" transform="translate(-2180.568 -718.519)" fill="#877df4"/>
          <path id="Trazado_102603" data-name="Trazado 102603" d="M2178.313,775.85a7.851,7.851,0,0,1-1.625-.089.256.256,0,0,1,.081-.506,7.328,7.328,0,0,0,1.519.081.257.257,0,0,1,.026.514Z" transform="translate(-2162.797 -722.22)" fill="#877df4"/>
          <path id="Trazado_102604" data-name="Trazado 102604" d="M2158.552,768.911a7.867,7.867,0,0,1-1.445-.745.253.253,0,0,1,.277-.424,7.379,7.379,0,0,0,1.353.695.255.255,0,0,1-.185.475Z" transform="translate(-2146.231 -715.797)" fill="#877df4"/>
          <path id="Trazado_102605" data-name="Trazado 102605" d="M2143.127,754.729a8.572,8.572,0,0,1-1.044-1.239.251.251,0,0,1,.412-.286,8.055,8.055,0,0,0,.984,1.165.252.252,0,1,1-.352.36Z" transform="translate(-2133.514 -703.379)" fill="#877df4"/>
          <path id="Trazado_102606" data-name="Trazado 102606" d="M2134.095,735.811a8.312,8.312,0,0,1-.511-1.54.248.248,0,0,1,.484-.109,7.765,7.765,0,0,0,.482,1.446.249.249,0,1,1-.456.2Z" transform="translate(-2126.32 -687.113)" fill="#877df4"/>
          <path id="Trazado_102607" data-name="Trazado 102607" d="M2132.347,714.9a7.111,7.111,0,0,1,.167-1.62.245.245,0,0,1,.479.106,6.633,6.633,0,0,0-.153,1.509.246.246,0,0,1-.493.006Z" transform="translate(-2125.272 -669.359)" fill="#877df4"/>
          <path id="Trazado_102608" data-name="Trazado 102608" d="M2136.947,695.836a6.966,6.966,0,0,1,.89-1.365.242.242,0,0,1,.373.31,6.482,6.482,0,0,0-.826,1.271.244.244,0,1,1-.437-.215Z" transform="translate(-2129.163 -653.45)" fill="#877df4"/>
          <path id="Trazado_102609" data-name="Trazado 102609" d="M2150.311,682.242a9.3,9.3,0,0,1,1.354-.882.24.24,0,1,1,.227.422,8.8,8.8,0,0,0-1.282.838.241.241,0,1,1-.3-.378Z" transform="translate(-2140.471 -642.35)" fill="#877df4"/>
          <path id="Trazado_102610" data-name="Trazado 102610" d="M2168.815,674.491a14.114,14.114,0,0,1,1.534-.461.237.237,0,0,1,.112.46,13.729,13.729,0,0,0-1.482.448.238.238,0,0,1-.165-.447Z" transform="translate(-2156.152 -636.135)" fill="#877df4"/>
          <path id="Trazado_102611" data-name="Trazado 102611" d="M2189.348,672.069a9.546,9.546,0,0,1,1.614,0,.234.234,0,0,1-.039.466,9.1,9.1,0,0,0-1.535,0,.235.235,0,0,1-.041-.469Z" transform="translate(-2173.563 -634.444)" fill="#877df4"/>
          <path id="Trazado_102612" data-name="Trazado 102612" d="M2210.34,673.969a11.6,11.6,0,0,1,1.529.493.231.231,0,0,1-.171.43,11.154,11.154,0,0,0-1.469-.471.233.233,0,1,1,.11-.452Z" transform="translate(-2191.353 -636.084)" fill="#877df4"/>
          <path id="Trazado_102613" data-name="Trazado 102613" d="M2229.9,681.671l1.364.833a.228.228,0,1,1-.238.39l-.018-.011-1.327-.807-.02-.012a.23.23,0,1,1,.239-.393Z" transform="translate(-2207.935 -642.61)" fill="#877df4"/>
          <path id="Trazado_102614" data-name="Trazado 102614" d="M2247.428,693.464l1.2,1.044a.226.226,0,1,1-.3.341l-.011-.01-1.179-1.021-.012-.011a.227.227,0,0,1,.3-.343Z" transform="translate(-2222.817 -652.62)" fill="#877df4"/>
          <path id="Trazado_102615" data-name="Trazado 102615" d="M2262.924,707.812l1.063,1.181a.223.223,0,1,1-.332.3l-.007-.009-1.049-1.161-.008-.009a.224.224,0,0,1,.333-.3Z" transform="translate(-2235.982 -664.806)" fill="#877df4"/>
          <path id="Trazado_102616" data-name="Trazado 102616" d="M2276.66,723.851l.94,1.278a.22.22,0,0,1-.355.261l-.006-.008-.931-1.26-.006-.008a.222.222,0,1,1,.357-.263Z" transform="translate(-2247.656 -678.431)" fill="#877df4"/>
          <path id="Trazado_102617" data-name="Trazado 102617" d="M2288.811,741.112l.828,1.351a.218.218,0,0,1-.371.228l0-.007-.822-1.334,0-.007a.219.219,0,0,1,.373-.23Z" transform="translate(-2257.984 -693.098)" fill="#877df4"/>
          <path id="Trazado_102618" data-name="Trazado 102618" d="M2299.507,759.3l.72,1.411a.215.215,0,0,1-.383.2l0-.007-.715-1.4,0-.007a.216.216,0,1,1,.385-.2Z" transform="translate(-2267.078 -708.555)" fill="#877df4"/>
          <path id="Trazado_102619" data-name="Trazado 102619" d="M2308.753,778.267l.609,1.462a.212.212,0,0,1-.392.163l0-.007-.606-1.446,0-.008a.213.213,0,1,1,.394-.165Z" transform="translate(-2274.939 -724.672)" fill="#877df4"/>
          <path id="Trazado_102620" data-name="Trazado 102620" d="M2316.523,797.883l.5,1.5a.209.209,0,0,1-.4.131l0-.007-.5-1.488,0-.007a.211.211,0,0,1,.4-.133Z" transform="translate(-2281.546 -741.342)" fill="#877df4"/>
          <path id="Trazado_102621" data-name="Trazado 102621" d="M2322.806,818.024l.385,1.536a.207.207,0,1,1-.4.1v-.007l-.385-1.52,0-.007a.208.208,0,0,1,.4-.1Z" transform="translate(-2286.889 -758.459)" fill="#877df4"/>
          <path id="Trazado_102622" data-name="Trazado 102622" d="M2327.6,838.569l.274,1.559a.2.2,0,0,1-.4.07v-.007l-.274-1.544v-.007a.205.205,0,0,1,.4-.072Z" transform="translate(-2290.966 -775.92)" fill="#877df4"/>
          <path id="Trazado_102623" data-name="Trazado 102623" d="M2330.9,859.4l.162,1.575a.2.2,0,0,1-.4.041v-.007l-.164-1.56v-.007a.2.2,0,0,1,.4-.042Z" transform="translate(-2293.779 -793.628)" fill="#877df4"/>
          <path id="Trazado_102624" data-name="Trazado 102624" d="M2332.728,880.418l.052,1.583a.2.2,0,1,1-.4.013v-.007l-.054-1.569v-.007a.2.2,0,0,1,.4-.014Z" transform="translate(-2295.336 -811.488)" fill="#877df4"/>
          <path id="Trazado_102625" data-name="Trazado 102625" d="M2332.771,901.517l-.058,1.581a.2.2,0,1,1-.391-.014v-.006l.055-1.568V901.5a.2.2,0,0,1,.394.014Z" transform="translate(-2295.332 -829.421)" fill="#877df4"/>
          <path id="Trazado_102626" data-name="Trazado 102626" d="M2331.048,922.568l-.167,1.574a.193.193,0,1,1-.383-.041v-.006l.163-1.561v-.007a.194.194,0,1,1,.386.04Z" transform="translate(-2293.779 -847.313)" fill="#877df4"/>
          <path id="Trazado_102627" data-name="Trazado 102627" d="M2327.875,943.5l-.276,1.558a.19.19,0,1,1-.374-.066v-.006l.271-1.545v-.007a.191.191,0,1,1,.377.066Z" transform="translate(-2290.994 -865.107)" fill="#877df4"/>
          <path id="Trazado_102628" data-name="Trazado 102628" d="M2323.257,964.206l-.384,1.535a.187.187,0,1,1-.364-.091v-.006l.378-1.523,0-.006a.189.189,0,1,1,.366.091Z" transform="translate(-2286.982 -882.706)" fill="#877df4"/>
          <path id="Trazado_102629" data-name="Trazado 102629" d="M2317.2,984.576l-.492,1.5a.185.185,0,1,1-.351-.115l0-.006.485-1.492,0-.006a.186.186,0,1,1,.354.115Z" transform="translate(-2281.746 -900.021)" fill="#877df4"/>
          <path id="Trazado_102630" data-name="Trazado 102630" d="M2309.707,1004.506l-.6,1.464a.182.182,0,0,1-.336-.138l0-.006.592-1.453,0-.006a.183.183,0,0,1,.339.138Z" transform="translate(-2275.292 -916.961)" fill="#877df4"/>
          <path id="Trazado_102631" data-name="Trazado 102631" d="M2300.788,1023.878l-.706,1.416a.179.179,0,0,1-.32-.16l0-.006.7-1.4,0-.006a.18.18,0,0,1,.323.161Z" transform="translate(-2267.625 -933.428)" fill="#877df4"/>
          <path id="Trazado_102632" data-name="Trazado 102632" d="M2290.456,1042.574l-.812,1.358a.176.176,0,1,1-.3-.181l0-.005.8-1.348,0-.006a.178.178,0,0,1,.305.182Z" transform="translate(-2258.758 -949.32)" fill="#877df4"/>
          <path id="Trazado_102633" data-name="Trazado 102633" d="M2278.732,1060.467l-.916,1.29a.173.173,0,1,1-.283-.2l0-.005.906-1.28,0-.005a.175.175,0,1,1,.285.2Z" transform="translate(-2248.712 -964.53)" fill="#877df4"/>
          <path id="Trazado_102634" data-name="Trazado 102634" d="M2265.652,1077.424l-1.017,1.212a.171.171,0,1,1-.262-.219l0-.005,1.006-1.2,0-.005a.172.172,0,1,1,.264.221Z" transform="translate(-2237.514 -978.945)" fill="#877df4"/>
          <path id="Trazado_102635" data-name="Trazado 102635" d="M2251.266,1093.311l-1.113,1.124a.168.168,0,0,1-.239-.236l0,0,1.1-1.116,0-.005a.169.169,0,0,1,.241.238Z" transform="translate(-2225.21 -992.45)" fill="#877df4"/>
          <path id="Trazado_102636" data-name="Trazado 102636" d="M2235.644,1107.995l-1.2,1.027a.165.165,0,1,1-.215-.251l.005,0,1.191-1.02.005,0a.167.167,0,0,1,.217.253Z" transform="translate(-2211.861 -1004.933)" fill="#877df4"/>
          <path id="Trazado_102637" data-name="Trazado 102637" d="M2218.878,1121.351l-1.287.921a.162.162,0,1,1-.189-.264l.005,0,1.274-.915.006,0a.164.164,0,0,1,.191.266Z" transform="translate(-2197.546 -1016.287)" fill="#877df4"/>
          <path id="Trazado_102638" data-name="Trazado 102638" d="M2201.082,1133.267l-1.362.807a.16.16,0,0,1-.163-.275l.006,0,1.348-.8.006,0a.161.161,0,1,1,.165.277Z" transform="translate(-2182.362 -1026.418)" fill="#877df4"/>
          <path id="Trazado_102639" data-name="Trazado 102639" d="M2185.341,1143.656l-.9.445a.158.158,0,1,1-.139-.283l0,0,.9-.442,0,0a.158.158,0,1,1,.14.284Z" transform="translate(-2169.377 -1035.253)" fill="#877df4"/>
        </g>
      </g>
      <g id="Grupo_53957" data-name="Grupo 53957">
        <path id="Trazado_102640" data-name="Trazado 102640" d="M2063.818,384.575l-.707,4.655-2.849-2.48Z" transform="translate(-2043.291 -378.724)" fill="#877df4"/>
        <path id="Trazado_102641" data-name="Trazado 102641" d="M1946.818,345.465l10.9,12.936a1.192,1.192,0,0,0,1.713.114L1972,347.085a.478.478,0,0,0-.306-.831Z" transform="translate(-1946.818 -345.465)" fill="#9391fa"/>
        <path id="Trazado_102642" data-name="Trazado 102642" d="M1967.344,351.316l-20.526-5.851,18.5,7.7-.141,1.3Z" transform="translate(-1946.818 -345.465)" fill="#877df4"/>
        <path id="Trazado_102643" data-name="Trazado 102643" d="M2062.415,398.038l2.527,1.716-1.319-2.8Z" transform="translate(-2045.121 -389.247)" fill="#877df4"/>
      </g>
    </g>
  </g>
</svg>
