<svg xmlns="http://www.w3.org/2000/svg" xmlns:xlink="http://www.w3.org/1999/xlink" width="331.174" height="255.487" viewBox="0 0 331.174 255.487">
  <defs>
    <linearGradient id="linear-gradient" y1="0.5" x2="1" y2="0.5" gradientUnits="objectBoundingBox">
      <stop offset="0" stop-color="#aa80f9"/>
      <stop offset="0.996" stop-color="#6165d7"/>
    </linearGradient>
    <linearGradient id="linear-gradient-2" y1="0.5" x2="1" y2="0.5" gradientUnits="objectBoundingBox">
      <stop offset="0" stop-color="#fed5ba"/>
      <stop offset="1" stop-color="#ffbe8e"/>
    </linearGradient>
    <linearGradient id="linear-gradient-7" y1="0.5" x2="1" y2="0.5" gradientUnits="objectBoundingBox">
      <stop offset="0" stop-color="#ad4fff"/>
      <stop offset="1" stop-color="#9840e2"/>
    </linearGradient>
  </defs>
  <g id="Grupo_53653" data-name="Grupo 53653" transform="translate(-3797.062 -492.239)">
    <g id="Grupo_53623" data-name="Grupo 53623" transform="translate(3797.062 745.566)">
      <path id="Trazado_101404" data-name="Trazado 101404" d="M4127.155,2907.239H3798.178a1.1,1.1,0,0,0-1.114,1.008,1.079,1.079,0,0,0,1.077,1.152h329.014a1.08,1.08,0,0,0,1.08-1.08h0A1.08,1.08,0,0,0,4127.155,2907.239Z" transform="translate(-3797.062 -2907.239)" fill="url(#linear-gradient)"/>
    </g>
    <g id="Grupo_53629" data-name="Grupo 53629" transform="translate(3892.484 493.939)">
      <circle id="Elipse_3979" data-name="Elipse 3979" cx="17.731" cy="17.731" r="17.731" transform="translate(2.181 10.303)" fill="#d192f9"/>
      <path id="Trazado_101405" data-name="Trazado 101405" d="M4755.869,644.258a17.27,17.27,0,1,1,9.252-22.6A17.29,17.29,0,0,1,4755.869,644.258Z" transform="translate(-4729.281 -600.296)" fill="#d192f9"/>
      <circle id="Elipse_3980" data-name="Elipse 3980" cx="14.103" cy="14.103" r="14.103" transform="translate(0 28.109) rotate(-45)" fill="#fff"/>
      <path id="Trazado_101406" data-name="Trazado 101406" d="M4787.686,674.025a13.368,13.368,0,1,1,7.162-17.5A13.383,13.383,0,0,1,4787.686,674.025Z" transform="translate(-4762.603 -633.654)" fill="#fff"/>
      <g id="Grupo_53624" data-name="Grupo 53624" transform="translate(6.325 14.451)">
        <path id="Trazado_101407" data-name="Trazado 101407" d="M4769.677,811.654l-2.208.925a.713.713,0,0,0,.552,1.315l2.208-.925a.713.713,0,1,0-.552-1.315Z" transform="translate(-4767.032 -794.25)" fill="#d192f9"/>
        <path id="Trazado_101408" data-name="Trazado 101408" d="M4932.858,870.739a.713.713,0,0,0-.382.933l.925,2.207a.713.713,0,0,0,1.316-.551l-.925-2.208A.715.715,0,0,0,4932.858,870.739Z" transform="translate(-4915.071 -847.137)" fill="#d192f9"/>
        <path id="Trazado_101409" data-name="Trazado 101409" d="M4994.15,717.574l-2.208.925a.713.713,0,0,0,.552,1.316l2.207-.925a.713.713,0,0,0-.551-1.315Z" transform="translate(-4967.958 -710.038)" fill="#d192f9"/>
        <path id="Trazado_101410" data-name="Trazado 101410" d="M4838.779,646.265a.713.713,0,0,0-.382.933l.925,2.208a.713.713,0,0,0,1.315-.551l-.925-2.207A.713.713,0,0,0,4838.779,646.265Z" transform="translate(-4830.861 -646.21)" fill="#d192f9"/>
      </g>
      <g id="Grupo_53625" data-name="Grupo 53625" transform="translate(19.202 5.316)">
        <path id="Trazado_101411" data-name="Trazado 101411" d="M4889.789,562.3l.2-2.8a.417.417,0,0,1,.445-.387l3.211.226a.417.417,0,0,1,.387.445l-.2,2.8a.417.417,0,0,1-.445.387l-3.211-.226A.417.417,0,0,1,4889.789,562.3Z" transform="translate(-4889.788 -559.116)" fill="#d192f9"/>
      </g>
      <g id="Grupo_53626" data-name="Grupo 53626" transform="translate(1.763 11.907)">
        <path id="Trazado_101412" data-name="Trazado 101412" d="M4728.45,623.872l-2.134-1.823a.417.417,0,0,0-.588.046l-2.091,2.448a.417.417,0,0,0,.046.588l2.134,1.823a.417.417,0,0,0,.588-.046l2.09-2.447A.417.417,0,0,0,4728.45,623.872Z" transform="translate(-4723.537 -621.949)" fill="#d192f9"/>
      </g>
      <g id="Grupo_53627" data-name="Grupo 53627" transform="translate(5.289)">
        <path id="Trazado_101413" data-name="Trazado 101413" d="M4791.705,560.385a.406.406,0,0,1-.531-.218l-.781-1.863a.406.406,0,0,1,.218-.531l3.8-1.594a.406.406,0,0,1,.531.218l.781,1.863a.406.406,0,0,1-.218.531Z" transform="translate(-4786.878 -551.144)" fill="#d192f9"/>
        <path id="Trazado_101414" data-name="Trazado 101414" d="M4762.981,518.355a4.435,4.435,0,1,1,2.583-1.08l.423,1.01a5.49,5.49,0,1,0-2.583,1.082Z" transform="translate(-4757.156 -508.442)" fill="#d192f9"/>
        <path id="Trazado_101415" data-name="Trazado 101415" d="M4813.816,589.481q.665-.279,1.34-.5l-1.127-2.688-2.1.88,1.113,2.655Q4813.423,589.646,4813.816,589.481Z" transform="translate(-4806.183 -578.126)" fill="#d192f9"/>
      </g>
      <g id="Grupo_53628" data-name="Grupo 53628" transform="translate(18.613 17.383)">
        <path id="Trazado_101416" data-name="Trazado 101416" d="M4886.672,763.911a1.3,1.3,0,1,1-1.7-.7A1.3,1.3,0,0,1,4886.672,763.911Z" transform="translate(-4884.172 -753.782)" fill="#d192f9"/>
        <path id="Trazado_101417" data-name="Trazado 101417" d="M4893.508,674.156l-.929,10.687a.489.489,0,1,1-.975-.085C4891.608,684.716,4891.526,685.187,4893.508,674.156Z" transform="translate(-4890.823 -674.156)" fill="#d192f9"/>
        <path id="Trazado_101418" data-name="Trazado 101418" d="M4902.071,776.948l-9.586-4.814a.489.489,0,1,1,.439-.874C4892.961,771.278,4892.555,771.028,4902.071,776.948Z" transform="translate(-4891.372 -761.026)" fill="#d192f9"/>
        <path id="Trazado_101419" data-name="Trazado 101419" d="M4892.528,770.774a.531.531,0,1,1-.7-.285A.531.531,0,0,1,4892.528,770.774Z" transform="translate(-4890.738 -760.347)" fill="#d192f9"/>
      </g>
    </g>
    <g id="Grupo_53630" data-name="Grupo 53630" transform="translate(4039.378 579.384)">
      <path id="Trazado_101420" data-name="Trazado 101420" d="M6112.006,1342.363a.52.52,0,0,0-.526-.158,7.459,7.459,0,0,1-3.473-.418l-.913-4.523a7.456,7.456,0,0,1,3.038-1.732.521.521,0,0,0,.424-.35l1.156-3.438a.521.521,0,0,0-.126-.535,7.463,7.463,0,0,1-1.374-3.216l3.46-3.053a7.462,7.462,0,0,1,3.02,1.765.521.521,0,0,0,.515.192l3.556-.718a.523.523,0,0,0,.4-.377,7.453,7.453,0,0,1,2.1-2.8l4.374,1.471a7.456,7.456,0,0,1-.019,3.5.522.522,0,0,0,.091.542l2.4,2.72a.521.521,0,0,0,.526.158,7.458,7.458,0,0,1,3.472.418l.913,4.523a7.453,7.453,0,0,1-3.038,1.733.522.522,0,0,0-.424.35l-1.156,3.438a.522.522,0,0,0,.126.535,7.469,7.469,0,0,1,1.375,3.216l-3.46,3.052a7.461,7.461,0,0,1-3.02-1.765.52.52,0,0,0-.514-.192l-3.556.718a.52.52,0,0,0-.4.377,7.46,7.46,0,0,1-2.1,2.8l-4.374-1.471a7.457,7.457,0,0,1,.019-3.5.521.521,0,0,0-.091-.542Zm9.949-1.11a4.545,4.545,0,1,0-5.354-3.555A4.544,4.544,0,0,0,6121.955,1341.254Zm.577,2.857a7.459,7.459,0,1,0-8.788-5.835A7.459,7.459,0,0,0,6122.532,1344.111Z" transform="translate(-6107.094 -1323.005)" fill="#fac967"/>
      <path id="Trazado_101421" data-name="Trazado 101421" d="M6340.358,1494.427a.412.412,0,0,1,.316-.3l2.815-.569a.412.412,0,0,1,.407.152,5.907,5.907,0,0,0,2.392,1.4l2.739-2.417a5.9,5.9,0,0,0-1.088-2.546.415.415,0,0,1-.1-.424l.916-2.722a.412.412,0,0,1,.335-.277,5.911,5.911,0,0,0,2.406-1.372l-.724-3.582a5.9,5.9,0,0,0-2.749-.331.413.413,0,0,1-.417-.125l-1.9-2.154a.412.412,0,0,1-.072-.429,5.9,5.9,0,0,0,.015-2.769l-3.463-1.165a5.887,5.887,0,0,0-1.661,2.216.413.413,0,0,1-.317.3l-2.815.569a.412.412,0,0,1-.407-.152,5.907,5.907,0,0,0-2.391-1.4l-2.74,2.417a5.912,5.912,0,0,0,1.088,2.546.412.412,0,0,1,.1.423l-.916,2.722a.412.412,0,0,1-.335.277,5.911,5.911,0,0,0-2.406,1.372l.724,3.582a5.906,5.906,0,0,0,2.75.331.413.413,0,0,1,.416.125l1.9,2.154a.414.414,0,0,1,.072.429,5.9,5.9,0,0,0-.016,2.769l3.463,1.165A5.9,5.9,0,0,0,6340.358,1494.427Zm.97-4.319a4.477,4.477,0,1,1,3.5-5.274A4.477,4.477,0,0,1,6341.328,1490.108Z" transform="translate(-6306.069 -1458.875)" fill="#fac967"/>
    </g>
    <path id="Trazado_101422" data-name="Trazado 101422" d="M4467.317,1032.266l-3.129-1.179-2.745,1.909a.459.459,0,0,1-.721-.4l.154-3.34-2.663-2.021a.459.459,0,0,1,.156-.809l3.224-.885,1.1-3.158a.46.46,0,0,1,.818-.1l1.838,2.793,3.342.069a.46.46,0,0,1,.35.746l-2.088,2.611.967,3.2A.459.459,0,0,1,4467.317,1032.266Z" transform="translate(-591.635 -474.258)" fill="#d192f9"/>
    <path id="Trazado_101423" data-name="Trazado 101423" d="M4457.874,843.024l-1.7-4.566-4.351,1.3-1.874-4.424-4.311.731-1.944-3.082-1.56.984,2.6,4.121,4.085-.692,1.949,4.6,4.279-1.28,1.541,4.138Z" transform="translate(-577.406 -305.002)" fill="#ba3df2"/>
    <path id="Trazado_101424" data-name="Trazado 101424" d="M6182.984,1109.132l-4.273-2.341-2.439,3.83-4.311-2.12-2.782,3.373-3.487-1.059-.536,1.765,4.663,1.417,2.637-3.2,4.485,2.205,2.4-3.767,3.873,2.121Z" transform="translate(-2119.687 -550.087)" fill="#e3bef9"/>
    <path id="Trazado_101425" data-name="Trazado 101425" d="M5245.7,576.411l-1.828,4.516,4.088,1.978-1.605,4.529,3.674,2.372-.646,3.585,1.815.327.865-4.8-3.481-2.247,1.669-4.711-4.021-1.945,1.657-4.093Z" transform="translate(-1295.043 -74.909)" fill="#d192f9"/>
    <path id="Trazado_101426" data-name="Trazado 101426" d="M6199.269,1627.2l-.9-1.771-2.023.069-.867-2.056-2.133.738-1.083-2.282-2.047.437-1.4-2.025.767-.53,1.047,1.514,2.161-.461,1.041,2.193,2.168-.75.957,2.269,1.976-.067.833,1.641,1.289-.315.222.905Z" transform="translate(-2140.866 -1009.265)" fill="#fac967"/>
    <path id="Trazado_101427" data-name="Trazado 101427" d="M5904.4,800.5l-.946-2.813,4.358-2.022-.875-4.284,3.015-2.046-1.036-1.526-4.032,2.737.83,4.06-4.535,2.1,1.423,4.234Z" transform="translate(-1883.404 -264.568)" fill="#fac967"/>
    <g id="Grupo_53632" data-name="Grupo 53632" transform="translate(4030.319 525.267)">
      <path id="Trazado_101428" data-name="Trazado 101428" d="M6046.337,811.28c4.806,7.345-1.73,17.538-10.289,16.022a6.482,6.482,0,0,0-4.516.93l-4.733,2.917a2.731,2.731,0,0,1-3.765-.8l-1.82-2.782a3.1,3.1,0,0,1,.622-4c4.28-3.665,6.1-4.705,6.675-7.779C6030.193,806.793,6041.53,803.934,6046.337,811.28Z" transform="translate(-6020.74 -807.1)" fill="#e3bef9"/>
      <g id="Grupo_53631" data-name="Grupo 53631" transform="translate(5.382 3.922)">
        <path id="Trazado_101429" data-name="Trazado 101429" d="M6080.975,848.789a9.037,9.037,0,0,1-.225-1.294c-.218-2.568,1.767-3.455,2.813-2.793a1.891,1.891,0,0,1,.556,2.339,6.25,6.25,0,0,1-1.855,2.106,12.377,12.377,0,0,0,1.9,3.91c2.34-1.41,4.012-.639,4.121.637a2.082,2.082,0,0,1-1.249,2.009c-.474.206-1.7.489-3.15-1.116-3.95,2.786-9.105,6.9-9.121,6.915l-.655-.91c.017-.012,5.143-4.1,9.078-6.885a13.482,13.482,0,0,1-1.884-3.723c-4.5,3.93-8.471,7.037-8.609,7.15l-.651-.912C6072.333,855.989,6076.178,853,6080.975,848.789Zm1.9-3.128c-.349-.133-1.275.252-.9,2.254C6083.013,847,6083.33,846.6,6082.873,845.661Zm2.015,8.277c.575.6,1.445,1.139,2.03.492C6087.668,853.6,6086.595,852.98,6084.888,853.938Z" transform="translate(-6072.046 -844.491)" fill="#fff"/>
      </g>
      <path id="Trazado_101430" data-name="Trazado 101430" d="M6031.653,936.7c-.04.023-.082.043-.121.068l-4.733,2.917a2.731,2.731,0,0,1-3.765-.8l-1.82-2.782a3.1,3.1,0,0,1,.622-4c1.9-1.63,3.32-2.741,4.357-3.743Z" transform="translate(-6020.74 -915.64)" fill="#d192f9"/>
    </g>
    <g id="Grupo_53636" data-name="Grupo 53636" transform="translate(3817.663 617.017)">
      <g id="Grupo_53635" data-name="Grupo 53635" transform="translate(0)">
        <g id="Grupo_53633" data-name="Grupo 53633" transform="translate(6.298 28.841)">
          <path id="Trazado_101431" data-name="Trazado 101431" d="M4058.322,1995.068s-.153-.752-.185-1.006c-.037-.3-.08-1.2-.08-1.2s0-3.144.231-3.126.534.558.6.752.167.414.235.608a.4.4,0,0,0,.516.236c.247-.068.144-.9.051-1.181a32.6,32.6,0,0,0-1.659-3.292c-.144-.28.858-5.734,1.053-7.629h0c.412-3.094.99-6.254,1.035-6.581l5.51-12.178-3.678-3.756s-6.3,13.429-6.543,14.137c-.113.337-.511,7.581-.509,7.582.028,3.58.063,6.734.052,7.34,0,0-.519,1.8-.917,2.933a10.354,10.354,0,0,0-.375,2.663,7.721,7.721,0,0,0-.1,2.617c.166,1.231.577-.019.577-.019s.105-2.34.29-2.3c.142.029.008,1.3.177,2.668.043.351.088.7.131,1.014.113.833.661,1,.682.1a8.324,8.324,0,0,0-.046-1.211,6.925,6.925,0,0,1,.024-1.139,9.144,9.144,0,0,1,.032-1.174c.037.02.135-.116.193.254.07.445.006,1.427.159,2.074.087.367.221,1.145.221,1.145a7.89,7.89,0,0,0,.433,1.233c.409-.017.408-.978.224-1.46a5.585,5.585,0,0,0-.123-1.183s.039-1.726.285-1.727c.2,0,.911,4.141,1.32,4.094C4058.479,1996.324,4058.322,1995.068,4058.322,1995.068Z" transform="translate(-4053.497 -1956.718)" fill="url(#linear-gradient-2)"/>
        </g>
        <path id="Trazado_101432" data-name="Trazado 101432" d="M4095.08,1912.682a26.166,26.166,0,0,1-3.5-.847c-1.617-.6-2.681-1.129-2.681-1.129a74.818,74.818,0,0,1,3.991-12.214c.916-1.907,1.841-2.828,3.133-3.048.008,0,2.723,1.787,2.614,6.1C4098.612,1902.553,4095.08,1912.682,4095.08,1912.682Z" transform="translate(-4078.887 -1873.031)" fill="#e8605d"/>
        <g id="Grupo_53634" data-name="Grupo 53634">
          <path id="Trazado_101433" data-name="Trazado 101433" d="M4214.848,2303.222l2.963,27.265s-1.448,5.766-1.273,7.4,3.221,23.126,3.221,23.126l-.128,1.206,0,3.559h11.308a50.5,50.5,0,0,1-5.757-3.294,2.39,2.39,0,0,1-.959-1.706c-.9-6.623.877-28.715.877-28.715l1.4-28.756Z" transform="translate(-4191.625 -2238.033)" fill="#fb9390"/>
          <path id="Trazado_101434" data-name="Trazado 101434" d="M4057.231,2357.9c-.639.167-1.622,23.609-2.151,24.649-3.353,6.587-4.15,26.614-4.15,26.614l-.974,2.852-1.043,3.5s3.349.917,5.1-.081l-.195-3.448-.178-3.153,8.459-24.951,4.629-25.45Z" transform="translate(-4043.096 -2286.972)" fill="#fb9390"/>
          <path id="Trazado_101435" data-name="Trazado 101435" d="M4146.965,1861.226c-1.365-1.92-7-7.482-7.62-7.471-1.824.033-7.809.035-8.979.647l.007,1.31a70.518,70.518,0,0,0,2.252,17.357c1.027,3.951,2,8.17,1.88,9.685l.029.028a8.121,8.121,0,0,0,12.091-.6h0a72.071,72.071,0,0,1,.474-8.03C4147.863,1868.152,4150.354,1866,4146.965,1861.226Z" transform="translate(-4116.005 -1835.714)" fill="#fa7167"/>
          <path id="Trazado_101436" data-name="Trazado 101436" d="M4194.771,1784.967a31.971,31.971,0,0,1-.183,5.387c-.341,1.481-.8,1.593,2.13,2.043,1.149.177,2.258.441,2.258.441s-.3-2.175-.346-3.093c-.075-1.512.338-6.181.338-6.181Z" transform="translate(-4173.266 -1772.887)" fill="url(#linear-gradient-2)"/>
          <path id="Trazado_101437" data-name="Trazado 101437" d="M4202.343,1786.911a5.132,5.132,0,0,0,1.683.615c.1-1.844.287-3.961.287-3.961l-4,1.337A5.328,5.328,0,0,0,4202.343,1786.911Z" transform="translate(-4178.61 -1772.887)" fill="#ef7f7f"/>
          <path id="Trazado_101438" data-name="Trazado 101438" d="M4179.932,1691.42a5.118,5.118,0,0,0-2.6,2.432c-.923,1.841-1.268,7.017,2.371,9.042,1.8,1,3.878,1.192,4.856.311,1-.9.876-2.9.776-4.559C4185.142,1695.354,4184.417,1690.373,4179.932,1691.42Z" transform="translate(-4157.499 -1690.28)" fill="url(#linear-gradient-2)"/>
          <path id="Trazado_101439" data-name="Trazado 101439" d="M4164.3,1743.521c.206.864-.07,1.7-.616,1.863s-1.157-.4-1.363-1.266.069-1.7.616-1.863S4164.089,1742.657,4164.3,1743.521Z" transform="translate(-4144.542 -1735.885)" fill="#f7a491"/>
          <path id="Trazado_101440" data-name="Trazado 101440" d="M4053.573,2873.343a5.414,5.414,0,0,1-3.865.045l-1.073,3.511s3.372,1,5.128,0Z" transform="translate(-4042.847 -2748.35)" fill="#fa7167"/>
          <path id="Trazado_101441" data-name="Trazado 101441" d="M4109.7,2490.625s0,0,0,0Z" transform="translate(-4097.502 -2405.778)" fill="#f47458"/>
          <path id="Trazado_101442" data-name="Trazado 101442" d="M4258.15,2870.065h11.756c.435-.04.541-.406.39-.632-.31-.464-1.682-.8-3.223-1.544-2.7.293-8.378-1.628-8.8-2.274C4258.022,2866.908,4257.909,2870.01,4258.15,2870.065Z" transform="translate(-4230.265 -2741.432)" fill="#fa7167"/>
          <path id="Trazado_101443" data-name="Trazado 101443" d="M4257.082,1971.386c.228-.317.99-1.865.99-1.865a15.919,15.919,0,0,0,.626-2.618,2.96,2.96,0,0,0-.809,1.2c-.235.491-.493,1.35-.737,1.774-.429.745-.907,1.056-.789.768.086-.209.38-.382.638-.828.628-1.086,1.184-2.861.942-2.825a16.154,16.154,0,0,0-1.493,2.207,6.949,6.949,0,0,1-1.649,1.265,2.213,2.213,0,0,1,.106-.582c.066-.208,1-1.446.635-1.6s-2.588,2.526-2.588,2.526l-.913,1.555-.081.06h0s-11.087,4.347-11.458,4.229c-.873-.276-3.852-8.913-3.852-8.913l-6.2,1.119c-.089-.048,6.521,12.855,7.754,13.487,1.083.555,12.607-5.449,14.772-6.733a9.319,9.319,0,0,0,4.629-3.211c.26-.376,1.259-2.008,1.259-2.008a10.713,10.713,0,0,0,.052-2.282c-.547-.067-.7,2.065-.7,2.065s-.739,1.006-.868,1.138C4257.025,1971.637,4257.082,1971.386,4257.082,1971.386Z" transform="translate(-4205.583 -1936.993)" fill="url(#linear-gradient-2)"/>
          <path id="Trazado_101444" data-name="Trazado 101444" d="M4191.378,1873.177c-.847,3.588,3.669,11.589,3.669,11.589s6.433-3.124,7.564-4.471c0,0-4.437-7.323-4.712-7.8-.594-1.033-2.678-3.168-4.083-2.776C4192.921,1869.967,4191.378,1873.177,4191.378,1873.177Z" transform="translate(-4170.521 -1849.96)" fill="#e8605d"/>
          <path id="Trazado_101445" data-name="Trazado 101445" d="M4015.335,1696.138c.481-3.292,5.941-10,3.832-12.8-1.706-2.268-4.681-1.59-6.577-.938-8.6,2.957-8.1,13.763-10.816,15.453-4.919,3.064-7.946,4.972-8.3,11.874-.42,8.186,6.532,12.367,14.893,10.364,4.5-1.077,5.687-2.548,7.49-6.793.813-1.914,2.452-7.883,2-10.8C4017.459,1699.884,4014.948,1698.789,4015.335,1696.138Z" transform="translate(-3993.457 -1681.769)" fill="#0b0754"/>
          <path id="Trazado_101446" data-name="Trazado 101446" d="M4219.69,1746.168c0,.975-.354,1.765-.79,1.765s-.791-.79-.791-1.765.354-1.765.791-1.765S4219.69,1745.193,4219.69,1746.168Z" transform="translate(-4194.544 -1737.833)" fill="url(#linear-gradient-2)"/>
          <path id="Trazado_101447" data-name="Trazado 101447" d="M4133.355,2161.219l.4-16.175a32.017,32.017,0,0,0-2.649-13.265l-3.057-7.015a18.466,18.466,0,0,1-3.7.9,36.063,36.063,0,0,1-8.418-.329,2.283,2.283,0,0,1-.039.286c-.51,2.382-3.352,7.693-4.548,14.952a152.6,152.6,0,0,0-1.7,21.53C4122.639,2162.692,4125.735,2163.16,4133.355,2161.219Z" transform="translate(-4097.432 -2078.295)" fill="#92b5f9"/>
        </g>
      </g>
    </g>
    <g id="Grupo_53638" data-name="Grupo 53638" transform="translate(4011.56 618.966)">
      <path id="Trazado_101448" data-name="Trazado 101448" d="M5845.75,1700.345l9.785,9.785s18.632,7.286,20.714,11.762-1.874,4.268-6.246,3.643-16.759-8.327-16.759-8.327l-11.346-13.116Z" transform="translate(-5841.899 -1700.345)" fill="#6d38ba"/>
      <path id="Trazado_101449" data-name="Trazado 101449" d="M6056.381,1879.717l-2.42-.859-4.685,2.186a10.59,10.59,0,0,0-3.591,5.7c-1.171,4.059,0,28.339,1.952,32.243S6056.381,1879.717,6056.381,1879.717Z" transform="translate(-6023.891 -1860.133)" fill="#c292f9"/>
      <path id="Trazado_101450" data-name="Trazado 101450" d="M6298.118,2775.574s1.721,1.108,1.861,1.618,1.4,6.027.932,6.667-2.2.33-1.529.8c.507.352,3.777.621,5.868.057.61-.165.331-5.322.421-6.107.131-1.141.921-3.731.441-4.406a10.078,10.078,0,0,0-2.784-1.378,9.992,9.992,0,0,1-2.68-1.9Z" transform="translate(-6250.262 -2658.623)" fill="#fb9390"/>
      <path id="Trazado_101451" data-name="Trazado 101451" d="M6309.652,2788.584s-1.016,9.787-2.205,10.51c-.315.192-1.988.335-2.142,1.134,0,.02-.04.82.468.839l6.343-.02s.066-4.812.026-6.7c0,0,.876-4.812.59-5.172S6309.652,2788.584,6309.652,2788.584Z" transform="translate(-6256.693 -2674.431)" fill="#0b0754"/>
      <path id="Trazado_101452" data-name="Trazado 101452" d="M6534.786,2775.574s1.721,1.108,1.862,1.618,1.4,6.027.93,6.667-2.2.33-1.529.8c.507.352,3.778.621,5.869.057.61-.165.331-5.322.421-6.107.13-1.141.921-3.731.441-4.406a10.083,10.083,0,0,0-2.783-1.378,9.989,9.989,0,0,1-2.68-1.9Z" transform="translate(-6462.104 -2658.623)" fill="#fb9390"/>
      <path id="Trazado_101453" data-name="Trazado 101453" d="M6130.579,2208.877s5.8,11.518,6.989,14.61l8.839,22.426,19.494,22.932s-1.427,3.685-3.585,4.672c0,0-23.5-18.978-25.437-21.967-2.947-4.556-16.366-32.471-16.366-32.471l-2.494-5.369Z" transform="translate(-6089.055 -2155.533)" fill="#e8605d"/>
      <path id="Trazado_101454" data-name="Trazado 101454" d="M6075.144,2178.1l.094,9.822s-4.2,32.08-3.384,33.986c1.983,4.649,23.785,20.4,23.785,20.4l2.967-5.1-15.666-17.488,5.934-17.019c1.66-3.953,5.191-11.593,5.1-15.88-.076-3.674-7.359-12.193-7.359-12.193Z" transform="translate(-6047.638 -2124.877)" fill="#fa7167"/>
      <path id="Trazado_101455" data-name="Trazado 101455" d="M6069.175,1926.129c5.776-1.312,10.451-3.353,10.931-4.964.217-.729-3-8.056-5.375-17.841-.774-3.194-.634-6.2-1.874-17.383-.263-2.373-1.246-7.347-4.921-8.63a5.513,5.513,0,0,0-2.011-.393c-.03.005-4.676.037-6.8,1.216-.524.712-2.479,4.607-3,15.224-.228,4.635-1.153,19.519-.963,21.938.028.359.065.706.108,1.042C6056.1,1922.762,6062.858,1927.564,6069.175,1926.129Z" transform="translate(-6032.768 -1858.393)" fill="url(#linear-gradient-7)"/>
      <path id="Trazado_101456" data-name="Trazado 101456" d="M6091.637,1839.718s.01,0,.017,0c2.354-.26,8.278-8.02,8.278-8.02l-.013-.021-3.654-5.788s-5.383.98-4.33,2.619,1.644,5.57,1.644,5.57c-.018.045-.042.1-.074.164A19.543,19.543,0,0,0,6091.637,1839.718Z" transform="translate(-6065.44 -1812.719)" fill="url(#linear-gradient-2)"/>
      <path id="Trazado_101457" data-name="Trazado 101457" d="M6093.309,1828.509c-1.053-1.638,4.331-2.618,4.331-2.618l.3.482a3.145,3.145,0,0,1-.15,1.1,7.036,7.036,0,0,1-3.432,3.781A10.426,10.426,0,0,0,6093.309,1828.509Z" transform="translate(-6066.815 -1812.722)" fill="#ef7f7f"/>
      <g id="Grupo_53637" data-name="Grupo 53637" transform="translate(20.114 0.839)">
        <path id="Trazado_101458" data-name="Trazado 101458" d="M6046.229,1733.605c.116-.11,4.2,6.6,3.218,9.37s-4.279,4.97-6.238,3.984c-2.167-1.091-5.442-8.792-3.467-12.059S6046.229,1733.605,6046.229,1733.605Z" transform="translate(-6038.559 -1730.427)" fill="url(#linear-gradient-2)"/>
        <path id="Trazado_101459" data-name="Trazado 101459" d="M6035.408,1708.5a13.71,13.71,0,0,1,9.111,1.893,6.287,6.287,0,0,1,1.73,8.225,4.937,4.937,0,0,0-.532,4.211s-4.177-.262-5.022-3.1c-.354-1.193.087-2-.716-2.673-.618-.518-1.137-2.025-1.75-3.236,0,0-2.693-1.432-3.72-.253C6034.159,1713.969,6032.325,1709.167,6035.408,1708.5Z" transform="translate(-6033.649 -1708.339)" fill="#0b0754"/>
        <path id="Trazado_101460" data-name="Trazado 101460" d="M6088.176,1779.183c.365.877,1.075,1.416,1.584,1.2s.627-1.1.262-1.973-1.075-1.416-1.584-1.2S6087.811,1778.306,6088.176,1779.183Z" transform="translate(-6082.266 -1769.945)" fill="url(#linear-gradient-2)"/>
      </g>
      <path id="Trazado_101461" data-name="Trazado 101461" d="M6546.342,2788.692s-1.043,9.776-2.232,10.5c-.315.192-1.988.335-2.142,1.134,0,.02-.052.845.468.833l6.337-.013s.073-4.812.032-6.7c0,0,.876-4.812.59-5.172S6546.342,2788.692,6546.342,2788.692Z" transform="translate(-6468.529 -2674.527)" fill="#0b0754"/>
    </g>
    <g id="Grupo_53640" data-name="Grupo 53640" transform="translate(3910.656 539.896)">
      <g id="Grupo_53639" data-name="Grupo 53639" transform="translate(0)">
        <path id="Trazado_101462" data-name="Trazado 101462" d="M4918.568,1094.621c-5.036-10.535-6.419-26.257-.931-38.728,9.253-21.049,34.714-29.639,32.839-53.494a19.317,19.317,0,0,0-7.083-13.951c-10.363-8.183-27.036-3.852-38.937,1.862a74.577,74.577,0,0,0-21.175,15.535l-3.311-42.133c14.286-10.137,31.57-15.437,48.823-16.792,35.353-2.778,62.652,10.482,65.431,45.844,2.534,32.251-19.261,46.539-33.881,62.662-8.115,8.949-9.948,15.843-9.321,23.828.324,4.128,1.873,9.226,4.362,12.474Zm25.385,57.615c-34.364,2.7-38.344-43.465-3.63-46.193C4974.517,1103.357,4978.185,1149.547,4943.953,1152.237Z" transform="translate(-4879.971 -946.563)" fill="#a737d5"/>
      </g>
    </g>
    <path id="Trazado_101463" data-name="Trazado 101463" d="M5750.858,1656.18a7.376,7.376,0,0,0-.265-2.338,4.3,4.3,0,0,0-.841-1.719,3.917,3.917,0,0,0-.78-.682.39.39,0,0,0-.622.364c.079.216.485.964.563,1.18s.114.748-.066.924-3.025-3.088-3.2-3.373a11.279,11.279,0,0,1-.488-1.3s-.248-.772-.551-.576c-.2.129-.417.765.154,2.019.5,1.1,1.189,1.97,1.11,2.034-.2.169-1.44-1.312-1.44-1.312a6.525,6.525,0,0,0-.723-1.118c-.184-.548-.52-1.229-.871-.963a7.139,7.139,0,0,0,.168,1.217s.431.772.615,1.153c.324.67,1.062,1.484,1.315,1.921.211.364.006.279-.011.322a9.669,9.669,0,0,1-.817-.969,8.024,8.024,0,0,1-.814-.978,9.687,9.687,0,0,0-.807-1.089c-.641-.765-.981-.245-.493.561.185.307.39.639.6.975.812,1.308,1.812,2.329,1.714,2.453-.126.16-1.846-1.811-1.846-1.811s-1.213-.808-.492.381a12.223,12.223,0,0,0,1.784,2.3,11.57,11.57,0,0,0,2.165,2.131c1.118.712,2.931,1.786,2.931,1.786.208.251.739,1.069,1.473,2.224l2.711-3.262A21.236,21.236,0,0,1,5750.858,1656.18Z" transform="translate(-1740.686 -1035.084)" fill="#fbd490"/>
    <path id="Trazado_101464" data-name="Trazado 101464" d="M5808.291,1736.514l3.747-3.279,12.869,12.7s19.921,1.747,19.973,1.761l.8.25c7.227,2.5,4.251,8.393,2.859,9.305-3.243,2.125-21.255.851-27.026-2.728C5816.76,1751.575,5808.291,1736.514,5808.291,1736.514Z" transform="translate(-1800.257 -1110.819)" fill="url(#linear-gradient-7)"/>
    <g id="Grupo_53643" data-name="Grupo 53643" transform="translate(3868.896 597.504)">
      <path id="Trazado_101465" data-name="Trazado 101465" d="M4529.857,1918.041a4.327,4.327,0,0,0,.409,1.057,40.058,40.058,0,0,0,3.908,5.55l2.113-5.08s-.345-1.6-.942-3.875C4533.306,1916.261,4531.362,1916.591,4529.857,1918.041Z" transform="translate(-4524.824 -1871.641)" fill="url(#linear-gradient-2)"/>
      <path id="Trazado_101466" data-name="Trazado 101466" d="M4499.865,1744.5s-11.784,5.416-12.165,5.312c-.245-.067-4.834-8.263-4.883-15.971-.023-3.56,3.441-7.842,7.307-7,1.946.427,1.916,1,4.794,5.469S4499.865,1744.5,4499.865,1744.5Z" transform="translate(-4482.718 -1702.511)" fill="#c292f9"/>
      <path id="Trazado_101467" data-name="Trazado 101467" d="M4734.5,2821.74s-.28,4.939-.281,4.949c-.1.627-.507,2.176-.507,2.747,0,2.141,9.529-1.818,7.393-2.767-.193-.086-1.206-.736-1.27-1.465-.1-1.123-.346-3.4-.346-3.4Z" transform="translate(-4707.297 -2682.646)" fill="#fb9390"/>
      <path id="Trazado_101468" data-name="Trazado 101468" d="M4738.205,2867.783a34.457,34.457,0,0,1-3.383.819c-1.146.164-2.657-1.215-3.467-.843-.892.41-.857,4.1-.857,4.1s12,1.051,15.371-.036C4747.205,2871.393,4742.779,2869.309,4738.205,2867.783Z" transform="translate(-4704.418 -2723.781)" fill="#0b0754"/>
      <path id="Trazado_101469" data-name="Trazado 101469" d="M4548.676,2821.74s-.279,4.939-.281,4.949c-.1.627-.507,2.176-.507,2.747,0,2.141,9.529-1.818,7.393-2.767-.193-.086-1.506-1.221-1.569-1.95-.1-1.123-.046-2.91-.046-2.91Z" transform="translate(-4540.962 -2682.646)" fill="#fb9390"/>
      <path id="Trazado_101470" data-name="Trazado 101470" d="M4551.776,2867.783a34.457,34.457,0,0,1-3.383.819c-1.146.164-2.656-1.215-3.467-.843-.893.41-.928,4.1-.928,4.1s12.051,1.225,15.441-.036C4560.756,2871.333,4556.35,2869.309,4551.776,2867.783Z" transform="translate(-4537.482 -2723.781)" fill="#0b0754"/>
      <g id="Grupo_53641" data-name="Grupo 53641" transform="translate(10.626 10.356)">
        <path id="Trazado_101471" data-name="Trazado 101471" d="M4583.17,1633.253l8.392-12.547c.035-.11.111-.335.228-.678.423-1.245,1.3-3.836,2.069-6.413l.008-.028c.241-.9.751-2.472,1.245-3.993.549-1.69,1.229-3.787,1.253-4.144-.021-.061-.061-.171-.114-.316a30.623,30.623,0,0,1-.871-3.766c-.094-.562-.187-1.928.439-1.928.984,0,.515,1.365.969,2.217a22.8,22.8,0,0,0,.682-2.843l.164-2.668c.032-.2-.168-1.673.522-1.673h.033c.621.048.606,1.613.864,4.259.082-.3.164-.672.225-1.009a10.225,10.225,0,0,1,.21-1.4c-.125-.737-.052-1.9.684-1.791.369.055.338,1.678.338,1.678,0,.223-.026,1.939-.015,2.278.076-.576.371-3.032.948-3.032.479,0,.517.661.507,1.184-.006.31-.307,2.97-.323,3.279.225-.4.493-2.748.716-2.748.934,0,.6,3.334.253,4.2a3.961,3.961,0,0,0-.106.465,8.549,8.549,0,0,1-.8,2.48c-.586,1.07-1.395,2.771-1.518,3.032-.09.531-.371,2.442-.724,4.847-.151,1.029-.317,2.157-.49,3.325h-.009c-.032.253-.207,1.057-.871,4.073a37.982,37.982,0,0,1-1.043,4.382c-.4.745-9.443,13.86-9.828,14.418l-.228.329Z" transform="translate(-4583.17 -1594.473)" fill="url(#linear-gradient-2)"/>
        <path id="Trazado_101472" data-name="Trazado 101472" d="M4715.817,1668.709s-.681-1.859-1.894-1.863a1.319,1.319,0,0,1,1.258.23A2.664,2.664,0,0,1,4715.817,1668.709Z" transform="translate(-4700.208 -1659.193)" fill="url(#linear-gradient-2)"/>
      </g>
      <g id="Grupo_53642" data-name="Grupo 53642">
        <path id="Trazado_101473" data-name="Trazado 101473" d="M4554.62,1647.307l-1.081,7.292s4.117,3.528,6.517,2.784c2.013-.624.632-3.434.632-3.434s-1.072-3.893-.744-5.933S4554.62,1647.307,4554.62,1647.307Z" transform="translate(-4546.021 -1631.026)" fill="url(#linear-gradient-2)"/>
        <path id="Trazado_101474" data-name="Trazado 101474" d="M4562.842,1649.517a16.019,16.019,0,0,0,4.659,1.4,10.309,10.309,0,0,1-.109-2.9c.152-.942-.971-1.164-2.224-1.132-1.64.15-3.1.423-3.1.423l-.208,1.4A3.417,3.417,0,0,0,4562.842,1649.517Z" transform="translate(-4553.468 -1631.032)" fill="url(#linear-gradient-2)"/>
        <path id="Trazado_101475" data-name="Trazado 101475" d="M4514.218,1537.323c-.17,0,1.627,8.146,4.408,9.548s6.929.671,7.708-1.523c.86-2.427-2.28-10.738-6.191-11.793S4514.218,1537.323,4514.218,1537.323Z" transform="translate(-4510.815 -1529.453)" fill="url(#linear-gradient-2)"/>
        <path id="Trazado_101476" data-name="Trazado 101476" d="M4488.493,1496.13a9.2,9.2,0,0,0-3.584,4.226c-1.043.528-2.3,1.67-2.91,4.748a6.673,6.673,0,0,0,4.709,7.578c2.807.877,3.281,2.86,3.281,2.86l.278-2.133a8.6,8.6,0,0,0-1.563-2.787c-.939-.93.445-2.284.567-3.389.093-.851-.493-2.5-.366-3.9,0,0,1.56-2.523,3.1-3.146C4494.622,1499.125,4491.343,1494.375,4488.493,1496.13Z" transform="translate(-4481.872 -1495.745)" fill="#0b0754"/>
        <path id="Trazado_101477" data-name="Trazado 101477" d="M4537.67,1607.142c.363.941.215,1.875-.332,2.086s-1.285-.38-1.648-1.321-.215-1.875.332-2.086S4537.306,1606.2,4537.67,1607.142Z" transform="translate(-4529.866 -1594.236)" fill="url(#linear-gradient-2)"/>
      </g>
      <path id="Trazado_101478" data-name="Trazado 101478" d="M4655.023,1899.83l16.188-2.817s-1.842-4.949-2.5-4.949-12.241,5.4-12.241,5.4l-.921,1.974Z" transform="translate(-4636.86 -1850.492)" fill="url(#linear-gradient-2)"/>
      <path id="Trazado_101479" data-name="Trazado 101479" d="M4552.439,2072.283s-1.615,8.332-.957,14.65.709,28.76.709,28.76l-2.511,35.908,5.959.139s7.065-35.891,6.934-34.969,2.369-25.271,2.369-25.271l-8.424-20.006Z" transform="translate(-4542.568 -2011.099)" fill="#0b0754"/>
      <path id="Trazado_101480" data-name="Trazado 101480" d="M4587.629,2051.671s-1.053,7.5.263,10.793,11.29,35.576,11.421,38.208,3.448,31.728,3.448,31.728l6.929-.208,1.5-32.348-3.139-40.657L4605,2048.907Z" transform="translate(-4576.179 -1990.882)" fill="#0b0754"/>
      <path id="Trazado_101481" data-name="Trazado 101481" d="M4553.539,1700.33a5.967,5.967,0,0,0,3.3,1.058,10.65,10.65,0,0,0,3.847-1.708l-.313-1.133s-4.123-.641-4.227-.572S4553.539,1700.33,4553.539,1700.33Z" transform="translate(-4546.021 -1676.757)" fill="url(#linear-gradient-2)"/>
      <path id="Trazado_101482" data-name="Trazado 101482" d="M4727.143,1837.566s6.123,6.167,8.887,5.114,3.908-4.652-2.836-9.918C4727.158,1828.049,4727.143,1837.566,4727.143,1837.566Z" transform="translate(-4701.415 -1796.237)" fill="url(#linear-gradient-2)"/>
      <path id="Trazado_101483" data-name="Trazado 101483" d="M4527.13,1739.275c-.909-5.281-7.5-21.717-8.028-24.744-.256-1.472-3.812-1.505-7.2-1.313-3.578.2-7.132.686-7.132.686s-3.167.555-4.561,1.948-1.764,5.247.24,12.563c1.581,5.775,3.542,8.946,4.511,13.153.2,1.411.365,2.8.588,4.429.356,6.29,0,14.6,0,14.6s17.242,3.817,23.691-1.974C4529.236,1758.623,4528.063,1744.686,4527.13,1739.275Z" transform="translate(-4497.253 -1690.331)" fill="url(#linear-gradient-7)"/>
      <path id="Trazado_101484" data-name="Trazado 101484" d="M4643.993,1729.72s-6.765,5.96-7.16,5.96c-.254,0-9.654-7.38-11.825-13.443-1.2-3.352,1.317-7.1,4.191-7.09,1.992.009,2.877.556,6.826,4.11S4643.993,1729.72,4643.993,1729.72Z" transform="translate(-4609.719 -1692.133)" fill="#c292f9"/>
    </g>
    <g id="Grupo_53644" data-name="Grupo 53644" transform="translate(3976.846 496.305)">
      <path id="Trazado_101485" data-name="Trazado 101485" d="M5540.64,551.623l-14.669,9.924a3.255,3.255,0,0,1-4.521-.872l-9.924-14.669a3.256,3.256,0,0,1,.873-4.521l14.669-9.924a3.256,3.256,0,0,1,4.521.872l9.924,14.669A3.256,3.256,0,0,1,5540.64,551.623Z" transform="translate(-5510.966 -531.002)" fill="#fac967"/>
      <path id="Trazado_101486" data-name="Trazado 101486" d="M5594.045,597.278a8.3,8.3,0,1,1-11.526-2.224A8.3,8.3,0,0,1,5594.045,597.278Z" transform="translate(-5571.746 -587.059)" fill="#fff"/>
      <path id="Trazado_101487" data-name="Trazado 101487" d="M5631.944,640.253l3.4,3.713a.668.668,0,1,1-.984.9.682.682,0,0,1-.1-.144Z" transform="translate(-5619.254 -628.793)" fill="#fac967"/>
      <path id="Trazado_101488" data-name="Trazado 101488" d="M5654.139,651.383l5.137-2.875-4.481,3.818a.577.577,0,1,1-.748-.878A.609.609,0,0,1,5654.139,651.383Z" transform="translate(-5638.856 -636.182)" fill="#fac967"/>
    </g>
    <rect id="Rectángulo_5270" data-name="Rectángulo 5270" width="49.1" height="25.541" rx="12.771" transform="translate(3822.518 571.733)" fill="#e3bef9"/>
    <path id="Trazado_101489" data-name="Trazado 101489" d="M4452.265,1351.175l12.093,5.42-8.1-11.333Z" transform="translate(-586.474 -763.544)" fill="#e3bef9"/>
    <g id="Grupo_53645" data-name="Grupo 53645" transform="translate(3834.631 581.795)">
      <path id="Trazado_101490" data-name="Trazado 101490" d="M4159.45,1347.871a2.133,2.133,0,1,1-2.118-1.883A2.011,2.011,0,0,1,4159.45,1347.871Z" transform="translate(-4155.214 -1345.988)" fill="#fff"/>
      <path id="Trazado_101491" data-name="Trazado 101491" d="M4253.393,1347.871a2.133,2.133,0,1,1-2.118-1.883A2.011,2.011,0,0,1,4253.393,1347.871Z" transform="translate(-4239.303 -1345.988)" fill="#fff"/>
      <path id="Trazado_101492" data-name="Trazado 101492" d="M4347.337,1347.871a2.133,2.133,0,1,1-2.118-1.883A2.011,2.011,0,0,1,4347.337,1347.871Z" transform="translate(-4323.393 -1345.988)" fill="#fff"/>
    </g>
    <g id="Grupo_53646" data-name="Grupo 53646" transform="translate(3970.709 492.239)">
      <path id="Trazado_101493" data-name="Trazado 101493" d="M5454.462,497.264l-1.993-4.249,1.655-.777,1.13,2.409,2.76-1.669.947,1.565Z" transform="translate(-5452.469 -492.239)" fill="#e3bef9"/>
    </g>
    <g id="Grupo_53647" data-name="Grupo 53647" transform="translate(3854.862 553.643)">
      <path id="Trazado_101494" data-name="Trazado 101494" d="M4353.11,1082.351l-4.42,1.576-.615-1.723,2.506-.894-1.4-2.908,1.648-.792Z" transform="translate(-4348.076 -1077.611)" fill="#fac967"/>
    </g>
    <g id="Grupo_53648" data-name="Grupo 53648" transform="translate(4043.037 514.685)">
      <path id="Trazado_101495" data-name="Trazado 101495" d="M6142.017,707.121l.985,3.14c.257.819.448,2.149,1.248,2.613a.462.462,0,0,0,.628-.165c.4-.872-.173-1.989-.447-2.843q-.5-1.567-1-3.135c-.286-.893-1.695-.514-1.412.389Z" transform="translate(-6141.979 -706.223)" fill="#d192f9"/>
    </g>
    <g id="Grupo_53649" data-name="Grupo 53649" transform="translate(4052.521 513.944)">
      <path id="Trazado_101496" data-name="Trazado 101496" d="M6234.019,699.661c-1.7,5.787-1.713,5.613-1.587,6.2a.626.626,0,0,0,1.039.274c.4-.409.3-.289,1.936-6.1a.72.72,0,0,0-1.388-.382Z" transform="translate(-6232.385 -699.154)" fill="#d192f9"/>
    </g>
    <g id="Grupo_53650" data-name="Grupo 53650" transform="translate(4059.52 523.484)">
      <path id="Trazado_101497" data-name="Trazado 101497" d="M6300.215,793.953l3-1.437a6.774,6.774,0,0,0,2.643-1.572c.267-.355-.1-.823-.479-.834-.986-.029-2.039.727-2.9,1.146l-2.989,1.45c-.837.406-.1,1.648.73,1.248Z" transform="translate(-6299.116 -790.108)" fill="#d192f9"/>
    </g>
    <g id="Grupo_53651" data-name="Grupo 53651" transform="translate(4057.192 543.509)">
      <path id="Trazado_101498" data-name="Trazado 101498" d="M6277.077,982.211a47.914,47.914,0,0,0,3.212,3.883c.625.65,1.533-.3.975-.974-1.077-1.291-2.182-2.55-3.221-3.874-.543-.693-1.5.281-.966.966Z" transform="translate(-6276.921 -981.007)" fill="#d192f9"/>
    </g>
    <g id="Grupo_53652" data-name="Grupo 53652" transform="translate(4060.767 536.63)">
      <path id="Trazado_101499" data-name="Trazado 101499" d="M6311.35,916.76c.924.406,1.861.782,2.8,1.15a6.141,6.141,0,0,0,2.808.8c.493-.07.55-.729.273-1.034-.347-.382-.534-.353-2.577-1.14-.921-.355-1.836-.728-2.761-1.074-.743-.278-1.28.971-.545,1.293Z" transform="translate(-6310.999 -915.427)" fill="#d192f9"/>
    </g>
  </g>
</svg>
