<svg xmlns="http://www.w3.org/2000/svg" xmlns:xlink="http://www.w3.org/1999/xlink" width="216.223" height="213.5" viewBox="0 0 216.223 213.5">
  <defs>
    <linearGradient id="linear-gradient" x1="1.078" y1="1.152" x2="0.384" y2="0.406" gradientUnits="objectBoundingBox">
      <stop offset="0" stop-color="#dedafe"/>
      <stop offset="1" stop-color="#ebe9fd"/>
    </linearGradient>
    <linearGradient id="linear-gradient-2" x1="0.664" y1="-0.362" x2="0.286" y2="2.337" gradientUnits="objectBoundingBox">
      <stop offset="0" stop-color="#2c005d"/>
      <stop offset="1" stop-color="#4a0f91"/>
    </linearGradient>
    <linearGradient id="linear-gradient-3" x1="0.519" y1="-0.334" x2="0.487" y2="0.978" xlink:href="#linear-gradient-2"/>
    <linearGradient id="linear-gradient-4" x1="0.488" y1="-4.387" x2="0.501" y2="1.057" xlink:href="#linear-gradient-2"/>
    <linearGradient id="linear-gradient-5" x1="2.193" y1="0.142" x2="6.638" y2="-0.798" gradientUnits="objectBoundingBox">
      <stop offset="0" stop-color="#8e4fff"/>
      <stop offset="1" stop-color="#7a40e2"/>
    </linearGradient>
    <linearGradient id="linear-gradient-6" x1="2.489" y1="-0.141" x2="6.934" y2="-1.573" xlink:href="#linear-gradient-5"/>
    <linearGradient id="linear-gradient-7" x1="0.551" y1="0.493" x2="4.996" y2="-0.131" xlink:href="#linear-gradient-5"/>
    <linearGradient id="linear-gradient-8" x1="2.346" y1="-0.579" x2="6.791" y2="-3.177" xlink:href="#linear-gradient-5"/>
    <linearGradient id="linear-gradient-9" x1="0.233" y1="0.543" x2="4.678" y2="-0.177" xlink:href="#linear-gradient-5"/>
    <linearGradient id="linear-gradient-10" x1="0.309" y1="0.537" x2="4.754" y2="-0.334" xlink:href="#linear-gradient-5"/>
    <linearGradient id="linear-gradient-11" x1="0.421" y1="0.52" x2="4.866" y2="-0.608" xlink:href="#linear-gradient-5"/>
    <clipPath id="clip-path">
      <path id="Trazado_102415" data-name="Trazado 102415" d="M935.656-1213.614a11.881,11.881,0,0,0-11.881,11.881,11.88,11.88,0,0,0,11.881,11.881,11.88,11.88,0,0,0,11.881-11.881A11.881,11.881,0,0,0,935.656-1213.614Zm0,18.649a6.769,6.769,0,0,1-6.769-6.769,6.769,6.769,0,0,1,6.769-6.769,6.769,6.769,0,0,1,6.769,6.769A6.769,6.769,0,0,1,935.656-1194.965Z" transform="translate(-923.775 1213.614)" fill="#fff" opacity="0.57"/>
    </clipPath>
    <linearGradient id="linear-gradient-12" x1="1.923" y1="-4.485" x2="0.061" y2="2.038" gradientUnits="objectBoundingBox">
      <stop offset="0" stop-color="#ffb08e"/>
      <stop offset="1" stop-color="#fe9962"/>
    </linearGradient>
    <clipPath id="clip-path-2">
      <path id="Trazado_102417" data-name="Trazado 102417" d="M1051.606-1213.614a11.881,11.881,0,0,0-11.881,11.881,11.88,11.88,0,0,0,11.881,11.881,11.881,11.881,0,0,0,11.881-11.881A11.881,11.881,0,0,0,1051.606-1213.614Zm0,18.649a6.769,6.769,0,0,1-6.769-6.769,6.769,6.769,0,0,1,6.769-6.769,6.769,6.769,0,0,1,6.769,6.769A6.769,6.769,0,0,1,1051.606-1194.965Z" transform="translate(-1039.725 1213.614)" fill="#fff" opacity="0.57"/>
    </clipPath>
    <linearGradient id="linear-gradient-13" x1="1.629" y1="-2.351" x2="-0.234" y2="2.354" xlink:href="#linear-gradient-12"/>
    <clipPath id="clip-path-3">
      <path id="Trazado_102419" data-name="Trazado 102419" d="M1167.555-1213.614a11.881,11.881,0,0,0-11.881,11.881,11.881,11.881,0,0,0,11.881,11.881,11.881,11.881,0,0,0,11.881-11.881A11.881,11.881,0,0,0,1167.555-1213.614Zm0,18.649a6.769,6.769,0,0,1-6.769-6.769,6.769,6.769,0,0,1,6.769-6.769,6.769,6.769,0,0,1,6.769,6.769A6.769,6.769,0,0,1,1167.555-1194.965Z" transform="translate(-1155.674 1213.614)" fill="#fff" opacity="0.57"/>
    </clipPath>
    <linearGradient id="linear-gradient-14" x1="1.459" y1="-6.217" x2="-0.404" y2="6.829" xlink:href="#linear-gradient-12"/>
    <linearGradient id="linear-gradient-15" x1="0.918" y1="-0.764" x2="-1.18" y2="5.578" gradientUnits="objectBoundingBox">
      <stop offset="0" stop-color="#fecdba"/>
      <stop offset="1" stop-color="#ffb08e"/>
    </linearGradient>
    <linearGradient id="linear-gradient-16" x1="0.918" y1="-0.764" x2="-1.18" y2="5.579" xlink:href="#linear-gradient-15"/>
    <linearGradient id="linear-gradient-17" x1="0.918" y1="-0.764" x2="-1.18" y2="5.578" xlink:href="#linear-gradient-15"/>
    <linearGradient id="linear-gradient-18" x1="0.918" y1="-0.764" x2="-1.18" y2="5.578" xlink:href="#linear-gradient-15"/>
    <linearGradient id="linear-gradient-19" x1="0.918" y1="-0.764" x2="-1.18" y2="5.579" xlink:href="#linear-gradient-15"/>
    <linearGradient id="linear-gradient-20" x1="0.918" y1="-0.764" x2="-1.18" y2="5.579" xlink:href="#linear-gradient-5"/>
    <linearGradient id="linear-gradient-21" x1="0" y1="0.5" x2="1" y2="0.5" xlink:href="#linear-gradient"/>
    <linearGradient id="linear-gradient-23" x1="1.327" y1="-0.174" x2="-0.781" y2="1.65" gradientUnits="objectBoundingBox">
      <stop offset="0" stop-color="#abfd3f"/>
      <stop offset="1" stop-color="#d9543c"/>
    </linearGradient>
    <linearGradient id="linear-gradient-24" x1="0.338" y1="-0.484" x2="-2.497" y2="6.012" xlink:href="#linear-gradient-2"/>
    <linearGradient id="linear-gradient-25" x1="-5.201" y1="0.5" x2="-4.201" y2="0.5" xlink:href="#linear-gradient-15"/>
    <linearGradient id="linear-gradient-26" x1="-2.31" y1="0.5" x2="-1.31" y2="0.5" xlink:href="#linear-gradient-5"/>
    <linearGradient id="linear-gradient-27" x1="-4.538" y1="-2.223" x2="-11.555" y2="5.384" xlink:href="#linear-gradient-2"/>
    <linearGradient id="linear-gradient-28" x1="-14.531" y1="0.5" x2="-13.531" y2="0.5" xlink:href="#linear-gradient-15"/>
    <linearGradient id="linear-gradient-29" x1="-2.253" y1="0.5" x2="-1.253" y2="0.5" xlink:href="#linear-gradient-5"/>
    <linearGradient id="linear-gradient-30" x1="55.646" y1="-14.715" x2="53.246" y2="-14.061" xlink:href="#linear-gradient-12"/>
    <linearGradient id="linear-gradient-31" x1="1.397" y1="0.5" x2="2.397" y2="0.5" xlink:href="#linear-gradient-15"/>
    <linearGradient id="linear-gradient-32" x1="299.032" y1="1.605" x2="301.033" y2="4.278" xlink:href="#linear-gradient-15"/>
    <linearGradient id="linear-gradient-33" x1="17.879" y1="0.706" x2="19.898" y2="-1.072" xlink:href="#linear-gradient-15"/>
    <linearGradient id="linear-gradient-34" x1="137.337" y1="-38.594" x2="131.31" y2="-36.922" xlink:href="#linear-gradient-12"/>
    <linearGradient id="linear-gradient-35" x1="-2.144" y1="0.5" x2="-1.144" y2="0.5" xlink:href="#linear-gradient-15"/>
    <linearGradient id="linear-gradient-36" x1="0.112" y1="-0.062" x2="0.626" y2="2.428" xlink:href="#linear-gradient-2"/>
    <linearGradient id="linear-gradient-37" x1="0.798" y1="-3.497" x2="0.225" y2="1.805" xlink:href="#linear-gradient-5"/>
    <linearGradient id="linear-gradient-38" x1="0.463" y1="-1.235" x2="0.32" y2="1.146" xlink:href="#linear-gradient-5"/>
    <linearGradient id="linear-gradient-39" x1="-3.15" y1="0.5" x2="-2.15" y2="0.5" xlink:href="#linear-gradient-15"/>
    <linearGradient id="linear-gradient-40" x1="-3.069" y1="0.5" x2="-2.069" y2="0.5" xlink:href="#linear-gradient-15"/>
    <linearGradient id="linear-gradient-41" x1="17.117" y1="-24.254" x2="15.908" y2="-22.96" xlink:href="#linear-gradient-15"/>
    <linearGradient id="linear-gradient-42" x1="11.695" y1="-15.385" x2="12.732" y2="-15.385" xlink:href="#linear-gradient-2"/>
    <linearGradient id="linear-gradient-43" x1="40.293" y1="-75.226" x2="42.98" y2="-77.768" xlink:href="#linear-gradient-15"/>
  </defs>
  <g id="Grupo_53894" data-name="Grupo 53894" transform="translate(-856.897 1461.956)">
    <path id="Trazado_102390" data-name="Trazado 102390" d="M1062.356-1286.7a93.9,93.9,0,0,1-50.577,27.626c-47.308,9.28-111.253-4.865-125.653-57.025-8.777-31.791-2.631-68.974,15.4-96.519,19.816-30.276,55.59-50.706,92.2-49.265,35.823,1.41,70.935,29.609,85.775,60.974C1098.216-1361.358,1089.9-1315.759,1062.356-1286.7Z" transform="translate(-18.963)" fill="url(#linear-gradient)"/>
    <g id="Grupo_53866" data-name="Grupo 53866" transform="translate(862.436 -1455.742)">
      <g id="Grupo_53860" data-name="Grupo 53860">
        <g id="Grupo_53856" data-name="Grupo 53856" opacity="0.3">
          <path id="Trazado_102391" data-name="Trazado 102391" d="M941.117-1421.107a.774.774,0,0,1-1.062-.262c-.429-.71-.9-1.413-1.387-2.087a.774.774,0,0,1,.158-1.072l.012-.009a.774.774,0,0,1,1.081.171c.517.71,1.008,1.449,1.46,2.2a.774.774,0,0,1-.194,1.016C941.163-1421.137,941.14-1421.121,941.117-1421.107Zm-5.064-5.469c-.578-.6-1.187-1.183-1.811-1.73a.774.774,0,0,1-.072-1.092.773.773,0,0,1,1.092-.072c.656.576,1.3,1.188,1.906,1.821a.774.774,0,0,1-.021,1.094.81.81,0,0,1-.07.06A.774.774,0,0,1,936.053-1426.576ZM931-1430.769c-.7-.456-1.419-.887-2.152-1.282a.774.774,0,0,1-.314-1.048.774.774,0,0,1,1.048-.314c.771.416,1.533.87,2.266,1.351a.774.774,0,0,1,.223,1.071.77.77,0,0,1-.18.193A.774.774,0,0,1,931-1430.769Zm-5.86-2.959c-.781-.289-1.583-.548-2.385-.77a.773.773,0,0,1-.54-.951.774.774,0,0,1,.951-.54c.844.233,1.689.506,2.511.81a.773.773,0,0,1,.456.994.77.77,0,0,1-.258.348A.774.774,0,0,1,925.143-1433.728Zm-6.374-1.58c-.823-.108-1.664-.183-2.5-.222a.774.774,0,0,1-.737-.809.773.773,0,0,1,.809-.736c.876.041,1.76.12,2.626.234a.773.773,0,0,1,.666.868.77.77,0,0,1-.3.515A.771.771,0,0,1,918.769-1435.308Zm-6.564-.13c-.828.076-1.664.189-2.483.335a.774.774,0,0,1-.9-.625.774.774,0,0,1,.625-.9c.862-.154,1.741-.273,2.613-.353a.774.774,0,0,1,.841.7.772.772,0,0,1-.3.688A.77.77,0,0,1,912.2-1435.438Zm-24.148,15.554a.774.774,0,0,1-.312-1.049c.417-.77.873-1.531,1.355-2.264a.773.773,0,0,1,1.071-.22.773.773,0,0,1,.221,1.071c-.458.7-.891,1.419-1.287,2.15a.769.769,0,0,1-.213.248A.773.773,0,0,1,888.057-1419.885Zm17.722-14.226c-.79.259-1.579.554-2.344.88a.774.774,0,0,1-1.015-.409.775.775,0,0,1,.409-1.015c.806-.343,1.636-.654,2.469-.926a.774.774,0,0,1,.976.495.774.774,0,0,1-.268.857A.778.778,0,0,1,905.779-1434.111Zm-14.009,8.6a.774.774,0,0,1-.069-1.092c.578-.656,1.193-1.3,1.826-1.9a.772.772,0,0,1,1.094.024.774.774,0,0,1-.023,1.094c-.6.576-1.185,1.185-1.735,1.809a.781.781,0,0,1-.114.106A.773.773,0,0,1,891.77-1425.511Zm8.042-5.87c-.712.428-1.415.893-2.089,1.382a.773.773,0,0,1-1.08-.172.773.773,0,0,1,.159-1.07l.013-.01c.71-.515,1.45-1,2.2-1.455a.774.774,0,0,1,1.062.264.774.774,0,0,1-.2,1.015C899.859-1431.411,899.836-1431.4,899.812-1431.381Z" transform="translate(-885.508 1437.077)" fill="#9a91fa"/>
          <path id="Trazado_102392" data-name="Trazado 102392" d="M880.313-1356.2a.769.769,0,0,0,.268-.376c.123-.379.257-.762.4-1.138a.774.774,0,0,0-.456-.994.773.773,0,0,0-.994.456c-.147.4-.287.8-.417,1.2a.774.774,0,0,0,.5.975A.773.773,0,0,0,880.313-1356.2Z" transform="translate(-879.072 1378.322)" fill="#9a91fa"/>
        </g>
        <g id="Grupo_53857" data-name="Grupo 53857" transform="translate(1.47 38.111)" opacity="0.3">
          <path id="Trazado_102393" data-name="Trazado 102393" d="M886.758-1261.947a.774.774,0,0,0,.215-.98c-.188-.352-.371-.714-.545-1.075a.773.773,0,0,0-1.032-.362.773.773,0,0,0-.362,1.032c.183.381.376.762.573,1.132a.774.774,0,0,0,1.046.319A.773.773,0,0,0,886.758-1261.947Z" transform="translate(-884.958 1269.45)" fill="#9a91fa"/>
          <path id="Trazado_102394" data-name="Trazado 102394" d="M938.495-1251.121a.773.773,0,0,1-1.075-.2.774.774,0,0,1,.2-1.075c.672-.459,1.334-.953,1.977-1.475a.774.774,0,0,1,1.088.113.774.774,0,0,1-.113,1.088q-.418.339-.843.661C939.326-1251.7,938.91-1251.4,938.495-1251.121Zm4.072-4.388a.773.773,0,0,1-.035-1.093c.561-.6,1.1-1.227,1.61-1.868a.773.773,0,0,1,1.086-.127.774.774,0,0,1,.126,1.086c-.534.675-1.1,1.337-1.695,1.966a.791.791,0,0,1-.1.088A.774.774,0,0,1,942.566-1255.509Zm-7.707,6.521c-.771.383-1.568.74-2.37,1.057a.774.774,0,0,1-1-.434.774.774,0,0,1,.434-1c.762-.3,1.519-.64,2.25-1a.774.774,0,0,1,1.037.348.774.774,0,0,1-.225.961A.785.785,0,0,1,934.859-1248.988Zm11.82-11.727a.773.773,0,0,1-.274-1.059c.415-.706.805-1.438,1.159-2.175a.773.773,0,0,1,1.032-.363.773.773,0,0,1,.363,1.032c-.373.777-.784,1.548-1.221,2.291a.772.772,0,0,1-.2.224A.774.774,0,0,1,946.679-1260.714Zm-18.2,14.063c-.835.2-1.691.376-2.544.51a.774.774,0,0,1-.884-.644.773.773,0,0,1,.644-.885c.81-.127,1.623-.29,2.416-.485a.774.774,0,0,1,.935.567.774.774,0,0,1-.285.8A.769.769,0,0,1,928.476-1246.651Zm-6.741.881c-.862.017-1.734,0-2.594-.057a.773.773,0,0,1-.723-.821.773.773,0,0,1,.821-.723c.817.052,1.646.07,2.465.054a.774.774,0,0,1,.789.758.773.773,0,0,1-.307.632A.77.77,0,0,1,921.735-1245.77Zm-6.773-.609c-.846-.171-1.693-.38-2.52-.62a.774.774,0,0,1-.527-.959.773.773,0,0,1,.959-.527c.785.229,1.591.427,2.394.589a.773.773,0,0,1,.6.911.771.771,0,0,1-.291.463A.772.772,0,0,1,914.962-1246.379Zm-6.478-2.072c-.788-.352-1.57-.741-2.324-1.158a.774.774,0,0,1-.3-1.051.774.774,0,0,1,1.051-.3c.716.4,1.458.765,2.207,1.1a.773.773,0,0,1,.391,1.021.771.771,0,0,1-.239.3A.773.773,0,0,1,908.484-1248.452Zm-5.868-3.447c-.689-.516-1.366-1.067-2.01-1.64a.774.774,0,0,1-.064-1.092.774.774,0,0,1,1.092-.064c.612.544,1.255,1.068,1.909,1.558a.773.773,0,0,1,.156,1.082.773.773,0,0,1-.153.154A.774.774,0,0,1,902.616-1251.9Zm-4.963-4.647c-.413-.481-.816-.981-1.2-1.486q-.208-.274-.408-.551a.765.765,0,0,1,.173-1.08.773.773,0,0,1,1.08.173q.191.263.388.524c.363.48.747.955,1.139,1.413a.773.773,0,0,1-.083,1.091l-.037.03A.774.774,0,0,1,897.653-1256.545Z" transform="translate(-893.165 1269.411)" fill="#9a91fa"/>
          <path id="Trazado_102395" data-name="Trazado 102395" d="M1109.792-1281.923a.771.771,0,0,0,.269-.38c.128-.4.25-.808.362-1.216a.773.773,0,0,0-.54-.951.773.773,0,0,0-.951.54c-.107.388-.223.776-.344,1.155a.773.773,0,0,0,.5.973A.773.773,0,0,0,1109.792-1281.923Z" transform="translate(-1052.703 1284.498)" fill="#9a91fa"/>
        </g>
        <g id="Grupo_53859" data-name="Grupo 53859" transform="translate(5.995 7.431)">
          <path id="Trazado_102396" data-name="Trazado 102396" d="M949.581-1385.868a.362.362,0,0,0-.231-.35l-4.1-1.584a19.175,19.175,0,0,0-2.165-5.82l2.068-3.881a.362.362,0,0,0-.054-.416l-3.594-3.865a.361.361,0,0,0-.411-.084l-4.02,1.781a19.168,19.168,0,0,0-5.648-2.582l-1.282-4.209a.362.362,0,0,0-.333-.256l-5.275-.192a.361.361,0,0,0-.35.231l-1.585,4.1a19.168,19.168,0,0,0-5.82,2.165l-3.88-2.068a.361.361,0,0,0-.416.054l-3.865,3.594a.362.362,0,0,0-.084.411l1.781,4.021a19.161,19.161,0,0,0-2.581,5.648l-4.209,1.282a.361.361,0,0,0-.256.333l-.192,5.274a.361.361,0,0,0,.231.35l4.105,1.585a19.154,19.154,0,0,0,2.165,5.82l-2.068,3.88a.361.361,0,0,0,.054.416l3.594,3.865a.361.361,0,0,0,.411.084l4.02-1.781a19.159,19.159,0,0,0,5.648,2.581l1.282,4.209a.361.361,0,0,0,.333.256l5.274.192a.362.362,0,0,0,.35-.231l1.584-4.105a19.158,19.158,0,0,0,5.82-2.164l3.881,2.068a.362.362,0,0,0,.416-.054l3.865-3.594a.362.362,0,0,0,.084-.411l-1.781-4.02a19.163,19.163,0,0,0,2.581-5.648l4.209-1.283a.361.361,0,0,0,.256-.332Z" transform="translate(-903.073 1407.326)" fill="#9a91fa"/>
          <g id="Grupo_53858" data-name="Grupo 53858" transform="translate(17.946 17.95)">
            <path id="Trazado_102397" data-name="Trazado 102397" d="M982.782-1325.507a5.311,5.311,0,0,1-7.2-2.1,5.27,5.27,0,0,1-.442-4.036,5.268,5.268,0,0,1,2.542-3.167,5.311,5.311,0,0,1,7.2,2.1,5.313,5.313,0,0,1-1.445,6.78A5.355,5.355,0,0,1,982.782-1325.507Zm-6.457-5.789a4.04,4.04,0,0,0,.339,3.095,4.072,4.072,0,0,0,5.523,1.61,4.072,4.072,0,0,0,1.61-5.523,4.073,4.073,0,0,0-5.523-1.609,4.161,4.161,0,0,0-.506.328A4.038,4.038,0,0,0,976.325-1331.3Z" transform="translate(-974.923 1335.462)" fill="#c3bdfb"/>
          </g>
          <path id="Trazado_102398" data-name="Trazado 102398" d="M964.4-1343.026a13.245,13.245,0,0,0,1.026-.862h0q.156-.144.307-.294a13.116,13.116,0,0,0,1.362-1.584l.017-.023.047-.065.091-.128a.31.31,0,0,0-.007-.364.3.3,0,0,0-.07-.067.309.309,0,0,0-.431.077,12.488,12.488,0,0,1-1.737,2,12.424,12.424,0,0,1-11.6,2.919,12.347,12.347,0,0,1-5.956-3.557,12.556,12.556,0,0,1-.823-.979,12.329,12.329,0,0,1-2.5-7.933,12.344,12.344,0,0,1,3.956-8.648,12.438,12.438,0,0,1,17.561.638,12.448,12.448,0,0,1,.812.967,12.387,12.387,0,0,1,2.244,4.9.308.308,0,0,0,.056.122.309.309,0,0,0,.311.116.309.309,0,0,0,.239-.367,13.009,13.009,0,0,0-2.355-5.15,13.15,13.15,0,0,0-.852-1.015,13.061,13.061,0,0,0-18.436-.67,12.958,12.958,0,0,0-4.153,9.079,12.944,12.944,0,0,0,2.62,8.329,13.243,13.243,0,0,0,.863,1.028,12.959,12.959,0,0,0,9.079,4.153A12.945,12.945,0,0,0,964.4-1343.026Z" transform="translate(-933.403 1376.682)" fill="#c3bdfb"/>
        </g>
      </g>
      <g id="Grupo_53865" data-name="Grupo 53865" transform="translate(54.22 2.378)">
        <g id="Grupo_53861" data-name="Grupo 53861" transform="translate(0.391)" opacity="0.3">
          <path id="Trazado_102399" data-name="Trazado 102399" d="M1231.816-1377.955a.478.478,0,0,0,.158-.55c-.144-.379-.3-.759-.468-1.13a.478.478,0,0,0-.632-.24.477.477,0,0,0-.24.631c.159.353.308.715.446,1.077a.478.478,0,0,0,.616.277A.48.48,0,0,0,1231.816-1377.955Z" transform="translate(-1197.402 1391.815)" fill="#9a91fa"/>
          <path id="Trazado_102400" data-name="Trazado 102400" d="M1130.471-1416.968a.478.478,0,0,1-.656-.16,19.783,19.783,0,0,0-1.128-1.657q-.127-.168-.259-.334a.478.478,0,0,1,.078-.671.5.5,0,0,1,.672.078q.137.174.271.35a20.708,20.708,0,0,1,1.182,1.738.478.478,0,0,1-.119.629A.464.464,0,0,1,1130.471-1416.968Zm-3.661-3.959a19.821,19.821,0,0,0-1.826-1.6.477.477,0,0,1-.087-.67.479.479,0,0,1,.67-.087,20.757,20.757,0,0,1,1.914,1.674.478.478,0,0,1,0,.676.472.472,0,0,1-.052.045A.478.478,0,0,1,1126.81-1420.928Zm-3.837-2.955a19.628,19.628,0,0,0-2.163-1.1.478.478,0,0,1-.249-.628.477.477,0,0,1,.628-.249,20.628,20.628,0,0,1,2.268,1.152.478.478,0,0,1,.169.654.472.472,0,0,1-.123.138A.478.478,0,0,1,1122.973-1423.883Zm-4.445-1.922a19.712,19.712,0,0,0-2.366-.536.477.477,0,0,1-.395-.548.478.478,0,0,1,.548-.395,20.674,20.674,0,0,1,2.481.562.478.478,0,0,1,.324.593.477.477,0,0,1-.17.246A.476.476,0,0,1,1118.528-1425.805Zm-4.78-.779a19.937,19.937,0,0,0-2.425.054.478.478,0,0,1-.516-.436.477.477,0,0,1,.436-.516,20.867,20.867,0,0,1,2.542-.057.478.478,0,0,1,.459.5.478.478,0,0,1-.189.363A.475.475,0,0,1,1113.748-1426.584Zm-4.824.405a19.581,19.581,0,0,0-2.336.644.478.478,0,0,1-.607-.3.479.479,0,0,1,.3-.608,20.631,20.631,0,0,1,2.451-.675.478.478,0,0,1,.566.369.478.478,0,0,1-.179.479A.471.471,0,0,1,1108.924-1426.179Zm-4.576,1.572a19.62,19.62,0,0,0-2.109,1.2.478.478,0,0,1-.661-.139.481.481,0,0,1,.139-.662,20.709,20.709,0,0,1,2.211-1.256.478.478,0,0,1,.639.219.477.477,0,0,1-.14.59A.49.49,0,0,1,1104.348-1424.607Zm-6.484,4.35a.478.478,0,0,1-.026-.675,20.776,20.776,0,0,1,1.586-1.538c.084-.074.169-.147.254-.219a.473.473,0,0,1,.673.058.478.478,0,0,1-.057.673c-.08.067-.16.136-.24.206a19.782,19.782,0,0,0-1.514,1.469.491.491,0,0,1-.062.057A.478.478,0,0,1,1097.864-1420.257Z" transform="translate(-1097.711 1427.555)" fill="#9a91fa"/>
        </g>
        <g id="Grupo_53862" data-name="Grupo 53862" transform="translate(6.284 25.524)" opacity="0.3">
          <path id="Trazado_102401" data-name="Trazado 102401" d="M1142.913-1303.356a20.786,20.786,0,0,1-2.1,1.359.478.478,0,0,1-.651-.181.48.48,0,0,1,.181-.651,19.8,19.8,0,0,0,2-1.3.477.477,0,0,1,.668.1.478.478,0,0,1-.1.664Zm1.246-1.624a.477.477,0,0,1,.021-.675,19.938,19.938,0,0,0,1.637-1.738.479.479,0,0,1,.673-.06.478.478,0,0,1,.061.673,20.9,20.9,0,0,1-1.716,1.821.518.518,0,0,1-.04.033A.477.477,0,0,1,1144.159-1304.98Zm-5.6,4.078a20.77,20.77,0,0,1-2.366.812.478.478,0,0,1-.588-.333.478.478,0,0,1,.333-.588,19.833,19.833,0,0,0,2.257-.774.478.478,0,0,1,.624.259.478.478,0,0,1-.153.563A.475.475,0,0,1,1138.563-1300.9Zm8.809-7.752a.478.478,0,0,1-.142-.661,19.647,19.647,0,0,0,1.169-2.081.479.479,0,0,1,.638-.222.478.478,0,0,1,.222.638,20.47,20.47,0,0,1-1.226,2.182.49.49,0,0,1-.113.122A.478.478,0,0,1,1147.372-1308.654Zm-13.622,9.083a20.763,20.763,0,0,1-2.491.219.478.478,0,0,1-.491-.465.478.478,0,0,1,.465-.491,19.627,19.627,0,0,0,2.376-.209.478.478,0,0,1,.543.4.478.478,0,0,1-.184.452A.478.478,0,0,1,1133.751-1299.572Zm-4.992.137a20.87,20.87,0,0,1-2.472-.383.477.477,0,0,1-.365-.568.478.478,0,0,1,.568-.365,20,20,0,0,0,2.358.365.478.478,0,0,1,.431.521.478.478,0,0,1-.188.336A.475.475,0,0,1,1128.759-1299.435Zm-4.881-1.062a20.721,20.721,0,0,1-2.309-.966.478.478,0,0,1-.218-.64.478.478,0,0,1,.639-.218,19.524,19.524,0,0,0,2.2.92.478.478,0,0,1,.294.609.473.473,0,0,1-.162.224A.479.479,0,0,1,1123.878-1300.5Z" transform="translate(-1121.302 1315.088)" fill="#9a91fa"/>
          <path id="Trazado_102402" data-name="Trazado 102402" d="M1234.108-1323.369a.475.475,0,0,0,.164-.227c.132-.387.253-.78.359-1.167a.478.478,0,0,0-.334-.588.479.479,0,0,0-.588.334c-.1.37-.217.744-.342,1.114a.478.478,0,0,0,.3.606A.477.477,0,0,0,1234.108-1323.369Z" transform="translate(-1205.357 1325.368)" fill="#9a91fa"/>
        </g>
        <g id="Grupo_53864" data-name="Grupo 53864" transform="translate(0 4.954)">
          <path id="Trazado_102403" data-name="Trazado 102403" d="M1127.266-1393.362a.242.242,0,0,0-.155-.234l-2.747-1.06a12.826,12.826,0,0,0-1.448-3.895l1.384-2.6a.242.242,0,0,0-.036-.278l-2.4-2.586a.242.242,0,0,0-.275-.057l-2.69,1.192a12.834,12.834,0,0,0-3.779-1.727l-.858-2.817a.242.242,0,0,0-.223-.171l-3.529-.128a.242.242,0,0,0-.234.155l-1.06,2.747a12.831,12.831,0,0,0-3.895,1.448l-2.6-1.384a.242.242,0,0,0-.278.036l-2.586,2.405a.241.241,0,0,0-.056.275l1.192,2.69a12.814,12.814,0,0,0-1.727,3.779l-2.816.858a.242.242,0,0,0-.171.223l-.128,3.529a.242.242,0,0,0,.155.234l2.747,1.06a12.825,12.825,0,0,0,1.448,3.895l-1.384,2.6a.242.242,0,0,0,.036.278l2.4,2.586a.242.242,0,0,0,.275.057l2.69-1.192a12.831,12.831,0,0,0,3.78,1.727l.858,2.817a.242.242,0,0,0,.222.171l3.529.128a.242.242,0,0,0,.234-.155l1.06-2.747a12.816,12.816,0,0,0,3.895-1.448l2.6,1.384a.243.243,0,0,0,.279-.036l2.586-2.405a.242.242,0,0,0,.056-.275l-1.192-2.69a12.82,12.82,0,0,0,1.727-3.779l2.817-.858a.242.242,0,0,0,.171-.223Z" transform="translate(-1096.145 1407.721)" fill="#9a91fa"/>
          <g id="Grupo_53863" data-name="Grupo 53863" transform="translate(11.947 11.947)">
            <path id="Trazado_102404" data-name="Trazado 102404" d="M1149.329-1353.107a3.588,3.588,0,0,1-2.75.3,3.589,3.589,0,0,1-2.157-1.731,3.619,3.619,0,0,1,1.43-4.907,3.618,3.618,0,0,1,4.906,1.43,3.59,3.59,0,0,1,.3,2.749,3.586,3.586,0,0,1-1.281,1.866A3.68,3.68,0,0,1,1149.329-1353.107Zm-4.069-1.89a2.64,2.64,0,0,0,1.587,1.274,2.641,2.641,0,0,0,2.022-.222h0a2.644,2.644,0,0,0,1.273-1.587,2.639,2.639,0,0,0-.222-2.022,2.661,2.661,0,0,0-3.609-1.052,2.655,2.655,0,0,0-.328.212A2.663,2.663,0,0,0,1145.26-1355Z" transform="translate(-1143.977 1359.888)" fill="#c3bdfb"/>
          </g>
          <path id="Trazado_102405" data-name="Trazado 102405" d="M1136.542-1365.311a9.148,9.148,0,0,0,.7-.588,9.038,9.038,0,0,0,1.21-1.378l.047-.068a.478.478,0,0,0-.01-.562.477.477,0,0,0-.108-.1.478.478,0,0,0-.665.118,8.056,8.056,0,0,1-1.124,1.292h0l-.069.063a7.966,7.966,0,0,1-3.474,1.858,8.094,8.094,0,0,1-2.154.229h-.018l-.055,0a7.992,7.992,0,0,1-5.6-2.561,8.121,8.121,0,0,1-.533-.634,7.985,7.985,0,0,1-1.616-5.136,7.991,7.991,0,0,1,2.561-5.6,8,8,0,0,1,5.77-2.148,7.992,7.992,0,0,1,5.6,2.561,8.007,8.007,0,0,1,.526.626,8.02,8.02,0,0,1,1.452,3.175.472.472,0,0,0,.087.189.477.477,0,0,0,.48.179.478.478,0,0,0,.368-.567,8.979,8.979,0,0,0-1.625-3.553,9.091,9.091,0,0,0-.588-.7,8.941,8.941,0,0,0-6.264-2.865,8.932,8.932,0,0,0-6.455,2.4,8.938,8.938,0,0,0-2.865,6.264,8.929,8.929,0,0,0,1.807,5.746,9.213,9.213,0,0,0,.6.709A9.013,9.013,0,0,0,1136.542-1365.311Z" transform="translate(-1115.628 1388.041)" fill="#c3bdfb"/>
        </g>
      </g>
    </g>
    <g id="Grupo_53888" data-name="Grupo 53888" transform="translate(856.897 -1412.579)">
      <g id="Grupo_53867" data-name="Grupo 53867" transform="translate(0 0)">
        <path id="Trazado_102406" data-name="Trazado 102406" d="M1207.169-808.428l-4.669,32.22h54.168l-7.055-32.22Z" transform="translate(-1116.176 922.288)" fill="url(#linear-gradient-2)"/>
        <path id="Trazado_102407" data-name="Trazado 102407" d="M856.9-1253.581v95.9a14.548,14.548,0,0,0,14.173,14.544c35.027.9,157.537,3.094,190.881,2.6a10.7,10.7,0,0,0,10.539-10.4c.643-22.279,1.687-75.852-2.177-100.725a11.015,11.015,0,0,0-10.533-9.324c-29.349-.939-159.217-3.92-192.545-3.172A10.574,10.574,0,0,0,856.9-1253.581Z" transform="translate(-856.897 1264.274)" fill="url(#linear-gradient-3)"/>
        <path id="Trazado_102408" data-name="Trazado 102408" d="M880.988-1242.856v91.112a8.429,8.429,0,0,0,8.3,8.428l185.937,2.3a8.2,8.2,0,0,0,8.326-8.172l.311-90.3a6,6,0,0,0-5.853-6.02l-190.365-3.846A6.5,6.5,0,0,0,880.988-1242.856Z" transform="translate(-874.971 1253.083)" fill="#9a91fa"/>
        <path id="Trazado_102409" data-name="Trazado 102409" d="M1084.179-812.656h0l-203.965-3.475a.258.258,0,0,1-.253-.262.262.262,0,0,1,.262-.254l203.965,3.475a.258.258,0,0,1,.253.262A.258.258,0,0,1,1084.179-812.656Z" transform="translate(-874.196 928.454)" fill="#9a91fa"/>
        <path id="Trazado_102410" data-name="Trazado 102410" d="M1290.19-797.973a2.383,2.383,0,0,1-2.38-2.38,2.383,2.383,0,0,1,2.38-2.38,2.383,2.383,0,0,1,2.38,2.38A2.383,2.383,0,0,1,1290.19-797.973Zm0-4.244a1.867,1.867,0,0,0-1.864,1.865,1.867,1.867,0,0,0,1.864,1.864,1.867,1.867,0,0,0,1.865-1.864A1.867,1.867,0,0,0,1290.19-802.217Z" transform="translate(-1180.178 918.015)" fill="#9a91fa"/>
        <path id="Trazado_102411" data-name="Trazado 102411" d="M1217.686-680.388h-79.278c-2.154,0-3.771-1.533-3.355-3.18l1.017-4.023a3.279,3.279,0,0,1,3.218-2.147l76.427-2.385a3.38,3.38,0,0,1,3.474,2.083l1.834,6.408C1221.5-681.968,1219.875-680.388,1217.686-680.388Z" transform="translate(-1065.527 835.035)" fill="url(#linear-gradient-4)"/>
        <path id="Trazado_102412" data-name="Trazado 102412" d="M1318.768-679.9a.258.258,0,0,1-.258-.254.258.258,0,0,1,.254-.262l3.275-.048a.264.264,0,0,1,.262.254.258.258,0,0,1-.254.261l-3.275.048Z" transform="translate(-1203.21 826.286)" fill="#9a91fa"/>
        <path id="Trazado_102413" data-name="Trazado 102413" d="M1146.225-673.5a.256.256,0,0,1-.041,0,.258.258,0,0,1-.214-.3l.467-2.926a3.264,3.264,0,0,1,3.18-2.753l34.736-.508h0a.258.258,0,0,1,.258.254.258.258,0,0,1-.254.262l-34.736.508a2.749,2.749,0,0,0-2.679,2.319l-.467,2.926A.258.258,0,0,1,1146.225-673.5Z" transform="translate(-1073.764 825.924)" fill="#9a91fa"/>
      </g>
      <g id="Grupo_53869" data-name="Grupo 53869" transform="translate(109.243 16.595)">
        <g id="Grupo_53868" data-name="Grupo 53868" opacity="0.53">
          <rect id="Rectángulo_5339" data-name="Rectángulo 5339" width="4.89" height="86.259" fill="#fff"/>
          <rect id="Rectángulo_5340" data-name="Rectángulo 5340" width="4.89" height="86.259" transform="translate(8.171)" fill="#fff"/>
          <rect id="Rectángulo_5341" data-name="Rectángulo 5341" width="4.89" height="86.259" transform="translate(16.343)" fill="#fff"/>
          <rect id="Rectángulo_5342" data-name="Rectángulo 5342" width="4.89" height="86.259" transform="translate(24.514)" fill="#fff"/>
          <rect id="Rectángulo_5343" data-name="Rectángulo 5343" width="4.89" height="86.259" transform="translate(32.686)" fill="#fff"/>
          <rect id="Rectángulo_5344" data-name="Rectángulo 5344" width="4.89" height="86.259" transform="translate(40.857)" fill="#fff"/>
          <rect id="Rectángulo_5345" data-name="Rectángulo 5345" width="4.89" height="86.259" transform="translate(49.029)" fill="#fff"/>
        </g>
        <rect id="Rectángulo_5346" data-name="Rectángulo 5346" width="4.89" height="45.143" transform="translate(0 41.116)" fill="url(#linear-gradient-5)"/>
        <rect id="Rectángulo_5347" data-name="Rectángulo 5347" width="4.89" height="29.628" transform="translate(8.171 56.631)" fill="url(#linear-gradient-6)"/>
        <rect id="Rectángulo_5348" data-name="Rectángulo 5348" width="4.89" height="67.972" transform="translate(16.343 18.287)" fill="url(#linear-gradient-7)"/>
        <rect id="Rectángulo_5349" data-name="Rectángulo 5349" width="4.89" height="16.329" transform="translate(24.514 69.929)" fill="url(#linear-gradient-8)"/>
        <rect id="Rectángulo_5350" data-name="Rectángulo 5350" width="4.89" height="58.884" transform="translate(32.686 27.375)" fill="url(#linear-gradient-9)"/>
        <rect id="Rectángulo_5351" data-name="Rectángulo 5351" width="4.89" height="48.689" transform="translate(40.857 37.57)" fill="url(#linear-gradient-10)"/>
        <rect id="Rectángulo_5352" data-name="Rectángulo 5352" width="4.89" height="37.607" transform="translate(49.029 48.652)" fill="url(#linear-gradient-11)"/>
      </g>
      <g id="Grupo_53879" data-name="Grupo 53879" transform="translate(16.705 12.654)">
        <g id="Grupo_53872" data-name="Grupo 53872">
          <g id="Grupo_53871" data-name="Grupo 53871">
            <path id="Trazado_102414" data-name="Trazado 102414" d="M935.656-1213.614a11.881,11.881,0,0,0-11.881,11.881,11.88,11.88,0,0,0,11.881,11.881,11.88,11.88,0,0,0,11.881-11.881A11.881,11.881,0,0,0,935.656-1213.614Zm0,18.649a6.769,6.769,0,0,1-6.769-6.769,6.769,6.769,0,0,1,6.769-6.769,6.769,6.769,0,0,1,6.769,6.769A6.769,6.769,0,0,1,935.656-1194.965Z" transform="translate(-923.775 1213.614)" fill="#fff" opacity="0.57"/>
            <g id="Grupo_53870" data-name="Grupo 53870" clip-path="url(#clip-path)">
              <rect id="Rectángulo_5353" data-name="Rectángulo 5353" width="35.291" height="14.935" transform="translate(-4.711 9.268)" fill="url(#linear-gradient-12)"/>
            </g>
          </g>
        </g>
        <g id="Grupo_53875" data-name="Grupo 53875" transform="translate(28.962)">
          <g id="Grupo_53874" data-name="Grupo 53874">
            <path id="Trazado_102416" data-name="Trazado 102416" d="M1051.606-1213.614a11.881,11.881,0,0,0-11.881,11.881,11.88,11.88,0,0,0,11.881,11.881,11.881,11.881,0,0,0,11.881-11.881A11.881,11.881,0,0,0,1051.606-1213.614Zm0,18.649a6.769,6.769,0,0,1-6.769-6.769,6.769,6.769,0,0,1,6.769-6.769,6.769,6.769,0,0,1,6.769,6.769A6.769,6.769,0,0,1,1051.606-1194.965Z" transform="translate(-1039.725 1213.614)" fill="#fff" opacity="0.57"/>
            <g id="Grupo_53873" data-name="Grupo 53873" clip-path="url(#clip-path-2)">
              <rect id="Rectángulo_5354" data-name="Rectángulo 5354" width="35.291" height="20.708" transform="translate(-4.711 3.495)" fill="url(#linear-gradient-13)"/>
            </g>
          </g>
        </g>
        <g id="Grupo_53878" data-name="Grupo 53878" transform="translate(57.923)">
          <g id="Grupo_53877" data-name="Grupo 53877">
            <path id="Trazado_102418" data-name="Trazado 102418" d="M1167.555-1213.614a11.881,11.881,0,0,0-11.881,11.881,11.881,11.881,0,0,0,11.881,11.881,11.881,11.881,0,0,0,11.881-11.881A11.881,11.881,0,0,0,1167.555-1213.614Zm0,18.649a6.769,6.769,0,0,1-6.769-6.769,6.769,6.769,0,0,1,6.769-6.769,6.769,6.769,0,0,1,6.769,6.769A6.769,6.769,0,0,1,1167.555-1194.965Z" transform="translate(-1155.674 1213.614)" fill="#fff" opacity="0.57"/>
            <g id="Grupo_53876" data-name="Grupo 53876" clip-path="url(#clip-path-3)">
              <rect id="Rectángulo_5355" data-name="Rectángulo 5355" width="35.291" height="7.468" transform="translate(-4.71 16.735)" fill="url(#linear-gradient-14)"/>
            </g>
          </g>
        </g>
      </g>
      <g id="Grupo_53880" data-name="Grupo 53880" transform="translate(16.705 58.129)">
        <path id="Trazado_102420" data-name="Trazado 102420" d="M1002.7-986.347l-76.211-.572a2.737,2.737,0,0,1-2.716-2.737v-39.156a2.737,2.737,0,0,1,2.737-2.737h76.211a2.737,2.737,0,0,1,2.737,2.737v39.728A2.737,2.737,0,0,1,1002.7-986.347Z" transform="translate(-923.775 1031.549)" fill="#fff" opacity="0.44"/>
        <path id="Trazado_102421" data-name="Trazado 102421" d="M999.46-991.891l-9.8-10.361-14.052,15.283-9.915-10.7-9.3,10.512-7.131-8.663L935.21-981.187v10.581a2.545,2.545,0,0,0,2.526,2.545l70.881.533a2.546,2.546,0,0,0,2.565-2.545v-28.784Z" transform="translate(-932.354 1009.57)" fill="#fff" opacity="0.44"/>
        <rect id="Rectángulo_5356" data-name="Rectángulo 5356" width="0.258" height="24.65" transform="translate(67.166 17.391)" fill="#fff"/>
        <rect id="Rectángulo_5357" data-name="Rectángulo 5357" width="0.258" height="34.581" transform="translate(57.177 7.318)" fill="#fff"/>
        <rect id="Rectángulo_5358" data-name="Rectángulo 5358" width="0.258" height="19.378" transform="translate(43.126 22.415)" fill="#fff"/>
        <rect id="Rectángulo_5359" data-name="Rectángulo 5359" width="0.258" height="29.511" transform="translate(33.474 12.282)" fill="#fff"/>
        <rect id="Rectángulo_5360" data-name="Rectángulo 5360" width="0.258" height="19.693" transform="translate(23.911 22.1)" fill="#fff"/>
        <rect id="Rectángulo_5361" data-name="Rectángulo 5361" width="0.258" height="28.588" transform="translate(16.932 13.016)" fill="#fff"/>
        <circle id="Elipse_4025" data-name="Elipse 4025" cx="2.153" cy="2.153" r="2.153" transform="translate(14.247 14.182) rotate(-67.5)" fill="url(#linear-gradient-15)"/>
        <path id="Trazado_102422" data-name="Trazado 102422" d="M1017.18-947.329a1.419,1.419,0,0,1-1.419,1.419,1.419,1.419,0,0,1-1.419-1.419,1.419,1.419,0,0,1,1.419-1.419A1.419,1.419,0,0,1,1017.18-947.329Z" transform="translate(-991.721 969.429)" fill="url(#linear-gradient-16)"/>
        <path id="Trazado_102423" data-name="Trazado 102423" d="M1055.464-986.639a1.419,1.419,0,0,1-1.419,1.418,1.419,1.419,0,0,1-1.418-1.418,1.419,1.419,0,0,1,1.418-1.419A1.419,1.419,0,0,1,1055.464-986.639Z" transform="translate(-1020.443 998.921)" fill="url(#linear-gradient-17)"/>
        <path id="Trazado_102424" data-name="Trazado 102424" d="M1094.105-946.072a1.419,1.419,0,0,1-1.419,1.419,1.419,1.419,0,0,1-1.419-1.419,1.419,1.419,0,0,1,1.419-1.419A1.419,1.419,0,0,1,1094.105-946.072Z" transform="translate(-1049.432 968.486)" fill="url(#linear-gradient-18)"/>
        <path id="Trazado_102425" data-name="Trazado 102425" d="M1150.362-1006.513a1.419,1.419,0,0,1-1.419,1.419,1.419,1.419,0,0,1-1.419-1.419,1.419,1.419,0,0,1,1.419-1.419A1.419,1.419,0,0,1,1150.362-1006.513Z" transform="translate(-1091.637 1013.83)" fill="url(#linear-gradient-19)"/>
        <path id="Trazado_102426" data-name="Trazado 102426" d="M1190.353-966.185a1.418,1.418,0,0,1-1.418,1.418,1.418,1.418,0,0,1-1.419-1.418,1.418,1.418,0,0,1,1.419-1.418A1.418,1.418,0,0,1,1190.353-966.185Z" transform="translate(-1121.64 983.575)" fill="url(#linear-gradient-20)"/>
      </g>
      <g id="Grupo_53881" data-name="Grupo 53881" transform="translate(16.252 41.851)" opacity="0.48">
        <path id="Trazado_102427" data-name="Trazado 102427" d="M944.436-1057.648H923.545c-.874,0-1.583.493-1.583,1.1s.709,1.1,1.583,1.1h20.891c.874,0,1.582-.493,1.582-1.1S945.31-1057.648,944.436-1057.648Z" transform="translate(-921.962 1067.407)" fill="#fff"/>
        <path id="Trazado_102428" data-name="Trazado 102428" d="M944.436-1077.183H923.545c-.874,0-1.583.493-1.583,1.1s.709,1.1,1.583,1.1h20.891c.874,0,1.582-.494,1.582-1.1S945.31-1077.183,944.436-1077.183Z" transform="translate(-921.962 1082.063)" fill="#fff"/>
        <path id="Trazado_102429" data-name="Trazado 102429" d="M944.436-1096.719H923.545c-.874,0-1.583.494-1.583,1.1s.709,1.1,1.583,1.1h20.891c.874,0,1.582-.493,1.582-1.1S945.31-1096.719,944.436-1096.719Z" transform="translate(-921.962 1096.719)" fill="#fff"/>
      </g>
      <g id="Grupo_53882" data-name="Grupo 53882" transform="translate(45.292 41.851)" opacity="0.48">
        <path id="Trazado_102430" data-name="Trazado 102430" d="M1060.7-1057.648H1039.81c-.874,0-1.582.493-1.582,1.1s.709,1.1,1.582,1.1H1060.7c.874,0,1.582-.493,1.582-1.1S1061.576-1057.648,1060.7-1057.648Z" transform="translate(-1038.228 1067.407)" fill="#fff"/>
        <path id="Trazado_102431" data-name="Trazado 102431" d="M1060.7-1077.183H1039.81c-.874,0-1.582.493-1.582,1.1s.709,1.1,1.582,1.1H1060.7c.874,0,1.582-.494,1.582-1.1S1061.576-1077.183,1060.7-1077.183Z" transform="translate(-1038.228 1082.063)" fill="#fff"/>
        <path id="Trazado_102432" data-name="Trazado 102432" d="M1060.7-1096.719H1039.81c-.874,0-1.582.494-1.582,1.1s.709,1.1,1.582,1.1H1060.7c.874,0,1.582-.493,1.582-1.1S1061.576-1096.719,1060.7-1096.719Z" transform="translate(-1038.228 1096.719)" fill="#fff"/>
      </g>
      <g id="Grupo_53883" data-name="Grupo 53883" transform="translate(74.333 41.851)" opacity="0.48">
        <path id="Trazado_102433" data-name="Trazado 102433" d="M1176.968-1057.648h-20.891c-.874,0-1.582.493-1.582,1.1s.708,1.1,1.582,1.1h20.891c.874,0,1.583-.493,1.583-1.1S1177.842-1057.648,1176.968-1057.648Z" transform="translate(-1154.494 1067.407)" fill="#fff"/>
        <path id="Trazado_102434" data-name="Trazado 102434" d="M1176.968-1077.183h-20.891c-.874,0-1.582.493-1.582,1.1s.708,1.1,1.582,1.1h20.891c.874,0,1.583-.494,1.583-1.1S1177.842-1077.183,1176.968-1077.183Z" transform="translate(-1154.494 1082.063)" fill="#fff"/>
        <path id="Trazado_102435" data-name="Trazado 102435" d="M1176.968-1096.719h-20.891c-.874,0-1.582.494-1.582,1.1s.708,1.1,1.582,1.1h20.891c.874,0,1.583-.493,1.583-1.1S1177.842-1096.719,1176.968-1096.719Z" transform="translate(-1154.494 1096.719)" fill="#fff"/>
      </g>
      <g id="Grupo_53887" data-name="Grupo 53887" transform="translate(173.526 13.497)">
        <g id="Grupo_53884" data-name="Grupo 53884" transform="translate(1.422 32.45)">
          <circle id="Elipse_4026" data-name="Elipse 4026" cx="9.667" cy="9.667" r="9.667" transform="translate(0 19.296) rotate(-86.437)" fill="url(#linear-gradient-21)"/>
          <path id="Trazado_102436" data-name="Trazado 102436" d="M1580.717-1063.756a6.188,6.188,0,0,1,.465,2.359,6.209,6.209,0,0,1-6.209,6.209,6.209,6.209,0,0,1-6.209-6.209,6.209,6.209,0,0,1,6.209-6.209c.1,0,.209,0,.313.008v-1.574c-.1,0-.208-.007-.313-.007a7.782,7.782,0,0,0-7.782,7.782,7.782,7.782,0,0,0,7.782,7.782,7.782,7.782,0,0,0,7.782-7.782,7.761,7.761,0,0,0-.594-2.987Z" transform="translate(-1564.724 1071.961)" fill="#9a91fa"/>
          <path id="Trazado_102437" data-name="Trazado 102437" d="M1577.464-984.194h-15.753a1.79,1.79,0,0,0-1.79,1.79,1.79,1.79,0,0,0,1.79,1.79h15.753a1.79,1.79,0,0,0,1.79-1.79A1.79,1.79,0,0,0,1577.464-984.194Z" transform="translate(-1559.27 1008.204)" fill="#fff" opacity="0.5"/>
        </g>
        <g id="Grupo_53885" data-name="Grupo 53885" transform="translate(0 0)">
          <circle id="Elipse_4027" data-name="Elipse 4027" cx="9.667" cy="9.667" r="9.667" transform="matrix(0.23, -0.973, 0.973, 0.23, 0, 18.816)" fill="url(#linear-gradient-21)"/>
          <path id="Trazado_102438" data-name="Trazado 102438" d="M1578.025-1180.533a6.177,6.177,0,0,1-3.308.956,6.209,6.209,0,0,1-6.209-6.209,6.209,6.209,0,0,1,6.209-6.209q.157,0,.313.008v-1.574c-.1,0-.208-.007-.313-.007a7.782,7.782,0,0,0-7.782,7.782,7.782,7.782,0,0,0,7.782,7.782,7.747,7.747,0,0,0,4.089-1.16Z" transform="translate(-1563.11 1197.731)" fill="#9a91fa"/>
          <path id="Trazado_102439" data-name="Trazado 102439" d="M1577.631-1108.584h-15.753a1.79,1.79,0,0,0-1.79,1.79,1.79,1.79,0,0,0,1.79,1.79h15.753a1.79,1.79,0,0,0,1.79-1.79A1.79,1.79,0,0,0,1577.631-1108.584Z" transform="translate(-1557.974 1133.974)" fill="#fff" opacity="0.5"/>
        </g>
        <g id="Grupo_53886" data-name="Grupo 53886" transform="translate(1.456 63.678)">
          <circle id="Elipse_4028" data-name="Elipse 4028" cx="9.667" cy="9.667" r="9.667" transform="translate(0 19.296) rotate(-86.437)" fill="#fff" opacity="0.91"/>
          <path id="Trazado_102440" data-name="Trazado 102440" d="M1580.764-934.149a6.2,6.2,0,0,1-5.135,2.718,6.209,6.209,0,0,1-6.209-6.209,6.209,6.209,0,0,1,6.209-6.209c.105,0,.209,0,.313.008v-1.574c-.1,0-.208-.007-.313-.007a7.782,7.782,0,0,0-7.782,7.782,7.782,7.782,0,0,0,7.782,7.782,7.773,7.773,0,0,0,6.409-3.368Z" transform="translate(-1565.251 947.889)" fill="url(#linear-gradient-23)"/>
          <path id="Trazado_102441" data-name="Trazado 102441" d="M1561.573-856.857h15.753a1.79,1.79,0,0,0,1.79-1.79,1.79,1.79,0,0,0-1.79-1.79h-15.753a1.79,1.79,0,0,0-1.791,1.79A1.79,1.79,0,0,0,1561.573-856.857Z" transform="translate(-1559.201 884.132)" fill="#fff" opacity="0.5"/>
        </g>
      </g>
    </g>
    <g id="Grupo_53893" data-name="Grupo 53893" transform="translate(1008.77 -1368.64)">
      <path id="Trazado_102442" data-name="Trazado 102442" d="M1571.044-635.188s.417,2.362.622,4.7a1.611,1.611,0,0,1-1.541,1.745c-3.113.13-9.773.382-12.163.275a.524.524,0,0,1-.461-.718,1.173,1.173,0,0,1,.6-.632l11-5.056Z" transform="translate(-1534.352 748.379)" fill="url(#linear-gradient-24)"/>
      <path id="Trazado_102443" data-name="Trazado 102443" d="M1602.456-642.054l-.335,2.825s-1.927.9-3.243-.113l.8-3.148Z" transform="translate(-1565.422 753.857)" fill="url(#linear-gradient-25)"/>
      <path id="Trazado_102444" data-name="Trazado 102444" d="M1602.9-853.383c.145.738.777,36.815-3.079,52.982a.549.549,0,0,0,.322.638,9.552,9.552,0,0,0,3.141.638.945.945,0,0,0,.937-.678c1.1-3.751,6.385-22.545,7.074-40.5.77-20.061,0-.683,0-.683l-.452-12.4Z" transform="translate(-1566.118 912.075)" fill="url(#linear-gradient-26)"/>
      <path id="Trazado_102445" data-name="Trazado 102445" d="M1649.242-630.255a17,17,0,0,1,1.307,4.361.983.983,0,0,1-.865,1.177c-1.028.1-2.611.231-3.879.222a.98.98,0,0,1-.97-1.093,8.266,8.266,0,0,1,1.93-4.533Z" transform="translate(-1599.895 744.678)" fill="url(#linear-gradient-27)"/>
      <path id="Trazado_102446" data-name="Trazado 102446" d="M1655.554-645.3l-.783,4.272a2.763,2.763,0,0,1-2.306.158l.374-4.6Z" transform="translate(-1605.623 756.091)" fill="url(#linear-gradient-28)"/>
      <path id="Trazado_102447" data-name="Trazado 102447" d="M1626.5-854.942c3.154,19.035-.684,47.045-1.979,52.528a.855.855,0,0,1-.69.649,5.738,5.738,0,0,1-2.467-.1.783.783,0,0,1-.563-.721c-.174-4.433.139-31.643-2.8-42.4a2.445,2.445,0,0,0-.942-1.348l-5.7-4.055-.437-6.555Z" transform="translate(-1574.454 914.742)" fill="url(#linear-gradient-29)"/>
      <g id="Grupo_53889" data-name="Grupo 53889" transform="translate(4.03 9.094)">
        <path id="Trazado_102448" data-name="Trazado 102448" d="M1551.861-997.982a88.841,88.841,0,0,1,19.881,2.482c2.817,16.44.492,35.4.492,35.4-7.317,1.919-15.572-1.173-15.572-1.173-1.216-6.871-6.891-26.209-6.891-26.209a31.135,31.135,0,0,1-11.555-3.667,20.272,20.272,0,0,0,4.006-8.378A31.712,31.712,0,0,0,1551.861-997.982Z" transform="translate(-1523.942 1012.62)" fill="url(#linear-gradient-30)"/>
        <path id="Trazado_102449" data-name="Trazado 102449" d="M1481.066-1051.231a1.809,1.809,0,0,1,2.1-.591c1.391,5.875,8.684,10.639,16.177,12.968a20.27,20.27,0,0,1-4.006,8.378C1482.906-1037.467,1481.066-1051.231,1481.066-1051.231Z" transform="translate(-1481.066 1051.947)" fill="url(#linear-gradient-31)"/>
      </g>
      <g id="Grupo_53890" data-name="Grupo 53890">
        <path id="Trazado_102450" data-name="Trazado 102450" d="M1469.189-1078.261c-.1.309,1.028.779,1.69-.484.023-.605.391-3.2.03-3.692a48.3,48.3,0,0,0-5.662-5.92.889.889,0,0,0-.111,1.235l1.812,1.888a8.786,8.786,0,0,0-1.058,2.092,2.54,2.54,0,0,0,.253,1.869c.318.573.752,1.318,1.162,1.9A2.507,2.507,0,0,0,1469.189-1078.261Z" transform="translate(-1464.934 1088.357)" fill="url(#linear-gradient-32)"/>
        <path id="Trazado_102451" data-name="Trazado 102451" d="M1475.072-1070.952l1.651,1.4.518,1.394-1.472,1.633a18.985,18.985,0,0,0-.863-3.364C1474.538-1070.488,1474.729-1070.777,1475.072-1070.952Z" transform="translate(-1472.266 1075.299)" fill="url(#linear-gradient-33)"/>
      </g>
      <path id="Trazado_102452" data-name="Trazado 102452" d="M1657.924-974.253l3.625-9.152s8.829,6,10.281,13.6a20.89,20.89,0,0,0-7.675,2.057C1663.5-971.335,1657.924-974.253,1657.924-974.253Z" transform="translate(-1609.719 1009.62)" fill="url(#linear-gradient-34)"/>
      <path id="Trazado_102453" data-name="Trazado 102453" d="M1623.095-924.78s9.912,5.6,13.257.819a3.76,3.76,0,0,0,.689-2.921,20.892,20.892,0,0,1,7.675-2.057,10.5,10.5,0,0,1-1.141,7.2c-5.859,10.717-21.792-.592-21.792-.592Z" transform="translate(-1582.606 968.759)" fill="url(#linear-gradient-35)"/>
      <g id="Grupo_53891" data-name="Grupo 53891" transform="translate(16.917 28.769)">
        <path id="Trazado_102454" data-name="Trazado 102454" d="M1557.427-945.37l-5.41-18.892a.551.551,0,0,0-.466-.4c-.98-.114-3.82-.435-7.1-.713a80.55,80.55,0,0,0-11.278-.375.553.553,0,0,0-.452.8c1.559,3.153,7.97,15.981,11.181,20.183a.554.554,0,0,0,.446.219l12.552-.117A.553.553,0,0,0,1557.427-945.37Z" transform="translate(-1532.664 967.667)" fill="url(#linear-gradient-36)"/>
        <path id="Trazado_102455" data-name="Trazado 102455" d="M1564.844-972.522l-3.922-.653a.281.281,0,0,0-.313.366l.388,1.177a.281.281,0,0,0,.23.191l3.774.5a.281.281,0,0,0,.311-.343l-.24-1.027A.281.281,0,0,0,1564.844-972.522Z" transform="translate(-1553.618 973.179)" fill="url(#linear-gradient-37)"/>
        <path id="Trazado_102456" data-name="Trazado 102456" d="M1562.287-965.671l-.323-1.683a.389.389,0,0,0-.343-.314l-7.922-.8a.389.389,0,0,0-.418.478l.5,2.1a.389.389,0,0,0,.359.3l7.741.39A.389.389,0,0,0,1562.287-965.671Z" transform="translate(-1548.123 969.649)" fill="url(#linear-gradient-38)"/>
        <path id="Trazado_102457" data-name="Trazado 102457" d="M1606.491-921.532s.754-3.1.45-4.2-.893-2.513-2.856-2.2a28.716,28.716,0,0,0-4.279,1.141,1.124,1.124,0,0,0,1.609.97l-.925.716s.132,1.146,1.392.534l-.86.95a1,1,0,0,0,1.469.338C1603.417-923.885,1603.861-921.159,1606.491-921.532Z" transform="translate(-1583.035 939.265)" fill="url(#linear-gradient-39)"/>
      </g>
      <path id="Trazado_102458" data-name="Trazado 102458" d="M1612.786-1024.062l3.008,8.7a.313.313,0,0,1-.143.377,7.07,7.07,0,0,1-7.333-.493,1.475,1.475,0,0,1-.68-1.054l-.974-7.527Z" transform="translate(-1571.264 1040.121)" fill="url(#linear-gradient-40)"/>
      <g id="Grupo_53892" data-name="Grupo 53892" transform="translate(30.934 2.686)">
        <path id="Trazado_102459" data-name="Trazado 102459" d="M1595.457-1061.677c-.091.126-2.917,9.977-2.917,9.977l5.659,1.494,4.066-8.938S1596.973-1063.783,1595.457-1061.677Z" transform="translate(-1591.601 1066.067)" fill="url(#linear-gradient-41)"/>
        <path id="Trazado_102460" data-name="Trazado 102460" d="M1597.2-1070.02a.842.842,0,0,1,.078.737l-1.746,4.8a.821.821,0,0,1-.107.2,1.38,1.38,0,0,1-2.174.406,7.418,7.418,0,0,0-2.466-1.809.84.84,0,0,0-1.042.583,31.383,31.383,0,0,0-.953,4.532.836.836,0,0,0,.673.915,23.33,23.33,0,0,0,5.237.485.841.841,0,0,0,.716-.483c.581-1.236,2.222-4.7,2.835-5.6.57-.841,1.926-.828,2.546-.774a.846.846,0,0,0,.643-.215,1.852,1.852,0,0,0,.148-2.9.842.842,0,0,1,.038-1.172,1.86,1.86,0,0,0,.2-2.726,2.623,2.623,0,0,0-3.053-.824.873.873,0,0,1-1-.325.556.556,0,0,0-.491-.253.816.816,0,0,1-.831-.815,2.154,2.154,0,0,0-1.65-2.193c-2.471-.794-4.039,1.585-4.208,3.37s2.558,2.494,4.167,2.389C1595.938-1071.764,1596.815-1070.628,1597.2-1070.02Z" transform="translate(-1588.78 1077.603)" fill="url(#linear-gradient-42)"/>
        <path id="Trazado_102461" data-name="Trazado 102461" d="M1624.028-1030.824s.429-3.1,1.721-3.237,2.538.932,1.239,2.661C1625.372-1029.251,1624.028-1030.824,1624.028-1030.824Z" transform="translate(-1615.224 1044.946)" fill="url(#linear-gradient-43)"/>
      </g>
    </g>
  </g>
</svg>
