<svg xmlns="http://www.w3.org/2000/svg" xmlns:xlink="http://www.w3.org/1999/xlink" width="589.5" height="349.742" viewBox="0 0 589.5 349.742">
  <defs>
    <linearGradient id="linear-gradient" y1="0.5" x2="1" y2="0.5" gradientUnits="objectBoundingBox">
      <stop offset="0" stop-color="#b37cff"/>
      <stop offset="1" stop-color="#f895e7"/>
    </linearGradient>
    <linearGradient id="linear-gradient-3" x1="-2.948" y1="1.572" x2="-2.041" y2="0.068" xlink:href="#linear-gradient"/>
    <linearGradient id="linear-gradient-4" x1="0.478" y1="0.454" x2="0.258" y2="-0.012" gradientUnits="objectBoundingBox">
      <stop offset="0" stop-color="#a737d5"/>
      <stop offset="1" stop-color="#ef497a"/>
    </linearGradient>
    <linearGradient id="linear-gradient-6" x1="0.387" y1="0.417" x2="1.045" y2="1.226" gradientUnits="objectBoundingBox">
      <stop offset="0" stop-color="#2b3582"/>
      <stop offset="1" stop-color="#150e42"/>
    </linearGradient>
    <linearGradient id="linear-gradient-7" x1="0.48" y1="0.741" x2="0.745" y2="-0.499" gradientUnits="objectBoundingBox">
      <stop offset="0" stop-color="#53d8ff"/>
      <stop offset="1" stop-color="#3840f7"/>
    </linearGradient>
    <linearGradient id="linear-gradient-8" x1="0.336" y1="0.26" x2="1.697" y2="1.995" xlink:href="#linear-gradient-6"/>
    <linearGradient id="linear-gradient-9" x1="0.535" y1="0.274" x2="1.319" y2="-4.135" xlink:href="#linear-gradient-6"/>
    <linearGradient id="linear-gradient-10" x1="1.064" y1="-4.477" x2="2.086" y2="-13.26" xlink:href="#linear-gradient-6"/>
    <linearGradient id="linear-gradient-11" x1="1.026" y1="0.224" x2="0.336" y2="0.657" xlink:href="#linear-gradient-7"/>
    <linearGradient id="linear-gradient-12" x1="0.721" y1="0.212" x2="0.27" y2="0.899" gradientUnits="objectBoundingBox">
      <stop offset="0" stop-color="#f9b776"/>
      <stop offset="1" stop-color="#f47960"/>
    </linearGradient>
    <linearGradient id="linear-gradient-13" x1="0.967" y1="0.057" x2="-1.086" y2="2.132" gradientUnits="objectBoundingBox">
      <stop offset="0" stop-color="#fdf53f"/>
      <stop offset="1" stop-color="#d93c65"/>
    </linearGradient>
    <linearGradient id="linear-gradient-14" x1="0.461" y1="0.791" x2="1.158" y2="-1.379" xlink:href="#linear-gradient-12"/>
    <linearGradient id="linear-gradient-15" x1="0.443" y1="1.062" x2="0.553" y2="0.1" xlink:href="#linear-gradient-12"/>
    <linearGradient id="linear-gradient-16" x1="0.619" y1="0.82" x2="0.308" y2="-0.114" xlink:href="#linear-gradient-12"/>
    <linearGradient id="linear-gradient-17" x1="0.39" y1="-0.467" x2="0.567" y2="0.954" xlink:href="#linear-gradient-6"/>
    <linearGradient id="linear-gradient-18" x1="1.286" y1="2.058" x2="-0.186" y2="-0.895" xlink:href="#linear-gradient-12"/>
    <linearGradient id="linear-gradient-19" x1="0" y1="0.5" x2="1" y2="0.5" xlink:href="#linear-gradient-6"/>
    <linearGradient id="linear-gradient-20" x1="1.018" y1="-0.604" x2="0.278" y2="0.973" xlink:href="#linear-gradient-6"/>
    <linearGradient id="linear-gradient-21" x1="7.276" y1="-1.742" x2="-4.856" y2="2.272" xlink:href="#linear-gradient-13"/>
    <linearGradient id="linear-gradient-22" x1="3.264" y1="-2.519" x2="-0.575" y2="1.675" xlink:href="#linear-gradient-13"/>
    <linearGradient id="linear-gradient-23" x1="2.506" y1="-3.159" x2="0.376" y2="0.672" xlink:href="#linear-gradient-13"/>
    <linearGradient id="linear-gradient-24" x1="0.504" y1="0.262" x2="0.394" y2="1.808" xlink:href="#linear-gradient-7"/>
    <linearGradient id="linear-gradient-25" x1="1.482" y1="-3.333" x2="-0.948" y2="5.987" xlink:href="#linear-gradient-7"/>
    <linearGradient id="linear-gradient-26" x1="0.145" y1="0.289" x2="1.136" y2="0.959" xlink:href="#linear-gradient-13"/>
    <linearGradient id="linear-gradient-27" x1="0.286" y1="-51.209" x2="-0.064" y2="-52.22" xlink:href="#linear-gradient-4"/>
    <linearGradient id="linear-gradient-28" x1="1598.664" y1="0.954" x2="1600.825" y2="-0.303" gradientUnits="objectBoundingBox">
      <stop offset="0" stop-color="#cb236d"/>
      <stop offset="1" stop-color="#4c246d"/>
    </linearGradient>
    <linearGradient id="linear-gradient-29" x1="183.064" y1="0.088" x2="183.316" y2="-21.186" xlink:href="#linear-gradient-28"/>
    <linearGradient id="linear-gradient-30" x1="136.963" y1="4.039" x2="137.159" y2="-0.315" xlink:href="#linear-gradient-13"/>
    <linearGradient id="linear-gradient-31" x1="-48.975" y1="-4.203" x2="-49.385" y2="-3.084" xlink:href="#linear-gradient-6"/>
    <linearGradient id="linear-gradient-32" x1="-139.032" y1="-5.217" x2="-137.904" y2="-5.217" xlink:href="#linear-gradient-12"/>
    <linearGradient id="linear-gradient-33" x1="-20.145" y1="-0.355" x2="-19.453" y2="-1.267" gradientUnits="objectBoundingBox">
      <stop offset="0" stop-color="#2b3582"/>
      <stop offset="0.231" stop-color="#242a70"/>
      <stop offset="0.728" stop-color="#19154e"/>
      <stop offset="1" stop-color="#150e42"/>
    </linearGradient>
    <linearGradient id="linear-gradient-34" x1="-42.872" y1="-4.788" x2="-44.114" y2="-1.316" xlink:href="#linear-gradient-6"/>
    <linearGradient id="linear-gradient-35" x1="-42.289" y1="-7.322" x2="-41.356" y2="-7.322" xlink:href="#linear-gradient-7"/>
    <linearGradient id="linear-gradient-36" x1="-119.543" y1="-5.609" x2="-118.641" y2="-5.609" xlink:href="#linear-gradient-12"/>
    <linearGradient id="linear-gradient-37" x1="-16.653" y1="0.113" x2="-16.623" y2="-0.865" xlink:href="#linear-gradient-6"/>
    <linearGradient id="linear-gradient-38" x1="-6.749" y1="1.812" x2="-6.126" y2="1.254" xlink:href="#linear-gradient-28"/>
    <linearGradient id="linear-gradient-39" x1="-35.662" y1="-2.222" x2="-34.668" y2="-2.222" xlink:href="#linear-gradient-12"/>
    <linearGradient id="linear-gradient-40" x1="0.219" y1="-0.14" x2="1.183" y2="1.276" xlink:href="#linear-gradient-28"/>
    <linearGradient id="linear-gradient-41" x1="-65.591" y1="-2.433" x2="-64.472" y2="-2.433" xlink:href="#linear-gradient-12"/>
    <linearGradient id="linear-gradient-42" x1="-0.327" y1="-0.484" x2="1.3" y2="1.465" xlink:href="#linear-gradient-28"/>
    <linearGradient id="linear-gradient-43" x1="-17.84" y1="1.054" x2="-19.083" y2="7.871" xlink:href="#linear-gradient-12"/>
    <linearGradient id="linear-gradient-44" x1="-135.274" y1="-63.079" x2="-136.673" y2="-61.743" xlink:href="#linear-gradient-12"/>
    <linearGradient id="linear-gradient-45" x1="-93.009" y1="-90.014" x2="-92.002" y2="-90.014" xlink:href="#linear-gradient-6"/>
    <linearGradient id="linear-gradient-46" x1="-458.199" y1="-198.799" x2="-454.917" y2="-201.133" xlink:href="#linear-gradient-12"/>
    <linearGradient id="linear-gradient-47" x1="157.851" y1="121.668" x2="157.111" y2="124.105" xlink:href="#linear-gradient-6"/>
    <linearGradient id="linear-gradient-48" x1="121.213" y1="0.134" x2="120.812" y2="0.8" xlink:href="#linear-gradient-6"/>
    <linearGradient id="linear-gradient-49" x1="178.206" y1="0.5" x2="179.206" y2="0.5" gradientUnits="objectBoundingBox">
      <stop offset="0" stop-color="#9cfffb"/>
      <stop offset="1" stop-color="#9bfffa"/>
    </linearGradient>
    <linearGradient id="linear-gradient-51" x1="178.206" y1="0.5" x2="179.206" y2="0.5" xlink:href="#linear-gradient-49"/>
    <linearGradient id="linear-gradient-52" x1="178.206" y1="0.5" x2="179.206" y2="0.5" xlink:href="#linear-gradient-49"/>
    <linearGradient id="linear-gradient-53" x1="42.015" y1="0.5" x2="43.015" y2="0.5" xlink:href="#linear-gradient-49"/>
    <linearGradient id="linear-gradient-54" x1="-21.638" y1="3.633" x2="-21.552" y2="2.303" gradientUnits="objectBoundingBox">
      <stop offset="0" stop-color="#fdf53f"/>
      <stop offset="0.665" stop-color="#e57a58"/>
      <stop offset="1" stop-color="#d93c65"/>
    </linearGradient>
    <linearGradient id="linear-gradient-55" x1="-422.882" y1="-130.565" x2="-429.273" y2="-133.247" xlink:href="#linear-gradient-7"/>
    <linearGradient id="linear-gradient-56" x1="-55.112" y1="-41.437" x2="-56.06" y2="-43.139" xlink:href="#linear-gradient-7"/>
    <linearGradient id="linear-gradient-57" x1="-64.917" y1="-112.497" x2="-65.832" y2="-114.662" xlink:href="#linear-gradient-7"/>
    <linearGradient id="linear-gradient-58" x1="109.47" y1="-216.841" x2="112.644" y2="-217.866" xlink:href="#linear-gradient-7"/>
    <linearGradient id="linear-gradient-59" x1="-8.102" y1="0.015" x2="-8.527" y2="0.481" xlink:href="#linear-gradient-6"/>
    <linearGradient id="linear-gradient-60" x1="31.411" y1="-0.845" x2="31.067" y2="1.374" xlink:href="#linear-gradient-12"/>
    <linearGradient id="linear-gradient-61" x1="122.435" y1="1.191" x2="122.265" y2="-1.912" xlink:href="#linear-gradient-28"/>
    <linearGradient id="linear-gradient-62" x1="-513.728" y1="53.642" x2="-513.54" y2="52.72" xlink:href="#linear-gradient-12"/>
    <linearGradient id="linear-gradient-63" x1="-432.389" y1="28.001" x2="-431.029" y2="29.075" xlink:href="#linear-gradient-12"/>
    <linearGradient id="linear-gradient-64" x1="-399.487" y1="42.393" x2="-401.146" y2="44.708" xlink:href="#linear-gradient-6"/>
    <linearGradient id="linear-gradient-65" x1="-1247.266" y1="91.547" x2="-1243.337" y2="95.11" xlink:href="#linear-gradient-12"/>
    <linearGradient id="linear-gradient-66" x1="104.807" y1="1.384" x2="106.208" y2="0.247" xlink:href="#linear-gradient-12"/>
    <linearGradient id="linear-gradient-67" x1="255.774" y1="0.852" x2="256.769" y2="0.852" xlink:href="#linear-gradient-6"/>
    <linearGradient id="linear-gradient-68" x1="197.706" y1="0.498" x2="193.809" y2="0.828" xlink:href="#linear-gradient-12"/>
    <linearGradient id="linear-gradient-69" x1="214.014" y1="0.916" x2="215.007" y2="0.916" xlink:href="#linear-gradient-6"/>
    <linearGradient id="linear-gradient-70" x1="93.744" y1="0.095" x2="92.712" y2="1.715" xlink:href="#linear-gradient-6"/>
    <linearGradient id="linear-gradient-71" x1="21.451" y1="0.5" x2="22.451" y2="0.5" xlink:href="#linear-gradient-12"/>
    <linearGradient id="linear-gradient-72" x1="-434.518" y1="-24.693" x2="-434.932" y2="-24.283" xlink:href="#linear-gradient-6"/>
    <linearGradient id="linear-gradient-73" x1="111.068" y1="-0.446" x2="110.416" y2="1.215" xlink:href="#linear-gradient-12"/>
    <linearGradient id="linear-gradient-74" x1="0.143" y1="-0.646" x2="1.217" y2="2.77" gradientUnits="objectBoundingBox">
      <stop offset="0" stop-color="#9f5699"/>
      <stop offset="1" stop-color="#202278"/>
    </linearGradient>
    <linearGradient id="linear-gradient-75" x1="0.143" y1="-0.646" x2="1.217" y2="2.77" gradientUnits="objectBoundingBox">
      <stop offset="0" stop-color="#f9c200"/>
      <stop offset="0.996" stop-color="#9b1e5f"/>
    </linearGradient>
    <linearGradient id="linear-gradient-76" x1="0.143" y1="-0.646" x2="1.217" y2="2.77" gradientUnits="objectBoundingBox">
      <stop offset="0" stop-color="#2c50ff"/>
      <stop offset="0.996" stop-color="#1a1b80"/>
    </linearGradient>
  </defs>
  <g id="Grupo_53276" data-name="Grupo 53276" transform="translate(-53.493 -75.765)">
    <g id="Grupo_2212" data-name="Grupo 2212" transform="translate(53.493 75.765)">
      <path id="Trazado_1286" data-name="Trazado 1286" d="M634.655,279.951c-9.3-9.436-20.291-18.639-23.158-31.451-4.961-22.17,16.253-41.074,23.2-62.726a52.68,52.68,0,0,0-6.552-45.082,54.893,54.893,0,0,0-39.92-23.312c-27.443-2.467-54.3,15.652-81.332,10.4-21.645-4.2-38.75-22.737-60.722-24.723-25.856-2.336-47.308,18.578-72,26.452-29.533,9.419-61.552-.424-90.588-11.226S224,95.435,193.39,100.6c-34.068,5.754-62.632,34.843-67.189,68.422-4.516,33.279,33.357,59.992,1.118,99.95C117.245,281.464,110.544,298.85,115,314.158c4.328,14.873,22.742,24.281,22.876,39.746.106,12.209-11.642,21.924-12.589,34.1-.812,10.45,6.858,20.11,16.283,25.062s20.362,6.163,31,7.286h0a2.108,2.108,0,0,0-.428,2.308,2.4,2.4,0,0,0,2.031,1.394c52,4.248,104.3,3.23,156.485,2.208l254.367-4.98c8.715-.17,17.64-.381,25.76-3.485s15.4-9.752,16.638-18.206c2.105-14.387-13.243-26.873-11.824-41.341,1.811-18.474,28.36-25.6,33.412-43.489C652.573,302.12,643.952,289.387,634.655,279.951Z" transform="translate(-81.18 -86.639)" opacity="0.5" fill="url(#linear-gradient)"/>
      <g id="Grupo_2211" data-name="Grupo 2211" opacity="0.26">
        <path id="Trazado_1287" data-name="Trazado 1287" d="M624.461,245.3c-11.232-13.322-27-23.507-35.213-38.6-12.543-23.047-4.405-51.43-12.991-75.983-7.359-21.043-26.729-37.27-48.776-45.79s-46.568-10.089-70.413-8.735c-49.438,2.806-98,17.927-139.216,43.351-20.3,12.52-38.839,27.47-59.906,38.849s-45.7,19.13-69.741,15.332c-24.021-3.795-44.135-18.392-66.148-28.068a101,101,0,0,0-27.913-7.84c-21.081-2.572-39.946,12.4-40.6,32.071A83.305,83.305,0,0,0,66.873,217.98c11.742,18.04,30.047,31.5,44.381,47.858s24.9,38.454,17.143,58.254c-6.618,16.889-25.663,29.805-25.129,47.765.559,18.787,22.061,30.465,41.345,36.337a293.547,293.547,0,0,0,176.028-2.247c32.343-10.77,63.434-27.451,97.779-28.71,36.084-1.324,70.5,14.669,106.557,16.439,39.458,1.937,80.228-15.077,101.977-45.618S648.775,274.137,624.461,245.3Z" transform="translate(-53.493 -75.765)" fill="url(#linear-gradient)"/>
      </g>
    </g>
    <g id="Grupo_2213" data-name="Grupo 2213" transform="translate(314.942 81.9)">
      <path id="Trazado_1288" data-name="Trazado 1288" d="M570.987,416.046s-38.267-52.42-32.047-101.974,37.275-43.643,51.093-14.34,26.24,25.281,18.031-2.268-18.5-45.48-1.487-72.9,18.775-39.077,9.217-63.547S594.232,101.869,632.265,89.5s75.92,25.638,67.051,75.385-14.2,55.166-1.981,73.593,7.125,26,5.394,37.99,16.932,14.8,16.534-2.092S695.126,217.606,711.329,199s47.962-18.8,56.1,24.209-17.926,62.343-16.629,77.9,15.293-8.032,27.484,7.826-4.223,28.315-16.3,36.909-30.291,24-12.961,35.181,33.738.481,23.122,35.018Z" transform="translate(-538.256 -87.141)" fill="url(#linear-gradient-3)"/>
      <path id="Trazado_1289" data-name="Trazado 1289" d="M740.445,158.022a19.984,19.984,0,0,1,3.412,2.6,27.744,27.744,0,0,1,2.958,3.2,36.554,36.554,0,0,1,4.667,7.588,51.1,51.1,0,0,1,4.355,17.676c.08.764.1,1.528.137,2.294s.069,1.533.052,2.3l-.012,2.3-.1,2.289-.057,1.145-.1,1.138-.209,2.278c-.21,1.5-.357,3.025-.622,4.516s-.5,2.993-.832,4.466l-.468,2.22-.485,2.145-1.955,8.565c-2.587,11.414-5.08,22.824-7.04,34.293-1.906,11.462-3.225,23.049-2.928,34.5.069,2.858.243,5.707.581,8.517a68.6,68.6,0,0,0,1.435,8.312,56.9,56.9,0,0,0,2.474,7.921,63.958,63.958,0,0,1,2.715,8.833,153.348,153.348,0,0,1,2.67,17.82c.572,5.926,1.016,11.829,1.369,17.724.743,11.779,1.379,23.521,2.937,35.1.2,1.447.405,2.891.655,4.325.219,1.443.505,2.866.777,4.3.251,1.437.612,2.836.912,4.259.17.7.364,1.4.545,2.1s.356,1.406.583,2.088l.641,2.067c.215.689.487,1.35.728,2.029.464,1.368,1.074,2.655,1.63,3.98a36.619,36.619,0,0,0,4.479,7.2l-.434.467a36.933,36.933,0,0,1-5.117-7.016,56.894,56.894,0,0,1-3.6-8.072,108.443,108.443,0,0,1-4.48-17.208c-2.2-11.676-3.242-23.5-4.428-35.218-.6-5.859-1.137-11.709-1.875-17.5a147.7,147.7,0,0,0-3.014-17.008,61.339,61.339,0,0,0-2.576-7.881,63,63,0,0,1-2.9-8.76,74.77,74.77,0,0,1-1.716-9.038c-.415-3.033-.65-6.076-.773-9.113-.466-12.167.92-24.144,2.783-35.893,1.9-11.756,4.476-23.311,7.353-34.729.728-2.852,1.456-5.7,2.211-8.543l.569-2.127.521-2.073c.371-1.378.647-2.774.951-4.166.321-1.39.523-2.8.793-4.2l.3-2.113c.106-.7.2-1.409.264-2.116a72.026,72.026,0,0,0,.472-8.5,52.911,52.911,0,0,0-.65-8.465,49.029,49.029,0,0,0-2.007-8.214c-.478-1.321-.994-2.634-1.6-3.9a33.768,33.768,0,0,0-1.983-3.708,27.891,27.891,0,0,0-5.268-6.422Z" transform="translate(-629.043 -119.794)" fill="#fff" opacity="0.62"/>
      <path id="Trazado_1290" data-name="Trazado 1290" d="M593.24,487.245c1.141,9.277,2.764,18.474,4.746,27.547q1.5,6.8,3.31,13.5c.288,1.121.63,2.224.942,3.336s.65,2.216.989,3.318c.646,2.217,1.377,4.4,2.088,6.59.766,2.168,1.509,4.344,2.345,6.479.774,2.163,1.662,4.272,2.519,6.394,1.8,4.2,3.7,8.349,5.812,12.372s4.431,7.909,6.906,11.689a126.322,126.322,0,0,0,8.189,10.745l-.412.49a77.722,77.722,0,0,1-9.335-9.889,107.364,107.364,0,0,1-7.727-11.478,133.782,133.782,0,0,1-6.25-12.5c-.9-2.159-1.827-4.307-2.638-6.505-.845-2.186-1.581-4.414-2.346-6.631-.709-2.238-1.436-4.469-2.076-6.729-.337-1.125-.644-2.259-.936-3.4s-.613-2.268-.88-3.414c-1.155-4.557-2.105-9.17-2.925-13.8a186.059,186.059,0,0,1-2.929-28.077Z" transform="translate(-563.305 -271.455)" fill="#fff" opacity="0.62"/>
    </g>
    <g id="Grupo_2215" data-name="Grupo 2215" transform="translate(191.494 126.129)">
      <ellipse id="Elipse_45" data-name="Elipse 45" cx="139.677" cy="150.768" rx="139.677" ry="150.768" transform="translate(0 279.086) rotate(-87.486)" fill="url(#linear-gradient-4)"/>
      <ellipse id="Elipse_46" data-name="Elipse 46" cx="118.306" cy="111.761" rx="118.306" ry="111.761" transform="translate(30.283 24.316)" opacity="0.26" fill="url(#linear-gradient)"/>
      <g id="Grupo_2214" data-name="Grupo 2214" transform="translate(19.604 10.058)" opacity="0.68">
        <path id="Trazado_1291" data-name="Trazado 1291" d="M605.5,325.223c-.012,12.324-.462,24.651-1.42,36.942-.982,12.288-2.484,24.54-4.664,36.681-1.1,6.068-2.38,12.107-3.9,18.089a174.314,174.314,0,0,1-5.445,17.7,83.94,83.94,0,0,1-8.121,16.691,33.381,33.381,0,0,1-6.1,7.107,17.409,17.409,0,0,1-4,2.574,11.989,11.989,0,0,1-4.673,1.1,11.8,11.8,0,0,1-4.724-.867,16.349,16.349,0,0,1-4.091-2.432,31.694,31.694,0,0,1-6.231-7,81.237,81.237,0,0,1-8.239-16.633,170.517,170.517,0,0,1-5.5-17.685c-1.536-5.978-2.827-12.014-3.938-18.08-2.218-12.134-3.733-24.385-4.756-36.67s-1.528-24.613-1.6-36.942c-.032-6.163.144-12.325.366-18.484s.578-12.312,1.035-18.458c.92-12.29,2.289-24.552,4.321-36.714,1.02-6.079,2.208-12.133,3.637-18.133a174.313,174.313,0,0,1,5.158-17.77,80.462,80.462,0,0,1,7.895-16.751,30.419,30.419,0,0,1,6.092-7.035,15.57,15.57,0,0,1,4.032-2.412,11.377,11.377,0,0,1,4.636-.82,12.3,12.3,0,0,1,4.581,1.071,17.859,17.859,0,0,1,3.979,2.48,33.906,33.906,0,0,1,6.223,6.912,83.184,83.184,0,0,1,8.534,16.432,168.458,168.458,0,0,1,5.852,17.555c1.649,5.945,3.045,11.955,4.254,18a349.723,349.723,0,0,1,5.172,36.608Q605.487,306.709,605.5,325.223Zm-2.041,0q.039-18.408-1.455-36.777a354.5,354.5,0,0,0-4.778-36.484c-1.129-6.029-2.445-12.024-4.012-17.953a167.436,167.436,0,0,0-5.6-17.5,82.333,82.333,0,0,0-8.236-16.349,33.161,33.161,0,0,0-6-6.832,17.2,17.2,0,0,0-3.8-2.434,11.352,11.352,0,0,0-4.335-1.06,10.649,10.649,0,0,0-4.372.826,14.889,14.889,0,0,0-3.825,2.355,29.708,29.708,0,0,0-5.85,6.932,79.6,79.6,0,0,0-7.595,16.648,173.212,173.212,0,0,0-4.907,17.713c-1.347,5.983-2.456,12.021-3.4,18.084-3.723,24.271-4.941,48.874-4.864,73.413q-.058,18.406,1.272,36.785c.914,12.236,2.316,24.443,4.418,36.529,1.053,6.042,2.284,12.053,3.759,18a168.947,168.947,0,0,0,5.3,17.579,80.009,80.009,0,0,0,7.957,16.431,30.531,30.531,0,0,0,5.931,6.786,15.248,15.248,0,0,0,3.788,2.3,10.427,10.427,0,0,0,4.279.815,10.891,10.891,0,0,0,4.236-1.039,16.3,16.3,0,0,0,3.711-2.44,32.228,32.228,0,0,0,5.81-6.9,82.689,82.689,0,0,0,7.839-16.494,172.837,172.837,0,0,0,5.24-17.6c1.458-5.953,2.674-11.967,3.717-18.009,2.089-12.088,3.473-24.3,4.4-36.532S603.467,337.5,603.461,325.223Z" transform="translate(-429.733 -188.452)" fill="#fff" style="mix-blend-mode: soft-light;isolation: isolate"/>
        <path id="Trazado_1292" data-name="Trazado 1292" d="M607.78,324.568a179.718,179.718,0,0,1-6.385,47.066,151.472,151.472,0,0,1-19.714,43.151c-8.843,13.159-20.106,24.836-33.572,33.305a89.257,89.257,0,0,1-21.6,9.874,80.933,80.933,0,0,1-46.977.023,89.287,89.287,0,0,1-21.624-9.856c-13.482-8.458-24.767-20.13-33.632-33.289A151.718,151.718,0,0,1,404.5,371.674a170.692,170.692,0,0,1-4.788-23.337,175.148,175.148,0,0,1,.016-47.535,170.682,170.682,0,0,1,4.806-23.33,151.679,151.679,0,0,1,19.8-43.135c8.87-13.145,20.153-24.8,33.628-33.236a89.685,89.685,0,0,1,21.6-9.815,80.283,80.283,0,0,1,46.895.022,89.612,89.612,0,0,1,21.586,9.834c13.459,8.445,24.72,20.109,33.567,33.253a151.406,151.406,0,0,1,19.744,43.118A179.689,179.689,0,0,1,607.78,324.568Zm-2.34,0a177.474,177.474,0,0,0-6.1-46.5,150.732,150.732,0,0,0-19.014-42.819,122.824,122.824,0,0,0-14.669-18.35A102.533,102.533,0,0,0,547.506,202a87.684,87.684,0,0,0-21.3-9.853,78.06,78.06,0,0,0-46.372.022,87.642,87.642,0,0,0-21.278,9.872,102.446,102.446,0,0,0-18.124,14.914A122.724,122.724,0,0,0,425.8,235.311a150.5,150.5,0,0,0-18.956,42.8,172.129,172.129,0,0,0-4.555,23.029,179.483,179.483,0,0,0,.017,46.851,172.026,172.026,0,0,0,4.573,23.021,150.421,150.421,0,0,0,18.986,42.769,122.661,122.661,0,0,0,14.639,18.33A102.015,102.015,0,0,0,458.62,447a88.02,88.02,0,0,0,21.259,9.832,77.454,77.454,0,0,0,46.289.023,88.052,88.052,0,0,0,21.278-9.814,102.147,102.147,0,0,0,18.145-14.871,122.75,122.75,0,0,0,14.672-18.327,150.661,150.661,0,0,0,19.043-42.786A177.458,177.458,0,0,0,605.44,324.568Z" transform="translate(-369.847 -187.797)" fill="#fff" style="mix-blend-mode: soft-light;isolation: isolate"/>
        <path id="Trazado_1293" data-name="Trazado 1293" d="M366.115,340.475l31.423-.284,31.423-.161c10.474-.069,20.948-.061,31.423-.083l31.423-.048,62.846.143,31.423.176,31.423.306a.1.1,0,0,1,.1.1.1.1,0,0,1-.1.1l-31.423.307-31.423.176-62.846.143-31.423-.047c-10.474-.021-20.949-.014-31.423-.083l-31.423-.161-31.423-.284a.154.154,0,0,1,0-.308Z" transform="translate(-355.042 -257.866)" fill="#fff" style="mix-blend-mode: soft-light;isolation: isolate"/>
        <path id="Trazado_1294" data-name="Trazado 1294" d="M433.708,242.89c7.436-.132,14.873-.189,22.309-.284l22.31-.161c7.437-.068,14.873-.061,22.31-.083l22.31-.047,22.31.054c7.437.032,14.873.015,22.309.089l22.31.175c7.436.1,14.873.166,22.31.307a.1.1,0,0,1,0,.206c-7.436.142-14.873.2-22.31.307l-22.31.176c-7.436.074-14.873.057-22.309.089l-22.31.054-22.31-.047c-7.436-.022-14.873-.014-22.31-.083l-22.31-.161c-7.436-.1-14.873-.152-22.309-.284a.154.154,0,0,1,0-.307Z" transform="translate(-386.18 -212.912)" fill="#fff" style="mix-blend-mode: soft-light;isolation: isolate"/>
        <path id="Trazado_1295" data-name="Trazado 1295" d="M345.868,438.061l34.153-.284,34.153-.161,68.306-.13,68.307.143,34.153.176,34.153.307a.1.1,0,0,1,0,.207l-34.153.307-34.153.176-68.307.143-68.306-.13-34.153-.161-34.153-.284a.154.154,0,0,1,0-.308Z" transform="translate(-345.715 -302.82)" fill="#fff" style="mix-blend-mode: soft-light;isolation: isolate"/>
        <path id="Trazado_1296" data-name="Trazado 1296" d="M366.115,535.646l31.423-.284,31.423-.161c10.474-.069,20.948-.061,31.423-.083l31.423-.047,62.846.143,31.423.176,31.423.306a.1.1,0,0,1,0,.206l-31.423.307-31.423.176-62.846.143-31.423-.048c-10.474-.021-20.949-.013-31.423-.082l-31.423-.161-31.423-.284a.154.154,0,0,1,0-.307Z" transform="translate(-355.042 -347.774)" fill="#fff" style="mix-blend-mode: soft-light;isolation: isolate"/>
        <path id="Trazado_1297" data-name="Trazado 1297" d="M620.189,634.087H441.713a.539.539,0,1,1,0-1.079H620.189a.539.539,0,1,1,0,1.079Z" transform="translate(-389.69 -392.891)" fill="#fff" style="mix-blend-mode: soft-light;isolation: isolate"/>
      </g>
    </g>
    <g id="Grupo_2217" data-name="Grupo 2217" transform="translate(363.996 88.198)">
      <path id="Trazado_1298" data-name="Trazado 1298" d="M770.311,244.332s-3.59.19-4.03,7.575c0,0,8.324,7.462,19.568,9.239.845.133-1.18-5.763-1.484-6.562C782.917,250.785,778.357,248.337,770.311,244.332Z" transform="translate(-692.353 -165.852)" fill="url(#linear-gradient-6)"/>
      <path id="Trazado_1299" data-name="Trazado 1299" d="M698.2,204.084h7.575s23.251-25.679,38.5-28.269c0,0,10.616,13.55-.565,38.869a3.7,3.7,0,0,1-5.291,1.743,3.031,3.031,0,0,1-1.209-1.441l.9-21.618s-19.833,17.347-23.281,20.694S693.863,215.369,698.2,204.084Z" transform="translate(-660.676 -134.288)" fill="url(#linear-gradient-7)"/>
      <path id="Trazado_1300" data-name="Trazado 1300" d="M819.208,322.387a28.475,28.475,0,0,0-15.534-6.8L801.2,317.1a26.917,26.917,0,0,0,4.452,4.776c2.644,1.535,6.726,3.616,10.111,4.067C819.057,326.38,819.542,324.392,819.208,322.387Z" transform="translate(-708.441 -198.677)" fill="url(#linear-gradient-8)"/>
      <path id="Trazado_1301" data-name="Trazado 1301" d="M784.364,260.091c-1.956.633-2.816,3.4-7.778,1.572a43.927,43.927,0,0,1-10.207-5.377c-.041.358-.076.731-.1,1.128,0,0,8.777,8.349,20.022,10.125a1.119,1.119,0,0,0,1.209-1.508A28.225,28.225,0,0,0,784.364,260.091Z" transform="translate(-692.352 -171.358)" fill="url(#linear-gradient-9)"/>
      <path id="Trazado_1302" data-name="Trazado 1302" d="M825.4,330.132a26.05,26.05,0,0,0-2.391-2.375c.334,2-.151,3.993-3.441,3.555-3.385-.451-7.467-2.531-10.111-4.067a21.857,21.857,0,0,0,14.719,5.65A1.669,1.669,0,0,0,825.4,330.132Z" transform="translate(-712.243 -204.047)" fill="url(#linear-gradient-10)"/>
      <path id="Trazado_1303" data-name="Trazado 1303" d="M686.289,238.393l35.475.384s20.26,16.761,23.934,42.32c0,0,.61,1.88-3.052,2.2a70.334,70.334,0,0,1-20.235-22.143C712.619,243.813,696.864,250,696.864,250c-19.111,6.515-25.654-3.158-25.814-5.447Z" transform="translate(-648.483 -163.116)" fill="url(#linear-gradient-11)"/>
      <path id="Trazado_1304" data-name="Trazado 1304" d="M695.505,185.407s3.819,19.139,22.531,26.711l6.656-.784,1.571,2.5-15.613.5a42.7,42.7,0,0,1-20.417-19.689C690,194.17,686.106,186.13,695.505,185.407Z" transform="translate(-656.862 -138.707)" fill="url(#linear-gradient-12)"/>
      <path id="Trazado_1305" data-name="Trazado 1305" d="M669.9,197.985s-4.343-11.8-5.276-23.275a50.126,50.126,0,0,1,5.163-3.909,1.435,1.435,0,0,0,.561-1.862c-1.46-3.025-10.289-14.9-10.951-15.065-3.595-.9-18.338-7.907-28.722,6.3-4.456,6.1.885,24.86,21.1,44.292l.671.128a10.243,10.243,0,0,0,6.66-.978Z" transform="translate(-629.208 -123.021)" fill="url(#linear-gradient-13)"/>
      <path id="Trazado_1306" data-name="Trazado 1306" d="M668.141,199.453s12.065,14.286,27.492,16.375c0,0,3.987-3.635,6.951-2.337s7.03,7.025,7.03,7.025H689.806s-18.728-.66-28.087-12.016C662.472,204.526,664.727,202.152,668.141,199.453Z" transform="translate(-644.185 -145.177)" fill="url(#linear-gradient-14)"/>
      <path id="Trazado_1307" data-name="Trazado 1307" d="M658.285,137.445l-2.64,8.805a.968.968,0,0,0,.376,1.078,9.837,9.837,0,0,0,9.15.92,1.436,1.436,0,0,0,.923-1.233l.626-7.67Z" transform="translate(-641.367 -116.613)" fill="url(#linear-gradient-15)"/>
      <g id="Grupo_2216" data-name="Grupo 2216" transform="translate(9.772)">
        <path id="Trazado_1308" data-name="Trazado 1308" d="M674.334,119.083s-1.3,9.127-4.8,11.934-10.337.693-12.645-6.188l4.6-11.765Z" transform="translate(-651.73 -105.381)" fill="url(#linear-gradient-16)"/>
        <path id="Trazado_1309" data-name="Trazado 1309" d="M656.561,114.115a.452.452,0,0,0,.587-.362,11.8,11.8,0,0,1,1.082-3.646s-.334-1.2,3.027.612,8.409,4.466,11.381,2.884c2.9-1.543,5.833-9.307-1.825-7.869a.452.452,0,0,1-.538-.473c.094-1.276-.032-4.212-3.005-5.154-2.782-.882-4.306.374-4.933,1.132a.449.449,0,0,1-.7-.011,5.21,5.21,0,0,0-6.428-1.936c-2.745,1.209-3.171,2.9-3.126,3.953a.451.451,0,0,1-.642.429,2.712,2.712,0,0,0-3.487,1.034c-1.79,2.243.768,4.188,1.535,4.7a.451.451,0,0,1,.205.373c.008,1.167.189,6.255,2.739,9.126a.456.456,0,0,0,.758-.131l1.964-4.679a.454.454,0,0,1,.558-.256Z" transform="translate(-647.327 -98.819)" fill="url(#linear-gradient-17)"/>
        <path id="Trazado_1310" data-name="Trazado 1310" d="M661.38,125.854s-1.2-4.884-3.021-3.3.475,5.076,2.561,5.741Z" transform="translate(-652.104 -109.608)" fill="url(#linear-gradient-18)"/>
      </g>
      <path id="Trazado_1311" data-name="Trazado 1311" d="M748.673,212.685l8.893-29.659a3.034,3.034,0,0,1,2.7-2.155l12.007-.821a1.7,1.7,0,0,1,1.723,2.263l-9.942,28.324a2.492,2.492,0,0,1-2.1,1.654L750.127,213.6Z" transform="translate(-684.242 -136.237)" fill="url(#linear-gradient-19)"/>
      <path id="Trazado_1312" data-name="Trazado 1312" d="M728.884,239.25l-.058,0-25.194-1.273a1.129,1.129,0,1,1,.114-2.255l25.194,1.273a1.129,1.129,0,0,1-.056,2.257Z" transform="translate(-662.998 -161.883)" fill="url(#linear-gradient-20)"/>
      <path id="Trazado_1313" data-name="Trazado 1313" d="M692.933,184.118h0a.226.226,0,0,1-.225-.227c.017-5.261-2.013-12.243-2.034-12.314a.226.226,0,1,1,.434-.127c.021.071,2.069,7.116,2.052,12.442A.226.226,0,0,1,692.933,184.118Z" transform="translate(-657.519 -132.203)" fill="url(#linear-gradient-21)"/>
      <path id="Trazado_1314" data-name="Trazado 1314" d="M667.086,189.385a.226.226,0,0,1-.177-.086c-.055-.07-5.568-7.078-7.463-11.882a.226.226,0,1,1,.42-.166c1.872,4.743,7.344,11.7,7.4,11.768a.226.226,0,0,1-.178.366Z" transform="translate(-643.13 -134.884)" fill="url(#linear-gradient-22)"/>
      <path id="Trazado_1315" data-name="Trazado 1315" d="M648.034,208.263l-.168-.072c-7.98-3.417-12.908-12.943-12.957-13.039a.226.226,0,0,1,.4-.206c.047.094,4.836,9.344,12.566,12.756l.809-1.143a.226.226,0,1,1,.368.261Z" transform="translate(-631.823 -143.045)" fill="url(#linear-gradient-23)"/>
    </g>
    <g id="Grupo_2220" data-name="Grupo 2220" transform="translate(217.019 237.134)">
      <path id="Trazado_1316" data-name="Trazado 1316" d="M381.307,446.7a22.979,22.979,0,0,1-22.415-21.077l-2.126-26.563a22.49,22.49,0,0,1,5.713-17.031,20.553,20.553,0,0,1,15.241-6.68l207.39-.381a20.183,20.183,0,0,1,16.015,7.306,21.458,21.458,0,0,1,4.077,17.983l-5.676,27.859c-2.36,11.579-13.638,20.651-25.674,20.651Z" transform="translate(-356.692 -374.965)" fill="url(#linear-gradient-24)"/>
      <path id="Trazado_1317" data-name="Trazado 1317" d="M589.726,384.965l-207.39.381c-9.407.018-16.363,8.173-15.587,17.887l2.125,26.563a17.664,17.664,0,0,0,17.1,16.114l192.286,2.067c9.5.1,18.694-7.029,20.591-16.334l5.676-27.859C606.6,393.59,600,384.946,589.726,384.965Z" transform="translate(-361.298 -379.572)" fill="url(#linear-gradient-25)"/>
      <g id="Grupo_2219" data-name="Grupo 2219" transform="translate(23.028 10.806)">
        <g id="Grupo_2218" data-name="Grupo 2218" transform="translate(0 8.121)">
          <path id="Trazado_1318" data-name="Trazado 1318" d="M445.551,415.673l-9.572,29.242h-.038a4.057,4.057,0,0,1-2.826,2.751h-.038c-.038,0-.113.038-.151.038h-.076c-.037,0-.075.037-.113.037h-.9c-.038,0-.075-.037-.113-.037h-.075c-.038,0-.113-.038-.151-.038h-.037a4.176,4.176,0,0,1-2.864-2.751l-6.029-18.427-6.029,18.427a4.057,4.057,0,0,1-2.826,2.751h-.038c-.075,0-.113.038-.151.038h-.075c-.038,0-.076.037-.113.037h-.9c-.038,0-.075-.037-.113-.037h-.075c-.076,0-.113-.038-.151-.038h-.037a4.107,4.107,0,0,1-2.864-2.751l-9.572-29.242V415.6a4.506,4.506,0,0,1-.226-1.394,4.121,4.121,0,0,1,2.6-3.919,3.169,3.169,0,0,1,1.168-.189,3.94,3.94,0,0,1,3.693,2.9c.037.075,3.316,10.062,6.029,18.352,2.713-8.29,5.991-18.276,5.991-18.352a4.209,4.209,0,0,1,2.336-2.637l.037-.038c.038,0,.076-.037.113-.037h.038c.038,0,.038-.038.076-.038h.076a.137.137,0,0,1,.113-.038l.038-.038c.075,0,.113,0,.151-.037h.037c.076,0,.113,0,.151-.038h.226c.076,0,.113,0,.151-.038h.339a.139.139,0,0,0,.113.038h.226a.335.335,0,0,0,.188.038.29.29,0,0,0,.151.037c.038,0,.038,0,.038.038.075,0,.113,0,.15.038h.076a.132.132,0,0,0,.076.038h.038c.038,0,.076.037.113.037l.038.038A4.206,4.206,0,0,1,426.295,413c0,.075,3.279,10.062,5.992,18.352,2.713-8.29,5.991-18.276,5.991-18.352a4.018,4.018,0,0,1,3.731-2.9,3.169,3.169,0,0,1,1.168.189,4.121,4.121,0,0,1,2.6,3.919,4.507,4.507,0,0,1-.226,1.394Z" transform="translate(-399.389 -410.058)" fill="#fff"/>
          <path id="Trazado_1319" data-name="Trazado 1319" d="M535.06,415.673l-9.572,29.242h-.038a4.056,4.056,0,0,1-2.826,2.751h-.038c-.038,0-.113.038-.151.038h-.075c-.038,0-.075.037-.113.037h-.9c-.038,0-.075-.037-.113-.037h-.076c-.038,0-.113-.038-.151-.038h-.038a4.174,4.174,0,0,1-2.864-2.751l-6.029-18.427-6.03,18.427a4.056,4.056,0,0,1-2.826,2.751h-.038c-.076,0-.113.038-.151.038h-.075c-.038,0-.076.037-.113.037h-.9c-.038,0-.076-.037-.113-.037h-.076c-.075,0-.113-.038-.15-.038h-.038a4.107,4.107,0,0,1-2.864-2.751l-9.571-29.242V415.6a4.49,4.49,0,0,1-.227-1.394,4.121,4.121,0,0,1,2.6-3.919,3.169,3.169,0,0,1,1.168-.189,3.94,3.94,0,0,1,3.693,2.9c.038.075,3.316,10.062,6.029,18.352,2.713-8.29,5.991-18.276,5.991-18.352a4.207,4.207,0,0,1,2.336-2.637l.038-.038c.038,0,.075-.037.113-.037h.038c.037,0,.037-.038.075-.038h.076a.137.137,0,0,1,.113-.038l.038-.038c.076,0,.113,0,.151-.037h.038c.075,0,.113,0,.15-.038h.226c.076,0,.113,0,.151-.038h.339a.137.137,0,0,0,.113.038h.227a.334.334,0,0,0,.188.038.288.288,0,0,0,.151.037c.038,0,.038,0,.038.038.076,0,.113,0,.151.038h.075a.134.134,0,0,0,.076.038h.038c.038,0,.076.037.113.037l.037.038A4.208,4.208,0,0,1,515.8,413c0,.075,3.278,10.062,5.991,18.352,2.713-8.29,5.992-18.276,5.992-18.352a4.018,4.018,0,0,1,3.731-2.9,3.167,3.167,0,0,1,1.168.189,4.121,4.121,0,0,1,2.6,3.919,4.505,4.505,0,0,1-.226,1.394Z" transform="translate(-440.623 -410.058)" fill="#fff"/>
          <path id="Trazado_1320" data-name="Trazado 1320" d="M624.57,415.673,615,444.915h-.037a4.057,4.057,0,0,1-2.827,2.751H612.1c-.037,0-.113.038-.151.038h-.076c-.038,0-.076.037-.113.037h-.9c-.038,0-.075-.037-.113-.037h-.075c-.038,0-.113-.038-.15-.038h-.038a4.174,4.174,0,0,1-2.864-2.751l-6.029-18.427-6.029,18.427a4.057,4.057,0,0,1-2.827,2.751h-.037c-.076,0-.113.038-.151.038h-.076c-.038,0-.075.037-.113.037h-.905c-.037,0-.075-.037-.113-.037h-.076c-.075,0-.113-.038-.15-.038h-.038a4.105,4.105,0,0,1-2.864-2.751l-9.571-29.242V415.6a4.491,4.491,0,0,1-.226-1.394,4.121,4.121,0,0,1,2.6-3.919,3.171,3.171,0,0,1,1.168-.189,3.939,3.939,0,0,1,3.693,2.9c.038.075,3.316,10.062,6.029,18.352,2.713-8.29,5.991-18.276,5.991-18.352a4.209,4.209,0,0,1,2.336-2.637l.038-.038c.038,0,.075-.037.113-.037h.038c.038,0,.038-.038.075-.038h.076a.139.139,0,0,1,.113-.038l.038-.038c.076,0,.113,0,.15-.037h.038c.075,0,.113,0,.15-.038h.227c.075,0,.113,0,.151-.038h.339a.138.138,0,0,0,.113.038h.227a.334.334,0,0,0,.188.038.289.289,0,0,0,.151.037c.038,0,.038,0,.038.038.075,0,.113,0,.15.038h.076a.131.131,0,0,0,.075.038h.037c.038,0,.075.037.113.037l.038.038A4.208,4.208,0,0,1,605.314,413c0,.075,3.278,10.062,5.991,18.352,2.713-8.29,5.992-18.276,5.992-18.352a4.017,4.017,0,0,1,3.731-2.9,3.171,3.171,0,0,1,1.168.189,4.121,4.121,0,0,1,2.6,3.919,4.489,4.489,0,0,1-.226,1.394Z" transform="translate(-481.857 -410.058)" fill="#fff"/>
        </g>
        <path id="Trazado_1321" data-name="Trazado 1321" d="M680.236,441.383A1.618,1.618,0,0,1,678.618,443h0A1.618,1.618,0,0,1,677,441.383V396.618A1.618,1.618,0,0,1,678.618,395h0a1.618,1.618,0,0,1,1.618,1.618Z" transform="translate(-527.275 -395)" fill="#fff"/>
      </g>
      <path id="Trazado_1322" data-name="Trazado 1322" d="M785.349,482.793l-24.135-29.444a.874.874,0,0,1,.471-1.4L783,446.829a2.216,2.216,0,0,0,.667-4.027l-60.823-38.439a2.215,2.215,0,0,0-3.369,2.234l12.646,76.361a2.215,2.215,0,0,0,4.089.772l11.8-19.807a.873.873,0,0,1,1.439-.09l22.477,28.829a3.974,3.974,0,0,0,5.369.843l7.213-4.9a3.974,3.974,0,0,0,.839-5.806Z" transform="translate(-523.801 -388.349)" fill="#fff"/>
    </g>
    <g id="Grupo_2223" data-name="Grupo 2223" transform="translate(196.975 297.399)">
      <g id="Grupo_2221" data-name="Grupo 2221" transform="translate(8.758)">
        <path id="Trazado_1323" data-name="Trazado 1323" d="M337.089,568.434c-2.513-10.523-1.333-20.835,2.591-28.852a30.7,30.7,0,0,0,1.7-23q-.39-1.2-.69-2.449c-3.023-12.656,2.281-24.767,11.846-27.051s19.77,6.122,22.793,18.777a30.49,30.49,0,0,1,.843,7.615,30.844,30.844,0,0,0,7.865,21.355,45.252,45.252,0,0,1,10.3,19.932c2.81,11.766,1,23.27-4.1,31.595a30.234,30.234,0,0,0-3.952,10.259c-1.117,6.029-4.908,10.838-10.279,12.121-5.793,1.383-11.8-1.725-15.49-7.361a32.257,32.257,0,0,0-7.84-8.2C345.443,587.812,339.63,579.073,337.089,568.434Z" transform="translate(-335.767 -486.706)" fill="url(#linear-gradient-26)"/>
        <path id="Trazado_1324" data-name="Trazado 1324" d="M366.615,513.813c.748,8.662,1.774,17.294,2.89,25.914.278,2.155.591,4.305.9,6.457l.459,3.227.486,3.223c.332,2.148.635,4.3.992,6.444l1.07,6.432c.768,4.279,1.5,8.564,2.347,12.828.421,2.133.8,4.273,1.264,6.4l1.362,6.378c1.9,8.484,4.019,16.925,6.558,25.242l.36-.106-1.663-6.295-.419-1.572-.38-1.583-.753-3.167-.759-3.165c-.255-1.054-.471-2.119-.708-3.177-.461-2.121-.938-4.237-1.385-6.361-1.732-8.505-3.351-17.034-4.794-25.595-.689-4.286-1.414-8.566-2.073-12.857l-.5-3.217-.476-3.221c-.319-2.147-.637-4.294-.934-6.444q-.946-6.444-1.8-12.9c-.587-4.3-1.135-8.611-1.668-12.92Z" transform="translate(-349.977 -499.176)" fill="#fff" opacity="0.57"/>
      </g>
      <g id="Grupo_2222" data-name="Grupo 2222" transform="translate(0 62.183)">
        <path id="Trazado_1325" data-name="Trazado 1325" d="M332.49,648.866a24.286,24.286,0,0,1-4.874-15.47,17.224,17.224,0,0,0-4.074-12.255q-.459-.534-.883-1.118c-4.284-5.894-4.155-13.291.289-16.521s11.52-1.071,15.8,4.824a17.081,17.081,0,0,1,2.075,3.755,17.312,17.312,0,0,0,8.656,9.355,25.393,25.393,0,0,1,9.6,8.1c3.984,5.48,5.527,11.814,4.688,17.21a16.927,16.927,0,0,0,.169,6.15c.721,3.356-.2,6.654-2.7,8.468-2.692,1.956-6.462,1.637-9.579-.486a18.069,18.069,0,0,0-5.811-2.559A24.231,24.231,0,0,1,332.49,648.866Z" transform="translate(-319.528 -602.002)" fill="url(#linear-gradient-27)"/>
        <path id="Trazado_1326" data-name="Trazado 1326" d="M331.434,618.421c2.251,4.318,4.638,8.56,7.07,12.777.608,1.054,1.232,2.1,1.853,3.146l.931,1.57.945,1.562c.634,1.039,1.253,2.087,1.9,3.118l1.937,3.1c1.318,2.047,2.617,4.105,3.973,6.128.676,1.012,1.332,2.038,2.029,3.036l2.076,3c2.808,3.979,5.717,7.888,8.819,11.644l.162-.132-2.213-2.9-.554-.723-.537-.737-1.071-1.476-1.073-1.474c-.359-.49-.7-.994-1.05-1.49-.694-1-1.4-1.99-2.083-2.992q-4.088-6.038-7.984-12.2c-1.278-2.068-2.574-4.125-3.838-6.2l-.952-1.555-.939-1.563c-.627-1.041-1.253-2.083-1.869-3.131q-1.876-3.128-3.7-6.284-1.845-3.148-3.642-6.321Z" transform="translate(-325.012 -609.52)" fill="#fff" opacity="0.57"/>
      </g>
    </g>
    <g id="Grupo_2230" data-name="Grupo 2230" transform="translate(478.586 293.736)">
      <g id="Grupo_2224" data-name="Grupo 2224" transform="translate(60.4 76.796)">
        <rect id="Rect치ngulo_452" data-name="Rect치ngulo 452" width="3.537" height="38.255" transform="translate(18.28 9.109)" fill="url(#linear-gradient-28)"/>
        <path id="Trazado_1327" data-name="Trazado 1327" d="M993.1,709.523H962.115v-.973a1.33,1.33,0,0,1,1.33-1.329h28.22a1.433,1.433,0,0,1,1.433,1.433Z" transform="translate(-957.557 -661.422)" fill="url(#linear-gradient-29)"/>
        <rect id="Rect치ngulo_453" data-name="Rect치ngulo 453" width="41.399" height="11.741" rx="5.871" fill="url(#linear-gradient-30)"/>
      </g>
      <g id="Grupo_2226" data-name="Grupo 2226" transform="translate(28.033)">
        <path id="Trazado_1328" data-name="Trazado 1328" d="M923.466,687.812s-11.436,4.926-10.781,10.081c0,0,11.821-2.267,13.937-5.646s.95-5.336.95-5.336Z" transform="translate(-902.408 -575.27)" fill="url(#linear-gradient-31)"/>
        <path id="Trazado_1329" data-name="Trazado 1329" d="M933.686,678.144l.581,5.019a1.66,1.66,0,0,1-1.051,1.763,4.337,4.337,0,0,1-1.449.221,1.933,1.933,0,0,1-1.878-1.41l-1.125-4.06Z" transform="translate(-909.828 -571.231)" fill="url(#linear-gradient-32)"/>
        <path id="Trazado_1330" data-name="Trazado 1330" d="M953.446,606.732s-21.034-.973-31.5,5.131.531,35.4.531,35.4,2.734.588,6.671-1.516c0,0-5.618-21.445,4.141-25.176a56.18,56.18,0,0,1,22.319-3.174l-2.1-10Z" transform="translate(-904.605 -538.308)" fill="url(#linear-gradient-33)"/>
        <path id="Trazado_1331" data-name="Trazado 1331" d="M913.352,700.155c2.391-.524,9.484-3.463,10.561-3.423s2.6,1.653,2.6,1.653a2.868,2.868,0,0,1-.508,2.149c-1.828,1.425-5.764,4.041-10.341,4.328a7.678,7.678,0,0,1-6.551-2.428A9.361,9.361,0,0,1,913.352,700.155Z" transform="translate(-900.777 -579.794)" fill="url(#linear-gradient-34)"/>
        <path id="Trazado_1332" data-name="Trazado 1332" d="M914.795,708.11c4.577-.286,8.513-2.9,10.341-4.328a8.931,8.931,0,0,1-3.378,2.941c-4.625,2.613-12.269,2.232-13.785,1.644-1.214-.471-.839-1.606.271-2.685A7.677,7.677,0,0,0,914.795,708.11Z" transform="translate(-899.903 -583.042)" fill="url(#linear-gradient-35)"/>
        <path id="Trazado_1333" data-name="Trazado 1333" d="M940.5,692.632A17.058,17.058,0,0,1,937.7,696a1.905,1.905,0,0,1-1.772.533,4.911,4.911,0,0,1-1.269-.445,1.237,1.237,0,0,1-.478-1.683l2.45-4.454Z" transform="translate(-912.253 -576.669)" fill="url(#linear-gradient-36)"/>
        <path id="Trazado_1334" data-name="Trazado 1334" d="M982.682,603.511s1.836,13.025-3.473,15.687-16.952,4.405-20.962,11.161-11.213,20.015-17.768,23.825c0,0-3.743-1.217-4.837-3.058,0,0,7.781-20.453,11.026-25.424,2.81-4.306,6.921-10.508,12.761-13.191,1.671-.768,1.8-2.541,1.509-4.357l-.536-3.307Z" transform="translate(-912.995 -536.85)" fill="url(#linear-gradient-37)"/>
        <path id="Trazado_1335" data-name="Trazado 1335" d="M930.293,559.623c7.442,2.125,10.774-18.821,10.744-19.331l11.411,13.342s-6.8,11.963-17.066,13.237a12.112,12.112,0,0,1-6.66-.977A10.663,10.663,0,0,0,930.293,559.623Z" transform="translate(-909.808 -507.728)" fill="url(#linear-gradient-38)"/>
        <path id="Trazado_1336" data-name="Trazado 1336" d="M900.355,563.1c3.244-1.333,6,1.327,6,1.327,3.214,3.29,5.763,4.951,7.787,5.529a10.663,10.663,0,0,1-1.572,6.272,16.593,16.593,0,0,1-7.31-7.4,1.392,1.392,0,0,0-1.836-.622c-.688.332-1.4.84-1.441,1.529-.087,1.359-1.7,1.438-1.714.937a20.126,20.126,0,0,1,1.252-3.185s-3.727,2.39-5.177,3.305-2.687-.595-2.687-.595S897.112,564.436,900.355,563.1Z" transform="translate(-893.653 -518.064)" fill="url(#linear-gradient-39)"/>
        <path id="Trazado_1337" data-name="Trazado 1337" d="M986.976,522.7s-10-6.823-34.156,5.517c0,0-2.487,3.153-1.322,6.708S967,557.724,967.562,566.756c0,0,9.8,5.771,22.531.05C990.092,566.805,994.36,542.956,986.976,522.7Z" transform="translate(-920.157 -498.759)" fill="url(#linear-gradient-40)"/>
        <path id="Trazado_1338" data-name="Trazado 1338" d="M969.755,504.5l6.4,9.708a2.2,2.2,0,0,1-.228,2.375,6.291,6.291,0,0,1-7.238,2.015,3.4,3.4,0,0,1-2.314-2.463l-2.048-8.645Z" transform="translate(-926.21 -491.239)" fill="url(#linear-gradient-41)"/>
        <path id="Trazado_1339" data-name="Trazado 1339" d="M1021.23,551.356c.677-4.708-11.764-13.832-11.764-13.832l4.357-13.212s23.739,16.941,18.747,30.776a9.672,9.672,0,0,1-3.084,4.452C1026.972,554.384,1023.563,552.242,1021.23,551.356Z" transform="translate(-947.004 -500.366)" fill="url(#linear-gradient-42)"/>
        <path id="Trazado_1340" data-name="Trazado 1340" d="M990.086,575.762s14.073,3.93,16.992-.353a2.232,2.232,0,0,0,.364-.954c2.333.886,5.742,3.028,8.255,8.184-6.682,5.256-19.565-.636-23.065-2.4a2.472,2.472,0,0,0-1.854-.155,16.883,16.883,0,0,1-4.6.926c-1.759-.1-3.646,6.258-6.639,4.649C979.536,585.657,980.9,574.8,990.086,575.762Z" transform="translate(-933.216 -523.465)" fill="url(#linear-gradient-43)"/>
        <g id="Grupo_2225" data-name="Grupo 2225" transform="translate(25.112)">
          <path id="Trazado_1341" data-name="Trazado 1341" d="M947.308,491.708c-.01.166,2.9,10.246,4.392,15.381a2.73,2.73,0,0,0,3.678,1.757l1.154-.483c1.577-.66,4.332-2.694,4.486-4.4l-.523-12.175S947.517,487.986,947.308,491.708Z" transform="translate(-943.482 -484.594)" fill="url(#linear-gradient-44)"/>
          <path id="Trazado_1342" data-name="Trazado 1342" d="M957.135,483.735a2.7,2.7,0,0,0-1.835-3.589,3.811,3.811,0,0,0-4.436,1.489,1.042,1.042,0,0,1-1.308.272.823.823,0,0,0-.93.113,1.026,1.026,0,0,1-1.485-.312,3.107,3.107,0,0,0-3.754-1.477c-3.607.948-3.666,5.041-2.492,7.334s5.026,1.043,6.893-.328c1.419-1.043,3.448-.258,4.339.179a1.032,1.032,0,0,1,.552.7l1.008,4.525c1.121.11,2.223.312,3.326.528-.018-.337-.026-.623-.021-.836.042-1.5,1.787-2.55,2.551-2.938a1.021,1.021,0,0,0,.517-.619,2.7,2.7,0,0,0-2.151-3.76A1.043,1.043,0,0,1,957.135,483.735Z" transform="translate(-940.215 -479.913)" fill="url(#linear-gradient-45)"/>
          <path id="Trazado_1343" data-name="Trazado 1343" d="M971.538,502.853s-1.874-4.083-.418-5.251,3.794-.832,3.556,2.266C974.382,503.721,971.538,502.853,971.538,502.853Z" transform="translate(-954.196 -487.776)" fill="url(#linear-gradient-46)"/>
        </g>
      </g>
      <g id="Grupo_2227" data-name="Grupo 2227" transform="translate(2.238 31.406)">
        <path id="Trazado_1344" data-name="Trazado 1344" d="M936.378,590.948c-.025,0-.051,0-.076,0l-32.877-.036a1.472,1.472,0,1,1,0-2.943l32.877.036a1.471,1.471,0,0,1,.073,2.941Z" transform="translate(-871.682 -561.098)" fill="url(#linear-gradient-47)"/>
        <path id="Trazado_1345" data-name="Trazado 1345" d="M848.013,538.145h27.38a5.218,5.218,0,0,1,4.72,2.992l12.658,26.84H858.745a3.171,3.171,0,0,1-2.95-2.006l-9.815-24.836A2.186,2.186,0,0,1,848.013,538.145Z" transform="translate(-845.824 -538.145)" fill="url(#linear-gradient-48)"/>
      </g>
      <g id="Grupo_2229" data-name="Grupo 2229" transform="translate(0 60.944)">
        <g id="Grupo_2228" data-name="Grupo 2228" transform="translate(7.484 2.94)">
          <path id="Trazado_1346" data-name="Trazado 1346" d="M856.932,666.251a1.423,1.423,0,0,1-.545-.109,1.321,1.321,0,0,1-.723-1.757l28.975-65.211a1.4,1.4,0,0,1,1.815-.7,1.321,1.321,0,0,1,.723,1.757L858.2,665.442A1.385,1.385,0,0,1,856.932,666.251Z" transform="translate(-855.551 -598.364)" fill="url(#linear-gradient-49)"/>
          <path id="Trazado_1347" data-name="Trazado 1347" d="M892.7,666.251a1.384,1.384,0,0,1-1.27-.809L862.46,600.231a1.322,1.322,0,0,1,.723-1.757,1.4,1.4,0,0,1,1.815.7l28.975,65.211a1.322,1.322,0,0,1-.723,1.757A1.42,1.42,0,0,1,892.7,666.251Z" transform="translate(-858.682 -598.364)" fill="url(#linear-gradient-49)"/>
          <path id="Trazado_1348" data-name="Trazado 1348" d="M1023.23,666.251a1.421,1.421,0,0,1-.545-.109,1.322,1.322,0,0,1-.723-1.757l28.975-65.211a1.4,1.4,0,0,1,1.815-.7,1.322,1.322,0,0,1,.723,1.757L1024.5,665.442A1.385,1.385,0,0,1,1023.23,666.251Z" transform="translate(-932.159 -598.364)" fill="url(#linear-gradient-51)"/>
          <path id="Trazado_1349" data-name="Trazado 1349" d="M1059,666.251a1.383,1.383,0,0,1-1.27-.809l-28.975-65.211a1.322,1.322,0,0,1,.723-1.757,1.4,1.4,0,0,1,1.815.7l28.975,65.211a1.322,1.322,0,0,1-.723,1.757A1.422,1.422,0,0,1,1059,666.251Z" transform="translate(-935.29 -598.364)" fill="url(#linear-gradient-52)"/>
        </g>
        <path id="Trazado_1350" data-name="Trazado 1350" d="M976.27,594.649a1.591,1.591,0,0,0-.274-1.206,1.255,1.255,0,0,0-1.006-.531H843.176a1.469,1.469,0,0,0-1.264.775,1.856,1.856,0,0,0-.1,1.609l1.429,3.461a2,2,0,0,0,1.815,1.3H974.086a1.57,1.57,0,0,0,1.487-1.373Z" transform="translate(-841.675 -592.912)" fill="url(#linear-gradient-53)"/>
      </g>
    </g>
    <g id="Grupo_2232" data-name="Grupo 2232" transform="translate(147.647 170.967)">
      <path id="Trazado_1351" data-name="Trazado 1351" d="M272.709,252.283c17.017.693,36.152,9.769,39.564,27.93,2.9,15.443-12.813,25.186-22.689,30a12.551,12.551,0,0,0-6.093,6.477c-2.811,6.773-9.631,18.729-22.05,16.076a.887.887,0,0,1-.037-1.723c2.841-.767,6.7-2.417,8.583-5.9a7.537,7.537,0,0,0-6.1-11.009c-10.178-.848-30.345-5.52-35.229-28.875C222.056,253.671,272.709,252.283,272.709,252.283Z" transform="translate(-228.067 -252.283)" fill="url(#linear-gradient-54)"/>
      <path id="Trazado_1352" data-name="Trazado 1352" d="M293.658,295.492S291.232,285,280.927,288.4c-9.762,3.216-4.427,16.427,11.044,22.961a5.607,5.607,0,0,0,5.14-.408c5.789-3.6,19.055-13.385,9.466-22.632C300.385,282.347,293.658,295.492,293.658,295.492Z" transform="translate(-250.153 -268.166)" fill="#fff"/>
      <g id="Grupo_2231" data-name="Grupo 2231" transform="translate(37.554 2.864)">
        <path id="Trazado_1353" data-name="Trazado 1353" d="M334.218,271.645a.806.806,0,0,1-.616-.285c-5.179-6.086-15.463-13.121-35.05-12.043a.825.825,0,0,1-.852-.764.809.809,0,0,1,.763-.852c11.178-.611,26.559,1.079,36.371,12.611a.809.809,0,0,1-.616,1.333Z" transform="translate(-297.699 -257.593)" fill="#fff"/>
        <path id="Trazado_1354" data-name="Trazado 1354" d="M375.543,302.249a.809.809,0,0,1-.8-.68,22.827,22.827,0,0,0-1.419-4.542.809.809,0,0,1,1.493-.621,23.872,23.872,0,0,1,1.523,4.907.809.809,0,0,1-.8.936Z" transform="translate(-332.509 -275.243)" fill="#fff"/>
      </g>
    </g>
    <g id="Grupo_2236" data-name="Grupo 2236" transform="translate(144.891 111.551)">
      <g id="Grupo_2233" data-name="Grupo 2233" transform="translate(0 19.47)">
        <path id="Trazado_1355" data-name="Trazado 1355" d="M327.649,179.1l-1.471.659-.008,0a.463.463,0,0,1-.379-.845h0l1.489-.66a.46.46,0,1,1,.373.84Z" transform="translate(-270.204 -178.217)" fill="#fff"/>
        <path id="Trazado_1356" data-name="Trazado 1356" d="M318.659,183.356l-1.426.746-.008,0a.473.473,0,0,1-.439-.838h0l1.444-.748a.47.47,0,1,1,.433.834Z" transform="translate(-266.065 -180.174)" fill="#fff"/>
        <path id="Trazado_1357" data-name="Trazado 1357" d="M309.953,188.144l-1.379.829-.007,0a.484.484,0,0,1-.5-.829h0l1.4-.833a.48.48,0,0,1,.492.825Z" transform="translate(-262.058 -182.377)" fill="#fff"/>
        <path id="Trazado_1358" data-name="Trazado 1358" d="M301.547,193.44l-1.327.908-.007,0a.494.494,0,1,1-.558-.814h0l1.345-.913a.491.491,0,1,1,.551.812Z" transform="translate(-258.191 -184.815)" fill="#fff"/>
        <path id="Trazado_1359" data-name="Trazado 1359" d="M293.471,199.214l-1.273.983-.007.005a.5.5,0,0,1-.615-.8h0l1.291-.989a.5.5,0,0,1,.609.8Z" transform="translate(-254.477 -187.474)" fill="#fff"/>
        <path id="Trazado_1360" data-name="Trazado 1360" d="M285.739,205.443l-1.216,1.053-.006.006a.514.514,0,1,1-.673-.777v0l1.233-1.06a.511.511,0,0,1,.666.775Z" transform="translate(-250.924 -190.343)" fill="#fff"/>
        <path id="Trazado_1361" data-name="Trazado 1361" d="M278.37,212.1l-1.156,1.12-.006.006a.524.524,0,1,1-.73-.753l0,0,1.173-1.128a.521.521,0,0,1,.723.752Z" transform="translate(-247.539 -193.411)" fill="#fff"/>
        <path id="Trazado_1362" data-name="Trazado 1362" d="M271.385,219.164l-1.093,1.183-.006.006a.535.535,0,1,1-.785-.725v0l1.109-1.191a.532.532,0,1,1,.778.724Z" transform="translate(-244.333 -196.666)" fill="#fff"/>
        <path id="Trazado_1363" data-name="Trazado 1363" d="M264.8,226.607l-1.026,1.242-.005.006a.545.545,0,1,1-.84-.694v0l1.042-1.251a.542.542,0,0,1,.833.694Z" transform="translate(-241.314 -200.097)" fill="#fff"/>
        <path id="Trazado_1364" data-name="Trazado 1364" d="M258.643,234.4l-.956,1.3-.005.008a.555.555,0,0,1-.894-.659v0l.972-1.307a.552.552,0,0,1,.886.659Z" transform="translate(-238.492 -203.69)" fill="#fff"/>
        <path id="Trazado_1365" data-name="Trazado 1365" d="M252.925,242.524l-.883,1.346-.005.008a.565.565,0,0,1-.945-.62v0l.9-1.359a.562.562,0,1,1,.938.621Z" transform="translate(-235.875 -207.436)" fill="#fff"/>
        <path id="Trazado_1366" data-name="Trazado 1366" d="M247.666,250.955l-.807,1.393,0,.008a.576.576,0,1,1-1-.577v0l.821-1.406a.573.573,0,0,1,.989.578Z" transform="translate(-233.472 -211.325)" fill="#fff"/>
        <path id="Trazado_1367" data-name="Trazado 1367" d="M242.889,259.666l-.728,1.435,0,.009a.586.586,0,1,1-1.045-.53v0l.742-1.45a.583.583,0,0,1,1.038.531Z" transform="translate(-231.291 -215.344)" fill="#fff"/>
        <path id="Trazado_1368" data-name="Trazado 1368" d="M238.612,268.63l-.645,1.473,0,.009a.6.6,0,1,1-1.092-.478v0l.659-1.489a.593.593,0,0,1,1.085.479Z" transform="translate(-229.344 -219.48)" fill="#fff"/>
        <path id="Trazado_1369" data-name="Trazado 1369" d="M234.857,277.823l-.559,1.506,0,.01a.607.607,0,1,1-1.137-.422v0l.572-1.524a.6.6,0,1,1,1.13.424Z" transform="translate(-227.639 -223.723)" fill="#fff"/>
        <path id="Trazado_1370" data-name="Trazado 1370" d="M231.643,287.216l-.47,1.536,0,.01a.617.617,0,0,1-1.18-.361v0l.483-1.555a.614.614,0,0,1,1.172.364Z" transform="translate(-226.185 -228.059)" fill="#fff"/>
        <path id="Trazado_1371" data-name="Trazado 1371" d="M228.989,296.785l-.378,1.561,0,.011a.627.627,0,1,1-1.219-.3v0l.389-1.581a.624.624,0,0,1,1.211.3Z" transform="translate(-224.991 -232.477)" fill="#fff"/>
        <path id="Trazado_1372" data-name="Trazado 1372" d="M226.916,306.5l-.283,1.581,0,.012a.637.637,0,0,1-1.255-.224v0l.293-1.6a.634.634,0,0,1,1.248.228Z" transform="translate(-224.068 -236.964)" fill="#fff"/>
        <path id="Trazado_1373" data-name="Trazado 1373" d="M225.441,316.33l-.186,1.6v.012a.648.648,0,0,1-1.287-.15v0l.194-1.619a.645.645,0,1,1,1.28.154Z" transform="translate(-223.421 -241.505)" fill="#fff"/>
        <path id="Trazado_1374" data-name="Trazado 1374" d="M224.564,326.236l-.09,1.6v.012a.658.658,0,1,1-1.313-.074v0l.1-1.626a.655.655,0,0,1,1.307.078Z" transform="translate(-223.051 -246.081)" fill="#fff"/>
        <path id="Trazado_1375" data-name="Trazado 1375" d="M224.278,336.178l0,1.605v.011a.661.661,0,1,1-1.322,0h0v-1.628a.66.66,0,1,1,1.32,0Z" transform="translate(-222.958 -250.675)" fill="#fff"/>
        <path id="Trazado_1376" data-name="Trazado 1376" d="M224.491,346.131l.1,1.6v.011a.665.665,0,0,1-1.327.079h0l-.094-1.626a.664.664,0,0,1,1.325-.077Z" transform="translate(-223.053 -255.277)" fill="#fff"/>
        <path id="Trazado_1377" data-name="Trazado 1377" d="M225.274,356.053l.186,1.6v.011a.668.668,0,1,1-1.327.155h0l-.187-1.618a.667.667,0,0,1,1.326-.153Z" transform="translate(-223.411 -259.863)" fill="#fff"/>
        <path id="Trazado_1378" data-name="Trazado 1378" d="M226.617,365.918l.276,1.583,0,.011a.672.672,0,0,1-1.324.231h0l-.277-1.605a.671.671,0,0,1,1.322-.229Z" transform="translate(-224.029 -264.424)" fill="#fff"/>
        <path id="Trazado_1379" data-name="Trazado 1379" d="M228.51,375.7l.363,1.566,0,.011a.675.675,0,0,1-1.316.3h0l-.366-1.588a.674.674,0,1,1,1.314-.3Z" transform="translate(-224.901 -268.944)" fill="#fff"/>
        <path id="Trazado_1380" data-name="Trazado 1380" d="M230.942,385.358l.449,1.544,0,.01a.679.679,0,1,1-1.3.38h0l-.453-1.566a.678.678,0,1,1,1.3-.377Z" transform="translate(-226.022 -273.41)" fill="#fff"/>
        <path id="Trazado_1381" data-name="Trazado 1381" d="M233.9,394.869l.533,1.517,0,.011a.682.682,0,1,1-1.287.452h0l-.539-1.539a.681.681,0,0,1,1.286-.45Z" transform="translate(-227.388 -277.806)" fill="#fff"/>
        <path id="Trazado_1382" data-name="Trazado 1382" d="M237.381,404.2l.616,1.485,0,.011a.686.686,0,0,1-1.267.525h0l-.623-1.507a.685.685,0,0,1,1.266-.523Z" transform="translate(-228.993 -282.121)" fill="#fff"/>
        <path id="Trazado_1383" data-name="Trazado 1383" d="M241.368,413.329l.7,1.449,0,.011a.69.69,0,0,1-1.243.6h0l-.7-1.47a.688.688,0,1,1,1.242-.6Z" transform="translate(-230.834 -286.341)" fill="#fff"/>
        <path id="Trazado_1384" data-name="Trazado 1384" d="M245.856,422.223l.776,1.407.006.01a.693.693,0,0,1-1.214.67h0l-.785-1.429a.692.692,0,0,1,1.213-.667Z" transform="translate(-232.906 -290.453)" fill="#fff"/>
        <path id="Trazado_1385" data-name="Trazado 1385" d="M250.831,430.849l.854,1.361.006.01a.7.7,0,1,1-1.18.741h0l-.865-1.382a.7.7,0,0,1,1.18-.738Z" transform="translate(-235.204 -294.441)" fill="#fff"/>
        <path id="Trazado_1386" data-name="Trazado 1386" d="M256.285,439.177l.93,1.309.007.01a.7.7,0,1,1-1.142.811h0l-.942-1.33a.7.7,0,1,1,1.141-.808Z" transform="translate(-237.723 -298.293)" fill="#fff"/>
        <path id="Trazado_1387" data-name="Trazado 1387" d="M262.2,447.175l1,1.252.008.01a.7.7,0,0,1-1.1.88h0l-1.017-1.273a.7.7,0,0,1,1.1-.877Z" transform="translate(-240.458 -301.991)" fill="#fff"/>
        <path id="Trazado_1388" data-name="Trazado 1388" d="M268.58,454.811,269.655,456l.009.01a.707.707,0,1,1-1.05.948h0l-1.091-1.211a.706.706,0,0,1,1.05-.945Z" transform="translate(-243.404 -305.523)" fill="#fff"/>
        <path id="Trazado_1389" data-name="Trazado 1389" d="M275.4,462.056l1.145,1.124.009.009a.711.711,0,1,1-1,1.014h0l-1.162-1.144a.71.71,0,0,1,1-1.012Z" transform="translate(-246.555 -308.874)" fill="#fff"/>
        <path id="Trazado_1390" data-name="Trazado 1390" d="M282.642,468.876l1.21,1.053.009.009a.714.714,0,1,1-.938,1.077h0l-1.226-1.071a.713.713,0,0,1,.938-1.074Z" transform="translate(-249.904 -312.029)" fill="#fff"/>
        <path id="Trazado_1391" data-name="Trazado 1391" d="M290.274,475.26l1.269.984.01.008a.718.718,0,1,1-.88,1.135h0l-1.287-1a.717.717,0,1,1,.88-1.131Z" transform="translate(-253.431 -314.982)" fill="#fff"/>
        <path id="Trazado_1392" data-name="Trazado 1392" d="M298.258,481.206l1.322.911.01.007a.721.721,0,1,1-.819,1.188h0l-1.341-.927a.72.72,0,0,1,.82-1.185Z" transform="translate(-257.122 -317.732)" fill="#fff"/>
        <path id="Trazado_1393" data-name="Trazado 1393" d="M306.558,486.7l1.37.84.01.006a.725.725,0,1,1-.758,1.236h0l-1.388-.853a.724.724,0,1,1,.758-1.234Z" transform="translate(-260.957 -320.275)" fill="#fff"/>
        <path id="Trazado_1394" data-name="Trazado 1394" d="M315.141,491.752l1.412.767.01.005a.728.728,0,0,1-.7,1.28h0l-1.43-.78a.727.727,0,1,1,.7-1.277Z" transform="translate(-264.924 -322.609)" fill="#fff"/>
        <path id="Trazado_1395" data-name="Trazado 1395" d="M323.973,496.351l1.449.695.01,0a.732.732,0,0,1-.633,1.32h0l-1.468-.706a.731.731,0,1,1,.634-1.318Z" transform="translate(-269.005 -324.735)" fill="#fff"/>
        <path id="Trazado_1396" data-name="Trazado 1396" d="M333.026,500.5l1.482.623.01,0a.736.736,0,1,1-.571,1.356h0l-1.5-.633a.735.735,0,0,1,.571-1.354Z" transform="translate(-273.189 -326.654)" fill="#fff"/>
        <path id="Trazado_1397" data-name="Trazado 1397" d="M342.271,504.21l1.51.552.01,0a.739.739,0,1,1-.508,1.388h0l-1.528-.561a.738.738,0,0,1,.509-1.385Z" transform="translate(-277.46 -328.369)" fill="#fff"/>
        <path id="Trazado_1398" data-name="Trazado 1398" d="M351.679,507.481l1.532.482.009,0a.742.742,0,1,1-.445,1.417h0l-1.55-.49a.742.742,0,0,1,.447-1.414Z" transform="translate(-281.807 -329.881)" fill="#fff"/>
        <path id="Trazado_1399" data-name="Trazado 1399" d="M361.225,510.318l1.554.413.009,0a.746.746,0,1,1-.383,1.442h0l-1.573-.42a.745.745,0,0,1,.385-1.44Z" transform="translate(-286.217 -331.192)" fill="#fff"/>
        <path id="Trazado_1400" data-name="Trazado 1400" d="M370.894,512.73l1.572.345.01,0a.75.75,0,1,1-.322,1.464h0l-1.591-.351a.749.749,0,1,1,.323-1.462Z" transform="translate(-290.684 -332.307)" fill="#fff"/>
        <path id="Trazado_1401" data-name="Trazado 1401" d="M380.659,514.72l1.587.278.009,0a.753.753,0,1,1-.259,1.484h0l-1.605-.283a.752.752,0,1,1,.262-1.481Z" transform="translate(-295.195 -333.227)" fill="#fff"/>
        <path id="Trazado_1402" data-name="Trazado 1402" d="M390.5,516.293l1.6.211h.009a.757.757,0,1,1-.2,1.5h0l-1.615-.215a.756.756,0,0,1,.2-1.5Z" transform="translate(-299.742 -333.954)" fill="#fff"/>
        <path id="Trazado_1403" data-name="Trazado 1403" d="M400.4,517.454l1.6.144h.009a.76.76,0,1,1-.136,1.514h0l-1.623-.148a.759.759,0,1,1,.138-1.512Z" transform="translate(-304.316 -334.49)" fill="#fff"/>
        <path id="Trazado_1404" data-name="Trazado 1404" d="M410.35,518.2l1.607.078h.009a.764.764,0,0,1-.074,1.526h0l-1.626-.082a.762.762,0,1,1,.076-1.523Z" transform="translate(-308.91 -334.837)" fill="#fff"/>
        <path id="Trazado_1405" data-name="Trazado 1405" d="M420.31,518.545l1.608.015h.009a.767.767,0,1,1-.014,1.534h0l-1.626-.017a.766.766,0,0,1,.016-1.532Z" transform="translate(-313.511 -334.995)" fill="#fff"/>
        <path id="Trazado_1406" data-name="Trazado 1406" d="M430.275,518.464l1.609-.046h.009a.771.771,0,0,1,.044,1.541h0l-1.626.044a.77.77,0,0,1-.042-1.539Z" transform="translate(-318.113 -334.936)" fill="#fff"/>
        <path id="Trazado_1407" data-name="Trazado 1407" d="M440.235,518l1.607-.1h.008a.774.774,0,1,1,.1,1.546h0l-1.623.1a.774.774,0,0,1-.1-1.544Z" transform="translate(-322.713 -334.697)" fill="#fff"/>
        <path id="Trazado_1408" data-name="Trazado 1408" d="M450.176,517.193l1.6-.16h.008a.778.778,0,1,1,.154,1.548h0l-1.618.159a.777.777,0,1,1-.152-1.546Z" transform="translate(-327.303 -334.296)" fill="#fff"/>
        <path id="Trazado_1409" data-name="Trazado 1409" d="M460.086,516.043l1.6-.213h.008a.782.782,0,1,1,.207,1.549h0l-1.612.213a.78.78,0,1,1-.2-1.547Z" transform="translate(-331.879 -333.74)" fill="#fff"/>
        <path id="Trazado_1410" data-name="Trazado 1410" d="M469.955,514.571l1.589-.264h.007a.785.785,0,1,1,.257,1.548h0l-1.6.264a.784.784,0,1,1-.255-1.547Z" transform="translate(-336.435 -333.037)" fill="#fff"/>
        <path id="Trazado_1411" data-name="Trazado 1411" d="M479.775,512.79l1.581-.312.007,0a.789.789,0,0,1,.305,1.547h0l-1.594.313a.788.788,0,0,1-.3-1.546Z" transform="translate(-340.969 -332.192)" fill="#fff"/>
        <path id="Trazado_1412" data-name="Trazado 1412" d="M489.54,510.716l1.568-.358.006,0a.792.792,0,1,1,.352,1.545h0l-1.582.359a.791.791,0,0,1-.35-1.543Z" transform="translate(-345.476 -331.213)" fill="#fff"/>
        <path id="Trazado_1413" data-name="Trazado 1413" d="M499.238,508.364l1.559-.4.006,0a.8.8,0,0,1,.4,1.541h0l-1.572.4a.795.795,0,1,1-.395-1.539Z" transform="translate(-349.953 -330.107)" fill="#fff"/>
        <path id="Trazado_1414" data-name="Trazado 1414" d="M508.87,505.748l1.549-.443.006,0a.8.8,0,1,1,.44,1.537h0l-1.562.445a.8.8,0,0,1-.437-1.535Z" transform="translate(-354.398 -328.88)" fill="#fff"/>
        <path id="Trazado_1415" data-name="Trazado 1415" d="M518.436,502.88l1.539-.483.005,0a.8.8,0,0,1,.482,1.532h0l-1.551.485a.8.8,0,0,1-.478-1.53Z" transform="translate(-358.813 -327.538)" fill="#fff"/>
        <path id="Trazado_1416" data-name="Trazado 1416" d="M527.935,499.773l1.527-.521.005,0a.806.806,0,1,1,.52,1.526h0l-1.539.523a.805.805,0,1,1-.518-1.525Z" transform="translate(-363.197 -326.087)" fill="#fff"/>
        <path id="Trazado_1417" data-name="Trazado 1417" d="M537.356,496.443l1.515-.556.005,0a.81.81,0,1,1,.558,1.52h0l-1.526.558a.809.809,0,1,1-.556-1.519Z" transform="translate(-367.544 -324.533)" fill="#fff"/>
        <path id="Trazado_1418" data-name="Trazado 1418" d="M546.7,492.9l1.5-.59,0,0a.813.813,0,0,1,.594,1.514h0l-1.513.591a.812.812,0,1,1-.591-1.513Z" transform="translate(-371.855 -322.882)" fill="#fff"/>
        <path id="Trazado_1419" data-name="Trazado 1419" d="M555.969,489.155l1.489-.621,0,0a.817.817,0,1,1,.629,1.508h0l-1.5.623a.816.816,0,1,1-.626-1.506Z" transform="translate(-376.131 -321.14)" fill="#fff"/>
        <path id="Trazado_1420" data-name="Trazado 1420" d="M565.155,485.223l1.477-.65,0,0a.82.82,0,1,1,.661,1.5h0l-1.486.651a.819.819,0,0,1-.658-1.5Z" transform="translate(-380.369 -319.312)" fill="#fff"/>
        <path id="Trazado_1421" data-name="Trazado 1421" d="M574.269,481.126l1.467-.674,0,0a.824.824,0,1,1,.688,1.5h0l-1.474.676a.823.823,0,1,1-.685-1.5Z" transform="translate(-384.573 -317.411)" fill="#fff"/>
        <path id="Trazado_1422" data-name="Trazado 1422" d="M583.321,476.89l1.458-.7h0a.828.828,0,1,1,.712,1.494h0l-1.464.7a.826.826,0,1,1-.709-1.493Z" transform="translate(-388.747 -315.448)" fill="#fff"/>
        <path id="Trazado_1423" data-name="Trazado 1423" d="M592.323,472.54l1.451-.711a.831.831,0,1,1,.736,1.49l0,0-1.457.711a.83.83,0,1,1-.728-1.492Z" transform="translate(-392.897 -313.434)" fill="#fff"/>
        <path id="Trazado_1424" data-name="Trazado 1424" d="M601.286,468.1l1.447-.724a.835.835,0,1,1,.75,1.491h0l-1.451.723a.833.833,0,1,1-.743-1.492Z" transform="translate(-397.028 -311.383)" fill="#fff"/>
        <path id="Trazado_1425" data-name="Trazado 1425" d="M610.216,463.6l1.443-.732a.838.838,0,1,1,.76,1.494h0l-1.447.731a.837.837,0,0,1-.755-1.495Z" transform="translate(-401.143 -309.305)" fill="#fff"/>
        <path id="Trazado_1426" data-name="Trazado 1426" d="M619.129,459.065l1.443-.736a.842.842,0,0,1,.765,1.5h0l-1.444.735a.841.841,0,0,1-.763-1.5Z" transform="translate(-405.249 -307.213)" fill="#fff"/>
        <path id="Trazado_1427" data-name="Trazado 1427" d="M628.036,454.516l1.443-.736a.845.845,0,0,1,.769,1.505h0l-1.444.734a.844.844,0,0,1-.766-1.5Z" transform="translate(-409.352 -305.117)" fill="#fff"/>
        <path id="Trazado_1428" data-name="Trazado 1428" d="M636.951,449.979l1.446-.732a.849.849,0,0,1,.767,1.514h0l-1.445.73a.848.848,0,1,1-.766-1.512Z" transform="translate(-413.456 -303.029)" fill="#fff"/>
        <path id="Trazado_1429" data-name="Trazado 1429" d="M645.885,445.479l1.451-.724a.852.852,0,1,1,.762,1.525h0l-1.448.721a.851.851,0,1,1-.762-1.523Z" transform="translate(-417.569 -300.96)" fill="#fff"/>
        <path id="Trazado_1430" data-name="Trazado 1430" d="M654.85,441.043l1.457-.712a.855.855,0,1,1,.75,1.537l0,0-1.453.709a.855.855,0,1,1-.752-1.535Z" transform="translate(-421.695 -298.924)" fill="#fff"/>
        <path id="Trazado_1431" data-name="Trazado 1431" d="M663.871,436.71l1.466-.693a.847.847,0,0,1,.724,1.532h0l-1.459.694h0a.849.849,0,0,1-.73-1.534Z" transform="translate(-425.848 -296.939)" fill="#fff"/>
        <path id="Trazado_1432" data-name="Trazado 1432" d="M672.949,432.493l1.476-.672a.839.839,0,0,1,.7,1.528h0l-1.467.673,0,0a.842.842,0,1,1-.7-1.53Z" transform="translate(-430.026 -295.009)" fill="#fff"/>
        <path id="Trazado_1433" data-name="Trazado 1433" d="M682.089,428.419l1.487-.647a.831.831,0,1,1,.663,1.525h0l-1.477.648,0,0a.834.834,0,1,1-.67-1.527Z" transform="translate(-434.233 -293.147)" fill="#fff"/>
        <path id="Trazado_1434" data-name="Trazado 1434" d="M691.3,424.511l1.5-.618a.824.824,0,1,1,.627,1.523h0l-1.489.618,0,0a.826.826,0,1,1-.634-1.525Z" transform="translate(-438.472 -291.363)" fill="#fff"/>
        <path id="Trazado_1435" data-name="Trazado 1435" d="M700.594,420.8l1.515-.585a.816.816,0,0,1,.587,1.522h0l-1.5.585-.005,0a.818.818,0,1,1-.594-1.525Z" transform="translate(-442.747 -289.671)" fill="#fff"/>
        <path id="Trazado_1436" data-name="Trazado 1436" d="M709.979,417.309l1.531-.544a.808.808,0,1,1,.54,1.523l0,0-1.517.544-.006,0a.81.81,0,1,1-.546-1.525Z" transform="translate(-447.063 -288.087)" fill="#fff"/>
        <path id="Trazado_1437" data-name="Trazado 1437" d="M719.464,414.094l1.547-.5a.8.8,0,0,1,.49,1.523l0,0-1.532.5-.007,0a.8.8,0,1,1-.5-1.526Z" transform="translate(-451.425 -286.63)" fill="#fff"/>
        <path id="Trazado_1438" data-name="Trazado 1438" d="M729.045,411.171l1.562-.449a.792.792,0,0,1,.437,1.523l0,0-1.547.449-.007,0a.794.794,0,1,1-.443-1.526Z" transform="translate(-455.83 -285.31)" fill="#fff"/>
        <path id="Trazado_1439" data-name="Trazado 1439" d="M738.717,408.56l1.577-.4a.784.784,0,1,1,.382,1.521l-.005,0-1.56.4-.008,0a.787.787,0,1,1-.388-1.525Z" transform="translate(-460.276 -284.135)" fill="#fff"/>
        <path id="Trazado_1440" data-name="Trazado 1440" d="M748.476,406.282l1.59-.34a.776.776,0,0,1,.325,1.518h-.006l-1.573.341-.008,0a.779.779,0,1,1-.331-1.523Z" transform="translate(-464.762 -283.114)" fill="#fff"/>
        <path id="Trazado_1441" data-name="Trazado 1441" d="M758.314,404.362l1.6-.28a.769.769,0,0,1,.265,1.514h-.007l-1.584.282-.009,0a.771.771,0,1,1-.27-1.518Z" transform="translate(-469.284 -282.26)" fill="#fff"/>
        <path id="Trazado_1442" data-name="Trazado 1442" d="M768.223,402.826l1.613-.216a.761.761,0,0,1,.2,1.508h-.007l-1.594.218h-.01a.763.763,0,0,1-.207-1.512Z" transform="translate(-473.838 -281.584)" fill="#fff"/>
        <path id="Trazado_1443" data-name="Trazado 1443" d="M778.191,401.7l1.621-.146a.753.753,0,1,1,.135,1.5h-.008l-1.6.149h-.01a.755.755,0,1,1-.14-1.5Z" transform="translate(-478.418 -281.101)" fill="#fff"/>
        <path id="Trazado_1444" data-name="Trazado 1444" d="M788.2,401.026l1.627-.071a.745.745,0,1,1,.065,1.488h-.009l-1.606.076h-.01a.747.747,0,0,1-.07-1.493Z" transform="translate(-483.018 -280.824)" fill="#fff"/>
        <path id="Trazado_1445" data-name="Trazado 1445" d="M798.241,400.817l1.629.009a.737.737,0,0,1-.008,1.474h-.009l-1.607,0h-.011a.739.739,0,0,1,0-1.479Z" transform="translate(-487.629 -280.761)" fill="#fff"/>
        <path id="Trazado_1446" data-name="Trazado 1446" d="M808.283,401.054l1.628.094a.729.729,0,0,1-.085,1.456h-.01l-1.605-.088H808.2a.731.731,0,0,1,.081-1.461Z" transform="translate(-492.241 -280.87)" fill="#fff"/>
        <path id="Trazado_1447" data-name="Trazado 1447" d="M818.3,401.83l1.62.185a.721.721,0,1,1-.164,1.434h-.011l-1.6-.179h-.012a.724.724,0,1,1,.161-1.438Z" transform="translate(-496.841 -281.226)" fill="#fff"/>
        <path id="Trazado_1448" data-name="Trazado 1448" d="M828.259,403.178l1.607.282a.713.713,0,1,1-.246,1.4l-.011,0-1.582-.272-.013,0a.716.716,0,0,1,.243-1.411Z" transform="translate(-501.413 -281.844)" fill="#fff"/>
        <path id="Trazado_1449" data-name="Trazado 1449" d="M838.12,405.126l1.586.381a.706.706,0,0,1-.33,1.373l-.011,0-1.561-.371-.013,0a.708.708,0,1,1,.327-1.377Z" transform="translate(-505.939 -282.737)" fill="#fff"/>
        <path id="Trazado_1450" data-name="Trazado 1450" d="M847.837,407.7l1.559.485a.7.7,0,1,1-.415,1.333l-.011,0-1.533-.472-.013,0a.7.7,0,0,1,.412-1.339Z" transform="translate(-510.4 -283.916)" fill="#fff"/>
        <path id="Trazado_1451" data-name="Trazado 1451" d="M857.367,410.9l1.522.589a.69.69,0,1,1-.5,1.286l-.011,0-1.5-.574-.014-.005a.692.692,0,0,1,.5-1.293Z" transform="translate(-514.775 -285.387)" fill="#fff"/>
        <path id="Trazado_1452" data-name="Trazado 1452" d="M866.65,414.777l1.474.708a.682.682,0,0,1-.591,1.23l-.014-.007-1.444-.689-.016-.008a.684.684,0,0,1,.589-1.236Z" transform="translate(-519.033 -287.161)" fill="#fff"/>
        <path id="Trazado_1453" data-name="Trazado 1453" d="M875.587,419.408l1.407.839a.674.674,0,0,1-.691,1.158l-.015-.009-1.375-.815-.017-.01a.677.677,0,0,1,.69-1.164Z" transform="translate(-523.131 -289.282)" fill="#fff"/>
        <path id="Trazado_1454" data-name="Trazado 1454" d="M884.057,424.862l1.315.98a.666.666,0,1,1-.8,1.068l-.016-.012-1.283-.95-.017-.013a.669.669,0,1,1,.8-1.074Z" transform="translate(-527.012 -291.777)" fill="#fff"/>
        <path id="Trazado_1455" data-name="Trazado 1455" d="M891.9,431.2l1.191,1.133a.658.658,0,0,1-.908.954l-.017-.017L891,432.181l-.019-.017a.661.661,0,0,1,.908-.96Z" transform="translate(-530.6 -294.676)" fill="#fff"/>
        <path id="Trazado_1456" data-name="Trazado 1456" d="M898.88,438.5l1.02,1.293a.637.637,0,0,1-1,.794l-.018-.023-1-1.239-.018-.022a.644.644,0,1,1,1-.807Z" transform="translate(-533.802 -298.01)" fill="#fff"/>
        <path id="Trazado_1457" data-name="Trazado 1457" d="M904.729,446.757l.8,1.44a.614.614,0,0,1-1.07.6l-.016-.027-.785-1.379-.015-.027a.621.621,0,1,1,1.08-.615Z" transform="translate(-536.491 -301.778)" fill="#fff"/>
        <path id="Trazado_1458" data-name="Trazado 1458" d="M909.139,455.87l.521,1.572a.591.591,0,0,1-1.121.377l-.012-.036-.509-1.5L908,456.25a.6.6,0,0,1,1.133-.386Z" transform="translate(-538.521 -305.933)" fill="#fff"/>
        <path id="Trazado_1459" data-name="Trazado 1459" d="M911.663,465.68l.2,1.64a.569.569,0,0,1-1.129.14l0-.033-.2-1.572,0-.033a.575.575,0,0,1,1.142-.146Z" transform="translate(-539.693 -310.408)" fill="#fff"/>
        <path id="Trazado_1460" data-name="Trazado 1460" d="M912.123,475.781,912,477.427a.546.546,0,0,1-1.089-.077l0-.032.106-1.582,0-.032a.553.553,0,0,1,1.1.073Z" transform="translate(-539.874 -315.021)" fill="#fff"/>
        <path id="Trazado_1461" data-name="Trazado 1461" d="M910.427,485.792l-.453,1.588a.523.523,0,0,1-1.007-.283l.009-.032.421-1.527.009-.032a.53.53,0,1,1,1.021.282Z" transform="translate(-538.97 -319.595)" fill="#fff"/>
        <path id="Trazado_1462" data-name="Trazado 1462" d="M906.661,495.286l-.8,1.448a.5.5,0,0,1-.878-.48l.018-.033.753-1.39.018-.032a.507.507,0,1,1,.892.483Z" transform="translate(-537.116 -323.933)" fill="#fff"/>
        <path id="Trazado_1463" data-name="Trazado 1463" d="M900.739,503.686l-1.153,1.192a.477.477,0,0,1-.689-.66l.028-.03,1.087-1.142.028-.03a.484.484,0,1,1,.7.668Z" transform="translate(-534.28 -327.772)" fill="#fff"/>
        <path id="Trazado_1464" data-name="Trazado 1464" d="M893.665,510.248l-.412.248a.46.46,0,0,1-.477-.786l.01-.006.389-.239.01-.007a.462.462,0,0,1,.483.787Z" transform="translate(-531.419 -330.778)" fill="#fff"/>
      </g>
      <g id="Grupo_2235" data-name="Grupo 2235" transform="translate(58.34)">
        <g id="Grupo_2234" data-name="Grupo 2234">
          <path id="Trazado_1465" data-name="Trazado 1465" d="M343.025,160.164l-.281,7.917,5.482-3.213Z" transform="translate(-336.479 -150.431)" fill="url(#linear-gradient-55)"/>
          <path id="Trazado_1466" data-name="Trazado 1466" d="M373.435,148.572l-22.046,17.992a2.005,2.005,0,0,1-2.868-.345L331.291,143.4a.8.8,0,0,1,.765-1.278Z" transform="translate(-331.128 -142.117)" fill="url(#linear-gradient-56)"/>
          <path id="Trazado_1467" data-name="Trazado 1467" d="M343.27,157.365l35.758-3.279-32.989,6.97-.171,2.192Z" transform="translate(-336.722 -147.631)" fill="url(#linear-gradient-57)"/>
          <path id="Trazado_1468" data-name="Trazado 1468" d="M347.456,169.185l-4.712,2.049,3.053-4.225Z" transform="translate(-336.479 -153.584)" fill="url(#linear-gradient-58)"/>
        </g>
      </g>
    </g>
    <g id="Grupo_2239" data-name="Grupo 2239" transform="translate(109.146 250.493)">
      <path id="Trazado_1469" data-name="Trazado 1469" d="M215.756,402.962c5.282,3.521,10.124,11.445.44,24.21-8.686,11.45-17.607,18.927-16.287,25.97s-8.976,24.8-29.932,13.206c-20.688-11.445-16.727-33.454,8.363-41.817C193.028,419.635,196.417,390.07,215.756,402.962Z" transform="translate(-156.682 -399.735)" fill="url(#linear-gradient-59)"/>
      <path id="Trazado_1470" data-name="Trazado 1470" d="M280.6,487.323s-8.2,9.815-16.449,1.844l-3.189,7.395s12.052,9.332,21.194-5.351Z" transform="translate(-204.72 -440.084)" fill="url(#linear-gradient-60)"/>
      <path id="Trazado_1471" data-name="Trazado 1471" d="M245.78,453.018a15.531,15.531,0,0,0-15.2,3.873,3.9,3.9,0,0,0-1.124,3.888c1.692,6.231,6.158,24.639,2.243,32.6,0,0,6.9,7.606,14.427,1.476,0,0,3.377-14.719,7.8-21.181,3.054-4.461-4.87-16.752-6.875-19.721A2.345,2.345,0,0,0,245.78,453.018Z" transform="translate(-190.143 -424)" fill="url(#linear-gradient-61)"/>
      <path id="Trazado_1472" data-name="Trazado 1472" d="M248.7,431.514s-4.591,8.99-5.4,13.119a7.2,7.2,0,0,0,7.313-.2s1.619-9.375,2.37-10.992Z" transform="translate(-196.584 -414.374)" fill="url(#linear-gradient-62)"/>
      <g id="Grupo_2237" data-name="Grupo 2237" transform="translate(47.518 5.277)">
        <path id="Trazado_1473" data-name="Trazado 1473" d="M261.729,419.638s.855,15.113-5.5,15.325-6.976-10.534-6.976-10.534,1.877-6.789,4.9-7.58S261.729,419.638,261.729,419.638Z" transform="translate(-246.843 -412.842)" fill="url(#linear-gradient-63)"/>
        <path id="Trazado_1474" data-name="Trazado 1474" d="M259.518,411.649s2.9,2.971,2.406,4.819-6.73-.085-8.267-.958l-5.147,5.479s.158-8.116,3.709-10.616S259.518,411.649,259.518,411.649Z" transform="translate(-246.502 -409.519)" fill="url(#linear-gradient-64)"/>
        <path id="Trazado_1475" data-name="Trazado 1475" d="M249.12,427.868s-.775-5.184-3.309-3.726.186,5.475,2.165,5.225Z" transform="translate(-244.786 -416.136)" fill="url(#linear-gradient-65)"/>
      </g>
      <path id="Trazado_1476" data-name="Trazado 1476" d="M253.628,588.416c-.025.668,1.148,5.969,1.786,8.8a4.657,4.657,0,0,1-.5,3.34L232.8,637.768a5.087,5.087,0,0,0-.581,1.448,31.946,31.946,0,0,0-.807,9.921l1.144,2.376-4.947-1.123L226.533,637.1l1.4-.854a6.658,6.658,0,0,0,2.692-3.151c2-4.857,6.964-17.22,8.245-23.245,1.455-6.848,9.059-12.409,9.059-12.409l-1.336-3.158Z" transform="translate(-188.86 -486.654)" fill="url(#linear-gradient-66)"/>
      <path id="Trazado_1477" data-name="Trazado 1477" d="M218.334,686.537s2.671-4.235,2.986-5.885,1.189-4.56,2.836-3.684c0,0,.776,8.009.509,11.139s3.538,3.029,3.538,3.029a3.554,3.554,0,0,1,1.817.915.891.891,0,0,1-.6,1.5,21.413,21.413,0,0,1-5.3-.3,1.621,1.621,0,0,1-1.308-1.5l-.549-9.218-3.37,4.255Z" transform="translate(-185.083 -527.373)" fill="url(#linear-gradient-67)"/>
      <path id="Trazado_1478" data-name="Trazado 1478" d="M242.892,598.642s-.78,33.29-.886,38.018.746,15.206,5.486,18.338l-2.062,1.527a27.564,27.564,0,0,1-5.1-6.407,38.9,38.9,0,0,0-3.684-5.6l.938-1.922a4.226,4.226,0,0,0,.342-2.711c-1.023-4.958-4.44-21.446-5.372-25-1.1-4.191-1.178-9.789,2.649-14.474S242.892,598.642,242.892,598.642Z" transform="translate(-191.334 -490.952)" fill="url(#linear-gradient-68)"/>
      <path id="Trazado_1479" data-name="Trazado 1479" d="M241.634,697.293a.29.29,0,0,1-.293-.25,43.086,43.086,0,0,0-1.352-6.712c-.616-1.319-2.626-6.873,0-7.344,0,0,6.531,9.542,7.785,10.829a2.458,2.458,0,0,0,2.836.449,4.72,4.72,0,0,1,2.143,1.538.865.865,0,0,1-.681,1.389l-4.4.042a3.1,3.1,0,0,1-2.9-1.95c-.775-1.934-2.1-4.771-3.655-6.029l.805,7.714a.293.293,0,0,1-.289.324Z" transform="translate(-194.453 -530.22)" fill="url(#linear-gradient-69)"/>
      <path id="Trazado_1480" data-name="Trazado 1480" d="M242.885,523.692s-.991,3.16.532,8.364l9.448,32.991a1.022,1.022,0,0,1-.639,1.243,63.019,63.019,0,0,1-24.8,3.007,1.44,1.44,0,0,1-1.313-1.121c-.835-3.761-3.687-16.594-4.274-19.23-2.237-10.047-4.4-19.6,6.584-26.153A21.054,21.054,0,0,0,242.885,523.692Z" transform="translate(-185.864 -456.423)" fill="url(#linear-gradient-70)"/>
      <path id="Trazado_1481" data-name="Trazado 1481" d="M234.68,466.359s-1.9,27.177,15.657,13.527c0,0,2.593-2.45,4.465-2.748,1.009-.16,2.146-.268,2.981-.332a.376.376,0,0,1,.246.682,4.97,4.97,0,0,1-2.079.951c-1.325.137.088,1.108-1.355,3.644s-3.5,1.58-3.5,1.58-20.119,20.6-24.136-15.33C226.815,461.649,233.248,462,234.68,466.359Z" transform="translate(-189.054 -428.964)" fill="url(#linear-gradient-71)"/>
      <g id="Grupo_2238" data-name="Grupo 2238" transform="translate(69.137 39.677)">
        <path id="Trazado_1482" data-name="Trazado 1482" d="M297,474.108l-5.974-.787a1.892,1.892,0,0,0-1.887,1.071l-3.93,8.685c-.739,1.3-.214,3.02.984,3.218l4.8.615a1.175,1.175,0,0,0,1.19-.73l5.315-10.608C297.8,474.96,297.546,474.2,297,474.108Z" transform="translate(-284.87 -473.301)" fill="url(#linear-gradient-72)"/>
      </g>
      <path id="Trazado_1483" data-name="Trazado 1483" d="M297.833,489.2s4.016-5.845,3.549-6.565-3.987-1.75-4.814-1.993S294.186,485.7,297.833,489.2Z" transform="translate(-220.64 -437.003)" fill="url(#linear-gradient-73)"/>
      <path id="Trazado_1484" data-name="Trazado 1484" d="M178.172,476.587a.22.22,0,0,0,.081-.424,14.6,14.6,0,0,1-7.339-20.714c2.856-5.092,8.332-7.938,13.628-10.69l.638-.332c5.725-2.981,11.3-6.533,13.353-12.281a.22.22,0,1,0-.415-.148c-2,5.6-7.5,9.1-13.142,12.038l-.638.332c-5.352,2.782-10.888,5.658-13.809,10.865a15.044,15.044,0,0,0,7.56,21.338A.229.229,0,0,0,178.172,476.587Z" transform="translate(-162.184 -414.53)" fill="#fff" opacity="0.75"/>
      <path id="Trazado_1485" data-name="Trazado 1485" d="M187.471,493.887a.22.22,0,0,0,.054-.433,15.207,15.207,0,0,1-9.95-7.451c-2-3.99-1.367-8.96,1.51-11.818a.22.22,0,1,0-.31-.312c-3.008,2.988-3.678,8.173-1.593,12.328a15.646,15.646,0,0,0,10.235,7.68A.206.206,0,0,0,187.471,493.887Z" transform="translate(-165.569 -433.858)" fill="#fff" opacity="0.75"/>
    </g>
    <g id="Grupo_2241" data-name="Grupo 2241" transform="translate(414.496 83.358)">
      <path id="Trazado_1486" data-name="Trazado 1486" d="M756.984,91.4l-29.828-1.552a4.052,4.052,0,0,0-4.311,4.227l.771,27.432a4.023,4.023,0,0,0,4.3,3.841l28.324-1.4a3.9,3.9,0,0,0,3.562-3.815l.69-24.572A3.922,3.922,0,0,0,756.984,91.4Z" transform="translate(-722.843 -89.843)" fill="url(#linear-gradient-74)"/>
      <g id="Grupo_2240" data-name="Grupo 2240" transform="translate(7.093 6.422)">
        <path id="Trazado_1487" data-name="Trazado 1487" d="M747.229,124.22a11.235,11.235,0,1,1,11.235-11.235A11.247,11.247,0,0,1,747.229,124.22Zm0-20.587a9.352,9.352,0,1,0,9.352,9.353A9.363,9.363,0,0,0,747.229,103.633Z" transform="translate(-735.994 -101.75)" fill="#fff"/>
        <path id="Trazado_1488" data-name="Trazado 1488" d="M750.3,122.752v-8.077a1.113,1.113,0,0,1,1.682-.958l6.806,4.039a1.113,1.113,0,0,1,0,1.915l-6.806,4.039A1.113,1.113,0,0,1,750.3,122.752Z" transform="translate(-742.584 -107.19)" fill="#fff" fill-rule="evenodd"/>
      </g>
    </g>
    <g id="Grupo_2245" data-name="Grupo 2245" transform="translate(119.389 120.527)">
      <path id="Trazado_1489" data-name="Trazado 1489" d="M209.814,160.319l-29.828-1.552a4.052,4.052,0,0,0-4.311,4.227l.771,27.432a4.024,4.024,0,0,0,4.3,3.841l28.324-1.4a3.9,3.9,0,0,0,3.562-3.815l.691-24.572A3.922,3.922,0,0,0,209.814,160.319Z" transform="translate(-175.673 -158.761)" fill="url(#linear-gradient-75)"/>
      <g id="Grupo_2244" data-name="Grupo 2244" transform="translate(1.357 7.141)">
        <path id="Trazado_1490" data-name="Trazado 1490" d="M205.6,191.417H189.692a1.349,1.349,0,0,1-1.293-.965l-4.5-15.173-4.537-.592a1.348,1.348,0,1,1,.348-2.673l5.407.7a1.348,1.348,0,0,1,1.118.954L190.7,188.72h13.785l2.039-10.771a1.348,1.348,0,0,1,2.65.5l-2.246,11.869A1.348,1.348,0,0,1,205.6,191.417Z" transform="translate(-178.19 -172.002)" fill="#fff"/>
        <path id="Trazado_1491" data-name="Trazado 1491" d="M212.882,182.7H191.848a1.348,1.348,0,1,1,0-2.7h21.034a1.348,1.348,0,0,1,0,2.7Z" transform="translate(-183.861 -175.686)" fill="#fff"/>
        <g id="Grupo_2242" data-name="Grupo 2242" transform="translate(13.92 4.583)">
          <path id="Trazado_1492" data-name="Trazado 1492" d="M205.348,193.983A1.348,1.348,0,0,1,204,192.635V181.848a1.348,1.348,0,0,1,2.7,0v10.787A1.348,1.348,0,0,1,205.348,193.983Z" transform="translate(-204 -180.5)" fill="#fff"/>
          <path id="Trazado_1493" data-name="Trazado 1493" d="M219.348,193.983A1.348,1.348,0,0,1,218,192.635V181.848a1.348,1.348,0,1,1,2.7,0v10.787A1.348,1.348,0,0,1,219.348,193.983Z" transform="translate(-210.449 -180.5)" fill="#fff"/>
        </g>
        <path id="Trazado_1494" data-name="Trazado 1494" d="M213.186,193.7H194.848a1.348,1.348,0,0,1,0-2.7h18.337a1.348,1.348,0,1,1,0,2.7Z" transform="translate(-185.243 -180.754)" fill="#fff"/>
        <g id="Grupo_2243" data-name="Grupo 2243" transform="translate(12.204 20.721)">
          <path id="Trazado_1495" data-name="Trazado 1495" d="M204.579,212.3a1.88,1.88,0,1,1-1.88-1.881A1.88,1.88,0,0,1,204.579,212.3Z" transform="translate(-200.818 -210.421)" fill="#fff"/>
          <path id="Trazado_1496" data-name="Trazado 1496" d="M225.831,212.3a1.88,1.88,0,1,1-1.88-1.881A1.88,1.88,0,0,1,225.831,212.3Z" transform="translate(-210.608 -210.421)" fill="#fff"/>
        </g>
      </g>
    </g>
    <g id="Grupo_2247" data-name="Grupo 2247" transform="translate(508.173 192.439)">
      <path id="Trazado_1497" data-name="Trazado 1497" d="M930.673,293.653,900.844,292.1a4.052,4.052,0,0,0-4.311,4.227l.771,27.432a4.024,4.024,0,0,0,4.3,3.841l28.324-1.4a3.9,3.9,0,0,0,3.562-3.815l.69-24.572A3.922,3.922,0,0,0,930.673,293.653Z" transform="translate(-896.532 -292.095)" fill="url(#linear-gradient-76)"/>
      <g id="Grupo_2246" data-name="Grupo 2246" transform="translate(5.107 6.421)">
        <path id="Trazado_1498" data-name="Trazado 1498" d="M930.253,325.573h-21A3.257,3.257,0,0,1,906,322.321V307.253A3.257,3.257,0,0,1,909.253,304h21a3.257,3.257,0,0,1,3.253,3.253v15.068A3.257,3.257,0,0,1,930.253,325.573Zm-21-18.877a.557.557,0,0,0-.556.556v15.068a.557.557,0,0,0,.556.556h21a.557.557,0,0,0,.556-.556V307.253a.557.557,0,0,0-.556-.556Z" transform="translate(-906 -304)" fill="#fff"/>
        <path id="Trazado_1499" data-name="Trazado 1499" d="M919.979,317.31a1.343,1.343,0,0,1-.78-.249l-11.711-8.3a1.348,1.348,0,1,1,1.56-2.2l10.93,7.751,10.784-7.66a1.348,1.348,0,0,1,1.562,2.2L920.76,317.06A1.346,1.346,0,0,1,919.979,317.31Z" transform="translate(-906.424 -305.063)" fill="#fff"/>
        <path id="Trazado_1500" data-name="Trazado 1500" d="M908.672,331.186l-.419-2.663.2,1.333-1.135-.726c.241-.391,4.449-7.751,7.219-12.6a1.348,1.348,0,0,1,2.342,1.337s-1.807,3.164-3.617,6.33c-.906,1.584-1.811,3.166-2.493,4.354C909.313,331.081,909.313,331.081,908.672,331.186Z" transform="translate(-906.606 -309.457)" fill="#fff"/>
        <path id="Trazado_1501" data-name="Trazado 1501" d="M945.152,331.188c-.643-.1-.643-.1-2.1-2.64-.682-1.188-1.588-2.771-2.493-4.354-1.81-3.165-3.617-6.33-3.617-6.33a1.348,1.348,0,1,1,2.341-1.337c2.771,4.852,6.979,12.214,7.219,12.6l-1.135.726Z" transform="translate(-920.173 -309.457)" fill="#fff"/>
      </g>
    </g>
    <g id="Grupo_2248" data-name="Grupo 2248" transform="translate(85.759 228.813)">
      <path id="Trazado_1502" data-name="Trazado 1502" d="M147.459,361.095l-29.829-1.552a4.053,4.053,0,0,0-4.311,4.227l.771,27.432a4.024,4.024,0,0,0,4.3,3.841l28.324-1.4a3.9,3.9,0,0,0,3.562-3.815l.691-24.572A3.922,3.922,0,0,0,147.459,361.095Z" transform="translate(-113.318 -359.537)" fill="url(#linear-gradient-76)"/>
      <path id="Trazado_1503" data-name="Trazado 1503" d="M142.946,371.918a.763.763,0,0,0-1.015.722v13.687a6.452,6.452,0,0,0-4.092-1.386c-3.154,0-5.71,2.045-5.71,4.568s2.556,4.568,5.71,4.568,5.71-2.045,5.71-4.568c0-.022,0-.043,0-.065h0V375.838a7.123,7.123,0,0,1,4.7,3.463.677.677,0,0,0,1.246-.408C149.269,374.653,144.956,372.632,142.946,371.918Z" transform="translate(-121.983 -365.22)" fill="#fff"/>
    </g>
    <g id="Grupo_2251" data-name="Grupo 2251" transform="translate(563.441 262.479)">
      <path id="Trazado_1504" data-name="Trazado 1504" d="M1033.148,423.517l-29.828-1.552a4.052,4.052,0,0,0-4.311,4.227l.771,27.432a4.024,4.024,0,0,0,4.3,3.841l28.325-1.4a3.9,3.9,0,0,0,3.562-3.815l.691-24.572A3.922,3.922,0,0,0,1033.148,423.517Z" transform="translate(-999.007 -421.959)" fill="url(#linear-gradient-74)"/>
      <g id="Grupo_2250" data-name="Grupo 2250" transform="translate(8.712 6.049)">
        <path id="Trazado_1505" data-name="Trazado 1505" d="M1018.6,470.706a3.441,3.441,0,1,1,3.44-3.441A3.445,3.445,0,0,1,1018.6,470.706Zm0-5.516a2.075,2.075,0,1,0,2.075,2.075A2.077,2.077,0,0,0,1018.6,465.191Z" transform="translate(-1015.16 -447.294)" fill="#fff"/>
        <g id="Grupo_2249" data-name="Grupo 2249" transform="translate(0.066)">
          <path id="Trazado_1506" data-name="Trazado 1506" d="M1020.173,454.845a7.348,7.348,0,0,1,7.34,7.34,7,7,0,0,1-.039.743.5.5,0,0,0,.568.555l1.068-.16a.5.5,0,0,0,.426-.463q.025-.334.025-.675a9.4,9.4,0,0,0-9.388-9.388,9.223,9.223,0,0,0-1.158.073.5.5,0,0,0-.434.581l.176,1.038a.5.5,0,0,0,.552.41A6.908,6.908,0,0,1,1020.173,454.845Z" transform="translate(-1016.798 -442.214)" fill="#fff"/>
          <path id="Trazado_1507" data-name="Trazado 1507" d="M1019.414,445.034a12.645,12.645,0,0,1,12.631,12.631v.006a.5.5,0,0,0,.567.5l1.048-.156.432-.5a14.7,14.7,0,0,0-14.679-14.524,14.512,14.512,0,0,0-2.067.149.5.5,0,0,0-.413.576l.176,1.036a.5.5,0,0,0,.554.411A12.562,12.562,0,0,1,1019.414,445.034Z" transform="translate(-1016.039 -437.695)" fill="#fff"/>
          <path id="Trazado_1508" data-name="Trazado 1508" d="M1018.656,435.223a17.942,17.942,0,0,1,17.9,17.156.5.5,0,0,0,.572.481l1.04-.155a.5.5,0,0,0,.427-.516,19.939,19.939,0,0,0-22.9-18.79.5.5,0,0,0-.413.579l.176,1.034a.5.5,0,0,0,.57.408A17.807,17.807,0,0,1,1018.656,435.223Z" transform="translate(-1015.282 -433.175)" fill="#fff"/>
        </g>
      </g>
    </g>
    <g id="Grupo_2252" data-name="Grupo 2252" transform="translate(556.521 143.286)">
      <path id="Trazado_1509" data-name="Trazado 1509" d="M1014.044,202.23,989.7,200.964a3.307,3.307,0,0,0-3.519,3.45l.629,22.39a3.284,3.284,0,0,0,3.514,3.135l23.119-1.142a3.18,3.18,0,0,0,2.907-3.114l.564-20.057A3.2,3.2,0,0,0,1014.044,202.23Z" transform="translate(-986.176 -200.959)" fill="url(#linear-gradient-75)"/>
      <path id="Trazado_1510" data-name="Trazado 1510" d="M1014,208H996.785c-1.594,0-3.784,1.187-3.784,2.832v9.573c0,1.578,2.207,2.7,3.784,2.7h11.84c.408,0,.556.945.556,1.353v1.414c0,.582.617.8.9.894a1.226,1.226,0,0,0,.676.241.848.848,0,0,0,.635-.281l2.541-3.007c1.609-.035,2.254-1.732,2.254-3.31v-9.573C1016.191,209.266,1015.563,208,1014,208Zm.577,12.405c0,.74.021,1.617-.577,1.617h-.643l-3.095,2.982v-2.079c0-.408.3-.9-.107-.9H996.785c-.733,0-2.166-.885-2.166-1.617v-9.179c0-1.069,1.426-1.069,2.166-1.069H1014c.728,0,.577-.054.577.675Z" transform="translate(-989.32 -204.203)" fill="#fff"/>
      <path id="Trazado_1511" data-name="Trazado 1511" d="M1015.719,216.539a.54.54,0,0,1-.539.539H999.539a.539.539,0,0,1-.539-.539h0a.539.539,0,0,1,.539-.539h15.641a.54.54,0,0,1,.539.539Z" transform="translate(-992.084 -207.888)" fill="#fff"/>
      <path id="Trazado_1512" data-name="Trazado 1512" d="M1015.719,221.539a.54.54,0,0,1-.539.539H999.539a.539.539,0,0,1-.539-.539h0a.539.539,0,0,1,.539-.539h15.641a.54.54,0,0,1,.539.539Z" transform="translate(-992.084 -210.191)" fill="#fff"/>
      <path id="Trazado_1513" data-name="Trazado 1513" d="M1015.719,228.539a.54.54,0,0,1-.539.539H999.539a.539.539,0,0,1-.539-.539h0a.539.539,0,0,1,.539-.539h15.641a.54.54,0,0,1,.539.539Z" transform="translate(-992.084 -213.416)" fill="#fff"/>
    </g>
    <g id="Grupo_2253" data-name="Grupo 2253" transform="translate(499.663 129.324)">
      <path id="Trazado_1514" data-name="Trazado 1514" d="M895.837,215.258l-13.177-.685a1.791,1.791,0,0,0-1.9,1.868l.341,12.118a1.778,1.778,0,0,0,1.9,1.7l12.513-.618a1.721,1.721,0,0,0,1.573-1.685l.305-10.855A1.733,1.733,0,0,0,895.837,215.258Z" transform="translate(-880.755 -193.267)" fill="#fff"/>
      <path id="Trazado_1515" data-name="Trazado 1515" d="M939.246,175.549l-9.166-.477a1.245,1.245,0,0,0-1.325,1.3l.237,8.43a1.237,1.237,0,0,0,1.323,1.18l8.7-.43a1.2,1.2,0,0,0,1.095-1.173l.212-7.551A1.205,1.205,0,0,0,939.246,175.549Z" transform="translate(-902.867 -175.071)" fill="#fff"/>
    </g>
    <g id="Grupo_2254" data-name="Grupo 2254" transform="translate(558.99 229.909)">
      <path id="Trazado_1516" data-name="Trazado 1516" d="M1003.062,362.132l-10.752-.56a1.461,1.461,0,0,0-1.554,1.524l.278,9.888a1.45,1.45,0,0,0,1.551,1.384l10.21-.5a1.4,1.4,0,0,0,1.284-1.375l.249-8.857A1.414,1.414,0,0,0,1003.062,362.132Z" transform="translate(-990.755 -361.57)" fill="#fff"/>
      <path id="Trazado_1517" data-name="Trazado 1517" d="M1067.845,398.837l-5.32-.277a.722.722,0,0,0-.769.754l.137,4.893a.718.718,0,0,0,.767.685l5.053-.25a.694.694,0,0,0,.635-.68l.123-4.383A.7.7,0,0,0,1067.845,398.837Z" transform="translate(-1023.462 -378.61)" fill="#fff"/>
    </g>
    <g id="Grupo_2255" data-name="Grupo 2255" transform="translate(82.219 106.489)">
      <path id="Trazado_1518" data-name="Trazado 1518" d="M119.061,266.132l-10.752-.56a1.461,1.461,0,0,0-1.554,1.524l.278,9.888a1.45,1.45,0,0,0,1.551,1.384l10.21-.5a1.4,1.4,0,0,0,1.284-1.375l.249-8.857A1.414,1.414,0,0,0,119.061,266.132Z" transform="translate(-106.755 -193.925)" fill="#fff"/>
      <path id="Trazado_1519" data-name="Trazado 1519" d="M183.845,302.837l-5.321-.277a.723.723,0,0,0-.769.754l.138,4.893a.717.717,0,0,0,.767.685l5.052-.25a.7.7,0,0,0,.635-.68l.123-4.383A.7.7,0,0,0,183.845,302.837Z" transform="translate(-139.462 -210.965)" fill="#fff"/>
      <path id="Trazado_1520" data-name="Trazado 1520" d="M289.177,133.162l-8.252-.429a1.121,1.121,0,0,0-1.192,1.169l.213,7.589a1.113,1.113,0,0,0,1.191,1.062l7.836-.387a1.077,1.077,0,0,0,.985-1.055l.191-6.8A1.085,1.085,0,0,0,289.177,133.162Z" transform="translate(-186.44 -132.731)" fill="#fff"/>
    </g>
    <g id="Grupo_2259" data-name="Grupo 2259" transform="translate(271.394 348.478)">
      <g id="Grupo_2258" data-name="Grupo 2258">
        <g id="Grupo_2256" data-name="Grupo 2256">
          <path id="Trazado_1521" data-name="Trazado 1521" d="M473.825,625.99a1.141,1.141,0,0,1-.441-.088l-4.666-1.922a1.156,1.156,0,0,1-.714-1.136l.221-3.761a19.1,19.1,0,0,1-3.765-3.748l-3.758.236a1.143,1.143,0,0,1-1.138-.709l-1.941-4.659a1.158,1.158,0,0,1,.3-1.308l2.814-2.5a19.085,19.085,0,0,1-.009-5.311l-2.826-2.492a1.154,1.154,0,0,1-.3-1.306l1.922-4.667a1.135,1.135,0,0,1,1.134-.713l3.762.221a19.107,19.107,0,0,1,3.747-3.764l-.235-3.758a1.153,1.153,0,0,1,.71-1.138l4.658-1.94a1.156,1.156,0,0,1,1.306.3l2.5,2.816a19.125,19.125,0,0,1,5.311-.009l2.492-2.825a1.158,1.158,0,0,1,1.307-.3l4.667,1.923a1.156,1.156,0,0,1,.712,1.135l-.221,3.761a19.088,19.088,0,0,1,3.764,3.747l3.758-.236a1.154,1.154,0,0,1,1.139.708l1.94,4.66a1.155,1.155,0,0,1-.3,1.307l-2.814,2.5a19.108,19.108,0,0,1,.009,5.312l2.826,2.492a1.155,1.155,0,0,1,.3,1.305l-1.923,4.668a1.135,1.135,0,0,1-1.137.712l-3.76-.221a19.074,19.074,0,0,1-3.747,3.765l.235,3.758a1.155,1.155,0,0,1-.708,1.138l-4.661,1.941a1.154,1.154,0,0,1-1.306-.3l-2.5-2.815a19.064,19.064,0,0,1-5.311.009l-2.493,2.826A1.153,1.153,0,0,1,473.825,625.99Zm.175-1.583h0Zm11.682-.023h0Zm-16.043-1.773,4.057,1.67,2.861-3.243.441.072a17.544,17.544,0,0,0,5.677-.009l.44-.073,2.871,3.23,4.05-1.686-.271-4.314.362-.262a17.471,17.471,0,0,0,4.005-4.023l.259-.363,4.317.254,1.671-4.056-3.244-2.861.072-.441a17.5,17.5,0,0,0-.01-5.677l-.073-.441,3.23-2.871-1.687-4.05-4.314.271-.261-.362a17.5,17.5,0,0,0-4.023-4.005l-.364-.259.254-4.317-4.056-1.671-2.861,3.244-.441-.072a17.481,17.481,0,0,0-5.677.009l-.441.073-2.871-3.229-4.05,1.687.27,4.313-.362.261a17.491,17.491,0,0,0-4.005,4.023l-.26.363-4.317-.254-1.671,4.057,3.243,2.861-.072.441a17.492,17.492,0,0,0,.009,5.676l.073.441-3.23,2.871,1.687,4.05,4.314-.271.261.362a17.5,17.5,0,0,0,4.023,4l.363.259Zm20.418.29h0Zm8.981-9.019h0Zm-29.776-28.923h0Zm4.659-1.94h0Zm-.312-.746h0Zm6.3,34.468a12.993,12.993,0,0,1-12.873-14.861.809.809,0,0,1,1.6.235,11.347,11.347,0,1,0,4.757-7.7.809.809,0,0,1-.923-1.329,12.99,12.99,0,1,1,12.414,22.655A12.933,12.933,0,0,1,479.914,616.739Z" transform="translate(-457.512 -581.413)" fill="#fff"/>
          <path id="Trazado_1522" data-name="Trazado 1522" d="M494.308,623.51a5.292,5.292,0,0,1-.766-10.526h0a5.291,5.291,0,1,1,.766,10.526Zm-.528-8.926a3.674,3.674,0,1,0,2.727.683,3.678,3.678,0,0,0-2.727-.683Z" transform="translate(-472.03 -595.929)" fill="#fff"/>
        </g>
        <g id="Grupo_2257" data-name="Grupo 2257" transform="translate(44.883 29.621)">
          <path id="Trazado_1523" data-name="Trazado 1523" d="M552.11,659.409a.976.976,0,0,1-.887-.566l-.666-1.443a9.637,9.637,0,0,1-2.125-.642l-1.353.836a.98.98,0,0,1-1.128-.073l-1.881-1.538a.978.978,0,0,1-.3-1.093l.55-1.491a9.634,9.634,0,0,1-1.051-1.956l-1.546-.366a.977.977,0,0,1-.746-.851l-.242-2.417a.974.974,0,0,1,.565-.984l1.441-.664a9.6,9.6,0,0,1,.642-2.126l-.835-1.353a.972.972,0,0,1,.076-1.131l1.535-1.878a.975.975,0,0,1,1.094-.3l1.49.55a9.629,9.629,0,0,1,1.956-1.051l.366-1.546a.977.977,0,0,1,.848-.746l2.417-.242a.965.965,0,0,1,.985.563l.664,1.441a9.659,9.659,0,0,1,2.126.642l1.353-.835a.978.978,0,0,1,1.128.073l1.881,1.538a.977.977,0,0,1,.3,1.091l-.551,1.493a9.617,9.617,0,0,1,1.051,1.957l1.546.365a.977.977,0,0,1,.746.852l.242,2.416a.977.977,0,0,1-.559.982l-1.445.666a9.612,9.612,0,0,1-.642,2.126l.835,1.353a.974.974,0,0,1-.076,1.131l-1.535,1.878a.973.973,0,0,1-1.09.3l-1.495-.551a9.581,9.581,0,0,1-1.956,1.051l-.366,1.546a.976.976,0,0,1-.855.746l-2.413.242A.941.941,0,0,1,552.11,659.409Zm-3.78-4.491.4.2a7.986,7.986,0,0,0,2.484.75l.443.058.842,1.827,1.5-.151.462-1.957.423-.145a8.007,8.007,0,0,0,2.286-1.228l.354-.272,1.888.7.957-1.17-1.058-1.712.2-.4a8,8,0,0,0,.75-2.484l.058-.443,1.826-.842-.151-1.5-1.957-.463-.145-.422a8,8,0,0,0-1.228-2.286l-.272-.354.7-1.888-1.17-.957-1.712,1.057-.4-.2a8.008,8.008,0,0,0-2.484-.75l-.443-.058-.842-1.826-1.5.15-.463,1.957-.422.145a8,8,0,0,0-2.286,1.228l-.354.272-1.888-.7-.956,1.17,1.057,1.712-.2.4a8,8,0,0,0-.75,2.484l-.058.443-1.826.842.151,1.5,1.957.463.144.422a7.99,7.99,0,0,0,1.228,2.286l.272.354-.7,1.888,1.169.956Zm6.129,2.635h0Zm4.668-2.507,0,.005Zm1.535-1.877,0,0Zm-18.684-4.875,0,0Zm1.9-5.72,0,0Zm.045-.745,0,0Zm15.521-.814,0,0Zm-14.752-.122h0Zm13.619-1.366,0,0Zm-6.465-1.947h0Zm.567-.435h0Zm-.12,17.431a6.669,6.669,0,0,1-6.022-9.5.809.809,0,1,1,1.464.69,5.049,5.049,0,1,0,4.067-2.878,5.111,5.111,0,0,0-1.053.22.809.809,0,1,1-.5-1.539,6.7,6.7,0,0,1,1.389-.29,6.667,6.667,0,1,1,.653,13.3Z" transform="translate(-540.731 -636.334)" fill="#fff"/>
        </g>
      </g>
    </g>
  </g>
</svg>
