<svg xmlns="http://www.w3.org/2000/svg" xmlns:xlink="http://www.w3.org/1999/xlink" width="219.102" height="213.499" viewBox="0 0 219.102 213.499">
  <defs>
    <linearGradient id="linear-gradient" x1="1.086" y1="1.014" x2="0.335" y2="0.363" gradientUnits="objectBoundingBox">
      <stop offset="0" stop-color="#e2dafe"/>
      <stop offset="1" stop-color="#ede9fd"/>
    </linearGradient>
    <linearGradient id="linear-gradient-2" y1="0.5" x2="1" y2="0.5" gradientUnits="objectBoundingBox">
      <stop offset="0" stop-color="#fed2ba"/>
      <stop offset="1" stop-color="#ffb88e"/>
    </linearGradient>
    <linearGradient id="linear-gradient-3" x1="0.945" y1="-0.363" x2="0.083" y2="1.163" gradientUnits="objectBoundingBox">
      <stop offset="0" stop-color="#ffb88e"/>
      <stop offset="1" stop-color="#fea462"/>
    </linearGradient>
    <linearGradient id="linear-gradient-4" x1="0.496" y1="-0.168" x2="0.516" y2="1.12" gradientUnits="objectBoundingBox">
      <stop offset="0" stop-color="#35005d"/>
      <stop offset="1" stop-color="#580f91"/>
    </linearGradient>
    <linearGradient id="linear-gradient-5" x1="0.984" y1="-0.299" x2="-0.993" y2="2.969" gradientUnits="objectBoundingBox">
      <stop offset="0" stop-color="#a04fff"/>
      <stop offset="1" stop-color="#8b40e2"/>
    </linearGradient>
    <linearGradient id="linear-gradient-6" x1="0.547" y1="-11.311" x2="0.51" y2="-2.038" xlink:href="#linear-gradient-4"/>
    <linearGradient id="linear-gradient-7" x1="0" y1="0.5" x2="1" y2="0.5" xlink:href="#linear-gradient"/>
    <linearGradient id="linear-gradient-15" x1="0.764" y1="-0.33" x2="0.297" y2="1" xlink:href="#linear-gradient-4"/>
    <linearGradient id="linear-gradient-16" x1="0" y1="0.5" x2="1" y2="0.5" xlink:href="#linear-gradient-4"/>
    <linearGradient id="linear-gradient-17" x1="43.344" y1="0.5" x2="44.344" y2="0.5" xlink:href="#linear-gradient-4"/>
    <linearGradient id="linear-gradient-18" x1="0.933" y1="-0.851" x2="0.47" y2="1.022" xlink:href="#linear-gradient-5"/>
    <linearGradient id="linear-gradient-19" x1="151.986" y1="0.5" x2="152.986" y2="0.5" xlink:href="#linear-gradient-2"/>
    <linearGradient id="linear-gradient-20" x1="101.092" y1="0.5" x2="102.092" y2="0.5" xlink:href="#linear-gradient-4"/>
    <linearGradient id="linear-gradient-21" x1="1.326" y1="-1.35" x2="0.353" y2="0.839" xlink:href="#linear-gradient-5"/>
    <linearGradient id="linear-gradient-22" x1="116.697" y1="0.5" x2="117.697" y2="0.5" xlink:href="#linear-gradient-2"/>
    <linearGradient id="linear-gradient-23" x1="0.738" y1="0.059" x2="0.219" y2="1.034" xlink:href="#linear-gradient-4"/>
    <linearGradient id="linear-gradient-24" x1="1.435" y1="-0.971" x2="0.183" y2="1.064" gradientUnits="objectBoundingBox">
      <stop offset="0" stop-color="#e17e3d"/>
      <stop offset="1" stop-color="#e9905a"/>
    </linearGradient>
    <linearGradient id="linear-gradient-25" x1="1.501" y1="-1.96" x2="-0.259" y2="2.366" xlink:href="#linear-gradient-5"/>
    <linearGradient id="linear-gradient-26" x1="90.424" y1="-22.35" x2="91.032" y2="-24.109" xlink:href="#linear-gradient-2"/>
    <linearGradient id="linear-gradient-27" x1="2.147" y1="-1.527" x2="-0.614" y2="2.013" xlink:href="#linear-gradient-24"/>
    <linearGradient id="linear-gradient-28" x1="3.507" y1="-2.63" x2="-0.603" y2="1.507" xlink:href="#linear-gradient-24"/>
    <linearGradient id="linear-gradient-29" x1="56.05" y1="-9.649" x2="57.064" y2="-9.649" xlink:href="#linear-gradient-2"/>
    <linearGradient id="linear-gradient-30" x1="64.374" y1="-0.004" x2="64.359" y2="1.888" xlink:href="#linear-gradient-2"/>
    <linearGradient id="linear-gradient-31" x1="68.879" y1="15.083" x2="67.359" y2="16.421" xlink:href="#linear-gradient-2"/>
    <linearGradient id="linear-gradient-32" x1="38.329" y1="9.944" x2="39.352" y2="9.944" xlink:href="#linear-gradient-4"/>
    <linearGradient id="linear-gradient-33" x1="176.976" y1="44.792" x2="180.266" y2="42.436" xlink:href="#linear-gradient-2"/>
    <linearGradient id="linear-gradient-34" x1="9.018" y1="-7.154" x2="7.693" y2="-4.957" xlink:href="#linear-gradient-4"/>
    <linearGradient id="linear-gradient-35" x1="70.176" y1="-43.192" x2="71.491" y2="-45.167" xlink:href="#linear-gradient-4"/>
    <linearGradient id="linear-gradient-36" x1="51.818" y1="-23.402" x2="48.238" y2="-18.909" xlink:href="#linear-gradient-2"/>
    <linearGradient id="linear-gradient-37" x1="65.695" y1="-111.902" x2="66.126" y2="-120.41" xlink:href="#linear-gradient-2"/>
    <linearGradient id="linear-gradient-38" x1="140.25" y1="0.5" x2="141.25" y2="0.5" xlink:href="#linear-gradient-2"/>
  </defs>
  <g id="Grupo_53515" data-name="Grupo 53515" transform="translate(4307.149 -5968.399)">
    <path id="Trazado_101180" data-name="Trazado 101180" d="M-4072.207,6162.229c-20.137,47.415-73.778,73.978-120.3,66.813-7.569-1.166-28.321-4.639-46.694-21.024-35.368-31.541-42.932-94-14.4-138.012,20.765-32.035,57.989-50.194,93.359-49.286,7.619.2,36.817,1.4,62.478,22.56a96.262,96.262,0,0,1,19.573,22.209C-4060.6,6093-4059.083,6131.329-4072.207,6162.229Z" transform="translate(-33.336 -48.302)" fill="url(#linear-gradient)"/>
    <g id="Grupo_53486" data-name="Grupo 53486" transform="translate(-4283.631 5968.399)">
      <path id="Trazado_101181" data-name="Trazado 101181" d="M-3998.228,5969.468a.872.872,0,0,1,1.426-.85c6.452,5.659,22.072,22.732,19.372,53.587-3.388,38.712,5.121,52.507,15.408,60.747a43.116,43.116,0,0,1-22.987-17.55C-4007.406,6031.076-3994.743,5984.085-3998.228,5969.468Z" transform="translate(3998.712 -5968.399)" fill="url(#linear-gradient-2)"/>
      <path id="Trazado_101182" data-name="Trazado 101182" d="M-3924.663,6134.891c.928,4.266,1.771,8.547,2.457,12.853q1.062,6.453,1.727,12.956c.425,4.334.769,8.676.928,13.025.178,4.349.17,8.7.146,13.069,0,4.366-.023,8.766.4,13.181a44.285,44.285,0,0,0,3.109,12.953c.434,1.027.888,2.051,1.4,3.036.492,1,1.027,1.971,1.581,2.936a47.549,47.549,0,0,0,3.738,5.529,47.525,47.525,0,0,0,9.661,9.147.844.844,0,0,0,1.177-.2.844.844,0,0,0-.176-1.162l0,0c-.858-.651-1.708-1.311-2.526-2.007-.414-.342-.812-.7-1.217-1.052s-.8-.718-1.176-1.1a44.419,44.419,0,0,1-4.291-4.769,48.747,48.747,0,0,1-6.449-11.074,42.48,42.48,0,0,1-1.977-6.088,48.154,48.154,0,0,1-1.069-6.338c-.447-4.284-.458-8.638-.491-13s-.105-8.756-.354-13.134q-.177-3.286-.473-6.561c-.092-1.092-.205-2.182-.316-3.272s-.25-2.177-.386-3.264q-.831-6.521-2.062-12.977c-.843-4.3-1.8-8.568-2.919-12.8a.226.226,0,0,0-.277-.161A.227.227,0,0,0-3924.663,6134.891Z" transform="translate(3930.314 -6121.942)" fill="#fff" style="mix-blend-mode: soft-light;isolation: isolate"/>
    </g>
    <g id="Grupo_53488" data-name="Grupo 53488" transform="translate(-4306.759 5998.672)">
      <g id="Grupo_53487" data-name="Grupo 53487">
        <path id="Trazado_101183" data-name="Trazado 101183" d="M-4266.739,6461.655a2.193,2.193,0,0,1-3.44,1.192,66.869,66.869,0,0,1-26.158-51.123c-.981-25.029-3.892-38.508-5.637-44.535a1.375,1.375,0,0,1,2.157-1.474C-4288.19,6374.611-4252.583,6407.032-4266.739,6461.655Z" transform="translate(4302.032 -6365.426)" fill="url(#linear-gradient-3)"/>
        <path id="Trazado_101184" data-name="Trazado 101184" d="M-4129.589,6786.688a.574.574,0,0,1-.1.065.608.608,0,0,1-.821-.253c-.178-.336-17.843-34.039-20.779-68.779a.609.609,0,0,1,.555-.657.609.609,0,0,1,.657.555c2.915,34.487,20.465,67.979,20.642,68.313A.607.607,0,0,1-4129.589,6786.688Z" transform="translate(4162.785 -6690.249)" fill="#fff" style="mix-blend-mode: soft-light;isolation: isolate"/>
      </g>
    </g>
    <g id="Grupo_53490" data-name="Grupo 53490" transform="translate(-4307.149 6051.314)">
      <path id="Trazado_101185" data-name="Trazado 101185" d="M-4141.238,7172.005a3.427,3.427,0,0,0,3.419,3.416h184.879a3.427,3.427,0,0,0,3.419-3.416l1.538-106.245a5.953,5.953,0,0,0-6.269-5.27l-180.684-4.675a8.626,8.626,0,0,0-6.312,2.512,8.607,8.607,0,0,0-2.529,6.3Z" transform="translate(4156.237 -7055.812)" fill="url(#linear-gradient-4)"/>
      <path id="Trazado_101186" data-name="Trazado 101186" d="M-4097.408,7217.812a3.245,3.245,0,0,0,3.235,3.235h177.23a3.244,3.244,0,0,0,3.234-3.235l1.452-96.45a7.96,7.96,0,0,0-8.344-7.767l-173.169-4.646a6.049,6.049,0,0,0-4.434,1.765,6.049,6.049,0,0,0-1.778,4.431Z" transform="translate(4115.781 -7104.896)" fill="url(#linear-gradient-5)"/>
      <g id="Grupo_53489" data-name="Grupo 53489" transform="translate(137.75 9.054)" opacity="0.67">
        <path id="Trazado_101187" data-name="Trazado 101187" d="M-1687.871,7829.517h-.007a.474.474,0,0,1-.467-.481l.115-7.822a.474.474,0,0,1,.474-.467h.007a.474.474,0,0,1,.467.481l-.115,7.822A.474.474,0,0,1-1687.871,7829.517Z" transform="translate(1750.278 -7771.475)" fill="#a491fa"/>
        <path id="Trazado_101188" data-name="Trazado 101188" d="M-2437.894,7213.432h-.007a.474.474,0,0,1-.467-.481l.44-29.958a5.627,5.627,0,0,0-1.606-4.214,7.914,7.914,0,0,0-5.239-1.788l-55.349-1.484a.474.474,0,0,1-.461-.486.454.454,0,0,1,.487-.461l55.316,1.484a8.7,8.7,0,0,1,5.9,2.051,6.543,6.543,0,0,1,1.9,4.9l-.44,29.968A.474.474,0,0,1-2437.894,7213.432Z" transform="translate(2500.583 -7174.559)" fill="#a491fa"/>
      </g>
      <rect id="Rectángulo_5269" data-name="Rectángulo 5269" width="217.965" height="9.335" rx="4.668" transform="translate(217.965 128.429) rotate(180)" fill="url(#linear-gradient-6)"/>
    </g>
    <g id="Grupo_53499" data-name="Grupo 53499" transform="translate(-4178.298 5970.383)">
      <g id="Grupo_53494" data-name="Grupo 53494" transform="translate(0 0)">
        <g id="Grupo_53491" data-name="Grupo 53491" transform="translate(11.395)" opacity="0.3">
          <path id="Trazado_101189" data-name="Trazado 101189" d="M-2363.2,6027.374a.774.774,0,0,1-.742-.805c.034-.83.032-1.673,0-2.507a.774.774,0,0,1,.724-.807h.015a.774.774,0,0,1,.807.739c.039.878.041,1.767,0,2.64a.774.774,0,0,1-.723.74A.755.755,0,0,1-2363.2,6027.374Zm-1.2-7.36c-.15-.821-.337-1.643-.556-2.444a.774.774,0,0,1,.543-.95.774.774,0,0,1,.95.543c.23.843.427,1.708.585,2.572a.774.774,0,0,1-.622.9.73.73,0,0,1-.091.011A.774.774,0,0,1-2364.408,6020.014Zm-1.9-6.288c-.328-.765-.694-1.524-1.087-2.258a.774.774,0,0,1,.317-1.048.775.775,0,0,1,1.048.317c.414.773.8,1.573,1.145,2.378a.774.774,0,0,1-.406,1.017.764.764,0,0,1-.256.062A.775.775,0,0,1-2366.3,6013.726Zm-3.255-5.706c-.492-.673-1.018-1.332-1.565-1.959a.774.774,0,0,1,.075-1.092.775.775,0,0,1,1.092.075c.576.661,1.13,1.355,1.647,2.063a.774.774,0,0,1-.168,1.082.772.772,0,0,1-.407.147A.773.773,0,0,1-2369.56,6008.02Zm-4.446-4.839c-.627-.545-1.287-1.072-1.96-1.564a.774.774,0,0,1-.168-1.082.773.773,0,0,1,1.082-.168c.708.518,1.4,1.072,2.063,1.646a.774.774,0,0,1,.076,1.092.772.772,0,0,1-.535.265A.772.772,0,0,1-2374.006,6003.181Zm-5.406-3.734c-.733-.394-1.492-.761-2.257-1.092a.774.774,0,0,1-.4-1.017.774.774,0,0,1,1.018-.4c.8.348,1.6.734,2.375,1.149a.774.774,0,0,1,.316,1.048.774.774,0,0,1-.634.406A.773.773,0,0,1-2379.411,5999.447Zm-28.74-.36a.774.774,0,0,1,.319-1.047c.772-.412,1.574-.8,2.381-1.141a.774.774,0,0,1,1.016.408.775.775,0,0,1-.408,1.016c-.766.327-1.527.691-2.261,1.083a.77.77,0,0,1-.315.089A.773.773,0,0,1-2408.151,5999.087Zm22.645-2.082c-.8-.221-1.624-.41-2.442-.561a.774.774,0,0,1-.621-.9.775.775,0,0,1,.9-.62c.862.159,1.727.357,2.572.59a.774.774,0,0,1,.541.952.775.775,0,0,1-.7.567A.785.785,0,0,1-2385.506,5997.005Zm-16.439-.562a.774.774,0,0,1,.545-.949c.845-.229,1.711-.424,2.575-.58a.773.773,0,0,1,.9.624.775.775,0,0,1-.624.9c-.82.148-1.644.334-2.447.551a.733.733,0,0,1-.154.025A.774.774,0,0,1-2401.945,5996.443Zm9.952-.456c-.831-.036-1.674-.036-2.507,0a.773.773,0,0,1-.806-.74.774.774,0,0,1,.724-.805h.017c.876-.038,1.764-.038,2.639,0a.774.774,0,0,1,.74.807.775.775,0,0,1-.724.739C-2391.937,5995.988-2391.965,5995.988-2391.993,5995.987Z" transform="translate(2412.787 -5994.412)" fill="#c9bdfb"/>
          <path id="Trazado_101190" data-name="Trazado 101190" d="M-2467.022,6072.351a.76.76,0,0,0,.432-.166c.313-.248.635-.494.959-.73a.773.773,0,0,0,.169-1.081.773.773,0,0,0-1.081-.169c-.341.249-.681.507-1.01.769a.773.773,0,0,0-.125,1.087A.771.771,0,0,0-2467.022,6072.351Z" transform="translate(2467.846 -6064.287)" fill="#c9bdfb"/>
        </g>
        <g id="Grupo_53492" data-name="Grupo 53492" transform="translate(0 26.012)" opacity="0.3">
          <path id="Trazado_101191" data-name="Trazado 101191" d="M-2615.01,6338.337a.774.774,0,0,0,.72-.7c.038-.4.085-.8.14-1.2a.773.773,0,0,0-.661-.872.772.772,0,0,0-.872.661c-.058.419-.107.843-.147,1.262a.774.774,0,0,0,.7.844A.754.754,0,0,0-2615.01,6338.337Z" transform="translate(2615.945 -6335.561)" fill="#c9bdfb"/>
          <path id="Trazado_101192" data-name="Trazado 101192" d="M-2585.988,6436.092a.775.775,0,0,1-.785-.764.775.775,0,0,1,.763-.785c.814-.012,1.64-.058,2.464-.138a.774.774,0,0,1,.845.7.774.774,0,0,1-.7.846q-.536.051-1.069.086C-2584.973,6436.063-2585.485,6436.084-2585.988,6436.092Zm5.821-1.413a.774.774,0,0,1,.575-.932c.8-.189,1.6-.414,2.375-.669a.773.773,0,0,1,.977.5.773.773,0,0,1-.494.976c-.819.269-1.66.5-2.5.7a.757.757,0,0,1-.131.02A.774.774,0,0,1-2580.167,6434.679Zm-10.032,1.185c-.855-.105-1.717-.249-2.562-.427a.774.774,0,0,1-.6-.917.774.774,0,0,1,.917-.6c.8.169,1.621.306,2.433.405a.775.775,0,0,1,.674.863.775.775,0,0,1-.719.678A.8.8,0,0,1-2590.2,6435.863Zm16.339-3.256a.774.774,0,0,1,.356-1.035c.737-.359,1.466-.755,2.169-1.175a.773.773,0,0,1,1.061.268.774.774,0,0,1-.267,1.062c-.74.442-1.509.858-2.284,1.236a.76.76,0,0,1-.29.077A.774.774,0,0,1-2573.861,6432.607Zm-22.956,1.68c-.81-.29-1.619-.62-2.4-.979a.774.774,0,0,1-.382-1.025.773.773,0,0,1,1.026-.383c.746.341,1.515.654,2.284.93a.775.775,0,0,1,.467.99.776.776,0,0,1-.68.512A.777.777,0,0,1-2596.817,6434.287Zm-6.111-2.988c-.729-.462-1.446-.96-2.133-1.479a.775.775,0,0,1-.149-1.085.773.773,0,0,1,1.084-.149c.653.494,1.334.968,2.027,1.406a.775.775,0,0,1,.24,1.068.774.774,0,0,1-.605.358A.773.773,0,0,1-2602.927,6431.3Zm-5.314-4.249c-.611-.61-1.2-1.253-1.76-1.909a.774.774,0,0,1,.09-1.091.773.773,0,0,1,1.091.09c.529.624,1.091,1.234,1.672,1.814a.773.773,0,0,1,0,1.094.77.77,0,0,1-.5.227A.772.772,0,0,1-2608.242,6427.05Zm-4.261-5.308c-.463-.729-.9-1.485-1.3-2.25a.774.774,0,0,1,.328-1.044.775.775,0,0,1,1.044.328c.379.725.794,1.443,1.234,2.136a.774.774,0,0,1-.238,1.068.77.77,0,0,1-.365.119A.773.773,0,0,1-2612.5,6421.742Zm-2.992-6.117c-.29-.811-.55-1.645-.771-2.479a.774.774,0,0,1,.549-.947.775.775,0,0,1,.947.55c.21.793.457,1.584.732,2.354a.774.774,0,0,1-.468.989.746.746,0,0,1-.212.044A.775.775,0,0,1-2615.5,6415.625Zm-1.574-6.617c-.079-.631-.139-1.271-.179-1.9-.015-.229-.026-.457-.036-.686a.764.764,0,0,1,.741-.8.773.773,0,0,1,.806.74q.014.325.034.652c.038.6.1,1.209.17,1.808a.773.773,0,0,1-.672.863l-.048,0A.774.774,0,0,1-2617.069,6409.008Z" transform="translate(2617.285 -6400.272)" fill="#c9bdfb"/>
          <path id="Trazado_101193" data-name="Trazado 101193" d="M-1974.292,6690.188a.77.77,0,0,0,.435-.169c.327-.262.655-.536.974-.814a.774.774,0,0,0,.074-1.092.773.773,0,0,0-1.092-.074c-.3.264-.614.524-.925.773a.774.774,0,0,0-.119,1.088A.774.774,0,0,0-1974.292,6690.188Z" transform="translate(2024.081 -6660.986)" fill="#c9bdfb"/>
        </g>
        <g id="Grupo_53493" data-name="Grupo 53493" transform="translate(7.544 7.368)">
          <path id="Trazado_101194" data-name="Trazado 101194" d="M-2474.641,6125.706a.362.362,0,0,0,0-.42l-2.55-3.59a19.182,19.182,0,0,0,1.409-6.052l3.869-2.1a.361.361,0,0,0,.185-.377l-.864-5.21a.361.361,0,0,0-.3-.3l-4.338-.734a19.163,19.163,0,0,0-3.287-5.273l1.255-4.221a.36.36,0,0,0-.136-.4l-4.295-3.073a.363.363,0,0,0-.42,0l-3.589,2.55a19.182,19.182,0,0,0-6.052-1.408l-2.1-3.869a.361.361,0,0,0-.377-.185l-5.21.864a.36.36,0,0,0-.3.3l-.734,4.339a19.185,19.185,0,0,0-5.273,3.286l-4.22-1.254a.359.359,0,0,0-.4.136l-3.073,4.295a.361.361,0,0,0,0,.42l2.55,3.59a19.169,19.169,0,0,0-1.409,6.052l-3.869,2.1a.361.361,0,0,0-.185.377l.864,5.21a.362.362,0,0,0,.3.3l4.338.734a19.178,19.178,0,0,0,3.287,5.272l-1.255,4.221a.361.361,0,0,0,.136.4l4.295,3.073a.362.362,0,0,0,.42,0l3.589-2.551a19.155,19.155,0,0,0,6.052,1.409l2.1,3.869a.363.363,0,0,0,.377.185l5.21-.864a.363.363,0,0,0,.3-.3l.734-4.338a19.179,19.179,0,0,0,5.273-3.287l4.22,1.255a.362.362,0,0,0,.4-.136Z" transform="translate(2518.348 -6091.048)" fill="#c9bdfb"/>
          <path id="Trazado_101195" data-name="Trazado 101195" d="M-2277.363,6337.759a5.314,5.314,0,0,1-4.85-5.729,5.271,5.271,0,0,1,1.86-3.612,5.271,5.271,0,0,1,3.87-1.238,5.314,5.314,0,0,1,4.85,5.73,5.316,5.316,0,0,1-4.95,4.857A5.336,5.336,0,0,1-2277.363,6337.759Zm-2.19-8.4a4.04,4.04,0,0,0-1.427,2.77,4.075,4.075,0,0,0,3.719,4.394,4.074,4.074,0,0,0,4.393-3.72,4.074,4.074,0,0,0-3.719-4.393,4.159,4.159,0,0,0-.6-.007A4.048,4.048,0,0,0-2279.553,6329.362Z" transform="translate(2300.236 -6309.156)" fill="url(#linear-gradient-7)"/>
          <path id="Trazado_101196" data-name="Trazado 101196" d="M-2371.1,6250.715q.665-.042,1.333-.152h0q.21-.035.418-.076a13.18,13.18,0,0,0,2.011-.57l.026-.01.075-.028.146-.057a.31.31,0,0,0,.2-.308.316.316,0,0,0-.021-.095.311.311,0,0,0-.4-.174,12.441,12.441,0,0,1-2.552.706,12.432,12.432,0,0,1-11.295-3.974,12.36,12.36,0,0,1-3.005-6.258,12.615,12.615,0,0,1-.146-1.271,12.339,12.339,0,0,1,2.3-8,12.351,12.351,0,0,1,8.078-5.031,12.447,12.447,0,0,1,14.3,10.232,12.47,12.47,0,0,1,.143,1.255,12.4,12.4,0,0,1-.837,5.332.3.3,0,0,0-.021.133.309.309,0,0,0,.2.269.309.309,0,0,0,.4-.175,13.015,13.015,0,0,0,.879-5.6,13.144,13.144,0,0,0-.15-1.317,13.069,13.069,0,0,0-15.013-10.741,12.968,12.968,0,0,0-8.48,5.281,12.955,12.955,0,0,0-2.414,8.4,13.328,13.328,0,0,0,.153,1.334,12.966,12.966,0,0,0,5.282,8.48A12.956,12.956,0,0,0-2371.1,6250.715Z" transform="translate(2395.131 -6214.446)" fill="url(#linear-gradient-7)"/>
        </g>
      </g>
      <g id="Grupo_53498" data-name="Grupo 53498" transform="translate(51.103 26.075)">
        <g id="Grupo_53495" data-name="Grupo 53495" transform="translate(12.633)" opacity="0.3">
          <path id="Trazado_101197" data-name="Trazado 101197" d="M-1460.013,6645.93a.477.477,0,0,0,.436-.372c.089-.4.168-.8.234-1.2a.478.478,0,0,0-.395-.549.478.478,0,0,0-.549.395c-.062.382-.137.767-.223,1.145a.478.478,0,0,0,.361.572A.5.5,0,0,0-1460.013,6645.93Z" transform="translate(1484.989 -6620.361)" fill="#c9bdfb"/>
          <path id="Trazado_101198" data-name="Trazado 101198" d="M-1756,6358.3a.479.479,0,0,1-.459-.5,19.9,19.9,0,0,0-.025-2q-.013-.211-.031-.422a.479.479,0,0,1,.436-.517.5.5,0,0,1,.517.437c.012.147.023.294.033.441a20.792,20.792,0,0,1,.026,2.1.479.479,0,0,1-.447.459Zm-.868-5.326a19.816,19.816,0,0,0-.642-2.341.477.477,0,0,1,.3-.606.479.479,0,0,1,.607.3,20.722,20.722,0,0,1,.673,2.453.478.478,0,0,1-.37.566.41.41,0,0,1-.068.009A.478.478,0,0,1-1756.864,6352.977Zm-1.569-4.585a19.6,19.6,0,0,0-1.2-2.111.478.478,0,0,1,.139-.661.476.476,0,0,1,.662.139,20.6,20.6,0,0,1,1.256,2.215.479.479,0,0,1-.22.64.5.5,0,0,1-.179.047A.478.478,0,0,1-1758.433,6348.392Zm-2.647-4.06a19.758,19.758,0,0,0-1.678-1.753.478.478,0,0,1-.027-.676.479.479,0,0,1,.675-.027,20.692,20.692,0,0,1,1.759,1.84.478.478,0,0,1-.057.674.475.475,0,0,1-.278.111A.474.474,0,0,1-1761.08,6344.332Zm-3.558-3.29a20.1,20.1,0,0,0-2.053-1.294.478.478,0,0,1-.189-.648.477.477,0,0,1,.649-.189,20.788,20.788,0,0,1,2.152,1.356.478.478,0,0,1,.109.667.477.477,0,0,1-.358.2A.481.481,0,0,1-1764.638,6341.042Zm-4.249-2.326a19.558,19.558,0,0,0-2.3-.753.478.478,0,0,1-.343-.583.479.479,0,0,1,.583-.343,20.691,20.691,0,0,1,2.418.79.479.479,0,0,1,.268.621.48.48,0,0,1-.414.3A.477.477,0,0,1-1768.887,6338.716Zm-4.687-1.216a19.617,19.617,0,0,0-2.421-.165.478.478,0,0,1-.475-.48.481.481,0,0,1,.481-.476,20.756,20.756,0,0,1,2.539.173.478.478,0,0,1,.412.536.478.478,0,0,1-.443.415A.492.492,0,0,1-1773.574,6337.5Zm-7.813.049a.478.478,0,0,1,.351-.578,20.7,20.7,0,0,1,2.173-.407c.111-.016.222-.029.333-.043a.474.474,0,0,1,.53.421.478.478,0,0,1-.42.529c-.1.012-.208.025-.314.04a19.773,19.773,0,0,0-2.075.389.413.413,0,0,1-.083.013A.478.478,0,0,1-1781.386,6337.549Z" transform="translate(1781.4 -6336.379)" fill="#c9bdfb"/>
        </g>
        <g id="Grupo_53496" data-name="Grupo 53496" transform="translate(0 30.344)" opacity="0.3">
          <path id="Trazado_101199" data-name="Trazado 101199" d="M-1928.156,6745.259a20.866,20.866,0,0,1-2.5-.025.478.478,0,0,1-.443-.51.481.481,0,0,1,.511-.443,19.855,19.855,0,0,0,2.387.024.477.477,0,0,1,.5.453.478.478,0,0,1-.447.5Zm1.937-.667a.478.478,0,0,1,.39-.552,19.961,19.961,0,0,0,2.326-.545.479.479,0,0,1,.595.321.478.478,0,0,1-.321.595,20.921,20.921,0,0,1-2.437.572l-.052.006A.477.477,0,0,1-1926.219,6744.593Zm-6.922.312a20.769,20.769,0,0,1-2.423-.629.478.478,0,0,1-.306-.6.478.478,0,0,1,.6-.307,19.783,19.783,0,0,0,2.311.6.478.478,0,0,1,.377.561.478.478,0,0,1-.439.385A.476.476,0,0,1-1933.141,6744.9Zm11.633-1.6a.478.478,0,0,1,.246-.63,19.556,19.556,0,0,0,2.124-1.091.48.48,0,0,1,.655.167.478.478,0,0,1-.167.655,20.469,20.469,0,0,1-2.228,1.144.5.5,0,0,1-.162.04A.479.479,0,0,1-1921.509,6743.3Zm-16.382.054a20.73,20.73,0,0,1-2.2-1.193.478.478,0,0,1-.153-.659.478.478,0,0,1,.659-.153,19.727,19.727,0,0,0,2.1,1.139.478.478,0,0,1,.231.635.477.477,0,0,1-.4.275A.475.475,0,0,1-1937.891,6743.356Zm-4.24-2.643a20.864,20.864,0,0,1-1.851-1.685.478.478,0,0,1,.009-.676.478.478,0,0,1,.676.009,19.963,19.963,0,0,0,1.766,1.608.478.478,0,0,1,.072.672.478.478,0,0,1-.342.177A.476.476,0,0,1-1942.131,6740.714Zm-3.486-3.582a20.666,20.666,0,0,1-1.393-2.082.478.478,0,0,1,.172-.654.478.478,0,0,1,.654.171,19.543,19.543,0,0,0,1.329,1.984.478.478,0,0,1-.091.67.474.474,0,0,1-.259.1A.479.479,0,0,1-1945.617,6737.132Z" transform="translate(1947.076 -6734.331)" fill="#c9bdfb"/>
          <path id="Trazado_101200" data-name="Trazado 101200" d="M-1556.463,6802.132a.485.485,0,0,0,.262-.1c.324-.25.641-.511.945-.776a.478.478,0,0,0,.046-.675.48.48,0,0,0-.675-.046c-.289.252-.592.5-.9.74a.478.478,0,0,0-.086.67A.479.479,0,0,0-1556.463,6802.132Z" transform="translate(1586.717 -6795.38)" fill="#c9bdfb"/>
        </g>
        <g id="Grupo_53497" data-name="Grupo 53497" transform="translate(2.276 4.892)">
          <path id="Trazado_101201" data-name="Trazado 101201" d="M-1887.98,6423.727a.242.242,0,0,0,0-.281l-1.706-2.4a12.836,12.836,0,0,0,.943-4.05l2.589-1.4a.241.241,0,0,0,.124-.252l-.578-3.486a.242.242,0,0,0-.2-.2l-2.9-.492a12.846,12.846,0,0,0-2.2-3.528l.84-2.824a.242.242,0,0,0-.091-.266l-2.874-2.057a.243.243,0,0,0-.281,0l-2.4,1.706a12.826,12.826,0,0,0-4.05-.942l-1.4-2.589a.243.243,0,0,0-.252-.124l-3.486.578a.243.243,0,0,0-.2.2l-.491,2.9a12.843,12.843,0,0,0-3.529,2.2l-2.824-.839a.24.24,0,0,0-.266.091l-2.057,2.874a.242.242,0,0,0,0,.281l1.706,2.4a12.833,12.833,0,0,0-.943,4.05l-2.589,1.4a.243.243,0,0,0-.124.253l.578,3.486a.242.242,0,0,0,.2.2l2.9.492a12.832,12.832,0,0,0,2.2,3.528l-.839,2.824a.242.242,0,0,0,.091.266l2.874,2.057a.243.243,0,0,0,.281,0l2.4-1.706a12.826,12.826,0,0,0,4.05.942l1.4,2.589a.243.243,0,0,0,.252.124l3.486-.579a.241.241,0,0,0,.2-.2l.492-2.9a12.822,12.822,0,0,0,3.529-2.2l2.824.841a.242.242,0,0,0,.266-.092Z" transform="translate(1917.227 -6400.535)" fill="#c9bdfb"/>
          <path id="Trazado_101202" data-name="Trazado 101202" d="M-1756.75,6564.92a3.592,3.592,0,0,1-2.461-1.267,3.592,3.592,0,0,1-.844-2.636,3.621,3.621,0,0,1,3.9-3.3,3.621,3.621,0,0,1,3.3,3.9,3.592,3.592,0,0,1-1.267,2.46,3.587,3.587,0,0,1-2.1.85A3.78,3.78,0,0,1-1756.75,6564.92Zm-2.352-3.824a2.642,2.642,0,0,0,.621,1.939,2.647,2.647,0,0,0,1.81.933h0a2.649,2.649,0,0,0,1.939-.621,2.642,2.642,0,0,0,.932-1.81,2.663,2.663,0,0,0-2.43-2.871,2.611,2.611,0,0,0-.391,0A2.664,2.664,0,0,0-1759.1,6561.1Z" transform="translate(1772.051 -6545.717)" fill="url(#linear-gradient-7)"/>
          <path id="Trazado_101203" data-name="Trazado 101203" d="M-1821.952,6504.341a9.1,9.1,0,0,0,.91-.1,9.039,9.039,0,0,0,1.771-.481l.077-.03a.479.479,0,0,0,.3-.475.479.479,0,0,0-.033-.146.478.478,0,0,0-.62-.269,8.072,8.072,0,0,1-1.652.457h0l-.093.015a7.973,7.973,0,0,1-3.925-.369,8.1,8.1,0,0,1-1.924-1l-.015-.01-.045-.032a8,8,0,0,1-3.257-5.229,8.077,8.077,0,0,1-.094-.823,7.99,7.99,0,0,1,1.489-5.178,8,8,0,0,1,5.229-3.256,8.006,8.006,0,0,1,6,1.394,8,8,0,0,1,3.257,5.229,8.019,8.019,0,0,1,.093.813,8.026,8.026,0,0,1-.542,3.452.47.47,0,0,0-.032.205.477.477,0,0,0,.3.415.478.478,0,0,0,.62-.27,8.982,8.982,0,0,0,.607-3.862,9.063,9.063,0,0,0-.1-.909,8.945,8.945,0,0,0-3.644-5.851,8.937,8.937,0,0,0-6.713-1.56,8.945,8.945,0,0,0-5.85,3.644,8.934,8.934,0,0,0-1.666,5.792,9.182,9.182,0,0,0,.105.92A9.018,9.018,0,0,0-1821.952,6504.341Z" transform="translate(1838.058 -6479.802)" fill="url(#linear-gradient-7)"/>
        </g>
      </g>
    </g>
    <g id="Grupo_53503" data-name="Grupo 53503" transform="translate(-4277.592 5995.156)">
      <path id="Trazado_101204" data-name="Trazado 101204" d="M-3795.948,6320.028l-116.836-.716a6.689,6.689,0,0,0-6.721,7.02l7.825,161.588a4.631,4.631,0,0,0,4.626,4.408h121.173a4.652,4.652,0,0,0,4.646-4.426l7-143.883Z" transform="translate(3919.513 -6319.313)" fill="#a491fa"/>
      <path id="Trazado_101205" data-name="Trazado 101205" d="M-2313.446,6354.625a6.687,6.687,0,0,1-6.432-7.21l1.252-15.851,22.061,23.675Z" transform="translate(2441.869 -6330.629)" fill="#9b7df4"/>
      <g id="Grupo_53502" data-name="Grupo 53502" transform="translate(21.36 30.58)">
        <g id="Grupo_53500" data-name="Grupo 53500" transform="translate(1.586)">
          <path id="Trazado_101206" data-name="Trazado 101206" d="M-3615.056,6720.364c16.192.455,78.352,2.134,94.048,2.558,1.98.054,3.553,1.324,3.477,2.8h0c-.073,1.409-1.621,2.49-3.506,2.445l-94-2.215c-1.811-.043-3.321-1.111-3.485-2.466l-.042-.343C-3618.756,6721.6-3617.127,6720.307-3615.056,6720.364Z" transform="translate(3618.583 -6720.362)" fill="url(#linear-gradient-7)"/>
          <path id="Trazado_101207" data-name="Trazado 101207" d="M-3602.25,6887.119h0a1.653,1.653,0,0,0,1.284.61l64.51,2.264a1.336,1.336,0,0,0,1.515-1.039l.163-3.181c.033-.632-.643-1.173-1.487-1.193l-62.75-1.466C-3601.81,6883.05-3603.587,6885.25-3602.25,6887.119Z" transform="translate(3603.915 -6870.703)" fill="url(#linear-gradient-7)"/>
        </g>
        <g id="Grupo_53501" data-name="Grupo 53501" transform="translate(0 28.763)">
          <path id="Trazado_101208" data-name="Trazado 101208" d="M-3635.858,7097.584c16.192.454,78.352,2.134,94.048,2.558,1.98.054,3.553,1.324,3.478,2.8h0c-.073,1.409-1.622,2.489-3.506,2.445l-94-2.215c-1.811-.043-3.321-1.112-3.485-2.467l-.042-.343C-3639.558,7098.818-3637.929,7097.525-3635.858,7097.584Z" transform="translate(3639.385 -7097.582)" fill="url(#linear-gradient-7)"/>
          <path id="Trazado_101209" data-name="Trazado 101209" d="M-3623.052,7264.34h0a1.652,1.652,0,0,0,1.283.61l64.511,2.264a1.336,1.336,0,0,0,1.514-1.039l.163-3.181c.033-.632-.643-1.173-1.487-1.193l-62.75-1.466C-3622.612,7260.27-3624.39,7262.471-3623.052,7264.34Z" transform="translate(3624.717 -7247.924)" fill="url(#linear-gradient-7)"/>
        </g>
        <path id="Trazado_101210" data-name="Trazado 101210" d="M-3516.172,7565.6a44.885,44.885,0,0,1,6.678-19.973,46.475,46.475,0,0,1,6.624-8.371c.649-.613,1.283-1.244,1.948-1.842.684-.575,1.352-1.173,2.052-1.729.716-.537,1.424-1.087,2.159-1.6l1.122-.74.562-.37.281-.185c.1-.063.239-.145.36-.209a5.641,5.641,0,0,1,6.714.781,5.048,5.048,0,0,1,1.031,1.56,6,6,0,0,1,.281.821,6.7,6.7,0,0,1,.172.808,11.368,11.368,0,0,1,.022,3.011c-.05.478-.128.946-.212,1.4l-.257,1.289c-.164.861-.356,1.717-.544,2.572-.378,1.712-.806,3.412-1.256,5.106a118.39,118.39,0,0,1-7.25,19.71l-1.148,2.364c-.4.778-.793,1.562-1.2,2.336l-.622,1.157-.311.578-.343.6a17.687,17.687,0,0,1-1.62,2.325,10.912,10.912,0,0,1-2.193,2.047,6.219,6.219,0,0,1-3.166,1.129,4.324,4.324,0,0,1-.9-.033,4.888,4.888,0,0,1-.869-.183,5.079,5.079,0,0,1-1.59-.769,6.114,6.114,0,0,1-2.075-2.636,8.216,8.216,0,0,1-.6-3.065,12.285,12.285,0,0,1,.349-2.9,25.364,25.364,0,0,1,.77-2.611l.431-1.266.485-1.245a46.812,46.812,0,0,1,5.032-9.385,47.248,47.248,0,0,1,6.973-8.021l.487-.453.507-.431,1.016-.858c.346-.277.7-.544,1.051-.815s.7-.548,1.066-.795c.727-.508,1.446-1.025,2.2-1.485l.562-.354.281-.178c.05-.03.086-.056.148-.091l.185-.1a4.471,4.471,0,0,1,1.612-.5,4.1,4.1,0,0,1,3.213,1,3.328,3.328,0,0,1,.975,1.552,4.281,4.281,0,0,1,.117,1.662,9.325,9.325,0,0,1-.28,1.42l-.352,1.261-.7,2.5c-.928,3.333-1.893,6.655-2.839,9.982l0,.008-1.461-.261a7.655,7.655,0,0,1,1.028-3.267,5.373,5.373,0,0,1,1.182-1.359,4.66,4.66,0,0,1,1.635-.846,4.3,4.3,0,0,1,1.865-.122,3.511,3.511,0,0,1,.931.281,3.327,3.327,0,0,1,.435.234l.294.185a2.665,2.665,0,0,0,2.341.155,2.4,2.4,0,0,0,.517-.3,2.237,2.237,0,0,0,.227-.2l.111-.107.133-.143,1.064-1.135,2.129-2.271,2.129-2.271,1.064-1.136a2.051,2.051,0,0,1,1.054-.6,1.979,1.979,0,0,1,1.219.138,2.046,2.046,0,0,1,.906.8,1.924,1.924,0,0,1,.264,1.211,1.345,1.345,0,0,1-.055.3c-.024.09-.058.209-.076.253l-.127.357-.241.722q-.469,1.447-.8,2.936t-.518,3c-.014.123-.033.256-.043.372l-.009.308a1.129,1.129,0,0,0,.02.3,1.626,1.626,0,0,0,.048.3,2.473,2.473,0,0,0,.549,1.047,2.548,2.548,0,0,0,.982.7,3.037,3.037,0,0,0,.582.176,2.89,2.89,0,0,0,.6.023,2.345,2.345,0,0,0,1.129-.361l.132-.073.118-.1.24-.2.55-.538q2.2-2.158,4.2-4.5a69.107,69.107,0,0,0,7.089-10.052l.754-1.342.364-.678.182-.339.046-.086c0-.009,0,0,0,0s0,.008,0,.016c0,.058.023.068.017.063a.05.05,0,0,0,.034,0,.178.178,0,0,0,.053-.015s0,0,0,0l-.065.066-.131.133c-.088.089-.174.179-.258.27-.172.181-.336.368-.5.556a18.486,18.486,0,0,0-1.763,2.413q-.391.639-.732,1.3c-.112.224-.222.447-.326.675l-.153.341-.075.172-.049.153a3.148,3.148,0,0,0,.067,2.453,3.3,3.3,0,0,0,1.808,1.689,3.185,3.185,0,0,0,1.227.219,3.287,3.287,0,0,0,1.219-.3l.293-.134.33-.191c.219-.13.442-.253.657-.389.436-.263.865-.537,1.291-.816a38.736,38.736,0,0,0,8.972-8.212v0a.746.746,0,0,1,1.046-.12.746.746,0,0,1,.12,1.047,40.23,40.23,0,0,1-9.319,8.53c-.442.289-.887.573-1.34.847-.224.141-.455.269-.682.4l-.343.2-.412.2a4.816,4.816,0,0,1-1.781.435,4.683,4.683,0,0,1-1.815-.318,4.789,4.789,0,0,1-2.623-2.454,4.648,4.648,0,0,1-.11-3.6l.074-.215.081-.186.165-.368c.112-.245.231-.486.352-.727q.368-.719.79-1.409a20.073,20.073,0,0,1,1.905-2.607c.178-.2.356-.405.542-.6.092-.1.185-.2.28-.292l.142-.145.071-.072c.046-.041.1-.084.147-.124a1.372,1.372,0,0,1,.767-.288,1.448,1.448,0,0,1,.78.184,1.435,1.435,0,0,1,.739,1.347,1.4,1.4,0,0,1-.089.395c-.023.058-.051.124-.075.173l-.046.087-.186.347-.372.692-.771,1.372a70.57,70.57,0,0,1-7.243,10.271q-2.038,2.4-4.287,4.6l-.562.551-.36.3-.184.146-.2.121a3.829,3.829,0,0,1-1.8.574,4.346,4.346,0,0,1-.949-.041,4.462,4.462,0,0,1-.905-.269,4.023,4.023,0,0,1-1.529-1.089,3.968,3.968,0,0,1-.878-1.681,2.949,2.949,0,0,1-.079-.47,2.222,2.222,0,0,1-.03-.473l.018-.471.046-.4q.2-1.579.542-3.136c.231-1.035.507-2.061.834-3.069l.252-.755.134-.374a.836.836,0,0,0,.034-.12.2.2,0,0,0,.016-.083.429.429,0,0,0-.057-.281.555.555,0,0,0-.247-.213.475.475,0,0,0-.572.125l-1.064,1.136-2.129,2.271-2.129,2.271-1.064,1.136-.133.142-.167.165a3.8,3.8,0,0,1-.363.311,3.931,3.931,0,0,1-.829.477,4.156,4.156,0,0,1-3.656-.229l-.365-.228a2.088,2.088,0,0,0-.25-.134,2.047,2.047,0,0,0-.553-.166,2.825,2.825,0,0,0-1.216.084,3.387,3.387,0,0,0-1.958,1.554,6.186,6.186,0,0,0-.814,2.624l-1.461-.261,0-.008c.837-3.356,1.655-6.719,2.509-10.07l.636-2.516.313-1.247a7.385,7.385,0,0,0,.2-1.127,2.325,2.325,0,0,0-.075-.907,1.293,1.293,0,0,0-.407-.6,2.034,2.034,0,0,0-1.611-.437,2.369,2.369,0,0,0-.844.288l-.1.058-.126.083-.263.176-.526.352c-.71.455-1.381.968-2.06,1.468-.344.243-.665.519-.993.783s-.657.527-.979.8l-.943.842-.472.419-.455.438a44.736,44.736,0,0,0-6.492,7.713,44.21,44.21,0,0,0-4.612,8.94l-.438,1.18-.385,1.2a22.906,22.906,0,0,0-.662,2.373,6.951,6.951,0,0,0,.172,4.235,3.239,3.239,0,0,0,1.106,1.378,2.179,2.179,0,0,0,.74.338,2.284,2.284,0,0,0,.794.084,3.27,3.27,0,0,0,1.641-.633,7.982,7.982,0,0,0,1.568-1.5,14.763,14.763,0,0,0,1.325-1.939l.293-.527.3-.566.6-1.133c.393-.758.769-1.524,1.154-2.286l1.1-2.312a120.641,120.641,0,0,0,6.969-19.23c.433-1.65.846-3.307,1.209-4.974.181-.834.366-1.666.523-2.5l.246-1.256c.071-.394.134-.779.172-1.161a8.259,8.259,0,0,0-.009-2.162,2.672,2.672,0,0,0-.617-1.46,1.682,1.682,0,0,0-.541-.379,2.471,2.471,0,0,0-.747-.189,2.944,2.944,0,0,0-1.622.354c-.069.037-.119.065-.2.116l-.262.17-.524.341-1.049.681c-.69.468-1.344.986-2.026,1.468-.663.506-1.3,1.051-1.948,1.574-.632.546-1.235,1.125-1.856,1.686a47.559,47.559,0,0,0-6.452,7.692,47.911,47.911,0,0,0-7.491,18.677.746.746,0,0,1-.859.61A.749.749,0,0,1-3516.172,7565.6Z" transform="translate(3525.569 -7468.104)" fill="url(#linear-gradient-15)"/>
        <path id="Trazado_101211" data-name="Trazado 101211" d="M-2509.261,7627.642a.744.744,0,0,1-.632-.35.745.745,0,0,1,.236-1.026l7.437-4.659a.744.744,0,0,1,1.026.236.745.745,0,0,1-.236,1.026l-7.437,4.658A.741.741,0,0,1-2509.261,7627.642Z" transform="translate(2596.121 -7552.782)" fill="url(#linear-gradient-16)"/>
      </g>
    </g>
    <g id="Grupo_53514" data-name="Grupo 53514" transform="translate(-4216.685 6064.354)">
      <g id="Grupo_53509" data-name="Grupo 53509" transform="translate(59.412 9.077)">
        <g id="Grupo_53504" data-name="Grupo 53504" transform="translate(22.69 99.041)">
          <path id="Trazado_101212" data-name="Trazado 101212" d="M-2043.587,8748.918c2.3.2,6.282.521,9.424.659a9.09,9.09,0,0,0,3.6-.353c0,.07,0,.138-.006.2a.649.649,0,0,1-.618.614,110.183,110.183,0,0,1-12.34.013.463.463,0,0,1-.377-.7A3.675,3.675,0,0,1-2043.587,8748.918Z" transform="translate(2043.965 -8740.977)" fill="url(#linear-gradient-17)"/>
          <path id="Trazado_101213" data-name="Trazado 101213" d="M-2029.577,8693.4c-3.142-.138-7.128-.46-9.424-.659,2.258-2.77,9.424-4.637,9.424-4.637h2.024a8.489,8.489,0,0,1,1.578,4.943A9.053,9.053,0,0,1-2029.577,8693.4Z" transform="translate(2039.38 -8684.797)" fill="url(#linear-gradient-18)"/>
          <path id="Trazado_101214" data-name="Trazado 101214" d="M-1930.135,8644.767l-.189,3.748a.855.855,0,0,1-.731.8,3.317,3.317,0,0,1-1.521-.126,1.011,1.011,0,0,1-.681-.778l-.655-3.648Z" transform="translate(1942.303 -8644.767)" fill="url(#linear-gradient-19)"/>
        </g>
        <g id="Grupo_53506" data-name="Grupo 53506" transform="translate(54.35 95.538)">
          <g id="Grupo_53505" data-name="Grupo 53505" transform="translate(0.892 3.478)">
            <path id="Trazado_101215" data-name="Trazado 101215" d="M-1581.584,8742.543a1.818,1.818,0,0,0,1.635-1.209l0,.015a1.294,1.294,0,0,1-.872,1.476,5.687,5.687,0,0,1-2.415.378,2.4,2.4,0,0,1-1.811-.835l-.006-.008A6.074,6.074,0,0,0-1581.584,8742.543Z" transform="translate(1587.489 -8733.946)" fill="url(#linear-gradient-20)"/>
            <path id="Trazado_101216" data-name="Trazado 101216" d="M-1615.845,8644.447h1.669c2.542-.053,4.139,5.31,4.661,7.387a1.818,1.818,0,0,1-1.635,1.209,6.064,6.064,0,0,1-3.464-.184,15.943,15.943,0,0,1-2.382-6A2.1,2.1,0,0,1-1615.845,8644.447Z" transform="translate(1617.054 -8644.447)" fill="url(#linear-gradient-21)"/>
          </g>
          <path id="Trazado_101217" data-name="Trazado 101217" d="M-1625.193,8598.827l.927,3.687a1,1,0,0,1-.521,1.134,3.556,3.556,0,0,1-1.92.465.837.837,0,0,1-.682-.558l-1.361-3.879Z" transform="translate(1628.749 -8598.827)" fill="url(#linear-gradient-22)"/>
        </g>
        <path id="Trazado_101218" data-name="Trazado 101218" d="M-1999.278,7977.814c-1.153,1.023-4.9,1.158-4.9,1.158-13.511-32.428-19.038-37.035-19.038-37.035,1.951,12.239.314,39.336.314,39.336a8.1,8.1,0,0,1-5.1,0,208.853,208.853,0,0,0-6.9-51.29c9.132-.206,13.988-3.331,15.574-4.585C-2011.723,7937.672-1999.278,7977.814-1999.278,7977.814Z" transform="translate(2058.29 -7881.21)" fill="url(#linear-gradient-23)"/>
        <path id="Trazado_101219" data-name="Trazado 101219" d="M-2170.1,7433.629c1.729,8.622,1.109,24.053.7,31.091-.115,1.979,1.267,4.721,2.383,6.592a.586.586,0,0,1-.237.825,40.7,40.7,0,0,1-15.538,4.308,1.046,1.046,0,0,1-1.053-.782c-5.443-20.323-11.765-33.31-11.765-33.31C-2188.625,7431.208-2170.1,7433.629-2170.1,7433.629Z" transform="translate(2206.733 -7426.732)" fill="url(#linear-gradient-24)"/>
        <path id="Trazado_101220" data-name="Trazado 101220" d="M-1961.649,8067.391a.43.43,0,0,0,.225-.063.432.432,0,0,0,.144-.594,13.574,13.574,0,0,0-5.357-4.651.434.434,0,0,0-.578.2.432.432,0,0,0,.2.577,12.937,12.937,0,0,1,4.994,4.322A.434.434,0,0,0-1961.649,8067.391Z" transform="translate(1995.797 -8007.432)" fill="url(#linear-gradient-25)"/>
        <g id="Grupo_53507" data-name="Grupo 53507" transform="translate(34.705 6.897)">
          <path id="Trazado_101221" data-name="Trazado 101221" d="M-1800.357,7753.569a29.656,29.656,0,0,1-5.477,13.051l-1.248-1.017a38.518,38.518,0,0,0,.621-12.473A14.924,14.924,0,0,1-1800.357,7753.569Z" transform="translate(1813.129 -7728.825)" fill="url(#linear-gradient-26)"/>
          <path id="Trazado_101222" data-name="Trazado 101222" d="M-1886.4,7446.96l1.931-10.638s12.9,9.86,10.842,24.744a14.932,14.932,0,0,0-6.1-.439C-1880.318,7455.85-1882.079,7450.665-1886.4,7446.96Z" transform="translate(1886.397 -7436.322)" fill="url(#linear-gradient-27)"/>
        </g>
        <g id="Grupo_53508" data-name="Grupo 53508" transform="translate(0 15.707)">
          <path id="Trazado_101223" data-name="Trazado 101223" d="M-2211.965,7551.858l7.454,9.177c.8,6.474-1.881,10.04-5.254,12a22.755,22.755,0,0,0-3.332-6.361C-2209.663,7560.7-2211.965,7551.858-2211.965,7551.858Z" transform="translate(2222.891 -7551.858)" fill="url(#linear-gradient-28)"/>
          <path id="Trazado_101224" data-name="Trazado 101224" d="M-2331.75,7746.153a22.747,22.747,0,0,1,3.332,6.36c-8.749,6.214-13.125,2.375-13.125,2.375v-1.228a2.4,2.4,0,0,1,1.774-2.333C-2336.25,7750.4-2333,7748.33-2331.75,7746.153Z" transform="translate(2341.544 -7731.338)" fill="url(#linear-gradient-29)"/>
        </g>
        <path id="Trazado_101225" data-name="Trazado 101225" d="M-2135.443,7348.252l2.4,8.836a1.718,1.718,0,0,0,2.3,1.144,34.528,34.528,0,0,0,3.465-1.582,2.316,2.316,0,0,0,.817-3.329l-5-7.451Z" transform="translate(2151.158 -7345.869)" fill="url(#linear-gradient-30)"/>
      </g>
      <g id="Grupo_53510" data-name="Grupo 53510" transform="translate(67.371)">
        <path id="Trazado_101226" data-name="Trazado 101226" d="M-2204.413,7271.892c-.022.151,2,10.083,2,10.083l5.646-1.277-.522-9.7S-2204.047,7269.352-2204.413,7271.892Z" transform="translate(2206.911 -7267.146)" fill="url(#linear-gradient-31)"/>
        <path id="Trazado_101227" data-name="Trazado 101227" d="M-2228.81,7232.84l.675,5.083a.7.7,0,0,1,0,.195c-.057.4-.354,1.755-1.723,1.367a6.443,6.443,0,0,0-3.169-.414.716.716,0,0,0-.493.828,30.963,30.963,0,0,0,1.3,4.628.714.714,0,0,0,.867.422,23.114,23.114,0,0,0,4.977-2.036.718.718,0,0,0,.349-.645c-.054-1.283-.2-5.185-.078-6.279.119-1.026,1.378-1.641,1.926-1.862a.7.7,0,0,0,.392-.394,1.857,1.857,0,0,0-1.25-2.707.717.717,0,0,1-.454-.928,1.861,1.861,0,0,0-1.043-2.572,2.625,2.625,0,0,0-3.132.755.718.718,0,0,1-.913.108.567.567,0,0,0-.645.022.706.706,0,0,1-1-.3,2.139,2.139,0,0,0-2.485-1.238c-2.53.433-2.817,3.237-2.149,4.88s3.384,1.018,4.747.189c1.036-.63,2.38.03,2.965.383A.711.711,0,0,1-2228.81,7232.84Z" transform="translate(2237.167 -7226.825)" fill="url(#linear-gradient-32)"/>
        <path id="Trazado_101228" data-name="Trazado 101228" d="M-2094.619,7323.386s-1.04-2.912.028-3.626,2.652-.343,2.3,1.768C-2092.721,7324.151-2094.619,7323.386-2094.619,7323.386Z" transform="translate(2105.907 -7312.368)" fill="url(#linear-gradient-33)"/>
      </g>
      <g id="Grupo_53513" data-name="Grupo 53513" transform="translate(0 28.712)">
        <g id="Grupo_53512" data-name="Grupo 53512">
          <path id="Trazado_101229" data-name="Trazado 101229" d="M-2690.751,7603.563l-94.957,31.163,4.532,13.992,95.5-30.4a4.39,4.39,0,0,0,3.017-4.763,18.671,18.671,0,0,0-3.92-8.682A3.76,3.76,0,0,0-2690.751,7603.563Z" transform="translate(2811.253 -7603.375)" fill="url(#linear-gradient-34)"/>
          <g id="Grupo_53511" data-name="Grupo 53511" transform="translate(0 31.351)">
            <path id="Trazado_101230" data-name="Trazado 101230" d="M-3120.406,8130.159l11.263-6.7a11.432,11.432,0,0,1,2.1,6.93l-12.976.984A.654.654,0,0,1-3120.406,8130.159Z" transform="translate(3120.727 -8115.154)" fill="url(#linear-gradient-35)"/>
            <path id="Trazado_101231" data-name="Trazado 101231" d="M-2954.848,8014.537a18.122,18.122,0,0,1,4.532,13.992l-16.4,1.243a11.431,11.431,0,0,0-2.1-6.93Z" transform="translate(2980.394 -8014.537)" fill="url(#linear-gradient-36)"/>
          </g>
        </g>
        <path id="Trazado_101232" data-name="Trazado 101232" d="M-2622.926,7653.223a.276.276,0,0,0,.093-.306.276.276,0,0,0-.349-.176l-90.725,29.975a.275.275,0,0,0-.176.349.276.276,0,0,0,.35.176l90.725-29.974A.29.29,0,0,0-2622.926,7653.223Z" transform="translate(2745.103 -7648.964)" fill="#a491fa"/>
        <path id="Trazado_101233" data-name="Trazado 101233" d="M-2595.457,7722a.277.277,0,0,0,.093-.306.277.277,0,0,0-.35-.176l-90.725,29.974a.276.276,0,0,0-.176.35.276.276,0,0,0,.349.176l90.725-29.974A.281.281,0,0,0-2595.457,7722Z" transform="translate(2719.728 -7712.498)" fill="#a491fa"/>
      </g>
      <path id="Trazado_101234" data-name="Trazado 101234" d="M-1901.426,7910.579l-5.823-.475-2.522,2.325s.6.824,2.462.351a26.785,26.785,0,0,1,4.42-.591s2.575,1.161,2.606-1.011Z" transform="translate(2002.105 -7858.004)" fill="url(#linear-gradient-37)"/>
      <path id="Trazado_101235" data-name="Trazado 101235" d="M-2338.357,7839.193c-.5.393-2.229-.428-3.284-1a1.215,1.215,0,0,1-.587-1.436c.254-.8.677-1.835,1.2-1.966C-2340.164,7834.58-2336.282,7837.572-2338.357,7839.193Z" transform="translate(2401.641 -7788.428)" fill="url(#linear-gradient-38)"/>
    </g>
  </g>
</svg>
