<svg xmlns="http://www.w3.org/2000/svg" xmlns:xlink="http://www.w3.org/1999/xlink" width="212.507" height="213.5" viewBox="0 0 212.507 213.5">
  <defs>
    <linearGradient id="linear-gradient" x1="1.13" y1="1.295" x2="0.236" y2="0.19" gradientUnits="objectBoundingBox">
      <stop offset="0" stop-color="#dedafe"/>
      <stop offset="1" stop-color="#ebe9fd"/>
    </linearGradient>
    <linearGradient id="linear-gradient-2" x1="0.389" y1="-10.035" x2="0.496" y2="0.398" gradientUnits="objectBoundingBox">
      <stop offset="0" stop-color="#8d4fff"/>
      <stop offset="1" stop-color="#7a40e2"/>
    </linearGradient>
    <linearGradient id="linear-gradient-3" y1="0.5" x2="1" y2="0.5" gradientUnits="objectBoundingBox">
      <stop offset="0" stop-color="#fecdba"/>
      <stop offset="1" stop-color="#ffaf8e"/>
    </linearGradient>
    <linearGradient id="linear-gradient-4" x1="0.384" y1="-3.582" x2="0.505" y2="0.525" xlink:href="#linear-gradient-2"/>
    <linearGradient id="linear-gradient-5" y1="0.5" x2="1" y2="0.5" gradientUnits="objectBoundingBox">
      <stop offset="0" stop-color="#2c005d"/>
      <stop offset="1" stop-color="#4a0f91"/>
    </linearGradient>
    <linearGradient id="linear-gradient-7" x1="0.708" y1="0.132" x2="0.066" y2="1.227" xlink:href="#linear-gradient-5"/>
    <linearGradient id="linear-gradient-8" x1="0.367" y1="0.85" x2="0.601" y2="0.282" xlink:href="#linear-gradient-3"/>
    <linearGradient id="linear-gradient-9" x1="1.924" y1="-2.115" x2="0.335" y2="1.087" xlink:href="#linear-gradient-2"/>
    <linearGradient id="linear-gradient-10" x1="0.766" y1="0.225" x2="11.383" y2="-10.741" xlink:href="#linear-gradient-5"/>
    <linearGradient id="linear-gradient-12" x1="10.905" y1="5.631" x2="9.865" y2="6.381" xlink:href="#linear-gradient-3"/>
    <linearGradient id="linear-gradient-13" x1="8.572" y1="4.278" x2="9.341" y2="5.172" xlink:href="#linear-gradient-5"/>
    <linearGradient id="linear-gradient-14" x1="44.136" y1="17.391" x2="39.858" y2="20.001" xlink:href="#linear-gradient-3"/>
    <linearGradient id="linear-gradient-15" x1="40.645" y1="-910.555" x2="39.416" y2="-896.223" xlink:href="#linear-gradient-5"/>
    <linearGradient id="linear-gradient-16" x1="82.685" y1="-94.406" x2="80.06" y2="-93.107" xlink:href="#linear-gradient-5"/>
    <linearGradient id="linear-gradient-17" x1="-1.05" y1="2.829" x2="0.734" y2="-0.03" xlink:href="#linear-gradient-3"/>
    <linearGradient id="linear-gradient-18" x1="3.826" y1="-5.068" x2="1.474" y2="-1.022" xlink:href="#linear-gradient-5"/>
    <linearGradient id="linear-gradient-19" x1="0.47" y1="0.997" x2="0.639" y2="-1.153" xlink:href="#linear-gradient-3"/>
    <linearGradient id="linear-gradient-21" x1="3.608" y1="-17.352" x2="1.775" y2="-6.678" xlink:href="#linear-gradient-5"/>
    <linearGradient id="linear-gradient-22" x1="0.619" y1="-0.242" x2="0.442" y2="0.664" xlink:href="#linear-gradient-5"/>
    <linearGradient id="linear-gradient-23" x1="-0.289" y1="2.506" x2="0.449" y2="0.733" xlink:href="#linear-gradient-2"/>
    <linearGradient id="linear-gradient-24" x1="0.751" y1="1.908" x2="0.44" y2="0.311" xlink:href="#linear-gradient-3"/>
    <linearGradient id="linear-gradient-25" x1="-32.853" y1="31.186" x2="-31.452" y2="31.939" xlink:href="#linear-gradient-3"/>
    <linearGradient id="linear-gradient-26" x1="-20.285" y1="41.906" x2="-20.621" y2="44.885" xlink:href="#linear-gradient-5"/>
    <linearGradient id="linear-gradient-27" x1="-140.284" y1="100.533" x2="-134.415" y2="102.976" xlink:href="#linear-gradient-3"/>
    <linearGradient id="linear-gradient-28" x1="0.623" y1="0.5" x2="1.623" y2="0.5" xlink:href="#linear-gradient-3"/>
    <linearGradient id="linear-gradient-29" x1="0.675" y1="8.574" x2="-0.065" y2="11.011" xlink:href="#linear-gradient-5"/>
    <linearGradient id="linear-gradient-30" x1="0.733" y1="0.134" x2="0.333" y2="0.8" xlink:href="#linear-gradient-5"/>
    <linearGradient id="linear-gradient-31" x1="-1.288" y1="3.145" x2="0.762" y2="0.112" xlink:href="#linear-gradient-2"/>
    <linearGradient id="linear-gradient-32" x1="-1.297" y1="3.157" x2="0.754" y2="0.125" xlink:href="#linear-gradient-2"/>
    <linearGradient id="linear-gradient-33" x1="-1.74" y1="3.813" x2="0.31" y2="0.78" xlink:href="#linear-gradient-2"/>
    <linearGradient id="linear-gradient-34" x1="-1.749" y1="3.825" x2="0.302" y2="0.793" xlink:href="#linear-gradient-2"/>
    <linearGradient id="linear-gradient-35" x1="0.857" y1="-10.915" x2="0.637" y2="-3.932" xlink:href="#linear-gradient-5"/>
    <linearGradient id="linear-gradient-36" x1="0.211" y1="32.997" x2="0.464" y2="4.261" xlink:href="#linear-gradient-2"/>
  </defs>
  <g id="Grupo_53443" data-name="Grupo 53443" transform="translate(-4017.619 -2232.494)">
    <path id="Trazado_101050" data-name="Trazado 101050" d="M4205.493,2415.963a76.834,76.834,0,0,1-11.754,9.9c-38.346,27.513-83.719,19.494-93.362,17.535-14.24-2.893-41.765-8.483-61.665-31.885-30.108-35.406-25.419-91.186-2.066-128.008,4.272-6.735,26.836-44.118,72.7-50.113,27.755-3.628,60.108,3.689,83.538,23.319C4242.063,2297.912,4238.561,2381.15,4205.493,2415.963Z" transform="translate(0)" fill="url(#linear-gradient)"/>
    <g id="Grupo_53421" data-name="Grupo 53421" transform="translate(4021.039 2244.746)">
      <g id="Grupo_53415" data-name="Grupo 53415" transform="translate(0 1.394)">
        <g id="Grupo_53411" data-name="Grupo 53411">
          <path id="Trazado_101051" data-name="Trazado 101051" d="M4062.7,3137.627a.608.608,0,0,1-.356-.547c0-.8.011-1.6.041-2.4a.588.588,0,0,1,.626-.562c.809.039.534.83.542,2.982a.588.588,0,0,1-.6.587A.617.617,0,0,1,4062.7,3137.627Z" transform="translate(-4062.343 -3078.819)" fill="#9991fa"/>
          <path id="Trazado_101052" data-name="Trazado 101052" d="M4072.829,2459.378c.255-1.507.575-3.021.95-4.5a.6.6,0,0,1,.732-.422c.882.237.263.7-.49,5.14a.592.592,0,0,1-.7.478A.608.608,0,0,1,4072.829,2459.378Zm3.241-11.609c.563-1.427,1.195-2.859,1.854-4.205a.607.607,0,0,1,1.091.532c-.657,1.343-1.265,2.724-1.817,4.121a.607.607,0,0,1-1.128-.448Zm5.562-10.684c.842-1.272,1.748-2.527,2.69-3.73a.606.606,0,0,1,.961.739c-.924,1.178-1.811,2.408-2.636,3.654A.607.607,0,0,1,4081.631,2437.086Zm7.688-8.461a.589.589,0,0,1-.005-.842c1.093-1.071,2.244-2.112,3.421-3.1.605-.505,1.4.409.791.914-1.153.963-2.281,1.984-3.352,3.033A.61.61,0,0,1,4089.32,2428.624Zm9.305-7.545a.585.585,0,0,1,.169-.823c1.3-.826,2.642-1.611,4-2.333a.6.6,0,0,1,.588,1.051c-1.33.708-2.649,1.477-3.919,2.286A.616.616,0,0,1,4098.625,2421.08Zm11.009-5.173a.611.611,0,0,1-.312-.326.583.583,0,0,1,.335-.769c1.444-.547,2.927-1.045,4.408-1.479a.616.616,0,0,1,.758.4.584.584,0,0,1-.4.74c-1.452.425-2.905.913-4.32,1.449A.616.616,0,0,1,4109.634,2415.907Zm11.674-3.113a.61.61,0,0,1-.347-.444.585.585,0,0,1,.487-.683c1.53-.245,3.089-.434,4.636-.56a.614.614,0,0,1,.662.544.586.586,0,0,1-.542.643c-1.515.124-3.043.309-4.542.549A.613.613,0,0,1,4121.308,2412.794Zm11.757-1.26a.589.589,0,0,1,.621-.568c1.553.069,3.125.2,4.672.389a.6.6,0,1,1-.128,1.182c-1.516-.185-3.057-.313-4.577-.381A.613.613,0,0,1,4133.065,2411.533Zm37.763,15.628c-3.42-3.017-4.237-3.03-3.687-3.744a.607.607,0,0,1,.846-.106c1.246.938,2.47,1.937,3.64,2.968A.594.594,0,1,1,4170.828,2427.162Zm-25.7-13.982a.593.593,0,0,1,.728-.429c1.511.38,3.028.823,4.509,1.318a.593.593,0,1,1-.37,1.127c-1.452-.485-2.938-.92-4.418-1.292A.606.606,0,0,1,4145.128,2413.18Zm15.891,6.955c-3.952-2.268-4.763-2.121-4.375-2.935a.617.617,0,0,1,.8-.274c1.413.673,2.814,1.408,4.166,2.182a.594.594,0,1,1-.595,1.027Z" transform="translate(-4072.019 -2410.964)" fill="#9991fa"/>
          <path id="Trazado_101053" data-name="Trazado 101053" d="M5423.573,2682.138c-1.281-1.579-2.106-2.142-1.489-2.666a.611.611,0,0,1,.853.068c1.392,1.579,2.1,2.22,1.487,2.7A.691.691,0,0,1,5423.573,2682.138Z" transform="translate(-5317.92 -2658.81)" fill="#9991fa"/>
        </g>
        <g id="Grupo_53412" data-name="Grupo 53412" transform="translate(11.627 64.222)">
          <path id="Trazado_101054" data-name="Trazado 101054" d="M5610.926,3254.368a.606.606,0,0,1-.352-.622c.1-.776.179-1.564.243-2.34a.59.59,0,0,1,.652-.534.612.612,0,0,1,.553.651c-.065.792-.149,1.6-.248,2.389a.591.591,0,0,1-.674.507A.6.6,0,0,1,5610.926,3254.368Z" transform="translate(-5503.814 -3250.869)" fill="#9991fa"/>
          <path id="Trazado_101055" data-name="Trazado 101055" d="M4320.979,3421.4c-1.508-.745-3-1.562-4.442-2.427a.6.6,0,0,1-.211-.82c.48-.788.768,0,5.18,2.184a.6.6,0,0,1,.281.8A.616.616,0,0,1,4320.979,3421.4Zm7.208,2.392c.292-.875.771-.157,5.516,1.033a.605.605,0,0,1,.449.725.594.594,0,0,1-.728.43c-1.624-.407-3.256-.888-4.851-1.43A.6.6,0,0,1,4328.188,3423.788Zm-18.394-9.516c-1.308-1.05-2.589-2.167-3.808-3.323a.59.59,0,0,1-.023-.842c.646-.663.75.169,4.585,3.246a.593.593,0,0,1,.1.839A.61.61,0,0,1,4309.794,3414.271Zm31.518,13.109a.607.607,0,0,1-.354-.606.59.59,0,0,1,.66-.525c1.635.183,3.294.3,4.932.344a.612.612,0,0,1,.6.612.588.588,0,0,1-.611.579c-1.671-.047-3.365-.165-5.034-.351A.618.618,0,0,1,4341.312,3427.38Zm13.069.026a.611.611,0,0,1-.352-.475.586.586,0,0,1,.524-.656c1.626-.175,3.264-.421,4.869-.732a.616.616,0,0,1,.717.47.584.584,0,0,1-.464.7c-1.639.317-3.311.568-4.97.747A.615.615,0,0,1,4354.381,3427.406Zm12.71-2.8a.612.612,0,0,1-.32-.346.583.583,0,0,1,.363-.756c1.542-.522,3.081-1.115,4.573-1.764a.617.617,0,0,1,.8.307.584.584,0,0,1-.3.785c-1.522.662-3.092,1.267-4.666,1.8A.613.613,0,0,1,4367.091,3424.606Zm11.741-5.474a.611.611,0,0,1-.262-.228.585.585,0,0,1,.187-.819c1.385-.842,2.75-1.754,4.056-2.709a.614.614,0,0,1,.847.129.586.586,0,0,1-.116.832c-1.333.975-2.726,1.906-4.14,2.765A.61.61,0,0,1,4378.832,3419.132Zm10.026-8.012c-.665-.665.178-.729,3.338-4.374a.606.606,0,0,1,.925.783c-1.078,1.244-2.225,2.457-3.408,3.6A.611.611,0,0,1,4388.858,3411.12Zm8.262-9.855c-.795-.506,0-.747,2.264-5.005a.607.607,0,0,1,1.073.566c-.771,1.453-1.612,2.889-2.5,4.267A.6.6,0,0,1,4397.12,3401.265Zm5.781-11.454a.6.6,0,0,1-.32-.748c.553-1.52,1.046-3.076,1.464-4.624a.6.6,0,0,1,.74-.41.606.606,0,0,1,.429.736c-.427,1.58-.93,3.167-1.5,4.718a.6.6,0,0,1-.772.347Z" transform="translate(-4298.809 -3373.826)" fill="#9991fa"/>
          <path id="Trazado_101056" data-name="Trazado 101056" d="M4216,3622.194c-1.318-1.643-2-2.312-1.36-2.762.66-.468.954.351,2.3,2.034a.587.587,0,0,1-.094.835A.613.613,0,0,1,4216,3622.194Z" transform="translate(-4214.402 -3591.13)" fill="#9991fa"/>
        </g>
        <g id="Grupo_53414" data-name="Grupo 53414" transform="translate(15.802 14.93)">
          <path id="Trazado_101057" data-name="Trazado 101057" d="M4274.094,2672.044l8.655-.455a38.508,38.508,0,0,0,8.742,8.6c-.251,8.3-.856,8.86.007,9.218l9.654,3.994a.714.714,0,0,0,.8-.177l5.684-6.354a38.347,38.347,0,0,0,12.244.084l5.817,6.442a.727.727,0,0,0,.808.189l9.575-3.854a.686.686,0,0,0,.432-.688l-.612-8.536a36.562,36.562,0,0,0,8.575-8.465l8.66.581a.7.7,0,0,0,.7-.427l3.886-9.444a.7.7,0,0,0-.194-.8l-6.549-5.711a36.7,36.7,0,0,0-.127-12.064c6.171-5.621,6.979-5.569,6.616-6.413-4.164-9.25-3.838-9.989-4.785-9.939l-8.655.455a38.493,38.493,0,0,0-8.742-8.6c.25-8.292.857-8.86-.007-9.218-9.661-3.8-9.848-4.5-10.459-3.816l-5.683,6.354a38.35,38.35,0,0,0-12.245-.085c-5.743-6.1-5.762-6.979-6.625-6.631-9.408,3.98-10.073,3.62-10.007,4.542l.612,8.536a36.559,36.559,0,0,0-8.574,8.465c-8.278-.384-9-1.016-9.357-.153-3.677,9.412-4.4,9.622-3.692,10.24l6.548,5.711a36.713,36.713,0,0,0,.127,12.064c-6.149,5.6-6.979,5.565-6.616,6.413C4273.473,2671.355,4273.146,2672.094,4274.094,2672.044Z" transform="translate(-4269.006 -2606.221)" fill="#9991fa"/>
          <g id="Grupo_53413" data-name="Grupo 53413" transform="translate(34.234 33.714)">
            <path id="Trazado_101058" data-name="Trazado 101058" d="M4716.82,3055.614a9.935,9.935,0,0,1,11.425-8.36,10.24,10.24,0,0,1,8.686,11.4,9.936,9.936,0,0,1-11.425,8.36h0A10.239,10.239,0,0,1,4716.82,3055.614Zm8.808,10.521.005,0ZM4728,3049.02a8.149,8.149,0,0,0-9.383,6.865,8.408,8.408,0,0,0,7.133,9.366,8.159,8.159,0,0,0,9.383-6.866A8.409,8.409,0,0,0,4728,3049.02Z" transform="translate(-4716.726 -3047.137)" fill="#c3bdfb"/>
          </g>
          <path id="Trazado_101059" data-name="Trazado 101059" d="M4527,2890.809h0a26.827,26.827,0,0,1-3.913-2.216.883.883,0,0,1-.243-1.245.91.91,0,0,1,1.259-.218,25.112,25.112,0,0,0,4.553,2.461h0c12.073,4.994,25.808-.289,31.1-11.784q.2-.44.39-.893c5.014-12.186-1.056-26.138-13.417-31.255-12.344-5.106-26.487.525-31.494,12.677-2.976,7.235-1.185,12.357-1.527,13.1a.915.915,0,0,1-1.723-.255,25.106,25.106,0,0,1,1.986-14.5c9.279-20.134,38.807-19.31,47.657,1.31a25.123,25.123,0,0,1,.2,19.62q-.2.489-.421.968a25.039,25.039,0,0,1-13.518,12.8,26.208,26.208,0,0,1-19.914-.145Q4527.481,2891.032,4527,2890.809Z" transform="translate(-4493.112 -2824.011)" fill="#c3bdfb"/>
        </g>
      </g>
      <g id="Grupo_53420" data-name="Grupo 53420" transform="translate(109.51 0)">
        <path id="Trazado_101060" data-name="Trazado 101060" d="M5588.944,2514.759a21.1,21.1,0,0,0,5.2,4.428l.1,4.838c.011.537.47.329,5.8,2.153.494.159.439-.3,3.346-4.009a21.1,21.1,0,0,0,6.811-.554l3.492,3.354c.389.372.564-.1,5.626-2.581a.4.4,0,0,0,.213-.41l-.683-4.794a21.09,21.09,0,0,0,4.429-5.2c4.621-.189,5.046.13,5.208-.373,1.669-5.5,2.061-5.654,1.643-5.968l-3.87-2.905a21.088,21.088,0,0,0-.553-6.811l3.354-3.492c.372-.387-.1-.565-2.581-5.626-.235-.46-.5-.1-5.2.47a21.1,21.1,0,0,0-5.2-4.429l-.1-4.838c-.011-.537-.47-.329-5.8-2.153-.491-.159-.424.283-3.345,4.009a21.089,21.089,0,0,0-6.812.553l-3.492-3.354a.4.4,0,0,0-.458-.067l-5.169,2.648a.4.4,0,0,0-.212.41l.682,4.794a21.1,21.1,0,0,0-4.428,5.2c-4.622.189-5.047-.13-5.208.373-1.669,5.5-2.062,5.654-1.643,5.968l3.87,2.906a21.088,21.088,0,0,0,.553,6.811c-3.134,3.4-3.663,3.477-3.421,3.949l2.647,5.169C5583.978,2515.691,5584.269,2515.326,5588.944,2514.759Z" transform="translate(-5573.406 -2469.475)" fill="#9991fa"/>
        <g id="Grupo_53419" data-name="Grupo 53419">
          <g id="Grupo_53416" data-name="Grupo 53416" transform="translate(25.646 25.482)">
            <path id="Trazado_101061" data-name="Trazado 101061" d="M5829.949,2731.658a6.061,6.061,0,1,1,5.656,6.439h0A6.067,6.067,0,0,1,5829.949,2731.658Zm5.714,5.538.005,0Zm-3.911-5.422a4.26,4.26,0,0,0,3.97,4.521h0a4.254,4.254,0,1,0-3.97-4.521Z" transform="translate(-5829.937 -2725.99)" fill="#c3bdfb"/>
          </g>
          <g id="Grupo_53417" data-name="Grupo 53417">
            <path id="Trazado_101062" data-name="Trazado 101062" d="M5503.858,2886.207c-.233-.78-.438-1.579-.609-2.377a.6.6,0,0,1,.462-.715c.818-.176.7.737,1.3,2.748a.6.6,0,0,1-1.154.344Z" transform="translate(-5502.569 -2845.598)" fill="#9991fa"/>
            <path id="Trazado_101063" data-name="Trazado 101063" d="M5494.535,2422.938a32.158,32.158,0,0,1,.59-4.924.6.6,0,0,1,1.181.236c-.861,4.312-.189,5.359-1.2,5.316A.6.6,0,0,1,5494.535,2422.938Zm3.438-11.748a.6.6,0,0,1-.278-.8,31.739,31.739,0,0,1,2.514-4.277.6.6,0,0,1,.987.69,30.585,30.585,0,0,0-2.418,4.114A.611.611,0,0,1,5497.973,2411.19Zm7.78-10.037a.6.6,0,0,1-.14-1,31.9,31.9,0,0,1,4.008-2.921.6.6,0,1,1,.631,1.025,30.752,30.752,0,0,0-3.856,2.812A.6.6,0,0,1,5505.753,2401.153Zm11.122-6.12a.6.6,0,0,1,.076-1.123,31.565,31.565,0,0,1,4.842-1.075.6.6,0,1,1,.167,1.193,30.355,30.355,0,0,0-4.657,1.034A.6.6,0,0,1,5516.875,2395.033Zm12.3-1.771a.6.6,0,0,1,.666-.531,31.873,31.873,0,0,1,4.871.94.6.6,0,0,1-.32,1.161,30.646,30.646,0,0,0-4.687-.9A.6.6,0,0,1,5529.172,2393.262Z" transform="translate(-5494.535 -2392.727)" fill="#9991fa"/>
            <path id="Trazado_101064" data-name="Trazado 101064" d="M6107.561,2447.261c-1.818-1.253-2.62-1.383-2.212-2.086a.6.6,0,0,1,.822-.219c.7.407,1.4.849,2.073,1.313a.6.6,0,1,1-.684.991Z" transform="translate(-6058.548 -2440.885)" fill="#9991fa"/>
          </g>
          <g id="Grupo_53418" data-name="Grupo 53418" transform="translate(12.295 24.59)">
            <path id="Trazado_101065" data-name="Trazado 101065" d="M6300.849,2717.378c-.281-2.2-.719-2.876.077-3.041a.6.6,0,0,1,.712.467c.165.794.3,1.609.405,2.421a.6.6,0,1,1-1.194.153Z" transform="translate(-6251.143 -2714.325)" fill="#9991fa"/>
            <path id="Trazado_101066" data-name="Trazado 101066" d="M5773.082,2873.089c.314-.95,1.026.028,5.317.745a.6.6,0,0,1-.2,1.188,31.784,31.784,0,0,1-4.736-1.172A.6.6,0,0,1,5773.082,2873.089Zm12.375,1.713a.6.6,0,0,1,.551-.649c4.372-.359,5.123-1.276,5.359-.3a.6.6,0,0,1-.444.727,31.619,31.619,0,0,1-4.816.774A.6.6,0,0,1,5785.457,2874.8Zm12.05-3.279c-.47-.886.719-.716,4.214-3.326a.6.6,0,0,1,.72.965,31.931,31.931,0,0,1-4.12,2.61A.6.6,0,0,1,5797.506,2871.523Zm9.792-7.755c-.78-.633.384-.941,2.576-4.71a.6.6,0,0,1,1.041.605,31.8,31.8,0,0,1-2.77,4.016A.6.6,0,0,1,5807.3,2863.768Zm5.549-11.72c1.191-4.218.6-5.248,1.594-5.126a.6.6,0,0,1,.525.67,31.9,31.9,0,0,1-.96,4.783.6.6,0,1,1-1.159-.328Z" transform="translate(-5764.049 -2836.774)" fill="#9991fa"/>
            <path id="Trazado_101067" data-name="Trazado 101067" d="M5657.571,3124.185c-.686-.441-1.362-.915-2.01-1.407a.6.6,0,0,1-.115-.844c.506-.667,1.01.1,2.777,1.239a.6.6,0,0,1-.652,1.012Z" transform="translate(-5655.324 -3090.538)" fill="#9991fa"/>
          </g>
          <path id="Trazado_101068" data-name="Trazado 101068" d="M5722.912,2637.127a.9.9,0,1,1,.873-1.582,13.138,13.138,0,0,0,12.555.324c10.348-5.3,9.125-20.577-1.954-24.148a13.131,13.131,0,0,0-15.93,6.984c-2.755,5.979.359,9.09-1.547,9.531a.9.9,0,0,1-1.084-.676,14.921,14.921,0,1,1,9.957,10.837h0A15.005,15.005,0,0,1,5722.912,2637.127Z" transform="translate(-5698.551 -2592.723)" fill="#c3bdfb"/>
        </g>
      </g>
    </g>
    <g id="Grupo_53438" data-name="Grupo 53438" transform="translate(4017.924 2335.072)">
      <g id="Grupo_53422" data-name="Grupo 53422" transform="translate(0 68.671)">
        <path id="Trazado_101069" data-name="Trazado 101069" d="M4028.93,4535.977c-.663.98-3.3,23.186-3.709,31.387a.97.97,0,0,0,.971,1.017h0a.972.972,0,0,0,.96-.822l4.818-30.876Z" transform="translate(-4024.943 -4531.094)" fill="#8f7df4"/>
        <path id="Trazado_101070" data-name="Trazado 101070" d="M4314.006,4535.977c.663.98,3.3,23.186,3.709,31.387a.97.97,0,0,1-.971,1.017h0a.972.972,0,0,1-.96-.822l-4.818-30.876Z" transform="translate(-4288.84 -4531.094)" fill="#8f7df4"/>
        <path id="Trazado_101071" data-name="Trazado 101071" d="M4021.6,4475.27l0,.242a3.3,3.3,0,0,0,3.364,3.2l22.27.379a3.33,3.33,0,0,0,3.486-3.022l.011-.222a3.288,3.288,0,0,0-3.356-3.33l-22.28-.4A3.316,3.316,0,0,0,4021.6,4475.27Z" transform="translate(-4021.601 -4472.121)" fill="#8f7df4"/>
      </g>
      <g id="Grupo_53426" data-name="Grupo 53426" transform="translate(6.614 2.67)">
        <g id="Grupo_53423" data-name="Grupo 53423" transform="translate(33.768 97.419)">
          <path id="Trazado_101072" data-name="Trazado 101072" d="M4556.739,4928.071c-3.958,0-5.71-.34-6.493-.65a1.5,1.5,0,0,0,1.463,1.164h14a.682.682,0,0,0,.657-.86C4564.774,4927.854,4561.384,4928.071,4556.739,4928.071Z" transform="translate(-4550.206 -4924.026)" fill="#9991fa"/>
          <path id="Trazado_101073" data-name="Trazado 101073" d="M4565.887,4886.71a.65.65,0,0,0-.114-.238c-1.067-1.362-3.21-3.5-6.125-3.46-4.271.06-5.76.523-9.079.026l-.782,2.6a1.487,1.487,0,0,0-.024.773c.783.311,2.535.65,6.494.65C4560.9,4887.056,4564.291,4886.838,4565.887,4886.71Z" transform="translate(-4549.722 -4883.011)" fill="url(#linear-gradient-2)"/>
        </g>
        <path id="Trazado_101074" data-name="Trazado 101074" d="M4561.755,4846.786l-.961,3.269a5.652,5.652,0,0,0,4,.191l.368-2.832Z" transform="translate(-4526.18 -4752.137)" fill="url(#linear-gradient-3)"/>
        <g id="Grupo_53424" data-name="Grupo 53424" transform="translate(57.665 92.694)">
          <path id="Trazado_101075" data-name="Trazado 101075" d="M4886.96,4832.89c-3.086,2.48-4.664,3.313-5.467,3.563a1.5,1.5,0,0,0,1.866-.014l10.917-8.772a.679.679,0,0,0-.024-1.079C4893.088,4827.688,4890.581,4829.981,4886.96,4832.89Z" transform="translate(-4880.022 -4826.178)" fill="#9991fa"/>
          <path id="Trazado_101076" data-name="Trazado 101076" d="M4876.48,4821.631a.657.657,0,0,0-.238-.113c-1.68-.389-4.685-.706-6.932,1.152-3.292,2.722-4.163,4.014-7.061,5.707l1.007,2.5a1.475,1.475,0,0,0,.464.615c.8-.25,2.381-1.084,5.467-3.563C4872.809,4825.023,4875.315,4822.73,4876.48,4821.631Z" transform="translate(-4862.25 -4821.22)" fill="url(#linear-gradient-4)"/>
        </g>
        <path id="Trazado_101077" data-name="Trazado 101077" d="M4249.386,4359.767s23.7,1.935,28.564,4.224-3.968,34.369-3.968,34.369-1.324.637-4.269-.279c0,0,3.021-23.673.773-28.807l-25.663-4.2Z" transform="translate(-4234.369 -4302.357)" fill="url(#linear-gradient-5)"/>
        <path id="Trazado_101078" data-name="Trazado 101078" d="M4831.451,4838.983c.22.2,2.355,4.506,2.355,4.506s2.377-.515,2.861-2.019l-2.139-3.886Z" transform="translate(-4776.141 -4743.639)" fill="url(#linear-gradient-3)"/>
        <path id="Trazado_101079" data-name="Trazado 101079" d="M4108.844,4357.176a11.992,11.992,0,0,0-.741,4.328,6.5,6.5,0,0,0,6.2,6.357l28.02,1.278a1.344,1.344,0,0,1,1.24,1.01c.659,2.547,3.877,10.367,19.609,25.974a1.269,1.269,0,0,0,1.569.171l2.24-1.415a.516.516,0,0,0,.169-.7l-16.314-27.859a6.313,6.313,0,0,0-3.836-2.845l-23.881-6.1Z" transform="translate(-4108.102 -4299.964)" fill="url(#linear-gradient-7)"/>
        <path id="Trazado_101080" data-name="Trazado 101080" d="M4405.713,3788.035s-3,5.307-6.062,7.878l6.326,3.529s1.425-5.618,4.682-7.263Z" transform="translate(-4377.358 -3774.342)" fill="url(#linear-gradient-8)"/>
        <path id="Trazado_101081" data-name="Trazado 101081" d="M4111.147,3916.162a34.676,34.676,0,0,0,14.784,0s10.1-13.582,14.012-17.278a27.8,27.8,0,0,0,20.112,11.232l.774-1.729s-11.048-5.093-14.449-12.918-4.768-11.162-7.861-13.2c-1.927-1.271-3.081-2.14-3.677-2.615a.989.989,0,0,0-1.133-.072C4130.424,3881.58,4114.974,3892.162,4111.147,3916.162Z" transform="translate(-4110.914 -3858.752)" fill="url(#linear-gradient-9)"/>
        <path id="Trazado_101082" data-name="Trazado 101082" d="M4431.363,4039.536a.484.484,0,0,1-.386-.19,30.182,30.182,0,0,1-3.806-6.749.485.485,0,1,1,.906-.348,29.758,29.758,0,0,0,3.671,6.506.485.485,0,0,1-.385.78Z" transform="translate(-4402.744 -3999.595)" fill="url(#linear-gradient-10)"/>
        <path id="Trazado_101083" data-name="Trazado 101083" d="M4739.854,4227.3l1.562-.416,4.742-1.1a2.2,2.2,0,0,1,1.667.281l4.078,2.566-11.261-.019Z" transform="translate(-4691.548 -4178.564)" fill="url(#linear-gradient-3)"/>
        <g id="Grupo_53425" data-name="Grupo 53425" transform="translate(20.551)">
          <path id="Trazado_101084" data-name="Trazado 101084" d="M4438.676,3683.96s2.917,4.849,3.423,7.529,1.319,4.355-1.731,5.31a6.694,6.694,0,0,1-7.665-2.755s-2.778-3.85-2.5-5.613S4438.676,3683.96,4438.676,3683.96Z" transform="translate(-4426.106 -3678.225)" fill="url(#linear-gradient-12)"/>
          <path id="Trazado_101085" data-name="Trazado 101085" d="M4384.275,3622.7l.395-.052s-2.065-3.121-.714-3.9,6.859-2.674,7.815-4.843a3.767,3.767,0,0,0-2.12-4.947.212.212,0,0,0-.254.134l-.1.263a.214.214,0,0,1-.4.011h0a.213.213,0,0,0-.388-.008c-.294.65-1.178,1.76-3.827,2.618-3.759,1.219-6.1,3.113-5.812,5.783a.214.214,0,0,1-.306.217c-.307-.136-.772-.157-1.313.434-.94,1.029-.2,3.279,2.365,4.871a.212.212,0,0,1,.035.341c-.384.329-.925,1.063.813,1.717a4.369,4.369,0,0,0,3.107.3.213.213,0,0,0,.131-.24l-.456-2.34a.214.214,0,0,1,.182-.253Z" transform="translate(-4376.866 -3608.954)" fill="url(#linear-gradient-13)"/>
          <path id="Trazado_101086" data-name="Trazado 101086" d="M4439.426,3767.277s-1.287-3.173-2.639-2.058,1.25,3.581,2.45,3.548Z" transform="translate(-4431.855 -3753.051)" fill="url(#linear-gradient-14)"/>
        </g>
      </g>
      <g id="Grupo_53429" data-name="Grupo 53429" transform="translate(49.547 30.808)">
        <g id="Grupo_53427" data-name="Grupo 53427" transform="translate(0 21.962)">
          <path id="Trazado_101087" data-name="Trazado 101087" d="M4670.6,4266.345h.055l24.057-.024a1.075,1.075,0,1,0,0-2.149l-24.057.023a1.075,1.075,0,0,0-.053,2.148Z" transform="translate(-4669.579 -4264.173)" fill="url(#linear-gradient-15)"/>
        </g>
        <g id="Grupo_53428" data-name="Grupo 53428" transform="translate(24.205)">
          <path id="Trazado_101088" data-name="Trazado 101088" d="M4996.382,3977.523c-.009.016-.017.033-.024.049l-10.122,21.824a1.075,1.075,0,1,0,1.95.9l10.122-21.824a1.075,1.075,0,0,0-1.926-.954Z" transform="translate(-4986.135 -3976.948)" fill="url(#linear-gradient-16)"/>
        </g>
      </g>
      <g id="Grupo_53435" data-name="Grupo 53435" transform="translate(91.461 0)">
        <g id="Grupo_53430" data-name="Grupo 53430" transform="translate(40.724 70.724)">
          <rect id="Rect치ngulo_5267" data-name="Rect치ngulo 5267" width="2.539" height="27.459" transform="translate(12.272 6.153)" fill="#8f7df4"/>
          <path id="Trazado_101089" data-name="Trazado 101089" d="M5804.24,4925.5H5782a1.653,1.653,0,0,1,1.653-1.653h18.934a1.652,1.652,0,0,1,1.652,1.653Z" transform="translate(-5779.58 -4891.361)" fill="#8f7df4"/>
          <rect id="Rect치ngulo_5268" data-name="Rect치ngulo 5268" width="27.961" height="7.93" rx="3.965" fill="#8f7df4"/>
        </g>
        <g id="Grupo_53431" data-name="Grupo 53431" transform="translate(2.727 53.41)">
          <path id="Trazado_101090" data-name="Trazado 101090" d="M5574,4339.982a22.093,22.093,0,0,0-8.015,3.42,2.115,2.115,0,0,0-.934,2.021,89.648,89.648,0,0,0,9.483,29.766,3.2,3.2,0,0,1,.308,2.2l-1.2,5.568-2.22,2.081h5.716l3.806-10.3-1.627-.515a3.078,3.078,0,0,1-2.15-2.882l-.191-11.047a12.567,12.567,0,0,0-3.018-8.317l9.127-.444Z" transform="translate(-5541.202 -4334.825)" fill="url(#linear-gradient-17)"/>
          <path id="Trazado_101091" data-name="Trazado 101091" d="M5619.061,4799.295c-.521.681,5.6,1.58,8.7.09,0,0,4.288-7.46,4.288-11.3,0,0-.341-.783-2.858-.605,0,0-1.439,8.834-2.96,9.823s-4.253.1-4.253.1A8.948,8.948,0,0,0,5619.061,4799.295Z" transform="translate(-5591.072 -4748.079)" fill="url(#linear-gradient-18)"/>
          <path id="Trazado_101092" data-name="Trazado 101092" d="M5325.893,4369.266c-.049-.084-9.827-1.176-9.827-1.176a22.618,22.618,0,0,1-.681,7.066c-1,4.093-15.356,21.826-15.356,21.826l1.5,4.772a24.216,24.216,0,0,1-13.738.826l9.329-5.6s8.731-29.755,14.08-35.062l9.8-3.392Z" transform="translate(-5285.166 -4351.952)" fill="url(#linear-gradient-19)"/>
          <path id="Trazado_101093" data-name="Trazado 101093" d="M5631.75,4272.538s5.634,8.38,6.1,12.2-1.543,5.376-7.455,5.632-21.692.252-21.692.252l-13.469-11.511s9.816-3.5,12.368-4.493S5631.75,4272.538,5631.75,4272.538Z" transform="translate(-5569.092 -4272.538)" fill="url(#linear-gradient-5)"/>
          <path id="Trazado_101094" data-name="Trazado 101094" d="M5269.2,4902.83a2.756,2.756,0,0,1,.526,3.316s-12.839,2.276-16.325,1.243c0,0,.724-1.652,4.649-3.532l-.29.222a.469.469,0,0,0,.311.841C5260.661,4904.772,5266.014,4904.3,5269.2,4902.83Z" transform="translate(-5253.405 -4854.635)" fill="url(#linear-gradient-21)"/>
        </g>
        <g id="Grupo_53433" data-name="Grupo 53433" transform="translate(30.569)">
          <path id="Trazado_101095" data-name="Trazado 101095" d="M5704.827,3574.3c11.516-1.958,16.938,7.435,16.542,9.408a.361.361,0,0,0,.452.414c1.322-.356,4.243-.8,6.054,1.464,1.6,2,.4,3.893-.57,4.931a.364.364,0,0,0,.3.615c2.431-.307,7.713-.381,8.577,4.567.806,4.615-2.405,5.916-4.311,6.283a.361.361,0,0,0-.12.661,3.847,3.847,0,0,1,1.606,4.307c-.7,3.853-8.251,3.538-9.134,3.488a.358.358,0,0,1-.158-.047l-12.1-6.9a.364.364,0,0,1-.178-.254l-2.442-14.108a.364.364,0,0,1,.1-.314l-7.888-11.132C5698.691,3577.258,5704.691,3574.321,5704.827,3574.3Z" transform="translate(-5694.417 -3574.031)" fill="url(#linear-gradient-22)"/>
          <path id="Trazado_101096" data-name="Trazado 101096" d="M5732.972,3891.146a128.609,128.609,0,0,1-9.79-10.385,8.779,8.779,0,0,1-1.486-7.9,109.147,109.147,0,0,1,4.333-10.913c.366-1.228,7.723-1.176,7.723-1.176s14.476,9.4,20.164,25.309l-6.388,1.989a74.661,74.661,0,0,0-7.515-10.373s6.462,8.536,6.69,12.031Z" transform="translate(-5713.393 -3838.846)" fill="url(#linear-gradient-23)"/>
          <path id="Trazado_101097" data-name="Trazado 101097" d="M5771.145,3744.457c.077.255,2,6.62,2.147,6.752s4.211.351,6.122-.956l-4.741-9.273Z" transform="translate(-5759.399 -3728.214)" fill="url(#linear-gradient-24)"/>
          <g id="Grupo_53432" data-name="Grupo 53432" transform="translate(0 1.147)">
            <path id="Trazado_101098" data-name="Trazado 101098" d="M5668.507,3650.817s-.928,3.646,1.64,8.551,5.473,4.9,7.062,3.33a10.348,10.348,0,0,0,3.083-8.975C5679.825,3648.98,5669.847,3646.178,5668.507,3650.817Z" transform="translate(-5664.458 -3643.901)" fill="url(#linear-gradient-25)"/>
            <path id="Trazado_101099" data-name="Trazado 101099" d="M5629.812,3599.114s-4.26-6.511-8.254-1.386l-.072,1.864s-4.678-.555-3.859-4.845,4.862-6.971,10.068-5.113,8.19,3.764,8.526,7.495-2.633,2.913-2.633,2.913-.968-2.627-2.345-2.9-1.019,1.776-1.019,1.776Z" transform="translate(-5617.53 -3589.035)" fill="url(#linear-gradient-26)"/>
            <path id="Trazado_101100" data-name="Trazado 101100" d="M5780.745,3672.877s-2.209-3.334.055-3.832,1.912,3.249,1.668,4.635Z" transform="translate(-5767.373 -3662.886)" fill="url(#linear-gradient-27)"/>
          </g>
          <path id="Trazado_101101" data-name="Trazado 101101" d="M5698.783,4197.3l4.82-4.646,6.668,2.817s6.638,1.028,10.437,0l3.8-1.029,8.585-2.672,1.349,3.811a2.3,2.3,0,0,1-.839,2.636,15.094,15.094,0,0,1-2.168,1.351c-1.13.495-27.869-.342-27.869-.342Z" transform="translate(-5692.57 -4144.537)" fill="url(#linear-gradient-28)"/>
        </g>
        <g id="Grupo_53434" data-name="Grupo 53434" transform="translate(0 29.568)">
          <path id="Trazado_101102" data-name="Trazado 101102" d="M5583.746,4262.157h-.064l-27.961-.03a1.251,1.251,0,1,1,0-2.5l27.962.03a1.252,1.252,0,0,1,.062,2.5Z" transform="translate(-5528.722 -4236.77)" fill="url(#linear-gradient-29)"/>
          <path id="Trazado_101103" data-name="Trazado 101103" d="M5219.6,3960.72h23.286a4.439,4.439,0,0,1,4.015,2.545l10.765,22.828h-28.939a2.7,2.7,0,0,1-2.509-1.706l-8.348-21.124A1.86,1.86,0,0,1,5219.6,3960.72Z" transform="translate(-5217.739 -3960.72)" fill="url(#linear-gradient-30)"/>
          <path id="Trazado_101104" data-name="Trazado 101104" d="M5411.736,4085.621c.5,1.568.132,3.09-.833,3.4s-2.155-.709-2.66-2.277-.132-3.091.832-3.4S5411.232,4084.053,5411.736,4085.621Z" transform="translate(-5393.47 -4073.917)" fill="#8f7df4"/>
        </g>
      </g>
      <g id="Grupo_53436" data-name="Grupo 53436" transform="translate(37.445 56.869)">
        <path id="Trazado_101105" data-name="Trazado 101105" d="M4512.224,4367.961a.843.843,0,0,1-.358-.081,1.025,1.025,0,0,1-.474-1.3l19-48.21a.879.879,0,0,1,1.19-.518,1.025,1.025,0,0,1,.475,1.3l-19,48.21A.908.908,0,0,1,4512.224,4367.961Z" transform="translate(-4511.317 -4317.773)" fill="url(#linear-gradient-31)"/>
        <path id="Trazado_101106" data-name="Trazado 101106" d="M4562.657,4367.958a.907.907,0,0,1-.833-.6l-19-48.21a1.024,1.024,0,0,1,.474-1.3.879.879,0,0,1,1.19.517l19,48.21a1.026,1.026,0,0,1-.474,1.3A.842.842,0,0,1,4562.657,4367.958Z" transform="translate(-4540.347 -4317.771)" fill="url(#linear-gradient-32)"/>
        <path id="Trazado_101107" data-name="Trazado 101107" d="M6198.647,4367.961a.836.836,0,0,1-.357-.081,1.024,1.024,0,0,1-.475-1.3l19-48.21a.879.879,0,0,1,1.19-.518,1.025,1.025,0,0,1,.475,1.3l-19,48.21A.908.908,0,0,1,6198.647,4367.961Z" transform="translate(-6068.792 -4317.773)" fill="url(#linear-gradient-33)"/>
        <path id="Trazado_101108" data-name="Trazado 101108" d="M6249.079,4367.958a.907.907,0,0,1-.833-.6l-19-48.21a1.025,1.025,0,0,1,.475-1.3.879.879,0,0,1,1.19.517l19,48.21a1.025,1.025,0,0,1-.474,1.3A.842.842,0,0,1,6249.079,4367.958Z" transform="translate(-6097.819 -4317.771)" fill="url(#linear-gradient-34)"/>
      </g>
      <g id="Grupo_53437" data-name="Grupo 53437" transform="translate(163.705 50.58)">
        <path id="Trazado_101109" data-name="Trazado 101109" d="M6173.532,4246.763h27.519v-2.84h-27.519C6174.121,4243.923,6174.121,4246.763,6173.532,4246.763Z" transform="translate(-6172.693 -4243.281)" fill="#9991fa"/>
        <path id="Trazado_101110" data-name="Trazado 101110" d="M6190.657,4239.007a.259.259,0,0,0,.258-.258v-2.323a.259.259,0,0,0-.258-.258h-27.842a.259.259,0,0,1-.258-.258v-.125a.259.259,0,0,1,.258-.258h29.675a1.189,1.189,0,0,1,1.189,1.188v1.815a1.121,1.121,0,0,1-1.121,1.121h-29.744a.259.259,0,0,1-.258-.259v-.125a.259.259,0,0,1,.258-.259Z" transform="translate(-6162.557 -4235.525)" fill="url(#linear-gradient-35)"/>
      </g>
      <path id="Trazado_101111" data-name="Trazado 101111" d="M4552,4290.553a.836.836,0,0,0-.344-.894,2.04,2.04,0,0,0-1.257-.393H4385.51a2.231,2.231,0,0,0-1.581.574.9.9,0,0,0-.123,1.193l1.787,2.565a2.788,2.788,0,0,0,2.271.964h161.406a1.86,1.86,0,0,0,1.86-1.018Z" transform="translate(-4355.951 -4234.577)" fill="url(#linear-gradient-36)"/>
    </g>
    <g id="Grupo_53440" data-name="Grupo 53440" transform="translate(4124.92 2249.028)">
      <g id="Grupo_53439" data-name="Grupo 53439" transform="translate(0 0)">
        <path id="Trazado_101112" data-name="Trazado 101112" d="M5431.872,2505.555a19.118,19.118,0,0,1,.817-15.008c4.219-7.86,14.328-10.409,14.328-19.693a7.494,7.494,0,0,0-2.316-5.612c-3.759-3.48-10.34-2.312-15.117-.463a28.945,28.945,0,0,0-8.663,5.365v-16.4a37.868,37.868,0,0,1,19.4-5.011c13.759,0,23.916,5.958,23.916,19.721,0,12.552-8.865,17.416-15.01,23.208-3.411,3.215-4.33,5.826-4.33,8.934a9.85,9.85,0,0,0,1.308,4.958Zm8.067,23.057c-13.374,0-13.51-17.978,0-17.978C5453.247,2510.634,5453.263,2528.612,5439.939,2528.612Z" transform="translate(-5420.921 -2448.735)" fill="#a737d5"/>
      </g>
    </g>
    <g id="Grupo_53442" data-name="Grupo 53442" transform="translate(4055.164 2299.216)">
      <g id="Grupo_53441" data-name="Grupo 53441" transform="translate(0 0)">
        <path id="Trazado_101113" data-name="Trazado 101113" d="M4514.307,3134.542a9.91,9.91,0,0,1,.424-7.779c2.187-4.074,7.427-5.4,7.427-10.208a3.886,3.886,0,0,0-1.2-2.909c-1.949-1.8-5.36-1.2-7.836-.24a15,15,0,0,0-4.49,2.781v-8.5a19.627,19.627,0,0,1,10.053-2.6c7.132,0,12.4,3.088,12.4,10.222,0,6.506-4.6,9.027-7.78,12.029a5.854,5.854,0,0,0-2.244,4.63,5.109,5.109,0,0,0,.678,2.57Zm4.182,11.951c-6.932,0-7-9.319,0-9.319C4525.386,3137.175,4525.394,3146.493,4518.488,3146.493Z" transform="translate(-4508.631 -3105.091)" fill="#a737d5"/>
      </g>
    </g>
  </g>
</svg>
