<svg xmlns="http://www.w3.org/2000/svg" xmlns:xlink="http://www.w3.org/1999/xlink" width="232.107" height="222.508" viewBox="0 0 232.107 222.508">
  <defs>
    <linearGradient id="linear-gradient" x1="-3.276" y1="-7.408" x2="-2.983" y2="-4.109" gradientUnits="objectBoundingBox">
      <stop offset="0" stop-color="#ffc444"/>
      <stop offset="0.996" stop-color="#f36f56"/>
    </linearGradient>
    <clipPath id="clip-path">
      <path id="Trazado_101243" data-name="Trazado 101243" d="M-2574.7,7261.89c4.646,8.705,9.733,17.373,14.459,26.114-3.565,4.358-7.865,9.4-13.7,5.506-8.108-5.411-22.323,4.021-27.916,9.554-6.922,6.848-23.259,20.259-29.989,7.622-5.6-10.52-4.884-19.223-18.838-15.056s-24.542.992-29.027-11.562c-4.72-13.21-25.525-16.146-22.887-30.453,4.6-24.929,41.928-11.038,55.365,3.84s17.907,4,29.665-2.538c16.052-8.923,17.358,13.095,27.47,13.862C-2582.173,7269.382-2580.21,7265.73-2574.7,7261.89Z" transform="translate(2702.83 -7239.912)" fill="none"/>
    </clipPath>
    <clipPath id="clip-path-2">
      <path id="Trazado_101252" data-name="Trazado 101252" d="M-2053.932,7126.832q10.773-6.8,21.282-14.122c.175.058-4.709-17.757-16.524-23-23.206-10.014-19.39-29.924-20.376-40.282-.816-14.862-10.143-29.23-22.872-20.122-12.547,8.545-27.076-18.643-34.317-41.34-2.66-11.43-18.271-19.809-29.489-18.333-11.565,1.252-18.736,12.36-12.523,34.739,6.091,26.4,30.342,33.2,42.319,42.48,11.773,9.1,1.022,25.457,17.832,30.7,14.363,4.91,30.2,5.994,30.754,19.914C-2077.482,7111.306-2072.085,7120.363-2053.932,7126.832Z" transform="translate(2171.042 -6969.465)" fill="none"/>
    </clipPath>
    <linearGradient id="linear-gradient-2" x1="-0.093" y1="-0.943" x2="-0.529" y2="0.147" gradientUnits="objectBoundingBox">
      <stop offset="0" stop-color="#aa80f9"/>
      <stop offset="0.996" stop-color="#6165d7"/>
    </linearGradient>
    <linearGradient id="linear-gradient-3" x1="0.104" y1="0.52" x2="0.271" y2="0.496" gradientUnits="objectBoundingBox">
      <stop offset="0.004" stop-color="#26264f"/>
      <stop offset="1" stop-color="#444b8c"/>
    </linearGradient>
    <linearGradient id="linear-gradient-4" x1="0.224" y1="1.168" x2="0.333" y2="0.92" gradientUnits="objectBoundingBox">
      <stop offset="0" stop-color="#444b8c"/>
      <stop offset="0.996" stop-color="#26264f"/>
    </linearGradient>
    <linearGradient id="linear-gradient-5" x1="0.544" y1="1.144" x2="0.375" y2="-0.313" xlink:href="#linear-gradient-4"/>
    <linearGradient id="linear-gradient-6" x1="0.69" y1="0.085" x2="0.96" y2="-0.45" xlink:href="#linear-gradient-4"/>
    <linearGradient id="linear-gradient-7" x1="0.574" y1="0.133" x2="0.226" y2="1.688" xlink:href="#linear-gradient-4"/>
    <linearGradient id="linear-gradient-8" x1="0.596" y1="0.113" x2="0.23" y2="1.443" gradientUnits="objectBoundingBox">
      <stop offset="0.004" stop-color="#e38ddd"/>
      <stop offset="1" stop-color="#9571f6"/>
    </linearGradient>
    <linearGradient id="linear-gradient-9" x1="0.499" y1="0.59" x2="0.478" y2="3.084" gradientUnits="objectBoundingBox">
      <stop offset="0" stop-color="#ff9085"/>
      <stop offset="1" stop-color="#fb6fbb"/>
    </linearGradient>
    <linearGradient id="linear-gradient-10" x1="0.783" y1="0.513" x2="1.84" y2="0.513" xlink:href="#linear-gradient-4"/>
    <linearGradient id="linear-gradient-11" x1="1.204" y1="0.66" x2="1.349" y2="0.427" xlink:href="#linear-gradient-4"/>
    <linearGradient id="linear-gradient-12" x1="0.242" y1="1.669" x2="0.903" y2="-1.221" xlink:href="#linear-gradient-9"/>
    <linearGradient id="linear-gradient-13" x1="28.137" y1="-0.692" x2="-2.69" y2="80.748" xlink:href="#linear-gradient"/>
    <linearGradient id="linear-gradient-14" x1="-4.783" y1="0.412" x2="-3.779" y2="2.133" xlink:href="#linear-gradient-8"/>
    <linearGradient id="linear-gradient-15" x1="-8.374" y1="-0.165" x2="-6.545" y2="1.869" xlink:href="#linear-gradient-8"/>
    <linearGradient id="linear-gradient-16" x1="-3.028" y1="-0.246" x2="-2.53" y2="1.64" xlink:href="#linear-gradient-8"/>
    <linearGradient id="linear-gradient-17" x1="-3.091" y1="-0.246" x2="-2.749" y2="2.138" xlink:href="#linear-gradient-8"/>
    <linearGradient id="linear-gradient-18" x1="-22.216" y1="-8.871" x2="-27.178" y2="-3.544" gradientUnits="objectBoundingBox">
      <stop offset="0" stop-color="#d5376e"/>
      <stop offset="1" stop-color="#ef7549"/>
    </linearGradient>
  </defs>
  <g id="Grupo_53588" data-name="Grupo 53588" transform="translate(2702.838 -6969.465)">
    <g id="Grupo_53574" data-name="Grupo 53574" transform="translate(-2702.838 6969.465)">
      <g id="Grupo_53546" data-name="Grupo 53546">
        <path id="Trazado_101236" data-name="Trazado 101236" d="M-2169.869,7031.848s-69.583,3.023-73.53,64.22-22.207,119.421,22.207,122.9,148.541,10.226,163.346-26.232S-2035.639,7019.009-2169.869,7031.848Z" transform="translate(2282.205 -7026.686)" fill="#f4f7fa"/>
        <g id="Grupo_53520" data-name="Grupo 53520" transform="translate(0 18.977)">
          <g id="Grupo_53519" data-name="Grupo 53519">
            <path id="Trazado_101237" data-name="Trazado 101237" d="M-2570.458,7293.208a11.833,11.833,0,0,0,1.568-5.356c-.871-6.263-1.739-18.095-6.817-22.439-.868-.742-5.162,2.192-6.411,1.98-3.192,1.207-4.225,1.824-7.823,1.479-10.623-1.015-11.426-22.8-27.615-13.942-11.859,6.49-16.216,17.422-29.679,2.53s-50.767-28.766-55.373-3.842c-2.643,14.3,18.17,17.242,22.887,30.454,4.482,12.555,15.072,15.727,29.028,11.561s13.224,4.534,18.839,15.058c6.745,12.641,23.024-.784,30.011-7.623C-2596.216,7297.562-2578.174,7287.334-2570.458,7293.208Z" transform="translate(2702.839 -7239.915)" fill="url(#linear-gradient)"/>
            <g id="Grupo_53518" data-name="Grupo 53518" transform="translate(0.001)">
              <g id="Grupo_53517" data-name="Grupo 53517" clip-path="url(#clip-path)">
                <g id="Grupo_53516" data-name="Grupo 53516" transform="translate(-0.445 -5.205)">
                  <path id="Trazado_101238" data-name="Trazado 101238" d="M-2577.9,7348.959l-.1-.287c-44.155,16.158-93.112,4.368-130.96-31.539l-.21.223c17.937,17.017,39.194,29.051,61.472,34.8A117.066,117.066,0,0,0-2577.9,7348.959Z" transform="translate(2709.177 -7306.511)" fill="#fcfdfe"/>
                  <path id="Trazado_101239" data-name="Trazado 101239" d="M-1663.471,7887.372c5.588-11.583,19.687-26.381,31.427-32.986l-.15-.267c-11.787,6.633-25.941,21.489-31.552,33.121Z" transform="translate(1737.102 -7805.816)" fill="#fcfdfe"/>
                  <path id="Trazado_101240" data-name="Trazado 101240" d="M-1426.472,7433.8l-.021-.3c-6.985.49-13.95-2.57-20.7-9.1-4.95-4.785-9.671-11.288-14.033-19.327l-.268.146c4.377,8.066,9.117,14.593,14.089,19.4C-1440.591,7431.2-1433.548,7434.292-1426.472,7433.8Z" transform="translate(1549.044 -7388.274)" fill="#fcfdfe"/>
                  <path id="Trazado_101241" data-name="Trazado 101241" d="M-2297.071,7798.866l-.006-.3c-13.215.247-24.5,8.359-31.639,15.122l.21.222C-2321.405,7807.179-2310.188,7799.111-2297.071,7798.866Z" transform="translate(2355.412 -7754.157)" fill="#fcfdfe"/>
                  <path id="Trazado_101242" data-name="Trazado 101242" d="M-2490.241,7198.962l.2-.234c-11.444-9.526-14.944-24.758-16.011-32.99l-.3.04C-2505.287,7174.054-2501.766,7189.371-2490.241,7198.962Z" transform="translate(2520.591 -7165.738)" fill="#fcfdfe"/>
                </g>
              </g>
            </g>
          </g>
        </g>
        <g id="Grupo_53524" data-name="Grupo 53524" transform="translate(37.315)">
          <g id="Grupo_53523" data-name="Grupo 53523">
            <g id="Grupo_53522" data-name="Grupo 53522" clip-path="url(#clip-path-2)">
              <path id="Trazado_101244" data-name="Trazado 101244" d="M-2053.932,7126.832q10.773-6.8,21.282-14.122c.175.058-4.709-17.757-16.524-23-23.206-10.014-19.39-29.924-20.376-40.282-.86-14.831-9.474-27.485-22.5-21.953-14.577,5.855-27.708-16.746-34.685-39.509-2.66-11.43-18.271-19.809-29.489-18.333-11.565,1.252-18.736,12.36-12.523,34.739,6.091,26.4,30.342,33.2,42.319,42.48,11.773,9.1,1.022,25.457,17.832,30.7,14.363,4.91,30.2,5.994,30.754,19.914C-2077.482,7111.306-2072.085,7120.363-2053.932,7126.832Z" transform="translate(2171.042 -6969.465)" fill="url(#linear-gradient-2)"/>
              <g id="Grupo_53521" data-name="Grupo 53521" transform="translate(-2.081 -6.965)">
                <path id="Trazado_101245" data-name="Trazado 101245" d="M-1848.223,7030.793c-.063-.148-22.98-32.038-50.811-60.634-4.2-4.76-8.575-9.5-12.806-14.089-23.561-25.541-45.816-49.667-49.4-85.872l-.5.05c3.6,36.375,25.915,60.56,49.535,86.165,4.229,4.585,8.6,9.325,12.807,14.09a591.822,591.822,0,0,1,50.724,60.506Z" transform="translate(1978.513 -6870.199)" fill="#beb8f2"/>
                <path id="Trazado_101246" data-name="Trazado 101246" d="M-2155.7,7441.512l.206-.462c-12.779-5.718-29.106-14.661-37.877-19.464-7.1-3.887-7.118-3.877-7.337-3.735l.137.213-.02.249c.327.075,3.261,1.683,6.976,3.717C-2184.833,7426.837-2168.5,7435.785-2155.7,7441.512Z" transform="translate(2200.704 -7379.383)" fill="#beb8f2"/>
                <path id="Trazado_101247" data-name="Trazado 101247" d="M-1708.2,7096.588c-3.047-11.633-1.756-20.757-.136-26.363,1.765-6.106,4.38-9.713,4.78-9.984l-.11-.162.055-.314c-.149-.026-.266.065-.43.244-2.345,2.549-10.006,16.251-4.648,36.708Z" transform="translate(1744.945 -7046.46)" fill="#beb8f2"/>
                <path id="Trazado_101248" data-name="Trazado 101248" d="M-925.9,7786.568l.435-.257c-12.207-20.563-6.441-47.353-3.4-57.916a8.292,8.292,0,0,0,.226-.84l-.5-.054.252.027-.251-.029c-.009.063-.1.384-.209.756a103.692,103.692,0,0,0-3.963,22.517C-934.139,7764.839-931.646,7776.884-925.9,7786.568Z" transform="translate(1022.383 -7667.344)" fill="#beb8f2"/>
                <path id="Trazado_101249" data-name="Trazado 101249" d="M-1450.813,8353.774l-.117-.22.023.249-.259-.157.076-.292h0c.3-.177,20.142-7.687,35.926,3.095l-.285.419C-1431.072,8346.193-1450.631,8353.688-1450.813,8353.774Zm-.117-.223-.023-.251Z" transform="translate(1503.76 -8246.765)" fill="#beb8f2"/>
                <path id="Trazado_101250" data-name="Trazado 101250" d="M-435.965,8714.327c-2.115-4.332-3.867-12.543-.21-27.05.208-.823.208-.823.137-.936l-.428.27.214-.135-.251,0c-.007.06-.079.349-.163.682-3.695,14.654-1.906,22.986.245,27.4Z" transform="translate(562.428 -8558.906)" fill="#beb8f2"/>
                <path id="Trazado_101251" data-name="Trazado 101251" d="M-841.684,8876.49l.387-.325c-5.761-6.85-19.274-7.736-26.816-7.655-.239,0-.393,0-.45,0l-.029.5c.061,0,.227,0,.484,0C-860.655,8868.936-847.311,8869.8-841.684,8876.49Z" transform="translate(962.064 -8728.287)" fill="#beb8f2"/>
              </g>
            </g>
          </g>
        </g>
        <g id="Grupo_53537" data-name="Grupo 53537" transform="translate(33.541 32.499)">
          <path id="Trazado_101253" data-name="Trazado 101253" d="M-2217.785,7573.058c-3.875.227-7.042-2.482-7.042-6.039v-128.2c0-3.557,3.168-6.337,7.042-6.2l182.912,6.637a5.739,5.739,0,0,1,5.365,5.8v111.393a5.9,5.9,0,0,1-5.365,5.919Z" transform="translate(2224.827 -7432.618)" fill="url(#linear-gradient-3)"/>
          <path id="Trazado_101254" data-name="Trazado 101254" d="M-1100.206,9253.136a8.924,8.924,0,0,1-5.725-6.819l-4.255-22.1-36.4,1.356-4.48,23.02c-.627,3.225,1.884,6.457,4.777,7.646l15.229,6.249a18.914,18.914,0,0,0,8.9,1.355l32.184-2.888a2.047,2.047,0,0,0,1.8-1.856c.11-1,.769-2.113-.128-2.425Z" transform="translate(1226.5 -9098.508)" fill="url(#linear-gradient-4)"/>
          <path id="Trazado_101255" data-name="Trazado 101255" d="M-1083.583,9238.8a8.845,8.845,0,0,1-5.719-6.733l-4.251-21.817-35.512,1.34-4.475,22.729a6.718,6.718,0,0,0,3.921,7.549l15.214,6.173a19.137,19.137,0,0,0,8.894,1.336l32.152-2.852a2.032,2.032,0,0,0,1.8-1.833,2.088,2.088,0,0,0-1.353-2.219Z" transform="translate(1210.237 -9085.516)" fill="url(#linear-gradient-5)"/>
          <g id="Grupo_53536" data-name="Grupo 53536" transform="translate(1.448)">
            <g id="Grupo_53525" data-name="Grupo 53525">
              <path id="Trazado_101256" data-name="Trazado 101256" d="M-2197.146,7573.058c-3.875.227-7.043-2.482-7.043-6.039v-128.2c0-3.557,3.168-6.337,7.043-6.2l182.912,6.637a5.739,5.739,0,0,1,5.365,5.8v111.393a5.9,5.9,0,0,1-5.365,5.919Z" transform="translate(2204.188 -7432.618)" fill="url(#linear-gradient-6)"/>
              <path id="Trazado_101257" data-name="Trazado 101257" d="M-1970.679,7481.519l-182.912-6.268a3.465,3.465,0,0,0-3.756,3.312V7606.48a3.376,3.376,0,0,0,3.756,3.229l182.912-10.318a3.146,3.146,0,0,0,2.873-3.163V7484.62A3.063,3.063,0,0,0-1970.679,7481.519Z" transform="translate(2160.633 -7472.257)" fill="url(#linear-gradient-7)"/>
              <path id="Trazado_101258" data-name="Trazado 101258" d="M-2123.216,7626.555a1.328,1.328,0,0,1-1.464-1.27v-118.9a1.354,1.354,0,0,1,1.464-1.293l182.911,6.011a1.2,1.2,0,0,1,1.123,1.209v104.045a1.222,1.222,0,0,1-1.123,1.229Z" transform="translate(2130.259 -7500.002)" fill="#fff"/>
            </g>
            <g id="Grupo_53535" data-name="Grupo 53535" transform="translate(15.066 11.412)">
              <path id="Trazado_101259" data-name="Trazado 101259" d="M-1820.815,7846.667l-168.659,7.407v-95.717l168.659,3.54Z" transform="translate(1989.474 -7746.913)" fill="url(#linear-gradient-8)"/>
              <path id="Trazado_101260" data-name="Trazado 101260" d="M-1820.815,7607.345l-168.659-3.915v-8.174l168.659,4.85Z" transform="translate(1989.474 -7595.256)" fill="url(#linear-gradient-9)"/>
              <g id="Grupo_53526" data-name="Grupo 53526" transform="translate(154.029 7.175)">
                <path id="Trazado_101261" data-name="Trazado 101261" d="M207.484,7698.477a.9.9,0,0,1-.91.914.954.954,0,0,1-.911-.96.9.9,0,0,1,.911-.914A.954.954,0,0,1,207.484,7698.477Z" transform="translate(-205.664 -7697.516)" fill="#fff"/>
                <path id="Trazado_101262" data-name="Trazado 101262" d="M260.818,7699.9a.891.891,0,0,1-.9.911.95.95,0,0,1-.906-.957.892.892,0,0,1,.906-.911A.949.949,0,0,1,260.818,7699.9Z" transform="translate(-255.265 -7698.839)" fill="#fff"/>
                <path id="Trazado_101263" data-name="Trazado 101263" d="M313.85,7701.308a.887.887,0,0,1-.9.907.945.945,0,0,1-.9-.955.888.888,0,0,1,.9-.908A.946.946,0,0,1,313.85,7701.308Z" transform="translate(-304.585 -7700.154)" fill="#fff"/>
              </g>
              <g id="Grupo_53527" data-name="Grupo 53527" transform="translate(3.679 13.931)" opacity="0.68">
                <path id="Trazado_101264" data-name="Trazado 101264" d="M-1806.2,7864.34l-130.845,4.108v-74.656l130.845,2.532Z" transform="translate(1937.047 -7793.792)" fill="#fff"/>
              </g>
              <g id="Grupo_53529" data-name="Grupo 53529" transform="translate(136.812 16.507)">
                <g id="Grupo_53528" data-name="Grupo 53528" transform="translate(0)">
                  <path id="Trazado_101265" data-name="Trazado 101265" d="M-9.657,7850.238-39.7,7850.1V7830.51l30.046.581Z" transform="translate(39.702 -7830.51)" fill="#fff" opacity="0.68"/>
                </g>
                <path id="Trazado_101266" data-name="Trazado 101266" d="M-9.657,8141.417l-30.046-.062v-1.467l30.046.094Z" transform="translate(39.702 -8118.18)" fill="#fff"/>
                <path id="Trazado_101267" data-name="Trazado 101267" d="M-20.836,8177.461l-18.866,0v-1.468l18.866.024Z" transform="translate(39.702 -8151.75)" fill="#fff"/>
              </g>
              <g id="Grupo_53531" data-name="Grupo 53531" transform="translate(136.812 45.177)">
                <g id="Grupo_53530" data-name="Grupo 53530" transform="translate(0)">
                  <path id="Trazado_101268" data-name="Trazado 101268" d="M-9.657,8258.241l-30.046.5v-19.588l30.046-.063Z" transform="translate(39.702 -8239.095)" fill="#fff" opacity="0.68"/>
                </g>
                <path id="Trazado_101269" data-name="Trazado 101269" d="M-9.657,8542.96l-30.046.584v-1.467l30.046-.552Z" transform="translate(39.702 -8520.305)" fill="#fff"/>
                <path id="Trazado_101270" data-name="Trazado 101270" d="M-20.836,8581.491l-18.866.4v-1.466l18.866-.384Z" transform="translate(39.702 -8556.12)" fill="#fff"/>
              </g>
              <g id="Grupo_53533" data-name="Grupo 53533" transform="translate(136.812 73.265)">
                <g id="Grupo_53532" data-name="Grupo 53532" transform="translate(0)">
                  <path id="Trazado_101271" data-name="Trazado 101271" d="M-9.657,8658.542l-30.046,1.15V8640.1l30.046-.709Z" transform="translate(39.702 -8639.396)" fill="#fff" opacity="0.68"/>
                </g>
                <path id="Trazado_101272" data-name="Trazado 101272" d="M-9.657,8943.26l-30.046,1.229v-1.467l30.046-1.2Z" transform="translate(39.702 -8920.605)" fill="#fff"/>
                <path id="Trazado_101273" data-name="Trazado 101273" d="M-20.836,8985.212l-18.866.809v-1.467l18.866-.788Z" transform="translate(39.702 -8959.602)" fill="#fff"/>
              </g>
              <g id="Grupo_53534" data-name="Grupo 53534" transform="translate(3.679 87.67)">
                <path id="Trazado_101274" data-name="Trazado 101274" d="M-1846.5,8868.691l-90.549,3.361v-4.907l90.549-3.059Z" transform="translate(1937.047 -8862.727)" fill="#fff"/>
                <path id="Trazado_101275" data-name="Trazado 101275" d="M-243.51,8849.158l-12.919.48v-4.516l12.919-.436Z" transform="translate(374.356 -8844.688)" fill="#fff"/>
                <path id="Trazado_101276" data-name="Trazado 101276" d="M-459.917,8856.389l-13.21.49v-4.566l13.21-.445Z" transform="translate(575.847 -8851.363)" fill="#fff"/>
                <path id="Trazado_101277" data-name="Trazado 101277" d="M-1895.621,9006.256l-41.426,1.7v-2.454l41.426-1.635Z" transform="translate(1937.047 -8992.702)" fill="#fff"/>
              </g>
            </g>
          </g>
        </g>
        <g id="Grupo_53545" data-name="Grupo 53545" transform="translate(179.966 119.954)">
          <g id="Grupo_53541" data-name="Grupo 53541">
            <g id="Grupo_53540" data-name="Grupo 53540">
              <g id="Grupo_53539" data-name="Grupo 53539">
                <path id="Trazado_101278" data-name="Trazado 101278" d="M-101.626,8683.247l5.93,66.545a1.8,1.8,0,0,1-1.557,1.99l-32.085,3.306c-1.92.1-2.935-.94-3.022-1.987l-5.692-69.089c-.084-1.02.869-1.981,2.766-2.051l31.791-.469A1.914,1.914,0,0,1-101.626,8683.247Z" transform="translate(138.056 -8681.316)" fill="url(#linear-gradient-10)"/>
                <path id="Trazado_101279" data-name="Trazado 101279" d="M-83.609,8680.757l5.984,66.94a1.807,1.807,0,0,1-1.565,2l-33.292,3.072a1.877,1.877,0,0,1-2.016-1.742l-5.742-69.507a1.724,1.724,0,0,1,1.69-1.9l33.062-.634A1.927,1.927,0,0,1-83.609,8680.757Z" transform="translate(121.496 -8678.99)" fill="url(#linear-gradient-11)"/>
                <path id="Trazado_101280" data-name="Trazado 101280" d="M-64.975,8735l5.534,62.048a1.687,1.687,0,0,1-1.463,1.867l-31.3,2.843a1.754,1.754,0,0,1-1.876-1.628l-5.324-64.279a1.618,1.618,0,0,1,1.572-1.78l31.1-.714A1.789,1.789,0,0,1-64.975,8735Z" transform="translate(102.122 -8729.542)" fill="#fff"/>
                <g id="Grupo_53538" data-name="Grupo 53538" transform="translate(2.712 3.815)">
                  <path id="Trazado_101281" data-name="Trazado 101281" d="M-64.975,8735a1.789,1.789,0,0,0-1.757-1.644l-31.1.714a1.618,1.618,0,0,0-1.572,1.78l.762,9.2,34.49-.833Z" transform="translate(99.41 -8733.356)" fill="url(#linear-gradient-12)"/>
                </g>
              </g>
              <path id="Trazado_101282" data-name="Trazado 101282" d="M138.376,8704a.578.578,0,0,1-.56.645.674.674,0,0,1-.669-.619.579.579,0,0,1,.56-.646A.676.676,0,0,1,138.376,8704Z" transform="translate(-117.835 -8701.668)" fill="url(#linear-gradient-13)"/>
            </g>
          </g>
          <g id="Grupo_53543" data-name="Grupo 53543" transform="translate(7.133 18.235)">
            <g id="Grupo_53542" data-name="Grupo 53542" transform="translate(0)">
              <path id="Trazado_101283" data-name="Trazado 101283" d="M-18.688,8964.707l-15.562.768-2.148-21.993,15.648-.4Z" transform="translate(36.398 -8942.785)" fill="url(#linear-gradient-14)"/>
              <path id="Trazado_101284" data-name="Trazado 101284" d="M232.189,8960.213l-9.142.451L221,8939.1l9.192-.236Z" transform="translate(-202.937 -8938.862)" fill="url(#linear-gradient-15)"/>
              <path id="Trazado_101285" data-name="Trazado 101285" d="M26.638,9297.163l-26.983,1.853L-1.8,9284.154l27.084-1.421Z" transform="translate(4.224 -9258.605)" fill="url(#linear-gradient-16)"/>
              <path id="Trazado_101286" data-name="Trazado 101286" d="M50.073,9530.725l-26.92,2.121-.65-6.658,26.965-1.928Z" transform="translate(-18.37 -9483.184)" fill="url(#linear-gradient-17)"/>
            </g>
          </g>
          <g id="Grupo_53544" data-name="Grupo 53544" transform="translate(1.25 0.549)" opacity="0.48" style="mix-blend-mode: soft-light;isolation: isolate">
            <path id="Trazado_101287" data-name="Trazado 101287" d="M-91.608,8733.987c-3.227-11.276-12.638-10.147-15.452-20.338-2.311-8.369,3.018-12.78-.215-19.786a15.716,15.716,0,0,0-6.946-7.046l-4.329.082a1.728,1.728,0,0,0-1.69,1.9l5.742,69.507a1.879,1.879,0,0,0,2.016,1.743l27.3-2.52a28.572,28.572,0,0,1-4.551-8.179C-92.169,8742.463-89.823,8740.223-91.608,8733.987Z" transform="translate(120.246 -8686.817)" fill="#fff"/>
          </g>
        </g>
      </g>
      <g id="Grupo_53573" data-name="Grupo 53573" transform="translate(65.762 78.698)">
        <g id="Grupo_53572" data-name="Grupo 53572">
          <g id="Grupo_53547" data-name="Grupo 53547" transform="translate(0 1.854)">
            <path id="Trazado_101288" data-name="Trazado 101288" d="M-1759.766,8117.528l1.23.015.111.439-1.378,4.737-1.63-.021-.57-2.41-.682,2.393-1.63-.021-1.311-5.211,1.586.021.645,2.752.777-2.733,1.423.02.652,2.78Z" transform="translate(1765.627 -8117.449)" fill="#9d34c8"/>
          </g>
          <g id="Grupo_53548" data-name="Grupo 53548" transform="translate(21.315 4.987)">
            <path id="Trazado_101289" data-name="Trazado 101289" d="M-1460.881,8162.1h.031c.556.008.97.5.956,1.229a1.109,1.109,0,0,1-.973,1.221h-.028c-.556-.008-.968-.526-.955-1.247S-1461.422,8162.111-1460.881,8162.1Z" transform="translate(1461.851 -8162.101)" fill="#9d34c8"/>
          </g>
          <g id="Grupo_53549" data-name="Grupo 53549" transform="translate(14.182 2.041)">
            <path id="Trazado_101290" data-name="Trazado 101290" d="M-1563.518,8120.118l.237,0,1.349.019.645,2.752.777-2.733,1.423.018.652,2.781.777-2.762,1.468.02-1.505,5.173-1.63-.021-.57-2.409-.682,2.393-1.63-.021-1.2-4.771Z" transform="translate(1563.518 -8120.118)" fill="#9d34c8"/>
          </g>
          <g id="Grupo_53550" data-name="Grupo 53550" transform="translate(7.091 1.947)">
            <path id="Trazado_101291" data-name="Trazado 101291" d="M-1664.572,8118.783h.056l.181,0,1.349.018.645,2.752.777-2.733,1.423.019.652,2.78.778-2.762,1.467.021-.237,0,.111.438-1.378,4.736-1.63-.021-.57-2.41-.682,2.393-1.63-.021-1.2-4.771Z" transform="translate(1664.572 -8118.783)" fill="#9d34c8"/>
          </g>
          <g id="Grupo_53551" data-name="Grupo 53551" transform="translate(23.525 2.098)">
            <path id="Trazado_101292" data-name="Trazado 101292" d="M-1428.245,8120.934h.109a3.107,3.107,0,0,1,1.645.449l-.486,1.407a1.985,1.985,0,0,0-1.164-.394h-.064c-.378.006-.487.122-.489.239-.01.54,2.33-.132,2.291,1.947a1.807,1.807,0,0,1-2.016,1.728h-.114a3.317,3.317,0,0,1-1.828-.536l.485-1.408a2.429,2.429,0,0,0,1.407.483h.075c.347-.006.446-.1.448-.239.01-.532-2.337.15-2.3-1.929A1.806,1.806,0,0,1-1428.245,8120.934Z" transform="translate(1430.361 -8120.933)" fill="#9d34c8"/>
          </g>
          <g id="Grupo_53552" data-name="Grupo 53552" transform="translate(27.788 2.156)">
            <path id="Trazado_101293" data-name="Trazado 101293" d="M-1367.257,8121.757c1.2.017,2.213.96,2.18,2.716,0,.152-.021.352-.031.5l-2.816-.037a.781.781,0,0,0,.8.618h.051a1.1,1.1,0,0,0,.8-.368l.853,1.141a2,2,0,0,1-1.68.812h-.106a2.45,2.45,0,0,1-2.4-2.728,2.458,2.458,0,0,1,2.274-2.655Zm-.677,2.146,1.3.017c-.059-.437-.3-.7-.639-.7h-.022c-.337.006-.57.257-.644.684" transform="translate(1369.605 -8121.757)" fill="#9d34c8"/>
          </g>
          <g id="Grupo_53553" data-name="Grupo 53553" transform="translate(32.794 2.23)">
            <path id="Trazado_101294" data-name="Trazado 101294" d="M-1295.407,8122.81h.053c.934.013,1.647.715,1.616,2.348l-.055,2.961-1.674-.022.048-2.591c.012-.646-.177-.895-.48-.9h-.02c-.332.006-.615.282-.629,1.036l-.046,2.438-1.674-.021.1-5.191,1.593.021-.01.513A1.524,1.524,0,0,1-1295.407,8122.81Z" transform="translate(1298.268 -8122.81)" fill="#9d34c8"/>
          </g>
          <g id="Grupo_53554" data-name="Grupo 53554" transform="translate(37.823 2.285)">
            <path id="Trazado_101295" data-name="Trazado 101295" d="M-1224.507,8123.6c1.393.019,2.179.8,2.146,2.525l-.052,2.791-1.556-.021.013-.683a1.115,1.115,0,0,1-1.1.763h-.059a1.456,1.456,0,0,1-1.474-1.634c.018-.97.58-1.519,1.752-1.541h.13l.674.009c-.044-.4-.278-.611-.752-.617h-.042a1.583,1.583,0,0,0-1,.395l-.507-1.421a3.065,3.065,0,0,1,1.74-.564Zm.452,3.6.007-.36-.415,0h-.038c-.329.006-.476.155-.482.43a.385.385,0,0,0,.393.423h.017c.223,0,.425-.153.518-.487" transform="translate(1226.593 -8123.599)" fill="#9d34c8"/>
          </g>
          <g id="Grupo_53555" data-name="Grupo 53555" transform="translate(42.485 2.348)">
            <path id="Trazado_101296" data-name="Trazado 101296" d="M-1158.033,8124.5h.109a3.1,3.1,0,0,1,1.645.448l-.485,1.408a1.99,1.99,0,0,0-1.164-.4H-1158c-.376.007-.484.123-.486.239-.01.541,2.33-.13,2.291,1.948a1.807,1.807,0,0,1-2.016,1.728h-.114a3.328,3.328,0,0,1-1.828-.536l.486-1.409a2.438,2.438,0,0,0,1.407.485h.075c.347-.006.445-.1.448-.239.01-.531-2.337.149-2.3-1.93A1.806,1.806,0,0,1-1158.033,8124.5Z" transform="translate(1160.149 -8124.498)" fill="#9d34c8"/>
          </g>
          <g id="Grupo_53556" data-name="Grupo 53556" transform="translate(46.749 2.407)">
            <path id="Trazado_101297" data-name="Trazado 101297" d="M-1096.98,8125.333a2.42,2.42,0,0,1,2.306,2.717,2.468,2.468,0,0,1-2.326,2.664h-.081a2.43,2.43,0,0,1-2.306-2.726,2.464,2.464,0,0,1,2.325-2.655Zm.609,2.694c.013-.673-.27-1.019-.64-1.023h-.02c-.362.007-.647.345-.659,1.007s.27,1.028.641,1.034h.019c.362-.008.647-.354.66-1.018" transform="translate(1099.387 -8125.333)" fill="#9d34c8"/>
          </g>
          <g id="Grupo_53557" data-name="Grupo 53557" transform="translate(55.643)">
            <path id="Trazado_101298" data-name="Trazado 101298" d="M-971.606,8091.03a.972.972,0,0,1,.988,1.067,1.029,1.029,0,0,1-.992,1.116h-.037a1,1,0,0,1-.987-1.1,1.016,1.016,0,0,1,.991-1.078Z" transform="translate(972.634 -8091.03)" fill="#9d34c8"/>
          </g>
          <g id="Grupo_53558" data-name="Grupo 53558" transform="translate(55.689 2.59)">
            <path id="Trazado_101299" data-name="Trazado 101299" d="M-971.977,8133.129l.1-5.19,1.675.021-.1,5.191Z" transform="translate(971.977 -8127.938)" fill="#9d34c8"/>
          </g>
          <g id="Grupo_53559" data-name="Grupo 53559" transform="translate(51.631 0.621)">
            <path id="Trazado_101300" data-name="Trazado 101300" d="M-1027.2,8101.5c-.229,0-.389.184-.4.593l.882.021-.029,1.564-.83-.01-.062,3.341-1.675-.022.062-3.34-.556-.009.03-1.565.556.007v-.028c.024-1.31.665-2.155,1.776-2.178h.073a1.843,1.843,0,0,1,.988.27l-.428,1.484a.758.758,0,0,0-.376-.128Z" transform="translate(1029.809 -8099.876)" fill="#9d34c8"/>
          </g>
          <g id="Grupo_53560" data-name="Grupo 53560" transform="translate(57.932 2.55)">
            <path id="Trazado_101301" data-name="Trazado 101301" d="M-937.929,8127.377c1.393.019,2.179.8,2.147,2.523l-.052,2.79-1.556-.02.013-.684a1.115,1.115,0,0,1-1.1.764h-.059a1.456,1.456,0,0,1-1.474-1.633c.018-.971.58-1.52,1.75-1.541.043,0,.087,0,.131,0l.675.009c-.045-.4-.278-.611-.752-.617h-.042a1.567,1.567,0,0,0-1,.395l-.507-1.421a3.067,3.067,0,0,1,1.74-.564Zm.452,3.6.007-.359-.415-.006h-.038c-.329.007-.477.156-.482.43a.385.385,0,0,0,.392.423H-938c.223,0,.425-.154.518-.487" transform="translate(940.015 -8127.377)" fill="#9d34c8"/>
          </g>
          <g id="Grupo_53561" data-name="Grupo 53561" transform="translate(62.804 2.624)">
            <path id="Trazado_101302" data-name="Trazado 101302" d="M-867.738,8128.433c1.06.014,1.937,1.051,1.906,2.722-.03,1.642-.916,2.64-1.953,2.659h-.053a1.229,1.229,0,0,1-1.021-.459l-.041,2.192-1.674-.022.131-7.032,1.593.02-.008.428a1.237,1.237,0,0,1,1.052-.507Zm.209,2.7c.013-.675-.27-1.029-.641-1.034h-.019c-.362.007-.647.354-.66,1.017s.27,1.019.641,1.024h.019c.362-.007.647-.345.659-1.007" transform="translate(870.575 -8128.433)" fill="#9d34c8"/>
          </g>
          <g id="Grupo_53562" data-name="Grupo 53562" transform="translate(68.025 0.901)">
            <path id="Trazado_101303" data-name="Trazado 101303" d="M-796.034,8103.877l1.675.022-.131,7.041-1.675-.021Z" transform="translate(796.165 -8103.877)" fill="#9d34c8"/>
          </g>
          <g id="Grupo_53563" data-name="Grupo 53563" transform="translate(70.468 2.784)">
            <path id="Trazado_101304" data-name="Trazado 101304" d="M-761.3,8130.709l1.675.021-.046,2.5c-.014.74.182.989.508.994h.015c.284-.006.561-.28.575-1.037l.046-2.439,1.675.022-.1,5.191-1.593-.021.009-.494a1.425,1.425,0,0,1-1.112.574h-.048c-.97-.013-1.691-.754-1.659-2.443Z" transform="translate(761.355 -8130.709)" fill="#9d34c8"/>
          </g>
          <g id="Grupo_53564" data-name="Grupo 53564" transform="translate(75.368 2.782)">
            <path id="Trazado_101305" data-name="Trazado 101305" d="M-689.4,8130.677h.109a3.1,3.1,0,0,1,1.644.448l-.486,1.409a1.981,1.981,0,0,0-1.164-.4h-.066c-.376.007-.485.122-.487.239-.01.542,2.33-.131,2.291,1.948a1.808,1.808,0,0,1-2.016,1.728h-.114a3.342,3.342,0,0,1-1.828-.537l.486-1.409a2.43,2.43,0,0,0,1.407.484h.075c.347-.006.446-.1.448-.239.01-.531-2.337.149-2.3-1.929A1.806,1.806,0,0,1-689.4,8130.677Z" transform="translate(691.518 -8130.676)" fill="#9d34c8"/>
          </g>
          <g id="Grupo_53565" data-name="Grupo 53565" transform="translate(79.597 5.755)">
            <path id="Trazado_101306" data-name="Trazado 101306" d="M-630.28,8173.049h.03c.556.007.969.5.955,1.228a1.109,1.109,0,0,1-.972,1.222h-.029c-.556-.009-.969-.525-.955-1.247S-630.821,8173.06-630.28,8173.049Z" transform="translate(631.251 -8173.049)" fill="#9d34c8"/>
          </g>
          <g id="Grupo_53566" data-name="Grupo 53566" transform="translate(81.884 2.87)">
            <path id="Trazado_101307" data-name="Trazado 101307" d="M-596.314,8131.926c1.2.017,2.213.96,2.181,2.716,0,.151-.021.351-.032.5l-2.816-.037a.783.783,0,0,0,.8.618h.051a1.092,1.092,0,0,0,.8-.368l.854,1.142a2,2,0,0,1-1.681.811h-.106a2.452,2.452,0,0,1-2.4-2.729,2.458,2.458,0,0,1,2.273-2.654Zm-.677,2.146,1.3.017c-.059-.437-.3-.7-.639-.7h-.023c-.336.006-.569.258-.642.684" transform="translate(598.662 -8131.926)" fill="#9d34c8"/>
          </g>
          <g id="Grupo_53567" data-name="Grupo 53567" transform="translate(86.76 1.187)">
            <path id="Trazado_101308" data-name="Trazado 101308" d="M-526.107,8107.952l1.675.022-.131,7.042-1.593-.021.008-.426a1.243,1.243,0,0,1-1.053.507h-.067c-1.06-.015-1.937-1.052-1.906-2.723.03-1.642.916-2.64,1.953-2.659h.053a1.234,1.234,0,0,1,1.022.46Zm-.053,4.441c.013-.673-.27-1.019-.641-1.023h-.019c-.361.007-.647.345-.659,1.007s.27,1.028.64,1.033h.019c.362-.006.648-.353.66-1.016" transform="translate(529.177 -8107.952)" fill="#9d34c8"/>
          </g>
          <g id="Grupo_53568" data-name="Grupo 53568" transform="translate(92.14 3.069)">
            <path id="Trazado_101309" data-name="Trazado 101309" d="M-452.438,8134.774l1.675.022-.046,2.5c-.014.74.182.99.508,1h.015c.284-.006.561-.281.575-1.037l.046-2.438,1.675.021-.1,5.191-1.593-.021.009-.493a1.424,1.424,0,0,1-1.112.573h-.047c-.971-.013-1.691-.753-1.66-2.442Z" transform="translate(452.492 -8134.774)" fill="#9d34c8"/>
          </g>
          <g id="Grupo_53569" data-name="Grupo 53569" transform="translate(97.084 5.986)">
            <path id="Trazado_101310" data-name="Trazado 101310" d="M-381.075,8176.337h.031c.556.008.969.5.955,1.229a1.108,1.108,0,0,1-.972,1.22h-.03c-.556-.007-.968-.524-.955-1.246S-381.615,8176.348-381.075,8176.337Z" transform="translate(382.045 -8176.337)" fill="#9d34c8"/>
          </g>
          <g id="Grupo_53570" data-name="Grupo 53570" transform="translate(99.37 3.101)">
            <path id="Trazado_101311" data-name="Trazado 101311" d="M-347.1,8135.227h.084a1.974,1.974,0,0,1,1.965,1.564l-1.312.8c-.161-.488-.4-.689-.691-.693h-.021c-.369.007-.675.345-.687,1.007-.013.683.292,1.028.67,1.034h.02c.28-.006.521-.2.7-.675l1.282.834a2,2,0,0,1-1.941,1.511h-.081a2.436,2.436,0,0,1-2.343-2.727A2.471,2.471,0,0,1-347.1,8135.227Z" transform="translate(349.455 -8135.226)" fill="#9d34c8"/>
          </g>
          <g id="Grupo_53571" data-name="Grupo 53571" transform="translate(103.89 3.16)">
            <path id="Trazado_101312" data-name="Trazado 101312" d="M-282.635,8136.067a2.421,2.421,0,0,1,2.306,2.718,2.468,2.468,0,0,1-2.326,2.664h-.081a2.433,2.433,0,0,1-2.306-2.726,2.464,2.464,0,0,1,2.326-2.656Zm.61,2.7c.012-.675-.27-1.02-.64-1.024h-.019c-.362.007-.647.345-.659,1.007s.27,1.028.64,1.034h.019c.362-.008.647-.354.66-1.017" transform="translate(285.042 -8136.067)" fill="#9d34c8"/>
          </g>
        </g>
      </g>
    </g>
    <g id="Grupo_53587" data-name="Grupo 53587" transform="translate(-2664.145 7061.964)">
      <path id="Trazado_101313" data-name="Trazado 101313" d="M-2151.342,8302.517a2.587,2.587,0,0,1,2.363-3.114c10.423-.686,46.167-3.516,74.555-11.587a2.4,2.4,0,0,1,2.976,1.7l27.719,107a2.754,2.754,0,0,1-1.96,3.354c-11.983,3.182-61.369,16.1-79.565,17.854a2.181,2.181,0,0,1-2.344-1.728Z" transform="translate(2151.398 -8287.724)" fill="#ad91fa"/>
      <path id="Trazado_101314" data-name="Trazado 101314" d="M-2126.441,8345.068a2.491,2.491,0,0,1,2.274-3c10.03-.658,44.428-3.382,71.747-11.149a2.3,2.3,0,0,1,2.864,1.636l26.675,102.97a2.652,2.652,0,0,1-1.886,3.228c-11.531,3.062-59.058,15.5-76.569,17.182a2.1,2.1,0,0,1-2.255-1.663Z" transform="translate(2128.242 -8327.809)" fill="#fff" opacity="0.6"/>
      <path id="Trazado_101315" data-name="Trazado 101315" d="M-1974.347,8542.071l5.569,22.106a1.451,1.451,0,0,0,1.652,1.075c4.157-.726,17.1-3.025,24.294-4.883a1.615,1.615,0,0,0,1.189-1.835c-.712-4.214-2.882-16.456-4.87-21.354a1.822,1.822,0,0,0-1.993-1.11l-24.6,4.107A1.537,1.537,0,0,0-1974.347,8542.071Z" transform="translate(1986.814 -8518.622)" fill="#fff" opacity="0.78"/>
      <circle id="Elipse_3978" data-name="Elipse 3978" cx="4.895" cy="4.895" r="4.895" transform="translate(22.928 33.126) rotate(-86.101)" fill="#ad91fa"/>
      <path id="Trazado_101316" data-name="Trazado 101316" d="M-1833.449,8803.986l15.284-3.105a1.206,1.206,0,0,0,.623-2.024,10.066,10.066,0,0,0-9.71-3.111,10.87,10.87,0,0,0-7.605,6.5A1.262,1.262,0,0,0-1833.449,8803.986Z" transform="translate(1857.167 -8759.846)" fill="#ad91fa"/>
      <g id="Grupo_53575" data-name="Grupo 53575" transform="translate(46.215 11.459)" opacity="0.6">
        <path id="Trazado_101317" data-name="Trazado 101317" d="M-1465,8452.55a.805.805,0,0,0,.7-.92.883.883,0,0,0-1.047-.583l-26.885,4.963a.577.577,0,0,0-.418.924l.2.339a1.345,1.345,0,0,0,1.326.584Z" transform="translate(1492.765 -8451.029)" fill="#fff"/>
      </g>
      <g id="Grupo_53576" data-name="Grupo 53576" transform="translate(47.06 15.619)" opacity="0.6">
        <path id="Trazado_101318" data-name="Trazado 101318" d="M-1480.194,8515.3a.576.576,0,0,0-.417.922l.2.338a1.346,1.346,0,0,0,1.326.585l26.126-5.307a.806.806,0,0,0,.7-.92.885.885,0,0,0-1.047-.584Z" transform="translate(1480.722 -8510.32)" fill="#fff"/>
      </g>
      <g id="Grupo_53577" data-name="Grupo 53577" transform="translate(47.917 19.84)" opacity="0.6">
        <path id="Trazado_101319" data-name="Trazado 101319" d="M-1467.976,8575.454a.578.578,0,0,0-.417.925l.2.338a1.347,1.347,0,0,0,1.326.584l26.125-5.307a.806.806,0,0,0,.7-.92.884.884,0,0,0-1.047-.583Z" transform="translate(1468.505 -8570.474)" fill="#fff"/>
      </g>
      <g id="Grupo_53578" data-name="Grupo 53578" transform="translate(18.731 39.684)" opacity="0.6">
        <path id="Trazado_101320" data-name="Trazado 101320" d="M-1820.763,8854.788a.773.773,0,0,0,.669-.915.914.914,0,0,0-1.073-.569l-62.859,12.251c-.479.094-.566.428-.191.742l.644.541a2.1,2.1,0,0,0,1.551.393Z" transform="translate(1884.451 -8853.284)" fill="#fff"/>
      </g>
      <g id="Grupo_53579" data-name="Grupo 53579" transform="translate(19.576 43.845)" opacity="0.6">
        <path id="Trazado_101321" data-name="Trazado 101321" d="M-1871.984,8924.846c-.479.094-.566.428-.191.742l.644.539a2.082,2.082,0,0,0,1.551.393l61.26-12.44a.774.774,0,0,0,.669-.916.914.914,0,0,0-1.073-.568Z" transform="translate(1872.408 -8912.575)" fill="#fff"/>
      </g>
      <path id="Trazado_101322" data-name="Trazado 101322" d="M-1860.14,9168.45c1.485-.423,4.3-1.05,5.851-1.388a1.442,1.442,0,0,1,1.611.8,23.433,23.433,0,0,1,1.819,5.562,1.276,1.276,0,0,1-1.014,1.481l-5.753,1.1a1.406,1.406,0,0,1-1.611-.975l-1.6-5.3A1.025,1.025,0,0,1-1860.14,9168.45Z" transform="translate(1881.268 -9105.332)" fill="#fff" opacity="0.6"/>
      <g id="Grupo_53580" data-name="Grupo 53580" transform="translate(31.57 60.861)" opacity="0.6">
        <path id="Trazado_101323" data-name="Trazado 101323" d="M-1700.862,9157.4a.706.706,0,0,0-.573.974l.327.9a1.065,1.065,0,0,0,1.174.656l13.941-2.832a.876.876,0,0,0,.683-1.044l-.051-.234a.951.951,0,0,0-1.064-.729Z" transform="translate(1701.486 -9155.08)" fill="#fff"/>
      </g>
      <path id="Trazado_101324" data-name="Trazado 101324" d="M-1414.477,9077.933c1.486-.422,4.3-1.05,5.851-1.387a1.439,1.439,0,0,1,1.611.795,23.431,23.431,0,0,1,1.819,5.562,1.277,1.277,0,0,1-1.014,1.481l-5.753,1.105a1.408,1.408,0,0,1-1.611-.977l-1.6-5.3A1.025,1.025,0,0,1-1414.477,9077.933Z" transform="translate(1466.876 -9021.164)" fill="#fff" opacity="0.6"/>
      <g id="Grupo_53581" data-name="Grupo 53581" transform="translate(62.841 54.509)" opacity="0.6">
        <path id="Trazado_101325" data-name="Trazado 101325" d="M-1255.2,9066.88a.708.708,0,0,0-.573.976l.327.9a1.068,1.068,0,0,0,1.174.657l13.941-2.832a.877.877,0,0,0,.683-1.044l-.051-.235a.951.951,0,0,0-1.064-.729Z" transform="translate(1255.823 -9064.561)" fill="#fff"/>
      </g>
      <g id="Grupo_53586" data-name="Grupo 53586" transform="translate(25.145 67.344)">
        <path id="Trazado_101326" data-name="Trazado 101326" d="M-1784.611,9373.433l-.014,0-5.307,1.026a1.453,1.453,0,0,1-1.7-.916L-1793,9369.2a.985.985,0,0,1,.081-.772,1.185,1.185,0,0,1,.729-.565h0c.44-.122,1.057-.3,1.711-.5,1.377-.4,3.09-.905,4.069-1.118a1.511,1.511,0,0,1,1.694.738,22.635,22.635,0,0,1,1.216,4.967A1.335,1.335,0,0,1-1784.611,9373.433Zm-7.469-5.175a.767.767,0,0,0-.475.363.574.574,0,0,0-.049.449l1.368,4.351a1.04,1.04,0,0,0,1.224.632l5.307-1.025h.011a.923.923,0,0,0,.785-1,22.582,22.582,0,0,0-1.179-4.854,1.117,1.117,0,0,0-1.235-.517c-.964.209-2.669.709-4.039,1.11-.656.193-1.275.375-1.718.5Z" transform="translate(1793.045 -9357.876)" fill="#fff"/>
        <path id="Trazado_101327" data-name="Trazado 101327" d="M-1777.283,9382.908c1.1-.3,3.466-1.039,4.61-1.285a1.045,1.045,0,0,1,1.17.5,18.394,18.394,0,0,1,.957,3.926.9.9,0,0,1-.768,1l-4.241.819a1,1,0,0,1-1.168-.621l-1.094-3.475A.7.7,0,0,1-1777.283,9382.908Z" transform="translate(1778.911 -9372.184)" fill="#fff" opacity="0.6"/>
        <g id="Grupo_53582" data-name="Grupo 53582" transform="translate(12.347)" opacity="0.6">
          <path id="Trazado_101328" data-name="Trazado 101328" d="M-1616.942,9259.127a1.342,1.342,0,0,0,1.482.719l48.923-10.371a1.014,1.014,0,0,0,.779-1.217,1.011,1.011,0,0,0-1.187-.771l-49.055,9.729A1.342,1.342,0,0,0-1616.942,9259.127Z" transform="translate(1617.081 -9247.467)" fill="#fff"/>
        </g>
        <path id="Trazado_101329" data-name="Trazado 101329" d="M-1751.751,9535.2l-.015,0-5.307,1.024a1.453,1.453,0,0,1-1.7-.917l-1.368-4.348a.988.988,0,0,1,.081-.773,1.194,1.194,0,0,1,.729-.564h0c.44-.121,1.058-.3,1.711-.493,1.377-.4,3.09-.907,4.068-1.118l.021-.006a1.509,1.509,0,0,1,1.672.742,22.652,22.652,0,0,1,1.217,4.968A1.334,1.334,0,0,1-1751.751,9535.2Zm-7.469-5.174a.767.767,0,0,0-.475.363.571.571,0,0,0-.049.448l1.368,4.351a1.039,1.039,0,0,0,1.225.632l5.307-1.023.011,0a.922.922,0,0,0,.785-1,22.568,22.568,0,0,0-1.179-4.854,1.113,1.113,0,0,0-1.235-.518c-.964.209-2.669.71-4.039,1.11-.656.193-1.275.375-1.718.5Z" transform="translate(1762.49 -9508.292)" fill="#fff"/>
        <path id="Trazado_101330" data-name="Trazado 101330" d="M-1744.423,9544.694c1.1-.3,3.466-1.038,4.61-1.286a1.048,1.048,0,0,1,1.17.5,18.431,18.431,0,0,1,.957,3.925.9.9,0,0,1-.768,1l-4.241.819a1,1,0,0,1-1.168-.618l-1.093-3.476A.7.7,0,0,1-1744.423,9544.694Z" transform="translate(1748.356 -9522.617)" fill="#fff" opacity="0.6"/>
        <g id="Grupo_53583" data-name="Grupo 53583" transform="translate(14.653 11.352)" opacity="0.6">
          <path id="Trazado_101331" data-name="Trazado 101331" d="M-1584.082,9420.913a1.341,1.341,0,0,0,1.482.72l48.923-10.372a1.014,1.014,0,0,0,.779-1.215,1.015,1.015,0,0,0-1.187-.772L-1583.14,9419A1.34,1.34,0,0,0-1584.082,9420.913Z" transform="translate(1584.221 -9409.254)" fill="#fff"/>
        </g>
        <path id="Trazado_101332" data-name="Trazado 101332" d="M-1718.891,9696.985l-.014,0-5.307,1.024a1.453,1.453,0,0,1-1.7-.916l-1.368-4.351a.982.982,0,0,1,.081-.771,1.183,1.183,0,0,1,.729-.564h0c.44-.121,1.058-.3,1.712-.494,1.377-.405,3.09-.907,4.068-1.119l.021,0a1.508,1.508,0,0,1,1.672.741,22.644,22.644,0,0,1,1.217,4.968A1.336,1.336,0,0,1-1718.891,9696.985Zm-7.469-5.174a.766.766,0,0,0-.475.362.575.575,0,0,0-.049.45l1.368,4.349a1.039,1.039,0,0,0,1.224.633l5.307-1.024.011,0a.921.921,0,0,0,.785-1,22.542,22.542,0,0,0-1.179-4.855,1.109,1.109,0,0,0-1.235-.518c-.964.21-2.669.71-4.039,1.111-.656.192-1.275.375-1.718.5Z" transform="translate(1731.935 -9658.725)" fill="#fff"/>
        <path id="Trazado_101333" data-name="Trazado 101333" d="M-1711.562,9706.48c1.1-.3,3.466-1.039,4.61-1.285a1.045,1.045,0,0,1,1.17.5,18.328,18.328,0,0,1,.957,3.926.9.9,0,0,1-.767.994l-4.241.82a1,1,0,0,1-1.168-.619l-1.094-3.477A.7.7,0,0,1-1711.562,9706.48Z" transform="translate(1717.802 -9673.051)" fill="#fff" opacity="0.6"/>
        <g id="Grupo_53584" data-name="Grupo 53584" transform="translate(16.959 22.705)" opacity="0.6">
          <path id="Trazado_101334" data-name="Trazado 101334" d="M-1551.222,9582.7a1.343,1.343,0,0,0,1.482.719l48.923-10.372a1.014,1.014,0,0,0,.78-1.216,1.013,1.013,0,0,0-1.187-.771l-49.055,9.729A1.343,1.343,0,0,0-1551.222,9582.7Z" transform="translate(1551.361 -9571.041)" fill="#fff"/>
        </g>
        <path id="Trazado_101335" data-name="Trazado 101335" d="M-1686.031,9858.771l-.014,0-5.307,1.026a1.453,1.453,0,0,1-1.7-.917l-1.368-4.348a.988.988,0,0,1,.081-.773,1.188,1.188,0,0,1,.729-.565h0c.44-.122,1.058-.3,1.711-.494,1.377-.4,3.09-.905,4.069-1.118l.021,0a1.506,1.506,0,0,1,1.673.741,22.642,22.642,0,0,1,1.217,4.969A1.334,1.334,0,0,1-1686.031,9858.771Zm-7.469-5.174a.767.767,0,0,0-.475.363.573.573,0,0,0-.049.449l1.368,4.35a1.04,1.04,0,0,0,1.224.633l5.307-1.024.01,0a.921.921,0,0,0,.785-1,22.55,22.55,0,0,0-1.179-4.854,1.1,1.1,0,0,0-1.235-.516c-.964.206-2.669.708-4.039,1.109-.656.193-1.275.374-1.718.5Z" transform="translate(1701.381 -9809.157)" fill="#fff"/>
        <path id="Trazado_101336" data-name="Trazado 101336" d="M-1678.7,9868.269c1.1-.3,3.466-1.039,4.61-1.287a1.047,1.047,0,0,1,1.17.5,18.371,18.371,0,0,1,.957,3.926.9.9,0,0,1-.768,1l-4.241.818a1,1,0,0,1-1.168-.618l-1.093-3.476A.7.7,0,0,1-1678.7,9868.269Z" transform="translate(1687.247 -9823.485)" fill="#fff" opacity="0.6"/>
        <g id="Grupo_53585" data-name="Grupo 53585" transform="translate(19.264 34.057)" opacity="0.6">
          <path id="Trazado_101337" data-name="Trazado 101337" d="M-1518.362,9744.485h0a1.342,1.342,0,0,0,1.482.72l48.923-10.371a1.016,1.016,0,0,0,.779-1.217,1.013,1.013,0,0,0-1.187-.771l-49.055,9.73A1.341,1.341,0,0,0-1518.362,9744.485Z" transform="translate(1518.501 -9732.826)" fill="#fff"/>
        </g>
        <path id="Trazado_101338" data-name="Trazado 101338" d="M-1669.85,9829.983h0a.831.831,0,0,1,1.183.077l1.425,1.66a.266.266,0,0,0,.462-.114l1.42-6.295a.3.3,0,0,1,.578.013,11.622,11.622,0,0,1-1.7,8.6s-1.676-.288-3.486-2.782A.87.87,0,0,1-1669.85,9829.983Z" transform="translate(1678.762 -9784.553)" fill="url(#linear-gradient-18)"/>
      </g>
    </g>
  </g>
</svg>
