<svg xmlns="http://www.w3.org/2000/svg" xmlns:xlink="http://www.w3.org/1999/xlink" width="202.201" height="213.5" viewBox="0 0 202.201 213.5">
  <defs>
    <linearGradient id="linear-gradient" x1="1.13" y1="1.295" x2="0.236" y2="0.19" gradientUnits="objectBoundingBox">
      <stop offset="0" stop-color="#dfdafe"/>
      <stop offset="1" stop-color="#ebe9fd"/>
    </linearGradient>
    <clipPath id="clip-path">
      <rect id="Rectángulo_5255" data-name="Rectángulo 5255" width="194.698" height="142.582" fill="none"/>
    </clipPath>
    <linearGradient id="linear-gradient-2" x1="2.527" y1="-0.085" x2="-5.096" y2="2.115" gradientUnits="objectBoundingBox">
      <stop offset="0" stop-color="#a7fd3f"/>
      <stop offset="1" stop-color="#d9563c"/>
    </linearGradient>
    <linearGradient id="linear-gradient-3" x1="0.924" y1="-17.292" x2="0.022" y2="20.575" xlink:href="#linear-gradient-2"/>
    <linearGradient id="linear-gradient-4" x1="0.517" y1="0.311" x2="-0.175" y2="7.927" xlink:href="#linear-gradient-2"/>
    <linearGradient id="linear-gradient-5" x1="0.576" y1="-0.411" x2="0.473" y2="0.535" gradientUnits="objectBoundingBox">
      <stop offset="0" stop-color="#30065d"/>
      <stop offset="1" stop-color="#4c0f91"/>
    </linearGradient>
    <linearGradient id="linear-gradient-6" x1="0.71" y1="-0.618" x2="0.55" y2="0.237" gradientUnits="objectBoundingBox">
      <stop offset="0" stop-color="#536dff"/>
      <stop offset="1" stop-color="#7a38f7"/>
    </linearGradient>
    <linearGradient id="linear-gradient-7" x1="0.46" y1="0.039" x2="0.699" y2="1.932" xlink:href="#linear-gradient-5"/>
    <linearGradient id="linear-gradient-8" x1="0.432" y1="-0.021" x2="0.682" y2="1.862" xlink:href="#linear-gradient-6"/>
    <linearGradient id="linear-gradient-9" x1="3.239" y1="-3.652" x2="0.259" y2="1.068" gradientUnits="objectBoundingBox">
      <stop offset="0" stop-color="#fecdba"/>
      <stop offset="1" stop-color="#ffb18e"/>
    </linearGradient>
    <linearGradient id="linear-gradient-10" x1="0.761" y1="-0.048" x2="0.425" y2="0.603" gradientUnits="objectBoundingBox">
      <stop offset="0" stop-color="#cb3223"/>
      <stop offset="1" stop-color="#6d2460"/>
    </linearGradient>
    <linearGradient id="linear-gradient-11" x1="1.054" y1="0.367" x2="-6.997" y2="2.473" xlink:href="#linear-gradient-9"/>
    <linearGradient id="linear-gradient-12" x1="0.936" y1="0.335" x2="0.26" y2="0.635" xlink:href="#linear-gradient-10"/>
    <linearGradient id="linear-gradient-13" x1="0.116" y1="0.841" x2="0.878" y2="0.201" gradientUnits="objectBoundingBox">
      <stop offset="0" stop-color="#904fff"/>
      <stop offset="1" stop-color="#7d40e2"/>
    </linearGradient>
    <linearGradient id="linear-gradient-14" x1="0" y1="0.5" x2="1" y2="0.5" xlink:href="#linear-gradient-9"/>
    <linearGradient id="linear-gradient-15" x1="3.626" y1="0.659" x2="4.807" y2="-0.15" xlink:href="#linear-gradient-9"/>
    <linearGradient id="linear-gradient-16" x1="-11.064" y1="-3.965" x2="-12.255" y2="-2.674" xlink:href="#linear-gradient-9"/>
    <linearGradient id="linear-gradient-17" x1="-8.391" y1="-2.179" x2="-7.369" y2="-2.179" xlink:href="#linear-gradient-5"/>
    <linearGradient id="linear-gradient-18" x1="-35.213" y1="-11.238" x2="-32.554" y2="-13.791" xlink:href="#linear-gradient-9"/>
    <linearGradient id="linear-gradient-19" x1="0.023" y1="0.867" x2="1.202" y2="-0.024" xlink:href="#linear-gradient-13"/>
    <linearGradient id="linear-gradient-20" x1="0.772" y1="-6.301" x2="0.569" y2="-1.295" xlink:href="#linear-gradient-5"/>
    <linearGradient id="linear-gradient-21" x1="-0.068" y1="-39.507" x2="0.159" y2="-39.507" xlink:href="#linear-gradient-9"/>
    <linearGradient id="linear-gradient-22" y1="0.5" x2="1" y2="0.5" gradientUnits="objectBoundingBox">
      <stop offset="0" stop-color="#9cbeff"/>
      <stop offset="1" stop-color="#9bbeff"/>
    </linearGradient>
    <linearGradient id="linear-gradient-24" x1="-0.157" y1="8.799" x2="1.024" y2="-6.179" xlink:href="#linear-gradient-5"/>
    <linearGradient id="linear-gradient-25" x1="0.933" y1="1.761" x2="0.629" y2="0.615" xlink:href="#linear-gradient-13"/>
  </defs>
  <g id="Grupo_53316" data-name="Grupo 53316" transform="translate(2550.055 -3877.942)">
    <g id="Grupo_53313" data-name="Grupo 53313" transform="translate(-2550.055 3892.031)">
      <path id="Trazado_100766" data-name="Trazado 100766" d="M-2328.45,4242.932a71.573,71.573,0,0,1-10.948,9.217c-35.712,25.624-77.968,18.154-86.949,16.33-13.262-2.693-38.9-7.9-57.429-29.695-28.04-32.974-23.674-84.923-1.924-119.215,3.978-6.272,24.992-41.088,67.7-46.671,25.849-3.378,55.98,3.437,77.8,21.717C-2294.393,4132.989-2297.653,4210.51-2328.45,4242.932Z" transform="translate(2506.804 -4072.064)" fill="url(#linear-gradient)"/>
      <g id="Grupo_53292" data-name="Grupo 53292" transform="translate(0 1.796)">
        <g id="Grupo_53284" data-name="Grupo 53284" transform="translate(0 19.707)">
          <g id="Grupo_53278" data-name="Grupo 53278" transform="translate(23.027 20.335)" opacity="0.3">
            <path id="Trazado_100767" data-name="Trazado 100767" d="M-2116.429,4648.57a.855.855,0,0,1,1.034.488c.374.889.715,1.81,1.013,2.733a.855.855,0,0,1-.551,1.076l-.016.005a.855.855,0,0,1-1.06-.556c-.283-.877-.607-1.75-.962-2.6a.854.854,0,0,1,.457-1.119A.878.878,0,0,1-2116.429,4648.57Zm2.1,7.145c.032-.009.065-.017.1-.023a.854.854,0,0,1,.991.692c.169.955.3,1.926.387,2.887a.855.855,0,0,1-.774.929.855.855,0,0,1-.928-.774c-.083-.914-.207-1.836-.368-2.744A.856.856,0,0,1-2114.329,4655.715Zm.475,7.43a.858.858,0,0,1,.289-.036.855.855,0,0,1,.812.9c-.047.966-.137,1.943-.267,2.9a.856.856,0,0,1-.962.732.855.855,0,0,1-.732-.962c.124-.912.209-1.838.254-2.756A.855.855,0,0,1-2113.854,4663.145Zm-1.2,7.35a.859.859,0,0,1,.478,0,.855.855,0,0,1,.591,1.055c-.262.932-.569,1.864-.909,2.77a.856.856,0,0,1-1.1.5.855.855,0,0,1-.5-1.1c.324-.86.615-1.746.864-2.631A.855.855,0,0,1-2115.052,4670.495Zm-2.807,6.9a.852.852,0,0,1,.655.067.855.855,0,0,1,.343,1.16c-.462.848-.966,1.689-1.5,2.5a.854.854,0,0,1-1.184.244.855.855,0,0,1-.243-1.185c.507-.769.986-1.568,1.425-2.375A.852.852,0,0,1-2117.859,4677.394Zm-4.263,6.105a.853.853,0,0,1,.812.176.855.855,0,0,1,.078,1.206c-.639.727-1.317,1.435-2.015,2.1a.855.855,0,0,1-1.209-.025.855.855,0,0,1,.025-1.208c.663-.637,1.308-1.31,1.915-2A.851.851,0,0,1-2122.123,4683.5Zm-29.4,11.005a.853.853,0,0,1,.36-.028c.91.122,1.838.206,2.758.249a.854.854,0,0,1,.813.894.855.855,0,0,1-.894.814c-.969-.046-1.945-.134-2.9-.262a.855.855,0,0,1-.734-.961A.856.856,0,0,1-2151.52,4694.5Zm23.89-6a.854.854,0,0,1,.94.317.855.855,0,0,1-.192,1.194c-.784.567-1.6,1.106-2.433,1.6a.857.857,0,0,1-1.173-.294.856.856,0,0,1,.294-1.173c.789-.472,1.566-.983,2.311-1.521A.837.837,0,0,1-2127.629,4688.505Zm-16.446,6.15a.875.875,0,0,1,.169-.033c.915-.084,1.839-.211,2.745-.373a.856.856,0,0,1,.992.691.853.853,0,0,1-.691.992c-.954.171-1.925.3-2.888.393a.855.855,0,0,1-.93-.771A.856.856,0,0,1-2144.075,4694.655Zm9.959-2.5a.855.855,0,0,1,1.033.486.855.855,0,0,1-.455,1.121c-.891.375-1.809.718-2.731,1.018l-.017.006a.855.855,0,0,1-1.06-.554.855.855,0,0,1,.549-1.077c.875-.285,1.748-.61,2.594-.967A.858.858,0,0,1-2134.116,4692.155Z" transform="translate(2157.981 -4648.534)" fill="#917df4"/>
            <path id="Trazado_100768" data-name="Trazado 100768" d="M-2232.17,5263.119a.849.849,0,0,1,.511.006c.419.136.848.266,1.275.386a.855.855,0,0,1,.592,1.054.854.854,0,0,1-1.054.592c-.449-.126-.9-.263-1.341-.406a.855.855,0,0,1-.549-1.077A.856.856,0,0,1-2232.17,5263.119Z" transform="translate(2232.779 -5218.48)" fill="#917df4"/>
          </g>
          <g id="Grupo_53279" data-name="Grupo 53279" opacity="0.3">
            <path id="Trazado_100769" data-name="Trazado 100769" d="M-2503.2,5027.572a.855.855,0,0,1,1.015.445c.193.4.4.8.607,1.186a.855.855,0,0,1-.348,1.158.853.853,0,0,1-1.158-.348c-.221-.411-.436-.831-.639-1.248a.855.855,0,0,1,.4-1.143A.847.847,0,0,1-2503.2,5027.572Z" transform="translate(2507.164 -4979.693)" fill="#917df4"/>
            <path id="Trazado_100770" data-name="Trazado 100770" d="M-2525.813,4369.795q.565-.171,1.14-.324a.856.856,0,0,1,1.046.607.856.856,0,0,1-.606,1.046c-.884.235-1.757.5-2.6.807a.855.855,0,0,1-1.092-.518.855.855,0,0,1,.518-1.092C-2526.888,4370.133-2526.351,4369.957-2525.813,4369.795Zm5.57-1.182a.8.8,0,0,1,.142-.03c.947-.118,1.909-.2,2.859-.235a.855.855,0,0,1,.888.82.854.854,0,0,1-.82.888c-.9.037-1.817.112-2.716.224a.856.856,0,0,1-.954-.743A.855.855,0,0,1-2520.243,4368.613Zm-11.292,3.508a.854.854,0,0,1,1,.424.855.855,0,0,1-.364,1.153c-.8.416-1.6.873-2.361,1.357a.856.856,0,0,1-1.18-.265.856.856,0,0,1,.266-1.18c.806-.51,1.643-.991,2.487-1.429A.825.825,0,0,1-2531.534,4372.121Zm18.621-3.608a.864.864,0,0,1,.33-.032c.948.093,1.9.228,2.841.4a.854.854,0,0,1,.686,1,.853.853,0,0,1-1,.686c-.889-.163-1.8-.291-2.7-.379a.854.854,0,0,1-.768-.934A.856.856,0,0,1-2512.914,4368.513Zm-24.7,7.685a.856.856,0,0,1,.9.267.855.855,0,0,1-.1,1.2c-.69.583-1.364,1.2-2,1.843a.853.853,0,0,1-1.209,0,.854.854,0,0,1,0-1.208c.674-.674,1.384-1.328,2.11-1.941A.87.87,0,0,1-2537.618,4376.2Zm-5.042,5.314a.853.853,0,0,1,.764.137.855.855,0,0,1,.164,1.2c-.547.722-1.071,1.474-1.555,2.238a.855.855,0,0,1-1.18.263.855.855,0,0,1-.264-1.18c.51-.8,1.061-1.6,1.637-2.354A.849.849,0,0,1-2542.661,4381.512Zm-3.764,6.286a.854.854,0,0,1,.6.042.854.854,0,0,1,.421,1.133c-.377.824-.724,1.672-1.031,2.523a.855.855,0,0,1-1.094.514.856.856,0,0,1-.514-1.095c.323-.894.688-1.788,1.085-2.654A.853.853,0,0,1-2546.425,4387.8Zm-2.3,6.957a.85.85,0,0,1,.424-.017.854.854,0,0,1,.658,1.013c-.188.886-.341,1.79-.453,2.687a.855.855,0,0,1-.954.742.854.854,0,0,1-.742-.954c.118-.945.279-1.9.477-2.829A.856.856,0,0,1-2548.728,4394.755Zm-.72,7.3a.857.857,0,0,1,.236-.036.855.855,0,0,1,.866.844c.012.9.062,1.818.151,2.719a.856.856,0,0,1-.768.934.855.855,0,0,1-.934-.768c-.093-.948-.146-1.912-.158-2.862A.856.856,0,0,1-2549.448,4402.051Zm.9,7.271.051-.015a.855.855,0,0,1,1.028.635c.154.649.329,1.3.521,1.937q.1.346.216.688a.855.855,0,0,1-.548,1.078.846.846,0,0,1-1.078-.548c-.078-.24-.154-.48-.227-.723-.2-.67-.387-1.355-.548-2.038A.854.854,0,0,1-2548.548,4409.322Z" transform="translate(2550.055 -4368.347)" fill="#917df4"/>
            <path id="Trazado_100771" data-name="Trazado 100771" d="M-1947.011,4391.146a.854.854,0,0,1,.515.006c.439.146.884.3,1.322.468a.854.854,0,0,1,.5,1.1.854.854,0,0,1-1.1.5c-.416-.157-.838-.306-1.255-.444a.855.855,0,0,1-.543-1.08A.853.853,0,0,1-1947.011,4391.146Z" transform="translate(1991.343 -4389.458)" fill="#917df4"/>
          </g>
          <g id="Grupo_53283" data-name="Grupo 53283" transform="translate(8.499 8.678)">
            <g id="Grupo_53280" data-name="Grupo 53280">
              <path id="Trazado_100772" data-name="Trazado 100772" d="M-2395.352,4490.756a.4.4,0,0,0-.463.012l-3.884,2.927a21.191,21.191,0,0,0-6.725-1.368l-2.433-4.207a.4.4,0,0,0-.422-.191l-5.725,1.115a.4.4,0,0,0-.319.336l-.677,4.813a21.175,21.175,0,0,0-5.72,3.792l-4.7-1.255a.4.4,0,0,0-.434.163l-3.26,4.837a.4.4,0,0,0,.012.464l2.926,3.883a21.178,21.178,0,0,0-1.368,6.725l-4.207,2.434a.4.4,0,0,0-.192.422l1.115,5.725a.4.4,0,0,0,.337.319l4.812.677a21.188,21.188,0,0,0,3.792,5.72l-1.255,4.7a.4.4,0,0,0,.163.434l4.837,3.26a.4.4,0,0,0,.464-.012l3.884-2.926a21.2,21.2,0,0,0,6.725,1.368l2.433,4.207a.4.4,0,0,0,.422.192l5.725-1.115a.4.4,0,0,0,.319-.336l.677-4.812a21.166,21.166,0,0,0,5.72-3.792l4.7,1.255a.4.4,0,0,0,.434-.163l3.26-4.837a.4.4,0,0,0-.012-.463l-2.926-3.884a21.185,21.185,0,0,0,1.368-6.725l4.207-2.433a.4.4,0,0,0,.192-.423l-1.115-5.725a.4.4,0,0,0-.337-.319l-4.812-.677a21.175,21.175,0,0,0-3.792-5.72l1.254-4.7a.4.4,0,0,0-.163-.434Z" transform="translate(2432.948 -4487.921)" fill="#9b91fa"/>
            </g>
            <g id="Grupo_53281" data-name="Grupo 53281" transform="translate(19.839 19.839)">
              <path id="Trazado_100773" data-name="Trazado 100773" d="M-2155.424,4761.521a5.872,5.872,0,0,1,7,3.119,5.87,5.87,0,0,1-2.81,7.8,5.826,5.826,0,0,1-4.482.211,5.823,5.823,0,0,1-3.318-3.021,5.87,5.87,0,0,1,2.81-7.8A5.97,5.97,0,0,1-2155.424,4761.521Zm2.982,9.921a4.566,4.566,0,0,0,.623-.239,4.5,4.5,0,0,0,2.154-5.981,4.5,4.5,0,0,0-5.981-2.154,4.5,4.5,0,0,0-2.154,5.981,4.468,4.468,0,0,0,2.544,2.316A4.468,4.468,0,0,0-2152.441,4771.442Z" transform="translate(2159.594 -4761.273)" fill="#c4bdfb"/>
            </g>
            <g id="Grupo_53282" data-name="Grupo 53282" transform="translate(11.221 11.391)">
              <path id="Trazado_100774" data-name="Trazado 100774" d="M-2268.115,4645.5a14.527,14.527,0,0,1,1.438-.356h0q.231-.045.463-.083a14.516,14.516,0,0,1,2.3-.187h.121l.173,0a.342.342,0,0,1,.321.243.33.33,0,0,1,.014.106.342.342,0,0,1-.348.334,13.8,13.8,0,0,0-2.913.253,13.731,13.731,0,0,0-10.156,8.47,13.647,13.647,0,0,0-.7,7.635,13.958,13.958,0,0,0,.34,1.372,13.628,13.628,0,0,0,5.465,7.39,13.644,13.644,0,0,0,10.3,2.091,13.747,13.747,0,0,0,10.853-16.1,13.876,13.876,0,0,0-.335-1.354,13.687,13.687,0,0,0-2.923-5.195.34.34,0,0,1-.073-.129.342.342,0,0,1,.1-.354.342.342,0,0,1,.483.025,14.374,14.374,0,0,1,3.069,5.454,14.626,14.626,0,0,1,.352,1.421,14.434,14.434,0,0,1-11.394,16.907,14.321,14.321,0,0,1-10.813-2.2,14.305,14.305,0,0,1-5.737-7.758,14.8,14.8,0,0,1-.357-1.44,14.323,14.323,0,0,1,2.2-10.813A14.305,14.305,0,0,1-2268.115,4645.5Z" transform="translate(2278.341 -4644.875)" fill="#c4bdfb"/>
            </g>
          </g>
        </g>
        <g id="Grupo_53291" data-name="Grupo 53291" transform="translate(45.01)">
          <g id="Grupo_53285" data-name="Grupo 53285" transform="translate(24.554 10.057)" opacity="0.3">
            <path id="Trazado_100775" data-name="Trazado 100775" d="M-1370.06,4235.407a.527.527,0,0,1,.595.217c.245.375.482.763.7,1.152a.528.528,0,0,1-.2.72.527.527,0,0,1-.72-.2c-.212-.371-.438-.741-.672-1.1a.528.528,0,0,1,.153-.731A.544.544,0,0,1-1370.06,4235.407Z" transform="translate(1386.486 -4235.385)" fill="#917df4"/>
            <path id="Trazado_100776" data-name="Trazado 100776" d="M-1573.257,4284.861a.527.527,0,0,1,.639.3,22.848,22.848,0,0,1,.784,2.187q.07.234.136.47a.547.547,0,0,1-.366.651.529.529,0,0,1-.651-.366c-.042-.151-.085-.3-.13-.449a21.9,21.9,0,0,0-.747-2.085.529.529,0,0,1,.284-.691Zm1.474,5.28a.473.473,0,0,1,.074-.017.529.529,0,0,1,.6.443,22.887,22.887,0,0,1,.25,2.8.529.529,0,0,1-.513.542.528.528,0,0,1-.542-.513,21.867,21.867,0,0,0-.238-2.669A.528.528,0,0,1-1571.783,4290.141Zm.149,5.479a.535.535,0,0,1,.2-.02.528.528,0,0,1,.474.577,22.8,22.8,0,0,1-.446,2.776.528.528,0,0,1-.631.4.529.529,0,0,1-.4-.631,21.739,21.739,0,0,0,.425-2.647A.529.529,0,0,1-1571.634,4295.621Zm-1.2,5.35a.522.522,0,0,1,.331.008.528.528,0,0,1,.318.676,22.962,22.962,0,0,1-1.111,2.582.529.529,0,0,1-.709.232.528.528,0,0,1-.233-.709,21.765,21.765,0,0,0,1.06-2.462A.526.526,0,0,1-1572.836,4300.97Zm-2.472,4.893a.524.524,0,0,1,.447.067.527.527,0,0,1,.144.732,23.11,23.11,0,0,1-1.7,2.234.528.528,0,0,1-.745.054.528.528,0,0,1-.054-.745,21.911,21.911,0,0,0,1.626-2.131A.527.527,0,0,1-1575.308,4305.863Zm-3.585,4.144a.528.528,0,0,1,.545.152.528.528,0,0,1-.038.746,22.8,22.8,0,0,1-2.2,1.75.529.529,0,0,1-.735-.13.528.528,0,0,1,.13-.735,21.576,21.576,0,0,0,2.095-1.668A.529.529,0,0,1-1578.893,4310.007Zm-4.488,3.141a.528.528,0,0,1,.619.259.529.529,0,0,1-.22.714,22.98,22.98,0,0,1-2.561,1.158.53.53,0,0,1-.681-.307.528.528,0,0,1,.306-.681,21.654,21.654,0,0,0,2.442-1.1A.641.641,0,0,1-1583.381,4313.148Zm-7.828,2.435a.554.554,0,0,1,.091-.019,21.973,21.973,0,0,0,2.3-.4c.115-.026.228-.053.34-.081a.528.528,0,0,1,.639.387.523.523,0,0,1-.386.639c-.12.029-.24.058-.361.085a22.869,22.869,0,0,1-2.406.416.527.527,0,0,1-.586-.462A.528.528,0,0,1-1591.208,4315.583Z" transform="translate(1591.583 -4281.25)" fill="#917df4"/>
          </g>
          <g id="Grupo_53286" data-name="Grupo 53286" opacity="0.3">
            <path id="Trazado_100777" data-name="Trazado 100777" d="M-1914.3,4097.851a.528.528,0,0,1,.656.346.528.528,0,0,1-.344.663,21.7,21.7,0,0,0-2.461.945.531.531,0,0,1-.7-.262.528.528,0,0,1,.261-.7,22.887,22.887,0,0,1,2.58-.991Zm2.62-.659.056-.014a23.247,23.247,0,0,1,2.743-.348.527.527,0,0,1,.562.492.53.53,0,0,1-.492.563,21.969,21.969,0,0,0-2.617.332.528.528,0,0,1-.616-.421A.528.528,0,0,1-1911.68,4097.192Zm-7.525,2.894a.528.528,0,0,1,.6.23.528.528,0,0,1-.174.726,21.858,21.858,0,0,0-2.16,1.513.528.528,0,0,1-.742-.085.529.529,0,0,1,.085-.742,22.891,22.891,0,0,1,2.265-1.585A.511.511,0,0,1-1919.205,4100.086Zm12.907-3.247a.515.515,0,0,1,.182-.022,22.659,22.659,0,0,1,2.747.324.528.528,0,0,1,.426.614.529.529,0,0,1-.614.425,21.73,21.73,0,0,0-2.619-.309.528.528,0,0,1-.5-.557A.528.528,0,0,1-1906.3,4096.839Zm-17.126,6.6a.527.527,0,0,1,.524.129.528.528,0,0,1,.006.747,21.737,21.737,0,0,0-1.732,1.987.528.528,0,0,1-.741.1.528.528,0,0,1-.1-.741,22.843,22.843,0,0,1,1.816-2.084A.533.533,0,0,1-1923.424,4103.441Zm-3.291,4.27a.526.526,0,0,1,.422.051.528.528,0,0,1,.185.724,22.075,22.075,0,0,0-1.208,2.344.528.528,0,0,1-.7.271.528.528,0,0,1-.27-.7,23.087,23.087,0,0,1,1.266-2.458A.527.527,0,0,1-1926.715,4107.711Zm-2.174,4.935a.524.524,0,0,1,.305,0,.528.528,0,0,1,.352.659,21.566,21.566,0,0,0-.61,2.565.529.529,0,0,1-.611.43.528.528,0,0,1-.43-.61,22.828,22.828,0,0,1,.639-2.691A.528.528,0,0,1-1928.889,4112.646Z" transform="translate(1929.89 -4096.816)" fill="#917df4"/>
            <path id="Trazado_100778" data-name="Trazado 100778" d="M-1536.18,4110.129a.525.525,0,0,1,.309,0c.432.135.861.282,1.277.438a.529.529,0,0,1,.308.681.53.53,0,0,1-.68.308c-.4-.15-.806-.291-1.218-.419a.528.528,0,0,1-.347-.661A.527.527,0,0,1-1536.18,4110.129Z" transform="translate(1565.103 -4109.142)" fill="#917df4"/>
          </g>
          <g id="Grupo_53290" data-name="Grupo 53290" transform="translate(5.318 5.746)">
            <g id="Grupo_53287" data-name="Grupo 53287">
              <path id="Trazado_100779" data-name="Trazado 100779" d="M-1831.457,4177.884a.266.266,0,0,0-.31.008l-2.6,1.958a14.2,14.2,0,0,0-4.5-.915l-1.628-2.814a.266.266,0,0,0-.282-.128l-3.831.746a.268.268,0,0,0-.214.226l-.453,3.22a14.165,14.165,0,0,0-3.828,2.538l-3.144-.84a.268.268,0,0,0-.291.109l-2.181,3.237a.267.267,0,0,0,.008.31l1.958,2.6a14.175,14.175,0,0,0-.915,4.5l-2.815,1.628a.268.268,0,0,0-.128.283l.746,3.831a.267.267,0,0,0,.225.213l3.22.453a14.172,14.172,0,0,0,2.537,3.827l-.839,3.144a.267.267,0,0,0,.109.291l3.237,2.181a.268.268,0,0,0,.31-.008l2.6-1.958a14.175,14.175,0,0,0,4.5.916l1.628,2.814a.268.268,0,0,0,.282.129l3.831-.747a.267.267,0,0,0,.214-.225l.453-3.22a14.174,14.174,0,0,0,3.827-2.538l3.144.839a.268.268,0,0,0,.291-.109l2.181-3.236a.267.267,0,0,0-.008-.31l-1.958-2.6a14.175,14.175,0,0,0,.915-4.5l2.815-1.628a.268.268,0,0,0,.128-.283l-.746-3.831a.267.267,0,0,0-.225-.214l-3.22-.453a14.175,14.175,0,0,0-2.537-3.828l.839-3.143a.267.267,0,0,0-.109-.291Z" transform="translate(1856.614 -4175.987)" fill="#9b91fa"/>
            </g>
            <g id="Grupo_53288" data-name="Grupo 53288" transform="translate(13.203 13.203)">
              <path id="Trazado_100780" data-name="Trazado 100780" d="M-1671.854,4358.071a3.969,3.969,0,0,1,2.5.069,3.968,3.968,0,0,1,2.26,2.058,4,4,0,0,1-1.914,5.313,4,4,0,0,1-5.314-1.914,3.967,3.967,0,0,1-.144-3.053,3.963,3.963,0,0,1,2.058-2.26A4.048,4.048,0,0,1-1671.854,4358.071Zm1.995,6.639a3.042,3.042,0,0,0,.4-.154,2.942,2.942,0,0,0,1.407-3.909,2.917,2.917,0,0,0-1.662-1.513,2.922,2.922,0,0,0-2.246.105h0a2.92,2.92,0,0,0-1.514,1.663,2.918,2.918,0,0,0,.106,2.246A2.943,2.943,0,0,0-1669.859,4364.71Z" transform="translate(1674.703 -4357.901)" fill="#c4bdfb"/>
            </g>
            <g id="Grupo_53289" data-name="Grupo 53289" transform="translate(7.211 7.324)">
              <path id="Trazado_100781" data-name="Trazado 100781" d="M-1750.19,4277.321q.48-.145.982-.243a10.008,10.008,0,0,1,2.018-.185l.091,0a.527.527,0,0,1,.5.375.52.52,0,0,1,.022.164.528.528,0,0,1-.538.517,8.931,8.931,0,0,0-1.886.164h0l-.1.021a8.8,8.8,0,0,0-3.919,1.9,8.923,8.923,0,0,0-1.606,1.775l-.011.016-.034.05a8.832,8.832,0,0,0-1.354,6.668,8.968,8.968,0,0,0,.22.888,8.823,8.823,0,0,0,3.538,4.784,8.83,8.83,0,0,0,6.668,1.354,8.838,8.838,0,0,0,5.672-3.758,8.831,8.831,0,0,0,1.354-6.667,8.867,8.867,0,0,0-.217-.876,8.858,8.858,0,0,0-1.892-3.363.529.529,0,0,1-.113-.2.528.528,0,0,1,.152-.545.528.528,0,0,1,.746.04,9.921,9.921,0,0,1,2.117,3.762,10.06,10.06,0,0,1,.243.981,9.88,9.88,0,0,1-1.515,7.46,9.871,9.871,0,0,1-6.346,4.2,9.876,9.876,0,0,1-7.46-1.515,9.868,9.868,0,0,1-3.958-5.353,10.1,10.1,0,0,1-.246-.993A9.96,9.96,0,0,1-1750.19,4277.321Z" transform="translate(1757.254 -4276.893)" fill="#c4bdfb"/>
            </g>
          </g>
        </g>
      </g>
      <g id="Grupo_53305" data-name="Grupo 53305" transform="translate(4.672 56.828)">
        <g id="Grupo_53304" data-name="Grupo 53304" clip-path="url(#clip-path)">
          <g id="Grupo_53303" data-name="Grupo 53303" transform="translate(1.796 0.861)">
            <g id="Grupo_53293" data-name="Grupo 53293" transform="translate(9.613 175.639)">
              <rect id="Rectángulo_5252" data-name="Rectángulo 5252" width="6.855" height="74.136" transform="translate(33.132 16.611)" fill="url(#linear-gradient-2)"/>
              <path id="Rectángulo_5253" data-name="Rectángulo 5253" d="M2.507,0H57.536a2.507,2.507,0,0,1,2.507,2.507V4.462a0,0,0,0,1,0,0H0a0,0,0,0,1,0,0V2.507A2.507,2.507,0,0,1,2.507,0Z" transform="translate(6.538 87.715)" fill="url(#linear-gradient-3)"/>
              <rect id="Rectángulo_5254" data-name="Rectángulo 5254" width="75.492" height="21.411" rx="10.705" fill="url(#linear-gradient-4)"/>
            </g>
            <g id="Grupo_53300" data-name="Grupo 53300">
              <g id="Grupo_53294" data-name="Grupo 53294" transform="translate(175.914 235.24)">
                <path id="Trazado_100782" data-name="Trazado 100782" d="M-30.142,8128c3.074-1.492,26.627-9.876,32.511-18.834a2.086,2.086,0,0,0-1.018-.41c-6.655-.8-19.947-1.6-31.721,2.6l-6.244,5.348s-2.1,5.044,2.006,11.2A4.75,4.75,0,0,0-30.142,8128Z" transform="translate(37.152 -8108.115)" fill="url(#linear-gradient-5)"/>
                <path id="Trazado_100783" data-name="Trazado 100783" d="M34.87,8122.586c-5.884,8.957-29.437,17.341-32.511,18.834a4.747,4.747,0,0,1-4.466-.1c.007.011.013.021.02.032a3.984,3.984,0,0,0,4.773,1.459c6.625-2.616,23.519-9.682,32.273-16.924A2.107,2.107,0,0,0,34.87,8122.586Z" transform="translate(4.65 -8121.536)" fill="url(#linear-gradient-6)"/>
              </g>
              <g id="Grupo_53295" data-name="Grupo 53295" transform="translate(175.101 243.072)">
                <path id="Trazado_100784" data-name="Trazado 100784" d="M-41.343,8235.912c3.074-1.493,26.627-9.877,32.511-18.834a2.067,2.067,0,0,0-1.018-.409c-6.655-.8-19.947-1.6-31.721,2.6l-6.243,5.347s-2.1,5.045,2.006,11.2A4.747,4.747,0,0,0-41.343,8235.912Z" transform="translate(48.353 -8216.028)" fill="url(#linear-gradient-7)"/>
                <path id="Trazado_100785" data-name="Trazado 100785" d="M23.668,8230.5c-5.884,8.958-29.437,17.342-32.511,18.835a4.747,4.747,0,0,1-4.466-.1c.007.012.013.022.02.033a3.983,3.983,0,0,0,4.773,1.458c6.625-2.616,23.519-9.682,32.273-16.924A2.107,2.107,0,0,0,23.668,8230.5Z" transform="translate(15.852 -8229.448)" fill="url(#linear-gradient-8)"/>
              </g>
              <g id="Grupo_53296" data-name="Grupo 53296" transform="translate(66.399 153.828)">
                <path id="Trazado_100786" data-name="Trazado 100786" d="M-101.6,8082.509c-.9,2.231-2.87,4.965-7.1,7.232l6.154,4.284a6.565,6.565,0,0,0,4.728-1.43,3.459,3.459,0,0,0,.44-4.676Q-99.473,8085.161-101.6,8082.509Z" transform="translate(213.02 -8002.956)" fill="url(#linear-gradient-9)"/>
                <path id="Trazado_100787" data-name="Trazado 100787" d="M-1434.536,7064.013c-49.924-61.576-111.546-77.611-111.546-77.611l1.563,15.245,103.755,72.56c3.469-1.86,5.446-5.266,6.543-7.66A2.421,2.421,0,0,0-1434.536,7064.013Z" transform="translate(1546.082 -6986.401)" fill="url(#linear-gradient-10)"/>
              </g>
              <g id="Grupo_53297" data-name="Grupo 53297" transform="translate(17.003 146.78)">
                <path id="Trazado_100788" data-name="Trazado 100788" d="M-112.224,8159.336c-.268,2.13-1.5,5.9-6.486,9.033q2.823,2.175,5.439,4.378a2.975,2.975,0,0,0,2.516.655,6.215,6.215,0,0,0,5.125-4.756,2.765,2.765,0,0,0-.574-2.4C-107.244,8165-109.3,8162.585-112.224,8159.336Z" transform="translate(271.701 -8067.159)" fill="url(#linear-gradient-11)"/>
                <path id="Trazado_100789" data-name="Trazado 100789" d="M-2066.8,6980.607c-15.57-17.066-53.895-54.224-95.991-69.649a14.315,14.315,0,0,1-7.966-7.267l-6.3-13.127s-30.7-7.193-49.607,12.61c0,0,1.152,18.836,24.906,25.723,22.174,6.427,87.88,32.528,126.635,61.774a2.473,2.473,0,0,0,3,.02,18.675,18.675,0,0,0,5.833-7.475A2.522,2.522,0,0,0-2066.8,6980.607Z" transform="translate(2226.665 -6889.291)" fill="url(#linear-gradient-12)"/>
              </g>
              <path id="Trazado_100790" data-name="Trazado 100790" d="M-2324.44,5652.4s6.262,2.74,17-2.222,39.925-5.457,39.925-5.457-9.457-35.391,11.557-60.711c0,0,16.925,31.68,28.82,36.408l5.327.244v-22.6s-4.518-27.9-33.1-48.734l-8.9-8.02s-31.289-6.308-52.566,31.016S-2324.44,5652.4-2324.44,5652.4Z" transform="translate(2338.107 -5491.994)" fill="url(#linear-gradient-13)"/>
              <path id="Trazado_100791" data-name="Trazado 100791" d="M-1129.248,5561.03c.3-1.568.41-5.237-3.374-9.708a9.878,9.878,0,0,0-11.557-2.932c-5.755,3.222-8.186,13.745-8.186,13.745l6.084-3.247c.922,2.677,9.907,5.563,9.907,5.563l.05-.019c.087,5.82-.054,22.794-4.182,34.6-1.617,4.625-4.906,13.219,5.954,27.944l5.984-.244S-1115.16,5603.972-1129.248,5561.03Z" transform="translate(1247.339 -5498.208)" fill="url(#linear-gradient-14)"/>
              <g id="Grupo_53298" data-name="Grupo 53298" transform="translate(69.912)">
                <path id="Trazado_100792" data-name="Trazado 100792" d="M-1475.072,5256.4l-16.662,23.527a3.936,3.936,0,0,0,.346,4.971c2.245,2.4,6.031,5.773,10.111,6.544a3.176,3.176,0,0,0,3.26-1.373l8.861-13.6S-1467.459,5255.1-1475.072,5256.4Z" transform="translate(1492.837 -5228.081)" fill="url(#linear-gradient-15)"/>
                <path id="Trazado_100793" data-name="Trazado 100793" d="M-1358.154,5026.384c.278.37,9.292,29.6,9.292,29.6l-16.8,4.792-12.659-26.433S-1362.8,5020.189-1358.154,5026.384Z" transform="translate(1386.982 -5013.356)" fill="url(#linear-gradient-16)"/>
                <path id="Trazado_100794" data-name="Trazado 100794" d="M-1482.345,4892.245l5.346,13.846a3.167,3.167,0,0,0,.479.834c.9,1.126,3.508,3.78,6.4.94,2.19-2.151,4.254-4.129,6.22-5.117a3.132,3.132,0,0,1,4.384,1.938,94.134,94.134,0,0,1,2.813,12.131,3.148,3.148,0,0,1-2.465,3.547,69.356,69.356,0,0,1-14.615,1.637,3.119,3.119,0,0,1-2.714-1.75c-1.935-3.911-6.794-13.619-8.622-16.205-1.681-2.377-5.477-2.364-7.412-2.182a3.13,3.13,0,0,1-2.443-.834c-1.543-1.448-3.611-4.369-.666-8a3.174,3.174,0,0,0-.189-4.226c-1.63-1.691-2.98-4.393-.406-7.785,2.727-3.594,6.413-3.4,8.9-2.686a3.11,3.11,0,0,0,3.244-1.161,1.6,1.6,0,0,1,1.026-.578,3.113,3.113,0,0,0,2.729-2.95c.064-2.272,1.045-4.913,4.794-6.2,7.326-2.516,12.144,4.492,12.756,9.808s-7.486,7.593-12.293,7.373c-3.331-.152-5.788,2.9-6.983,4.793A3.153,3.153,0,0,0-1482.345,4892.245Z" transform="translate(1497.675 -4866.92)" fill="url(#linear-gradient-17)"/>
                <path id="Trazado_100795" data-name="Trazado 100795" d="M-1431.259,5328.138s-1.463-9.217-5.325-9.559-7.516,2.931-3.538,8.013C-1435.175,5332.913-1431.259,5328.138-1431.259,5328.138Z" transform="translate(1445.895 -5285.777)" fill="url(#linear-gradient-18)"/>
              </g>
              <path id="Trazado_100796" data-name="Trazado 100796" d="M-2418.2,5561.693s-33.586,21.421-40.938,46.29,9.1,29.762,24.771,31.965l1.179-18.99s-10.976,0-3.974-10.38,25.817-17.3,25.817-17.3S-2363.668,5548.3-2418.2,5561.693Z" transform="translate(2460.942 -5508.956)" fill="url(#linear-gradient-19)"/>
              <path id="Trazado_100797" data-name="Trazado 100797" d="M-2164.641,6051.3c-.192,0-4.729-.033-6.258-2.91-1.044-1.963-.4-4.7,1.925-8.145,7-10.377,25.253-17.18,26.027-17.464a.432.432,0,0,1,.555.256.433.433,0,0,1-.256.555c-.187.069-18.766,6.993-25.608,17.137-2.128,3.154-2.76,5.594-1.88,7.252,1.283,2.419,5.453,2.454,5.5,2.454a.432.432,0,0,1,.432.433A.433.433,0,0,1-2164.641,6051.3Z" transform="translate(2192.398 -5938.871)" fill="url(#linear-gradient-20)"/>
              <g id="Grupo_53299" data-name="Grupo 53299" transform="translate(24.794 113.193)">
                <path id="Trazado_100798" data-name="Trazado 100798" d="M-2117.535,6444.321s-4.906-8.11,1.555-17.8l43.375,7.182s20.762-3.514,21.755-3.442,14.544,8.418,14.544,8.418-.455.968-3.68.789-1.108.39-1.108.39l-.117,1.629a4.485,4.485,0,0,1-4.045-1.4c-1.8-1.916-6.806-2.843-6.806-2.843s-10.638,7.861-21.089,4.058Z" transform="translate(2119.319 -6426.521)" fill="url(#linear-gradient-21)"/>
              </g>
            </g>
            <g id="Grupo_53302" data-name="Grupo 53302" transform="translate(47.566 128.397)">
              <g id="Grupo_53301" data-name="Grupo 53301" transform="translate(39.546 5.484)">
                <path id="Trazado_100799" data-name="Trazado 100799" d="M-1258.119,6845.509a2.512,2.512,0,0,1-1.017-.215,2.663,2.663,0,0,1-1.349-3.467l54.03-128.656a2.555,2.555,0,0,1,3.385-1.381,2.663,2.663,0,0,1,1.348,3.466l-54.03,128.657A2.575,2.575,0,0,1-1258.119,6845.509Z" transform="translate(1260.694 -6711.574)" fill="url(#linear-gradient-22)"/>
                <path id="Trazado_100800" data-name="Trazado 100800" d="M-1109.922,6845.5a2.575,2.575,0,0,1-2.368-1.6l-54.03-128.656a2.663,2.663,0,0,1,1.349-3.467,2.553,2.553,0,0,1,3.385,1.381l54.03,128.657a2.663,2.663,0,0,1-1.348,3.467A2.529,2.529,0,0,1-1109.922,6845.5Z" transform="translate(1173.364 -6711.567)" fill="url(#linear-gradient-22)"/>
              </g>
              <path id="Trazado_100801" data-name="Trazado 100801" d="M-1662.612,6639.252a4.81,4.81,0,0,0-.292-2.249c-.263-.626-.655-.989-1.068-.989h-140c-.544,0-1.05.544-1.343,1.444a5.846,5.846,0,0,0-.1,3l1.517,6.454c.348,1.478,1.1,2.424,1.928,2.424h137.042c.77,0,1.433-1.074,1.579-2.561Z" transform="translate(1805.566 -6636.014)" fill="url(#linear-gradient-24)"/>
            </g>
          </g>
        </g>
      </g>
      <g id="Grupo_53306" data-name="Grupo 53306" transform="translate(114.037 22.86)">
        <path id="Trazado_100802" data-name="Trazado 100802" d="M-956.427,4398.105c-18.328,8.75-30.37,26.961-16.137,26.111,26.72-1.6,8.686,13.286,22.739,12.848s35.806-3.434,50.039-18.183.4-18.274-5.371-17.7C-924.151,4403.058-899.015,4370.7-956.427,4398.105Z" transform="translate(978.822 -4387.038)" fill="#c4bdfb"/>
        <path id="Trazado_100803" data-name="Trazado 100803" d="M-755.817,5126.669c.038,2.076,1.565,5.482,4.995,5.419s7.462-3.572,7.424-5.647-2.849-3.707-6.279-3.644S-755.855,5124.594-755.817,5126.669Z" transform="translate(772.003 -5069.395)" fill="#c4bdfb"/>
        <path id="Trazado_100804" data-name="Trazado 100804" d="M-826.745,5262.042a1.884,1.884,0,0,0,1.974,1.784c1.072-.02,3.192-1.088,3.173-2.093a2.511,2.511,0,0,0-2.42-1.99C-825.089,5259.763-826.764,5261.038-826.745,5262.042Z" transform="translate(837.783 -5196.404)" fill="#c4bdfb"/>
      </g>
      <g id="Grupo_53312" data-name="Grupo 53312" transform="translate(135.742 85.04)">
        <g id="Grupo_53310" data-name="Grupo 53310">
          <g id="Grupo_53307" data-name="Grupo 53307">
            <path id="Trazado_100805" data-name="Trazado 100805" d="M-629.284,5374.58c-2.973-7.086-13.744-28.57-32.8-21.936a.291.291,0,0,0,.044.561c4.2.778,19.77,4.71,32.254,21.656A.289.289,0,0,0-629.284,5374.58Z" transform="translate(663.545 -5343.578)" fill="#9b91fa"/>
            <path id="Trazado_100806" data-name="Trazado 100806" d="M-645.662,5493.5c-4.284-4.037-17.039-19.657-33.977-12.52a.2.2,0,0,0,.052.376c4.186.442,24.971,3.075,33.844,12.486C-645.509,5494.09-645.413,5493.732-645.662,5493.5Z" transform="translate(679.76 -5462.052)" fill="#9b91fa"/>
            <path id="Trazado_100807" data-name="Trazado 100807" d="M-418.9,5273.438c-.407-5.341-2.794-25.507-15.781-29.667a.1.1,0,0,0-.118.159c1.565,2.207,12.95,18.513,15.7,29.54A.1.1,0,0,0-418.9,5273.438Z" transform="translate(452.594 -5243.766)" fill="#9b91fa"/>
            <path id="Trazado_100808" data-name="Trazado 100808" d="M-552.9,5636.558a.112.112,0,0,0,.133-.178c-2.294-2.285-11.793-10.684-23.852-6.548C-590.285,5634.518-566.363,5629.255-552.9,5636.558Z" transform="translate(587.892 -5600.766)" fill="#9b91fa"/>
            <path id="Trazado_100809" data-name="Trazado 100809" d="M-232.4,5303.9a.347.347,0,0,1-.684.056c-1.44-6.334-4.494-23.8,4.393-28.246C-218.174,5270.447-230.972,5283.182-232.4,5303.9Z" transform="translate(267.074 -5272.288)" fill="#9b91fa"/>
            <path id="Trazado_100810" data-name="Trazado 100810" d="M-210.693,5533.736c1.493-3.889,7.248-15.968,19.225-9.441a.23.23,0,0,1-.094.432,28.169,28.169,0,0,0-18.745,9.241A.229.229,0,0,1-210.693,5533.736Z" transform="translate(244.753 -5502.173)" fill="#9b91fa"/>
            <path id="Trazado_100811" data-name="Trazado 100811" d="M-206.169,5633.3c.55-2.4,3.416-7.219,17.994-2.807a.076.076,0,0,1-.026.148c-2.865-.3-12.545-.955-17.289,3.073A.42.42,0,0,1-206.169,5633.3Z" transform="translate(240.551 -5600.766)" fill="#9b91fa"/>
          </g>
          <path id="Trazado_100812" data-name="Trazado 100812" d="M-211.212,5737.163l.005-.492v-.529l-.008-1.059-.014-2.117-.062-4.235q-.057-4.235-.153-8.467c-.128-5.644-.29-11.285-.548-16.92s-.6-11.265-1.143-16.873c-.278-2.8-.613-5.6-1.064-8.376a47.333,47.333,0,0,0-1.942-8.191l.252-.1a30.523,30.523,0,0,1,1.4,4.024l.285,1.027c.089.344.166.689.25,1.035l.246,1.036.218,1.042c.563,2.781,1,5.585,1.34,8.4s.609,5.632.84,8.454c.215,2.823.377,5.648.518,8.474q.184,4.24.28,8.481c.044,2.828.088,5.656.072,8.483s-.046,5.655-.117,8.481l-.15,4.239-.093,2.12-.063,1.059-.035.53c-.016.179-.02.343-.055.566Z" transform="translate(249.79 -5638.879)" fill="#9b91fa"/>
          <g id="Grupo_53308" data-name="Grupo 53308" transform="translate(30.683 27.589)">
            <path id="Trazado_100813" data-name="Trazado 100813" d="M-80.523,5711.521c1.992-4.747,9.207-19.139,21.971-14.694a.2.2,0,0,1-.03.375c-2.815.521-13.244,3.155-21.607,14.507A.194.194,0,0,1-80.523,5711.521Z" transform="translate(93.347 -5690.754)" fill="#9b91fa"/>
            <path id="Trazado_100814" data-name="Trazado 100814" d="M-80.062,5791.183c2.87-2.7,11.414-13.168,22.761-8.386a.131.131,0,0,1-.035.251c-2.8.3-16.728,2.06-22.672,8.364C-80.165,5791.58-80.229,5791.34-80.062,5791.183Z" transform="translate(92.995 -5770.119)" fill="#9b91fa"/>
            <path id="Trazado_100815" data-name="Trazado 100815" d="M-75.094,5643.767c.273-3.578,1.871-17.087,10.571-19.874a.07.07,0,0,1,.079.106c-1.048,1.479-8.675,12.4-10.515,19.789A.069.069,0,0,1-75.094,5643.767Z" transform="translate(88.297 -5623.89)" fill="#9b91fa"/>
            <path id="Trazado_100816" data-name="Trazado 100816" d="M-88.456,5887.019a.075.075,0,0,1-.089-.119c1.537-1.531,7.9-7.158,15.979-4.387C-63.414,5885.651-79.439,5882.126-88.456,5887.019Z" transform="translate(100.793 -5863.042)" fill="#9b91fa"/>
            <path id="Trazado_100817" data-name="Trazado 100817" d="M-151.076,5664.17a.232.232,0,0,0,.458.038c.965-4.244,3.01-15.945-2.943-18.921C-160.606,5641.764-152.033,5650.294-151.076,5664.17Z" transform="translate(163.624 -5642.997)" fill="#9b91fa"/>
            <path id="Trazado_100818" data-name="Trazado 100818" d="M-244.045,5818.14c-1-2.606-4.855-10.7-12.878-6.325a.154.154,0,0,0,.063.289,18.874,18.874,0,0,1,12.557,6.19A.153.153,0,0,0-244.045,5818.14Z" transform="translate(257.004 -5796.996)" fill="#9b91fa"/>
            <path id="Trazado_100819" data-name="Trazado 100819" d="M-235.934,5884.838c-.369-1.609-2.288-4.836-12.054-1.88a.051.051,0,0,0,.018.1c1.919-.2,8.4-.64,11.582,2.059A.281.281,0,0,0-235.934,5884.838Z" transform="translate(248.677 -5863.041)" fill="#9b91fa"/>
          </g>
          <path id="Trazado_100820" data-name="Trazado 100820" d="M-112.16,5954.327c-.029-.178-.03-.3-.041-.433l-.025-.4-.045-.793c-.03-.527-.048-1.056-.069-1.584l-.1-3.17c-.069-2.114-.075-4.229-.089-6.343s-.008-4.229.033-6.345.1-4.23.186-6.344.207-4.228.356-6.34.351-4.223.612-6.327l.2-1.578.241-1.573c.17-1.048.348-2.095.576-3.133q.156-.781.354-1.556c.066-.258.126-.516.2-.773l.222-.768a22.153,22.153,0,0,1,1.087-3l.252.1a29.066,29.066,0,0,0-.822,3.033l-.164.769c-.051.257-.092.517-.138.775l-.141.774-.123.778c-.081.52-.163,1.037-.227,1.559s-.15,1.04-.206,1.563c-.125,1.044-.236,2.09-.345,3.136-.4,4.19-.7,8.4-.9,12.607s-.346,8.43-.454,12.65c-.056,2.11-.071,4.221-.116,6.331l-.039,3.167-.01,1.583,0,.791,0,.753Z" transform="translate(153.704 -5855.958)" fill="#9b91fa"/>
          <g id="Grupo_53309" data-name="Grupo 53309" transform="translate(8.077 38.128)">
            <path id="Trazado_100821" data-name="Trazado 100821" d="M-547.213,5877.413c-2.545-4.154-11.252-16.555-21.186-10.279a.194.194,0,0,0,.094.35c2.465.033,11.728.817,20.845,10.163C-547.312,5877.8-547.1,5877.6-547.213,5877.413Z" transform="translate(568.479 -5858.405)" fill="#9b91fa"/>
            <path id="Trazado_100822" data-name="Trazado 100822" d="M-541.094,5951.717c-2.911-2.083-12.018-10.562-20.7-4.2a.13.13,0,0,0,.075.231c2.415-.178,14.461-.785,20.618,4.193C-540.934,5952.075-540.924,5951.839-541.094,5951.717Z" transform="translate(562.322 -5932.411)" fill="#9b91fa"/>
            <path id="Trazado_100823" data-name="Trazado 100823" d="M-443.125,5802.7c-.884-3.331-4.7-15.816-12.534-17.026-.057-.009-.09.068-.047.113,1.153,1.224,9.572,10.285,12.471,16.955A.059.059,0,1,0-443.125,5802.7Z" transform="translate(463.91 -5784.473)" fill="#9b91fa"/>
            <path id="Trazado_100824" data-name="Trazado 100824" d="M-469.757,6029.622c.072.026.117-.08.054-.127-1.574-1.194-7.96-5.464-14.256-1.532C-491.091,6032.417-478.243,6026.477-469.757,6029.622Z" transform="translate(492.019 -6007.664)" fill="#9b91fa"/>
            <path id="Trazado_100825" data-name="Trazado 100825" d="M-315.283,5788.445a.2.2,0,0,1-.379.111c-1.588-3.847-5.45-14.554-.982-18.333C-311.355,5765.749-317.014,5775.2-315.283,5788.445Z" transform="translate(336.855 -5769.098)" fill="#9b91fa"/>
            <path id="Trazado_100826" data-name="Trazado 100826" d="M-276.112,5925.721c.366-2.622,2.133-10.885,9.687-8.069a.153.153,0,0,1,0,.283,15.487,15.487,0,0,0-9.441,7.889C-275.938,5925.962-276.134,5925.88-276.112,5925.721Z" transform="translate(297.333 -5906.334)" fill="#9b91fa"/>
            <path id="Trazado_100827" data-name="Trazado 100827" d="M-271.928,5993.194c.016-1.579,1.042-4.937,9.806-3.741.053.007.056.092,0,.1-1.652.125-7.193.767-9.376,3.833A.246.246,0,0,1-271.928,5993.194Z" transform="translate(293.451 -5973.227)" fill="#9b91fa"/>
          </g>
          <path id="Trazado_100828" data-name="Trazado 100828" d="M-269.893,6072.611l-.248-1.3-.264-1.336-.541-2.669-1.118-5.33q-.571-2.661-1.178-5.314-.591-2.657-1.223-5.3-1.271-5.29-2.772-10.514l-.381-1.3-.4-1.3c-.265-.865-.535-1.729-.834-2.581a37.777,37.777,0,0,0-2.059-5l.233-.139a20.75,20.75,0,0,1,1.328,2.4c.2.412.4.825.57,1.248s.355.843.517,1.269q1,2.55,1.8,5.168c1.07,3.484,1.942,7.02,2.771,10.562q.615,2.659,1.187,5.325.55,2.672,1.063,5.35c.341,1.785.677,3.572.976,5.365l.445,2.69.21,1.348.1.675.047.338c.013.115.033.216.041.373Z" transform="translate(309.854 -5973.421)" fill="#9b91fa"/>
        </g>
        <g id="Grupo_53311" data-name="Grupo 53311" transform="translate(32.268 81.527)">
          <path id="Trazado_100829" data-name="Trazado 100829" d="M-233.782,6367.073h11.6c.761,0,1.323,1.146,1.152,2.347a86.27,86.27,0,0,1-3.453,15.864c-.336.991-.977,1.613-1.675,1.613h-3.787c-.688,0-1.319-.612-1.645-1.593a77.748,77.748,0,0,1-3.555-15.565C-235.3,6368.355-234.651,6367.073-233.782,6367.073Z" transform="translate(235.164 -6367.073)" fill="url(#linear-gradient-25)"/>
        </g>
      </g>
    </g>
    <g id="Grupo_53315" data-name="Grupo 53315" transform="translate(-2420.038 3877.942)">
      <g id="Grupo_53314" data-name="Grupo 53314" transform="translate(0 0)">
        <path id="Trazado_100830" data-name="Trazado 100830" d="M-743.823,3934.822a18.928,18.928,0,0,1-.358-14.878c3.555-8.086,13.336-11.387,12.616-20.551a7.423,7.423,0,0,0-2.721-5.36c-3.981-3.144-10.387-1.479-14.959.716a28.651,28.651,0,0,0-8.135,5.968l-1.272-16.186a37.491,37.491,0,0,1,18.756-6.451c13.582-1.067,24.07,4.026,25.137,17.612.974,12.39-7.4,17.879-13.016,24.073-3.118,3.438-3.822,6.086-3.581,9.154a9.755,9.755,0,0,0,1.676,4.793Zm9.752,22.134c-13.2,1.038-14.73-16.7-1.394-17.746C-722.329,3938.178-720.92,3955.923-734.071,3956.956Z" transform="translate(758.651 -3877.942)" fill="#a737d5"/>
      </g>
    </g>
  </g>
</svg>
