<svg xmlns="http://www.w3.org/2000/svg" width="243.175" height="222.549" viewBox="0 0 243.175 222.549">
  <g id="Grupo_53376" data-name="Grupo 53376" transform="translate(-4520.461 -5763.472)">
    <g id="Grupo_53373" data-name="Grupo 53373" transform="translate(4551.077 5763.472)">
      <circle id="Elipse_3972" data-name="Elipse 3972" cx="61.953" cy="61.953" r="61.953" transform="translate(7.62 35.997)" fill="#c292f9"/>
      <path id="Trazado_100974" data-name="Trazado 100974" d="M4961.2,6216.475a60.34,60.34,0,1,1,32.326-78.974A60.409,60.409,0,0,1,4961.2,6216.475Z" transform="translate(-4868.304 -6062.875)" fill="#c292f9"/>
      <circle id="Elipse_3973" data-name="Elipse 3973" cx="49.274" cy="49.274" r="49.274" transform="translate(0 98.213) rotate(-45)" fill="#fff"/>
      <path id="Trazado_100975" data-name="Trazado 100975" d="M5064.556,6312.661a46.707,46.707,0,1,1,25.024-61.131A46.76,46.76,0,0,1,5064.556,6312.661Z" transform="translate(-4976.918 -6171.608)" fill="#fff"/>
      <g id="Grupo_53368" data-name="Grupo 53368" transform="translate(22.1 50.493)">
        <path id="Trazado_100976" data-name="Trazado 100976" d="M5002.079,6759.276l-7.712,3.233a2.492,2.492,0,1,0,1.926,4.6l7.712-3.232a2.492,2.492,0,1,0-1.926-4.6Z" transform="translate(-4992.837 -6698.467)" fill="#c292f9"/>
        <path id="Trazado_100977" data-name="Trazado 100977" d="M5537.53,6953.321a2.5,2.5,0,0,0-1.334,3.262l3.232,7.712a2.492,2.492,0,0,0,4.6-1.926l-3.233-7.713A2.5,2.5,0,0,0,5537.53,6953.321Z" transform="translate(-5475.385 -6870.856)" fill="#c292f9"/>
        <path id="Trazado_100978" data-name="Trazado 100978" d="M5739.285,6450.305l-7.713,3.232a2.492,2.492,0,0,0,1.927,4.6l7.713-3.233a2.492,2.492,0,0,0-1.927-4.6Z" transform="translate(-5647.771 -6423.976)" fill="#c292f9"/>
        <path id="Trazado_100979" data-name="Trazado 100979" d="M5228.558,6216.114a2.5,2.5,0,0,0-1.335,3.262l3.232,7.713a2.492,2.492,0,1,0,4.6-1.927l-3.232-7.712A2.5,2.5,0,0,0,5228.558,6216.114Z" transform="translate(-5200.894 -6215.921)" fill="#c292f9"/>
      </g>
      <g id="Grupo_53369" data-name="Grupo 53369" transform="translate(67.091 18.572)">
        <path id="Trazado_100980" data-name="Trazado 100980" d="M5395.992,5941.029l.688-9.781a1.457,1.457,0,0,1,1.555-1.352l11.221.789a1.458,1.458,0,0,1,1.352,1.556l-.688,9.781a1.457,1.457,0,0,1-1.557,1.352l-11.218-.788A1.459,1.459,0,0,1,5395.992,5941.029Z" transform="translate(-5395.988 -5929.893)" fill="#c292f9"/>
      </g>
      <g id="Grupo_53370" data-name="Grupo 53370" transform="translate(6.159 41.601)">
        <path id="Trazado_100981" data-name="Trazado 100981" d="M4867.16,6142.961l-7.456-6.368a1.456,1.456,0,0,0-2.054.162l-7.305,8.553a1.456,1.456,0,0,0,.161,2.053l7.456,6.369a1.459,1.459,0,0,0,2.056-.162l7.3-8.552A1.459,1.459,0,0,0,4867.16,6142.961Z" transform="translate(-4849.996 -6136.244)" fill="#c292f9"/>
      </g>
      <g id="Grupo_53371" data-name="Grupo 53371" transform="translate(18.481 0)">
        <path id="Trazado_100982" data-name="Trazado 100982" d="M5074.15,5934.949a1.421,1.421,0,0,1-1.857-.76l-2.728-6.51a1.419,1.419,0,0,1,.759-1.857l13.285-5.568a1.421,1.421,0,0,1,1.856.761l2.729,6.509a1.422,1.422,0,0,1-.759,1.857Z" transform="translate(-5057.285 -5902.66)" fill="#c292f9"/>
        <path id="Trazado_100983" data-name="Trazado 100983" d="M4980.761,5798.108a15.5,15.5,0,1,1,9.025-3.775l1.479,3.529a19.18,19.18,0,1,0-9.022,3.781Z" transform="translate(-4960.407 -5763.472)" fill="#c292f9"/>
        <path id="Trazado_100984" data-name="Trazado 100984" d="M5146.88,6030.285q2.326-.975,4.682-1.75l-3.937-9.393-7.339,3.076,3.889,9.275Q5145.507,6030.862,5146.88,6030.285Z" transform="translate(-5120.212 -5990.609)" fill="#c292f9"/>
      </g>
      <g id="Grupo_53372" data-name="Grupo 53372" transform="translate(65.033 60.735)">
        <path id="Trazado_100985" data-name="Trazado 100985" d="M5386.283,6602.641a4.544,4.544,0,1,1-5.947-2.435A4.544,4.544,0,0,1,5386.283,6602.641Z" transform="translate(-5377.546 -6567.249)" fill="#c292f9"/>
        <path id="Trazado_100986" data-name="Trazado 100986" d="M5408.6,6307.7l-3.245,37.339a1.71,1.71,0,0,1-3.406-.3C5401.966,6344.6,5401.68,6346.242,5408.6,6307.7Z" transform="translate(-5399.224 -6307.7)" fill="#c292f9"/>
        <path id="Trazado_100987" data-name="Trazado 100987" d="M5438.395,6646.489l-33.493-16.82a1.709,1.709,0,1,1,1.534-3.056C5406.569,6626.68,5405.146,6625.8,5438.395,6646.489Z" transform="translate(-5401.011 -6590.861)" fill="#c292f9"/>
        <path id="Trazado_100988" data-name="Trazado 100988" d="M5405.2,6625.078a1.857,1.857,0,1,1-2.43-.995A1.856,1.856,0,0,1,5405.2,6625.078Z" transform="translate(-5398.946 -6588.646)" fill="#c292f9"/>
      </g>
    </g>
    <g id="Grupo_53375" data-name="Grupo 53375" transform="translate(4654.668 5768.33)">
      <g id="Grupo_53374" data-name="Grupo 53374" transform="translate(0 0)">
        <path id="Trazado_100989" data-name="Trazado 100989" d="M5750.6,5949.963c-4.1-10.638-4.24-26.044,2.056-37.761,10.614-19.776,36.049-26.189,36.049-49.548a18.859,18.859,0,0,0-5.827-14.119c-9.459-8.755-26.017-5.816-38.035-1.166a72.812,72.812,0,0,0-21.8,13.5v-41.256c14.677-8.772,31.9-12.609,48.8-12.609,34.617,0,60.171,14.992,60.171,49.619,0,31.58-22.3,43.818-37.765,58.39-8.582,8.089-10.894,14.658-10.894,22.477,0,4.042,1.118,9.122,3.291,12.474Zm20.3,58.011c-33.648,0-33.991-45.231,0-45.231C5804.382,5962.743,5804.419,6007.975,5770.9,6007.975Z" transform="translate(-5723.051 -5807.005)" fill="#a737d5"/>
      </g>
    </g>
    <text id="_48" data-name="48" transform="translate(4520.461 5958.021)" fill="#611087" font-size="111" font-family="Montserrat-Black, Montserrat" font-weight="800"><tspan x="0" y="0">48</tspan></text>
  </g>
</svg>
