<svg xmlns="http://www.w3.org/2000/svg" xmlns:xlink="http://www.w3.org/1999/xlink" width="189.172" height="213.501" viewBox="0 0 189.172 213.501">
  <defs>
    <linearGradient id="linear-gradient" x1="1.003" y1="1.087" x2="0.095" y2="0.056" gradientUnits="objectBoundingBox">
      <stop offset="0" stop-color="#e5dafe"/>
      <stop offset="1" stop-color="#efe9fd"/>
    </linearGradient>
    <linearGradient id="linear-gradient-2" x1="8.686" y1="-4.504" x2="4.913" y2="1.113" gradientUnits="objectBoundingBox">
      <stop offset="0" stop-color="#77fd3f"/>
      <stop offset="1" stop-color="#d9683c"/>
    </linearGradient>
    <linearGradient id="linear-gradient-3" x1="5.514" y1="-6.095" x2="3.429" y2="0.351" xlink:href="#linear-gradient-2"/>
    <linearGradient id="linear-gradient-4" x1="14.166" y1="-7.483" x2="10.279" y2="-1.269" gradientUnits="objectBoundingBox">
      <stop offset="0" stop-color="#d5376e"/>
      <stop offset="1" stop-color="#ef7549"/>
    </linearGradient>
    <linearGradient id="linear-gradient-5" x1="15.213" y1="-8.588" x2="11.327" y2="-2.374" xlink:href="#linear-gradient-4"/>
    <linearGradient id="linear-gradient-6" x1="16.148" y1="-8.551" x2="11.034" y2="-1.872" xlink:href="#linear-gradient-4"/>
    <linearGradient id="linear-gradient-7" x1="17.309" y1="-10.797" x2="13.423" y2="-4.584" xlink:href="#linear-gradient-4"/>
    <linearGradient id="linear-gradient-8" x1="-11.373" y1="-3.47" x2="-16.335" y2="1.857" xlink:href="#linear-gradient-4"/>
    <linearGradient id="linear-gradient-9" x1="0.5" y1="0.941" x2="0.429" y2="-0.71" gradientUnits="objectBoundingBox">
      <stop offset="0" stop-color="#41005d"/>
      <stop offset="1" stop-color="#670f91"/>
    </linearGradient>
    <linearGradient id="linear-gradient-10" x1="-0.196" y1="-0.712" x2="2.177" y2="3.418" gradientUnits="objectBoundingBox">
      <stop offset="0" stop-color="#ffbe8e"/>
      <stop offset="1" stop-color="#feac62"/>
    </linearGradient>
    <linearGradient id="linear-gradient-11" x1="-0.196" y1="-2.376" x2="1.09" y2="3.529" xlink:href="#linear-gradient-10"/>
    <linearGradient id="linear-gradient-12" x1="-0.897" y1="-0.736" x2="7.16" y2="6.41" gradientUnits="objectBoundingBox">
      <stop offset="0" stop-color="#ad4fff"/>
      <stop offset="1" stop-color="#9840e2"/>
    </linearGradient>
    <linearGradient id="linear-gradient-13" x1="-3.047" y1="-2.642" x2="5.01" y2="4.503" xlink:href="#linear-gradient-12"/>
    <linearGradient id="linear-gradient-14" x1="2.578" y1="-2.211" x2="-1.787" y2="3.403" xlink:href="#linear-gradient-12"/>
    <linearGradient id="linear-gradient-15" x1="3.377" y1="-3.239" x2="-0.988" y2="2.375" xlink:href="#linear-gradient-12"/>
    <linearGradient id="linear-gradient-16" x1="4.049" y1="-3.235" x2="-1.695" y2="2.799" xlink:href="#linear-gradient-12"/>
    <linearGradient id="linear-gradient-17" x1="4.975" y1="-5.294" x2="0.61" y2="0.32" xlink:href="#linear-gradient-12"/>
    <linearGradient id="linear-gradient-18" x1="1.519" y1="-0.775" x2="-1.484" y2="2.907" gradientUnits="objectBoundingBox">
      <stop offset="0" stop-color="#512b82"/>
      <stop offset="1" stop-color="#360e42"/>
    </linearGradient>
    <linearGradient id="linear-gradient-19" x1="1.004" y1="-2.464" x2="-0.074" y2="4.125" xlink:href="#linear-gradient-18"/>
    <linearGradient id="linear-gradient-20" x1="-0.301" y1="1.165" x2="2.009" y2="-0.739" xlink:href="#linear-gradient-10"/>
    <linearGradient id="linear-gradient-21" x1="0.727" y1="-2.869" x2="0.282" y2="3.71" xlink:href="#linear-gradient-12"/>
    <linearGradient id="linear-gradient-22" x1="-26.866" y1="0.5" x2="-25.847" y2="0.5" gradientUnits="objectBoundingBox">
      <stop offset="0" stop-color="#3d0056"/>
      <stop offset="1" stop-color="#220039"/>
    </linearGradient>
    <linearGradient id="linear-gradient-23" x1="-0.757" y1="-8.611" x2="1.326" y2="6.389" xlink:href="#linear-gradient-22"/>
    <linearGradient id="linear-gradient-24" x1="-64.925" y1="0.5" x2="-63.925" y2="0.5" xlink:href="#linear-gradient-22"/>
    <linearGradient id="linear-gradient-25" x1="-4.222" y1="-41.409" x2="0.364" y2="-1.05" xlink:href="#linear-gradient-22"/>
    <linearGradient id="linear-gradient-26" x1="-99.299" y1="0.5" x2="-98.299" y2="0.5" gradientUnits="objectBoundingBox">
      <stop offset="0" stop-color="#fed5ba"/>
      <stop offset="1" stop-color="#ffbe8e"/>
    </linearGradient>
    <linearGradient id="linear-gradient-27" x1="-106.627" y1="0.5" x2="-105.627" y2="0.5" xlink:href="#linear-gradient-26"/>
    <linearGradient id="linear-gradient-28" x1="3.088" y1="1.345" x2="0.616" y2="0.582" xlink:href="#linear-gradient-22"/>
    <linearGradient id="linear-gradient-29" x1="-146.569" y1="-3.524" x2="-152.306" y2="3.756" gradientUnits="objectBoundingBox">
      <stop offset="0" stop-color="#cb4623"/>
      <stop offset="1" stop-color="#6d244b"/>
    </linearGradient>
    <linearGradient id="linear-gradient-30" x1="-0.125" y1="-1.058" x2="1.981" y2="3.849" xlink:href="#linear-gradient-12"/>
    <linearGradient id="linear-gradient-31" x1="-50.356" y1="-0.197" x2="-50.136" y2="-1.202" xlink:href="#linear-gradient-26"/>
    <linearGradient id="linear-gradient-32" x1="-34.705" y1="-0.983" x2="-35.757" y2="-0.232" xlink:href="#linear-gradient-26"/>
    <linearGradient id="linear-gradient-33" x1="-0.098" y1="0.38" x2="2.001" y2="0.905" xlink:href="#linear-gradient-22"/>
    <linearGradient id="linear-gradient-34" x1="-146.014" y1="-5.499" x2="-150.335" y2="-2.918" xlink:href="#linear-gradient-26"/>
    <linearGradient id="linear-gradient-35" x1="-3.928" y1="-0.928" x2="-5.15" y2="2.291" xlink:href="#linear-gradient-10"/>
    <linearGradient id="linear-gradient-36" x1="0.074" y1="-0.378" x2="0.807" y2="1.194" xlink:href="#linear-gradient-10"/>
    <linearGradient id="linear-gradient-37" x1="-0.269" y1="-2.098" x2="2.525" y2="7.338" xlink:href="#linear-gradient-10"/>
    <linearGradient id="linear-gradient-38" x1="-0.698" y1="-0.996" x2="2.189" y2="2.626" xlink:href="#linear-gradient-12"/>
    <linearGradient id="linear-gradient-39" x1="0.031" y1="0.767" x2="1.654" y2="-0.248" xlink:href="#linear-gradient-26"/>
  </defs>
  <g id="Grupo_53367" data-name="Grupo 53367" transform="translate(-1069.379 -4482.876)">
    <g id="Grupo_53364" data-name="Grupo 53364" transform="translate(1069.379 4508.953)">
      <path id="Trazado_100831" data-name="Trazado 100831" d="M1264.221,5028.3c-34.166,36.054-86.646,25.388-94.4,23.674-9.773-2.159-33.024-7.3-50.375-27.582-26.564-31.056-23.882-79.591-3.366-112.312,5.969-9.521,26.058-37.816,63.784-43.969,2.2-.359,41.6-6.135,73.3,20.459a86.819,86.819,0,0,1,17.218,19.536C1289.128,4937.443,1298,4992.653,1264.221,5028.3Z" transform="translate(-1098.019 -4867.345)" fill="url(#linear-gradient)"/>
      <g id="Grupo_53329" data-name="Grupo 53329" transform="translate(63.65 7.148)">
        <path id="Trazado_100832" data-name="Trazado 100832" d="M2036.329,4975.275a3.17,3.17,0,0,1,4.171-2.353c12.05,4.3,53.609,18.489,89.447,23.215a2.931,2.931,0,0,1,2.519,3.356l-20.849,133.764a3.374,3.374,0,0,1-3.834,2.818c-15.018-2.248-76.819-11.729-98.126-18.6a2.673,2.673,0,0,1-1.795-3.082Z" transform="translate(-2007.808 -4972.737)" fill="#ad91fa"/>
        <path id="Trazado_100833" data-name="Trazado 100833" d="M2062.331,5030a3.052,3.052,0,0,1,4.014-2.265c11.6,4.135,51.59,17.793,86.079,22.341a2.821,2.821,0,0,1,2.424,3.23l-20.064,128.727a3.247,3.247,0,0,1-3.689,2.712c-14.452-2.164-73.926-11.288-94.431-17.9a2.573,2.573,0,0,1-1.727-2.966Z" transform="translate(-2033.048 -5023.842)" fill="#fff" opacity="0.6"/>
        <path id="Trazado_100834" data-name="Trazado 100834" d="M2512.345,5219.336a1.885,1.885,0,0,0-2.314,1.527l-4.484,27.559a1.773,1.773,0,0,0,1.335,2.01c5.024,1.208,20.694,4.912,29.684,6.322a1.98,1.98,0,0,0,2.23-1.486c1.249-5.083,4.759-19.9,4.905-26.375a2.235,2.235,0,0,0-1.7-2.217Z" transform="translate(-2471.766 -5202.559)" fill="#fff" opacity="0.78"/>
        <circle id="Elipse_3969" data-name="Elipse 3969" cx="5.996" cy="5.996" r="5.996" transform="matrix(0.361, -0.932, 0.932, 0.361, 45.643, 35.111)" fill="url(#linear-gradient-2)"/>
        <path id="Trazado_100835" data-name="Trazado 100835" d="M2593.333,5577.16l18.691,3.939a1.479,1.479,0,0,0,1.686-1.975,12.328,12.328,0,0,0-9.4-8.216,13.317,13.317,0,0,0-11.71,3.61A1.546,1.546,0,0,0,2593.333,5577.16Z" transform="translate(-2552.475 -5530.127)" fill="url(#linear-gradient-3)"/>
        <g id="Grupo_53317" data-name="Grupo 53317" transform="translate(79.28 27.057)" opacity="0.6">
          <path id="Trazado_100836" data-name="Trazado 100836" d="M3209.916,5381.033a.989.989,0,0,0,1.231-.7,1.083,1.083,0,0,0-.894-1.164l-32.638-7.489a.707.707,0,0,0-.918.835l.063.478a1.649,1.649,0,0,0,1.206,1.3Z" transform="translate(-3176.687 -5371.656)" fill="#fff"/>
        </g>
        <g id="Grupo_53318" data-name="Grupo 53318" transform="translate(78.208 32.145)" opacity="0.6">
          <path id="Trazado_100837" data-name="Trazado 100837" d="M3161.805,5446.7a.707.707,0,0,0-.918.835l.063.479a1.65,1.65,0,0,0,1.206,1.3l31.95,6.733a.988.988,0,0,0,1.23-.7,1.083,1.083,0,0,0-.894-1.165Z" transform="translate(-3160.877 -5446.669)" fill="#fff"/>
        </g>
        <g id="Grupo_53319" data-name="Grupo 53319" transform="translate(77.12 37.307)" opacity="0.6">
          <path id="Trazado_100838" data-name="Trazado 100838" d="M3145.766,5522.8a.707.707,0,0,0-.918.835l.063.478a1.651,1.651,0,0,0,1.207,1.3l31.95,6.733a.988.988,0,0,0,1.23-.7,1.083,1.083,0,0,0-.894-1.164Z" transform="translate(-3144.838 -5522.773)" fill="#fff"/>
        </g>
        <g id="Grupo_53320" data-name="Grupo 53320" transform="translate(31.248 53.574)" opacity="0.6">
          <path id="Trazado_100839" data-name="Trazado 100839" d="M2545.551,5781.288a.946.946,0,0,0,1.2-.7,1.12,1.12,0,0,0-.93-1.161l-76.623-16.78c-.584-.128-.843.205-.575.739l.461.92a2.565,2.565,0,0,0,1.552,1.2Z" transform="translate(-2468.514 -5762.615)" fill="#fff"/>
        </g>
        <g id="Grupo_53321" data-name="Grupo 53321" transform="translate(30.175 58.662)" opacity="0.6">
          <path id="Trazado_100840" data-name="Trazado 100840" d="M2453.385,5837.656c-.585-.128-.843.205-.575.74l.461.92a2.559,2.559,0,0,0,1.552,1.2l74.918,15.79a.946.946,0,0,0,1.2-.7,1.119,1.119,0,0,0-.93-1.161Z" transform="translate(-2452.705 -5837.629)" fill="#fff"/>
        </g>
        <path id="Trazado_100841" data-name="Trazado 100841" d="M2401.067,5962.053c1.875.248,5.344.911,7.252,1.285a1.761,1.761,0,0,1,1.424,1.677,28.728,28.728,0,0,1-.658,7.136,1.564,1.564,0,0,1-1.861,1.173l-7-1.555a1.722,1.722,0,0,1-1.338-1.878l.774-6.734A1.256,1.256,0,0,1,2401.067,5962.053Z" transform="translate(-2372.348 -5894.941)" fill="#fff" opacity="0.6"/>
        <g id="Grupo_53322" data-name="Grupo 53322" transform="translate(39.941 72.526)" opacity="0.6">
          <path id="Trazado_100842" data-name="Trazado 100842" d="M2597.879,6042.074a.865.865,0,0,0-1.118.817l-.069,1.167a1.307,1.307,0,0,0,1,1.311l17.049,3.593a1.075,1.075,0,0,0,1.275-.843l.057-.289a1.165,1.165,0,0,0-.843-1.335Z" transform="translate(-2596.691 -6042.042)" fill="#fff"/>
        </g>
        <path id="Trazado_100843" data-name="Trazado 100843" d="M2964.911,6080.887c1.875.248,5.345.91,7.252,1.285a1.762,1.762,0,0,1,1.424,1.677,28.71,28.71,0,0,1-.658,7.136,1.565,1.565,0,0,1-1.86,1.173l-7-1.555a1.723,1.723,0,0,1-1.338-1.879l.775-6.733A1.256,1.256,0,0,1,2964.911,6080.887Z" transform="translate(-2897.948 -6005.716)" fill="#fff" opacity="0.6"/>
        <g id="Grupo_53323" data-name="Grupo 53323" transform="translate(78.185 80.586)" opacity="0.6">
          <path id="Trazado_100844" data-name="Trazado 100844" d="M3161.723,6160.908a.866.866,0,0,0-1.118.817l-.069,1.168a1.306,1.306,0,0,0,1,1.31l17.049,3.593a1.075,1.075,0,0,0,1.275-.843l.057-.289a1.165,1.165,0,0,0-.843-1.335Z" transform="translate(-3160.535 -6160.875)" fill="#fff"/>
        </g>
        <g id="Grupo_53328" data-name="Grupo 53328" transform="translate(16.369 84.35)">
          <path id="Trazado_100845" data-name="Trazado 100845" d="M2386.519,6242.312l-.018,0-6.464-1.428a1.779,1.779,0,0,1-1.465-1.855l.576-5.555a1.2,1.2,0,0,1,.466-.83,1.453,1.453,0,0,1,1.094-.28h0c.553.077,1.336.174,2.164.276,1.744.215,3.915.483,5.117.721a1.851,1.851,0,0,1,1.547,1.651,27.779,27.779,0,0,1-1.048,6.177A1.635,1.635,0,0,1,2386.519,6242.312Zm-5.881-9.447a.941.941,0,0,0-.71.177.7.7,0,0,0-.274.481l-.576,5.555a1.273,1.273,0,0,0,1.069,1.307l6.464,1.428.013,0a1.128,1.128,0,0,0,1.371-.747,27.645,27.645,0,0,0,1.034-6.031,1.367,1.367,0,0,0-1.137-1.181c-1.185-.234-3.345-.5-5.081-.715-.83-.1-1.615-.2-2.173-.277Z" transform="translate(-2369.785 -6231.262)" fill="#fff"/>
          <path id="Trazado_100846" data-name="Trazado 100846" d="M2397.3,6250.285c1.381.193,4.4.517,5.808.795a1.281,1.281,0,0,1,1.072,1.132,22.468,22.468,0,0,1-.832,4.877,1.1,1.1,0,0,1-1.347.746l-5.166-1.141a1.222,1.222,0,0,1-1.012-1.264l.46-4.439A.859.859,0,0,1,2397.3,6250.285Z" transform="translate(-2385.868 -6247.975)" fill="#fff" opacity="0.6"/>
          <g id="Grupo_53324" data-name="Grupo 53324" transform="translate(23.181 6.913)" opacity="0.6">
            <path id="Trazado_100847" data-name="Trazado 100847" d="M2590.922,6320.021a1.644,1.644,0,0,0,1.317,1.528l60.041,12.12a1.243,1.243,0,0,0,.508-2.433l-59.878-12.905A1.644,1.644,0,0,0,2590.922,6320.021Z" transform="translate(-2590.92 -6318.293)" fill="#fff"/>
          </g>
          <path id="Trazado_100848" data-name="Trazado 100848" d="M2409.122,6219.585h0a1.016,1.016,0,0,1,1.293.663l.8,2.56a.326.326,0,0,0,.575.095l4.656-6.387a.362.362,0,0,1,.644.295,14.236,14.236,0,0,1-6.1,8.84s-1.744-1.139-2.566-4.822A1.067,1.067,0,0,1,2409.122,6219.585Z" transform="translate(-2397.595 -6216.365)" fill="url(#linear-gradient-4)"/>
          <path id="Trazado_100849" data-name="Trazado 100849" d="M2343.379,6447l-.018,0-6.464-1.428a1.779,1.779,0,0,1-1.465-1.855l.576-5.555a1.208,1.208,0,0,1,.466-.83,1.454,1.454,0,0,1,1.094-.28h0c.553.078,1.336.174,2.164.276,1.744.215,3.914.483,5.117.721l.026,0a1.847,1.847,0,0,1,1.52,1.646,27.767,27.767,0,0,1-1.047,6.177A1.636,1.636,0,0,1,2343.379,6447Zm-5.881-9.448a.945.945,0,0,0-.71.177.7.7,0,0,0-.274.481l-.576,5.555a1.273,1.273,0,0,0,1.069,1.307l6.465,1.428.013,0a1.128,1.128,0,0,0,1.37-.746,27.658,27.658,0,0,0,1.034-6.031,1.359,1.359,0,0,0-1.138-1.181c-1.185-.234-3.345-.5-5.081-.715-.83-.1-1.615-.2-2.173-.278Z" transform="translate(-2329.572 -6422.067)" fill="#fff"/>
          <path id="Trazado_100850" data-name="Trazado 100850" d="M2354.159,6454.974c1.38.194,4.4.518,5.808.795a1.282,1.282,0,0,1,1.073,1.132,22.529,22.529,0,0,1-.832,4.878,1.1,1.1,0,0,1-1.347.745l-5.166-1.141a1.223,1.223,0,0,1-1.013-1.264l.46-4.438A.859.859,0,0,1,2354.159,6454.974Z" transform="translate(-2345.654 -6438.781)" fill="#fff" opacity="0.6"/>
          <g id="Grupo_53325" data-name="Grupo 53325" transform="translate(20.255 20.797)" opacity="0.6">
            <path id="Trazado_100851" data-name="Trazado 100851" d="M2547.784,6524.709a1.644,1.644,0,0,0,1.316,1.529l60.041,12.12a1.243,1.243,0,0,0,.508-2.433l-59.878-12.905A1.644,1.644,0,0,0,2547.784,6524.709Z" transform="translate(-2547.781 -6522.982)" fill="#fff"/>
          </g>
          <path id="Trazado_100852" data-name="Trazado 100852" d="M2365.982,6424.274h0a1.016,1.016,0,0,1,1.293.662l.795,2.559a.326.326,0,0,0,.575.1l4.656-6.387a.362.362,0,0,1,.644.3,14.237,14.237,0,0,1-6.1,8.84s-1.745-1.139-2.566-4.822A1.066,1.066,0,0,1,2365.982,6424.274Z" transform="translate(-2357.382 -6407.17)" fill="url(#linear-gradient-5)"/>
          <path id="Trazado_100853" data-name="Trazado 100853" d="M2300.239,6651.689l-.018,0-6.464-1.428a1.778,1.778,0,0,1-1.465-1.855l.576-5.554a1.207,1.207,0,0,1,.466-.83,1.456,1.456,0,0,1,1.094-.28h0c.553.078,1.336.174,2.164.276,1.744.215,3.915.483,5.117.721l.026.005a1.846,1.846,0,0,1,1.521,1.646,27.766,27.766,0,0,1-1.047,6.177A1.636,1.636,0,0,1,2300.239,6651.689Zm-5.881-9.448a.945.945,0,0,0-.71.177.7.7,0,0,0-.274.481l-.576,5.555a1.273,1.273,0,0,0,1.069,1.307l6.465,1.427.013,0a1.128,1.128,0,0,0,1.37-.747,27.633,27.633,0,0,0,1.034-6.031,1.356,1.356,0,0,0-1.138-1.181c-1.185-.234-3.345-.5-5.081-.715-.831-.1-1.615-.2-2.173-.278Z" transform="translate(-2289.357 -6612.873)" fill="#fff"/>
          <path id="Trazado_100854" data-name="Trazado 100854" d="M2311.02,6659.664c1.38.193,4.4.516,5.807.794a1.282,1.282,0,0,1,1.072,1.132,22.511,22.511,0,0,1-.832,4.878,1.1,1.1,0,0,1-1.347.745l-5.166-1.141a1.221,1.221,0,0,1-1.012-1.264l.46-4.438A.859.859,0,0,1,2311.02,6659.664Z" transform="translate(-2305.441 -6629.587)" fill="#fff" opacity="0.6"/>
          <g id="Grupo_53326" data-name="Grupo 53326" transform="translate(17.329 34.68)" opacity="0.6">
            <path id="Trazado_100855" data-name="Trazado 100855" d="M2504.644,6729.4a1.644,1.644,0,0,0,1.316,1.529l60.041,12.12a1.243,1.243,0,0,0,.508-2.434l-59.878-12.905A1.644,1.644,0,0,0,2504.644,6729.4Z" transform="translate(-2504.642 -6727.67)" fill="#fff"/>
          </g>
          <path id="Trazado_100856" data-name="Trazado 100856" d="M2322.843,6628.962h0a1.016,1.016,0,0,1,1.292.662l.795,2.56a.326.326,0,0,0,.575.1l4.656-6.387a.362.362,0,0,1,.644.295,14.235,14.235,0,0,1-6.1,8.84s-1.744-1.139-2.567-4.822A1.066,1.066,0,0,1,2322.843,6628.962Z" transform="translate(-2317.168 -6597.976)" fill="url(#linear-gradient-6)"/>
          <path id="Trazado_100857" data-name="Trazado 100857" d="M2257.1,6856.377l-.018,0-6.465-1.428a1.779,1.779,0,0,1-1.465-1.855l.576-5.555a1.209,1.209,0,0,1,.466-.83,1.458,1.458,0,0,1,1.094-.28h0c.554.078,1.336.175,2.164.276,1.744.216,3.915.483,5.118.722l.026,0a1.846,1.846,0,0,1,1.521,1.646,27.743,27.743,0,0,1-1.047,6.177A1.636,1.636,0,0,1,2257.1,6856.377Zm-5.881-9.447a.943.943,0,0,0-.71.177.7.7,0,0,0-.274.482l-.576,5.554a1.274,1.274,0,0,0,1.069,1.308l6.464,1.427.013,0a1.127,1.127,0,0,0,1.371-.746,27.641,27.641,0,0,0,1.034-6.031,1.355,1.355,0,0,0-1.137-1.181c-1.185-.234-3.345-.5-5.081-.715-.831-.1-1.615-.2-2.172-.277Z" transform="translate(-2249.144 -6803.678)" fill="#fff"/>
          <path id="Trazado_100858" data-name="Trazado 100858" d="M2267.88,6864.352c1.38.193,4.4.517,5.808.795a1.281,1.281,0,0,1,1.072,1.131,22.465,22.465,0,0,1-.832,4.878,1.1,1.1,0,0,1-1.347.746l-5.166-1.141a1.223,1.223,0,0,1-1.012-1.264l.46-4.439A.859.859,0,0,1,2267.88,6864.352Z" transform="translate(-2265.227 -6820.392)" fill="#fff" opacity="0.6"/>
          <g id="Grupo_53327" data-name="Grupo 53327" transform="translate(14.403 48.563)" opacity="0.6">
            <path id="Trazado_100859" data-name="Trazado 100859" d="M2461.5,6934.086h0a1.643,1.643,0,0,0,1.316,1.529l60.041,12.12a1.243,1.243,0,0,0,.508-2.434l-59.877-12.9A1.643,1.643,0,0,0,2461.5,6934.086Z" transform="translate(-2461.501 -6932.359)" fill="#fff"/>
          </g>
          <path id="Trazado_100860" data-name="Trazado 100860" d="M2279.7,6833.651h0a1.015,1.015,0,0,1,1.292.662l.8,2.56a.326.326,0,0,0,.575.1l4.656-6.387a.362.362,0,0,1,.644.3,14.235,14.235,0,0,1-6.1,8.84s-1.744-1.14-2.566-4.822A1.065,1.065,0,0,1,2279.7,6833.651Z" transform="translate(-2276.954 -6788.781)" fill="url(#linear-gradient-7)"/>
        </g>
      </g>
      <g id="Grupo_53342" data-name="Grupo 53342" transform="translate(1.775 9.611)">
        <path id="Trazado_100861" data-name="Trazado 100861" d="M1095.618,5027.172a3.17,3.17,0,0,1,2.9-3.815c12.765-.838,56.544-4.305,91.314-14.191a2.933,2.933,0,0,1,3.645,2.082l33.95,131.052a3.375,3.375,0,0,1-2.4,4.109c-14.677,3.9-75.165,19.72-97.451,21.867a2.674,2.674,0,0,1-2.871-2.117Z" transform="translate(-1095.55 -5009.053)" fill="#ad91fa"/>
        <path id="Trazado_100862" data-name="Trazado 100862" d="M1127.171,5081.114a3.051,3.051,0,0,1,2.786-3.671c12.285-.808,54.415-4.143,87.876-13.656a2.822,2.822,0,0,1,3.508,2l32.671,126.118a3.247,3.247,0,0,1-2.31,3.954c-14.124,3.75-72.334,18.978-93.781,21.044a2.573,2.573,0,0,1-2.763-2.037Z" transform="translate(-1124.965 -5059.973)" fill="#fff" opacity="0.6"/>
        <path id="Trazado_100863" data-name="Trazado 100863" d="M1319.891,5331.081l6.822,27.076a1.773,1.773,0,0,0,2.023,1.315c5.091-.885,20.943-3.7,29.756-5.978a1.98,1.98,0,0,0,1.457-2.249c-.871-5.161-3.53-20.156-5.965-26.155a2.234,2.234,0,0,0-2.441-1.36l-30.134,5.031A1.886,1.886,0,0,0,1319.891,5331.081Z" transform="translate(-1304.621 -5302.358)" fill="#fff" opacity="0.78"/>
        <circle id="Elipse_3970" data-name="Elipse 3970" cx="5.996" cy="5.996" r="5.996" transform="matrix(0.068, -0.998, 0.998, 0.068, 28.082, 40.573)" fill="#ad91fa"/>
        <path id="Trazado_100864" data-name="Trazado 100864" d="M1498.361,5662.851l18.72-3.8a1.478,1.478,0,0,0,.763-2.481,12.326,12.326,0,0,0-11.893-3.81,13.316,13.316,0,0,0-9.315,7.96A1.545,1.545,0,0,0,1498.361,5662.851Z" transform="translate(-1469.31 -5608.789)" fill="#ad91fa"/>
        <g id="Grupo_53330" data-name="Grupo 53330" transform="translate(56.604 14.035)" opacity="0.6">
          <path id="Trazado_100865" data-name="Trazado 100865" d="M1964.112,5217.842a.988.988,0,0,0,.853-1.127,1.083,1.083,0,0,0-1.283-.714l-32.929,6.079a.707.707,0,0,0-.511,1.131l.248.414a1.649,1.649,0,0,0,1.624.717Z" transform="translate(-1930.106 -5215.979)" fill="#fff"/>
        </g>
        <g id="Grupo_53331" data-name="Grupo 53331" transform="translate(57.639 19.13)" opacity="0.6">
          <path id="Trazado_100866" data-name="Trazado 100866" d="M1946.012,5297.207a.707.707,0,0,0-.511,1.131l.247.414a1.65,1.65,0,0,0,1.624.717l32-6.5a.988.988,0,0,0,.853-1.128,1.083,1.083,0,0,0-1.282-.714Z" transform="translate(-1945.365 -5291.106)" fill="#fff"/>
        </g>
        <g id="Grupo_53332" data-name="Grupo 53332" transform="translate(58.689 24.3)" opacity="0.6">
          <path id="Trazado_100867" data-name="Trazado 100867" d="M1961.493,5373.427a.707.707,0,0,0-.511,1.131l.248.414a1.65,1.65,0,0,0,1.624.717l32-6.5a.988.988,0,0,0,.853-1.128,1.083,1.083,0,0,0-1.282-.714Z" transform="translate(-1960.846 -5367.326)" fill="#fff"/>
        </g>
        <g id="Grupo_53333" data-name="Grupo 53333" transform="translate(22.942 48.606)" opacity="0.6">
          <path id="Trazado_100868" data-name="Trazado 100868" d="M1511.8,5727.519a.946.946,0,0,0,.819-1.121,1.119,1.119,0,0,0-1.314-.7l-76.99,15.006c-.587.115-.693.523-.234.907l.788.661a2.559,2.559,0,0,0,1.9.482Z" transform="translate(-1433.8 -5725.677)" fill="#fff"/>
        </g>
        <g id="Grupo_53334" data-name="Grupo 53334" transform="translate(23.977 53.701)" opacity="0.6">
          <path id="Trazado_100869" data-name="Trazado 100869" d="M1449.579,5815.835c-.587.115-.693.523-.234.907l.788.661a2.562,2.562,0,0,0,1.9.483l75.032-15.24a.946.946,0,0,0,.819-1.121,1.12,1.12,0,0,0-1.314-.7Z" transform="translate(-1449.059 -5800.805)" fill="#fff"/>
        </g>
        <path id="Trazado_100870" data-name="Trazado 100870" d="M1464.573,6124.965c1.819-.517,5.267-1.285,7.167-1.7a1.761,1.761,0,0,1,1.973.974,28.72,28.72,0,0,1,2.228,6.811,1.565,1.565,0,0,1-1.242,1.815l-7.046,1.352a1.722,1.722,0,0,1-1.974-1.193l-1.961-6.489A1.255,1.255,0,0,1,1464.573,6124.965Z" transform="translate(-1438.695 -6047.656)" fill="#fff" opacity="0.6"/>
        <g id="Grupo_53335" data-name="Grupo 53335" transform="translate(38.666 74.542)" opacity="0.6">
          <path id="Trazado_100871" data-name="Trazado 100871" d="M1666.4,6110.924a.866.866,0,0,0-.7,1.194l.4,1.1a1.306,1.306,0,0,0,1.438.806l17.075-3.468a1.075,1.075,0,0,0,.836-1.28l-.062-.288a1.165,1.165,0,0,0-1.3-.891Z" transform="translate(-1665.635 -6108.082)" fill="#fff"/>
        </g>
        <path id="Trazado_100872" data-name="Trazado 100872" d="M2029.273,6010.27c1.819-.517,5.267-1.285,7.167-1.7a1.762,1.762,0,0,1,1.973.974,28.727,28.727,0,0,1,2.228,6.811,1.565,1.565,0,0,1-1.242,1.815l-7.046,1.353a1.723,1.723,0,0,1-1.974-1.193l-1.961-6.489A1.255,1.255,0,0,1,2029.273,6010.27Z" transform="translate(-1965.094 -5940.739)" fill="#fff" opacity="0.6"/>
        <g id="Grupo_53336" data-name="Grupo 53336" transform="translate(76.968 66.763)" opacity="0.6">
          <path id="Trazado_100873" data-name="Trazado 100873" d="M2231.1,5996.228a.865.865,0,0,0-.7,1.193l.4,1.1a1.307,1.307,0,0,0,1.438.805l17.075-3.468a1.075,1.075,0,0,0,.836-1.28l-.062-.288a1.164,1.164,0,0,0-1.3-.891Z" transform="translate(-2230.335 -5993.386)" fill="#fff"/>
        </g>
        <g id="Grupo_53341" data-name="Grupo 53341" transform="translate(30.798 82.482)">
          <path id="Trazado_100874" data-name="Trazado 100874" d="M1559.95,6384.453l-.018,0-6.5,1.255a1.779,1.779,0,0,1-2.081-1.122l-1.676-5.327a1.209,1.209,0,0,1,.1-.947,1.454,1.454,0,0,1,.893-.691h0c.539-.148,1.3-.371,2.1-.6,1.686-.5,3.785-1.11,4.983-1.37a1.851,1.851,0,0,1,2.075.9,27.762,27.762,0,0,1,1.49,6.084A1.636,1.636,0,0,1,1559.95,6384.453Zm-9.148-6.337a.941.941,0,0,0-.582.444.7.7,0,0,0-.06.55l1.676,5.327a1.274,1.274,0,0,0,1.5.776l6.5-1.256.013,0a1.128,1.128,0,0,0,.962-1.229,27.628,27.628,0,0,0-1.444-5.946,1.367,1.367,0,0,0-1.513-.632c-1.18.255-3.269.868-4.947,1.36-.8.235-1.562.458-2.1.607Z" transform="translate(-1549.62 -6365.4)" fill="#fff"/>
          <path id="Trazado_100875" data-name="Trazado 100875" d="M1569.568,6396.709c1.344-.37,4.245-1.272,5.646-1.575a1.283,1.283,0,0,1,1.433.613,22.5,22.5,0,0,1,1.172,4.807,1.1,1.1,0,0,1-.94,1.22l-5.194,1a1.223,1.223,0,0,1-1.431-.758l-1.339-4.257A.86.86,0,0,1,1569.568,6396.709Z" transform="translate(-1567.574 -6383.574)" fill="#fff" opacity="0.6"/>
          <g id="Grupo_53337" data-name="Grupo 53337" transform="translate(15.123)" opacity="0.6">
            <path id="Trazado_100876" data-name="Trazado 100876" d="M1772.755,6239.429a1.644,1.644,0,0,0,1.815.881l59.921-12.7a1.243,1.243,0,0,0-.5-2.435l-60.082,11.918A1.643,1.643,0,0,0,1772.755,6239.429Z" transform="translate(-1772.584 -6225.147)" fill="#fff"/>
          </g>
          <path id="Trazado_100877" data-name="Trazado 100877" d="M1601.587,6589.428l-.018,0-6.5,1.255a1.779,1.779,0,0,1-2.081-1.121l-1.676-5.328a1.2,1.2,0,0,1,.1-.945,1.45,1.45,0,0,1,.893-.691h0c.539-.148,1.3-.371,2.1-.605,1.686-.5,3.785-1.11,4.983-1.369l.026-.006a1.847,1.847,0,0,1,2.049.907,27.756,27.756,0,0,1,1.49,6.085A1.635,1.635,0,0,1,1601.587,6589.428Zm-9.148-6.338a.947.947,0,0,0-.582.444.7.7,0,0,0-.06.551l1.676,5.328a1.273,1.273,0,0,0,1.5.774l6.5-1.255.013,0a1.128,1.128,0,0,0,.962-1.229,27.634,27.634,0,0,0-1.444-5.946,1.358,1.358,0,0,0-1.513-.632c-1.181.255-3.269.867-4.948,1.36-.8.234-1.561.457-2.1.606Z" transform="translate(-1588.434 -6556.471)" fill="#fff"/>
          <path id="Trazado_100878" data-name="Trazado 100878" d="M1611.206,6601.709c1.344-.37,4.245-1.272,5.646-1.575a1.28,1.28,0,0,1,1.433.613,22.5,22.5,0,0,1,1.172,4.807,1.1,1.1,0,0,1-.94,1.22l-5.194,1a1.223,1.223,0,0,1-1.431-.759l-1.339-4.257A.859.859,0,0,1,1611.206,6601.709Z" transform="translate(-1606.388 -6574.669)" fill="#fff" opacity="0.6"/>
          <g id="Grupo_53338" data-name="Grupo 53338" transform="translate(17.947 13.904)" opacity="0.6">
            <path id="Trazado_100879" data-name="Trazado 100879" d="M1814.392,6444.429a1.643,1.643,0,0,0,1.815.881l59.921-12.7a1.243,1.243,0,0,0-.5-2.435l-60.082,11.918A1.643,1.643,0,0,0,1814.392,6444.429Z" transform="translate(-1814.222 -6430.147)" fill="#fff"/>
          </g>
          <path id="Trazado_100880" data-name="Trazado 100880" d="M1643.224,6794.428l-.018,0-6.5,1.255a1.779,1.779,0,0,1-2.081-1.122l-1.676-5.328a1.207,1.207,0,0,1,.1-.946,1.457,1.457,0,0,1,.893-.692h0c.539-.147,1.3-.37,2.1-.6,1.686-.495,3.785-1.11,4.983-1.37l.026,0a1.846,1.846,0,0,1,2.049.907,27.769,27.769,0,0,1,1.49,6.085A1.636,1.636,0,0,1,1643.224,6794.428Zm-9.148-6.338a.941.941,0,0,0-.582.444.7.7,0,0,0-.06.551l1.676,5.327a1.273,1.273,0,0,0,1.5.775l6.5-1.255.013,0a1.128,1.128,0,0,0,.962-1.229,27.644,27.644,0,0,0-1.444-5.946,1.357,1.357,0,0,0-1.513-.632c-1.18.255-3.269.868-4.947,1.36-.8.235-1.561.458-2.1.607Z" transform="translate(-1627.247 -6747.566)" fill="#fff"/>
          <path id="Trazado_100881" data-name="Trazado 100881" d="M1652.843,6806.709c1.344-.37,4.245-1.272,5.646-1.575a1.281,1.281,0,0,1,1.433.613,22.5,22.5,0,0,1,1.172,4.807,1.1,1.1,0,0,1-.94,1.219l-5.194,1a1.222,1.222,0,0,1-1.431-.758l-1.339-4.257A.859.859,0,0,1,1652.843,6806.709Z" transform="translate(-1645.201 -6765.765)" fill="#fff" opacity="0.6"/>
          <g id="Grupo_53339" data-name="Grupo 53339" transform="translate(20.771 27.808)" opacity="0.6">
            <path id="Trazado_100882" data-name="Trazado 100882" d="M1856.029,6649.428a1.643,1.643,0,0,0,1.815.88l59.921-12.7a1.243,1.243,0,0,0-.5-2.435l-60.082,11.918A1.644,1.644,0,0,0,1856.029,6649.428Z" transform="translate(-1855.858 -6635.146)" fill="#fff"/>
          </g>
          <path id="Trazado_100883" data-name="Trazado 100883" d="M1684.861,6999.427l-.018,0-6.5,1.255a1.778,1.778,0,0,1-2.081-1.121l-1.676-5.327a1.206,1.206,0,0,1,.1-.946,1.458,1.458,0,0,1,.893-.692h0c.539-.147,1.3-.37,2.1-.6,1.686-.5,3.785-1.11,4.983-1.369l.026-.006a1.847,1.847,0,0,1,2.049.907,27.783,27.783,0,0,1,1.49,6.085A1.636,1.636,0,0,1,1684.861,6999.427Zm-9.148-6.337a.938.938,0,0,0-.582.444.7.7,0,0,0-.06.55l1.676,5.328a1.272,1.272,0,0,0,1.5.774l6.5-1.255.013,0a1.127,1.127,0,0,0,.962-1.229,27.644,27.644,0,0,0-1.444-5.946,1.355,1.355,0,0,0-1.513-.632c-1.18.255-3.269.867-4.947,1.359-.8.236-1.561.458-2.1.608Z" transform="translate(-1666.06 -6938.661)" fill="#fff"/>
          <path id="Trazado_100884" data-name="Trazado 100884" d="M1694.48,7011.708c1.344-.37,4.245-1.272,5.646-1.575a1.283,1.283,0,0,1,1.433.613,22.5,22.5,0,0,1,1.172,4.807,1.1,1.1,0,0,1-.94,1.22l-5.194,1a1.223,1.223,0,0,1-1.431-.758l-1.339-4.257A.86.86,0,0,1,1694.48,7011.708Z" transform="translate(-1684.014 -6956.86)" fill="#fff" opacity="0.6"/>
          <g id="Grupo_53340" data-name="Grupo 53340" transform="translate(23.595 41.713)" opacity="0.6">
            <path id="Trazado_100885" data-name="Trazado 100885" d="M1897.666,6854.427h0a1.643,1.643,0,0,0,1.815.881l59.921-12.7a1.243,1.243,0,0,0-.5-2.435l-60.082,11.917A1.644,1.644,0,0,0,1897.666,6854.427Z" transform="translate(-1897.496 -6840.146)" fill="#fff"/>
          </g>
          <path id="Trazado_100886" data-name="Trazado 100886" d="M1705.709,6963.047h0a1.015,1.015,0,0,1,1.449.095l1.746,2.034a.326.326,0,0,0,.566-.142l1.739-7.71a.362.362,0,0,1,.708.016,14.233,14.233,0,0,1-2.087,10.532s-2.053-.353-4.27-3.407A1.065,1.065,0,0,1,1705.709,6963.047Z" transform="translate(-1694.794 -6907.401)" fill="url(#linear-gradient-8)"/>
        </g>
      </g>
      <g id="Grupo_53345" data-name="Grupo 53345" transform="translate(0 82.923)">
        <g id="Grupo_53343" data-name="Grupo 53343" transform="translate(3.973)">
          <path id="Trazado_100887" data-name="Trazado 100887" d="M1164.694,6148.128a173.525,173.525,0,0,0,3.671,21.611h1.054a117.926,117.926,0,0,1-3.581-33.891c.594-13.666,3.94-30.257-2.3-38.183-5.194-6.6-27.234-7.583-34.482-7.728a1.069,1.069,0,0,0-.86,1.734c2.778,3.5,8.6,11.593,9.1,18.663.668,9.319,7.911,16.634,15.108,19.679S1163.48,6135.381,1164.694,6148.128Z" transform="translate(-1127.961 -6089.938)" fill="#ad91fa"/>
          <path id="Trazado_100888" data-name="Trazado 100888" d="M1274.97,6174.8a34.764,34.764,0,0,1,12.364,5.951,27.225,27.225,0,0,1,4.967,4.837,23.513,23.513,0,0,1,3.462,6.035l.308.817c.1.273.177.555.266.832s.175.559.248.835l.22.828q.444,1.655.866,3.317.843,3.322,1.581,6.671c.987,4.464,1.836,8.957,2.408,13.5a.2.2,0,0,1-.393.061v-.006q-.61-3.354-1.349-6.7-.723-3.34-1.525-6.661l-.811-3.319-.848-3.31q-.423-1.655-.874-3.3l-.222-.824c-.074-.275-.162-.536-.242-.8s-.154-.537-.25-.8l-.292-.785a23.365,23.365,0,0,0-3.281-5.822,25.873,25.873,0,0,0-2.22-2.523l-.3-.3-.307-.288c-.206-.191-.406-.389-.616-.575-.425-.369-.845-.743-1.29-1.089a34.891,34.891,0,0,0-5.68-3.672,36.223,36.223,0,0,0-6.269-2.6l-.01,0a.16.16,0,0,1,.086-.308Z" transform="translate(-1264.814 -6169.044)" fill="#fff" opacity="0.5"/>
        </g>
        <g id="Grupo_53344" data-name="Grupo 53344" transform="translate(0 43.605)">
          <path id="Trazado_100889" data-name="Trazado 100889" d="M1110.293,6755.877c3.769,5.534,3.285,8.631,3.4,11.254.021.466.046,1.124.1,1.9h1.029a22.535,22.535,0,0,1-.413-3.2c-.367-7.243-2-19.606-8.248-27s-13.087-8.07-21.707-1.347c-7.183,5.6-11.663,8.43-14.291,8.955a.993.993,0,0,0-.666,1.448c1.685,3.1,6.45,10.232,14.45,9.73C1094.156,6756.978,1106.523,6750.343,1110.293,6755.877Z" transform="translate(-1069.379 -6732.835)" fill="#ad91fa"/>
          <path id="Trazado_100890" data-name="Trazado 100890" d="M1334.053,6858.619a20.489,20.489,0,0,1,1.78-1.489c.617-.466,1.253-.909,1.915-1.314a19.182,19.182,0,0,1,4.226-1.988,13.286,13.286,0,0,1,2.312-.521,9.9,9.9,0,0,1,2.4-.009c.2.032.4.052.6.1s.4.084.589.138l1.125.35,1.1.428,1.067.513a13.446,13.446,0,0,1,3.716,2.905,16.71,16.71,0,0,1,2.574,3.914l.256.524c.088.174.152.357.229.536.145.36.3.716.437,1.079l.379,1.1c.134.363.22.741.328,1.111a40.45,40.45,0,0,1,.977,4.513.155.155,0,0,1-.3.063v0c-.359-1.485-.705-2.972-1.2-4.41-.224-.727-.508-1.43-.773-2.14-.142-.351-.3-.691-.456-1.038-.08-.17-.147-.348-.237-.513l-.263-.5a17.01,17.01,0,0,0-2.55-3.678,13.062,13.062,0,0,0-3.521-2.687l-1.006-.478-1.043-.4-1.071-.326c-.178-.051-.352-.084-.529-.127s-.357-.059-.535-.09a8.98,8.98,0,0,0-2.184,0,12.5,12.5,0,0,0-2.174.441,20.862,20.862,0,0,0-4.139,1.764c-.661.367-1.315.751-1.951,1.166s-1.26.856-1.856,1.318l0,0a.161.161,0,0,1-.21-.244Z" transform="translate(-1316.055 -6845.063)" fill="#fff" opacity="0.5"/>
        </g>
      </g>
      <g id="Grupo_53359" data-name="Grupo 53359" transform="translate(41.127 11.721)">
        <path id="Trazado_100891" data-name="Trazado 100891" d="M1675.737,5333.1A10.268,10.268,0,0,1,1686,5322.829h87.316a9.046,9.046,0,0,1,9.034,8.586l6.445,126.592a6.671,6.671,0,0,1-6.541,7.009l-100.075,1.819a6.332,6.332,0,0,1-6.447-6.331Z" transform="translate(-1675.737 -5303.656)" fill="url(#linear-gradient-9)"/>
        <g id="Grupo_53358" data-name="Grupo 53358" transform="translate(7.153 18.119)">
          <path id="Trazado_100892" data-name="Trazado 100892" d="M1781.2,5310.3a2.982,2.982,0,0,1,3.383-2.975c11.924,1.617,52.927,6.618,86.827,4.016a2.758,2.758,0,0,1,2.97,2.6l6.758,127.156a3.174,3.174,0,0,1-2.981,3.338c-14.258.844-72.977,4.105-93.921,1.911a2.514,2.514,0,0,1-2.25-2.488Z" transform="translate(-1781.204 -5307.294)" fill="#ad91fa"/>
          <path id="Trazado_100893" data-name="Trazado 100893" d="M1801.912,5358.829a2.87,2.87,0,0,1,3.255-2.863c11.475,1.556,50.934,6.369,83.558,3.865a2.654,2.654,0,0,1,2.858,2.5l6.5,122.368a3.055,3.055,0,0,1-2.869,3.212c-13.721.812-70.229,3.951-90.384,1.839a2.42,2.42,0,0,1-2.165-2.395Z" transform="translate(-1800.508 -5352.641)" fill="#fff" opacity="0.6"/>
          <path id="Trazado_100894" data-name="Trazado 100894" d="M1958.5,5512.133l1.219,26.234a1.668,1.668,0,0,0,1.619,1.591c4.859.137,20,.506,28.547.061a1.862,1.862,0,0,0,1.764-1.8c.163-4.92.52-19.24-.6-25.226a2.1,2.1,0,0,0-2-1.71l-28.718-1A1.772,1.772,0,0,0,1958.5,5512.133Z" transform="translate(-1946.473 -5496.51)" fill="#fff" opacity="0.78"/>
          <circle id="Elipse_3971" data-name="Elipse 3971" cx="5.64" cy="5.64" r="5.64" transform="translate(21.767 29.196) rotate(-76.717)" fill="url(#linear-gradient-10)"/>
          <path id="Trazado_100895" data-name="Trazado 100895" d="M2055.859,5811.641h17.967a1.391,1.391,0,0,0,1.168-2.145,11.6,11.6,0,0,0-10.249-5.738,12.526,12.526,0,0,0-10.077,5.594A1.454,1.454,0,0,0,2055.859,5811.641Z" transform="translate(-2035.874 -5770.08)" fill="url(#linear-gradient-11)"/>
          <g id="Grupo_53346" data-name="Grupo 53346" transform="translate(51.595 15.567)" opacity="0.6">
            <path id="Trazado_100896" data-name="Trazado 100896" d="M2574.18,5539.148a.93.93,0,0,0,1-.881,1.018,1.018,0,0,0-1.049-.9l-31.491-.562a.665.665,0,0,0-.683.947l.151.428a1.551,1.551,0,0,0,1.363.965Z" transform="translate(-2541.9 -5536.809)" fill="#fff"/>
          </g>
          <g id="Grupo_53347" data-name="Grupo 53347" transform="translate(51.595 20.458)" opacity="0.6">
            <path id="Trazado_100897" data-name="Trazado 100897" d="M2542.638,5608.917a.664.664,0,0,0-.683.946l.151.428a1.552,1.552,0,0,0,1.363.965h30.712a.929.929,0,0,0,1-.88,1.019,1.019,0,0,0-1.049-.9Z" transform="translate(-2541.9 -5608.917)" fill="#fff"/>
          </g>
          <g id="Grupo_53348" data-name="Grupo 53348" transform="translate(51.595 25.42)" opacity="0.6">
            <path id="Trazado_100898" data-name="Trazado 100898" d="M2542.638,5682.072a.665.665,0,0,0-.683.946l.151.428a1.552,1.552,0,0,0,1.363.965h30.712a.929.929,0,0,0,1-.88,1.019,1.019,0,0,0-1.049-.9Z" transform="translate(-2541.9 -5682.072)" fill="#fff"/>
          </g>
          <g id="Grupo_53349" data-name="Grupo 53349" transform="translate(12.475 49.338)" opacity="0.6">
            <path id="Trazado_100899" data-name="Trazado 100899" d="M2039.585,6037.067a.89.89,0,0,0,.965-.88,1.053,1.053,0,0,0-1.081-.889l-73.776-.581c-.563,0-.736.352-.386.792l.6.757a2.41,2.41,0,0,0,1.66.8Z" transform="translate(-1965.125 -6034.718)" fill="#fff"/>
          </g>
          <g id="Grupo_53350" data-name="Grupo 53350" transform="translate(12.475 54.229)" opacity="0.6">
            <path id="Trazado_100900" data-name="Trazado 100900" d="M1965.692,6106.825c-.563,0-.736.353-.386.793l.6.757a2.41,2.41,0,0,0,1.66.8h72.015a.89.89,0,0,0,.965-.88,1.053,1.053,0,0,0-1.081-.888Z" transform="translate(-1965.125 -6106.825)" fill="#fff"/>
          </g>
          <path id="Trazado_100901" data-name="Trazado 100901" d="M1953.616,6224.131c1.774-.136,5.1-.2,6.924-.224a1.656,1.656,0,0,1,1.636,1.267,27.006,27.006,0,0,1,.779,6.7,1.471,1.471,0,0,1-1.485,1.44l-6.748-.072a1.62,1.62,0,0,1-1.6-1.47l-.593-6.348A1.181,1.181,0,0,1,1953.616,6224.131Z" transform="translate(-1940.908 -6161.737)" fill="url(#linear-gradient-12)"/>
          <g id="Grupo_53351" data-name="Grupo 53351" transform="translate(24.306 65)" opacity="0.6">
            <path id="Trazado_100902" data-name="Trazado 100902" d="M2140.441,6265.639a.814.814,0,0,0-.87.969l.164,1.088a1.229,1.229,0,0,0,1.175,1.012H2157.3a1.011,1.011,0,0,0,1.01-1.023l0-.277a1.1,1.1,0,0,0-1.035-1.066Z" transform="translate(-2139.559 -6265.638)" fill="#fff"/>
          </g>
          <path id="Trazado_100903" data-name="Trazado 100903" d="M2495.614,6224.131c1.774-.136,5.1-.2,6.924-.224a1.656,1.656,0,0,1,1.636,1.267,27.021,27.021,0,0,1,.778,6.7,1.47,1.47,0,0,1-1.485,1.44l-6.748-.072a1.62,1.62,0,0,1-1.6-1.47l-.594-6.348A1.181,1.181,0,0,1,2495.614,6224.131Z" transform="translate(-2446.144 -6161.737)" fill="url(#linear-gradient-13)"/>
          <g id="Grupo_53352" data-name="Grupo 53352" transform="translate(61.067 65)" opacity="0.6">
            <path id="Trazado_100904" data-name="Trazado 100904" d="M2682.438,6265.639a.814.814,0,0,0-.871.969l.164,1.088a1.229,1.229,0,0,0,1.175,1.012h16.388a1.011,1.011,0,0,0,1.01-1.023l0-.277a1.1,1.1,0,0,0-1.035-1.066Z" transform="translate(-2681.556 -6265.638)" fill="#fff"/>
          </g>
          <g id="Grupo_53357" data-name="Grupo 53357" transform="translate(13.724 76.938)">
            <path id="Trazado_100905" data-name="Trazado 100905" d="M1992.054,6481.372h-.017l-6.227-.06a1.674,1.674,0,0,1-1.708-1.424l-.547-5.224a1.136,1.136,0,0,1,.268-.854,1.371,1.371,0,0,1,.953-.47h0c.525-.036,1.263-.1,2.046-.165,1.647-.14,3.7-.315,4.85-.329a1.74,1.74,0,0,1,1.744,1.22,26.11,26.11,0,0,1,.234,5.888A1.539,1.539,0,0,1,1992.054,6481.372Zm-7.246-7.554a.884.884,0,0,0-.619.3.66.66,0,0,0-.159.5l.547,5.225a1.2,1.2,0,0,0,1.237,1l6.227.06h.013a1.061,1.061,0,0,0,1.117-.953,26,26,0,0,0-.218-5.751,1.285,1.285,0,0,0-1.276-.866c-1.136.014-3.176.188-4.815.328-.784.066-1.525.13-2.053.166Z" transform="translate(-1983.549 -6470.729)" fill="#fff"/>
            <path id="Trazado_100906" data-name="Trazado 100906" d="M2000.966,6489.694c1.308-.089,4.151-.378,5.5-.4a1.205,1.205,0,0,1,1.207.833,21.162,21.162,0,0,1,.181,4.65,1.036,1.036,0,0,1-1.095.947l-4.976-.047a1.15,1.15,0,0,1-1.177-.967l-.437-4.174A.808.808,0,0,1,2000.966,6489.694Z" transform="translate(-1999.036 -6486.066)" fill="#fff" opacity="0.6"/>
            <g id="Grupo_53353" data-name="Grupo 53353" transform="translate(13.922 5.233)" opacity="0.6">
              <path id="Trazado_100907" data-name="Trazado 100907" d="M2188.867,6520.74a1.547,1.547,0,0,0,1.508,1.152l57.612-.491a1.169,1.169,0,0,0,0-2.338l-57.613-.263A1.546,1.546,0,0,0,2188.867,6520.74Z" transform="translate(-2188.815 -6518.8)" fill="#fff"/>
            </g>
            <path id="Trazado_100908" data-name="Trazado 100908" d="M2009.126,6446.089h0a.955.955,0,0,1,1.318.358l1.228,2.2a.307.307,0,0,0,.548-.024l3.046-6.781a.34.34,0,0,1,.65.146,13.391,13.391,0,0,1-3.9,9.318s-1.827-.71-3.3-3.94A1,1,0,0,1,2009.126,6446.089Z" transform="translate(-2006.932 -6441.642)" fill="url(#linear-gradient-14)"/>
            <path id="Trazado_100909" data-name="Trazado 100909" d="M1992.054,6678.127h-.017l-6.227-.061a1.673,1.673,0,0,1-1.708-1.423l-.547-5.225a1.135,1.135,0,0,1,.268-.854,1.368,1.368,0,0,1,.953-.471h0c.525-.035,1.263-.1,2.046-.165,1.647-.141,3.7-.314,4.85-.329h.025a1.736,1.736,0,0,1,1.719,1.22,26.11,26.11,0,0,1,.234,5.888A1.539,1.539,0,0,1,1992.054,6678.127Zm-7.246-7.555a.882.882,0,0,0-.619.3.662.662,0,0,0-.159.5l.547,5.225a1.2,1.2,0,0,0,1.237,1l6.227.06h.013a1.061,1.061,0,0,0,1.117-.952,26.006,26.006,0,0,0-.218-5.752,1.278,1.278,0,0,0-1.276-.865c-1.136.014-3.176.188-4.815.327-.784.066-1.525.13-2.053.166Z" transform="translate(-1983.549 -6654.139)" fill="#fff"/>
            <path id="Trazado_100910" data-name="Trazado 100910" d="M2000.966,6686.451c1.308-.089,4.151-.378,5.5-.395a1.205,1.205,0,0,1,1.207.833,21.17,21.17,0,0,1,.181,4.651,1.036,1.036,0,0,1-1.095.947l-4.976-.048a1.149,1.149,0,0,1-1.177-.966l-.437-4.175A.809.809,0,0,1,2000.966,6686.451Z" transform="translate(-1999.036 -6669.479)" fill="#fff" opacity="0.6"/>
            <g id="Grupo_53354" data-name="Grupo 53354" transform="translate(13.922 18.578)" opacity="0.6">
              <path id="Trazado_100911" data-name="Trazado 100911" d="M2188.867,6717.5a1.545,1.545,0,0,0,1.508,1.151l57.612-.491a1.169,1.169,0,0,0,0-2.338l-57.613-.263A1.546,1.546,0,0,0,2188.867,6717.5Z" transform="translate(-2188.815 -6715.557)" fill="#fff"/>
            </g>
            <path id="Trazado_100912" data-name="Trazado 100912" d="M2009.126,6642.846h0a.957.957,0,0,1,1.318.359l1.228,2.2a.307.307,0,0,0,.548-.024l3.046-6.782a.34.34,0,0,1,.65.147,13.388,13.388,0,0,1-3.9,9.317s-1.827-.709-3.3-3.939A1,1,0,0,1,2009.126,6642.846Z" transform="translate(-2006.932 -6625.054)" fill="url(#linear-gradient-15)"/>
            <path id="Trazado_100913" data-name="Trazado 100913" d="M1992.054,6874.884h-.017l-6.227-.06a1.673,1.673,0,0,1-1.708-1.423l-.547-5.225a1.136,1.136,0,0,1,.268-.854,1.369,1.369,0,0,1,.953-.47h0c.525-.036,1.263-.1,2.046-.166,1.647-.14,3.7-.314,4.85-.329h.025a1.737,1.737,0,0,1,1.719,1.22,26.11,26.11,0,0,1,.234,5.888A1.539,1.539,0,0,1,1992.054,6874.884Zm-7.246-7.555a.884.884,0,0,0-.619.3.662.662,0,0,0-.159.5l.547,5.225a1.2,1.2,0,0,0,1.237,1l6.227.06h.013a1.061,1.061,0,0,0,1.117-.953,26,26,0,0,0-.218-5.751,1.275,1.275,0,0,0-1.276-.866c-1.136.014-3.176.188-4.815.327-.784.067-1.525.13-2.053.166Z" transform="translate(-1983.549 -6837.551)" fill="#fff"/>
            <path id="Trazado_100914" data-name="Trazado 100914" d="M2000.966,6883.209c1.308-.089,4.151-.378,5.5-.395a1.205,1.205,0,0,1,1.207.833,21.168,21.168,0,0,1,.181,4.651,1.036,1.036,0,0,1-1.095.947l-4.976-.047a1.15,1.15,0,0,1-1.177-.967l-.437-4.175A.809.809,0,0,1,2000.966,6883.209Z" transform="translate(-1999.036 -6852.892)" fill="#fff" opacity="0.6"/>
            <g id="Grupo_53355" data-name="Grupo 53355" transform="translate(13.922 31.924)" opacity="0.6">
              <path id="Trazado_100915" data-name="Trazado 100915" d="M2188.867,6914.256a1.546,1.546,0,0,0,1.508,1.151l57.612-.491a1.169,1.169,0,0,0,0-2.338l-57.613-.263A1.546,1.546,0,0,0,2188.867,6914.256Z" transform="translate(-2188.815 -6912.315)" fill="#fff"/>
            </g>
            <path id="Trazado_100916" data-name="Trazado 100916" d="M2009.126,6839.6h0a.956.956,0,0,1,1.318.359l1.228,2.2a.307.307,0,0,0,.548-.024l3.046-6.782a.34.34,0,0,1,.65.147,13.39,13.39,0,0,1-3.9,9.318s-1.827-.71-3.3-3.94A1,1,0,0,1,2009.126,6839.6Z" transform="translate(-2006.932 -6808.467)" fill="url(#linear-gradient-16)"/>
            <path id="Trazado_100917" data-name="Trazado 100917" d="M1992.054,7071.643h-.017l-6.227-.06a1.673,1.673,0,0,1-1.708-1.424l-.547-5.224a1.136,1.136,0,0,1,.268-.854,1.372,1.372,0,0,1,.953-.471h0c.525-.035,1.263-.1,2.046-.165,1.647-.14,3.7-.314,4.85-.329h.025a1.737,1.737,0,0,1,1.719,1.22,26.113,26.113,0,0,1,.234,5.888A1.538,1.538,0,0,1,1992.054,7071.643Zm-7.246-7.555a.89.89,0,0,0-.619.3.662.662,0,0,0-.159.5l.547,5.225a1.2,1.2,0,0,0,1.237,1l6.227.06h.013a1.061,1.061,0,0,0,1.117-.952,25.993,25.993,0,0,0-.218-5.751,1.273,1.273,0,0,0-1.276-.866c-1.136.014-3.176.188-4.815.327-.784.066-1.525.13-2.053.166Z" transform="translate(-1983.549 -7020.964)" fill="#fff"/>
            <path id="Trazado_100918" data-name="Trazado 100918" d="M2000.966,7079.966c1.308-.089,4.151-.378,5.5-.395a1.205,1.205,0,0,1,1.207.834,21.156,21.156,0,0,1,.181,4.649,1.035,1.035,0,0,1-1.095.948l-4.976-.048a1.15,1.15,0,0,1-1.177-.967l-.437-4.175A.809.809,0,0,1,2000.966,7079.966Z" transform="translate(-1999.036 -7036.303)" fill="#fff" opacity="0.6"/>
            <g id="Grupo_53356" data-name="Grupo 53356" transform="translate(13.922 45.269)" opacity="0.6">
              <path id="Trazado_100919" data-name="Trazado 100919" d="M2188.867,7111.013h0a1.546,1.546,0,0,0,1.508,1.152l57.612-.491a1.169,1.169,0,0,0,0-2.338l-57.613-.263A1.546,1.546,0,0,0,2188.867,7111.013Z" transform="translate(-2188.815 -7109.073)" fill="#fff"/>
            </g>
            <path id="Trazado_100920" data-name="Trazado 100920" d="M2009.126,7036.361h0a.955.955,0,0,1,1.318.359l1.228,2.2a.307.307,0,0,0,.548-.023l3.046-6.782a.34.34,0,0,1,.65.146,13.39,13.39,0,0,1-3.9,9.318s-1.827-.71-3.3-3.939A1,1,0,0,1,2009.126,7036.361Z" transform="translate(-2006.932 -6991.879)" fill="url(#linear-gradient-17)"/>
          </g>
        </g>
        <path id="Trazado_100921" data-name="Trazado 100921" d="M2405.259,5042.065a8.872,8.872,0,0,0-7.827-1.581,3.851,3.851,0,0,0-2.735,4.048l.833,9.087,9.907.879S2411.445,5046.369,2405.259,5042.065Zm-4.357,7.331a2.47,2.47,0,1,1,2.47-2.47A2.47,2.47,0,0,1,2400.9,5049.4Z" transform="translate(-2345.918 -5040.153)" fill="url(#linear-gradient-18)"/>
        <path id="Trazado_100922" data-name="Trazado 100922" d="M2413.352,5068.086a.239.239,0,0,1-.238-.217l-.133-1.447a.239.239,0,1,1,.476-.043l.133,1.447a.239.239,0,0,1-.216.26Zm-.26-2.836a.239.239,0,0,1-.238-.217l-.1-1.1a3.675,3.675,0,0,1,2.606-3.856,7.406,7.406,0,0,1,3.621-.149.239.239,0,0,1-.1.469,6.93,6.93,0,0,0-3.389.139,3.2,3.2,0,0,0-2.265,3.354l.1,1.1a.24.24,0,0,1-.216.26Z" transform="translate(-2362.75 -5058.442)" fill="#fff"/>
        <path id="Trazado_100923" data-name="Trazado 100923" d="M2207.842,5224.185v-4.569a2.788,2.788,0,0,1,2.883-2.787l31.5,1.08a2.712,2.712,0,0,1,2.614,2.548l.263,4.39Z" transform="translate(-2171.752 -5204.844)" fill="url(#linear-gradient-19)"/>
        <path id="Trazado_100924" data-name="Trazado 100924" d="M2359.112,5235.662h-1.354a.239.239,0,0,1,0-.479h1.354a.239.239,0,1,1,0,.479Z" transform="translate(-2311.276 -5221.955)" fill="#fff"/>
        <path id="Trazado_100925" data-name="Trazado 100925" d="M2229.694,5239.861a.239.239,0,0,1-.239-.239v-1.848a2.593,2.593,0,0,1,2.59-2.59h4.98a.239.239,0,0,1,0,.479h-4.98a2.114,2.114,0,0,0-2.112,2.112v1.848A.239.239,0,0,1,2229.694,5239.861Z" transform="translate(-2191.899 -5221.955)" fill="#fff"/>
        <path id="Trazado_100926" data-name="Trazado 100926" d="M2676.321,5403.627l-7.415-6.046-7.415,6.046a127.037,127.037,0,0,0,.554-18.919q-.15-3.289-.451-6.368a.939.939,0,0,1,.935-1.028h12.9a.938.938,0,0,1,.937.889q.248,4.726.308,9.773C2676.735,5393.46,2676.6,5398.688,2676.321,5403.627Z" transform="translate(-2594.631 -5354.444)" fill="url(#linear-gradient-20)"/>
        <path id="Trazado_100927" data-name="Trazado 100927" d="M2016.9,5303.446a2.969,2.969,0,0,1,2.965-2.826h55.084a4.072,4.072,0,0,1,4.012,3.377l.046.269a3.5,3.5,0,0,1-3.445,4.093h-56.513a2.273,2.273,0,0,1-2.271-2.382Z" transform="translate(-1993.644 -5282.953)" fill="url(#linear-gradient-21)"/>
      </g>
      <g id="Grupo_53362" data-name="Grupo 53362" transform="translate(129.397 75.808)">
        <path id="Trazado_100928" data-name="Trazado 100928" d="M3332.746,7520.912c-2.886.132-5.679.049-7.544-.047a37.876,37.876,0,0,1,8.883-4.884l2.247-.134a9.156,9.156,0,0,1,1.033,3.808C3336.993,7520.118,3335.9,7520.766,3332.746,7520.912Z" transform="translate(-3301.596 -7412.018)" fill="url(#linear-gradient-22)"/>
        <path id="Trazado_100929" data-name="Trazado 100929" d="M3322.574,7573.215l.023-.016c1.865.1,4.658.179,7.543.046,3.159-.146,4.248-.793,4.62-1.258.012.122.025.243.036.372a1.052,1.052,0,0,1-.967,1.136c-2.363.179-8.223.583-11.049.436A.4.4,0,0,1,3322.574,7573.215Z" transform="translate(-3298.991 -7464.352)" fill="url(#linear-gradient-23)"/>
        <path id="Trazado_100930" data-name="Trazado 100930" d="M3740.523,7521.936a21.768,21.768,0,0,1,.812-3.813c.411-.785,1.817,0,1.817,0a3.729,3.729,0,0,1,1.441,1.228c.29.489,1.09,1.88,1.633,2.825a.631.631,0,0,1,.085.336l-5.63.2A1.126,1.126,0,0,1,3740.523,7521.936Z" transform="translate(-3688.736 -7413.814)" fill="url(#linear-gradient-24)"/>
        <path id="Trazado_100931" data-name="Trazado 100931" d="M3748.676,7587.629a.641.641,0,0,1-.624.623l-4.011.11a1.132,1.132,0,0,1-1-.537Z" transform="translate(-3691.099 -7478.932)" fill="url(#linear-gradient-25)"/>
        <path id="Trazado_100932" data-name="Trazado 100932" d="M3734.369,7446.875c.049.163.776,3.689,1.094,5.237a.884.884,0,0,0,.91.706c.238-.012.515-.033.806-.07a1.068,1.068,0,0,0,.928-1.018c.052-1.355.077-3.959-.421-4.968C3737,7445.371,3734.369,7446.875,3734.369,7446.875Z" transform="translate(-3683.011 -7347.069)" fill="url(#linear-gradient-26)"/>
        <path id="Trazado_100933" data-name="Trazado 100933" d="M3452.691,7456c-.312-.01.125,1.611-.347,3.2a.819.819,0,0,1-.75.646c-.243,0-.531,0-.823-.025a.905.905,0,0,1-.833-.815l-.384-4.133Z" transform="translate(-3417.513 -7355.187)" fill="url(#linear-gradient-27)"/>
        <path id="Trazado_100934" data-name="Trazado 100934" d="M3367.137,6796.187c.14.678,5.055,29.351,5.354,44.187a.5.5,0,0,0,.435.492,9.915,9.915,0,0,0,3.018-.02.357.357,0,0,0,.293-.327c.171-2.765,1.553-26.142-.139-37.146,0,0,13.977,29.417,16.1,37.528a.427.427,0,0,0,.437.319,10.546,10.546,0,0,0,2.832-.5.739.739,0,0,0,.467-.869c-1.184-4.854-9.479-38.3-15.112-45.667Z" transform="translate(-3340.687 -6739.299)" fill="url(#linear-gradient-28)"/>
        <path id="Trazado_100935" data-name="Trazado 100935" d="M3471,6901.075a.184.184,0,0,0,.131-.312l-1.872-1.914a.184.184,0,1,0-.262.257l1.872,1.914A.183.183,0,0,0,3471,6901.075Z" transform="translate(-3435.587 -6836.818)" fill="url(#linear-gradient-29)"/>
        <path id="Trazado_100936" data-name="Trazado 100936" d="M3244.129,6266.781c4.182-.628,12.389-1.529,17.742.042l-.58,16.545-19.4-2.091-1.646-2.338S3241.012,6267.25,3244.129,6266.781Z" transform="translate(-3222.406 -6246.896)" fill="url(#linear-gradient-30)"/>
        <path id="Trazado_100937" data-name="Trazado 100937" d="M3352.506,6147.639s.388,6.581.314,8.628c0,0-5.388.881-6.67-.041l1.013-7.8Z" transform="translate(-3321.123 -6136.61)" fill="url(#linear-gradient-31)"/>
        <g id="Grupo_53360" data-name="Grupo 53360" transform="translate(23.306)">
          <path id="Trazado_100938" data-name="Trazado 100938" d="M3323.619,6050.462s-2.169,3.808-2.512,5.893-.941,3.4,1.438,4.079a5.184,5.184,0,0,0,5.883-2.273s2.081-3.033,1.833-4.393S3323.619,6050.462,3323.619,6050.462Z" transform="translate(-3320.779 -6046.024)" fill="url(#linear-gradient-32)"/>
          <path id="Trazado_100939" data-name="Trazado 100939" d="M3338.216,5995.582l-.306-.033s1.542-2.455.481-3.029-5.36-1.944-6.14-3.606a2.917,2.917,0,0,1,1.551-3.869.164.164,0,0,1,.2.1l.081.2a.166.166,0,0,0,.307,0h0a.165.165,0,0,1,.3-.013c.24.5.945,1.34,3.011,1.957,2.932.874,4.779,2.3,4.605,4.371a.166.166,0,0,0,.24.162c.235-.111.6-.136,1.025.312.747.779.218,2.535-1.741,3.815a.164.164,0,0,0-.021.265c.3.248.736.806-.6,1.344a3.38,3.38,0,0,1-2.4.288.165.165,0,0,1-.106-.184l.31-1.82a.166.166,0,0,0-.145-.193Z" transform="translate(-3331.234 -5985.038)" fill="url(#linear-gradient-33)"/>
          <path id="Trazado_100940" data-name="Trazado 100940" d="M3422,6121.082s.938-2.48,2.005-1.642-.9,2.8-1.832,2.792Z" transform="translate(-3415.135 -6110.163)" fill="url(#linear-gradient-34)"/>
        </g>
        <g id="Grupo_53361" data-name="Grupo 53361" transform="translate(0 29.351)">
          <path id="Trazado_100941" data-name="Trazado 100941" d="M3079.49,6421.252l.514-2.022a1.934,1.934,0,0,1,2.26-1.418l48.437,9.882a2.028,2.028,0,0,1,1.58,2.406l-2.953,14Z" transform="translate(-3072.55 -6417.772)" fill="url(#linear-gradient-35)"/>
          <path id="Trazado_100942" data-name="Trazado 100942" d="M3011.78,6460.13l3.643-26.184a.937.937,0,0,1,1.131-.785l49.749,11.048a1.958,1.958,0,0,1,1.483,2.352l-4.175,18.1Z" transform="translate(-3009.432 -6432.097)" fill="#fff"/>
          <path id="Trazado_100943" data-name="Trazado 100943" d="M3031.15,6479.674l1.4-23.37a.985.985,0,0,1,1.187-.9L3084,6466.037a1.361,1.361,0,0,1,1.062,1.545l-2.677,16.881Z" transform="translate(-3027.488 -6452.828)" fill="#fff"/>
          <path id="Trazado_100944" data-name="Trazado 100944" d="M2977.186,6520.595l3.165-25.313a2.2,2.2,0,0,1,2.6-1.893l51.55,9.729a1.926,1.926,0,0,1,1.535,2.25l-4.354,23.068a2.085,2.085,0,0,1-2.324,1.68l-49.973-6.674A2.552,2.552,0,0,1,2977.186,6520.595Z" transform="translate(-2977.166 -6488.224)" fill="url(#linear-gradient-36)"/>
          <path id="Trazado_100945" data-name="Trazado 100945" d="M3117.945,6482.335h0a1.979,1.979,0,0,1-2.312,1.577l-11.494-2.169a1.979,1.979,0,0,1-1.577-2.312h0a1.979,1.979,0,0,1,2.312-1.578l11.494,2.17A1.979,1.979,0,0,1,3117.945,6482.335Z" transform="translate(-3094.025 -6473.746)" fill="url(#linear-gradient-37)"/>
        </g>
        <path id="Trazado_100946" data-name="Trazado 100946" d="M3479.258,6286.061l5.41-7.215s8.693,9.234,10.36,20.956l-5.423,2.644C3487.923,6298.5,3484.825,6293.152,3479.258,6286.061Z" transform="translate(-3445.203 -6258.918)" fill="url(#linear-gradient-38)"/>
        <path id="Trazado_100947" data-name="Trazado 100947" d="M3579.863,6606.566a31.454,31.454,0,0,1,2.5-3.751,2.613,2.613,0,0,0-1.624-.221c-1.067.132-1.9-.389-1.871-.97l5.092-1.562c.229-.478,1.236-3.19-1.5-9.61l5.423-2.645a24.426,24.426,0,0,1-1.9,13.855s-1.684,5.229-3.619,6.39C3577.311,6611.082,3579.617,6606.978,3579.863,6606.566Z" transform="translate(-3538.057 -6546.924)" fill="url(#linear-gradient-39)"/>
      </g>
      <g id="Grupo_53363" data-name="Grupo 53363" transform="translate(26.573 67.249)">
        <path id="Trazado_100948" data-name="Trazado 100948" d="M1664.057,5859.185l-1.068,1.353,0,0a.227.227,0,1,1-.357-.282l0,0,1.108-1.337a.207.207,0,0,1,.322.26Z" transform="translate(-1648.917 -5858.846)" fill="#fff"/>
        <path id="Trazado_100949" data-name="Trazado 100949" d="M1598.164,5930.417l-1.811,2.89-.009.014a.313.313,0,0,1-.53-.333l0-.005,1.884-2.88a.28.28,0,0,1,.471.3Z" transform="translate(-1586.636 -5925.152)" fill="#fff"/>
        <path id="Trazado_100950" data-name="Trazado 100950" d="M1543.3,6028.608l-1.452,3.081-.009.018a.382.382,0,1,1-.692-.326l0-.006,1.524-3.09a.352.352,0,0,1,.634.306Z" transform="translate(-1535.688 -6016.61)" fill="#fff"/>
        <path id="Trazado_100951" data-name="Trazado 100951" d="M1501.412,6133.2l-1.054,3.233-.008.024a.452.452,0,1,1-.86-.28l0-.008,1.128-3.261a.421.421,0,0,1,.8.268Z" transform="translate(-1496.869 -6114.057)" fill="#fff"/>
        <path id="Trazado_100952" data-name="Trazado 100952" d="M1474.138,6242.891l-.629,3.337-.006.029a.5.5,0,1,1-.989-.187v0l.677-3.388a.484.484,0,0,1,.951.184Z" transform="translate(-1471.736 -6216.281)" fill="#fff"/>
        <path id="Trazado_100953" data-name="Trazado 100953" d="M1462.42,6356.237l-.166,3.389,0,.033a.546.546,0,0,1-1.09-.054v-.006l.207-3.451a.527.527,0,0,1,1.052.057Z" transform="translate(-1461.162 -6321.956)" fill="#fff"/>
        <path id="Trazado_100954" data-name="Trazado 100954" d="M1462.889,6470.923l.3,3.378,0,.035a.588.588,0,1,1-1.171.1v-.006l-.27-3.451a.569.569,0,0,1,1.135-.1Z" transform="translate(-1461.71 -6428.894)" fill="#fff"/>
        <path id="Trazado_100955" data-name="Trazado 100955" d="M1476.348,6584.764l.759,3.3.008.037a.631.631,0,1,1-1.229.282v-.006l-.739-3.384a.612.612,0,0,1,1.194-.268Z" transform="translate(-1474.184 -6535.052)" fill="#fff"/>
        <path id="Trazado_100956" data-name="Trazado 100956" d="M1505.229,6695.611l1.184,3.174.013.036a.663.663,0,1,1-1.242.463v0l-1.195-3.251a.654.654,0,0,1,1.228-.452Z" transform="translate(-1501.047 -6638.427)" fill="#fff"/>
        <path id="Trazado_100957" data-name="Trazado 100957" d="M1548.963,6801.97l1.583,3,.018.033a.677.677,0,0,1-1.2.633v0l-1.607-3.068a.671.671,0,1,1,1.188-.622Z" transform="translate(-1541.814 -6737.638)" fill="#fff"/>
        <path id="Trazado_100958" data-name="Trazado 100958" d="M1606.035,6901.858l1.947,2.773.021.031a.691.691,0,1,1-1.131.794v0l-1.98-2.842a.685.685,0,0,1,1.124-.783Z" transform="translate(-1595.028 -6830.815)" fill="#fff"/>
        <path id="Trazado_100959" data-name="Trazado 100959" d="M1675.186,6993.779l2.278,2.507.026.029a.705.705,0,0,1-1.044.948l0,0-2.321-2.573a.7.7,0,0,1,1.038-.937Z" transform="translate(-1659.512 -6916.561)" fill="#fff"/>
        <path id="Trazado_100960" data-name="Trazado 100960" d="M1755.379,7076.2l2.583,2.186.033.028a.719.719,0,0,1-.929,1.1l0,0-2.64-2.25a.713.713,0,1,1,.925-1.084Z" transform="translate(-1734.3 -6993.453)" fill="#fff"/>
        <path id="Trazado_100961" data-name="Trazado 100961" d="M1845.884,7147.094l1.432.893.716.446c.24.146.473.3.719.439a.733.733,0,1,1-.709,1.284h0l-.019-.011c-.253-.142-.493-.3-.74-.456l-.736-.462-1.471-.926a.727.727,0,0,1,.774-1.23Z" transform="translate(-1818.717 -7059.591)" fill="#fff"/>
        <path id="Trazado_100962" data-name="Trazado 100962" d="M1946.446,7203.345q1.534.7,3.114,1.3a.738.738,0,0,1-.519,1.381q-1.627-.609-3.211-1.329a.742.742,0,0,1,.616-1.35Z" transform="translate(-1912.553 -7112.091)" fill="#fff"/>
        <path id="Trazado_100963" data-name="Trazado 100963" d="M2054.472,7242.9l3.28.813.044.011a.727.727,0,0,1-.348,1.413l-3.372-.827a.732.732,0,1,1,.349-1.421h0Z" transform="translate(-2013.342 -7148.995)" fill="#fff"/>
        <path id="Trazado_100964" data-name="Trazado 100964" d="M2167.53,7266.237l3.365.358.041,0a.717.717,0,0,1-.149,1.425l-3.448-.355a.722.722,0,1,1,.147-1.437h0Z" transform="translate(-2118.837 -7170.771)" fill="#fff"/>
        <path id="Trazado_100965" data-name="Trazado 100965" d="M2282.859,7273.726l3.389-.055h.035a.687.687,0,0,1,.028,1.373l-3.46.082a.7.7,0,1,1-.033-1.4h.042Z" transform="translate(-2226.451 -7177.708)" fill="#fff"/>
        <path id="Trazado_100966" data-name="Trazado 100966" d="M2398.455,7262.815l3.366-.437.031,0a.657.657,0,0,1,.174,1.3l-3.425.471a.67.67,0,1,1-.183-1.328h.005Z" transform="translate(-2334.308 -7167.175)" fill="#fff"/>
        <path id="Trazado_100967" data-name="Trazado 100967" d="M2512.917,7240.2l3.31-.771.025-.006a.6.6,0,0,1,.281,1.165l-3.35.832a.624.624,0,1,1-.3-1.212l.006,0Z" transform="translate(-2441.106 -7145.772)" fill="#fff"/>
        <path id="Trazado_100968" data-name="Trazado 100968" d="M2625.11,7206.636l3.225-1.087.021-.007a.541.541,0,0,1,.353,1.023l-3.251,1.149a.567.567,0,1,1-.378-1.069h0Z" transform="translate(-2545.784 -7114.174)" fill="#fff"/>
        <path id="Trazado_100969" data-name="Trazado 100969" d="M2734.007,7163.114l3.118-1.373.017-.008a.484.484,0,0,1,.4.883l-3.132,1.435a.509.509,0,1,1-.424-.926l0,0Z" transform="translate(-2647.376 -7073.325)" fill="#fff"/>
        <path id="Trazado_100970" data-name="Trazado 100970" d="M2839.1,7110.979l3-1.622.013-.007a.4.4,0,0,1,.385.692l-2.987,1.709a.438.438,0,0,1-.434-.76l.007,0Z" transform="translate(-2745.417 -7024.49)" fill="#fff"/>
        <path id="Trazado_100971" data-name="Trazado 100971" d="M2940,7050.688l2.862-1.863.009-.006a.3.3,0,0,1,.335.5l-2.835,1.943a.343.343,0,0,1-.388-.566l.005,0Z" transform="translate(-2839.543 -6968.063)" fill="#fff"/>
        <path id="Trazado_100972" data-name="Trazado 100972" d="M3036.28,6997.346l1.383-1.035,0,0a.207.207,0,0,1,.253.327l-1.355,1.085a.235.235,0,0,1-.293-.367l.005,0Z" transform="translate(-2929.356 -6919.121)" fill="#fff"/>
      </g>
    </g>
    <g id="Grupo_53366" data-name="Grupo 53366" transform="translate(1137.324 4482.876)">
      <g id="Grupo_53365" data-name="Grupo 53365" transform="translate(0 0)">
        <path id="Trazado_100973" data-name="Trazado 100973" d="M2087.884,4569.761c-2.489-6.465-2.577-15.829,1.249-22.949,6.451-12.02,21.91-15.917,21.909-30.113a11.459,11.459,0,0,0-3.541-8.581c-5.749-5.321-15.812-3.535-23.116-.708a44.234,44.234,0,0,0-13.246,8.2v-25.074c8.92-5.332,19.39-7.663,29.657-7.663,21.039,0,36.57,9.111,36.57,30.156,0,19.193-13.555,26.631-22.952,35.487-5.216,4.916-6.621,8.909-6.621,13.66a15.06,15.06,0,0,0,2,7.581Zm12.336,35.258c-20.451,0-20.659-27.491,0-27.491C2120.569,4577.528,2120.592,4605.019,2100.22,4605.019Z" transform="translate(-2071.139 -4482.876)" fill="#a737d5"/>
      </g>
    </g>
  </g>
</svg>
