<svg xmlns="http://www.w3.org/2000/svg" xmlns:xlink="http://www.w3.org/1999/xlink" width="255.167" height="246.75" viewBox="0 0 255.167 246.75">
  <defs>
    <linearGradient id="linear-gradient" x1="0.339" y1="0.027" x2="0.863" y2="1.961" gradientUnits="objectBoundingBox">
      <stop offset="0.004" stop-color="#e38ddd"/>
      <stop offset="1" stop-color="#9571f6"/>
    </linearGradient>
    <clipPath id="clip-path">
      <path id="Trazado_101346" data-name="Trazado 101346" d="M986.378,2157.4a17.109,17.109,0,0,0,7.722-2.355c6.883-6.022,20.5-16.461,21.726-26.051.209-1.638-6.748-4.5-7.483-6.18-3.992-2.9-5.557-3.663-8-8.287-7.2-13.653,18.508-31.914-5.055-44.459-17.26-9.19-33.936-5.784-26.613-33.882s-5.5-84.22-39.3-70.011c-19.4,8.154-6.431,35.656-18.665,51.845-11.625,15.384-7.057,30.706,9.056,44.278s5.012,19.591-3.259,34.732c-9.934,18.188,19.219,27.221,33.034,30.243C960.673,2129.7,987.358,2143.407,986.378,2157.4Z" transform="translate(-904.225 -1963.907)" fill="url(#linear-gradient)"/>
    </clipPath>
    <clipPath id="clip-path-2">
      <path id="Trazado_101353" data-name="Trazado 101353" d="M503.215,2587.877a17.115,17.115,0,0,0,6.3-5.043c4.169-8.141,12.963-22.875,10.555-32.239-.411-1.6-7.935-1.688-9.238-2.975-4.783-1.221-6.518-1.348-10.494-4.743-11.74-10.022,5.4-36.495-21.134-39.44-19.434-2.157-33.67,7.173-37.254-21.643s-36.25-76.218-62.4-50.521c-15.006,14.747,7.207,35.507,1.826,55.072-5.114,18.591,4.8,31.139,24.784,37.792s11.9,16.35,9.814,33.476c-2.506,20.572,27.921,18.186,41.874,15.886C469.092,2571.648,498.953,2574.513,503.215,2587.877Z" transform="translate(-374.262 -2423.893)" fill="#fe8794"/>
    </clipPath>
    <linearGradient id="linear-gradient-3" x1="0.422" y1="0.514" x2="0.352" y2="0.835" gradientUnits="objectBoundingBox">
      <stop offset="0" stop-color="#40447e"/>
      <stop offset="0.996" stop-color="#3c3b6b"/>
    </linearGradient>
    <linearGradient id="linear-gradient-4" x1="0.479" y1="0.466" x2="0.369" y2="0.525" xlink:href="#linear-gradient-3"/>
    <linearGradient id="linear-gradient-5" x1="0" y1="0.5" x2="1" y2="0.5" xlink:href="#linear-gradient-3"/>
    <linearGradient id="linear-gradient-8" x1="0.835" y1="-0.203" x2="-0.138" y2="1.782" gradientUnits="objectBoundingBox">
      <stop offset="0" stop-color="#aa80f9"/>
      <stop offset="0.996" stop-color="#6165d7"/>
    </linearGradient>
    <linearGradient id="linear-gradient-9" x1="0.414" y1="-2.198" x2="0.583" y2="3.531" xlink:href="#linear-gradient-8"/>
    <linearGradient id="linear-gradient-10" x1="0.5" y1="2.076" x2="0.5" y2="0.226" xlink:href="#linear-gradient-8"/>
  </defs>
  <g id="Grupo_53654" data-name="Grupo 53654" transform="translate(-374.262 -1909.008)">
    <g id="Grupo_53601" data-name="Grupo 53601" transform="translate(374.262 1909.008)">
      <g id="Grupo_53594" data-name="Grupo 53594" transform="translate(47.717 0)">
        <g id="Grupo_53593" data-name="Grupo 53593" transform="translate(0)">
          <g id="Grupo_53592" data-name="Grupo 53592" style="mix-blend-mode: soft-light;isolation: isolate">
            <path id="Trazado_101340" data-name="Trazado 101340" d="M986.378,2157.4a17.109,17.109,0,0,0,7.722-2.355c6.883-6.022,20.5-16.461,21.726-26.051.209-1.638-6.748-4.5-7.483-6.18-3.992-2.9-5.557-3.663-8-8.287-7.2-13.653,18.508-31.914-5.055-44.459-17.26-9.19-33.936-5.784-26.613-33.882s-5.5-84.22-39.3-70.011c-19.4,8.154-6.431,35.656-18.665,51.845-11.625,15.384-7.057,30.706,9.056,44.278s5.012,19.591-3.259,34.732c-9.934,18.188,19.219,27.221,33.034,30.243C960.673,2129.7,987.358,2143.407,986.378,2157.4Z" transform="translate(-904.225 -1963.907)" fill="url(#linear-gradient)"/>
            <g id="Grupo_53591" data-name="Grupo 53591" clip-path="url(#clip-path)">
              <g id="Grupo_53590" data-name="Grupo 53590" transform="translate(-3.415 -4.949)">
                <g id="Grupo_53589" data-name="Grupo 53589">
                  <path id="Trazado_101341" data-name="Trazado 101341" d="M1316.575,2092.772l.263-.355c-54.581-40.574-79.174-109.134-65.787-183.4l-.435-.079c-6.344,35.2-4.03,70.452,6.694,101.958A169.341,169.341,0,0,0,1316.575,2092.772Z" transform="translate(-1212.829 -1908.94)" fill="#fcfdfe"/>
                  <path id="Trazado_101342" data-name="Trazado 101342" d="M984.648,3510.67c18.442-2.435,47.525,2.871,64.832,11.827l.2-.392c-17.375-8.991-46.575-14.317-65.092-11.873Z" transform="translate(-973.939 -3365.513)" fill="#fcfdfe"/>
                  <path id="Trazado_101343" data-name="Trazado 101343" d="M1833.607,3203.529l.351-.267c-6.136-8.059-7.962-18.91-5.427-32.252,1.859-9.783,5.975-20.653,12.235-32.307l-.389-.209c-6.281,11.694-10.413,22.606-12.28,32.434C1825.538,3184.4,1827.392,3195.366,1833.607,3203.529Z" transform="translate(-1740.484 -3027.785)" fill="#fcfdfe"/>
                  <path id="Trazado_101344" data-name="Trazado 101344" d="M909.431,2723.074l.365-.249c-10.784-15.786-29.551-22.994-43.4-26.26l-.1.43C880.067,2700.244,898.727,2707.406,909.431,2723.074Z" transform="translate(-866.298 -2625.648)" fill="#fcfdfe"/>
                  <path id="Trazado_101345" data-name="Trazado 101345" d="M1252.882,2050.667l.439.05c2.438-21.4,18.081-37.719,27.189-45.542l-.288-.335C1271.065,2012.706,1255.336,2029.119,1252.882,2050.667Z" transform="translate(-1218.074 -1996.205)" fill="#fcfdfe"/>
                </g>
              </g>
            </g>
          </g>
        </g>
      </g>
      <g id="Grupo_53600" data-name="Grupo 53600" transform="translate(0 41.417)">
        <g id="Grupo_53599" data-name="Grupo 53599">
          <g id="Grupo_53598" data-name="Grupo 53598" style="mix-blend-mode: soft-light;isolation: isolate">
            <path id="Trazado_101347" data-name="Trazado 101347" d="M503.215,2587.877a17.115,17.115,0,0,0,6.3-5.043c4.169-8.141,12.963-22.875,10.555-32.239-.411-1.6-7.935-1.688-9.238-2.975-4.783-1.221-6.518-1.348-10.494-4.743-11.74-10.022,5.4-36.495-21.134-39.44-19.434-2.157-33.67,7.173-37.254-21.643s-36.25-76.218-62.4-50.521c-15.006,14.747,7.207,35.507,1.826,55.072-5.114,18.591,4.8,31.139,24.784,37.792s11.9,16.35,9.814,33.476c-2.506,20.572,27.921,18.186,41.874,15.886C469.092,2571.648,498.953,2574.513,503.215,2587.877Z" transform="translate(-374.262 -2423.893)" fill="#fe8794"/>
            <g id="Grupo_53597" data-name="Grupo 53597" clip-path="url(#clip-path-2)">
              <g id="Grupo_53596" data-name="Grupo 53596" transform="translate(2.394 -3.716)">
                <g id="Grupo_53595" data-name="Grupo 53595">
                  <path id="Trazado_101348" data-name="Trazado 101348" d="M627.787,2539.084l.114-.426c-65.714-17.52-113.914-72.129-128.933-146.08l-.433.088c7.118,35.048,22.3,66.95,43.916,92.258A169.34,169.34,0,0,0,627.787,2539.084Z" transform="translate(-489.739 -2391.682)" fill="#fcfdfe"/>
                  <path id="Trazado_101349" data-name="Trazado 101349" d="M812.975,3863.314c16.235-9.08,45.219-14.9,64.61-12.98l.043-.439c-19.468-1.93-48.568,3.917-64.869,13.035Z" transform="translate(-775.672 -3717.448)" fill="#fcfdfe"/>
                  <path id="Trazado_101350" data-name="Trazado 101350" d="M1601.621,3343.89l.228-.379c-8.681-5.219-14.389-14.626-16.967-27.96-1.89-9.777-2.084-21.4-.577-34.542l-.439-.05c-1.512,13.188-1.317,24.854.582,34.675C1587.051,3329.1,1592.829,3338.6,1601.621,3343.89Z" transform="translate(-1476.435 -3200.074)" fill="#fcfdfe"/>
                  <path id="Trazado_101351" data-name="Trazado 101351" d="M450.631,3277.348l.247-.366c-15.856-10.679-35.959-10.438-50.03-8.355l.065.437C414.906,3266.992,434.892,3266.748,450.631,3277.348Z" transform="translate(-400.847 -3187.818)" fill="#fcfdfe"/>
                  <path id="Trazado_101352" data-name="Trazado 101352" d="M672.485,2435.314l.426-.116c-5.647-20.784,2.854-41.731,8.424-52.368l-.391-.2C675.344,2393.319,666.8,2414.385,672.485,2435.314Z" transform="translate(-646.321 -2382.625)" fill="#fcfdfe"/>
                </g>
              </g>
            </g>
          </g>
        </g>
      </g>
    </g>
    <g id="Grupo_53603" data-name="Grupo 53603" transform="translate(380.912 2007.88)">
      <path id="Trazado_101354" data-name="Trazado 101354" d="M721.492,4455.218l-246.058-2.162v6.4a3.388,3.388,0,0,0,2.527,3.477l69.578,12.6a9.492,9.492,0,0,0,2.5.119l168.783-14.368a3.222,3.222,0,0,0,2.674-3.394Z" transform="translate(-472.975 -4327.807)" fill="url(#linear-gradient-3)"/>
      <g id="Grupo_53602" data-name="Grupo 53602">
        <path id="Trazado_101355" data-name="Trazado 101355" d="M607.348,3179.044l-154.22,11.707a4.742,4.742,0,0,1-5-4.973v-118.42a5.189,5.189,0,0,1,5-5.352h154.22c2.274,0,4.112,2.166,4.112,4.838v107.05C611.459,3176.566,609.621,3178.871,607.348,3179.044Z" transform="translate(-448.124 -3062.006)" fill="url(#linear-gradient-4)"/>
        <path id="Trazado_101356" data-name="Trazado 101356" d="M634.658,3179.044l-154.22,11.707a4.742,4.742,0,0,1-5-4.973v-118.42a5.189,5.189,0,0,1,5-5.352h154.22c2.273,0,4.112,2.166,4.112,4.838v107.05C638.769,3176.566,636.931,3178.871,634.658,3179.044Z" transform="translate(-472.975 -3062.006)" fill="url(#linear-gradient-5)"/>
        <path id="Trazado_101357" data-name="Trazado 101357" d="M697.652,3240.982l-143.64,10.168a3.888,3.888,0,0,1-4.071-4.081V3143.393a4.252,4.252,0,0,1,4.071-4.387l143.64-.639a3.7,3.7,0,0,1,3.393,3.965v94.431A4.054,4.054,0,0,1,697.652,3240.982Z" transform="translate(-540.773 -3131.491)" fill="#d8dee8"/>
        <path id="Trazado_101358" data-name="Trazado 101358" d="M1412.009,3077.857a1.788,1.788,0,1,1-1.774-1.991A1.9,1.9,0,0,1,1412.009,3077.857Z" transform="translate(-1321.99 -3074.618)" fill="#fff"/>
        <path id="Trazado_101359" data-name="Trazado 101359" d="M597.5,3146.565c-11.889-6.871-21.237,1.835-30.259-6.755-5.47-5.208-2.784-9.091-9.514-16.874-7.454-8.62-12.307-5.722-19.8-13.48-9.472-9.809-4.735-17.441-12.894-24.484-9.9-8.544-20.573-.635-30-8.83-4.064-3.534-6.294-8.672-7.458-14.136h-9.219a3.041,3.041,0,0,0-2.928,3.141V3187.9a2.777,2.777,0,0,0,2.928,2.918l157.176-11.983a2.513,2.513,0,0,0,1.894-1.244c-11.506-.451-18.574-4.593-23.093-8.876C605.5,3160.336,607.033,3152.074,597.5,3146.565Z" transform="translate(-472.975 -3062.006)" fill="#fff" opacity="0.48" style="mix-blend-mode: soft-light;isolation: isolate"/>
      </g>
      <path id="Trazado_101360" data-name="Trazado 101360" d="M640.8,4355.624l-165.37,12.322,72.1,13.059a9.492,9.492,0,0,0,2.5.119l171.457-14.595-78.057-10.821A12.476,12.476,0,0,0,640.8,4355.624Z" transform="translate(-472.975 -4239.116)" fill="url(#linear-gradient-5)"/>
      <path id="Trazado_101361" data-name="Trazado 101361" d="M743.431,4391.044l137.676-10.411,42.609,5.858-136.49,11.13Z" transform="translate(-716.842 -4261.905)" opacity="0.3" fill="url(#linear-gradient-5)" style="mix-blend-mode: multiply;isolation: isolate"/>
    </g>
    <g id="Grupo_53616" data-name="Grupo 53616" transform="translate(407.501 1961.138)">
      <g id="Grupo_53613" data-name="Grupo 53613">
        <g id="Grupo_53605" data-name="Grupo 53605">
          <path id="Trazado_101362" data-name="Trazado 101362" d="M886.249,2547.308l-134.628-4.424a7.9,7.9,0,0,0-8.19,7.955v131.215a7.8,7.8,0,0,0,8.19,7.875l134.628-5.749c3.894-.167,7.039-3.7,7.039-7.894V2555.133C893.287,2550.939,890.143,2547.436,886.249,2547.308Z" transform="translate(-743.431 -2542.879)" fill="url(#linear-gradient-8)"/>
          <path id="Trazado_101363" data-name="Trazado 101363" d="M778.124,2713.759a5.312,5.312,0,0,1-5.567-5.361V2577.36a5.374,5.374,0,0,1,5.567-5.415l134.628,4.243a5.19,5.19,0,0,1,4.8,5.327v121.3a5.252,5.252,0,0,1-4.8,5.374Z" transform="translate(-769.935 -2569.325)" fill="#fff" opacity="0.74" style="mix-blend-mode: soft-light;isolation: isolate"/>
          <path id="Trazado_101364" data-name="Trazado 101364" d="M886.249,2547.308l-134.628-4.424a7.9,7.9,0,0,0-8.19,7.955v5.9l149.856,3.841v-5.447C893.287,2550.939,890.143,2547.436,886.249,2547.308Z" transform="translate(-743.431 -2542.879)" fill="url(#linear-gradient-9)"/>
          <path id="Trazado_101365" data-name="Trazado 101365" d="M851.409,2599.3a2.576,2.576,0,0,1-2.655,2.6,2.763,2.763,0,0,1-2.663-2.753,2.576,2.576,0,0,1,2.663-2.6A2.763,2.763,0,0,1,851.409,2599.3Z" transform="translate(-836.848 -2591.715)" fill="#fff"/>
          <path id="Trazado_101366" data-name="Trazado 101366" d="M954.863,2602.43a2.557,2.557,0,0,1-2.63,2.586,2.742,2.742,0,0,1-2.637-2.739,2.557,2.557,0,0,1,2.637-2.586A2.744,2.744,0,0,1,954.863,2602.43Z" transform="translate(-931.033 -2594.575)" fill="#fff"/>
          <path id="Trazado_101367" data-name="Trazado 101367" d="M1057.331,2605.528a2.54,2.54,0,0,1-2.6,2.574,2.724,2.724,0,0,1-2.612-2.726,2.539,2.539,0,0,1,2.612-2.573A2.724,2.724,0,0,1,1057.331,2605.528Z" transform="translate(-1024.321 -2597.406)" fill="#fff"/>
          <g id="Grupo_53604" data-name="Grupo 53604" opacity="0.5" style="mix-blend-mode: soft-light;isolation: isolate">
            <path id="Trazado_101368" data-name="Trazado 101368" d="M833.918,2597.75c-15.724-22.88-42.941-15.6-60.159-40.881a55.33,55.33,0,0,1-6.657-13.477l-15.481-.509a7.9,7.9,0,0,0-8.19,7.955v131.215a7.8,7.8,0,0,0,8.19,7.875l129.7-5.538c-2.971-4.285-28.849-20.157-35.534-44.527C839.671,2617.577,843.405,2611.555,833.918,2597.75Z" transform="translate(-743.431 -2542.879)" fill="#fff"/>
          </g>
        </g>
        <g id="Grupo_53612" data-name="Grupo 53612" transform="translate(10.041 31.317)">
          <path id="Trazado_101369" data-name="Trazado 101369" d="M987.448,3083.462l-132.5-.159v-4.33l132.5.537Z" transform="translate(-854.949 -3062.021)" fill="#fff"/>
          <path id="Trazado_101370" data-name="Trazado 101370" d="M987.448,2902.918l-132.5-1.126v-11.1l132.5,2.1Z" transform="translate(-854.949 -2890.691)" fill="#fff"/>
          <g id="Grupo_53607" data-name="Grupo 53607" transform="translate(2.929 28.167)">
            <g id="Grupo_53606" data-name="Grupo 53606">
              <path id="Trazado_101371" data-name="Trazado 101371" d="M905.056,3220.215l-17.575.1v-16.79l17.575.021Zm-15.524-2.2,12.888-.062v-12.132l-12.888,0Z" transform="translate(-887.481 -3203.528)" fill="#fff"/>
            </g>
            <path id="Trazado_101372" data-name="Trazado 101372" d="M1265.772,3208.324l-101.77.059v-4.531l101.77.106Z" transform="translate(-1139.104 -3203.823)" fill="#fff"/>
            <path id="Trazado_101373" data-name="Trazado 101373" d="M1265.772,3289.955l-101.77.327V3286l101.77-.17Z" transform="translate(-1139.104 -3278.422)" fill="#fff"/>
          </g>
          <g id="Grupo_53609" data-name="Grupo 53609" transform="translate(2.929 52.067)">
            <g id="Grupo_53608" data-name="Grupo 53608" transform="translate(0 0.867)">
              <path id="Trazado_101374" data-name="Trazado 101374" d="M905.056,3495.257l-17.575.289v-16.79l17.575-.165Zm-15.524-2.034,12.888-.2v-12.133l-12.888.133Z" transform="translate(-887.481 -3478.592)" fill="#fff"/>
            </g>
            <path id="Trazado_101375" data-name="Trazado 101375" d="M1265.772,3473.327l-101.77.964v-4.531l101.77-.8Z" transform="translate(-1139.104 -3468.962)" fill="#fff"/>
            <path id="Trazado_101376" data-name="Trazado 101376" d="M1265.772,3553.876,1164,3555.108v-4.279l101.77-1.075Z" transform="translate(-1139.104 -3542.48)" fill="#fff"/>
          </g>
          <g id="Grupo_53611" data-name="Grupo 53611" transform="translate(2.929 75.83)">
            <g id="Grupo_53610" data-name="Grupo 53610" transform="translate(0 1.849)">
              <path id="Trazado_101377" data-name="Trazado 101377" d="M905.056,3770.087l-17.575.475v-16.791l17.575-.349Zm-15.524-1.617,12.888-.339v-12.386l-12.888.271Z" transform="translate(-887.481 -3753.422)" fill="#fff"/>
            </g>
            <path id="Trazado_101378" data-name="Trazado 101378" d="M1265.772,3737.248,1164,3739.116v-4.531l101.77-1.7Z" transform="translate(-1139.104 -3732.883)" fill="#fff"/>
            <path id="Trazado_101379" data-name="Trazado 101379" d="M1265.772,3817.8,1164,3819.934v-4.279l101.77-1.98Z" transform="translate(-1139.104 -3806.401)" fill="#fff"/>
          </g>
        </g>
      </g>
      <g id="Grupo_53614" data-name="Grupo 53614" transform="translate(11.902 58.378)">
        <path id="Trazado_101380" data-name="Trazado 101380" d="M882.8,3208.258a1.935,1.935,0,0,1-1.34-.52l-5.279-4.995a1.745,1.745,0,0,1,0-2.558,1.973,1.973,0,0,1,2.691-.006l3.664,3.475L891,3192.012a1.929,1.929,0,0,1,2.612-.447,1.749,1.749,0,0,1,.471,2.5l-9.724,13.41a1.927,1.927,0,0,1-1.385.776Q882.884,3208.257,882.8,3208.258Z" transform="translate(-875.623 -3191.242)" fill="url(#linear-gradient-10)"/>
      </g>
      <g id="Grupo_53615" data-name="Grupo 53615" transform="translate(12.363 83.383)">
        <path id="Trazado_101381" data-name="Trazado 101381" d="M887.914,3485.977a1.932,1.932,0,0,1-1.339-.52l-5.279-5a1.745,1.745,0,0,1,0-2.558,1.974,1.974,0,0,1,2.691-.006l3.664,3.476,8.459-11.641a1.929,1.929,0,0,1,2.612-.447,1.748,1.748,0,0,1,.471,2.5l-9.724,13.411a1.923,1.923,0,0,1-1.385.776C888.027,3485.974,887.97,3485.977,887.914,3485.977Z" transform="translate(-880.737 -3468.962)" fill="url(#linear-gradient-10)"/>
      </g>
    </g>
  </g>
</svg>
